<svg width="19" height="13" viewBox="0 0 19 13" fill="none" xmlns="http://www.w3.org/2000/svg">
<g clip-path="url(#clip0_783_7575)">
<path d="M17.7729 12.711H1.82628C1.50094 12.711 1.18894 12.5801 0.958892 12.3472C0.728847 12.1143 0.599609 11.7984 0.599609 11.469L0.599609 6.24428H1.48332L1.68265 5.75576H2.12885L2.32768 6.24221H4.06647V5.8722L4.22185 6.2448H5.12447L5.27985 5.86598V6.24376H9.60027V5.44474H9.68205C9.74032 5.44681 9.75718 5.45199 9.75718 5.55031V6.2448H11.9923V6.05901C12.2207 6.17649 12.4901 6.24531 12.7758 6.24531L12.8244 6.2448H12.8218H13.7622L13.9636 5.75835H14.4098L14.6066 6.2448H16.419V5.78215L16.693 6.2448H18.1425V3.18947H16.7078V3.55017L16.5069 3.18947H15.0318V3.55017L14.8473 3.18947H12.8555C12.5538 3.17403 12.2531 3.23692 11.9821 3.37215L11.9928 3.3675V3.18947H10.6189V3.3675C10.4526 3.23478 10.2426 3.1713 10.0317 3.18999H10.0347H5.01407L4.67725 3.97918L4.33123 3.18999H2.74985V3.55069L2.57556 3.18999H1.22623L0.601143 4.63899V1.53399C0.601143 1.20459 0.73038 0.888686 0.960425 0.655766C1.19047 0.422845 1.50248 0.291992 1.82781 0.291992H17.7745C18.0998 0.291992 18.4118 0.422845 18.6419 0.655766C18.8719 0.888686 19.0011 1.20459 19.0011 1.53399V6.95739H18.0438C18.0285 6.95636 18.0101 6.95636 17.9922 6.95636C17.7704 6.95636 17.5644 7.02363 17.3927 7.13904L17.3968 7.13645V6.95739H15.981C15.7598 6.94502 15.541 7.00866 15.36 7.138L15.363 7.13593V6.95687H12.8351V7.13593C12.6281 7.01776 12.3944 6.95606 12.1568 6.95687H12.1369H12.1379H10.4702V7.13593C10.2523 6.99461 9.99374 6.93172 9.73623 6.95739L9.74083 6.95687H7.87476L7.44747 7.4247L7.04779 6.95687H4.26019V10.0143H6.99565L7.43572 9.5392L7.85023 10.0143H9.53638V9.29856H9.77149C9.99756 9.30751 10.223 9.26929 10.4339 9.18626L10.4227 9.1904V10.0153H11.8129V9.21887H11.8798C11.9647 9.21887 11.9734 9.22197 11.9734 9.30891V10.0158H16.1982L16.2498 10.0169C16.4921 10.0169 16.718 9.94337 16.9061 9.81762L16.9015 9.8202V10.0158H18.2416L18.3055 10.0169C18.5565 10.0169 18.7952 9.96458 19.0119 9.86988L19.0001 9.87454V11.4695C19.0001 11.7989 18.8709 12.1148 18.6408 12.3477C18.4108 12.5806 18.0988 12.7115 17.7734 12.7115L17.7729 12.711ZM11.3866 9.58578H10.8663V7.39416H12.0603C12.2759 7.37393 12.493 7.41066 12.6904 7.50077L12.6823 7.49766C12.8422 7.58667 12.9491 7.75641 12.9491 7.95099L12.9481 7.98567V7.98411L12.9486 8.00378C12.9486 8.25528 12.7988 8.4716 12.5841 8.56578L12.5801 8.56734C12.6828 8.6046 12.7687 8.66825 12.8325 8.75053L12.8336 8.75156C12.9057 8.87251 12.9359 9.01439 12.9194 9.1547L12.9199 9.15159V9.58526H12.4007V9.31098C12.4252 9.16165 12.3956 9.00836 12.3173 8.87939L12.3189 8.88198C12.2649 8.84051 12.2032 8.81056 12.1375 8.79392C12.0718 8.77729 12.0034 8.77432 11.9366 8.7852L11.9396 8.78468H11.3866V9.58526V9.58578ZM11.3866 7.84698V8.33912H12.0153C12.104 8.34742 12.1934 8.33133 12.2739 8.29254L12.2708 8.2941C12.3037 8.27259 12.3308 8.24309 12.3495 8.20829C12.3683 8.17349 12.3781 8.1345 12.3782 8.09486L12.3777 8.08296V8.08347C12.3802 8.04392 12.3716 8.00445 12.3529 7.96964C12.3341 7.93483 12.306 7.90612 12.2718 7.88682L12.2708 7.88631C12.1933 7.85118 12.1081 7.83692 12.0234 7.84491H12.0255L11.3866 7.84698ZM6.77383 9.58526H4.72581V7.39416H6.80603L7.44236 8.11245L8.10016 7.39416H9.75259C10.3393 7.39416 10.6245 7.63066 10.6245 8.11608C10.6245 8.61029 10.3296 8.85041 9.72499 8.85041H9.07843V9.58474H8.07307L7.43623 8.86076L6.77434 9.58526H6.77383ZM8.56323 7.62911L7.76896 8.49333L8.56323 9.3855V7.62911ZM5.24152 8.69257V9.1283H6.51316L7.10094 8.48557L6.53565 7.84698H5.24101V8.24545H6.3767V8.69205L5.24152 8.69257ZM9.07843 7.84749V8.40536H9.74645C9.95089 8.40536 10.0685 8.29979 10.0685 8.11556C10.0685 7.93961 9.95907 7.84698 9.75207 7.84698L9.07843 7.84749ZM18.2978 9.58629H17.2991V9.11537H18.2938C18.3682 9.12576 18.4436 9.10605 18.5038 9.06051L18.5033 9.06103C18.5225 9.04299 18.5378 9.02113 18.5483 8.99682C18.5588 8.97251 18.5642 8.94627 18.5641 8.91975V8.91147C18.5642 8.88528 18.5586 8.85939 18.5477 8.83562C18.5369 8.81184 18.521 8.79075 18.5013 8.77382C18.4484 8.73511 18.3831 8.71777 18.3183 8.72517H18.3193L18.2237 8.72207C17.7566 8.70965 17.2276 8.69516 17.2276 8.04673C17.2276 7.73106 17.4228 7.39416 17.9692 7.39416H19.0001V7.86095H18.0571C17.9843 7.85269 17.9107 7.86752 17.8465 7.90338L17.8486 7.90235C17.8233 7.91916 17.8031 7.94255 17.7898 7.97005C17.7766 7.99755 17.771 8.02815 17.7734 8.05863V8.05812V8.06381C17.7734 8.09868 17.7843 8.13266 17.8045 8.16091C17.8247 8.18916 17.8532 8.21023 17.8859 8.22113L17.8869 8.22165C17.9517 8.24188 18.0196 8.25029 18.0873 8.24649H18.0857L18.3663 8.25373C18.5779 8.23236 18.7892 8.29612 18.9546 8.43123L18.9531 8.4302C18.9684 8.44262 18.9817 8.45607 18.9935 8.47108L18.994 8.4716L19.0001 9.30581C18.9142 9.4075 18.8048 9.48623 18.6817 9.53505C18.5586 9.58388 18.4256 9.6013 18.2943 9.58578L18.2978 9.58629ZM16.2795 9.58629H15.2716V9.11537H16.2744C16.3494 9.12531 16.4253 9.10567 16.4865 9.06051L16.4854 9.06103C16.5045 9.04293 16.5197 9.02105 16.5301 8.99674C16.5405 8.97244 16.5458 8.94623 16.5458 8.91975V8.91458C16.5457 8.88794 16.5401 8.86162 16.5293 8.83735C16.5184 8.81308 16.5026 8.79143 16.4829 8.77382C16.4291 8.73508 16.363 8.71776 16.2974 8.72517H16.2984L16.2033 8.72207C15.7377 8.70965 15.2092 8.69516 15.2092 8.04673C15.2092 7.73106 15.4034 7.39416 15.9488 7.39416H16.9853V7.86095H16.0367C15.9644 7.85278 15.8913 7.86761 15.8276 7.90338L15.8297 7.90235C15.8028 7.92105 15.7815 7.94676 15.7679 7.97674C15.7543 8.00672 15.7489 8.03987 15.7524 8.07268C15.7558 8.1055 15.768 8.13676 15.7875 8.16316C15.8071 8.18956 15.8333 8.21013 15.8634 8.22268L15.8644 8.2232C15.9301 8.24358 15.9988 8.25199 16.0674 8.24804H16.0658L16.3444 8.25528C16.557 8.23454 16.7693 8.29838 16.9362 8.4333L16.9347 8.43175C16.9909 8.49444 17.0336 8.56825 17.0602 8.6485C17.0867 8.72876 17.0966 8.81372 17.0891 8.89802V8.89543C17.0906 9.35238 16.8172 9.58526 16.2779 9.58526L16.2795 9.58629ZM14.9618 9.58629H13.2343V7.39365H14.9603V7.84646H13.7505V8.24493H14.9322V8.69153H13.7505V9.12727L14.9618 9.12934V9.58474V9.58629ZM15.9687 5.81579H14.9153L14.7139 5.32727H13.6396L13.4443 5.81579H12.8392C12.5674 5.8303 12.2998 5.7436 12.0868 5.57204L12.0894 5.5736C11.9882 5.46053 11.9114 5.32736 11.8639 5.18257C11.8164 5.03778 11.7992 4.88455 11.8134 4.73266L11.8129 4.7368C11.7997 4.58211 11.8178 4.42633 11.8659 4.27891C11.9141 4.1315 11.9913 3.99555 12.093 3.8793L12.0919 3.88034C12.1993 3.78532 12.3248 3.71368 12.4606 3.66987C12.5965 3.62607 12.7398 3.61104 12.8816 3.62573L12.8775 3.62521H13.3784V4.09251H12.8877C12.8159 4.08315 12.743 4.08993 12.6741 4.11239C12.6052 4.13484 12.542 4.1724 12.4891 4.22241L12.4896 4.22189C12.3803 4.36358 12.3273 4.54151 12.3408 4.72076V4.71817C12.3246 4.90233 12.3757 5.08613 12.4845 5.23464L12.4829 5.23256C12.5845 5.31664 12.7146 5.35713 12.8453 5.34538H12.8433H13.0753L13.8067 3.6221H14.5836L15.4591 5.69211V3.6221H16.2468L17.1555 5.1477V3.6221H17.6871V5.81217H16.949L15.9677 4.16755V5.81217L15.9687 5.81579ZM14.1803 3.99522L13.8241 4.86876H14.5381L14.1803 3.99522ZM9.17196 5.81475H8.65472V3.62366H9.84458C10.0618 3.60084 10.281 3.63822 10.4789 3.73182L10.4712 3.72871C10.5508 3.77325 10.6171 3.83854 10.6633 3.91781C10.7095 3.99707 10.7339 4.08742 10.7339 4.17945L10.7329 4.21568V4.21413V4.23017C10.7329 4.34969 10.6989 4.46668 10.6349 4.5671C10.5709 4.66752 10.4796 4.74711 10.3721 4.79631L10.368 4.79786C10.4707 4.83719 10.5571 4.90033 10.623 4.98106L10.624 4.98209C10.697 5.10349 10.727 5.24634 10.7094 5.3873L10.7099 5.38419V5.81424H10.1881L10.186 5.53789V5.49649C10.2046 5.36137 10.175 5.22397 10.1027 5.10888L10.1042 5.11147C10.0501 5.0712 9.98862 5.04219 9.92335 5.02612C9.85808 5.01004 9.79031 5.00721 9.72396 5.0178L9.72703 5.01729H9.17247V5.81424L9.17196 5.81475ZM9.17196 4.07958V4.56602H9.79961C9.88827 4.57576 9.97783 4.5596 10.0577 4.51945L10.0552 4.52049C10.0879 4.50033 10.115 4.47199 10.1338 4.43819C10.1526 4.40438 10.1625 4.36625 10.1625 4.32746L10.162 4.31297V4.31349C10.1646 4.27416 10.1558 4.23493 10.1366 4.20063C10.1174 4.16633 10.0888 4.13846 10.0541 4.12046L10.0531 4.11994C9.97534 4.08615 9.89063 4.07195 9.80625 4.07854H9.80778L9.17196 4.07958ZM3.6949 5.81475H2.64405L2.44523 5.32623H1.36781L1.16745 5.81475H0.605232L1.53188 3.62366H2.30008L3.1797 5.69728V3.62366H4.02354L4.70025 5.1094L5.32227 3.62366H6.1835V5.81372H5.65194L5.65092 4.09976L4.90112 5.81424H4.44725L3.69541 4.09717V5.81424L3.6949 5.81475ZM1.90396 3.99522L1.55181 4.86876H2.25816L1.90396 3.99522ZM11.5578 5.81424H11.0304V3.62366H11.5583V5.81372L11.5578 5.81424ZM8.29387 5.81424H6.56939V3.62366H8.29694V4.07906H7.08663V4.47391H8.26781V4.92362H7.08561V5.36142H8.29592V5.81372L8.29387 5.81424Z" fill="#414FCB"/>
</g>
<defs>
<clipPath id="clip0_783_7575">
<rect width="18.4" height="12.42" fill="white" transform="translate(0.599609 0.290039)"/>
</clipPath>
</defs>
</svg>
