<svg width="23" height="14" viewBox="0 0 23 14" fill="none" xmlns="http://www.w3.org/2000/svg">
<path d="M0 2.59165V11.3821C0 12.8134 1.16034 13.9738 2.59165 13.9738H20.4083C21.8396 13.9738 23 12.8134 23 11.3821V2.59165C23 1.16033 21.8396 0 20.4083 0H2.59165C1.16034 0 0 1.16033 0 2.59165ZM0.96924 11.5815V2.39227C0.96924 1.68916 1.54113 1.11728 2.24424 1.11728H3.26783V12.8565H2.24424C1.54113 12.8565 0.96924 12.2846 0.96924 11.5815ZM4.06462 1.11728H18.0423V1.56876V12.4052V12.8567H4.06462V1.11728ZM22.0307 2.39227V11.5815C22.0307 12.2846 21.4589 12.8565 20.7558 12.8565H18.8389V1.11728H20.7558C21.4589 1.11728 22.0307 1.68916 22.0307 2.39227Z" fill="white"/>
<path d="M2.53924 9.25958V4.71493C2.53924 4.49484 2.36079 4.31641 2.1407 4.31641C1.9206 4.31641 1.74219 4.49484 1.74219 4.71493V9.25958C1.74219 9.47968 1.9206 9.65811 2.1407 9.65811C2.36079 9.65811 2.53924 9.47968 2.53924 9.25958Z" fill="white"/>
<path d="M20.0518 9.25789V10.9629C20.0518 11.183 20.2302 11.3615 20.4503 11.3615C20.6704 11.3615 20.8488 11.183 20.8488 10.9629V9.25789C20.8488 9.0378 20.6704 8.85938 20.4503 8.85938C20.2302 8.85961 20.0518 9.0378 20.0518 9.25789Z" fill="white"/>
<path d="M20.0518 3.00985V4.7149C20.0518 4.93499 20.2302 5.11341 20.4503 5.11341C20.6704 5.11341 20.8488 4.93499 20.8488 4.7149V3.00985C20.8488 2.78975 20.6704 2.61133 20.4503 2.61133C20.2302 2.61156 20.0518 2.78998 20.0518 3.00985Z" fill="white"/>
<path d="M19.3945 6.98677C19.3945 7.56924 19.867 8.04166 20.4494 8.04166C21.0321 8.04166 21.5043 7.56924 21.5043 6.98677C21.5043 6.40407 21.0319 5.93164 20.4494 5.93164C19.867 5.93187 19.3945 6.40407 19.3945 6.98677Z" fill="white"/>
<path d="M8.91536 10.6263V11.317H6.31152V8.71289H7.0022V10.6263H8.91536Z" fill="white"/>
<path d="M8.91536 2.6543V3.34497H7.0022V5.25838H6.31152V2.6543H8.91536Z" fill="white"/>
<path d="M14.972 8.71289V11.317H12.3682V10.6263H14.2813V8.71289H14.972Z" fill="white"/>
<path d="M14.972 2.6543V5.25838H14.2813V3.34497H12.3682V2.6543H14.972Z" fill="white"/>
<path d="M10.5866 9.72082L7.97559 8.48014V5.6875L10.5866 6.92819V9.72082Z" fill="white"/>
<path d="M10.8701 9.72082L13.4811 8.48014V5.6875L10.8701 6.92819V9.72082Z" fill="white"/>
<path d="M10.709 4.25391L8.01562 5.46996L10.709 6.7042L13.4024 5.46996L10.709 4.25391Z" fill="white"/>
</svg>
