<svg width="291" height="346" viewBox="0 0 291 346" fill="none" xmlns="http://www.w3.org/2000/svg">
<path d="M237.952 138.592C281.679 174.832 298.903 247.244 286.866 301.285C274.018 358.97 201.239 376.107 173.724 426.96C152.548 466.099 171.549 522.631 147.143 559.521C122.441 596.859 81.8048 623.567 38.2189 631.778C-4.60809 639.846 -47.5683 604.988 -91.637 604.502C-138.32 603.988 -179.974 637.277 -226.486 628.861C-275.692 619.958 -322.085 591.624 -360.14 555.919C-399.93 518.586 -442.469 473.394 -449.656 419.47C-456.999 364.373 -410.547 321.397 -398.428 268.638C-388.026 223.349 -412.336 164.466 -383.231 130.282C-352.612 94.3182 -290.96 113.63 -248.939 93.0587C-213.836 75.8735 -194.756 34.623 -158.386 20.2056C-119.573 4.81949 -74.1903 -9.11221 -33.8019 7.7757C7.18094 24.9121 15.5735 90.4025 55.7685 109.751C113.117 137.358 188.092 97.2673 237.952 138.592Z" fill="#5CAC0D"/>
</svg>
