<svg width="295" height="365" viewBox="0 0 295 365" fill="none" xmlns="http://www.w3.org/2000/svg">
<path d="M241.952 138.592C285.679 174.832 302.903 247.244 290.866 301.285C278.018 358.97 205.239 376.107 177.724 426.96C156.548 466.099 175.549 522.631 151.143 559.521C126.441 596.859 85.8048 623.567 42.2189 631.778C-0.608088 639.846 -43.5683 604.988 -87.637 604.502C-134.32 603.988 -175.974 637.277 -222.486 628.861C-271.692 619.958 -318.085 591.624 -356.14 555.919C-395.93 518.586 -438.469 473.394 -445.656 419.47C-452.999 364.373 -406.547 321.397 -394.428 268.638C-384.026 223.349 -408.336 164.466 -379.231 130.282C-348.612 94.3182 -286.96 113.63 -244.939 93.0587C-209.836 75.8735 -190.756 34.623 -154.386 20.2056C-115.573 4.81949 -70.1903 -9.11221 -29.8019 7.7757C11.1809 24.9121 19.5735 90.4025 59.7685 109.751C117.117 137.358 192.092 97.2673 241.952 138.592Z" fill="#E6361D"/>
</svg>
