<svg width="284" height="353" viewBox="0 0 284 353" fill="none" xmlns="http://www.w3.org/2000/svg">
<path d="M230.952 138.592C274.679 174.832 291.903 247.244 279.866 301.285C267.018 358.97 194.239 376.107 166.724 426.96C145.548 466.099 164.549 522.631 140.143 559.521C115.441 596.859 74.8048 623.567 31.2189 631.778C-11.6081 639.846 -54.5683 604.988 -98.637 604.502C-145.32 603.988 -186.974 637.277 -233.486 628.861C-282.692 619.958 -329.085 591.624 -367.14 555.919C-406.93 518.586 -449.469 473.394 -456.656 419.47C-463.999 364.373 -417.547 321.397 -405.428 268.638C-395.026 223.349 -419.336 164.466 -390.231 130.282C-359.612 94.3182 -297.96 113.63 -255.939 93.0587C-220.836 75.8735 -201.756 34.623 -165.386 20.2056C-126.573 4.81949 -81.1903 -9.11221 -40.8019 7.7757C0.180938 24.9121 8.57347 90.4025 48.7685 109.751C106.117 137.358 181.092 97.2673 230.952 138.592Z" fill="#FF7300"/>
</svg>
