<svg width="22" height="23" viewBox="0 0 22 23" fill="none" xmlns="http://www.w3.org/2000/svg">
<path d="M14.2503 10.916C14.8486 10.916 15.3336 10.431 15.3336 9.83268C15.3336 9.23437 14.8486 8.74935 14.2503 8.74935C13.652 8.74935 13.1669 9.23437 13.1669 9.83268C13.1669 10.431 13.652 10.916 14.2503 10.916Z" fill="#441406"/>
<path d="M8.83362 9.83268C8.83362 10.431 8.34859 10.916 7.75028 10.916C7.15197 10.916 6.66695 10.431 6.66695 9.83268C6.66695 9.23437 7.15197 8.74935 7.75028 8.74935C8.34859 8.74935 8.83362 9.23437 8.83362 9.83268Z" fill="#441406"/>
<path fill-rule="evenodd" clip-rule="evenodd" d="M6.93778 4.71466V4.41602C6.93778 2.17236 8.75663 0.353516 11.0003 0.353516C13.2439 0.353516 15.0628 2.17236 15.0628 4.41602V4.71465C15.7761 4.73673 16.4113 4.77634 16.9748 4.84738C18.2762 5.01143 19.3296 5.35657 20.1433 6.1513C20.4148 6.41646 20.6561 6.71084 20.8629 7.02907C21.4826 7.98286 21.6144 9.08347 21.5201 10.3917C21.4277 11.6721 21.1062 13.2796 20.6982 15.3195L20.6775 15.4231C20.3944 16.8389 20.169 17.9657 19.8902 18.8521C19.603 19.7651 19.2363 20.5032 18.6228 21.1012C18.4118 21.3068 18.1835 21.494 17.9404 21.6605C17.2338 22.1449 16.438 22.3597 15.4865 22.4623C14.5626 22.5619 13.4136 22.5619 11.9697 22.5618H10.031C8.58715 22.5619 7.43808 22.5619 6.51424 22.4623C5.56269 22.3597 4.76694 22.1449 4.06028 21.6605C3.81724 21.494 3.58896 21.3068 3.37794 21.1012C2.76442 20.5032 2.39769 19.7651 2.1105 18.8521C1.83168 17.9657 1.60634 16.839 1.32319 15.4231L1.30252 15.3198C0.894493 13.2797 0.572964 11.6721 0.480617 10.3917C0.386262 9.08347 0.518116 7.98286 1.13782 7.02907C1.34459 6.71084 1.58592 6.41646 1.85742 6.1513C2.67115 5.35657 3.72453 5.01143 5.0259 4.84738C5.58942 4.77634 6.22454 4.73674 6.93778 4.71466ZM8.56278 4.41602C8.56278 3.06982 9.65409 1.97852 11.0003 1.97852C12.3465 1.97852 13.4378 3.06982 13.4378 4.41602V4.68923C12.9782 4.68684 12.4931 4.68685 11.9813 4.68685H10.0195C9.50757 4.68685 9.02239 4.68684 8.56278 4.68923V4.41602ZM2.99282 7.31384C3.4418 6.87535 4.08479 6.60388 5.22913 6.45962C6.38927 6.31338 7.92611 6.31185 10.0779 6.31185H11.9228C14.0746 6.31185 15.6114 6.31338 16.7716 6.45962C17.9159 6.60388 18.5589 6.87535 19.0079 7.31384C19.1937 7.49526 19.3588 7.69668 19.5002 7.91442C19.8422 8.44068 19.9823 9.12442 19.8993 10.2748C19.8152 11.4411 19.5153 12.9484 19.0933 15.0584C18.7988 16.5307 18.5896 17.5714 18.3401 18.3645C18.0959 19.1406 17.8365 19.5984 17.4886 19.9374C17.3442 20.0781 17.188 20.2062 17.0217 20.3202C16.621 20.5948 16.1213 20.7595 15.3123 20.8467C14.4857 20.9358 13.4241 20.9368 11.9228 20.9368H10.0779C8.57656 20.9368 7.51504 20.9358 6.68838 20.8467C5.87945 20.7595 5.3797 20.5948 4.97899 20.3202C4.81269 20.2062 4.6565 20.0781 4.51212 19.9374C4.16422 19.5984 3.90476 19.1406 3.66062 18.3645C3.41113 17.5714 3.20187 16.5307 2.90743 15.0584C2.48543 12.9484 2.18552 11.4411 2.10141 10.2748C2.01844 9.12442 2.15853 8.44068 2.50046 7.91442C2.64193 7.69668 2.80705 7.49526 2.99282 7.31384Z" fill="#441406"/>
</svg>
