<svg width="11" height="10" viewBox="0 0 11 10" fill="none" xmlns="http://www.w3.org/2000/svg">
<path d="M4.55559 0.744068C4.86715 -0.150899 6.13284 -0.1509 6.44441 0.744066L6.95018 2.19691C7.09009 2.5988 7.46903 2.86813 7.89459 2.86813H9.37645C10.3618 2.86813 10.7532 4.14277 9.93769 4.69579L8.86022 5.42642C8.48534 5.68064 8.32814 6.15508 8.47705 6.58285L8.91613 7.84409C9.23268 8.7534 8.20737 9.5409 7.41048 9.00052L6.06124 8.08559C5.72236 7.8558 5.27764 7.8558 4.93876 8.08559L3.58952 9.00052C2.79262 9.5409 1.76732 8.7534 2.08387 7.84409L2.52295 6.58285C2.67186 6.15508 2.51466 5.68063 2.13978 5.42642L1.06231 4.69578C0.246785 4.14277 0.638205 2.86813 1.62355 2.86813H3.10541C3.53097 2.86813 3.9099 2.5988 4.04982 2.19691L4.55559 0.744068Z" fill="#F7BD04"/>
</svg>
