<svg width="20" height="14" viewBox="0 0 20 14" fill="none" xmlns="http://www.w3.org/2000/svg">
<path fill-rule="evenodd" clip-rule="evenodd" d="M5.25 12.5C5.58152 12.5 5.89946 12.3683 6.13388 12.1339C6.3683 11.8995 6.5 11.5815 6.5 11.25C6.5 10.9185 6.3683 10.6005 6.13388 10.3661C5.89946 10.1317 5.58152 10 5.25 10C4.91848 10 4.60054 10.1317 4.36612 10.3661C4.1317 10.6005 4 10.9185 4 11.25C4 11.5815 4.1317 11.8995 4.36612 12.1339C4.60054 12.3683 4.91848 12.5 5.25 12.5ZM5.25 14C5.97935 14 6.67882 13.7103 7.19454 13.1945C7.71027 12.6788 8 11.9793 8 11.25C8 10.5207 7.71027 9.82118 7.19454 9.30546C6.67882 8.78973 5.97935 8.5 5.25 8.5C4.52065 8.5 3.82118 8.78973 3.30546 9.30546C2.78973 9.82118 2.5 10.5207 2.5 11.25C2.5 11.9793 2.78973 12.6788 3.30546 13.1945C3.82118 13.7103 4.52065 14 5.25 14ZM17 12.5C17.3315 12.5 17.6495 12.3683 17.8839 12.1339C18.1183 11.8995 18.25 11.5815 18.25 11.25C18.25 10.9185 18.1183 10.6005 17.8839 10.3661C17.6495 10.1317 17.3315 10 17 10C16.6685 10 16.3505 10.1317 16.1161 10.3661C15.8817 10.6005 15.75 10.9185 15.75 11.25C15.75 11.5815 15.8817 11.8995 16.1161 12.1339C16.3505 12.3683 16.6685 12.5 17 12.5ZM17 14C17.7293 14 18.4288 13.7103 18.9445 13.1945C19.4603 12.6788 19.75 11.9793 19.75 11.25C19.75 10.5207 19.4603 9.82118 18.9445 9.30546C18.4288 8.78973 17.7293 8.5 17 8.5C16.2707 8.5 15.5712 8.78973 15.0555 9.30546C14.5397 9.82118 14.25 10.5207 14.25 11.25C14.25 11.9793 14.5397 12.6788 15.0555 13.1945C15.5712 13.7103 16.2707 14 17 14Z" fill="#441406"/>
<path d="M14.6785 11.6402C14.4065 11.6882 14.1425 11.5052 14.1445 11.2292C14.1494 10.5863 14.3794 9.96532 14.7946 9.47434C15.2098 8.98336 15.7839 8.65338 16.4171 8.54176C17.0503 8.43014 17.7026 8.54393 18.2607 8.86337C18.8187 9.1828 19.2471 9.68767 19.4715 10.2902C19.568 10.5487 19.382 10.8107 19.11 10.8587L14.6785 11.6402Z" fill="#441406"/>
<path fill-rule="evenodd" clip-rule="evenodd" d="M18.1851 9.40587C17.8556 9.17513 17.4703 9.03693 17.0693 9.00564C16.6683 8.97436 16.2663 9.05113 15.905 9.22798C15.5438 9.40483 15.2365 9.67528 15.0153 10.0112C14.7941 10.3471 14.6669 10.7361 14.6471 11.1379L18.9681 10.3759C18.8036 9.98524 18.5322 9.649 18.1851 9.40587ZM16.3301 8.04837C17.0785 7.91644 17.8495 8.051 18.5091 8.42864C19.1686 8.80627 19.675 9.4031 19.9401 10.1154C20.1681 10.7264 19.7111 11.2604 19.1971 11.3504L14.7656 12.1324C14.2521 12.2224 13.6401 11.8774 13.6446 11.2254C13.6501 10.4654 13.9218 9.73134 14.4124 9.15091C14.903 8.57048 15.5816 8.18035 16.3301 8.04837Z" fill="#441406"/>
<path d="M2.5 5.5C2.5 5.10218 2.65804 4.72064 2.93934 4.43934C3.22064 4.15804 3.60218 4 4 4H8.5C8.89782 4 9.27936 4.15804 9.56066 4.43934C9.84196 4.72064 10 5.10218 10 5.5V6H2.5V5.5Z" fill="#441406"/>
<path fill-rule="evenodd" clip-rule="evenodd" d="M9.915 5C9.97 5.1565 10 5.325 10 5.5V6H2.5V5.5C2.49967 5.30293 2.53825 5.10772 2.61351 4.92559C2.68878 4.74345 2.79925 4.57796 2.93861 4.43861C3.07796 4.29925 3.24345 4.18878 3.42559 4.11351C3.60772 4.03825 3.80293 3.99967 4 4H8.5C9.153 4 9.709 4.4175 9.915 5Z" fill="#441406"/>
<path d="M0 11.3C0 8.925 2.258 7 5.043 7H9.078C9.311 7 9.5 7.161 9.5 7.36V10.6C9.5 11.097 9.0275 11.5 8.4445 11.5H0.2345C0.105 11.5 0 11.41 0 11.3Z" fill="#441406"/>
<path fill-rule="evenodd" clip-rule="evenodd" d="M8.5 7.99975H5.043C3.0395 7.99975 1.552 9.14075 1.125 10.4998H8.4445C8.4632 10.4999 8.48184 10.4977 8.5 10.4932V7.99975ZM5.043 6.99975C2.258 6.99975 0 8.92475 0 11.2997C0 11.4097 0.105 11.4998 0.235 11.4998H8.4445C9.0275 11.4998 9.5 11.0968 9.5 10.5998V7.35975C9.5 7.16075 9.311 6.99975 9.078 6.99975H5.043ZM13.4025 4.28125L12.5 11.4998H14.25L15.5 9.33525V4.49975H14.25C13.9535 4.50023 13.6618 4.42502 13.4025 4.28125Z" fill="#441406"/>
<path d="M12.5 1.75C12.5 1.28587 12.6844 0.840752 13.0126 0.512563C13.3408 0.184375 13.7859 0 14.25 0H16.1925C16.3625 0 16.5 0.1375 16.5 0.3075V3.1925C16.5 3.3625 16.362 3.5 16.1925 3.5H14.25C13.7859 3.5 13.3408 3.31563 13.0126 2.98744C12.6844 2.65925 12.5 2.21413 12.5 1.75Z" fill="#441406"/>
<path fill-rule="evenodd" clip-rule="evenodd" d="M15.5 1H14.25C14.0511 1 13.8603 1.07902 13.7197 1.21967C13.579 1.36032 13.5 1.55109 13.5 1.75C13.5 1.94891 13.579 2.13968 13.7197 2.28033C13.8603 2.42098 14.0511 2.5 14.25 2.5H15.5V1ZM14.25 0C13.7859 0 13.3408 0.184375 13.0126 0.512563C12.6844 0.840752 12.5 1.28587 12.5 1.75C12.5 2.21413 12.6844 2.65925 13.0126 2.98744C13.3408 3.31563 13.7859 3.5 14.25 3.5H16.1925C16.3625 3.5 16.5 3.362 16.5 3.1925V0.3075C16.5 0.225946 16.4676 0.147732 16.4099 0.0900645C16.3523 0.0323971 16.2741 0 16.1925 0H14.25Z" fill="#441406"/>
<path d="M10.673 0.5L13.1355 0.933L12.962 1.918L10.5 1.485L10.673 0.5ZM8.5 8H13.5L12.6175 11.5H8.5V8Z" fill="#441406"/>
</svg>
