<svg width="10" height="10" viewBox="0 0 10 10" fill="none" xmlns="http://www.w3.org/2000/svg">
<g clip-path="url(#clip0_783_6718)">
<path d="M3.3848 6.96224L2.39647 7.95057C1.76653 7.32117 1.37695 6.45141 1.37695 5.49023H2.77529C2.77529 6.02285 2.97828 6.55573 3.3848 6.96224Z" fill="#FF7300"/>
<path d="M4.85682 7.57142V8.96949C3.89619 8.96949 3.02615 8.57991 2.39648 7.95024L3.38481 6.96191C3.79133 7.36843 4.32421 7.57142 4.85682 7.57142Z" fill="#FF7300"/>
<path d="M7.31776 7.95024C6.68809 8.57991 5.81806 8.96949 4.85742 8.96949V7.57142C5.39003 7.57142 5.92291 7.36843 6.32943 6.96191L7.31776 7.95024Z" fill="#FF7300"/>
<path d="M8.33695 5.49023C8.33695 6.45141 7.94737 7.32117 7.31743 7.95057L6.3291 6.96224C6.73562 6.55573 6.93888 6.02285 6.93888 5.49023H8.33695Z" fill="#FF7300"/>
<path d="M8.33695 5.4899H6.93888C6.93888 4.95729 6.73562 4.42441 6.3291 4.01789L7.3177 3.0293C7.94737 3.65897 8.33695 4.529 8.33695 5.4899Z" fill="#FF7300"/>
<path d="M7.31803 3.02999L6.32943 4.01859C5.92291 3.61207 5.39003 3.40881 4.85742 3.40881V2.01074C5.81833 2.01074 6.68836 2.40032 7.31803 3.02999Z" fill="#FF7300"/>
<path d="M4.85106 5.5783C4.73975 5.5783 4.64941 5.48796 4.64941 5.37665V4.145C4.64941 4.0337 4.73975 3.94336 4.85106 3.94336C4.96237 3.94336 5.0527 4.0337 5.0527 4.145V5.37665C5.0527 5.48796 4.96237 5.5783 4.85106 5.5783Z" fill="#E5E5EA"/>
<path d="M4.84375 0.716797L4.85746 1.73712L4.84375 0.716797Z" fill="#48484A"/>
<path d="M4.85733 2.03271C4.69574 2.03271 4.56373 1.90285 4.56158 1.741L4.54787 0.720677C4.54599 0.55721 4.67639 0.423049 4.83985 0.420898C4.8412 0.420898 4.84254 0.420898 4.84389 0.420898C5.00547 0.420898 5.13748 0.550758 5.13963 0.712611L5.15334 1.73293C5.15549 1.8964 5.02483 2.03056 4.86163 2.03271C4.86029 2.03271 4.85894 2.03271 4.8576 2.03271H4.85733Z" fill="#E5E5EA"/>
<path d="M9.2469 3.81362L8.53711 2.58789L9.2469 3.81362Z" fill="#48484A"/>
<path d="M9.24703 4.10935C9.14486 4.10935 9.04565 4.05638 8.99081 3.96175L8.28102 2.73601C8.19928 2.59459 8.24741 2.41365 8.38883 2.33192C8.53025 2.24991 8.71119 2.29831 8.79293 2.43973L9.50272 3.66546C9.58445 3.80688 9.53632 3.98783 9.3949 4.06956C9.34839 4.09644 9.29731 4.10935 9.24703 4.10935Z" fill="#E5E5EA"/>
<path d="M4.85714 6.1215C5.20593 6.1215 5.48869 5.83875 5.48869 5.48995C5.48869 5.14115 5.20593 4.8584 4.85714 4.8584C4.50834 4.8584 4.22559 5.14115 4.22559 5.48995C4.22559 5.83875 4.50834 6.1215 4.85714 6.1215Z" fill="#FF3B30"/>
<path d="M2.39648 3.03027L3.26732 3.90111L2.39648 3.03027Z" fill="#48484A"/>
<path opacity="0.4" d="M3.26773 4.10245C3.21611 4.10245 3.16449 4.08283 3.12523 4.0433L2.25439 3.17247C2.17562 3.09369 2.17562 2.96598 2.25439 2.88721C2.33317 2.80843 2.46088 2.80843 2.53965 2.88721L3.41049 3.75804C3.48927 3.83682 3.48927 3.96453 3.41049 4.0433C3.37124 4.08256 3.31962 4.10245 3.268 4.10245H3.26773Z" fill="#E5E5EA"/>
<path d="M4.85721 9.64633C2.56572 9.64633 0.701172 7.78178 0.701172 5.49029C0.701172 3.1988 2.56572 1.33398 4.85721 1.33398C7.1487 1.33398 9.01325 3.19853 9.01325 5.49002C9.01325 7.78152 7.1487 9.64606 4.85721 9.64606V9.64633ZM4.85721 2.14056C3.01014 2.14056 1.50775 3.64322 1.50775 5.49002C1.50775 7.33682 3.01041 8.83948 4.85721 8.83948C6.70401 8.83948 8.20667 7.33682 8.20667 5.49002C8.20667 3.64322 6.70401 2.14056 4.85721 2.14056Z" fill="#E5E5EA"/>
<path d="M6.18955 1.01239H3.49692C3.33345 1.01239 3.20117 0.880111 3.20117 0.716644C3.20117 0.553178 3.33372 0.420898 3.49692 0.420898H6.18955C6.35302 0.420898 6.4853 0.553178 6.4853 0.716644C6.4853 0.880111 6.35302 1.01239 6.18955 1.01239Z" fill="#E5E5EA"/>
</g>
<defs>
<clipPath id="clip0_783_6718">
<rect width="8.84092" height="9.22512" fill="white" transform="translate(0.701172 0.420898)"/>
</clipPath>
</defs>
</svg>
