<svg width="23" height="18" viewBox="0 0 23 18" fill="none" xmlns="http://www.w3.org/2000/svg">
<g clip-path="url(#clip0_1193_8426)">
<path d="M21.5411 9.79813V10.6889H20.549C19.7051 10.6889 19.0209 11.2233 19.0209 11.8913V12.1585C19.0209 12.8266 18.3367 13.361 17.4814 13.361C16.6376 13.361 15.9534 12.8266 15.9534 12.1585V11.8913C15.9534 11.2233 15.2578 10.6889 14.4139 10.6889C13.57 10.6889 12.8858 11.2233 12.8858 11.8913V12.1585C12.8858 12.8266 12.1902 13.361 11.3464 13.361C10.5025 13.361 9.80688 12.8266 9.80688 12.1585V11.8913C9.80688 11.2233 9.12264 10.6889 8.27878 10.6889C7.43492 10.6889 6.73931 11.2233 6.73931 11.8913V12.1585C6.73931 12.8266 6.0551 13.361 5.21124 13.361C4.35598 13.361 3.67175 12.8266 3.67175 12.1585V11.8735C3.67175 11.2144 2.99896 10.6799 2.1665 10.671H1.26562V9.79813C1.26562 8.56894 2.45159 7.5268 4.05948 7.22396C4.37878 7.1616 4.70949 7.12598 5.06299 7.12598H17.7437C18.0972 7.12598 18.4279 7.1616 18.7472 7.22396C20.3551 7.5268 21.5411 8.56894 21.5411 9.79813Z" fill="white"/>
<path d="M18.7482 4.60473V5.86065C18.4175 5.8072 18.0868 5.78939 17.7447 5.78939H5.06406C4.72195 5.78939 4.39125 5.81611 4.06055 5.86955V4.60473C4.06055 3.53587 5.29213 2.67188 6.8202 2.67188H15.9886C17.5166 2.67188 18.7482 3.53587 18.7482 4.60473Z" fill="white"/>
<path d="M7.69685 1.37877V2.67922H6.81878C6.52229 2.67922 6.24861 2.70594 5.98633 2.75939V1.37877C5.98633 1.06702 6.37405 0.799805 6.84159 0.799805C7.30914 0.799805 7.69685 1.06702 7.69685 1.37877Z" fill="white"/>
<path d="M16.8199 1.18269V2.75926C16.5576 2.69692 16.2839 2.6702 15.9874 2.6702H15.1094V1.18269C15.1094 0.817502 15.4971 0.514648 15.9646 0.514648C16.4322 0.514648 16.8199 0.817502 16.8199 1.18269Z" fill="white"/>
<path d="M12.2594 0.730389V2.67216H10.5488V0.730389C10.5488 0.329566 10.9365 0 11.4041 0C11.8716 0 12.2594 0.329566 12.2594 0.730389Z" fill="white"/>
<path d="M22.807 17.1473C22.807 17.5125 22.4193 17.8153 21.9518 17.8153H0.855263C0.387719 17.8153 0 17.5125 0 17.1473C0 16.7821 0.387719 16.4792 0.855263 16.4792H1.26579V12.0078H1.9614V12.0702C1.9614 13.2637 2.96491 14.3682 4.45877 14.6265C5.62193 14.8403 6.72807 14.5464 7.4807 13.9674C7.91404 13.6289 8.62105 13.62 9.05439 13.9585C9.64737 14.4128 10.457 14.6978 11.3465 14.6978C12.236 14.6978 13.0456 14.4217 13.6386 13.9585C14.0719 13.6289 14.7675 13.6289 15.2123 13.9674C15.9535 14.5464 17.0597 14.8403 18.2342 14.6265C19.7281 14.3682 20.7316 13.2637 20.7316 12.0702V12.0256H21.5412V16.4792H21.9518C22.4193 16.4792 22.807 16.7821 22.807 17.1473Z" fill="white"/>
</g>
<defs>
<clipPath id="clip0_1193_8426">
<rect width="22.807" height="17.8148" fill="white"/>
</clipPath>
</defs>
</svg>
