<svg width="23" height="23" viewBox="0 0 23 23" fill="none" xmlns="http://www.w3.org/2000/svg">
<g clip-path="url(#clip0_1193_8430)">
<path d="M22.7229 8.60926C22.7201 8.58699 22.7205 8.56472 22.717 8.54245C22.7079 8.48463 22.6953 8.4281 22.6851 8.37071C22.6784 8.33345 22.6717 8.29662 22.6643 8.25936C22.6399 8.13516 22.6124 8.01181 22.5817 7.88975C22.5774 7.87219 22.5734 7.85463 22.5687 7.83707C21.487 3.62449 16.8237 0.529297 11.3721 0.529297C11.2981 0.529297 11.2262 0.536149 11.1526 0.537006C10.958 0.540004 10.7649 0.546856 10.5726 0.557563C10.4609 0.563988 10.3489 0.569127 10.238 0.578121C10.0013 0.596965 9.7673 0.623091 9.53491 0.653927C9.42087 0.668917 9.30762 0.685191 9.19477 0.703179C8.96709 0.738727 8.74138 0.778557 8.51881 0.82524C8.40517 0.848795 8.29389 0.876205 8.18182 0.902759C8.02492 0.939591 7.8696 0.979849 7.71546 1.02182C7.53929 1.07022 7.36588 1.12204 7.19365 1.17686C7.069 1.21669 6.94513 1.2578 6.82284 1.30106C6.59516 1.38115 6.3722 1.46852 6.152 1.56017C6.08004 1.59058 6.0069 1.61927 5.93572 1.65054C3.70693 2.62874 1.91933 4.19154 0.909135 6.11152C0.90245 6.12394 0.895765 6.13636 0.88908 6.14879C0.788022 6.34365 0.695614 6.54152 0.611071 6.74324C0.573321 6.83232 0.534785 6.92098 0.500575 7.01092C0.460073 7.11841 0.42193 7.22634 0.385753 7.33555C0.325983 7.51629 0.271718 7.69874 0.225318 7.88333C0.21824 7.91202 0.207229 7.939 0.200544 7.96813C0.193466 7.99896 0.191894 8.0298 0.185995 8.06064C0.0660617 8.59385 0 9.14162 0 9.70224L0.00589837 13.8257C0.00589837 18.8598 4.99867 22.8034 11.3724 22.8034C17.6774 22.8034 22.807 18.6966 22.807 13.6484V9.70138C22.807 9.33178 22.7763 8.96774 22.7229 8.60926ZM21.5188 9.73736C20.9459 10.1177 20.7092 11.3687 20.4374 13.0942C20.3678 13.5358 20.3022 13.9525 20.2381 14.2275C20.2023 14.3816 20.1378 14.5033 20.0949 14.5572C19.3463 14.3251 18.7324 14.3727 18.2708 14.699C17.5496 15.2078 17.4257 16.222 17.3593 16.7672C17.355 16.8032 17.3396 16.8293 17.3133 16.8438C17.2972 16.8528 17.2637 16.8644 17.2236 16.8413C17.1851 16.8134 17.099 16.6875 17.0357 16.5954C16.7553 16.186 16.287 15.4978 15.2772 15.6207C14.4549 15.7192 14.0224 16.6879 13.6402 17.5428C13.5037 17.8477 13.3751 18.1355 13.2536 18.321C13.1058 18.5471 12.812 18.6328 12.5564 18.5283C12.5395 18.488 12.5175 18.4199 12.5006 18.3672C12.394 18.0362 12.173 17.3471 11.2863 17.3308C10.5958 17.3205 10.2793 17.9253 10.0992 18.2876C10.0512 18.3848 9.97846 18.5313 9.95408 18.5565C9.73309 18.676 9.48654 18.6122 9.3552 18.3989C9.27381 18.2666 9.27656 17.8974 9.27892 17.601C9.28324 17.0344 9.28835 16.3286 8.833 15.9021C8.60061 15.6841 8.28917 15.5761 7.88926 15.5761C7.73708 15.5761 7.57232 15.592 7.3938 15.6228C6.88654 15.711 6.4595 16.1265 6.11621 16.4601C5.99195 16.5809 5.83742 16.7316 5.77175 16.7646C5.734 16.7839 5.69861 16.7835 5.66401 16.762C5.64356 16.75 5.5948 16.7119 5.58457 16.6271C5.56295 16.4481 5.52087 16.2781 5.47054 16.0738C5.18427 14.9106 4.01718 14.8528 3.3196 14.8185C3.1222 14.8091 2.93581 14.7997 2.8265 14.7718C2.5882 14.7114 2.39946 14.4917 2.33418 14.1979C2.298 14.0339 2.27874 13.5645 2.26025 13.1105C2.19183 11.4321 2.11004 10.3053 1.61851 9.94722C1.08923 9.56176 0.82931 8.88508 0.953569 8.24394C0.963793 8.1994 0.973231 8.15443 0.984241 8.11032C1.03143 7.91973 1.08727 7.73172 1.15018 7.5467C1.17377 7.47732 1.19933 7.40836 1.22529 7.33984C1.28742 7.17452 1.35466 7.01134 1.42898 6.85074C1.47223 6.7578 1.51981 6.66615 1.56739 6.57492C1.61025 6.49184 1.65587 6.41004 1.70188 6.32823C1.80215 6.15178 1.9091 5.9779 2.02393 5.8083C2.04752 5.77361 2.07072 5.73892 2.09471 5.70466C3.0699 4.31402 4.53702 3.16494 6.31125 2.40303C6.36001 2.38204 6.40995 2.36277 6.45911 2.34264C6.68324 2.25013 6.9121 2.16319 7.14528 2.0831C7.2428 2.0497 7.3415 2.01758 7.44059 1.98631C7.6199 1.92978 7.80197 1.8771 7.986 1.82785C8.11497 1.79359 8.24434 1.76104 8.37529 1.73063C8.49011 1.70407 8.60493 1.67709 8.72172 1.65311C8.92187 1.61242 9.12438 1.5773 9.32846 1.54604C9.44132 1.52848 9.55496 1.51263 9.66939 1.49807C9.88055 1.47109 10.0929 1.44796 10.3072 1.43126C10.4169 1.42269 10.5278 1.41755 10.6383 1.41156C10.8078 1.40256 10.978 1.39657 11.1491 1.39357C11.2238 1.39229 11.2981 1.38929 11.3732 1.38929C16.3196 1.38929 20.4882 4.03564 21.6793 7.60965C21.6879 7.63535 21.6954 7.66148 21.7032 7.68717C21.7355 7.78739 21.7658 7.88847 21.7929 7.9904C21.8047 8.03408 21.8149 8.0782 21.8255 8.12231C21.8468 8.20754 21.8668 8.29319 21.8845 8.37971C21.8955 8.43238 21.905 8.48592 21.9144 8.53903C21.9246 8.59642 21.9337 8.65381 21.9427 8.71162C21.9985 9.1262 21.8358 9.52664 21.5188 9.73736ZM11.3724 21.9468C5.43987 21.9468 0.792347 18.3797 0.792347 13.8257C0.792347 13.8257 0.788808 11.4334 0.787235 10.2941C0.902057 10.4235 1.02553 10.5455 1.16709 10.6479C1.38218 10.9001 1.44628 12.4767 1.47381 13.1495C1.49701 13.7114 1.5147 14.1555 1.56897 14.3996C1.70463 15.0104 2.1183 15.4733 2.64837 15.6065C2.82768 15.6519 3.03923 15.6626 3.28382 15.6746C4.01443 15.7106 4.58382 15.7791 4.72105 16.3368C4.75644 16.4802 4.78987 16.6156 4.80442 16.7385C4.84374 17.067 5.02344 17.3565 5.28454 17.5132C5.53896 17.6653 5.83742 17.6764 6.10284 17.5424C6.27468 17.4559 6.44416 17.2905 6.64038 17.1C6.90699 16.8408 7.23848 16.5183 7.51845 16.4691C7.91168 16.4014 8.18969 16.4288 8.32063 16.5518C8.49994 16.7196 8.49601 17.1843 8.49286 17.5942C8.48932 18.0516 8.48578 18.5244 8.70245 18.8765C8.94035 19.2624 9.32532 19.4739 9.72759 19.4739C9.92105 19.4739 10.1185 19.4255 10.3052 19.3236C10.5443 19.1938 10.6701 18.9399 10.7917 18.6949C10.982 18.3111 11.0748 18.1767 11.2737 18.1874C11.6123 18.1938 11.6583 18.3368 11.7586 18.6499C11.8309 18.8748 11.921 19.1557 12.188 19.2885C12.7991 19.5904 13.5163 19.3938 13.8942 18.8182C14.0538 18.5745 14.1966 18.255 14.3476 17.9171C14.626 17.294 14.9724 16.5183 15.3633 16.4717C15.9221 16.404 16.158 16.7458 16.4053 17.1068C16.5398 17.3034 16.6672 17.4893 16.8528 17.5959C17.1116 17.7454 17.4183 17.7484 17.6739 17.6045C17.9271 17.4623 18.1005 17.1912 18.1387 16.8798C18.1921 16.443 18.281 15.7119 18.6978 15.4181C18.9695 15.2271 19.3828 15.2189 19.9266 15.3958C20.1071 15.4545 20.2912 15.4314 20.4587 15.3273C20.8212 15.1037 20.9652 14.5902 21.0002 14.4386C21.0717 14.1307 21.137 13.7174 21.2125 13.2394C21.3434 12.4073 21.6163 10.6757 21.9282 10.4684C21.9608 10.4466 21.9895 10.42 22.0206 10.3961V13.6484C22.0206 18.2242 17.2441 21.9468 11.3724 21.9468Z" fill="#441406"/>
<path d="M22.7229 8.60926C22.7201 8.58699 22.7205 8.56472 22.717 8.54245C22.7079 8.48463 22.6953 8.4281 22.6851 8.37071C22.6784 8.33345 22.6717 8.29662 22.6643 8.25936C22.6399 8.13516 22.6124 8.01181 22.5817 7.88975C22.5774 7.87219 22.5734 7.85463 22.5687 7.83707C21.487 3.62449 16.8237 0.529297 11.3721 0.529297C11.2981 0.529297 11.2262 0.536149 11.1526 0.537006C10.958 0.540004 10.7649 0.546856 10.5726 0.557563C10.4609 0.563988 10.3489 0.569127 10.238 0.578121C10.0013 0.596965 9.7673 0.623091 9.53491 0.653927C9.42087 0.668917 9.30762 0.685191 9.19477 0.703179C8.96709 0.738727 8.74138 0.778557 8.51881 0.82524C8.40517 0.848795 8.29389 0.876205 8.18182 0.902759C8.02492 0.939591 7.8696 0.979849 7.71546 1.02182C7.53929 1.07022 7.36588 1.12204 7.19365 1.17686C7.069 1.21669 6.94513 1.2578 6.82284 1.30106C6.59516 1.38115 6.3722 1.46852 6.152 1.56017C6.08004 1.59058 6.0069 1.61927 5.93572 1.65054C3.70693 2.62874 1.91933 4.19154 0.909135 6.11152C0.90245 6.12394 0.895765 6.13636 0.88908 6.14879C0.788022 6.34365 0.695614 6.54152 0.611071 6.74324C0.573321 6.83232 0.534785 6.92098 0.500575 7.01092C0.460073 7.11841 0.42193 7.22634 0.385753 7.33555C0.325983 7.51629 0.271718 7.69874 0.225318 7.88333C0.21824 7.91202 0.207229 7.939 0.200544 7.96813C0.193466 7.99896 0.191894 8.0298 0.185995 8.06064C0.0660617 8.59385 0 9.14162 0 9.70224L0.00589837 13.8257C0.00589837 18.8598 4.99867 22.8034 11.3724 22.8034C17.6774 22.8034 22.807 18.6966 22.807 13.6484V9.70138C22.807 9.33178 22.7763 8.96774 22.7229 8.60926ZM21.5188 9.73736C20.9459 10.1177 20.7092 11.3687 20.4374 13.0942C20.3678 13.5358 20.3022 13.9525 20.2381 14.2275C20.2023 14.3816 20.1378 14.5033 20.0949 14.5572C19.3463 14.3251 18.7324 14.3727 18.2708 14.699C17.5496 15.2078 17.4257 16.222 17.3593 16.7672C17.355 16.8032 17.3396 16.8293 17.3133 16.8438C17.2972 16.8528 17.2637 16.8644 17.2236 16.8413C17.1851 16.8134 17.099 16.6875 17.0357 16.5954C16.7553 16.186 16.287 15.4978 15.2772 15.6207C14.4549 15.7192 14.0224 16.6879 13.6402 17.5428C13.5037 17.8477 13.3751 18.1355 13.2536 18.321C13.1058 18.5471 12.812 18.6328 12.5564 18.5283C12.5395 18.488 12.5175 18.4199 12.5006 18.3672C12.394 18.0362 12.173 17.3471 11.2863 17.3308C10.5958 17.3205 10.2793 17.9253 10.0992 18.2876C10.0512 18.3848 9.97846 18.5313 9.95408 18.5565C9.73309 18.676 9.48654 18.6122 9.3552 18.3989C9.27381 18.2666 9.27656 17.8974 9.27892 17.601C9.28324 17.0344 9.28835 16.3286 8.833 15.9021C8.60061 15.6841 8.28917 15.5761 7.88926 15.5761C7.73708 15.5761 7.57232 15.592 7.3938 15.6228C6.88654 15.711 6.4595 16.1265 6.11621 16.4601C5.99195 16.5809 5.83742 16.7316 5.77175 16.7646C5.734 16.7839 5.69861 16.7835 5.66401 16.762C5.64356 16.75 5.5948 16.7119 5.58457 16.6271C5.56295 16.4481 5.52087 16.2781 5.47054 16.0738C5.18427 14.9106 4.01718 14.8528 3.3196 14.8185C3.1222 14.8091 2.93581 14.7997 2.8265 14.7718C2.5882 14.7114 2.39946 14.4917 2.33418 14.1979C2.298 14.0339 2.27874 13.5645 2.26025 13.1105C2.19183 11.4321 2.11004 10.3053 1.61851 9.94722C1.08923 9.56176 0.82931 8.88508 0.953569 8.24394C0.963793 8.1994 0.973231 8.15443 0.984241 8.11032C1.03143 7.91973 1.08727 7.73172 1.15018 7.5467C1.17377 7.47732 1.19933 7.40836 1.22529 7.33984C1.28742 7.17452 1.35466 7.01134 1.42898 6.85074C1.47223 6.7578 1.51981 6.66615 1.56739 6.57492C1.61025 6.49184 1.65587 6.41004 1.70188 6.32823C1.80215 6.15178 1.9091 5.9779 2.02393 5.8083C2.04752 5.77361 2.07072 5.73892 2.09471 5.70466C3.0699 4.31402 4.53702 3.16494 6.31125 2.40303C6.36001 2.38204 6.40995 2.36277 6.45911 2.34264C6.68324 2.25013 6.9121 2.16319 7.14528 2.0831C7.2428 2.0497 7.3415 2.01758 7.44059 1.98631C7.6199 1.92978 7.80197 1.8771 7.986 1.82785C8.11497 1.79359 8.24434 1.76104 8.37529 1.73063C8.49011 1.70407 8.60493 1.67709 8.72172 1.65311C8.92187 1.61242 9.12438 1.5773 9.32846 1.54604C9.44132 1.52848 9.55496 1.51263 9.66939 1.49807C9.88055 1.47109 10.0929 1.44796 10.3072 1.43126C10.4169 1.42269 10.5278 1.41755 10.6383 1.41156C10.8078 1.40256 10.978 1.39657 11.1491 1.39357C11.2238 1.39229 11.2981 1.38929 11.3732 1.38929C16.3196 1.38929 20.4882 4.03564 21.6793 7.60965C21.6879 7.63535 21.6954 7.66148 21.7032 7.68717C21.7355 7.78739 21.7658 7.88847 21.7929 7.9904C21.8047 8.03408 21.8149 8.0782 21.8255 8.12231C21.8468 8.20754 21.8668 8.29319 21.8845 8.37971C21.8955 8.43238 21.905 8.48592 21.9144 8.53903C21.9246 8.59642 21.9337 8.65381 21.9427 8.71162C21.9985 9.1262 21.8358 9.52664 21.5188 9.73736ZM11.3724 21.9468C5.43987 21.9468 0.792347 18.3797 0.792347 13.8257C0.792347 13.8257 0.788808 11.4334 0.787235 10.2941C0.902057 10.4235 1.02553 10.5455 1.16709 10.6479C1.38218 10.9001 1.44628 12.4767 1.47381 13.1495C1.49701 13.7114 1.5147 14.1555 1.56897 14.3996C1.70463 15.0104 2.1183 15.4733 2.64837 15.6065C2.82768 15.6519 3.03923 15.6626 3.28382 15.6746C4.01443 15.7106 4.58382 15.7791 4.72105 16.3368C4.75644 16.4802 4.78987 16.6156 4.80442 16.7385C4.84374 17.067 5.02344 17.3565 5.28454 17.5132C5.53896 17.6653 5.83742 17.6764 6.10284 17.5424C6.27468 17.4559 6.44416 17.2905 6.64038 17.1C6.90699 16.8408 7.23848 16.5183 7.51845 16.4691C7.91168 16.4014 8.18969 16.4288 8.32063 16.5518C8.49994 16.7196 8.49601 17.1843 8.49286 17.5942C8.48932 18.0516 8.48578 18.5244 8.70245 18.8765C8.94035 19.2624 9.32532 19.4739 9.72759 19.4739C9.92105 19.4739 10.1185 19.4255 10.3052 19.3236C10.5443 19.1938 10.6701 18.9399 10.7917 18.6949C10.982 18.3111 11.0748 18.1767 11.2737 18.1874C11.6123 18.1938 11.6583 18.3368 11.7586 18.6499C11.8309 18.8748 11.921 19.1557 12.188 19.2885C12.7991 19.5904 13.5163 19.3938 13.8942 18.8182C14.0538 18.5745 14.1966 18.255 14.3476 17.9171C14.626 17.294 14.9724 16.5183 15.3633 16.4717C15.9221 16.404 16.158 16.7458 16.4053 17.1068C16.5398 17.3034 16.6672 17.4893 16.8528 17.5959C17.1116 17.7454 17.4183 17.7484 17.6739 17.6045C17.9271 17.4623 18.1005 17.1912 18.1387 16.8798C18.1921 16.443 18.281 15.7119 18.6978 15.4181C18.9695 15.2271 19.3828 15.2189 19.9266 15.3958C20.1071 15.4545 20.2912 15.4314 20.4587 15.3273C20.8212 15.1037 20.9652 14.5902 21.0002 14.4386C21.0717 14.1307 21.137 13.7174 21.2125 13.2394C21.3434 12.4073 21.6163 10.6757 21.9282 10.4684C21.9608 10.4466 21.9895 10.42 22.0206 10.3961V13.6484C22.0206 18.2242 17.2441 21.9468 11.3724 21.9468Z" fill="#441406"/>
<path d="M11.2044 6.31445C8.77897 6.31445 6.87891 7.63142 6.87891 9.31243C6.87891 9.61051 6.94693 9.91031 7.07788 10.205C7.0822 10.217 7.08142 10.2298 7.08692 10.2414C7.65395 11.4791 9.30864 12.3104 11.2048 12.3104C13.1009 12.3104 14.7556 11.4791 15.3226 10.2414C15.3277 10.2298 15.3273 10.217 15.3317 10.205C15.4626 9.91031 15.5306 9.61008 15.5306 9.31243C15.5298 7.63142 13.6302 6.31445 11.2044 6.31445ZM11.2044 7.17102C13.1225 7.17102 14.7434 8.15178 14.7434 9.31243C14.7434 9.36768 14.7395 9.4225 14.7312 9.47817C14.7281 9.47689 14.7241 9.47603 14.721 9.47432C14.4807 9.37367 14.2314 9.2863 13.977 9.2075C13.9389 9.19551 13.9015 9.18309 13.863 9.17195C13.6164 9.09957 13.3636 9.0379 13.1064 8.9865C13.0604 8.97751 13.0144 8.96894 12.9684 8.96038C12.7085 8.91241 12.4446 8.87387 12.1764 8.84731C12.1387 8.84346 12.1005 8.84175 12.0624 8.83832C11.7797 8.81391 11.4938 8.79849 11.2048 8.79849C10.9157 8.79849 10.6299 8.81391 10.3471 8.83832C10.3094 8.84175 10.2709 8.84346 10.2331 8.84731C9.96493 8.87387 9.70108 8.91241 9.44116 8.96038C9.39476 8.96894 9.34875 8.97751 9.30313 8.9865C9.04597 9.0379 8.79312 9.09957 8.54657 9.17195C8.50803 9.18309 8.47068 9.19551 8.43254 9.2075C8.17812 9.2863 7.92882 9.37367 7.68856 9.47432C7.68541 9.4756 7.68148 9.47646 7.67833 9.47817C7.67007 9.4225 7.66614 9.36768 7.66614 9.31243C7.66535 8.15178 9.28623 7.17102 11.2044 7.17102ZM8.03577 10.2469C8.04914 10.2414 8.0633 10.2367 8.07706 10.2315C8.28036 10.1501 8.49073 10.0778 8.70543 10.0135C8.73925 10.0032 8.77268 9.99211 8.80689 9.98226C9.0267 9.9193 9.25241 9.86705 9.48166 9.82208C9.52767 9.81309 9.57328 9.8041 9.61929 9.79596C9.85011 9.75484 10.0845 9.72187 10.3228 9.69874C10.3617 9.69488 10.4014 9.69274 10.4403 9.68932C10.6924 9.66833 10.9464 9.65505 11.2044 9.65505C11.4623 9.65505 11.7164 9.66876 11.9684 9.68932C12.0077 9.69274 12.0471 9.69488 12.086 9.69874C12.3243 9.72144 12.5586 9.75441 12.7895 9.79596C12.8355 9.8041 12.8815 9.81309 12.9271 9.82208C13.1563 9.86705 13.3821 9.9193 13.6019 9.98226C13.6361 9.99211 13.6691 10.0032 13.7033 10.0135C13.918 10.0782 14.128 10.1501 14.3317 10.2315C14.3455 10.2371 14.3596 10.2414 14.373 10.2469C13.7784 10.9737 12.5559 11.4538 11.2044 11.4538C9.85286 11.4538 8.62993 10.9737 8.03577 10.2469Z" fill="#441406"/>
<path d="M11.2044 6.31445C8.77897 6.31445 6.87891 7.63142 6.87891 9.31243C6.87891 9.61051 6.94693 9.91031 7.07788 10.205C7.0822 10.217 7.08142 10.2298 7.08692 10.2414C7.65395 11.4791 9.30864 12.3104 11.2048 12.3104C13.1009 12.3104 14.7556 11.4791 15.3226 10.2414C15.3277 10.2298 15.3273 10.217 15.3317 10.205C15.4626 9.91031 15.5306 9.61008 15.5306 9.31243C15.5298 7.63142 13.6302 6.31445 11.2044 6.31445ZM11.2044 7.17102C13.1225 7.17102 14.7434 8.15178 14.7434 9.31243C14.7434 9.36768 14.7395 9.4225 14.7312 9.47817C14.7281 9.47689 14.7241 9.47603 14.721 9.47432C14.4807 9.37367 14.2314 9.2863 13.977 9.2075C13.9389 9.19551 13.9015 9.18309 13.863 9.17195C13.6164 9.09957 13.3636 9.0379 13.1064 8.9865C13.0604 8.97751 13.0144 8.96894 12.9684 8.96038C12.7085 8.91241 12.4446 8.87387 12.1764 8.84731C12.1387 8.84346 12.1005 8.84175 12.0624 8.83832C11.7797 8.81391 11.4938 8.79849 11.2048 8.79849C10.9157 8.79849 10.6299 8.81391 10.3471 8.83832C10.3094 8.84175 10.2709 8.84346 10.2331 8.84731C9.96493 8.87387 9.70108 8.91241 9.44116 8.96038C9.39476 8.96894 9.34875 8.97751 9.30313 8.9865C9.04597 9.0379 8.79312 9.09957 8.54657 9.17195C8.50803 9.18309 8.47068 9.19551 8.43254 9.2075C8.17812 9.2863 7.92882 9.37367 7.68856 9.47432C7.68541 9.4756 7.68148 9.47646 7.67833 9.47817C7.67007 9.4225 7.66614 9.36768 7.66614 9.31243C7.66535 8.15178 9.28623 7.17102 11.2044 7.17102ZM8.03577 10.2469C8.04914 10.2414 8.0633 10.2367 8.07706 10.2315C8.28036 10.1501 8.49073 10.0778 8.70543 10.0135C8.73925 10.0032 8.77268 9.99211 8.80689 9.98226C9.0267 9.9193 9.25241 9.86705 9.48166 9.82208C9.52767 9.81309 9.57328 9.8041 9.61929 9.79596C9.85011 9.75484 10.0845 9.72187 10.3228 9.69874C10.3617 9.69488 10.4014 9.69274 10.4403 9.68932C10.6924 9.66833 10.9464 9.65505 11.2044 9.65505C11.4623 9.65505 11.7164 9.66876 11.9684 9.68932C12.0077 9.69274 12.0471 9.69488 12.086 9.69874C12.3243 9.72144 12.5586 9.75441 12.7895 9.79596C12.8355 9.8041 12.8815 9.81309 12.9271 9.82208C13.1563 9.86705 13.3821 9.9193 13.6019 9.98226C13.6361 9.99211 13.6691 10.0032 13.7033 10.0135C13.918 10.0782 14.128 10.1501 14.3317 10.2315C14.3455 10.2371 14.3596 10.2414 14.373 10.2469C13.7784 10.9737 12.5559 11.4538 11.2044 11.4538C9.85286 11.4538 8.62993 10.9737 8.03577 10.2469Z" fill="#441406"/>
</g>
<defs>
<clipPath id="clip0_1193_8430">
<rect width="22.807" height="22.2741" fill="white" transform="translate(0 0.529297)"/>
</clipPath>
</defs>
</svg>
