<svg width="23" height="21" viewBox="0 0 23 21" fill="none" xmlns="http://www.w3.org/2000/svg">
<g clip-path="url(#clip0_1193_8434)">
<path d="M11.4035 0C5.10411 0 0 4.58067 0 10.234C0 15.8874 5.10411 20.4681 11.4035 20.4681C17.7029 20.4681 22.807 15.8874 22.807 10.234C22.807 9.82095 22.7736 9.41452 22.7179 9.01142C22.3393 9.24462 21.879 9.38121 21.3816 9.38121C20.357 9.38121 19.4921 8.79488 19.158 7.98202C18.5641 8.32182 17.8625 8.52837 17.1053 8.52837C15.0042 8.52837 13.3041 7.00259 13.3041 5.11702C13.3041 4.49072 13.5045 3.91106 13.8349 3.40469C13.8164 3.40802 13.7978 3.41135 13.7792 3.41135C12.4652 3.41135 11.4035 2.45857 11.4035 1.27926C11.4035 0.802866 11.5817 0.369785 11.8749 0.0166566C11.719 0.0099942 11.5631 0 11.4035 0ZM18.5307 0C17.7437 0 17.1053 0.573 17.1053 1.27926C17.1053 1.98551 17.7437 2.55851 18.5307 2.55851C19.3177 2.55851 19.9561 1.98551 19.9561 1.27926C19.9561 0.573 19.3177 0 18.5307 0ZM9.55118 1.86558C9.7405 2.96494 10.4532 3.91106 11.4481 4.49738C11.4184 4.7006 11.4035 4.91048 11.4035 5.11702C11.4035 7.93871 13.9611 10.234 17.1053 10.234C17.5767 10.234 18.0481 10.1807 18.501 10.0741C19.1506 10.6072 19.971 10.9603 20.8619 11.0602C20.3979 15.3777 16.3332 18.7624 11.4035 18.7624C6.16205 18.7624 1.90058 14.938 1.90058 10.234C1.90058 6.09978 5.19691 2.6418 9.55118 1.86558ZM17.1053 4.26418C16.5819 4.26418 16.155 4.64729 16.155 5.11702C16.155 5.58675 16.5819 5.96986 17.1053 5.96986C17.6287 5.96986 18.0556 5.58675 18.0556 5.11702C18.0556 4.64729 17.6287 4.26418 17.1053 4.26418ZM9.50292 5.11702C8.97952 5.11702 8.55263 5.50013 8.55263 5.96986C8.55263 6.43958 8.97952 6.82269 9.50292 6.82269C10.0263 6.82269 10.4532 6.43958 10.4532 5.96986C10.4532 5.50013 10.0263 5.11702 9.50292 5.11702ZM21.8567 5.11702C21.3333 5.11702 20.9064 5.50013 20.9064 5.96986C20.9064 6.43958 21.3333 6.82269 21.8567 6.82269C22.3801 6.82269 22.807 6.43958 22.807 5.96986C22.807 5.50013 22.3801 5.11702 21.8567 5.11702ZM6.65205 7.67553C5.60153 7.67553 4.75146 8.43842 4.75146 9.38121C4.75146 10.324 5.60153 11.0869 6.65205 11.0869C7.70257 11.0869 8.55263 10.324 8.55263 9.38121C8.55263 8.43842 7.70257 7.67553 6.65205 7.67553ZM11.4035 9.38121C10.8801 9.38121 10.4532 9.76432 10.4532 10.234C10.4532 10.7038 10.8801 11.0869 11.4035 11.0869C11.9269 11.0869 12.3538 10.7038 12.3538 10.234C12.3538 9.76432 11.9269 9.38121 11.4035 9.38121ZM8.07749 12.7926C7.29052 12.7926 6.65205 13.3656 6.65205 14.0718C6.65205 14.7781 7.29052 15.3511 8.07749 15.3511C8.86445 15.3511 9.50292 14.7781 9.50292 14.0718C9.50292 13.3656 8.86445 12.7926 8.07749 12.7926ZM14.7295 13.6454C13.9426 13.6454 13.3041 14.2184 13.3041 14.9246C13.3041 15.6309 13.9426 16.2039 14.7295 16.2039C15.5165 16.2039 16.155 15.6309 16.155 14.9246C16.155 14.2184 15.5165 13.6454 14.7295 13.6454Z" fill="#441406"/>
<path d="M11.4035 0C5.10411 0 0 4.58067 0 10.234C0 15.8874 5.10411 20.4681 11.4035 20.4681C17.7029 20.4681 22.807 15.8874 22.807 10.234C22.807 9.82095 22.7736 9.41452 22.7179 9.01142C22.3393 9.24462 21.879 9.38121 21.3816 9.38121C20.357 9.38121 19.4921 8.79488 19.158 7.98202C18.5641 8.32182 17.8625 8.52837 17.1053 8.52837C15.0042 8.52837 13.3041 7.00259 13.3041 5.11702C13.3041 4.49072 13.5045 3.91106 13.8349 3.40469C13.8164 3.40802 13.7978 3.41135 13.7792 3.41135C12.4652 3.41135 11.4035 2.45857 11.4035 1.27926C11.4035 0.802866 11.5817 0.369785 11.8749 0.0166566C11.719 0.0099942 11.5631 0 11.4035 0ZM18.5307 0C17.7437 0 17.1053 0.573 17.1053 1.27926C17.1053 1.98551 17.7437 2.55851 18.5307 2.55851C19.3177 2.55851 19.9561 1.98551 19.9561 1.27926C19.9561 0.573 19.3177 0 18.5307 0ZM9.55118 1.86558C9.7405 2.96494 10.4532 3.91106 11.4481 4.49738C11.4184 4.7006 11.4035 4.91048 11.4035 5.11702C11.4035 7.93871 13.9611 10.234 17.1053 10.234C17.5767 10.234 18.0481 10.1807 18.501 10.0741C19.1506 10.6072 19.971 10.9603 20.8619 11.0602C20.3979 15.3777 16.3332 18.7624 11.4035 18.7624C6.16205 18.7624 1.90058 14.938 1.90058 10.234C1.90058 6.09978 5.19691 2.6418 9.55118 1.86558ZM17.1053 4.26418C16.5819 4.26418 16.155 4.64729 16.155 5.11702C16.155 5.58675 16.5819 5.96986 17.1053 5.96986C17.6287 5.96986 18.0556 5.58675 18.0556 5.11702C18.0556 4.64729 17.6287 4.26418 17.1053 4.26418ZM9.50292 5.11702C8.97952 5.11702 8.55263 5.50013 8.55263 5.96986C8.55263 6.43958 8.97952 6.82269 9.50292 6.82269C10.0263 6.82269 10.4532 6.43958 10.4532 5.96986C10.4532 5.50013 10.0263 5.11702 9.50292 5.11702ZM21.8567 5.11702C21.3333 5.11702 20.9064 5.50013 20.9064 5.96986C20.9064 6.43958 21.3333 6.82269 21.8567 6.82269C22.3801 6.82269 22.807 6.43958 22.807 5.96986C22.807 5.50013 22.3801 5.11702 21.8567 5.11702ZM6.65205 7.67553C5.60153 7.67553 4.75146 8.43842 4.75146 9.38121C4.75146 10.324 5.60153 11.0869 6.65205 11.0869C7.70257 11.0869 8.55263 10.324 8.55263 9.38121C8.55263 8.43842 7.70257 7.67553 6.65205 7.67553ZM11.4035 9.38121C10.8801 9.38121 10.4532 9.76432 10.4532 10.234C10.4532 10.7038 10.8801 11.0869 11.4035 11.0869C11.9269 11.0869 12.3538 10.7038 12.3538 10.234C12.3538 9.76432 11.9269 9.38121 11.4035 9.38121ZM8.07749 12.7926C7.29052 12.7926 6.65205 13.3656 6.65205 14.0718C6.65205 14.7781 7.29052 15.3511 8.07749 15.3511C8.86445 15.3511 9.50292 14.7781 9.50292 14.0718C9.50292 13.3656 8.86445 12.7926 8.07749 12.7926ZM14.7295 13.6454C13.9426 13.6454 13.3041 14.2184 13.3041 14.9246C13.3041 15.6309 13.9426 16.2039 14.7295 16.2039C15.5165 16.2039 16.155 15.6309 16.155 14.9246C16.155 14.2184 15.5165 13.6454 14.7295 13.6454Z" fill="#441406"/>
</g>
<defs>
<clipPath id="clip0_1193_8434">
<rect width="22.807" height="20.4681" fill="white"/>
</clipPath>
</defs>
</svg>
