<svg width="39" height="39" viewBox="0 0 39 39" fill="none" xmlns="http://www.w3.org/2000/svg">
<path d="M36.5832 19.4038L38.7034 15.7394C38.9583 15.2986 39.0276 14.7745 38.8961 14.2826C38.7647 13.7906 38.4432 13.371 38.0024 13.116L34.3342 10.9958V6.7706C34.3342 6.26125 34.1319 5.77276 33.7717 5.41259C33.4116 5.05242 32.9231 4.85008 32.4137 4.85008H28.1905L26.0722 1.18381C25.8163 0.743848 25.3975 0.422332 24.9064 0.288845C24.6628 0.22281 24.4085 0.205782 24.1583 0.238749C23.9081 0.271717 23.6669 0.354023 23.4487 0.480897L19.7805 2.60115L16.1123 0.478977C15.6712 0.224311 15.147 0.155298 14.6551 0.287118C14.1631 0.418939 13.7436 0.740796 13.4889 1.18189L11.3687 4.85008H7.14543C6.63608 4.85008 6.14758 5.05242 5.78742 5.41259C5.42725 5.77276 5.22491 6.26125 5.22491 6.7706V10.9938L1.55671 13.1141C1.33784 13.24 1.14599 13.4079 0.992205 13.6082C0.838417 13.8084 0.725716 14.0371 0.660577 14.2811C0.595439 14.525 0.579146 14.7795 0.612636 15.0297C0.646125 15.28 0.728736 15.5212 0.855723 15.7394L2.97598 19.4038L0.855723 23.0681C0.602193 23.5094 0.533406 24.0331 0.66436 24.5248C0.795313 25.0166 1.11539 25.4367 1.55479 25.6935L5.22299 27.8138V32.037C5.22299 32.5463 5.42533 33.0348 5.7855 33.395C6.14566 33.7552 6.63416 33.9575 7.14351 33.9575H11.3687L13.4889 37.6257C13.6589 37.9163 13.9017 38.1577 14.1933 38.3261C14.4849 38.4945 14.8154 38.584 15.1521 38.586C15.4863 38.586 15.8185 38.4976 16.1143 38.3267L19.7786 36.2064L23.4468 38.3267C23.8878 38.581 24.4117 38.65 24.9035 38.5186C25.3953 38.3872 25.8149 38.0661 26.0702 37.6257L28.1886 33.9575H32.4118C32.9212 33.9575 33.4097 33.7552 33.7698 33.395C34.13 33.0348 34.3323 32.5463 34.3323 32.037V27.8138L38.0005 25.6935C38.219 25.5672 38.4105 25.3991 38.564 25.1988C38.7175 24.9985 38.83 24.7699 38.8951 24.5261C38.9602 24.2823 38.9766 24.028 38.9434 23.7779C38.9102 23.5277 38.828 23.2865 38.7015 23.0681L36.5832 19.4038ZM14.9773 9.78198C15.7416 9.78224 16.4745 10.0861 17.0147 10.6267C17.555 11.1673 17.8584 11.9004 17.8581 12.6647C17.8578 13.429 17.554 14.1618 17.0134 14.7021C16.4728 15.2424 15.7397 15.5457 14.9754 15.5455C14.2111 15.5452 13.4782 15.2414 12.938 14.7007C12.3977 14.1601 12.0944 13.427 12.0946 12.6628C12.0949 11.8985 12.3987 11.1656 12.9393 10.6253C13.4799 10.0851 14.213 9.78173 14.9773 9.78198ZM15.5535 28.219L12.4806 25.9163L24.0038 10.5521L27.0766 12.8548L15.5535 28.219ZM24.5799 28.9872C24.2015 28.9871 23.8268 28.9124 23.4772 28.7675C23.1276 28.6225 22.81 28.4102 22.5425 28.1425C22.275 27.8748 22.0628 27.557 21.9181 27.2074C21.7734 26.8577 21.699 26.4829 21.6991 26.1045C21.6993 25.7261 21.7739 25.3513 21.9189 25.0018C22.0638 24.6522 22.2762 24.3346 22.5439 24.0671C22.8115 23.7996 23.1293 23.5874 23.479 23.4427C23.8286 23.298 24.2034 23.2236 24.5818 23.2237C25.3461 23.224 26.079 23.5278 26.6193 24.0684C27.1595 24.609 27.4629 25.3421 27.4626 26.1064C27.4624 26.8707 27.1585 27.6036 26.6179 28.1438C26.0773 28.6841 25.3442 28.9874 24.5799 28.9872Z" fill="#F7BD04"/>
</svg>
