<svg width="65" height="64" viewBox="0 0 65 64" fill="none" xmlns="http://www.w3.org/2000/svg">
<path d="M51.166 23.333C45.646 23.333 41.166 18.853 41.166 13.333C41.166 7.81301 45.646 3.33301 51.166 3.33301C56.686 3.33301 61.166 7.81301 61.166 13.333C61.166 18.853 56.686 23.333 51.166 23.333ZM51.166 7.33301C47.8593 7.33301 45.166 10.0263 45.166 13.333C45.166 16.6397 47.8593 19.333 51.166 19.333C54.4727 19.333 57.166 16.6397 57.166 13.333C57.166 10.0263 54.4727 7.33301 51.166 7.33301Z" fill="#B2B2B2"/>
<path d="M32.4993 36.667H19.166C18.0727 36.667 17.166 35.7603 17.166 34.667C17.166 33.5737 18.0727 32.667 19.166 32.667H32.4993C33.5927 32.667 34.4993 33.5737 34.4993 34.667C34.4993 35.7603 33.5927 36.667 32.4993 36.667Z" fill="#B2B2B2"/>
<path d="M43.166 47.333H19.166C18.0727 47.333 17.166 46.4263 17.166 45.333C17.166 44.2397 18.0727 43.333 19.166 43.333H43.166C44.2593 43.333 45.166 44.2397 45.166 45.333C45.166 46.4263 44.2593 47.333 43.166 47.333Z" fill="#B2B2B2"/>
<path d="M40.5007 60.6663H24.5007C10.0207 60.6663 3.83398 54.4797 3.83398 39.9997V23.9997C3.83398 9.51968 10.0207 3.33301 24.5007 3.33301H37.834C38.9273 3.33301 39.834 4.23967 39.834 5.33301C39.834 6.42634 38.9273 7.33301 37.834 7.33301H24.5007C12.2073 7.33301 7.83398 11.7063 7.83398 23.9997V39.9997C7.83398 52.293 12.2073 56.6663 24.5007 56.6663H40.5007C52.794 56.6663 57.1673 52.293 57.1673 39.9997V26.6663C57.1673 25.573 58.074 24.6663 59.1673 24.6663C60.2607 24.6663 61.1673 25.573 61.1673 26.6663V39.9997C61.1673 54.4797 54.9807 60.6663 40.5007 60.6663Z" fill="#B2B2B2"/>
</svg>
