<svg width="65" height="64" viewBox="0 0 65 64" fill="none" xmlns="http://www.w3.org/2000/svg">
<path d="M32.4993 39.333H19.166C18.0727 39.333 17.166 38.4263 17.166 37.333C17.166 36.2397 18.0727 35.333 19.166 35.333H32.4993C33.5927 35.333 34.4993 36.2397 34.4993 37.333C34.4993 38.4263 33.5927 39.333 32.4993 39.333Z" fill="#B2B2B2"/>
<path d="M19.1672 17.8937C18.6605 17.8937 18.1538 17.7071 17.7538 17.3071L7.75383 7.30706C6.98049 6.53372 6.98049 5.25372 7.75383 4.48039C8.52716 3.70706 9.80716 3.70706 10.5805 4.48039L20.5805 14.4804C21.3538 15.2537 21.3538 16.5337 20.5805 17.3071C20.1805 17.6804 19.6738 17.8937 19.1672 17.8937Z" fill="#B2B2B2"/>
<path d="M9.05974 18.0002C8.55307 18.0002 8.04641 17.8135 7.64641 17.4135C6.87307 16.6402 6.87307 15.3602 7.64641 14.5868L17.6464 4.58684C18.4197 3.8135 19.6997 3.8135 20.4731 4.58684C21.2464 5.36017 21.2464 6.64017 20.4731 7.4135L10.4731 17.4135C10.0997 17.8135 9.56641 18.0002 9.05974 18.0002Z" fill="#B2B2B2"/>
<path d="M40.4993 28.667H19.166C18.0727 28.667 17.166 27.7603 17.166 26.667C17.166 25.5737 18.0727 24.667 19.166 24.667H40.4993C41.5927 24.667 42.4993 25.5737 42.4993 26.667C42.4993 27.7603 41.5927 28.667 40.4993 28.667Z" fill="#B2B2B2"/>
<path d="M56.4993 44.6663C55.406 44.6663 54.4993 43.7597 54.4993 42.6663V21.3063C54.4993 10.0263 50.6593 7.73301 43.0593 7.33301H27.166C26.0727 7.33301 25.166 6.42634 25.166 5.33301C25.166 4.23967 26.0727 3.33301 27.166 3.33301H43.166C54.0993 3.91967 58.4993 9.11967 58.4993 21.3063V42.6663C58.4993 43.7597 57.5927 44.6663 56.4993 44.6663Z" fill="#B2B2B2"/>
<path d="M40.5 60.6664H24.5C9.51333 60.6664 6.5 53.7597 6.5 42.613V24.0264C6.5 22.933 7.40667 22.0264 8.5 22.0264C9.59333 22.0264 10.5 22.933 10.5 24.0264V42.613C10.5 52.533 12.4467 56.6664 24.5 56.6664H40.5C41.5933 56.6664 42.5 57.573 42.5 58.6664C42.5 59.7597 41.5933 60.6664 40.5 60.6664Z" fill="#B2B2B2"/>
<path d="M40.5 60.667C40.2333 60.667 39.9933 60.6137 39.7267 60.507C38.98 60.187 38.5 59.467 38.5 58.667V50.667C38.5 44.2137 42.0467 40.667 48.5 40.667H56.5C57.3 40.667 58.0467 41.147 58.34 41.8937C58.6333 42.6403 58.4733 43.4937 57.9133 44.0803L41.9133 60.0803C41.54 60.4537 41.0067 60.667 40.5 60.667ZM48.5 44.667C44.2867 44.667 42.5 46.4537 42.5 50.667V53.8403L51.6733 44.667H48.5Z" fill="#B2B2B2"/>
</svg>
