<svg width="65" height="64" viewBox="0 0 65 64" fill="none" xmlns="http://www.w3.org/2000/svg">
<path d="M47.4863 25.6533H33.4863C32.393 25.6533 31.4863 24.7467 31.4863 23.6533C31.4863 22.56 32.393 21.6533 33.4863 21.6533H47.4863C48.5797 21.6533 49.4863 22.56 49.4863 23.6533C49.4863 24.7467 48.6063 25.6533 47.4863 25.6533Z" fill="#B2B2B2"/>
<path d="M19.4875 27.6799C18.9808 27.6799 18.4741 27.4932 18.0741 27.0932L16.0741 25.0932C15.3008 24.3199 15.3008 23.0399 16.0741 22.2665C16.8475 21.4932 18.1275 21.4932 18.9008 22.2665L19.4875 22.8532L24.0741 18.2665C24.8475 17.4932 26.1275 17.4932 26.9008 18.2665C27.6741 19.0399 27.6741 20.3199 26.9008 21.0932L20.9008 27.0932C20.5275 27.4665 20.0208 27.6799 19.4875 27.6799Z" fill="#B2B2B2"/>
<path d="M47.4863 44.3203H33.4863C32.393 44.3203 31.4863 43.4136 31.4863 42.3203C31.4863 41.227 32.393 40.3203 33.4863 40.3203H47.4863C48.5797 40.3203 49.4863 41.227 49.4863 42.3203C49.4863 43.4136 48.6063 44.3203 47.4863 44.3203Z" fill="#B2B2B2"/>
<path d="M19.4875 46.3468C18.9808 46.3468 18.4741 46.1602 18.0741 45.7602L16.0741 43.7602C15.3008 42.9868 15.3008 41.7068 16.0741 40.9335C16.8475 40.1602 18.1275 40.1602 18.9008 40.9335L19.4875 41.5202L24.0741 36.9335C24.8475 36.1602 26.1275 36.1602 26.9008 36.9335C27.6741 37.7068 27.6741 38.9868 26.9008 39.7602L20.9008 45.7602C20.5275 46.1335 20.0208 46.3468 19.4875 46.3468Z" fill="#B2B2B2"/>
<path d="M40.5006 60.6673H24.5007C10.0207 60.6673 3.83398 54.4806 3.83398 40.0006V24.0007C3.83398 9.52065 10.0207 3.33398 24.5007 3.33398H40.5006C54.9806 3.33398 61.1673 9.52065 61.1673 24.0007V40.0006C61.1673 54.4806 54.9806 60.6673 40.5006 60.6673ZM24.5007 7.33398C12.2073 7.33398 7.83398 11.7073 7.83398 24.0007V40.0006C7.83398 52.294 12.2073 56.6673 24.5007 56.6673H40.5006C52.794 56.6673 57.1673 52.294 57.1673 40.0006V24.0007C57.1673 11.7073 52.794 7.33398 40.5006 7.33398H24.5007Z" fill="#B2B2B2"/>
</svg>
