<svg width="65" height="64" viewBox="0 0 65 64" fill="none" xmlns="http://www.w3.org/2000/svg">
<path d="M32.5007 60.6673C30.4207 60.6673 28.394 59.6006 27.0073 57.734L24.314 54.134C23.754 53.3873 23.0073 52.9606 22.2073 52.9073C21.4073 52.8806 20.6073 53.2273 19.9673 53.894L18.4473 52.534L19.914 53.894C16.074 58.0006 13.114 57.6806 11.7007 57.1206C10.2607 56.5606 7.83398 54.7206 7.83398 48.8006V18.774C7.83398 6.93398 11.2473 3.33398 22.4207 3.33398H42.5806C53.754 3.33398 57.1673 6.93398 57.1673 18.774V48.8006C57.1673 54.694 54.7406 56.534 53.3006 57.1206C51.8873 57.6806 48.954 58.0006 45.0873 53.894C44.4473 53.2006 43.674 52.8273 42.8206 52.9073C42.0206 52.9606 41.2473 53.3873 40.6873 54.134L37.994 57.734C36.6073 59.6006 34.5806 60.6673 32.5007 60.6673ZM22.0473 48.8806C22.154 48.8806 22.2873 48.8806 22.394 48.8806C24.3673 48.9873 26.234 50.0273 27.4873 51.7073L30.1807 55.3073C31.4873 57.0406 33.4873 57.0406 34.794 55.3073L37.4873 51.7073C38.7673 50.0273 40.6073 48.9873 42.6073 48.8806C44.5807 48.774 46.554 49.6007 47.994 51.1473C50.0206 53.3073 51.354 53.574 51.8073 53.3873C52.4473 53.1206 53.1406 51.574 53.1406 48.8006V18.774C53.1406 9.14732 51.4606 7.33398 42.554 7.33398H22.4207C13.514 7.33398 11.834 9.14732 11.834 18.774V48.8006C11.834 51.6006 12.5273 53.1473 13.1673 53.3873C13.6207 53.574 14.954 53.3073 16.9806 51.1473C18.4207 49.6806 20.2073 48.8806 22.0473 48.8806Z" fill="#B2B2B2"/>
<path d="M43.1673 20.666H21.834C20.7407 20.666 19.834 19.7593 19.834 18.666C19.834 17.5727 20.7407 16.666 21.834 16.666H43.1673C44.2607 16.666 45.1673 17.5727 45.1673 18.666C45.1673 19.7593 44.2607 20.666 43.1673 20.666Z" fill="#B2B2B2"/>
<path d="M40.5 31.333H24.5C23.4067 31.333 22.5 30.4263 22.5 29.333C22.5 28.2397 23.4067 27.333 24.5 27.333H40.5C41.5933 27.333 42.5 28.2397 42.5 29.333C42.5 30.4263 41.5933 31.333 40.5 31.333Z" fill="#B2B2B2"/>
</svg>
