<svg width="18" height="18" viewBox="0 0 18 18" fill="none" xmlns="http://www.w3.org/2000/svg">
<path fill-rule="evenodd" clip-rule="evenodd" d="M3.66225 1.81765C2.27333 2.54698 1.25581 4.28171 1.25581 6.35032C1.25581 8.46369 2.00865 10.0927 3.08787 11.4887C3.97735 12.6393 5.0541 13.5929 6.1042 14.5229C6.35361 14.7438 6.60152 14.9633 6.84506 15.1839C7.28546 15.5827 7.67832 15.9327 8.05698 16.1869C8.43584 16.4412 8.7408 16.5574 9 16.5574C9.2592 16.5574 9.56416 16.4412 9.94302 16.1869C10.3217 15.9327 10.7145 15.5827 11.1549 15.1839C11.3985 14.9633 11.6464 14.7438 11.8958 14.5229C12.9459 13.5929 14.0226 12.6393 14.9121 11.4887C15.9914 10.0927 16.7442 8.46369 16.7442 6.35032C16.7442 4.28171 15.7267 2.54698 14.3377 1.81765C12.9884 1.10911 11.1754 1.29675 9.4524 3.35314C9.33403 3.49441 9.17069 3.57424 9 3.57424C8.82931 3.57424 8.66597 3.49441 8.5476 3.35314C6.82465 1.29675 5.01159 1.10911 3.66225 1.81765ZM9 1.85095C7.06433 -0.138519 4.8968 -0.416825 3.14017 0.505589C1.28488 1.47981 0 3.74197 0 6.35032C0 8.91392 0.929718 10.8696 2.14888 12.4466C3.1252 13.7095 4.32019 14.7665 5.37557 15.7C5.61482 15.9116 5.84688 16.1169 6.06761 16.3168C6.49645 16.7052 6.95683 17.1193 7.42339 17.4325C7.88974 17.7455 8.42199 18 9 18C9.57801 18 10.1103 17.7455 10.5766 17.4325C11.0432 17.1193 11.5035 16.7052 11.9324 16.3168C12.1531 16.1169 12.3852 15.9116 12.6244 15.7C13.6798 14.7665 14.8748 13.7095 15.8511 12.4466C17.0703 10.8696 18 8.91392 18 6.35032C18 3.74197 16.7151 1.47981 14.8598 0.505589C13.1032 -0.416825 10.9357 -0.138519 9 1.85095Z" fill="#0D1217"/>
</svg>
