<svg width="25" height="25" viewBox="0 0 25 25" fill="none" xmlns="http://www.w3.org/2000/svg">
<path fill-rule="evenodd" clip-rule="evenodd" d="M8.13953 9.01163C8.13953 6.60341 10.0918 4.65116 12.5 4.65116C14.9082 4.65116 16.8605 6.60341 16.8605 9.01163C16.8605 11.4198 14.9082 13.3721 12.5 13.3721C10.0918 13.3721 8.13953 11.4198 8.13953 9.01163ZM12.5 6.39535C11.0551 6.39535 9.88372 7.5667 9.88372 9.01163C9.88372 10.4566 11.0551 11.6279 12.5 11.6279C13.9449 11.6279 15.1163 10.4566 15.1163 9.01163C15.1163 7.5667 13.9449 6.39535 12.5 6.39535Z" fill="#0D1217"/>
<path fill-rule="evenodd" clip-rule="evenodd" d="M0 12.5C0 5.59644 5.59644 0 12.5 0C19.4036 0 25 5.59644 25 12.5C25 19.4036 19.4036 25 12.5 25C5.59644 25 0 19.4036 0 12.5ZM12.5 1.74419C6.55973 1.74419 1.74419 6.55973 1.74419 12.5C1.74419 15.46 2.93985 18.1407 4.87454 20.0855C5.0843 18.954 5.49644 17.8871 6.32368 17.0292C7.56107 15.7459 9.53972 15.1163 12.4999 15.1163C15.4602 15.1163 17.4388 15.7459 18.6762 17.0292C19.5035 17.8871 19.9156 18.954 20.1254 20.0856C22.0601 18.1408 23.2558 15.46 23.2558 12.5C23.2558 6.55973 18.4403 1.74419 12.5 1.74419ZM18.5392 21.4016C18.4207 19.9924 18.1147 18.9596 17.4206 18.2399C16.6654 17.4567 15.2662 16.8605 12.4999 16.8605C9.73371 16.8605 8.33443 17.4567 7.57924 18.2399C6.88519 18.9596 6.5792 19.9924 6.46073 21.4015C8.18237 22.5719 10.2613 23.2558 12.5 23.2558C14.7386 23.2558 16.8175 22.5719 18.5392 21.4016Z" fill="#0D1217"/>
</svg>
