<svg width="26" height="36" viewBox="0 0 26 36" fill="none" xmlns="http://www.w3.org/2000/svg">
<path d="M12.8003 0.428711C12.1379 0.428711 11.6003 0.966311 11.6003 1.62871V31.8021L2.41614 22.4655C1.94754 21.9969 1.26294 21.9969 0.794341 22.4655C0.325741 22.9335 0.362941 23.6937 0.831541 24.1623L12.1613 35.4765C12.3863 35.7015 12.7007 35.8281 13.0193 35.8281C13.3379 35.8281 13.6475 35.7015 13.8725 35.4765L25.1867 24.1623C25.6553 23.6937 25.6565 22.9335 25.1879 22.4655C24.7193 21.9969 23.8103 21.9969 23.3417 22.4655L14.0003 31.6599V1.62871C14.0003 0.965711 13.4627 0.428711 12.8003 0.428711Z" fill="white"/>
</svg>
