<svg width="22" height="22" viewBox="0 0 22 22" fill="none" xmlns="http://www.w3.org/2000/svg">
<path fill-rule="evenodd" clip-rule="evenodd" d="M11 1.75C5.89137 1.75 1.75 5.89137 1.75 11C1.75 16.1086 5.89137 20.25 11 20.25C16.1086 20.25 20.25 16.1086 20.25 11C20.25 5.89137 16.1086 1.75 11 1.75ZM0.25 11C0.25 5.06294 5.06294 0.25 11 0.25C16.9371 0.25 21.75 5.06294 21.75 11C21.75 16.9371 16.9371 21.75 11 21.75C5.06294 21.75 0.25 16.9371 0.25 11ZM11 6.75001C10.3786 6.75001 9.87497 7.25369 9.87497 7.87501C9.87497 8.28922 9.53918 8.62501 9.12497 8.62501C8.71075 8.62501 8.37497 8.28922 8.37497 7.87501C8.37497 6.42526 9.55022 5.25001 11 5.25001C12.4497 5.25001 13.625 6.42526 13.625 7.87501C13.625 8.83835 13.1056 9.67958 12.3352 10.1354C12.1385 10.2518 11.9761 10.3789 11.8702 10.5036C11.7675 10.6246 11.75 10.7036 11.75 10.75V12C11.75 12.4142 11.4142 12.75 11 12.75C10.5858 12.75 10.25 12.4142 10.25 12V10.75C10.25 10.2441 10.4714 9.83365 10.7266 9.53302C10.9786 9.23603 11.2929 9.00921 11.5714 8.8444C11.9044 8.6474 12.125 8.28656 12.125 7.87501C12.125 7.25369 11.6213 6.75001 11 6.75001ZM11 16C11.5523 16 12 15.5523 12 15C12 14.4477 11.5523 14 11 14C10.4477 14 10 14.4477 10 15C10 15.5523 10.4477 16 11 16Z" fill="#0D1217"/>
</svg>
