<svg width="15" height="15" viewBox="0 0 15 15" fill="none" xmlns="http://www.w3.org/2000/svg">
<path d="M7.16432 13.274C5.95054 13.274 4.76402 12.914 3.7548 12.2397C2.74558 11.5653 1.95899 10.6069 1.4945 9.4855C1.03 8.36411 0.90847 7.13017 1.14527 5.93971C1.38206 4.74926 1.96655 3.65575 2.82482 2.79748C3.6831 1.93921 4.7766 1.35472 5.96706 1.11792C7.15751 0.881126 8.39145 1.00266 9.51284 1.46715C10.6342 1.93165 11.5927 2.71824 12.267 3.72746C12.9414 4.73668 13.3013 5.9232 13.3013 7.13698C13.3013 8.7646 12.6547 10.3256 11.5038 11.4765C10.3529 12.6274 8.79195 13.274 7.16432 13.274ZM7.16432 1.87671C6.12394 1.87671 5.10692 2.18522 4.24187 2.76323C3.37683 3.34123 2.70261 4.16277 2.30447 5.12396C1.90633 6.08515 1.80216 7.14281 2.00513 8.1632C2.2081 9.18359 2.70909 10.1209 3.44475 10.8565C4.18041 11.5922 5.1177 12.0932 6.13809 12.2962C7.15849 12.4991 8.21615 12.395 9.17734 11.9968C10.1385 11.5987 10.9601 10.9245 11.5381 10.0594C12.1161 9.19438 12.4246 8.17736 12.4246 7.13698C12.4246 5.74187 11.8704 4.4039 10.8839 3.41741C9.8974 2.43092 8.55943 1.87671 7.16432 1.87671Z" fill="#D32701"/>
<path d="M9.17697 9.76674L6.72656 7.31633V3.19141H7.60327V6.95249L9.79505 9.14865L9.17697 9.76674Z" fill="#D32701"/>
</svg>
