<svg width="24" height="21" viewBox="0 0 24 21" fill="none" xmlns="http://www.w3.org/2000/svg">
<path d="M22.8994 17.4211C22.8994 17.9407 22.693 18.439 22.3255 18.8064C21.9581 19.1739 21.4598 19.3803 20.9401 19.3803H3.3069C2.78728 19.3803 2.28894 19.1739 1.92151 18.8064C1.55408 18.439 1.34766 17.9407 1.34766 17.4211V6.64519C1.34766 6.12556 1.55408 5.62722 1.92151 5.25979C2.28894 4.89236 2.78728 4.68594 3.3069 4.68594H7.2254L9.18465 1.74707H15.0624L17.0216 4.68594H20.9401C21.4598 4.68594 21.9581 4.89236 22.3255 5.25979C22.693 5.62722 22.8994 6.12556 22.8994 6.64519V17.4211Z" stroke="#F1F1F1" stroke-width="1.95925" stroke-linecap="round" stroke-linejoin="round"/>
<path d="M12.1235 15.4618C14.2876 15.4618 16.042 13.7074 16.042 11.5433C16.042 9.37918 14.2876 7.62481 12.1235 7.62481C9.95939 7.62481 8.20502 9.37918 8.20502 11.5433C8.20502 13.7074 9.95939 15.4618 12.1235 15.4618Z" stroke="#F1F1F1" stroke-width="1.95925" stroke-linecap="round" stroke-linejoin="round"/>
</svg>
