<svg width="15" height="16" viewBox="0 0 15 16" fill="none" xmlns="http://www.w3.org/2000/svg">
<path d="M13.2159 6.80816C13.2159 10.9633 7.87359 14.5249 7.87359 14.5249C7.87359 14.5249 2.53125 10.9633 2.53125 6.80816C2.53125 5.39128 3.0941 4.03244 4.09598 3.03055C5.09787 2.02867 6.45671 1.46582 7.87359 1.46582C9.29046 1.46582 10.6493 2.02867 11.6512 3.03055C12.6531 4.03244 13.2159 5.39128 13.2159 6.80816Z" stroke="#F1F1F1" stroke-width="0.791457" stroke-linecap="round" stroke-linejoin="round"/>
<path d="M7.87258 8.5889C8.85607 8.5889 9.65335 7.79162 9.65335 6.80812C9.65335 5.82463 8.85607 5.02734 7.87258 5.02734C6.88908 5.02734 6.0918 5.82463 6.0918 6.80812C6.0918 7.79162 6.88908 8.5889 7.87258 8.5889Z" stroke="#F1F1F1" stroke-width="0.791457" stroke-linecap="round" stroke-linejoin="round"/>
</svg>
