<svg width="25" height="24" viewBox="0 0 25 24" fill="none" xmlns="http://www.w3.org/2000/svg">
<path d="M6.24035 16C6.35035 15.51 6.15035 14.81 5.80035 14.46L3.37035 12.03C2.61035 11.27 2.31035 10.46 2.53035 9.76C2.76035 9.06 3.47035 8.58 4.53035 8.4L7.65035 7.88C8.10035 7.8 8.65035 7.4 8.86035 6.99L10.5803 3.54C11.0803 2.55 11.7603 2 12.5003 2C13.2403 2 13.9203 2.55 14.4203 3.54L16.1403 6.99C16.2703 7.25 16.5403 7.5 16.8303 7.67L6.06035 18.44C5.92035 18.58 5.68035 18.45 5.72035 18.25L6.24035 16Z" fill="#D1D1D1"/>
<path d="M19.1998 14.4599C18.8398 14.8199 18.6398 15.5099 18.7598 15.9999L19.4498 19.0099C19.7398 20.2599 19.5598 21.1999 18.9398 21.6499C18.6898 21.8299 18.3898 21.9199 18.0398 21.9199C17.5298 21.9199 16.9298 21.7299 16.2698 21.3399L13.3398 19.5999C12.8798 19.3299 12.1198 19.3299 11.6598 19.5999L8.7298 21.3399C7.6198 21.9899 6.6698 22.0999 6.0598 21.6499C5.8298 21.4799 5.6598 21.2499 5.5498 20.9499L17.7098 8.7899C18.1698 8.3299 18.8198 8.1199 19.4498 8.2299L20.4598 8.3999C21.5198 8.5799 22.2298 9.0599 22.4598 9.7599C22.6798 10.4599 22.3798 11.2699 21.6198 12.0299L19.1998 14.4599Z" fill="#D1D1D1"/>
</svg>
