<svg width="17" height="16" viewBox="0 0 17 16" fill="none" xmlns="http://www.w3.org/2000/svg">
<path d="M14.2467 5.63366C13.5467 2.55366 10.8601 1.16699 8.50006 1.16699C8.50006 1.16699 8.50006 1.16699 8.4934 1.16699C6.14006 1.16699 3.44673 2.54699 2.74673 5.62699C1.96673 9.06699 4.0734 11.9803 5.98006 13.8137C6.68673 14.4937 7.5934 14.8337 8.50006 14.8337C9.40673 14.8337 10.3134 14.4937 11.0134 13.8137C12.9201 11.9803 15.0267 9.07366 14.2467 5.63366Z" fill="#282828"/>
<path d="M8.4999 8.97344C9.6597 8.97344 10.5999 8.03324 10.5999 6.87344C10.5999 5.71364 9.6597 4.77344 8.4999 4.77344C7.3401 4.77344 6.3999 5.71364 6.3999 6.87344C6.3999 8.03324 7.3401 8.97344 8.4999 8.97344Z" fill="white"/>
</svg>
