<svg width="14" height="18" viewBox="0 0 14 18" fill="none" xmlns="http://www.w3.org/2000/svg">
<path fill-rule="evenodd" clip-rule="evenodd" d="M7 7.5C7.41423 7.5 7.75 7.16423 7.75 6.75C7.75 6.33578 7.41423 6 7 6C6.58578 6 6.25 6.33578 6.25 6.75C6.25 7.16423 6.58578 7.5 7 7.5ZM7 9C8.24268 9 9.25 7.99268 9.25 6.75C9.25 5.50732 8.24268 4.5 7 4.5C5.75732 4.5 4.75 5.50732 4.75 6.75C4.75 7.99268 5.75732 9 7 9Z" fill="#441507"/>
<path fill-rule="evenodd" clip-rule="evenodd" d="M7 1.5C4.1005 1.5 1.75 3.85051 1.75 6.75C1.75 8.84542 2.54973 10.7738 3.5815 12.3855C4.61208 13.9953 5.8468 15.2461 6.64675 15.9709C6.85503 16.1596 7.14498 16.1596 7.35325 15.9709C8.1532 15.2461 9.38793 13.9953 10.4185 12.3855C11.4503 10.7738 12.25 8.84542 12.25 6.75C12.25 3.85051 9.8995 1.5 7 1.5ZM0.25 6.75C0.25 3.02208 3.27205 0 7 0C10.728 0 13.75 3.02208 13.75 6.75C13.75 9.22755 12.807 11.4365 11.6818 13.1942C10.5552 14.954 9.21835 16.3051 8.36035 17.0825C7.58058 17.789 6.41943 17.789 5.63965 17.0825C4.78165 16.3051 3.44477 14.954 2.31823 13.1942C1.19294 11.4365 0.25 9.22755 0.25 6.75Z" fill="#441507"/>
</svg>
