<svg width="24" height="23" viewBox="0 0 24 23" fill="none" xmlns="http://www.w3.org/2000/svg">
<path d="M15.2357 17.9471C13.9605 17.9473 12.7139 17.5693 11.6534 16.861C10.593 16.1527 9.76646 15.1458 9.27828 13.9677C8.79009 12.7896 8.66222 11.4933 8.91082 10.2425C9.15941 8.99173 9.77332 7.84277 10.6749 6.94092C11.5765 6.03906 12.7253 5.42481 13.976 5.17584C15.2266 4.92687 16.5231 5.05436 17.7013 5.54219C18.8795 6.03003 19.8866 6.85629 20.5953 7.9165C21.3039 8.97671 21.6823 10.2232 21.6824 11.4985V11.4994C21.6807 13.2087 21.0009 14.8476 19.7923 16.0563C18.5838 17.2651 16.9451 17.9451 15.2357 17.9471Z" fill="#F9AC65"/>
<path d="M8.96329 17.9471C7.68807 17.9471 6.44148 17.5689 5.38116 16.8605C4.32085 16.152 3.49444 15.145 3.00643 13.9668C2.51842 12.7887 2.39073 11.4923 2.63952 10.2415C2.8883 8.99082 3.50238 7.84196 4.40411 6.94024C5.30583 6.03852 6.45469 5.42444 7.70542 5.17565C8.95614 4.92687 10.2526 5.05455 11.4307 5.54256C12.6089 6.03057 13.6159 6.85698 14.3243 7.9173C15.0328 8.97761 15.411 10.2242 15.411 11.4994C15.4092 13.2089 14.7293 14.8479 13.5205 16.0567C12.3117 17.2654 10.6728 17.9453 8.96329 17.9471Z" fill="#EB3A3A"/>
</svg>
