<svg width="12" height="14" viewBox="0 0 12 14" fill="none" xmlns="http://www.w3.org/2000/svg">
<path d="M3.77054 12.3572C4.28454 13.0522 5.092 13.5 6 13.5C6.908 13.5 7.71547 13.0522 8.22947 12.3572C6.74949 12.5705 5.25052 12.5705 3.77054 12.3572Z" fill="#0D1217"/>
<path d="M10.1245 5.05V5.50767C10.1245 6.05691 10.2718 6.59386 10.548 7.05086L11.2248 8.17075C11.8429 9.19366 11.371 10.584 10.2959 10.9075C7.48333 11.7537 4.51667 11.7537 1.70411 10.9075C0.628973 10.584 0.157059 9.19366 0.775219 8.17075L1.45199 7.05086C1.72816 6.59386 1.87553 6.05691 1.87553 5.50767V5.05C1.87553 2.5371 3.72212 0.5 6 0.5C8.27788 0.5 10.1245 2.5371 10.1245 5.05Z" fill="#0D1217"/>
</svg>
