<svg width="23" height="23" viewBox="0 0 23 23" fill="none" xmlns="http://www.w3.org/2000/svg">
<path d="M21.4571 15.2832C21.4219 16.8313 20.8245 18.3136 19.7764 19.4535C18.7283 20.5934 17.3011 21.3128 15.7614 21.4774L8.52277 22.2388C7.00888 22.3961 5.48871 22.0061 4.23757 21.1393C2.98644 20.2725 2.08709 18.9864 1.70242 17.5137C1.78504 17.5252 1.86329 17.5471 1.94805 17.5529C3.27651 17.6391 4.55588 18.088 5.64696 18.8508C6.39944 19.3841 7.32045 19.6251 8.23772 19.5286C9.155 19.4321 10.0057 19.0048 10.6308 18.3266C11.8274 17.0443 13.4467 16.2373 15.191 16.0539L20.62 15.4828C20.906 15.4499 21.187 15.3829 21.4571 15.2832ZM0.341951 14.0423C0.384432 14.4823 0.580544 14.8932 0.89586 15.203C1.21117 15.5128 1.62554 15.7017 2.06621 15.7364C3.72646 15.8447 5.32521 16.4062 6.68858 17.3598C7.0833 17.639 7.5661 17.765 8.04691 17.7145C8.52773 17.6639 8.97373 17.4401 9.30173 17.085C10.7972 15.4825 12.8208 14.4737 15.0006 14.2442L20.4296 13.6732C20.9096 13.6227 21.3498 13.3836 21.6535 13.0086C21.9572 12.6335 22.0994 12.1531 22.0489 11.6732C21.9985 11.1932 21.7594 10.753 21.3843 10.4493C21.0092 10.1456 20.5289 10.0034 20.0489 10.0539L2.03738 11.9483C1.53487 12.0011 1.07394 12.2515 0.755986 12.6442C0.43803 13.0369 0.289098 13.5398 0.341951 14.0423ZM20.7629 8.1436L20.777 8.27751C20.4735 8.22749 20.1649 8.21629 19.8586 8.24419L1.84705 10.1386C1.51219 10.1788 1.18447 10.265 0.873149 10.3948L0.856589 10.2373C0.606905 7.83808 1.31915 5.43779 2.83705 3.56305C4.35495 1.68832 6.55453 0.492267 8.95321 0.237313L10.7629 0.0469755C13.1621 -0.202709 15.5624 0.509533 17.4371 2.02743C19.3119 3.54533 20.5079 5.74492 20.7629 8.1436ZM6.00007 6.95181C5.97483 6.71183 5.85529 6.49171 5.66775 6.33987C5.48022 6.18803 5.24004 6.1169 5.00007 6.14214C4.76009 6.16738 4.53997 6.28692 4.38813 6.47446C4.23629 6.66199 4.16517 6.90217 4.19041 7.14214C4.21565 7.38212 4.33518 7.60224 4.52272 7.75408C4.71026 7.90592 4.95043 7.97705 5.19041 7.95181C5.43038 7.92657 5.6505 7.80703 5.80234 7.61949C5.95418 7.43196 6.02531 7.19178 6.00007 6.95181ZM8.42905 3.95181C8.40381 3.71183 8.28428 3.49171 8.09674 3.33987C7.9092 3.18803 7.66903 3.1169 7.42905 3.14214C7.18908 3.16738 6.96896 3.28692 6.81712 3.47446C6.66528 3.66199 6.59415 3.90217 6.61939 4.14214C6.64463 4.38212 6.76417 4.60224 6.95171 4.75408C7.13924 4.90592 7.37942 4.97705 7.61939 4.95181C7.85937 4.92657 8.07949 4.80703 8.23133 4.61949C8.38317 4.43196 8.45429 4.19178 8.42905 3.95181Z" fill="#5CAC0D"/>
</svg>
