<svg width="20" height="20" viewBox="0 0 20 20" fill="none" xmlns="http://www.w3.org/2000/svg">
<path d="M9.99805 0C10.9618 0 11.728 0.573044 12.4043 1.0791C12.7632 1.34827 13.1044 1.60422 13.4219 1.73535C13.7622 1.87784 14.199 1.9447 14.6611 2.01367C15.4824 2.1379 16.415 2.27828 17.0684 2.93164C17.7214 3.58499 17.8621 4.51673 17.9863 5.33789C18.0576 5.80021 18.122 6.2354 18.2646 6.57812C18.3981 6.89547 18.6509 7.23371 18.9199 7.59473V7.5918C19.4237 8.26817 19.9971 9.03508 19.9971 9.99902C19.9969 10.9628 19.426 11.729 18.9199 12.4053C18.6508 12.764 18.3958 13.1045 18.2646 13.4219C18.122 13.7647 18.0553 14.1997 17.9863 14.6621C17.8621 15.4833 17.7216 16.415 17.0684 17.0684C16.415 17.7217 15.4824 17.8621 14.6611 17.9863C14.199 18.0576 13.7622 18.1221 13.4219 18.2646C13.1044 18.3981 12.7655 18.6508 12.4043 18.9199C11.7279 19.426 10.962 19.999 9.99805 19.999C9.03424 19.9989 8.2681 19.426 7.5918 18.9199C7.23305 18.6509 6.89256 18.3958 6.5752 18.2646C6.23241 18.122 5.79738 18.0553 5.33496 17.9863C4.51369 17.8621 3.58205 17.7217 2.92871 17.0684C2.27539 16.415 2.13497 15.4834 2.01074 14.6621C1.93942 14.1997 1.87506 13.7647 1.73242 13.4219C1.59903 13.1045 1.34621 12.7663 1.07715 12.4053C0.573382 11.729 0.000138689 10.9628 0 9.99902C0 9.03508 0.57102 8.26817 1.07715 7.5918C1.34617 7.2331 1.60135 6.89252 1.73242 6.5752C1.875 6.23244 1.94174 5.79728 2.01074 5.33496C2.13496 4.51376 2.27546 3.58196 2.92871 2.92871C3.58206 2.2755 4.51373 2.13496 5.33496 2.01074C5.79738 1.93942 6.23241 1.87506 6.5752 1.73242C6.89257 1.59898 7.23074 1.34622 7.5918 1.07715C8.2681 0.57337 9.03424 0.000112184 9.99805 0ZM10.001 1.38281C9.49486 1.38281 8.97205 1.77145 8.41992 2.18555C8.00586 2.49379 7.58065 2.81191 7.10449 3.00977C6.60757 3.21682 6.06652 3.29971 5.54199 3.37793C4.87051 3.47911 4.23795 3.57527 3.9043 3.90625C3.57309 4.23746 3.4762 4.87039 3.375 5.54199C3.29448 6.06651 3.21388 6.60757 3.00684 7.10449C2.80899 7.58071 2.49187 8.00909 2.18359 8.4209C1.77182 8.9753 1.37988 9.49488 1.37988 10.001C1.37988 10.5071 1.76952 11.029 2.18359 11.5811C2.49187 11.9952 2.80899 12.4212 3.00684 12.8975C3.21388 13.3944 3.29678 13.9354 3.375 14.46C3.4762 15.1316 3.57079 15.7664 3.9043 16.0977C4.23563 16.4288 4.86839 16.5257 5.54004 16.627C6.06213 16.7075 6.60477 16.7881 7.10156 16.9951C7.58008 17.193 8.00616 17.5101 8.41797 17.8184C8.97227 18.2301 9.49203 18.6209 9.99805 18.6211C10.5042 18.6211 11.027 18.2325 11.5791 17.8184C11.9931 17.5102 12.4185 17.1929 12.8945 16.9951C13.3915 16.7881 13.9325 16.7052 14.457 16.627C15.1265 16.5257 15.7615 16.4289 16.0928 16.0977C16.424 15.7641 16.5209 15.1316 16.6221 14.46C16.7026 13.9354 16.7832 13.3944 16.9902 12.8975C17.1881 12.419 17.5052 11.9928 17.8135 11.5811H17.8154C18.2272 11.0267 18.6182 10.5071 18.6182 10.001C18.6182 9.49489 18.2295 8.97299 17.8154 8.4209C17.5072 8.00909 17.19 7.58071 16.9922 7.10449C16.7851 6.60757 16.7022 6.06652 16.624 5.54199C16.5228 4.87268 16.4259 4.23746 16.0947 3.90625C15.7634 3.57522 15.1305 3.47912 14.459 3.37793C13.9369 3.29744 13.3942 3.21667 12.8975 3.00977C12.4212 2.81192 11.9929 2.49382 11.5811 2.18555C11.0291 1.77389 10.5069 1.38299 10.001 1.38281ZM13.6152 5.40918C13.8844 5.14007 14.3217 5.14003 14.5908 5.40918C14.8599 5.67833 14.8599 6.11561 14.5908 6.38477L6.37988 14.5957C6.24657 14.7313 6.06953 14.7977 5.89258 14.7979C5.71546 14.7979 5.54002 14.7314 5.4043 14.5957C5.13516 14.3266 5.13523 13.8893 5.4043 13.6201L13.6152 5.40918ZM12.2988 10.4775C13.304 10.4777 14.123 11.2966 14.123 12.3018C14.123 13.307 13.304 14.1258 12.2988 14.126C11.2935 14.126 10.4746 13.3071 10.4746 12.3018C10.4747 11.2964 11.2912 10.4775 12.2988 10.4775ZM12.2988 11.8604C12.0551 11.8604 11.8547 12.06 11.8545 12.3037C11.8545 12.5476 12.0527 12.748 12.2988 12.748C12.5425 12.7479 12.7422 12.5475 12.7422 12.3037C12.7419 12.0602 12.5424 11.8605 12.2988 11.8604ZM7.69727 5.87891C8.70262 5.87891 9.52148 6.69777 9.52148 7.70312C9.52146 8.70846 8.70491 9.52734 7.69727 9.52734C6.69203 9.52723 5.87307 8.70839 5.87305 7.70312C5.87305 6.69784 6.69201 5.87902 7.69727 5.87891ZM7.69727 7.25684C7.4535 7.25695 7.25391 7.45738 7.25391 7.70117C7.25412 7.94478 7.45363 8.14441 7.69727 8.14453C7.941 8.14453 8.14139 7.94485 8.1416 7.70117C8.1416 7.45731 7.94343 7.25684 7.69727 7.25684Z" fill="#441406"/>
</svg>
