<svg width="17" height="21" viewBox="0 0 17 21" fill="none" xmlns="http://www.w3.org/2000/svg">
<path fill-rule="evenodd" clip-rule="evenodd" d="M4.36996 2.00737C4.47422 0.915316 5.30773 0.0644531 6.32051 0.0644531H10.6795C11.6923 0.0644531 12.5258 0.915316 12.63 2.00737C13.2953 2.02239 13.8705 2.06053 14.3616 2.16054C15.0225 2.2951 15.5848 2.55143 16.0425 3.05872C16.5672 3.64042 16.7929 4.37284 16.8984 5.24271C17 6.08055 17 7.14585 17 8.4675V14.372C17 15.6937 17 16.7589 16.8984 17.5968C16.7929 18.4667 16.5672 19.1991 16.0425 19.7808C15.5177 20.3625 14.857 20.6127 14.0723 20.7296C13.3165 20.8423 12.3555 20.8423 11.1632 20.8422H5.83678C4.64452 20.8423 3.68352 20.8423 2.9277 20.7296C2.143 20.6127 1.48228 20.3625 0.957536 19.7808C0.432789 19.1991 0.207086 18.4667 0.101585 17.5968C-3.20027e-05 16.7589 -1.75028e-05 15.6937 4.76433e-07 14.372V8.46749C-1.75028e-05 7.14584 -3.20027e-05 6.08055 0.101585 5.24271C0.207086 4.37284 0.432789 3.64042 0.957536 3.05872C1.41517 2.55143 1.97754 2.2951 2.63836 2.16054C3.1295 2.06053 3.70471 2.02239 4.36996 2.00737ZM4.37202 3.45738C3.74591 3.4722 3.26344 3.50713 2.87461 3.5863C2.38047 3.68692 2.09446 3.84848 1.88221 4.08376C1.64093 4.35122 1.48362 4.72674 1.39762 5.43587C1.30908 6.16584 1.30769 7.13333 1.30769 8.52053V14.319C1.30769 15.7062 1.30908 16.6737 1.39762 17.4036C1.48362 18.1128 1.64093 18.4883 1.88221 18.7557C2.12349 19.0232 2.46225 19.1976 3.10195 19.2929C3.76046 19.3911 4.63323 19.3926 5.88461 19.3926H11.1154C12.3668 19.3926 13.2395 19.3911 13.898 19.2929C14.5378 19.1976 14.8765 19.0232 15.1178 18.7557C15.3591 18.4883 15.5164 18.1128 15.6024 17.4036C15.6909 16.6737 15.6923 15.7062 15.6923 14.319V8.52053C15.6923 7.13333 15.6909 6.16584 15.6024 5.43587C15.5164 4.72674 15.3591 4.35122 15.1178 4.08375C14.9055 3.84848 14.6195 3.68692 14.1254 3.5863C13.7366 3.50713 13.2541 3.4722 12.628 3.45738C12.5153 4.53952 11.6859 5.3797 10.6795 5.3797H6.32051C5.31411 5.3797 4.48473 4.53952 4.37202 3.45738ZM6.32051 1.51407C5.9594 1.51407 5.66667 1.83857 5.66667 2.23887V3.20528C5.66667 3.60558 5.9594 3.93009 6.32051 3.93009H10.6795C11.0406 3.93009 11.3333 3.60558 11.3333 3.20528V2.23887C11.3333 1.83857 11.0406 1.51407 10.6795 1.51407H6.32051ZM3.48718 9.00373C3.48718 8.60343 3.77992 8.27892 4.14103 8.27892H4.57692C4.93803 8.27892 5.23077 8.60343 5.23077 9.00373C5.23077 9.40403 4.93803 9.72854 4.57692 9.72854H4.14103C3.77992 9.72854 3.48718 9.40403 3.48718 9.00373ZM6.53846 9.00373C6.53846 8.60343 6.8312 8.27892 7.19231 8.27892H12.859C13.2201 8.27892 13.5128 8.60343 13.5128 9.00373C13.5128 9.40403 13.2201 9.72854 12.859 9.72854H7.19231C6.8312 9.72854 6.53846 9.40403 6.53846 9.00373ZM3.48718 12.3862C3.48718 11.9859 3.77992 11.6614 4.14103 11.6614H4.57692C4.93803 11.6614 5.23077 11.9859 5.23077 12.3862C5.23077 12.7865 4.93803 13.111 4.57692 13.111H4.14103C3.77992 13.111 3.48718 12.7865 3.48718 12.3862ZM6.53846 12.3862C6.53846 11.9859 6.8312 11.6614 7.19231 11.6614H12.859C13.2201 11.6614 13.5128 11.9859 13.5128 12.3862C13.5128 12.7865 13.2201 13.111 12.859 13.111H7.19231C6.8312 13.111 6.53846 12.7865 6.53846 12.3862ZM3.48718 15.7686C3.48718 15.3683 3.77992 15.0438 4.14103 15.0438H4.57692C4.93803 15.0438 5.23077 15.3683 5.23077 15.7686C5.23077 16.1689 4.93803 16.4934 4.57692 16.4934H4.14103C3.77992 16.4934 3.48718 16.1689 3.48718 15.7686ZM6.53846 15.7686C6.53846 15.3683 6.8312 15.0438 7.19231 15.0438H12.859C13.2201 15.0438 13.5128 15.3683 13.5128 15.7686C13.5128 16.1689 13.2201 16.4934 12.859 16.4934H7.19231C6.8312 16.4934 6.53846 16.1689 6.53846 15.7686Z" fill="#441406"/>
</svg>
