<svg width="17" height="14" viewBox="0 0 17 14" fill="none" xmlns="http://www.w3.org/2000/svg">
<path fill-rule="evenodd" clip-rule="evenodd" d="M6.58173 0.397461H9.82065C12.8743 0.397461 14.4012 0.397461 15.3498 1.34376C16.003 1.99531 16.2064 2.92028 16.2698 4.42754C16.2824 4.72645 16.2887 4.87591 16.2329 4.97562C16.177 5.07533 15.9542 5.19977 15.5085 5.44865C15.0136 5.72505 14.679 6.25315 14.679 6.8592C14.679 7.46525 15.0136 7.99335 15.5085 8.26975C15.9542 8.51862 16.177 8.64306 16.2329 8.74277C16.2887 8.84248 16.2824 8.99194 16.2698 9.29085C16.2064 10.7981 16.003 11.7231 15.3498 12.3746C14.4012 13.3209 12.8743 13.3209 9.82065 13.3209H6.58173C3.52805 13.3209 2.00121 13.3209 1.05256 12.3746C0.399383 11.7231 0.195936 10.7981 0.132567 9.29085C0.12 8.99194 0.113717 8.84248 0.169533 8.74277C0.22535 8.64306 0.448187 8.51862 0.893844 8.26975C1.38879 7.99335 1.72336 7.46525 1.72336 6.8592C1.72336 6.25315 1.38879 5.72505 0.893844 5.44865C0.448182 5.19977 0.225351 5.07533 0.169534 4.97562C0.113717 4.87591 0.12 4.72645 0.132567 4.42754C0.195936 2.92028 0.399383 1.99531 1.05256 1.34376C2.00121 0.397461 3.52805 0.397461 6.58173 0.397461ZM11.0668 4.00769C11.304 4.24426 11.304 4.62783 11.0668 4.8644L6.20846 9.7107C5.9713 9.94728 5.58678 9.94728 5.34962 9.7107C5.11245 9.47413 5.11245 9.09057 5.34962 8.85399L10.208 4.00769C10.4452 3.77111 10.8297 3.77111 11.0668 4.00769ZM10.2326 9.68621C10.6798 9.68621 11.0423 9.32458 11.0423 8.87849C11.0423 8.4324 10.6798 8.07077 10.2326 8.07077C9.78535 8.07077 9.42282 8.4324 9.42282 8.87849C9.42282 9.32458 9.78535 9.68621 10.2326 9.68621ZM6.18391 5.64762C6.63111 5.64762 6.99363 5.28599 6.99363 4.8399C6.99363 4.39381 6.63111 4.03219 6.18391 4.03219C5.7367 4.03219 5.37418 4.39381 5.37418 4.8399C5.37418 5.28599 5.7367 5.64762 6.18391 5.64762Z" fill="#D32701"/>
</svg>
