<svg width="20" height="20" viewBox="0 0 20 20" fill="none" xmlns="http://www.w3.org/2000/svg">
<path fill-rule="evenodd" clip-rule="evenodd" d="M10.2 1.63965C6.6313 1.63965 3.73828 4.8726 3.73828 8.50524C3.73828 12.1094 5.80064 16.027 9.01838 17.531C9.76849 17.8816 10.6315 17.8816 11.3817 17.531C14.5994 16.027 16.6618 12.1094 16.6618 8.50524C16.6618 4.8726 13.7687 1.63965 10.2 1.63965ZM10.2 9.71682C11.0922 9.71682 11.8155 8.99356 11.8155 8.10138C11.8155 7.2092 11.0922 6.48595 10.2 6.48595C9.30784 6.48595 8.58458 7.2092 8.58458 8.10138C8.58458 8.99356 9.30784 9.71682 10.2 9.71682Z" fill="#D32701"/>
</svg>
