<svg width="18" height="16" viewBox="0 0 18 16" fill="none" xmlns="http://www.w3.org/2000/svg">
<path fill-rule="evenodd" clip-rule="evenodd" d="M16.2817 11.786C16.4625 10.877 16.5 9.692 16.5 8C16.5 6.308 16.4625 5.123 16.2817 4.214C16.1197 3.3815 15.882 3.03125 15.6337 2.82425C15.3457 2.58425 14.8132 2.3435 13.686 2.19125C12.5377 2.0345 11.0445 2 9 2C6.95625 2 5.46225 2.0345 4.314 2.19125C3.18675 2.3435 2.65425 2.58425 2.36625 2.82425C2.118 3.03125 1.88025 3.3815 1.71825 4.214C1.5375 5.123 1.5 6.308 1.5 8C1.5 9.692 1.5375 10.877 1.71825 11.786C1.88025 12.6185 2.118 12.9687 2.36625 13.1757C2.65425 13.4157 3.18675 13.6565 4.314 13.808C5.46225 13.9655 6.95625 14 9 14C11.0445 14 12.5377 13.9655 13.686 13.808C14.8132 13.6565 15.3457 13.4157 15.6337 13.1757C15.882 12.9687 16.1197 12.6185 16.2817 11.786ZM9 15.5C17.25 15.5 18 14.8752 18 8C18 1.12475 17.25 0.5 9 0.5C0.75 0.5 0 1.12475 0 8C0 14.8752 0.75 15.5 9 15.5Z" fill="#441507"/>
<path fill-rule="evenodd" clip-rule="evenodd" d="M1.5 4.25H16.5V7.25H1.5V4.25Z" fill="#441507"/>
</svg>
