<svg width="17" height="15" viewBox="0 0 17 15" fill="none" xmlns="http://www.w3.org/2000/svg">
<path fill-rule="evenodd" clip-rule="evenodd" d="M15.5521 4.21429C15.5064 4.2114 15.4565 4.21142 15.4049 4.21144L15.392 4.21144H13.3658C11.6957 4.21144 10.2667 5.52605 10.2667 7.24038C10.2667 8.95471 11.6957 10.2693 13.3658 10.2693H15.392L15.4049 10.2693C15.4565 10.2693 15.5064 10.2694 15.5521 10.2665C16.2305 10.2236 16.8304 9.69277 16.8809 8.95129C16.8842 8.90267 16.8842 8.85026 16.8841 8.80169L16.8841 8.78851V5.69226L16.8841 5.67907C16.8842 5.6305 16.8842 5.57809 16.8809 5.52947C16.8304 4.78799 16.2305 4.25713 15.5521 4.21429ZM13.1862 8.04809C13.6161 8.04809 13.9647 7.68646 13.9647 7.24037C13.9647 6.79428 13.6161 6.43266 13.1862 6.43266C12.7562 6.43266 12.4076 6.79428 12.4076 7.24037C12.4076 7.68646 12.7562 8.04809 13.1862 8.04809Z" fill="#D32701"/>
<path fill-rule="evenodd" clip-rule="evenodd" d="M15.4044 11.4809C15.5248 11.4778 15.6159 11.5893 15.5832 11.7053C15.4211 12.2807 15.1637 12.7712 14.7508 13.1842C14.1463 13.7886 13.3798 14.0569 12.4328 14.1842C11.5127 14.3079 10.3369 14.3079 8.85254 14.3079H7.14598C5.66159 14.3079 4.48585 14.3079 3.56569 14.1842C2.6187 14.0569 1.85222 13.7886 1.24775 13.1842C0.643289 12.5797 0.375032 11.8132 0.247713 10.8662C0.124001 9.94607 0.124011 8.77033 0.124024 7.28594V7.19481C0.124011 5.71042 0.124001 4.53468 0.247713 3.61452C0.375032 2.66753 0.643288 1.90105 1.24775 1.29658C1.85222 0.692117 2.6187 0.423861 3.56569 0.296542C4.48585 0.172829 5.66159 0.172839 7.14598 0.172852L8.85255 0.172852C10.3369 0.172839 11.5127 0.172829 12.4328 0.296541C13.3798 0.42386 14.1463 0.692117 14.7508 1.29658C15.1637 1.70955 15.4211 2.20001 15.5832 2.77546C15.6159 2.89143 15.5248 3.00299 15.4043 2.99986L13.3657 2.99987C11.0745 2.99987 9.05505 4.80988 9.05505 7.24038C9.05505 9.67088 11.0745 11.4809 13.3657 11.4809L15.4044 11.4809ZM3.15296 3.40372C2.81839 3.40372 2.54717 3.67494 2.54717 4.00951C2.54717 4.34407 2.81839 4.61529 3.15296 4.61529H6.38383C6.7184 4.61529 6.98962 4.34407 6.98962 4.00951C6.98962 3.67494 6.7184 3.40372 6.38383 3.40372H3.15296Z" fill="#D32701"/>
</svg>
