<svg width="34" height="27" viewBox="0 0 34 27" fill="none" xmlns="http://www.w3.org/2000/svg">
<path d="M27.6489 6.6838C28.6579 8.36521 29.2465 10.1727 29.6249 12.0223C29.9613 13.7877 30.676 16.478 30.4237 18.2855C30.3817 18.6638 30.4237 18.832 30.2556 19.1682C28.8682 18.2014 28.1114 15.8475 27.3967 14.3762C26.5138 12.5687 25.8831 10.467 24.5378 8.91167C23.4447 7.60858 22.0152 6.38956 20.796 5.08647C19.8711 4.07762 18.1473 3.4471 17.5167 2.39622L17.769 2.64843C21.3005 0.840919 25.8411 3.5732 27.6489 6.6838Z" fill="#FFBF3F"/>
<path d="M20.3765 7.90253C19.9141 7.69235 19.6198 7.60828 19.1993 7.22996C18.3164 6.47333 17.9381 5.50652 17.8119 4.37157C17.5597 2.47999 18.905 0.29416 20.9231 0.0839844C21.1333 1.303 21.1753 2.60609 21.3015 3.82511C21.3855 4.83396 21.3855 5.8428 21.3855 6.85165C21.3855 7.31404 21.5537 7.86049 21.3435 8.32288V8.40695C20.9651 8.32288 20.6708 8.02863 20.3765 7.90253Z" fill="#FD6226"/>
<path d="M20.5439 0.798852C20.67 0.756817 20.8382 0.798856 21.0064 0.966997C21.1325 1.93381 21.1746 2.90061 21.2586 3.82538C21.3427 4.83423 21.3427 5.84308 21.3427 6.85192C21.3427 6.97803 21.3427 7.10413 21.3848 7.23023C21.0484 7.39837 20.7121 7.39837 20.3337 7.10413C19.619 6.4736 18.9043 5.759 18.652 5.25458C18.3998 4.75016 18.4838 3.86742 18.5679 3.40503C18.652 2.81654 18.9883 2.22805 19.1565 1.8077C19.4508 1.38735 20.0394 0.924958 20.5439 0.798852Z" fill="#EF430E"/>
<path d="M21.2597 3.82519C21.3017 4.53979 21.3438 5.21235 21.3438 5.92695C21.2597 5.75881 21.0074 5.71678 20.9233 5.59067C20.2927 4.87607 19.9984 3.90926 20.587 3.06856C20.7552 2.81635 20.9654 2.60617 21.1756 2.396C21.2176 2.90042 21.2176 3.3628 21.2597 3.82519Z" fill="#FE5E2D"/>
<path d="M20.2927 3.86732C20.4609 3.19476 20.7552 3.2368 21.0074 2.60627C21.0495 2.5222 21.1335 2.5222 21.1756 2.56423C21.2176 2.98458 21.2176 3.40493 21.2597 3.82529C21.3017 4.45581 21.3438 5.08635 21.3438 5.67484C21.2597 5.5067 21.0915 5.59076 20.9654 5.50669C20.8813 5.38059 20.629 4.7921 20.4609 4.58192C20.4609 4.53989 20.3768 4.49785 20.3347 4.49785C20.3347 4.32971 20.3768 4.37174 20.3768 4.24564C20.3768 4.16157 20.3347 3.90936 20.2927 3.86732Z" fill="#FF7050"/>
<path d="M20.3768 7.90253C19.9143 7.69235 19.62 7.60828 19.1996 7.22996C18.3167 6.47333 17.9383 5.50652 17.8122 4.37157C17.5599 2.47999 18.9053 0.29416 20.9233 0.0839844C20.9233 0.12602 20.9233 0.168056 20.9233 0.210091C20.629 0.252126 20.2927 0.378232 20.0825 0.630443C20.0404 0.672478 19.9984 0.714514 19.9984 0.75655C19.578 0.798585 19.1575 1.05079 18.9473 1.42911C18.8632 1.55521 18.8212 1.63929 18.7371 1.76539C18.653 1.8915 18.611 1.97557 18.569 2.10167C18.3167 2.39592 18.1485 2.77424 18.0644 3.15255C18.0224 3.36273 18.0224 3.53087 18.0644 3.69901C17.9383 4.03529 17.8963 4.24546 17.8963 4.58175C17.8963 4.79192 17.9383 5.04414 17.9804 5.25431C18.0644 5.54856 18.3167 5.8428 18.569 6.01095C18.7792 6.38926 18.9894 6.76758 19.3678 7.01979C19.7041 7.35607 20.1245 7.56624 20.5029 7.86049C20.7131 8.02863 20.9654 8.02863 21.2176 7.9866C21.2597 8.02863 21.3017 8.02863 21.3438 8.07067C21.3438 8.15474 21.3017 8.28084 21.2597 8.36491V8.44898C20.9654 8.32288 20.6711 8.02863 20.3768 7.90253Z" fill="#EF430E"/>
<path d="M17.8953 4.58183C17.8953 4.79201 17.9374 5.00218 17.9794 5.21236C18.0215 5.29643 18.0635 5.42253 18.1056 5.5066C18.2737 6.13713 18.6101 6.68359 19.1146 7.06191C19.2407 7.23005 19.4509 7.35616 19.6611 7.48226C19.8293 7.56633 19.9554 7.60837 20.1236 7.69244C20.2077 7.73447 20.3338 7.77651 20.4179 7.77651C20.502 7.86058 20.6701 7.94465 20.6701 7.90261C20.7963 8.02872 20.9644 8.11279 21.1326 8.19686C21.1747 8.23889 21.2587 8.23889 21.3008 8.28093V8.32296C20.9644 8.23889 20.6701 7.94464 20.3338 7.81854C19.8713 7.60836 19.577 7.5243 19.1566 7.14598C18.2737 6.38935 17.8953 5.42254 17.7692 4.28759C17.517 2.396 18.8623 0.210176 20.8804 0C20.8804 0.0420352 20.8804 0.0420339 20.8804 0.0840691C20.7963 0.0840691 20.7542 0.0840716 20.6701 0.126107H20.6281C20.2918 0.126107 19.9554 0.210172 19.6611 0.462383C19.535 0.588489 19.4089 0.67256 19.3248 0.798666C18.9464 1.05088 18.6521 1.38716 18.4419 1.76548C17.9374 2.48007 17.7272 3.44688 17.8533 4.28759C17.8533 4.41369 17.8953 4.49776 17.8953 4.58183Z" fill="#E42E0A"/>
<path d="M21.0488 5.92696C21.0488 5.969 21.0488 5.969 21.0488 5.92696L21.0068 5.969C21.0068 5.969 21.0488 5.969 21.0488 5.92696C20.9647 6.17917 20.8807 6.47342 20.7545 6.64156C20.6704 6.72563 20.3761 6.85174 20.2921 6.6836C20.208 6.47342 20.4602 6.30528 20.5864 6.17918C20.6284 6.17918 21.0068 5.88493 21.0488 5.92696Z" fill="#FE5E2D"/>
<path d="M20.1247 2.14369C20.1667 2.18572 20.3769 2.60608 20.2928 2.64812C20.2928 2.64812 20.2928 2.64811 20.2508 2.60608C20.0406 2.47997 19.7883 2.35387 19.6622 2.18573C19.5781 2.05962 19.5361 1.76537 19.7042 1.72334C19.9145 1.6813 20.0406 2.01758 20.1247 2.14369Z" fill="#FE5E2D"/>
<path d="M20.25 5.1702C20.208 5.21223 20.208 5.21223 20.25 5.1702L20.208 5.21223C20.208 5.21223 20.208 5.21223 20.25 5.1702C20.0818 5.38038 19.9137 5.63258 19.7034 5.71665C19.5773 5.75869 19.283 5.75869 19.241 5.59055C19.241 5.38038 19.5773 5.2963 19.7034 5.25427C19.7455 5.25427 20.208 5.12816 20.25 5.1702Z" fill="#FE5E2D"/>
<path d="M19.5775 4.66609C19.4514 4.70812 19.1991 4.70813 19.1991 4.53999C19.1991 4.32981 19.4934 4.28777 19.6196 4.24574C19.6616 4.24574 20.082 4.11963 20.082 4.2037L20.04 4.24574C19.9139 4.37184 19.7457 4.58202 19.5775 4.66609Z" fill="#FE5E2D"/>
<path d="M20.4194 1.5973C20.4194 1.47119 20.4615 1.21898 20.6296 1.26102C20.8398 1.30305 20.7978 1.5973 20.8398 1.76544C20.8398 1.80747 20.8398 2.22783 20.7978 2.22783V2.18579C20.6296 1.97561 20.4615 1.76544 20.4194 1.5973Z" fill="#FE5E2D"/>
<path d="M19.0316 3.27897C18.9476 3.23694 18.7794 2.98472 18.9055 2.90065C19.0737 2.77455 19.2839 2.98473 19.41 3.0688C19.4521 3.11083 19.7884 3.36304 19.7464 3.40507H19.7043C19.4941 3.36304 19.2419 3.36304 19.0316 3.27897Z" fill="#FE5E2D"/>
<path d="M24.1183 10.7191C22.4366 11.8961 22.3105 10.9293 21.848 9.416C21.6798 8.91158 21.5537 7.90274 21.0072 7.56646C20.3345 7.18814 19.872 7.8607 19.3675 7.10407C18.6528 6.05319 20.2084 5.25452 20.9651 4.7501C20.2504 3.53108 21.3015 2.69038 22.4787 2.85852C22.4366 3.48905 22.2684 4.1616 22.6889 4.66603C23.1093 4.45585 23.2775 3.95143 23.3615 3.48905C23.5297 3.74126 23.6979 3.95143 23.782 4.28771C23.782 3.27887 23.9922 1.47136 25.2955 2.94259C26.1784 3.9094 24.2444 5.04434 25.7159 5.63284C25.7159 6.01115 25.9261 6.26336 26.1784 6.47354C28.5748 4.16161 29.4997 7.60849 27.3556 8.61734V8.82751C25.8841 9.2899 25.3796 9.83636 24.1183 10.7191Z" fill="#53BB13"/>
<path d="M25.2108 8.36475C26.0096 8.74306 26.7664 7.06166 27.6493 6.97759C27.6913 7.69218 26.5141 8.7851 26.0517 9.12138C25.1688 9.75191 24.4961 10.0041 23.9075 11.055L23.5712 11.4754C22.1417 12.4842 22.0997 10.4245 21.9736 9.58377C21.8474 8.7851 21.9736 7.31387 20.9646 6.97759C21.2588 6.47316 21.0907 5.38025 21.3009 4.79176C21.9315 5.33822 21.6793 6.43113 21.9736 7.18776C22.3099 6.89352 22.6042 6.3891 22.6883 5.88468C22.8144 6.5152 23.6973 6.09485 23.5712 5.25415C23.4871 5.12804 23.7394 5.46432 23.7394 5.46432C23.8655 5.17008 24.0336 4.87583 24.0757 4.53955C24.6222 5.04397 24.0336 6.09485 23.8655 6.72538C23.6973 7.56608 22.8985 8.36475 22.8144 9.16342C23.1087 9.03731 23.2769 9.12138 23.5291 8.86917C23.6132 8.99527 23.6973 9.12138 23.7814 9.28952C24.2859 8.7851 24.9165 7.60812 25.0847 6.85149C26.0937 7.65015 24.7484 8.19661 24.5382 8.95324C24.7063 8.7851 25.0427 8.61696 25.2108 8.36475Z" fill="#2AAD09"/>
<path d="M20.6705 6.85156C20.7967 6.85156 20.8808 6.8936 20.9648 6.93563C20.9228 6.97767 20.9228 7.0197 20.8808 7.06174L20.6705 6.85156Z" fill="#2AAD09"/>
<path d="M25.3792 8.82716C25.8838 8.53292 26.3042 8.36477 26.8928 8.44884C27.7336 8.57495 28.9949 8.57495 29.6255 7.86035C29.7096 9.37362 30.5925 10.3404 30.7607 11.8117C30.8448 12.4842 30.8868 13.1988 31.2231 13.7873C31.6015 14.4178 32.064 15.3426 31.5595 16.0152C30.3403 14.9223 29.079 13.5351 27.9018 12.5263C27.2291 11.9378 26.3042 11.0971 25.5895 10.5926C25.085 10.2564 24.2441 10.0882 24.2861 9.5838L24.3282 9.54176C24.3702 9.24751 25.085 8.95327 25.3792 8.82716Z" fill="#FFD00C"/>
<path d="M25.3792 8.82716C25.8838 8.53292 26.3042 8.36477 26.8928 8.44884C27.7336 8.57495 28.9949 8.57495 29.6255 7.86035C29.7096 9.37362 30.5925 10.3404 30.7607 11.8117C30.8448 12.4842 30.8868 13.1988 31.2231 13.7873C31.6015 14.4178 32.064 15.3426 31.5595 16.0152L31.5174 15.9731C30.9288 13.9134 29.5414 12.0639 29.5414 9.87804C29.5414 9.28955 29.0369 9.03733 28.5324 9.07937C27.145 9.28954 25.5054 8.78513 24.4964 9.96211C24.3702 9.836 24.2861 9.75194 24.2861 9.5838L24.3282 9.54176C24.3702 9.24751 25.085 8.95327 25.3792 8.82716Z" fill="#FFE340"/>
<path d="M27.0194 10.2564C27.3978 11.3913 26.0524 10.7608 25.7581 10.1303C25.3797 9.16345 26.7671 9.49973 27.0194 10.2564Z" fill="#FFE340"/>
<path d="M27.0197 10.2563C27.3981 11.3072 26.1368 10.7187 25.8425 10.1722C25.5482 9.28948 26.8095 9.58372 27.0197 10.2563Z" fill="#E5BB0A"/>
<path d="M29.4145 12.0638C29.4565 12.9465 28.6157 12.2319 28.5316 11.7695C28.4896 10.9709 29.3724 11.4753 29.4145 12.0638Z" fill="#FFE340"/>
<path d="M29.4573 12.0638C29.4993 12.8624 28.7426 12.2319 28.6585 11.7695C28.5744 11.097 29.4153 11.5173 29.4573 12.0638Z" fill="#E5BB0A"/>
<path d="M28.9517 9.70971C29.1199 10.2982 28.4472 9.91988 28.3211 9.62564C28.1529 9.16325 28.8256 9.37342 28.9517 9.70971Z" fill="#FFE340"/>
<path d="M28.9522 9.75192C29.1203 10.2984 28.4897 9.9621 28.3636 9.66785C28.2374 9.20546 28.8681 9.3736 28.9522 9.75192Z" fill="#E5BB0A"/>
<path d="M25.4638 11.0134C26.641 11.0554 27.65 11.4758 28.5749 12.2324C28.9953 12.6107 30.9293 14.3342 30.0044 15.4271C29.3737 15.5532 28.4488 14.8386 27.692 14.4603C26.641 13.9138 25.9262 13.3253 25.1274 12.4426C24.9593 12.2744 24.2446 11.6439 24.2446 11.3917C24.2866 10.9713 25.1274 11.0134 25.4638 11.0134Z" fill="#B84FD0"/>
<path d="M28.3218 13.3672C27.8173 12.8628 26.8083 12.4425 26.3458 11.938C26.2197 11.8119 24.8743 11.1394 25.0845 11.0553C25.6731 10.8872 25.6731 11.3916 25.9674 11.3916C26.0095 11.3916 26.0936 11.1814 26.1356 11.1394C26.2197 11.1814 26.1776 11.3075 26.2617 11.3496C26.2617 11.5177 26.5981 11.0553 26.556 11.2655C26.5981 11.2655 26.5981 11.5177 26.6401 11.5177C26.6401 11.5597 26.8924 11.5177 26.8924 11.5597C26.9764 11.5597 26.9344 11.7279 26.9765 11.6438C26.9344 11.6858 27.1446 11.7279 27.1446 11.7699C27.3128 11.7279 27.3128 11.6438 27.4389 11.5597C27.3969 11.6858 27.523 11.7699 27.481 11.896C27.523 11.896 27.6071 11.896 27.6071 11.854C27.6071 11.896 27.7332 11.9801 27.6912 11.9801C27.7332 11.9801 27.8173 11.854 27.8593 11.8119V12.0642L27.9434 12.0221C27.9855 12.0641 27.9434 12.1482 27.9014 12.1903L27.9434 12.1482C27.9434 12.1903 27.9434 12.2323 27.9434 12.2323C28.0696 12.2743 28.1536 12.1482 28.1957 12.0642C28.1957 12.1482 28.1957 12.3164 28.1536 12.4004C28.2798 12.4004 28.4059 12.3164 28.532 12.2323C28.532 12.3164 28.49 12.4425 28.4479 12.5265C28.49 12.5686 28.5741 12.5686 28.6161 12.5686C28.6161 12.6106 28.6161 12.6526 28.5741 12.6947C28.6161 12.6947 28.7002 12.6947 28.7422 12.6526C28.7422 12.6947 28.7422 12.7367 28.7422 12.7787H28.8263C28.8263 12.8208 28.8263 12.8628 28.7843 12.9049H28.8684C28.9524 12.8628 29.0786 12.7788 29.1206 12.6947C29.0786 12.8628 29.0365 13.031 28.9945 13.1991C29.1206 13.115 29.2467 13.115 29.3308 12.9469C29.2888 13.073 29.2047 13.2411 29.2047 13.3672C29.3308 13.3252 29.3729 13.2411 29.457 13.115C29.457 13.2411 29.3308 13.4513 29.4149 13.5354C29.4149 13.5774 29.4149 13.6195 29.4149 13.6615C29.499 13.6195 29.541 13.7035 29.541 13.7876C29.541 13.7876 29.5831 13.7876 29.6251 13.7456C29.6672 13.7876 29.6251 13.8296 29.5831 13.9137C29.6251 13.8717 29.6672 13.8296 29.7092 13.7876C29.7513 13.8717 29.6672 13.9557 29.7092 14.0398C29.7933 13.9978 29.8774 13.9137 29.9194 13.8296C29.9194 13.9137 29.8353 14.0398 29.7933 14.1659C29.8774 14.0818 29.9615 13.9557 30.0455 13.8717C30.0455 13.9137 30.0035 13.9557 30.0035 13.9978C30.0035 14.1659 29.9615 14.3341 29.9194 14.4602C29.9615 14.4181 30.0035 14.3761 30.0876 14.3761C30.0876 14.4181 30.0876 14.5022 30.0876 14.5442C30.2137 14.5442 30.1717 14.6703 30.1296 14.7544C30.1296 14.7544 30.1717 14.7124 30.2137 14.7124C30.2558 14.7544 30.2137 14.8385 30.1717 14.9225C30.2137 14.9225 30.2558 14.8805 30.2558 14.8805C30.2558 14.9225 30.2137 14.9646 30.2137 15.0066C30.2558 14.9646 30.3398 14.9225 30.3398 14.9225C30.2558 15.1327 30.2558 15.2588 30.1296 15.427V15.3849C30.0035 15.3429 29.9194 15.2588 29.8774 15.1748C29.2467 14.5863 28.8684 13.9137 28.3218 13.3672Z" fill="#982EB3"/>
<path d="M25.2519 11.4757C26.4291 11.5178 27.4381 11.9381 28.3631 12.6947C28.7835 13.0731 30.5913 15.0067 29.8346 15.5952C29.2039 15.7213 28.237 15.3009 27.4802 14.9646C26.4291 14.4182 25.7144 13.8297 24.9156 12.9469C24.7474 12.7788 24.0327 12.1483 24.0327 11.8961C24.1168 11.4337 24.9156 11.4337 25.2519 11.4757Z" fill="#AB75F9"/>
<path d="M25.2939 11.7699C26.387 11.812 27.3119 12.1903 28.1948 12.9049C28.6152 13.2412 30.2549 14.9646 29.5822 15.469C28.9936 15.5531 28.1107 15.2168 27.438 14.8385C26.4711 14.3341 25.7984 13.8297 25.0837 13.031C24.9155 12.8629 24.2428 12.3164 24.2848 12.1062C24.2428 11.7279 24.9575 11.7699 25.2939 11.7699Z" fill="#C09FF2"/>
<path d="M27.2278 14.8806C26.3028 14.4182 25.7143 13.9138 24.9995 13.1992C24.8734 13.031 24.2007 12.5266 24.2428 12.3164C24.2428 11.9381 24.9575 11.9802 25.2518 12.0222C26.2608 12.0642 27.1437 12.4425 27.9425 13.0731C28.3209 13.3673 29.8765 15.0067 29.2458 15.4691H29.2879C28.7413 15.5531 27.8584 15.1748 27.2278 14.8806Z" fill="#DBCEF4"/>
<path d="M27.1035 14.9644C26.2206 14.5441 25.632 14.0397 25.0014 13.3671C24.8753 13.241 24.2446 12.7366 24.2867 12.5264C24.2867 12.1901 24.9594 12.2321 25.2537 12.2321C26.2206 12.2742 27.0615 12.6105 27.8182 13.241C28.1966 13.5352 29.6681 15.0905 29.0795 15.5109H29.1216C28.533 15.637 27.6921 15.2587 27.1035 14.9644Z" fill="#DED8EF"/>
<path d="M15.9629 2.22792C15.8789 1.68146 15.7948 -0.252155 16.2152 0.966865C16.3834 0.546514 17.0981 2.01774 17.5605 1.93367C17.2663 1.30314 17.8128 0.714653 18.4855 0.840758C18.5275 1.42925 17.8128 1.93367 17.981 2.52217C18.1491 3.11066 19.1161 3.23676 19.4104 2.6903C19.957 3.32083 19.1582 3.19473 19.032 3.53101C18.7798 4.03543 19.0741 4.87613 18.6537 4.58189C17.6867 3.99339 16.2152 5.12834 16.047 3.11066C15.6266 3.36287 14.3233 3.44694 14.8698 4.1195C13.7347 3.86729 14.071 2.77438 13.9869 2.22792C13.9029 1.38722 15.2482 2.31199 15.9629 2.22792Z" fill="#2E8C1F"/>
<path d="M9.5293 3.53076C9.5293 3.53076 9.48725 3.53076 9.48725 3.57281L9.5293 3.53076Z" fill="#2E8C1F"/>
<path d="M9.99185 0.588379C10.2861 0.882625 10.6645 1.47112 10.9588 0.798555C11.2531 1.26094 10.9168 2.10165 11.5474 2.18572C11.6736 1.93351 11.6736 1.55519 11.7156 1.30298C11.9678 1.59722 12.3042 1.84943 12.7246 1.72333C12.5144 2.14368 11.9258 2.47996 12.0519 2.98438C12.136 2.98438 12.2201 3.02642 12.3042 3.02642C12.0099 3.82509 11.5474 3.27863 11.3372 3.53084C10.9588 3.90916 11.2531 4.37154 11.7156 4.45561C11.3372 5.25428 10.3282 4.87596 10.4543 4.03526C10.4543 4.11933 10.3702 3.82509 10.6225 3.69899C10.7907 3.15253 10.0759 3.2366 9.57143 3.48881L9.52939 3.53084C9.52939 3.53084 9.57143 3.53084 9.57143 3.48881C9.06692 3.78306 8.47833 3.3627 8.81467 2.73218C9.19305 2.05961 9.86573 2.94235 10.16 2.31182C10.0759 2.26979 9.94981 2.14368 9.82369 2.10165C10.2441 1.76537 9.61347 1.0928 9.99185 0.588379Z" fill="#2E8C1F"/>
<path d="M25.3805 8.07081C25.8429 7.73453 26.2213 7.23011 26.7679 7.14604L26.8519 7.104C27.0201 7.48232 26.936 7.94471 27.0201 8.32303C27.1462 8.91152 27.2303 9.2478 27.1883 9.83629C27.0622 11.1814 26.4315 12.1482 25.4645 13.073C23.909 14.5863 20.924 14.7964 19.4104 13.073C20.3774 12.0642 21.5546 11.1394 22.6477 10.2146C23.4885 9.41594 24.4135 8.74338 25.3805 8.07081Z" fill="#FD6226"/>
<path d="M25.3794 8.07057C25.5055 7.9865 25.5896 7.90243 25.7157 7.81836C26.0941 7.9865 26.3043 8.32278 26.2623 8.86924C26.1782 9.96215 25.968 11.0971 25.6737 11.6436C25.3794 12.19 24.4965 12.7365 23.992 12.9467C23.4034 13.2409 22.6046 13.325 22.1421 13.4931C21.5956 13.4511 20.7547 13.2409 20.2922 12.8626C20.1661 12.7365 20.082 12.6104 20.1241 12.3161C20.9229 11.5595 21.8058 10.8869 22.6466 10.1723C23.4875 9.4157 24.4124 8.74314 25.3794 8.07057Z" fill="#EF430E"/>
<path d="M24.4541 9.28966C24.2018 10.3405 23.5291 11.2653 22.3519 11.3074C22.0156 11.3074 21.6793 11.2653 21.3429 11.2233C21.7633 10.887 22.1838 10.5087 22.6042 10.1724C23.2348 9.66798 23.8655 9.16356 24.4961 8.70117C24.412 8.86931 24.4961 9.12152 24.4541 9.28966Z" fill="#FE5E2D"/>
<path d="M23.7826 10.3829C23.7826 10.4249 23.7826 10.551 23.7406 10.551C23.6144 10.6771 23.5724 10.5931 23.4883 10.6771C23.4463 10.7192 23.2781 10.9714 23.236 11.0134C22.5213 11.3077 22.3532 11.0134 21.5964 11.1816C21.5123 11.1816 21.3862 11.0975 21.4282 11.0975C21.8066 10.8032 22.185 10.467 22.5213 10.1727C23.0679 9.71033 23.6144 9.28998 24.203 8.86963C24.1189 9.03777 24.2871 9.12184 24.2871 9.33202C24.2871 9.50016 23.9087 10.1307 23.7826 10.3829Z" fill="#FF7050"/>
<path d="M26.4315 7.39829C26.4315 7.35625 26.4315 7.27219 26.4315 7.23015C26.5576 7.18811 26.6417 7.14608 26.7679 7.10404L26.8519 7.06201C27.0201 7.44033 26.936 7.90271 27.0201 8.28103C27.1462 8.86952 27.2303 9.20581 27.1883 9.7943C27.0622 11.1394 26.4315 12.1062 25.4645 13.031C23.909 14.5443 20.924 14.7544 19.4104 13.031C19.4525 12.989 19.4945 12.989 19.4945 12.9469C19.7468 13.1991 20.0411 13.4093 20.4195 13.4514C20.5035 13.4514 20.5456 13.4514 20.5876 13.4514C20.924 13.8297 21.3864 14.0398 21.933 13.9558C22.1012 13.9558 22.2273 13.9558 22.3954 13.9137C22.5216 13.9137 22.6897 13.8717 22.8159 13.8297C23.2363 13.8297 23.6988 13.7876 24.1192 13.6195C24.3294 13.5354 24.4976 13.3673 24.6237 13.2412C25.0021 13.1571 25.2543 13.031 25.5907 12.8208C25.8009 12.6947 25.9691 12.4845 26.1372 12.2744C26.3895 12.0222 26.4736 11.5598 26.4315 11.2235C26.6838 10.8031 26.8099 10.2987 26.8519 9.83633C26.936 9.28987 26.8519 8.74341 26.8519 8.23899C26.7679 7.90271 26.6417 7.60846 26.4315 7.39829Z" fill="#EF430E"/>
<path d="M26.9361 8.57532C26.8941 8.44921 26.852 8.32311 26.81 8.23904C26.81 8.11293 26.768 7.90276 26.768 7.90276C26.768 7.69258 26.768 7.48241 26.768 7.27223C26.768 7.18816 26.768 7.14613 26.7259 7.06206L26.768 7.02002C26.9361 7.39834 26.852 7.86072 26.9361 8.23904C27.0623 8.82753 27.1463 9.16381 27.1043 9.75231C26.9782 11.0974 26.3475 12.0642 25.3806 12.989C23.825 14.5023 20.84 14.7125 19.3265 12.989C19.3685 12.947 19.3685 12.947 19.4105 12.9049C19.4526 12.947 19.5367 13.031 19.5787 13.0731C19.5787 13.0731 19.6208 13.0731 19.6208 13.1151C19.873 13.4514 20.1673 13.7036 20.5457 13.7877C20.7139 13.8297 20.9241 13.8718 21.0922 13.9138C21.5967 14.0819 22.1013 14.166 22.5637 14.0819C23.5727 14.0819 24.5818 13.6195 25.2965 12.947C25.3806 12.8629 25.4226 12.8209 25.5067 12.7368C25.7169 12.6107 25.8851 12.4005 26.0532 12.2324C26.1373 12.1483 26.1794 12.0222 26.2214 11.8961C26.6839 11.3496 26.9782 10.635 26.9782 9.87841C27.0202 9.6262 27.0623 9.37399 27.0202 9.07974C27.0623 8.95363 26.9782 8.7855 26.9361 8.57532Z" fill="#E42E0A"/>
<path d="M24.7484 8.95335C25.0006 8.86928 25.2949 8.74317 25.5892 8.7852C25.7574 8.7852 26.0517 8.99538 25.9676 9.16352C25.8415 9.3737 25.4631 9.24759 25.2949 9.20556C25.2109 9.16352 24.6643 9.03742 24.7484 8.95335C24.7064 8.95335 24.7064 8.95335 24.7484 8.95335Z" fill="#FE5E2D"/>
<path d="M22.1425 11.9376C22.1843 11.8958 22.1843 11.8958 22.1425 11.9376V11.9376Z" fill="#FE5E2D"/>
<path d="M22.1429 12.7363C22.1008 12.8625 21.8486 13.1147 21.6804 12.9886C21.4702 12.8204 21.6804 12.4841 21.7645 12.316C21.8065 12.274 22.0588 11.7695 22.1429 11.8116V11.8536V11.8956C22.1429 11.8956 22.1429 11.8956 22.1429 11.8536C22.1849 12.1479 22.2269 12.4841 22.1429 12.7363Z" fill="#FE5E2D"/>
<path d="M24.5807 10.2144C24.833 10.2144 25.1693 10.2144 25.4216 10.3825C25.5477 10.4666 25.7579 10.7188 25.5898 10.8869C25.3795 11.0551 25.0852 10.8028 24.9591 10.6767C24.9171 10.5927 24.4967 10.2984 24.5807 10.2144Z" fill="#FE5E2D"/>
<path d="M23.7818 11.0132C23.992 11.0552 24.3283 11.0552 24.4965 11.1813C24.6226 11.2654 24.7908 11.5176 24.6226 11.6437C24.4544 11.7698 24.2022 11.5176 24.076 11.4335C24.076 11.3915 23.6977 11.0552 23.7818 11.0132Z" fill="#FE5E2D"/>
<path d="M21.0914 12.4845C21.0073 12.5686 20.713 12.6947 20.6289 12.5265C20.5448 12.3164 20.8391 12.1062 20.9653 12.0221C21.0073 11.9801 21.3857 11.6858 21.4277 11.7699C21.4277 11.7699 21.4277 11.8119 21.3857 11.8119C21.3436 11.9801 21.2596 12.3164 21.0914 12.4845Z" fill="#FE5E2D"/>
<path d="M23.2359 11.896V11.938C23.2359 11.938 23.2359 11.938 23.2359 11.896C23.3621 12.1062 23.5302 12.4004 23.5723 12.6106C23.5723 12.7367 23.4882 13.0309 23.32 12.9889C23.1098 12.9469 23.1518 12.5686 23.1518 12.4004C23.1098 12.3584 23.1518 11.896 23.2359 11.896Z" fill="#FE5E2D"/>
<path d="M16.1737 7.27231C15.1647 6.59975 14.2398 5.717 13.3148 4.91834C12.5581 4.28781 11.8434 3.57321 11.1286 2.85862C10.7923 2.52233 10.2878 2.27012 10.1617 1.80774L10.1196 1.7657C10.4139 1.59756 10.8343 1.59756 11.1286 1.47145C11.5911 1.26128 11.8854 1.17721 12.3899 1.13517C13.5671 1.0511 14.45 1.47145 15.3749 2.14401C16.8464 3.23693 17.435 5.71701 16.1737 7.27231Z" fill="#FD6226"/>
<path d="M15.459 3.3208C15.7953 3.78319 15.9635 4.41372 16.1737 4.83407C16.2157 5.29645 16.1737 6.05309 15.8794 6.51547C15.7953 6.64158 15.6692 6.72565 15.459 6.72565C14.7022 6.13716 13.9875 5.50663 13.3148 4.8761C12.558 4.24557 11.8433 3.53098 11.1286 2.81638C11.0445 2.73231 10.9604 2.64823 10.8343 2.56416C10.9604 2.22788 11.1706 1.97567 11.6752 1.93364C12.6001 1.84957 13.6091 1.8916 14.1136 2.05974C14.6181 2.26992 15.2067 2.94248 15.459 3.3208Z" fill="#EF430E"/>
<path d="M14.3652 5.8012C14.0289 5.50695 13.6505 5.17067 13.3142 4.87642C12.8097 4.41403 12.3052 3.95165 11.8006 3.44723C11.9688 3.48926 12.179 3.36315 12.3052 3.40519C13.2301 3.48926 14.113 3.90961 14.3232 4.91846C14.3652 5.21271 14.3652 5.50695 14.3652 5.8012Z" fill="#FE5E2D"/>
<path d="M13.4824 3.82553C13.6085 3.9096 13.5665 3.95164 13.6085 3.99368C13.6506 4.03571 13.8608 4.16182 13.9028 4.16182C14.2392 4.75031 14.0289 4.91845 14.2812 5.54898C14.3232 5.63305 14.2392 5.71712 14.2392 5.67509C13.9028 5.38084 13.6085 5.12862 13.3142 4.87641C12.8518 4.4981 12.3893 4.03571 11.9689 3.61536C12.137 3.65739 12.1791 3.48926 12.3472 3.48926C12.5154 3.48926 13.104 3.74146 13.3563 3.82553C13.3563 3.86757 13.4403 3.82553 13.4824 3.82553Z" fill="#FF7050"/>
<path d="M16.5097 4.58201C16.4676 4.4559 16.4256 4.3298 16.3836 4.24573C16.3415 3.86741 16.2154 3.48909 16.0052 3.19485C15.8791 3.02671 15.7529 2.9006 15.5848 2.81653C15.4586 2.52229 15.3325 2.31211 15.0802 2.0599C14.9121 1.89176 14.7439 1.76565 14.5757 1.68158C14.3235 1.51344 13.9451 1.51344 13.6508 1.59752C13.2304 1.47141 12.81 1.38734 12.3895 1.42937C11.9271 1.42937 11.4646 1.55548 11.0021 1.63955C10.7499 1.68158 10.5397 1.84972 10.3715 2.0599C10.3295 2.0599 10.2874 2.10194 10.2033 2.10194C10.1613 2.01787 10.0772 1.93379 10.0772 1.84972L10.0352 1.80769C10.3295 1.63955 10.7499 1.63955 11.0442 1.51344C11.5066 1.30326 11.8009 1.2192 12.3054 1.17716C13.4826 1.09309 14.3655 1.51344 15.2905 2.186C16.7619 3.32095 17.3505 5.80103 16.1313 7.35633C16.0893 7.3143 16.0893 7.3143 16.0472 7.27226C16.2574 7.02005 16.3415 6.72581 16.3415 6.43156C16.3415 6.38952 16.3415 6.30545 16.3415 6.26341C16.6358 5.92713 16.7199 5.50678 16.5938 5.0444C16.5938 4.87626 16.5517 4.70811 16.5097 4.58201Z" fill="#EF430E"/>
<path d="M15.3324 2.1861C15.2483 2.14406 15.2063 2.10202 15.1222 2.05999C14.954 1.89185 14.7858 1.80778 14.6177 1.68168C14.5336 1.63964 14.4075 1.5976 14.3234 1.55557C13.7768 1.21929 13.1462 1.09318 12.5156 1.17725C12.3053 1.17725 12.0951 1.17725 11.8429 1.26132C11.6747 1.30336 11.5065 1.38743 11.3804 1.42946C11.2963 1.4715 11.1702 1.51354 11.0861 1.59761C10.96 1.63964 10.7918 1.68167 10.8339 1.63964C10.6657 1.68167 10.4975 1.68167 10.3294 1.72371C10.2873 1.72371 10.2032 1.76574 10.1612 1.76574L10.1191 1.72371C10.4134 1.55557 10.8339 1.55557 11.1282 1.42946C11.5906 1.21929 11.8849 1.13521 12.3894 1.09318C13.5666 1.00911 14.4495 1.42946 15.3744 2.10203C16.8459 3.23698 17.4345 5.71705 16.2153 7.27235C16.1732 7.27235 16.1732 7.23032 16.1312 7.23032C16.1732 7.18828 16.2153 7.10421 16.2573 7.06218V7.02014C16.5096 6.76793 16.6778 6.47368 16.7198 6.1374C16.7198 5.96926 16.7618 5.80112 16.7618 5.67502C16.8459 5.25466 16.8039 4.79227 16.7198 4.37192C16.5096 3.53122 15.963 2.69052 15.3324 2.1861Z" fill="#E42E0A"/>
<path d="M11.9686 3.27913C11.9686 3.23709 11.9686 3.23709 11.9686 3.27913V3.23709C11.9686 3.23709 11.9686 3.23709 11.9686 3.27913C11.8425 3.06895 11.7163 2.7747 11.6743 2.56452C11.6743 2.43842 11.8004 2.14418 11.9686 2.22825C12.1788 2.31232 12.0947 2.6486 12.0947 2.7747C12.0947 2.81674 12.0527 3.27913 11.9686 3.27913Z" fill="#FE5E2D"/>
<path d="M14.8277 5.00226C15.0379 4.96023 15.3322 4.87616 15.5424 4.91819C15.6685 4.96023 15.9208 5.12837 15.8367 5.25448C15.7106 5.42262 15.4163 5.29651 15.2481 5.25448C15.2061 5.25448 14.7856 5.08633 14.8277 5.00226Z" fill="#FE5E2D"/>
<path d="M13.0614 2.48051C13.1034 2.3544 13.3136 2.14422 13.4398 2.27033C13.6079 2.39644 13.4398 2.69068 13.3557 2.81679C13.3136 2.85882 13.1034 3.27918 13.0193 3.23714C13.0193 3.23714 13.0193 3.23714 13.0193 3.1951C13.0614 2.98493 13.0193 2.69068 13.0614 2.48051Z" fill="#FE5E2D"/>
<path d="M13.9024 3.11075C13.9445 2.98464 14.1547 2.81651 14.2808 2.94261C14.4069 3.06872 14.2388 3.32093 14.1547 3.44703C14.1126 3.48907 13.9024 3.82535 13.8604 3.82535C13.8604 3.82535 13.8604 3.82535 13.8604 3.78332C13.8184 3.57314 13.8183 3.32093 13.9024 3.11075Z" fill="#FE5E2D"/>
<path d="M15.4594 5.84299C15.5435 5.92706 15.7116 6.13724 15.5855 6.22131C15.4173 6.34741 15.2071 6.0952 15.123 6.01113C15.081 5.9691 14.7867 5.67485 14.8287 5.63281H14.8708C15.039 5.71688 15.2912 5.75892 15.4594 5.84299Z" fill="#FE5E2D"/>
<path d="M15.2056 3.74123C15.3317 3.6992 15.584 3.74124 15.584 3.90938C15.584 4.11956 15.2476 4.11956 15.1215 4.11956C15.0795 4.11956 14.6591 4.16159 14.6591 4.11956L14.7011 4.07752C14.8272 3.99345 15.0374 3.78327 15.2056 3.74123Z" fill="#FE5E2D"/>
<path d="M22.6465 7.90258C22.8147 8.44904 22.8988 9.71009 22.8147 10.2986C22.7306 10.761 22.184 11.8959 21.6375 11.8959C21.0909 11.4335 20.4183 9.9623 20.2921 9.1216C20.124 7.94461 20.6285 6.68356 20.2501 5.54861C21.175 5.08622 22.3942 7.23002 22.6465 7.90258Z" fill="#FB5217"/>
<path opacity="0.45" d="M21.89 8.19687C21.8479 8.15483 21.8059 8.1128 21.8059 8.07076C21.8059 7.94465 21.8059 7.77651 21.7639 7.65041C21.5957 6.97785 21.0912 6.38935 20.4605 6.17918C20.4185 5.969 20.3344 5.75883 20.2924 5.59069C21.2173 5.08627 22.4365 7.23006 22.6888 7.94465C22.857 8.49111 22.9831 9.75216 22.857 10.3407C22.7729 10.803 22.2263 11.938 21.6798 11.938C21.3855 11.6858 21.2594 11.1814 21.1332 10.6349C21.4696 10.6349 21.8479 10.4668 21.9741 10.1305C22.1002 9.83623 22.1422 9.58403 22.0582 9.24775C22.0582 9.20571 22.0582 9.20571 22.0161 9.16368C22.1002 8.99554 22.1002 8.78536 22.0582 8.57518C21.9741 8.44907 21.932 8.32297 21.89 8.19687Z" fill="#FF7D5A"/>
<path d="M20.3762 5.50648C21.3011 5.25427 22.4363 7.22992 22.6465 7.90249C22.8147 8.44894 22.8988 9.71 22.8147 10.2985C22.7306 10.7609 22.184 11.8958 21.6375 11.8958C21.5114 11.7697 21.3852 11.6016 21.3011 11.3914C22.8147 10.2144 22.4363 8.11266 21.3011 6.59939C21.0489 6.17904 20.7126 5.84276 20.3762 5.50648Z" fill="#F74F0C"/>
<path d="M26.1367 13.073C26.0526 13.2412 25.2959 13.031 25.1277 13.073C24.8754 13.1571 24.6652 13.2832 24.455 13.4514C24.3709 13.5354 24.2869 13.6195 24.2028 13.6615C24.0346 13.7876 24.0346 13.7456 23.8664 13.6615C23.6142 13.5354 23.6562 13.1571 23.6983 12.8629C24.1187 12.6947 24.3709 12.6947 24.8334 12.5686C25.1697 12.5266 26.1367 12.4005 26.1367 13.073Z" fill="#39A712"/>
<path d="M26.1792 15.2586C26.1792 16.2255 23.993 14.0817 23.8669 13.6193C24.2453 13.241 25.3384 12.5684 25.8429 12.7786C26.5155 13.0728 26.2213 14.3339 26.1792 15.2586Z" fill="#E1FB76"/>
<path d="M21.1334 11.7277C20.0403 10.5087 18.9892 8.95343 17.8961 7.81848C17.3075 7.14592 16.5087 6.17911 15.8361 5.63265C15.3736 5.2123 14.5328 4.96009 14.6589 4.45566L14.7009 4.41363C14.785 4.16142 15.5838 3.95124 15.8361 3.82514C16.3826 3.61496 16.803 3.48886 17.3496 3.657C18.1484 3.86717 19.4097 4.03531 20.1244 3.40479C20.0403 4.91805 20.755 6.01097 20.755 7.4822C20.755 8.15476 20.713 8.86936 21.0073 9.49988C21.3857 10.1724 21.764 11.1393 21.1334 11.7277Z" fill="#FFD00C"/>
<path d="M18.9886 4.4977C17.6012 4.53974 16.0457 3.86717 14.8685 4.87602C14.7423 4.74991 14.7003 4.62381 14.7423 4.45566L14.7844 4.41363C14.8685 4.16142 15.6673 3.95124 15.9195 3.82514C16.4661 3.61496 16.8865 3.48886 17.4331 3.657C18.2319 3.86717 19.4931 4.03531 20.2079 3.40479C20.1238 4.91805 20.8385 6.01097 20.8385 7.4822C20.8385 8.15476 20.7964 8.86936 21.0907 9.49988C21.385 10.1724 21.7214 11.1393 21.1328 11.7277L21.0907 11.6857C20.7544 9.58396 19.5772 7.56627 19.8715 5.38044C19.9556 4.79195 19.4931 4.45567 18.9886 4.4977Z" fill="#FFE340"/>
<path d="M17.3486 5.50666C17.6009 6.68364 16.2975 5.88498 16.0873 5.25445C15.8771 4.20357 17.2225 4.70799 17.3486 5.50666Z" fill="#FFE340"/>
<path d="M17.391 5.50654C17.6012 6.59945 16.424 5.88486 16.2558 5.25433C16.0456 4.32956 17.2648 4.79194 17.391 5.50654Z" fill="#E5BB0A"/>
<path d="M19.5356 7.56659C19.4935 8.44933 18.7368 7.65066 18.6947 7.14624C18.7368 6.3896 19.5776 6.9781 19.5356 7.56659Z" fill="#FFE340"/>
<path d="M19.5354 7.6086C19.4934 8.40727 18.7787 7.69268 18.7787 7.23029C18.8207 6.51569 19.5775 7.06215 19.5354 7.6086Z" fill="#E5BB0A"/>
<path d="M19.3258 5.21229C19.4099 5.80078 18.8213 5.38043 18.7372 5.04415C18.6531 4.53973 19.2837 4.83397 19.3258 5.21229Z" fill="#FFE340"/>
<path d="M19.3682 5.21242C19.4523 5.75887 18.9057 5.38056 18.8216 5.08631C18.7376 4.62392 19.2841 4.87613 19.3682 5.21242Z" fill="#E5BB0A"/>
<path d="M31.7695 17.1505C31.6014 17.1085 31.3912 17.0665 31.265 17.0244C31.4332 17.0665 31.6014 17.1085 31.7695 17.1505Z" fill="#53BB13"/>
<path d="M33.3679 18.4113C32.0646 18.3273 30.8874 17.4445 29.5 17.8649C29.458 17.9489 29.3739 18.033 29.2898 18.0751C29.1216 17.8228 28.533 17.3605 28.2387 17.3184C28.1547 16.8981 27.8604 16.3096 27.9865 15.8892C28.1547 15.8892 28.3649 15.9313 28.491 16.0153C29.0796 15.1326 28.8273 13.9556 28.7432 13.0308C29.7943 13.241 29.458 14.2919 29.5421 15.0065C29.7523 14.2919 30.3409 12.9468 30.8454 12.4844C31.3919 13.283 30.5511 14.2919 30.2147 14.9644C31.1397 14.8804 32.0646 13.6614 33.1157 14.2499C34.2928 14.8804 31.8964 15.5529 31.476 15.8472C32.1066 15.9313 32.9895 15.7631 33.5781 16.1414C32.7373 16.2675 31.6862 16.4357 30.9715 16.5198C31.6021 16.5618 32.5691 16.9401 32.9895 17.4025C32.6111 17.3605 32.1487 17.3184 31.7283 17.1923C32.443 17.3605 33.1577 17.8228 33.3679 18.4113Z" fill="#53BB13"/>
<path d="M18.9884 7.73452C19.9974 8.36505 20.6701 9.24779 21.0485 10.3827C21.2166 10.9292 22.0155 13.4093 20.6281 13.8296C19.9974 13.6194 19.577 12.5265 19.1566 11.854C18.5259 10.8451 18.2316 10.0044 17.9794 8.82744C17.9373 8.57523 17.601 7.69249 17.7692 7.48231C18.0214 7.104 18.6941 7.52435 18.9884 7.73452Z" fill="#B84FD0"/>
<path d="M20.2496 11.2235C20.0815 10.5509 19.4088 9.66817 19.2406 8.99561C19.1986 8.82747 18.3998 7.56641 18.5679 7.60845C19.1565 7.73455 18.9043 8.19694 19.1565 8.36508C19.1986 8.40712 19.3667 8.23898 19.4088 8.23898C19.4929 8.32305 19.3247 8.40712 19.4088 8.49119C19.3247 8.6173 19.8292 8.40712 19.7031 8.53323C19.7451 8.53323 19.619 8.78544 19.661 8.78544C19.619 8.78544 19.8712 8.91154 19.8292 8.95358C19.8712 8.99561 19.7872 9.12172 19.8712 9.07968C19.8292 9.12172 19.9553 9.24782 19.9133 9.28986C20.0815 9.37393 20.1235 9.24782 20.2917 9.24782C20.2076 9.33189 20.2496 9.50003 20.1235 9.54207C20.1655 9.5841 20.2496 9.58411 20.2496 9.58411C20.2076 9.58411 20.2917 9.75225 20.2496 9.75225C20.2917 9.75225 20.4598 9.71021 20.4598 9.71021L20.3337 9.92038C20.3757 9.92038 20.4178 9.92038 20.4598 9.92038C20.4598 9.96242 20.4178 10.0045 20.3337 10.0465C20.3337 10.0465 20.3757 10.0465 20.4178 10.0465C20.4178 10.0465 20.3757 10.0885 20.3337 10.1306C20.4178 10.2567 20.5439 10.1726 20.67 10.0885C20.628 10.1726 20.5439 10.2987 20.4598 10.3407C20.586 10.4248 20.7541 10.4248 20.8803 10.3828C20.8382 10.4668 20.7121 10.5089 20.67 10.5929C20.7121 10.635 20.7541 10.677 20.7962 10.7191C20.7541 10.7611 20.7541 10.8031 20.7121 10.8031C20.7541 10.8452 20.7962 10.8452 20.8803 10.8452C20.8803 10.8872 20.8803 10.9292 20.7962 10.9292C20.8382 10.9292 20.8382 10.9713 20.8803 10.9713C20.8382 11.0133 20.8382 11.0553 20.7962 11.0553L20.8803 11.0974C20.9643 11.1394 21.0905 11.0974 21.1746 11.0133C21.0905 11.1394 20.9223 11.2655 20.7962 11.3916C20.9643 11.3916 21.0484 11.4337 21.2166 11.3496C21.1325 11.4757 20.9643 11.5177 20.8803 11.6438C21.0064 11.6859 21.0905 11.6018 21.2166 11.5598C21.1746 11.6859 20.9223 11.7699 20.9643 11.896C20.9223 11.9381 20.9223 11.9381 20.9223 11.9801C21.0064 11.9801 21.0064 12.0642 20.9643 12.1062C20.9643 12.1062 21.0064 12.1062 21.0484 12.1062C21.0484 12.1483 21.0064 12.1903 20.9643 12.2323C21.0064 12.2323 21.0905 12.2323 21.1325 12.1903C21.1325 12.2744 21.0064 12.3164 20.9643 12.4005C21.0484 12.4005 21.1746 12.3584 21.2586 12.3584C21.2166 12.4425 21.0905 12.5266 21.0064 12.5686C21.1325 12.5686 21.2586 12.4425 21.3848 12.4425C21.3427 12.4845 21.3007 12.4845 21.2586 12.5266C21.1746 12.6527 21.0484 12.7788 20.9223 12.9049C20.9643 12.9049 21.0484 12.9049 21.0905 12.9049C21.0905 12.9469 21.0484 12.989 21.0064 13.073C21.1325 13.1151 21.0064 13.1991 20.9223 13.2832C20.9223 13.2832 20.9643 13.2832 21.0064 13.2832C21.0064 13.3673 20.9223 13.4093 20.8803 13.4513C20.9223 13.4513 20.9643 13.4513 21.0064 13.4513C20.9643 13.4934 20.9223 13.5354 20.9223 13.5354C20.9643 13.5354 21.0484 13.5354 21.0905 13.4934C20.9223 13.6195 20.8382 13.7456 20.628 13.7876H20.67C20.586 13.7036 20.5439 13.5774 20.5439 13.4934C20.4178 12.7367 20.4598 11.9381 20.2496 11.2235Z" fill="#982EB3"/>
<path d="M18.6106 8.02896C19.6197 8.65948 20.2923 9.54222 20.6707 10.6772C20.8809 11.2236 21.3855 13.7878 20.4605 13.9139C19.8299 13.7037 19.1992 12.863 18.7788 12.1484C18.1482 11.1396 17.8539 10.2989 17.6016 9.12187C17.5596 8.86966 17.2233 7.98692 17.3914 7.77675C17.6437 7.39843 18.3164 7.81878 18.6106 8.02896Z" fill="#AB75F9"/>
<path d="M18.4409 8.28084C19.3659 8.86933 19.9545 9.71004 20.3328 10.7189C20.501 11.2233 21.0476 13.5773 20.2488 13.6193C19.7022 13.4091 19.1136 12.6525 18.6932 11.9799C18.1046 11.0552 17.8103 10.2565 17.558 9.24765C17.516 9.03747 17.2217 8.19677 17.3478 8.02863C17.6001 7.69235 18.1887 8.1127 18.4409 8.28084Z" fill="#C09FF2"/>
<path d="M18.5669 11.9381C18.0204 11.0974 17.7261 10.3408 17.5158 9.37399C17.4738 9.16381 17.1795 8.40717 17.3056 8.23903C17.5158 7.94479 18.0624 8.3231 18.3147 8.49125C19.1555 9.0377 19.7441 9.79433 20.1225 10.7611C20.2906 11.2235 20.7952 13.4094 20.0384 13.4934L20.0804 13.5355C19.5339 13.3253 18.9453 12.5687 18.5669 11.9381Z" fill="#DBCEF4"/>
<path d="M18.3995 11.98C17.853 11.1813 17.6007 10.4667 17.3905 9.54191C17.3485 9.33173 17.0542 8.61713 17.1803 8.44899C17.3905 8.15475 17.9371 8.53307 18.1473 8.70121C18.9461 9.24766 19.4926 9.96226 19.871 10.887C20.0392 11.3074 20.5017 13.4091 19.7869 13.4932L19.829 13.5353C19.2824 13.283 18.7359 12.5264 18.3995 11.98Z" fill="#DED8EF"/>
<path opacity="0.33" d="M18.3991 11.9803C17.8526 11.1816 17.6003 10.467 17.3901 9.54223C17.3481 9.33206 17.0538 8.61746 17.1799 8.44932C17.2219 8.40728 17.2219 8.40728 17.264 8.36525C17.264 8.32321 17.264 8.28118 17.306 8.23914C17.306 8.19711 17.3481 8.19711 17.3481 8.19711C17.3481 8.15508 17.3481 8.11304 17.3481 8.11304C17.3481 7.98694 17.3481 7.86083 17.3901 7.81879C17.4742 7.69268 17.6003 7.65065 17.7265 7.69269C17.7265 7.60862 17.7264 7.56658 17.7685 7.52455C17.8946 7.3564 18.1048 7.35641 18.315 7.44048C18.315 7.56658 18.1048 7.69268 18.1469 7.81879C18.1889 8.19711 18.6093 8.53339 18.8616 9.16392C19.282 10.0887 19.7024 12.4847 19.9547 13.1152C19.9967 13.4935 20.8376 12.6108 21.0898 13.2413C20.8376 13.1152 20.0388 13.7457 19.8286 13.4935L19.8706 13.5356C19.282 13.2834 18.7355 12.5267 18.3991 11.9803Z" fill="#842F97"/>
<path d="M18.1044 10.341L18.1465 10.2148C18.1465 10.2148 18.1465 10.2148 18.1465 10.2569C18.1465 10.2989 18.1044 10.341 18.1044 10.341Z" fill="#D87D2A"/>
<path d="M23.4029 14.0399C23.9494 14.1239 25.1266 14.6284 25.6311 15.0067C26.0095 15.3009 26.7663 16.3098 26.514 16.7722C25.8413 17.0664 24.2017 16.9823 23.4449 16.6881C22.3098 16.3098 21.4269 15.2589 20.2497 15.0487C20.2077 14.0399 22.6882 13.9138 23.4029 14.0399Z" fill="#FB5217"/>
<path opacity="0.45" d="M24.2858 15.1745C24.2437 15.1745 24.2437 15.1745 24.2017 15.1745C24.0756 15.0484 23.9074 14.9223 23.6972 14.8803C23.5711 14.8803 23.4449 14.8382 23.3188 14.8382C23.2768 14.8382 23.1927 14.8382 23.1927 14.8803C23.0665 14.8382 22.9404 14.7542 22.7722 14.7121C22.0996 14.544 21.3428 14.7542 20.8383 15.1745C20.6281 15.1325 20.4179 15.0905 20.2077 15.0484C20.2077 13.9975 22.6461 13.8714 23.4029 13.9975C23.9494 14.0816 25.1266 14.586 25.6311 14.9643C26.0095 15.2586 26.7663 16.2674 26.514 16.7298C26.1777 16.898 25.6311 16.7719 25.0846 16.6037C25.2528 16.3095 25.2527 15.8891 25.0425 15.6369C24.8323 15.3847 24.6221 15.2586 24.2858 15.1745Z" fill="#FF7D5A"/>
<path d="M23.4029 14.0395C23.9494 14.1235 25.1266 14.628 25.6311 15.0063C26.0095 15.3005 26.7663 16.3094 26.514 16.7717C26.3459 16.8558 26.1356 16.8558 25.9254 16.8138C25.547 14.9222 23.529 14.2917 21.6791 14.5859C21.2167 14.628 20.7122 14.7541 20.2917 14.9222C20.4599 14.0395 22.7302 13.9134 23.4029 14.0395Z" fill="#F74F0C"/>
<path opacity="0.58" d="M22.1412 14.8384C23.5286 15.0906 24.2013 15.553 25.5466 15.9313C26.1352 16.0994 26.2193 15.8892 26.3034 15.8892C26.4715 16.2255 26.5556 16.5198 26.4295 16.772C25.7568 17.0662 24.1592 16.814 23.4025 16.5198C22.2673 16.1415 21.3424 15.2587 20.2072 15.0485C20.2072 14.7543 20.4174 14.5441 20.7117 14.376C21.1322 14.6282 21.5946 14.7543 22.1412 14.8384Z" fill="#C4330B"/>
<path d="M29.3318 25.1369C29.2057 25.263 28.9114 25.4311 28.7852 25.5152C28.7432 25.5572 28.7852 25.7674 28.7011 25.8515C28.6171 25.9356 28.4068 25.8515 28.2807 25.8935C28.1546 25.9356 28.1546 26.1457 27.8183 26.3139C27.608 26.482 27.3978 26.482 27.1456 26.524C26.599 26.5661 26.2206 26.482 25.6741 26.3979C25.548 26.3979 25.4218 26.3559 25.2957 26.3559C24.8753 26.0617 24.4549 25.7254 24.1185 25.305C22.7732 23.7918 22.2266 21.9422 21.596 20.0927C21.8903 19.4621 22.563 18.8736 23.2356 19.1679C23.7401 19.3781 23.0675 19.1679 23.7822 19.0418C24.1606 18.9577 24.7492 19.4201 24.8332 18.9998C25.59 19.0418 26.0104 17.9489 26.7672 18.5794C26.6831 18.4533 26.7252 18.3272 26.6831 18.2011C27.0194 18.1591 27.3137 18.3272 27.6501 18.3272C27.9864 18.3272 28.1546 18.159 28.4068 18.117C29.0375 18.0329 29.4159 18.2852 29.3318 19.0418C30.1726 18.6635 31.0135 18.5794 30.8033 19.8405C30.7192 19.9245 30.2988 20.6812 30.2988 20.8493C30.2567 21.2696 30.5931 21.4798 30.4669 21.9422C30.4249 22.0683 30.1726 22.1524 30.1726 22.2785C30.1306 22.4887 30.2988 22.6148 30.2988 22.7829C30.2988 23.2873 30.1726 23.5816 29.6681 23.7077C29.7942 24.2542 29.7522 24.7165 29.3318 25.1369Z" fill="#E07706"/>
<path d="M27.6079 20.0506C27.6079 19.7143 27.9022 19.336 28.2806 19.4201C28.1544 19.5462 28.1544 19.7143 28.4908 19.9245C28.5328 19.8404 28.6169 19.7143 28.6169 19.6723C28.743 19.8404 28.8271 19.9665 28.8271 20.1767C29.0373 20.3028 29.2475 20.2187 29.3737 20.0086C29.4157 20.2187 29.4578 20.3869 29.3737 20.5971C29.4157 20.6391 29.668 20.7232 29.7521 20.7232C29.668 19.8404 30.1725 20.3869 30.5929 20.0506C30.5929 19.9665 30.5929 19.7984 30.5509 19.7564C30.677 20.0506 30.5088 20.4289 30.2566 20.6811V20.555C30.0463 21.2696 29.0373 21.3957 28.6169 20.7652C28.6169 21.1015 28.2806 21.1856 28.0283 21.3537C28.0704 21.4378 28.0283 21.5639 28.0704 21.6479C26.767 21.69 28.6169 19.6303 27.6079 20.0506Z" fill="#BB6508"/>
<path d="M28.0697 19.1259C28.322 18.9157 29.0788 18.9157 29.373 18.9998C29.2049 19.0418 28.5322 19.1679 28.322 19.3781C28.1959 19.3361 28.1538 19.21 28.0697 19.1259Z" fill="#BB6508"/>
<path d="M25.8419 21.4379C25.6738 22.1105 25.2954 21.564 25.0011 21.3538C24.7068 21.1437 24.3705 21.4379 24.2443 20.8494C24.0341 20.8914 23.6137 21.0596 23.4455 20.7653C23.2774 20.4711 23.6557 20.2189 23.7819 20.0507C24.3284 19.4202 23.1092 19.8406 23.7819 20.0507C23.908 20.0928 23.9921 20.1768 23.9921 20.2189C23.9921 20.2189 23.95 20.2189 23.95 20.2609H23.9921C23.9921 20.2609 23.9921 20.2609 23.9921 20.2189C24.1182 20.1348 24.2864 20.0928 24.4125 20.2609C23.95 20.6813 24.8329 20.7653 25.1272 20.5552C25.2954 20.6813 25.4215 20.9335 25.4636 21.1437C25.6738 21.0175 25.7579 20.7233 26.0522 20.8914C25.926 20.7653 25.926 20.5552 26.1362 20.6392C25.9681 20.429 26.2624 20.345 26.3465 20.1348C26.3885 20.0087 26.3044 19.9246 26.3465 19.8406C26.3885 19.7145 26.4726 19.7145 26.5146 19.5883C26.5987 19.2941 26.3465 19.21 26.3044 18.9578C26.3044 18.7897 26.4726 18.7476 26.5146 18.6636C26.5146 18.8738 26.6408 19.126 26.7669 19.2941C26.9771 19.5043 27.1032 19.4202 27.3555 19.4202C27.3134 19.6304 27.0612 19.7565 27.0612 19.9667C27.0612 20.2189 27.2293 20.387 27.4396 20.2609C27.6918 20.2609 28.0281 20.345 27.7759 20.5972C27.4816 20.8914 27.2714 20.5131 26.9771 20.5552C26.8089 20.5552 26.4305 20.7653 26.3465 20.8494C26.3044 20.8914 26.3465 21.0175 26.3044 21.0596C26.2624 21.1016 26.1362 21.1016 26.1362 21.1437C26.0522 21.2277 25.926 21.2277 26.0101 21.4379C25.926 21.4379 25.884 21.4379 25.8419 21.4379Z" fill="#BB6508"/>
<path d="M27.5234 20.1768C27.4814 20.2188 27.4814 20.2188 27.4394 20.2608C27.3973 20.2608 27.3973 20.2608 27.3553 20.2608C27.3973 20.2608 27.4394 20.2188 27.5234 20.1768Z" fill="#BB6508"/>
<path d="M23.9511 20.3028C23.9511 20.261 23.9511 20.261 23.9511 20.3028C23.9929 20.261 23.9929 20.261 23.9511 20.3028Z" fill="#BB6508"/>
<path d="M27.7336 22.783C27.8597 22.6569 27.9438 22.2786 27.8597 22.0684C27.8597 22.0684 27.8597 22.1104 27.9018 22.1104C27.9018 22.0684 27.8597 22.0263 27.8597 21.9843C28.0699 21.9002 28.3222 22.1104 28.3222 22.3206C28.3222 22.4047 28.1961 22.4887 28.154 22.6148C28.154 22.6569 28.2381 22.867 28.2381 22.9091C28.1961 22.9091 28.1961 22.9511 28.154 22.9511C28.1961 23.1193 28.4904 23.3294 28.7006 23.3294C28.9949 23.3294 28.9949 22.9931 29.2051 22.9091C29.4153 22.867 29.5835 23.0772 29.8357 22.9511C30.0039 22.867 30.172 22.6569 30.088 22.4887L30.13 22.5308C30.4243 22.5308 30.2141 23.2033 30.088 23.4135C29.8357 23.7918 29.4573 23.3294 29.2892 23.7498C29.0789 23.7918 28.9949 23.6237 28.7426 23.6237C28.5324 23.6237 28.154 23.9179 27.9438 23.7498C27.6915 23.5816 28.3642 22.7409 27.7336 22.783Z" fill="#BB6508"/>
<path d="M30.0879 19.3782H29.9618C30.0038 19.3362 30.0458 19.3362 30.0879 19.3782Z" fill="#BB6508"/>
<path d="M29.625 19.7563C29.583 19.7984 29.5409 19.7984 29.4989 19.7984C29.4989 19.7984 29.4989 19.7984 29.4568 19.7984C29.4989 19.7984 29.5409 19.7563 29.625 19.7563Z" fill="#BB6508"/>
<path d="M30.2986 19.7563C30.1304 19.8824 29.9202 19.7563 29.752 19.6722C29.6679 19.7563 29.5418 19.8404 29.4577 19.8404C29.4998 19.8404 29.5418 19.7983 29.5839 19.7983C29.4998 19.7983 29.4998 19.8404 29.4157 19.8404C29.4157 19.8404 29.4157 19.8404 29.4577 19.8404C29.3316 19.8824 29.1634 19.8404 29.0373 19.7563C29.1634 19.5461 29.6679 19.2939 29.8361 19.5882C29.7941 19.5041 29.8361 19.378 29.9202 19.378H30.0463C30.0043 19.336 29.9622 19.336 29.9202 19.378H29.8361C29.9622 19.2939 30.0884 19.2939 30.2145 19.378V19.42C30.4247 19.4621 30.4667 19.6302 30.2986 19.7563Z" fill="#BB6508"/>
<path d="M27.8178 18.8316C27.7757 18.7475 27.8178 18.6635 27.7757 18.6214C27.8178 18.6214 27.8598 18.6214 27.9018 18.6214C27.8598 18.6214 27.8598 18.6634 27.8178 18.6634L27.9018 18.6214C28.028 18.5794 28.1961 18.6214 28.3223 18.6634C28.07 18.7896 27.7757 18.8736 27.8598 19.0838C27.8178 18.9997 27.9439 19.5042 27.6075 19.4621C27.6496 19.5882 27.6075 19.4621 27.6496 19.6303C27.4394 19.5462 27.5235 19.294 27.4394 19.0838C27.3553 18.7475 27.3132 18.8736 27.019 18.7475C27.061 18.7055 27.1451 18.6634 27.2712 18.6634C27.3973 18.7055 27.6075 18.7896 27.8178 18.8316Z" fill="#BB6508"/>
<path d="M27.8183 18.6636C27.8603 18.6636 27.8603 18.6216 27.9023 18.6216L27.8183 18.6636Z" fill="#BB6508"/>
<path d="M26.9765 18.7896C26.9765 18.8316 27.0605 18.8316 27.0605 18.8736C26.9344 18.8736 26.9344 18.8316 26.9765 18.7896Z" fill="#BB6508"/>
<path d="M25.8417 19.084C25.8837 19.042 25.8837 19.042 25.9258 19.042L25.8417 19.084Z" fill="#BB6508"/>
<path d="M24.412 20.0509C24.2858 20.0929 24.2858 20.0929 24.2017 19.9668C24.454 19.9668 24.496 19.9668 24.7062 19.8407C24.7903 19.7987 25.2108 19.3363 25.1267 19.7566C25.1687 19.7146 25.2528 19.6726 25.3369 19.6305C25.3789 19.5044 25.421 19.4204 25.463 19.2522C25.6312 19.2102 25.7573 19.2942 25.8414 19.4204C25.8834 19.2942 25.8414 19.1261 25.7994 19.042H25.8414V19.0841L25.9255 19.042H25.8834C25.8834 19.042 25.8834 19 25.9255 19C26.0516 19.042 26.1777 19.1261 26.1777 19.2943C26.1357 19.2943 26.0936 19.2943 26.0516 19.2943C26.0936 19.4624 26.1357 19.6726 26.1777 19.7987C25.9255 19.7566 25.6312 19.5885 25.3369 19.6305C25.2948 19.8407 25.5051 20.0088 25.5051 20.219C25.3369 20.3031 24.8744 20.2611 25.1687 20.0088C25.0426 20.0509 24.8744 20.0509 24.7483 20.0509C24.7483 20.0929 24.7903 20.1349 24.7903 20.177C24.6642 20.219 24.496 20.1349 24.412 20.0509Z" fill="#BB6508"/>
<path d="M23.3202 22.1945C23.3202 22.1525 23.3623 22.1104 23.4043 22.0684C23.4043 22.1104 23.3623 22.1525 23.3202 22.1945Z" fill="#BB6508"/>
<path d="M22.6056 22.2365C22.2272 22.1104 22.1431 21.732 22.059 21.3958C21.7227 21.3117 21.3443 20.6812 21.8908 20.5971C21.8908 20.3028 21.8068 20.1347 22.1431 20.1347C21.9749 19.8825 22.3953 19.7984 22.5635 19.7984L22.4794 19.7144C22.6476 19.6723 22.8999 19.6303 22.9839 19.7984C22.9839 19.7984 22.9419 19.8405 22.8999 19.8405C22.8999 20.1347 22.9419 20.471 23.2782 20.2608C23.2362 20.3449 23.2782 20.5551 23.2362 20.6391C23.1521 20.7652 22.8999 20.7652 22.8999 20.9334C22.8578 21.1856 23.2782 21.4378 23.4884 21.3537C23.3623 21.8161 23.6987 21.5639 23.9509 21.5639C24.4134 21.5639 24.035 21.8161 24.3293 21.9843C24.8338 22.3205 25.3383 21.3958 25.4644 22.3626C25.5906 22.3626 25.6747 22.3626 25.8008 22.3205C25.8008 22.3626 25.8008 22.4887 25.7587 22.5307C25.5485 22.5307 25.2963 22.2785 25.044 22.1944C24.7918 22.1104 24.5395 22.1104 24.3293 22.1524C24.4554 22.6568 24.035 22.2785 23.8668 22.1944C23.6566 22.0683 23.4464 22.1104 23.2362 22.2785C23.2362 22.2365 23.2782 22.2365 23.2782 22.1944C23.3203 22.1524 23.3623 22.1524 23.3623 22.0683C23.3203 22.1104 23.2782 22.1524 23.2782 22.1944C23.1521 22.3205 22.7737 22.2785 22.6056 22.2365Z" fill="#BB6508"/>
<path d="M27.6504 22.9089C27.5663 23.2451 27.23 23.077 26.9777 23.077C26.9357 23.7075 26.8516 23.6655 26.305 23.5394C26.0528 23.4973 26.0528 23.5394 25.8426 23.3712C25.7164 23.2451 25.5483 23.119 25.4221 22.9509C24.9176 23.2872 24.6654 22.7828 24.4972 22.4044C24.5392 22.4465 24.5813 22.4885 24.6233 22.5305C24.6654 22.3204 24.9176 22.3204 25.0858 22.3624C25.1278 22.9089 25.5483 22.4465 25.8005 22.7407C25.9267 22.6566 26.0107 22.7827 26.0528 22.9089C26.263 22.6566 26.5993 22.8668 26.5573 22.4044C26.7675 22.4044 26.9357 22.5726 27.1459 22.5726C27.1879 22.2783 27.1038 21.9421 26.7675 21.816C26.8516 21.7319 27.0198 21.6898 27.1038 21.6058C27.0198 21.5217 26.9777 21.4376 26.9357 21.3536C27.0618 21.3115 27.23 21.3115 27.3561 21.3115L27.1459 21.3536C27.1038 21.3536 27.0618 21.3536 27.0198 21.3536H27.1459C27.5663 21.3536 27.0618 22.0261 27.6504 22.1943C27.6083 22.2783 27.4822 22.4044 27.4822 22.4885C27.5243 22.6566 27.6504 22.7827 27.6504 22.9089Z" fill="#BB6508"/>
<path d="M25.2958 24.5485C25.2118 24.4644 25.0856 24.2122 24.9595 24.0441C24.8334 23.8759 24.7072 23.7078 24.7493 23.4556C24.9175 23.4976 25.7163 24.3383 25.6742 23.7498C25.8424 23.8759 25.9685 24.1281 26.1787 24.2963C26.3049 24.4224 26.5151 24.5064 26.6412 24.6325C26.8935 24.9268 26.6412 25.3051 27.0616 25.4312C27.0616 25.4312 27.1878 25.3892 27.2298 25.3892C27.3139 25.3892 27.3559 25.4732 27.44 25.4732C27.6923 25.4732 27.6502 25.3892 27.8604 25.221C28.1127 24.9688 28.449 24.8427 28.5751 25.3051C28.6172 25.3051 28.6592 25.2631 28.7013 25.221C28.5751 25.137 28.5751 25.0109 28.6172 24.8427C28.8694 24.9268 29.2899 24.6325 29.416 24.4224C29.458 24.3383 29.416 23.9179 29.6683 24.2122C29.7523 24.3383 29.7103 24.5905 29.6683 24.7166C29.5001 24.8427 29.2899 24.7587 29.1217 24.8427C28.9956 24.9268 28.9956 25.2631 29.0376 25.3892C28.8694 25.3892 28.6172 25.4732 28.7013 25.6414C28.3229 25.5573 28.407 25.5153 28.1127 25.6834C27.9445 25.7675 27.6502 25.9777 27.398 25.9777C27.1457 25.9356 27.1037 25.7255 26.8935 25.5994C26.6832 25.4733 26.431 25.3471 26.1367 25.3051C26.0526 25.3051 25.7583 25.3471 25.7163 25.3051C25.5901 25.179 25.7163 25.137 25.7163 25.0109C25.5901 24.7586 25.464 24.7587 25.2958 24.5485Z" fill="#BB6508"/>
<path d="M23.6552 22.4889C23.8654 22.5309 24.1176 22.699 24.0756 22.9092C24.3278 23.1194 24.496 23.0353 24.7062 22.8252C24.7483 22.9513 24.8324 23.1194 24.9585 23.2035C25.1267 23.2875 25.3789 23.1194 25.3789 23.3296C24.9164 23.2875 24.454 23.2875 24.0336 23.1614C24.0756 23.5397 23.5711 23.2455 23.4029 23.1614C23.1086 23.0353 22.8984 22.9092 23.1927 22.615L23.0245 22.7831C23.1927 22.615 23.2768 22.4048 23.6552 22.4889Z" fill="#BB6508"/>
<path d="M28.5751 22.1103C28.5751 21.9421 28.491 21.816 28.4069 21.774C28.6592 21.732 28.7012 21.4798 28.7012 21.2275C28.8273 21.2696 28.9535 21.3116 29.0796 21.3537C28.9114 21.6479 29.2057 22.1523 29.5 21.8581C29.7523 22.1103 29.8364 21.6479 29.9625 21.4798C30.0886 21.5218 30.1727 21.6479 30.2147 21.732V21.816C30.2568 21.816 30.2988 21.774 30.2988 21.774C30.2988 21.8581 30.2568 21.9421 30.2568 21.9842C30.1307 21.9001 29.8784 21.9001 29.8784 22.1103C29.7943 22.0262 29.7523 22.0682 29.6262 22.0682C29.5841 22.2784 28.9535 22.6147 28.7853 22.4045C28.7012 22.3205 28.8694 22.0682 28.7853 21.9421C28.7012 21.8581 28.6171 21.9842 28.5751 22.1103Z" fill="#BB6508"/>
<path d="M26.0936 21.9845C26.0936 21.9845 26.0516 22.0265 26.0095 22.0265C26.2618 22.4049 26.6402 21.6062 26.3038 21.354C26.3879 21.2699 26.5561 21.1438 26.7243 21.1018C26.7243 21.0597 26.6822 21.0177 26.6822 20.9757C26.8924 20.8075 27.0186 21.0177 26.7663 21.1438C26.8083 21.1858 26.8083 21.2699 26.8083 21.2279L26.7243 21.3119C26.472 21.5641 26.7243 21.6062 26.6402 21.9004C26.5981 22.1106 26.3459 22.1106 26.43 22.4049C26.2197 22.4049 25.7152 22.0686 26.0936 21.9845Z" fill="#BB6508"/>
<path d="M26.7679 23.8337C26.9781 23.8337 27.1883 23.4554 27.3985 23.4974C27.6507 23.5394 28.0712 24.7584 28.4075 23.9598C28.5336 23.7916 28.87 23.5815 29.0802 24.0018C29.2063 24.0859 28.7859 24.0439 28.6598 24.4222C28.5757 24.6744 28.2814 24.3381 28.0291 24.3801C27.7769 24.4222 27.8189 24.5903 27.5246 24.4642C27.3144 24.3801 27.2724 24.0859 27.0201 24.0859C26.8099 24.8005 26.5576 24.4222 26.2633 24.0018C26.2213 24.0018 26.2213 24.0018 26.1793 24.0439C26.0952 23.9177 26.0531 23.7496 26.0952 23.5815C26.3895 23.5394 26.5156 23.8337 26.7679 23.8337Z" fill="#BB6508"/>
<path d="M25.5907 25.431C25.5907 25.5151 25.6327 25.6412 25.6748 25.7253C25.885 25.6832 26.2634 25.6412 26.4315 25.8514C26.7258 25.473 27.1883 26.1456 26.7258 26.3137C26.4736 26.3978 25.9691 26.1876 25.7168 26.1456C25.5066 26.1036 25.3384 26.1456 25.1282 26.1456C24.6658 26.1456 24.2874 26.1036 24.1192 25.5571C24.0772 25.389 24.1192 25.0947 23.9931 24.9266C23.909 24.7584 23.909 24.8425 23.7408 24.7585C23.5727 24.6744 23.3204 24.6744 23.4045 24.4222L23.4886 24.3381C23.4886 23.7916 24.4976 23.8337 24.3715 24.1279C24.5817 24.0018 24.7919 24.254 24.6658 24.4642C24.9601 24.0859 24.8339 24.8846 24.876 24.9686C25.0021 25.3049 25.3384 25.431 25.5907 25.431Z" fill="#BB6508"/>
<path d="M23.2363 14.5019C23.6988 13.7032 24.9601 14.9643 25.1703 15.2585C25.2544 14.8382 25.5066 14.628 25.8429 15.0063C25.6748 14.712 25.3805 14.5019 25.7589 14.2076C25.9691 13.9554 26.4315 13.9974 26.3475 14.3758C26.5156 14.7961 26.5997 15.0904 26.852 14.8382C26.9781 14.712 27.1042 14.3337 27.3144 14.2917C27.5667 14.2497 27.6928 14.9222 27.9871 14.8382C28.7439 14.5439 28.2814 13.5771 29.4166 13.9134C29.5847 13.9554 29.9211 14.1236 30.0051 14.2917C30.2154 14.7541 29.7949 14.8802 29.5427 15.1744C28.912 15.889 29.0802 16.5616 29.2063 17.3603C29.3745 17.2342 29.6688 16.9399 29.9211 17.024C30.1733 17.1081 30.2574 17.4864 30.1733 17.6965C31.3925 17.1921 32.5697 19.2518 31.5607 19.2518C31.7709 19.42 32.5697 20.0925 32.4436 20.4288C32.2334 20.9753 31.5607 20.0926 31.3925 19.9244C30.804 19.378 29.9631 19.0837 29.1643 19.2098C28.87 19.2518 28.6598 19.42 28.9541 19.8824C29.1223 20.1766 29.2484 20.0085 29.5427 20.2607C29.837 20.5129 29.837 21.0173 29.4166 21.1014C28.7439 21.2275 29.0382 20.681 28.5337 21.3116C28.3655 21.5217 28.4496 21.816 28.1132 21.6478C27.9871 21.5638 27.903 21.1434 27.903 20.9753C27.6087 21.4797 27.0201 21.2695 26.5997 21.0594C26.6838 21.2275 26.6838 21.3536 26.6838 21.5217C26.3895 21.2695 26.0952 20.8912 25.8429 20.5549C25.3805 21.1855 24.8339 20.2607 24.7498 19.8403C24.1192 20.1346 23.8249 19.2939 23.7408 18.8735C22.8579 18.9576 23.1943 17.6965 23.6567 17.3603C24.1192 17.024 25.1703 17.2762 24.5817 16.3935C24.3715 15.9311 22.942 14.9643 23.2363 14.5019Z" fill="#2AAD09"/>
<path d="M26.7246 16.856C26.5985 16.9821 26.3883 16.9821 26.2621 16.856C26.3462 16.6037 26.5144 16.4776 26.7246 16.856Z" fill="#53BB13"/>
<path d="M27.4822 16.9401C27.5243 16.8981 27.5663 16.856 27.6083 16.814C27.6083 16.814 27.6083 16.814 27.6504 16.814L27.4822 16.9401Z" fill="#53BB13"/>
<path d="M26.6405 16.0996C27.0189 16.3939 27.1451 16.8562 27.6075 16.8142C27.5655 16.8562 27.5234 16.8983 27.4814 16.9403L27.6496 16.8142C27.6496 16.8142 27.6496 16.8142 27.6075 16.8142C28.07 16.4779 28.9949 15.8474 28.5745 16.6881C28.3643 17.1085 27.8598 17.1085 28.1961 17.5708C28.3643 17.781 28.8268 17.8651 29.079 17.8651C28.9949 18.0753 29.1211 18.0332 28.8688 18.1593C29.2892 18.3275 29.9199 18.0332 30.3823 18.2434C30.8448 18.4536 30.7187 19 30.1721 19C29.6676 19 29.037 18.3275 28.4904 18.2434C27.6496 18.0753 28.112 18.916 27.5655 18.916C27.6075 19.2943 27.4394 19.9248 27.061 19.4204C26.8087 19.0841 27.061 18.0753 27.3132 17.781C27.061 18.0332 26.6826 17.823 26.5565 17.5288C26.1781 17.9071 26.136 17.2346 26.2622 16.8562C26.3883 16.9823 26.5985 16.9823 26.7246 16.8562C26.5144 16.52 26.3463 16.604 26.2622 16.8562C26.2201 16.8142 26.1781 16.6881 26.1781 16.604C26.1781 16.3098 26.4724 16.2257 26.6405 16.0996Z" fill="#53BB13"/>
<path d="M30.0467 22.615H30.0047C29.8365 22.4889 29.5002 22.6991 29.332 22.7831C29.2059 22.8672 29.1218 22.8252 28.9957 22.8252C28.8696 22.8252 28.7855 22.9093 28.6593 22.8672C28.5332 22.8252 28.5332 22.657 28.6593 22.573C28.7855 22.4889 28.8696 22.6991 28.9536 22.6991C29.1218 22.7411 29.4161 22.5309 29.5422 22.4469C29.6263 22.4048 29.7524 22.3628 29.8786 22.3628C29.9206 22.4048 30.1308 22.4469 30.0467 22.615C30.0047 22.573 30.0467 22.573 30.0467 22.615Z" fill="#E67D14"/>
<path d="M29.457 21.1856C29.415 21.1856 29.415 21.1436 29.415 21.1436L29.457 21.1856Z" fill="#E67D14"/>
<path d="M30.046 21.1856C30.2141 21.4378 29.6255 21.3537 29.6255 21.6059C29.4994 21.5639 29.1631 21.3537 29.2051 21.1856C29.2892 21.1856 29.3312 21.1435 29.4153 21.1435C29.6255 21.3537 29.9198 20.9754 30.046 21.1856Z" fill="#E67D14"/>
<path d="M24.4124 21.3115C24.5386 21.4377 24.5386 21.3956 24.7067 21.3956C24.8329 21.3956 24.959 21.4377 24.959 21.5638C24.959 21.6058 24.7067 21.6899 24.6647 21.6899C24.4545 21.6899 24.3284 21.4377 24.1602 21.3115C24.0341 21.2695 23.95 21.2275 23.8238 21.1854C23.7398 21.1854 23.5295 21.1434 23.6977 21.0173C23.8659 20.9332 24.2863 21.1854 24.4124 21.3115Z" fill="#E67D14"/>
<path d="M27.3134 24.5063C27.3555 24.5484 27.3555 24.5484 27.3555 24.5904L27.3134 24.5063Z" fill="#E67D14"/>
<path d="M27.3131 24.5486C27.3131 24.5065 27.3131 24.5065 27.3131 24.5486L27.3552 24.5906C27.3552 24.5485 27.3552 24.5486 27.3131 24.5486C27.4813 24.7167 27.6495 24.6747 27.9017 24.6326C28.0279 24.5906 28.4062 24.5486 28.4062 24.7587C28.2801 24.8428 28.112 24.7587 27.9438 24.7587C27.8597 24.7587 27.8177 24.7587 27.7756 24.8428C27.7336 24.8848 27.6915 25.0109 27.6495 25.0109C27.6074 25.053 27.4393 25.0109 27.3972 24.9689C27.2711 24.9269 27.3131 24.8428 27.2291 24.7587C27.145 24.6326 26.8927 24.7167 26.7666 24.8008C26.7666 24.4645 27.187 24.3384 27.3131 24.5486Z" fill="#E67D14"/>
<path d="M20.5863 13.1151C20.3761 13.1992 20.208 12.989 20.0398 12.8629C20.1239 12.5266 20.25 12.3585 20.3761 12.0643C20.4602 11.8541 20.8386 11.2235 21.259 11.5178C21.3011 11.6439 20.8386 11.9802 20.7966 12.1063C20.7125 12.3165 20.7125 12.4846 20.7125 12.6948C20.7125 12.7789 20.7125 12.8629 20.7125 12.947C20.7125 13.0731 20.7125 13.0731 20.5863 13.1151Z" fill="#39A712"/>
<path d="M22.5626 12.5265C23.1092 12.9889 20.8809 13.2831 20.5025 13.115C20.4605 12.7366 20.5446 11.7698 20.923 11.5597C21.4695 11.3074 22.0581 12.022 22.5626 12.5265Z" fill="#E1FB76"/>
<path d="M25.969 11.9381C26.0952 12.0642 26.2213 12.1482 26.3474 12.2323C26.4315 12.2743 26.4735 12.2743 26.5576 12.3164C26.6838 12.3584 26.6417 12.4004 26.6417 12.4845C26.6417 12.6527 26.4315 12.7367 26.2633 12.7788C26.0531 12.5686 25.969 12.4425 25.8009 12.2323C25.6747 12.0642 25.3384 11.5597 25.7168 11.3916C25.8009 11.3916 25.8849 11.854 25.969 11.9381Z" fill="#39A712"/>
<path d="M26.5997 12.5264C26.3054 12.4423 25.5907 11.9799 25.5907 11.6436C25.5907 11.1392 26.3474 10.9711 26.894 10.7609C27.4405 10.5087 26.852 12.3162 26.5997 12.5264Z" fill="#FFFC76"/>
<path d="M22.3108 13.1573C22.437 13.2834 22.5631 13.3675 22.6892 13.4515C22.7733 13.4936 22.8153 13.4936 22.8994 13.5356C23.0256 13.5776 22.9835 13.6197 22.9835 13.7038C22.9835 13.8719 22.7733 13.956 22.6051 13.998C22.3949 13.7878 22.3108 13.6617 22.1427 13.4515C22.0165 13.2834 21.6802 12.779 22.0586 12.6108C22.1427 12.6108 22.2267 13.0732 22.3108 13.1573Z" fill="#39A712"/>
<path d="M22.9415 13.7456C22.6472 13.6615 21.9325 13.1991 21.9325 12.8629C21.9325 12.3584 22.6892 12.1903 23.2358 11.9801C23.7823 11.7279 23.1938 13.5354 22.9415 13.7456Z" fill="#FFFC76"/>
<path d="M23.5713 15.9733C23.4451 15.8052 22.7304 16.2255 22.6884 16.1835C22.352 15.7631 22.8145 15.0906 23.319 14.8383C24.1178 14.46 25.253 15.3007 26.0097 15.2587C26.7665 15.2167 27.8596 14.7963 28.3641 15.637C28.9947 14.9224 30.9707 15.3848 30.0038 16.7299C29.6674 17.1923 30.0038 16.7299 29.6674 17.1503C29.247 17.6547 29.6674 18.3273 29.3311 18.7896C28.9947 19.252 28.5323 18.9998 28.4061 19.7565C28.28 20.3449 28.6584 20.9334 28.7425 21.4799C28.8686 22.2786 28.8266 23.1193 27.7755 23.2874C26.5142 23.3715 27.229 22.741 25.9677 21.9423C24.4542 22.783 23.9917 20.7233 24.286 19.5463C23.8656 18.5795 23.9496 17.4866 23.6974 16.5198C23.6974 16.3936 23.6974 16.1414 23.5713 15.9733Z" fill="#FFEB83"/>
<path d="M23.571 15.9732C23.4449 15.8051 22.7302 16.2255 22.6882 16.1834C22.3939 15.8051 22.7302 15.1746 23.1927 14.9224C23.2347 15.1325 23.3188 15.3007 23.487 15.4688C23.8653 15.9312 24.5801 16.4777 24.6641 17.1082C24.7482 17.6546 24.7482 18.2852 24.6641 18.8316C24.496 19.9245 24.7482 21.3117 26.1777 21.2697C26.6822 21.2697 26.8924 21.8582 27.523 22.0263C27.6071 22.0263 27.6912 22.0683 27.7753 22.0683C27.9014 21.9843 27.9855 21.8582 28.1116 21.69C28.448 21.1436 28.3639 20.513 28.1116 19.9666C27.9855 19.6723 28.1116 19.3361 28.2377 19.0418C28.7423 18.8316 29.0786 18.4113 29.1206 17.7808C29.1206 17.5706 29.0786 17.4024 29.0366 17.1923C29.2468 16.94 29.4149 16.6458 29.499 16.3516C29.5831 16.0153 29.5831 15.637 29.499 15.3007C30.1297 15.3847 30.6342 15.8892 30.0456 16.7299C29.7092 17.1923 30.0456 16.7299 29.7092 17.1502C29.2888 17.6547 29.7092 18.3272 29.3729 18.7896C29.0366 19.252 28.5741 18.9998 28.448 19.7564C28.3218 20.3449 28.7002 20.9334 28.7843 21.4798C28.8263 21.606 28.8263 21.7741 28.8263 21.9002C28.8263 21.9422 28.8263 21.9422 28.8263 21.9843C28.8263 22.0263 28.8263 22.0263 28.8263 22.0683C28.8263 22.1104 28.8263 22.1104 28.8263 22.1524C28.8263 22.1944 28.8263 22.1945 28.8263 22.2365C28.8263 22.2785 28.8263 22.2785 28.8263 22.3205C28.8263 22.3626 28.8263 22.3626 28.8263 22.4046V22.4467C28.8263 22.4887 28.8263 22.5307 28.8263 22.5307V22.5728C28.8263 22.6148 28.8263 22.6148 28.7843 22.6568V22.6989C28.7843 22.7409 28.7843 22.7409 28.7423 22.7829C28.7423 22.7829 28.7423 22.825 28.7002 22.825C28.7002 22.867 28.6582 22.867 28.6582 22.909C28.6582 22.909 28.6582 22.9511 28.6161 22.9511C28.6161 22.9931 28.5741 22.9931 28.5741 23.0352C28.5741 23.0352 28.5741 23.0352 28.532 23.0772C28.49 23.1192 28.49 23.1192 28.448 23.1613C28.448 23.1613 28.448 23.1613 28.4059 23.1613C28.3639 23.1613 28.3639 23.2033 28.3218 23.2033C28.3218 23.2033 28.2798 23.2033 28.2798 23.2453C28.2377 23.2453 28.2377 23.2874 28.1957 23.2874H28.1537C28.1116 23.2874 28.0696 23.3294 28.0696 23.3294H28.0275C27.9855 23.3294 27.9014 23.3714 27.8594 23.3714C27.7753 23.3714 27.7332 23.3714 27.6492 23.3714H27.6071C27.5651 23.3714 27.523 23.3714 27.481 23.3714H27.4389C27.3969 23.3714 27.3969 23.3714 27.3549 23.3714H27.3128C27.2708 23.3714 27.2708 23.3714 27.2287 23.3294C27.1867 23.3294 27.1867 23.2874 27.1446 23.2874L27.1026 23.2453L27.0606 23.2033C27.0185 23.1192 26.9344 22.9931 26.8924 22.867V22.825C26.8924 22.7829 26.8503 22.7829 26.8503 22.7409L26.8083 22.6989L26.7663 22.6568L26.7242 22.6148L26.6822 22.5728C26.556 22.4467 26.3879 22.3206 26.1777 22.1524C24.6641 22.9931 24.2017 20.9334 24.496 19.7564C24.0755 18.7896 24.1596 17.6967 23.9074 16.7299C23.6972 16.3936 23.6972 16.1414 23.571 15.9732Z" fill="#FCE56A"/>
<path d="M20.2925 18.2851C20.1244 17.9908 20.0823 17.6546 19.8721 17.4024C19.7039 17.1922 19.4096 17.1081 19.3255 16.8139C19.1574 16.3515 19.9982 15.0064 19.4096 14.9223L19.3255 14.544C19.3255 13.7873 19.746 13.2829 20.4607 13.1148C21.0913 12.9887 21.6379 12.9466 21.5538 13.6192C21.5117 13.9134 21.2175 13.9555 21.2595 14.3338C21.2595 14.586 21.4277 14.8802 21.6379 15.0484C22.2265 15.5108 22.3946 15.1325 22.8151 14.7121C22.8571 15.0904 22.9412 15.5528 23.1514 15.8471C23.4037 15.6789 24.1604 15.3006 24.4547 15.4687C24.7911 15.6789 24.8331 16.2674 24.4968 16.4776C24.4127 16.4776 24.3286 16.5196 24.2865 16.5617C24.3706 16.5617 24.4547 16.5196 24.4968 16.4776C25.0854 16.3515 25.5478 16.6037 25.2956 17.2342C26.2205 17.4024 25.0013 17.9488 24.9592 18.159C24.8751 18.7054 26.0103 18.9577 26.3887 18.8316C26.0944 19.9665 24.4968 20.1346 23.782 19.378C23.8241 19.7984 23.9923 20.1767 23.5298 20.1767C23.0673 20.1767 22.6049 19.378 22.4787 18.9997C22.6889 20.0085 22.3106 20.3869 21.5538 19.6302C21.5538 20.0926 21.1334 21.2696 20.7129 20.555C20.4186 20.0926 20.9652 19.7143 20.8811 19.2939C20.8391 18.9997 20.4607 18.6214 20.2925 18.2851Z" fill="#53BB13"/>
<path d="M24.4551 16.5195C24.413 16.5616 24.329 16.6036 24.2449 16.6036C24.329 16.5616 24.371 16.5195 24.4551 16.5195Z" fill="#53BB13"/>
<path d="M19.4938 17.9911C19.4097 17.2765 20.3767 16.2676 19.9562 15.7212C20.3767 15.6791 20.2926 15.1747 20.2926 14.7964C21.3016 15.0486 21.6379 15.4689 21.4277 16.4358C21.5539 16.3097 21.8902 16.1835 22.0163 16.0154C22.3947 16.2676 22.2265 16.6039 21.9322 16.8561C22.2265 16.8141 22.3947 16.73 22.6049 16.5198C22.689 16.772 22.9413 16.8981 23.1094 17.0243C23.3617 16.772 23.698 15.7212 24.1184 16.2256C24.5389 16.73 23.5298 17.0663 23.7821 17.6127C23.9923 17.4866 24.1184 17.5287 24.2025 17.1924C24.4548 17.2344 24.5809 17.3185 24.707 17.6127C23.9082 17.8229 23.1515 18.1592 22.2686 18.1592C21.722 18.1592 20.2085 17.9911 20.1665 18.8738C19.8301 18.7057 19.5358 18.3273 19.4938 17.9911Z" fill="#2AAD09"/>
<path d="M22.1005 18.6637C21.3858 18.6216 20.9233 19.2522 20.2086 19.084C20.2086 19 20.2086 18.9579 20.2086 18.8739C20.587 19.084 21.0074 19.084 21.2597 18.7477L21.0915 18.8318C22.1425 17.9911 23.4038 18.4115 24.581 18.7477C24.4549 18.8738 24.2867 18.9159 24.1185 18.9159C23.9083 18.8318 23.6561 18.7898 23.4038 18.7477C23.614 18.8738 23.8663 18.9579 24.1185 18.9159C24.2867 19 24.4969 19.084 24.623 19.2522C24.2867 19.5885 23.8242 19.2942 23.4038 19.2522C23.4038 19.2522 23.572 19.2942 23.6561 19.3362C22.9834 19.2101 22.7732 18.7057 22.1005 18.6637Z" fill="#2AAD09"/>
<path d="M23.3615 18.7476C23.6137 18.7895 23.8239 18.8315 24.0762 18.9155C23.8239 18.9575 23.5296 18.8735 23.3615 18.7476Z" fill="#2AAD09"/>
<path d="M19.0735 10.1723C19.6201 11.7276 19.7462 13.3249 20.2507 14.9223C20.7552 16.4776 21.3859 18.0329 22.0165 19.5882C22.6892 21.2275 24.5391 27.2806 27.8184 26.3138C27.5241 27.0284 24.9595 27.0704 23.9505 26.9443C17.6441 26.2297 11.4639 24.212 5.53588 21.732C4.19053 21.1855 2.59291 20.9333 1.45777 19.9244C0.154455 18.7475 0.448748 17.1081 0.448748 15.4267C0.448748 11.7696 1.24756 9.20547 3.43376 6.30505C5.40975 3.7409 9.69808 2.77409 12.8092 3.57276C15.6681 4.37143 18.1066 7.39796 19.0735 10.1723Z" fill="#FFC728"/>
<path d="M8.51986 19.8405C10.4959 20.8073 12.5559 21.564 14.7001 22.3206C16.3398 22.9091 19.0305 23.4135 20.4179 21.7741C21.8053 20.0927 21.3428 18.7056 20.7963 16.814C20.6701 16.3096 20.502 15.8472 20.4179 15.3428C20.8803 16.772 21.4689 18.2011 22.0575 19.5883C22.7302 21.2277 24.5801 27.2807 27.8594 26.3139C27.5651 27.0285 25.0005 27.0706 23.9915 26.9445C17.6851 26.2299 11.5049 24.2122 5.57689 21.7321C4.23154 21.1856 2.63393 20.9334 1.49878 19.9246C0.195467 18.7476 0.489767 17.1082 0.489767 15.4268C0.489767 12.5684 0.952229 10.3826 2.2135 8.19678C1.70899 10.7189 2.25555 13.4091 3.55886 15.595C4.69401 17.6127 6.45979 18.8317 8.51986 19.8405Z" fill="#FFC228"/>
<path d="M2.3827 18.7894C3.26559 19.2097 4.23257 19.462 5.11546 19.8403C6.29264 20.3027 7.46983 20.8071 8.68906 21.2695C9.65604 21.6057 10.623 21.9 11.632 22.1942C13.2296 22.6987 21.47 25.6832 23.9505 23.9597C24.9174 25.515 26.1787 26.7761 27.8184 26.3137C27.5241 27.0283 24.9595 27.0703 23.9505 26.9442C17.6441 26.2296 11.4639 24.2119 5.53588 21.7319C4.19053 21.1854 2.59291 20.9332 1.45777 19.9244C0.154455 18.7474 0.448748 17.108 0.448748 15.4266C0.448748 14.9642 0.44875 14.5438 0.490793 14.1655C0.406708 15.931 0.61692 17.9067 2.3827 18.7894Z" fill="#FFAF10"/>
<path d="M24.9175 15.5109C24.5811 15.4269 24.1187 15.4269 23.9085 15.0906C23.9925 15.0065 23.9925 15.0906 24.1187 15.0906C24.3709 15.1326 24.5811 15.2587 24.8754 15.2587C25.1277 15.2587 25.3379 15.3008 25.5481 15.3428C25.8424 15.3848 25.8424 15.553 26.0526 15.6791C26.2628 15.8052 26.473 15.6791 26.6833 15.637C27.0616 15.553 27.5241 15.3008 27.8184 15.637C27.9866 15.8052 28.0707 15.9733 28.365 15.8472C28.5752 15.7632 28.6593 15.4689 28.9535 15.5109L28.9115 15.553C29.1217 15.637 29.2899 15.5109 29.416 15.7211C29.2478 15.8893 29.1217 15.637 29.0376 15.9313C28.9535 16.0994 29.0797 16.3096 28.9535 16.4777C28.7854 16.4777 28.6172 16.3096 28.449 16.3096C28.1968 16.3096 28.1968 16.4778 27.9866 16.5198C27.5661 16.6879 27.6502 16.0994 27.2719 16.0154C27.1457 15.9733 26.9355 16.1415 26.7673 16.1835C26.5571 16.2255 26.3469 16.2676 26.1367 16.3096C25.8004 16.3516 25.5481 16.2676 25.2538 16.2255C25.2118 15.9313 25.8845 16.1835 25.8424 15.8052C25.5902 15.7211 25.2118 15.595 24.9175 15.5109Z" fill="#FFE983"/>
<path d="M19.0735 10.1723C19.6201 11.7276 19.7462 13.3249 20.2507 14.9223C20.7552 16.4776 21.3859 18.0329 22.0165 19.5882C22.6892 21.2275 24.5391 27.2806 27.8184 26.3138C27.7763 26.4399 27.6502 26.524 27.5241 26.608C27.0196 26.6501 26.6832 26.6501 25.9685 26.3979C25.464 26.2297 24.9595 25.8934 24.497 25.5151C22.9414 23.5815 22.3108 21.3957 21.3438 19.2939C20.4189 17.2762 19.7462 15.2165 19.1576 13.0727C18.3168 10.0041 17.0555 6.30505 13.9864 4.74975C10.3287 2.9002 5.36771 4.07718 2.80312 7.39796C2.46678 7.81831 2.17249 8.23866 1.92023 8.65901C2.34065 7.86034 2.80312 7.10371 3.43376 6.30505C5.40975 3.7409 9.69808 2.77409 12.8092 3.57276C15.6681 4.37143 18.1066 7.39796 19.0735 10.1723Z" fill="#FFEDB3"/>
<path d="M5.36814 9.87842C5.6204 9.92045 6.12491 10.0466 5.87266 10.3828C5.6204 10.5089 4.65343 10.7191 4.40117 10.4249C3.98075 9.92045 5.0318 9.87842 5.36814 9.87842Z" fill="#FEAC29"/>
<path d="M2.50955 17.4024C2.71976 17.5706 3.14018 17.8648 2.7618 18.075C2.4675 18.117 1.50053 17.8648 1.41644 17.4865C1.20623 16.8139 2.17321 17.2343 2.50955 17.4024Z" fill="#F49F20"/>
<path d="M12.8927 19.7145C13.0609 19.7986 13.4393 19.9247 13.229 20.1769C13.0188 20.261 12.2621 20.261 12.0939 20.0508C11.7996 19.5884 12.6405 19.6725 12.8927 19.7145Z" fill="#FEAC29"/>
<path d="M16.1304 10.0466C16.2985 10.1727 16.6349 10.3829 16.3406 10.551C16.1304 10.593 15.3736 10.4249 15.2475 10.1727C15.1214 9.66827 15.8781 9.96252 16.1304 10.0466Z" fill="#FEAC29"/>
<path d="M14.2382 6.72545C14.028 6.68342 13.2712 6.51527 13.3133 6.17899C13.3553 5.5905 14.028 5.88475 14.2382 6.09492C14.3223 6.26306 14.5746 6.64138 14.2382 6.72545Z" fill="#FEAC29"/>
<path d="M19.914 20.597C19.7038 20.555 18.947 20.3869 18.9891 20.0506C19.0311 19.4621 19.7038 19.7563 19.914 19.9665C19.9981 20.1767 20.2503 20.555 19.914 20.597Z" fill="#FEAC29"/>
<path d="M19.2421 25.5575C19.0319 25.5155 18.2752 25.3473 18.3172 25.011C18.3592 24.4225 19.0319 24.7168 19.2421 24.927C19.3262 25.1371 19.5785 25.5155 19.2421 25.5575Z" fill="#F49F20"/>
<path d="M3.89643 16.2674C3.68621 16.2254 2.92945 16.0573 2.97149 15.721C3.01354 15.1325 3.68621 15.4267 3.89643 15.6369C3.98051 15.8051 4.23277 16.1834 3.89643 16.2674Z" fill="#FEAC29"/>
<path d="M15.248 23.7919C15.0378 23.7498 14.281 23.5817 14.3231 23.2454C14.3651 22.6569 15.0378 22.9512 15.248 23.1613C15.3321 23.3715 15.5843 23.7498 15.248 23.7919Z" fill="#F49F20"/>
<path d="M6.79682 15.3846C6.5866 15.3426 5.82984 15.1745 5.87188 14.8382C5.91393 14.2497 6.5866 14.5439 6.79682 14.7541C6.8809 14.9222 7.13316 15.3006 6.79682 15.3846Z" fill="#FEAC29"/>
<path d="M12.8928 15.8051C12.6826 15.8471 11.9679 16.0573 11.7997 15.763C11.5475 15.2166 12.3042 15.1745 12.5565 15.2586C12.8087 15.3847 13.1871 15.5949 12.8928 15.8051Z" fill="#FEAC29"/>
<path d="M4.35768 20.1767C4.14747 20.2607 3.43275 20.4289 3.26458 20.1346C3.01232 19.5882 3.76909 19.5461 4.02134 19.6302C4.23155 19.7143 4.60994 19.9665 4.35768 20.1767Z" fill="#F49F20"/>
<path d="M18.4006 14.2079C18.1904 14.292 17.4757 14.4601 17.3076 14.1659C17.0553 13.6194 17.8121 13.5774 18.0643 13.6615C18.2745 13.7876 18.6529 13.9977 18.4006 14.2079Z" fill="#FEAC29"/>
<path d="M9.78151 7.27187C9.5713 7.31391 8.85658 7.52408 8.68841 7.22984C8.43615 6.68338 9.19292 6.64134 9.44517 6.72542C9.65539 6.85152 10.0338 7.0617 9.78151 7.27187Z" fill="#FEAC29"/>
<path d="M4.56765 13.031C4.94603 13.1991 4.48357 13.5774 4.23131 13.4093C4.10519 13.3252 4.0211 13.1991 4.10518 13.031C4.23131 12.9049 4.39948 12.9889 4.56765 13.031Z" fill="#FEAC29"/>
<path d="M8.26882 18.0749C8.64721 18.243 8.18474 18.6214 7.93248 18.4532C7.80636 18.3691 7.72227 18.243 7.80636 18.0749C7.93248 17.9488 8.10066 18.0329 8.26882 18.0749Z" fill="#FEAC29"/>
<path d="M8.60476 12.6105C8.98314 12.7787 8.52068 13.157 8.26842 12.9889C8.14229 12.9048 8.05821 12.7787 8.14229 12.6105C8.26842 12.4844 8.43659 12.5685 8.60476 12.6105Z" fill="#FEAC29"/>
<path d="M16.9717 16.6041C17.266 16.9403 16.6353 17.0664 16.4672 16.8142C16.3831 16.6881 16.3831 16.52 16.5513 16.4359C16.7194 16.3518 16.8455 16.478 16.9717 16.6041Z" fill="#FEAC29"/>
<path d="M9.78222 20.4292C10.0765 20.7655 9.44588 20.8916 9.27772 20.6394C9.19363 20.5133 9.19363 20.3452 9.3618 20.2611C9.57201 20.177 9.6561 20.3031 9.78222 20.4292Z" fill="#FEAC29"/>
<path d="M8.0166 21.8583C8.31089 22.1946 7.68026 22.3207 7.51209 22.0685C7.42801 21.9424 7.428 21.7742 7.59617 21.6902C7.76434 21.5641 7.89047 21.7322 8.0166 21.8583Z" fill="#F49F20"/>
<path d="M6.16699 6.6835C6.46129 7.01979 5.83065 7.14589 5.66248 6.89368C5.5784 6.76757 5.57839 6.59944 5.74656 6.51537C5.95678 6.38926 6.04086 6.5574 6.16699 6.6835Z" fill="#FEAC29"/>
<path d="M9.23562 15.8051C9.614 15.9732 9.15154 16.3515 8.89928 16.1834C8.77315 16.0993 8.68907 15.9732 8.77315 15.8051C8.89928 15.6369 9.06745 15.721 9.23562 15.8051Z" fill="#FEAC29"/>
<path d="M9.78222 10.9293C10.0765 11.2655 9.44588 11.3916 9.27772 11.1394C9.19363 11.0133 9.19363 10.8452 9.3618 10.7611C9.57201 10.677 9.6561 10.8031 9.78222 10.9293Z" fill="#FEAC29"/>
<path d="M14.5325 16.772C14.9109 16.9401 14.4484 17.3184 14.1962 17.1503C14.07 17.0662 13.9859 16.9401 14.07 16.772C14.1962 16.6038 14.3643 16.73 14.5325 16.772Z" fill="#FEAC29"/>
<path d="M11.0012 5.04414C11.3796 5.21228 10.9172 5.5906 10.6649 5.42246C10.5388 5.33839 10.4547 5.21228 10.5388 5.04414C10.6649 4.91804 10.8331 5.00211 11.0012 5.04414Z" fill="#FEAC29"/>
<path d="M20.4192 22.6989C20.7976 22.8671 20.3351 23.2454 20.0829 23.0773C19.9567 22.9932 19.8727 22.8671 19.9568 22.6989C20.0829 22.5728 20.251 22.6569 20.4192 22.6989Z" fill="#FFAE37"/>
<path d="M2.59299 13.1568C2.76116 13.5771 2.25665 13.4931 2.13052 13.1988C2.25665 13.0307 2.42482 13.0307 2.59299 13.1568Z" fill="#FEAC29"/>
<path d="M13.4824 8.95357C13.4404 9.41595 13.02 9.07967 13.062 8.78542C13.2722 8.70135 13.3983 8.78543 13.4824 8.95357Z" fill="#FEAC29"/>
<path d="M11.927 17.9487C12.0951 18.3691 11.5906 18.285 11.4645 17.9908C11.6327 17.8647 11.8008 17.8647 11.927 17.9487Z" fill="#FEAC29"/>
<path d="M12.3469 11.6436C12.5151 12.0639 12.0106 11.9798 11.8844 11.6856C12.0106 11.5595 12.1787 11.5595 12.3469 11.6436Z" fill="#FEAC29"/>
<path d="M6.04026 19.336C6.20843 19.7563 5.70391 19.6723 5.57779 19.378C5.74596 19.2099 5.91413 19.2099 6.04026 19.336Z" fill="#F49F20"/>
<path d="M18.0637 19.8404C18.2319 20.2607 17.7274 20.1767 17.6012 19.8824C17.7694 19.7143 17.9376 19.7143 18.0637 19.8404Z" fill="#FEAC29"/>
<path d="M15.0364 14.0815C15.2045 14.5019 14.7 14.4178 14.5739 14.1235C14.7 13.9974 14.8682 13.9554 15.0364 14.0815Z" fill="#FEAC29"/>
<path d="M12.5989 23.3716C12.767 23.792 12.2625 23.7079 12.1364 23.4137C12.2625 23.2455 12.4727 23.2455 12.5989 23.3716Z" fill="#F49F20"/>
<path d="M18.0637 22.1104C18.2319 22.5307 17.7274 22.4467 17.6012 22.1524C17.7694 21.9843 17.9376 21.9843 18.0637 22.1104Z" fill="#FEAC29"/>
<path d="M23.9914 26.0616C24.1596 26.4819 23.6551 26.3979 23.529 26.1036C23.6551 25.9355 23.8653 25.9355 23.9914 26.0616Z" fill="#F49F20"/>
<path d="M2.80198 11.0132C2.97015 11.4336 2.46563 11.3495 2.33951 11.0553C2.46563 10.8871 2.63381 10.8871 2.80198 11.0132Z" fill="#FEAC29"/>
</svg>
