<svg width="43" height="27" viewBox="0 0 43 27" fill="none" xmlns="http://www.w3.org/2000/svg">
<path d="M9.27915 25.7359L9.70226 24.9775L12.1563 25.4831L12.4102 25.9887L11.9024 26.4942C11.9024 26.4942 10.7177 26.5785 9.19453 26.0729C9.36377 25.9044 9.36378 25.7359 9.27915 25.7359Z" fill="#EBEAEA"/>
<path d="M18.5879 5.17676C18.5879 5.26108 18.5033 5.26108 18.5033 5.34541H18.5879C18.5879 5.26108 18.5879 5.17676 18.5879 5.17676Z" fill="#EBEAEA"/>
<path d="M2.9331 19.9218C3.77932 19.669 4.54091 19.5005 5.21788 19.4163C5.13326 19.4163 5.04865 19.4163 5.04865 19.4163C4.20243 19.332 4.20243 18.4894 3.77932 18.7422C3.61007 18.9107 3.18696 19.332 2.67923 18.995C2.1715 18.6579 2.42537 18.0681 2.25612 17.4783C2.08688 16.8885 1.57915 16.9727 1.24067 17.1413C0.902176 17.3098 0.479065 17.3098 0.140579 16.5514C-0.197906 15.7931 0.140575 15.4561 0.479061 15.119C0.817547 14.8663 1.15604 14.6135 0.986797 14.2765V14.1922V14.1079C0.986797 14.0237 0.902168 13.9394 0.902168 13.8552C0.902168 13.7709 0.902168 13.6024 0.902168 13.5181V13.4339C0.902168 13.3496 0.986797 13.3496 0.986797 13.2654C1.24066 13.0126 1.57915 12.9283 2.25612 13.2654L1.66377 12.507C1.66377 12.507 1.57915 12.2542 1.57915 11.2431C2.84847 10.9904 3.86394 10.4848 4.62553 9.81073C4.62553 9.72647 4.62553 9.64221 4.62553 9.47369V9.38944C4.54091 9.38944 4.45628 9.38943 4.28704 9.30517C4.20242 9.30517 4.11781 9.22092 4.03318 9.13666C3.94856 9.0524 3.86393 8.88388 3.86393 8.79962C3.94855 8.79962 4.03318 8.79962 4.1178 8.79962C4.45629 8.88388 4.8794 8.79962 5.21788 8.71536C5.641 8.6311 5.97948 8.6311 6.40258 8.54685C7.2488 8.46259 8.09502 8.46258 8.94124 8.46258C9.87208 8.46258 10.7183 8.46259 11.6491 8.37833C12.4954 8.29407 13.3416 8.20981 14.2724 8.12555C15.9648 8.04129 17.6573 7.95703 19.3497 7.95703C21.296 7.95703 23.2423 8.04129 25.104 8.12555C27.0503 8.20981 28.9966 8.29407 30.9429 8.54685C31.8737 8.71536 32.8046 8.79962 33.82 8.96814C34.6663 9.13666 35.5125 9.30518 36.3587 9.38944C37.0357 9.47369 37.7973 9.47369 38.4742 9.55795C38.5589 10.0635 38.5589 10.4848 38.5589 10.9904C38.7281 11.0746 38.982 11.0746 39.3205 11.2431C39.4051 11.2431 39.4051 11.2431 39.4897 11.2431C40.5052 11.4959 41.1821 12.5913 40.6744 13.3496C40.2513 13.7709 40.6744 14.3607 41.6052 14.782C42.5361 15.2876 43.0438 16.1302 42.7053 16.8042C42.3668 17.4783 41.6052 17.057 41.6899 17.5626C41.7745 18.0681 41.8591 18.4052 41.1821 18.8264C40.4205 19.332 40.5052 19.5848 41.0129 20.4274C41.5206 21.1857 41.2668 21.607 40.6744 22.1125C40.5052 22.2811 40.2513 22.3653 40.0821 22.4496C39.9128 22.4496 39.8282 22.4496 39.6589 22.4496H39.5743C39.4897 22.4496 39.4051 22.3653 39.4051 22.3653C39.4051 22.3653 39.4051 22.3653 39.3205 22.2811L39.2358 22.1968C38.982 21.8598 38.5589 21.8598 38.1358 22.1968C38.5589 22.2811 38.8973 22.2811 39.2358 22.7024C39.7436 23.3764 38.982 23.9662 38.305 23.7135C37.5434 23.4607 37.3742 23.4607 37.5434 23.9662C37.628 24.3033 37.628 24.6403 37.4588 24.8931C37.4588 24.8931 37.4588 24.8931 37.3742 24.9774C37.3742 24.9774 37.3742 24.9774 37.2895 24.9774C37.2895 24.9774 37.2895 24.9774 37.2049 24.9774H37.1203C36.5279 25.0616 36.5279 24.3875 36.1895 24.4718C35.851 24.5561 35.7663 24.9774 35.7663 25.3144C35.7663 25.6514 35.0894 26.3255 34.497 26.0727C33.82 25.9042 33.7354 26.0727 33.5662 26.3255C33.3969 26.5783 33.0584 26.7468 32.8046 26.5783C32.72 26.494 32.6353 26.494 32.6353 26.494C32.2969 26.5783 31.9584 26.5783 31.5353 26.5783C30.6044 26.5783 29.9274 26.4098 29.3351 26.2412C29.0812 26.5783 28.6581 26.9153 28.3196 26.9996H28.235H28.1504H28.0658C26.9657 26.8311 27.1349 26.3255 26.8811 25.9042C26.6272 25.4829 26.458 25.6514 26.2041 25.9042C26.0348 26.0727 25.781 26.157 25.5271 25.9885L23.0731 26.494C23.0731 26.494 22.7346 25.8199 21.973 25.1459C21.7191 25.4829 21.296 25.9042 21.0422 25.9042C20.5344 25.8199 20.7037 25.0616 20.1959 25.1459C19.6882 25.2301 19.6882 26.157 19.1805 26.0727C18.6727 25.9885 18.0804 26.0727 17.6573 26.0727C17.488 26.0727 17.2342 26.0727 16.9803 25.9885C16.9803 25.9885 16.9803 25.9885 16.8957 25.9885C16.8957 25.9885 16.8111 25.9885 16.8111 25.9042C16.8111 25.9042 16.8111 25.9042 16.7264 25.9042C16.7264 25.9042 16.7264 25.9042 16.6418 25.9042C16.6418 25.9042 16.6418 25.9042 16.5572 25.8199C16.5572 25.8199 16.5572 25.8199 16.4726 25.7357L16.388 25.6514L16.3033 25.5672L16.2187 25.4829C16.2187 25.3987 16.1341 25.3986 16.1341 25.3144C15.9649 25.3986 15.7956 25.3986 15.6264 25.3986C13.7647 25.6514 11.4799 24.7246 10.5491 22.3653C10.5491 22.4496 10.5491 22.5338 10.5491 22.6181C10.4644 23.1237 10.0413 22.8709 9.95671 23.3764C9.87209 23.882 10.3798 24.3033 9.5336 24.6403C8.68738 24.9774 8.43351 24.1348 7.75654 24.1348C7.07956 24.219 7.33342 25.1459 6.40258 25.2301C5.47174 25.3144 4.37167 24.219 4.37167 24.219C4.37167 24.219 4.28705 24.8931 3.77932 24.9774C2.76385 25.2301 2.1715 24.6403 2.08688 24.219C2.00226 23.882 1.83302 23.3764 1.49453 23.1237C1.49453 23.1237 1.4099 23.1237 1.4099 23.0394C1.4099 23.0394 1.32528 23.0394 1.32528 22.9551C1.32528 22.9551 1.24067 22.9551 1.24067 22.8709C1.24067 22.8709 1.15604 22.8709 1.15604 22.7866L1.07142 22.7024C0.817558 22.4496 0.648315 22.1125 0.648315 21.5227C0.0559616 20.5959 1.24067 19.8376 2.9331 19.9218ZM9.61821 19.8376C9.61821 19.669 9.70284 19.5848 9.70284 19.4163C9.70284 19.332 9.78746 19.332 9.78746 19.2477C9.44897 19.332 9.11049 19.4163 8.772 19.5005C9.19511 19.5848 9.44897 19.669 9.61821 19.8376Z" fill="#EBEAEA"/>
<path d="M35.5136 16.6364C35.5136 16.6364 37.7137 14.1086 34.4981 11.3281C31.2825 8.54752 20.2817 5.17716 15.2043 6.60956C10.127 8.04196 7.08066 10.317 6.91141 12.929C6.82679 15.541 15.0351 19.2484 18.0815 20.428C21.1279 21.6077 23.7511 21.3549 25.8667 20.5966C28.0669 19.8382 35.5136 16.6364 35.5136 16.6364Z" fill="#58991F"/>
<path opacity="0.5" d="M15.2883 6.60956C20.3656 5.17716 31.3665 8.54752 34.5821 11.3281C37.7977 14.1086 35.5976 16.6364 35.5976 16.6364C35.5976 16.6364 28.1508 19.9225 26.0353 20.6808C23.9198 21.4391 21.2965 21.6919 18.2501 20.5123C15.2037 19.3327 6.91077 15.541 7.08002 13.0132C7.16464 10.4012 10.2956 8.12622 15.2883 6.60956ZM33.9897 14.5299C34.4129 14.5299 34.7513 14.2771 34.6667 13.8558C34.6667 13.6031 34.4129 13.5188 34.2436 13.4345C33.9051 13.3503 33.5666 13.3503 33.2281 13.266C33.0589 13.8558 33.3128 14.5299 33.9897 14.5299ZM23.7505 10.7382C23.9198 10.991 24.2582 10.991 24.5121 11.1595C24.8506 11.3281 25.1045 11.4966 25.3583 11.8336C25.4429 11.9179 25.5276 12.0864 25.6122 12.0864C25.8661 12.2549 25.6968 11.7494 25.6968 11.6651C25.6968 11.4123 25.7814 11.0753 25.6968 10.7382C25.6122 10.4855 25.4429 10.317 25.1891 10.317C24.9352 10.2327 24.766 10.2327 24.5121 10.2327C24.3429 10.2327 24.0044 10.2327 23.8351 10.317C23.6659 10.4855 23.6659 10.654 23.7505 10.7382ZM19.0117 18.4901C19.5194 18.9114 20.281 19.1642 20.958 19.1642C21.0426 18.7429 20.958 18.3216 20.8734 17.9845C20.7887 17.7318 20.6195 17.479 20.5349 17.2262C20.4503 17.0577 20.5349 16.9734 20.5349 16.8049C20.5349 16.6364 20.4503 16.6364 20.281 16.5521C20.1118 16.4679 20.0272 16.2993 19.8579 16.2151C19.6887 16.0466 19.5194 15.878 19.2656 15.7095C18.5886 15.4568 18.3347 16.2151 18.3347 16.7206C18.3347 17.3947 18.504 18.0688 19.0117 18.4901ZM10.1264 13.3503C10.4649 13.6873 11.1419 14.0244 11.6496 13.8558C11.9035 13.7716 12.0727 13.6031 12.0727 13.266C12.0727 12.929 11.9881 12.5919 12.0727 12.3392C12.1573 11.9179 12.2419 11.4123 11.9035 11.0753C11.7342 10.9068 11.565 11.3281 11.565 11.4123C11.4804 11.6651 11.3111 11.8336 11.0572 11.8336C10.6341 11.8336 10.3803 11.8336 10.0418 12.0021C9.44942 12.4234 9.7033 13.0132 10.1264 13.3503Z" fill="#58991F"/>
<path d="M33.8207 13.4344C33.99 13.4344 34.2439 13.4344 34.3285 13.6029C34.4977 13.8557 34.5823 14.1928 34.2439 14.3613C34.0746 14.4455 33.7361 14.4455 33.5669 14.3613C33.1438 14.1928 33.0591 13.7715 33.1438 13.4344C33.1438 13.3502 33.7361 13.4344 33.8207 13.4344Z" fill="#58991F"/>
<path d="M33.0589 18.7428C33.0589 18.7428 35.6822 19.5011 37.29 21.4391C37.967 21.9446 38.5593 21.5233 39.067 22.1974C39.5748 22.8715 38.8132 23.4613 38.1362 23.2085C37.3746 22.9557 37.2054 22.9557 37.3746 23.4613C37.5438 23.9668 37.4592 24.6409 36.8669 24.7252C36.2745 24.8094 36.2745 24.1354 35.936 24.2196C35.5975 24.3039 35.5129 24.7252 35.5129 25.0622C35.5129 25.3993 34.836 25.9891 34.2436 25.8205C33.5666 25.652 33.482 25.8205 33.3128 26.0733C33.1435 26.3261 32.805 26.4946 32.5512 26.3261C32.2973 26.1576 32.2127 26.1576 32.2973 25.7363C32.3819 25.315 30.8587 22.703 30.351 21.6076C29.8433 20.5965 29.7586 20.3437 29.3355 20.5965C28.9124 20.8493 28.2355 20.0067 29.1663 18.9113C30.0971 17.9002 32.1281 18.4058 33.0589 18.7428Z" fill="#0E7B19"/>
<path opacity="0.5" d="M29.0807 18.9957C29.1654 18.9114 29.1654 18.9114 29.25 18.8271C29.4192 19.2484 29.8423 19.417 30.2655 19.6697C30.9424 20.0068 31.6194 20.1753 32.2964 20.4281C32.9734 20.6808 33.5657 21.0179 34.1581 21.2707C34.5812 21.4392 35.0043 21.692 35.2581 22.029C35.512 22.366 35.6812 22.7031 35.8505 23.1244C36.1044 23.6299 36.3582 24.0512 36.866 24.304C37.0352 24.3882 37.1198 24.3882 37.2891 24.4725C37.2044 24.641 37.0352 24.7253 36.7813 24.8095C36.189 24.8938 36.189 24.2197 35.8505 24.304C35.512 24.3882 35.4274 24.8095 35.4274 25.1466C35.4274 25.4836 34.7504 26.0734 34.1581 25.9049C33.4811 25.7364 33.3965 25.9049 33.2272 26.1577C33.058 26.4105 32.7195 26.579 32.4656 26.4105C32.2118 26.2419 32.1271 26.2419 32.2118 25.8206C32.2964 25.3993 30.7732 22.7873 30.2655 21.692C29.7577 20.6808 29.6731 20.4281 29.25 20.6808C28.8269 20.8494 28.0653 20.091 29.0807 18.9957Z" fill="#0E7B19"/>
<path d="M34.666 21.6917C34.666 21.6917 34.4121 21.5231 34.0737 21.2704C33.989 21.1861 33.9044 21.1861 33.8198 21.1018C33.7352 21.0176 33.5659 20.9333 33.4813 20.9333C33.3967 20.8491 33.2274 20.8491 33.1428 20.7648C33.0582 20.6805 32.889 20.5963 32.8043 20.5963C32.6351 20.512 32.5505 20.512 32.3812 20.4278C32.2966 20.3435 32.1274 20.3435 32.0427 20.2592C31.9581 20.175 31.7889 20.175 31.7043 20.0907C31.6196 20.0907 31.6196 20.0907 31.535 20.0065C31.4504 20.0065 31.4504 20.0065 31.3658 19.9222C31.1965 19.8379 31.0273 19.838 30.858 19.7537C30.7734 19.7537 30.6888 19.6694 30.6888 19.6694C30.6888 19.6694 30.7734 19.6694 30.858 19.7537C30.9427 19.838 31.1119 19.8379 31.3658 19.9222C31.4504 19.9222 31.4504 19.9222 31.535 20.0065C31.6196 20.0065 31.6196 20.0907 31.7043 20.0907C31.7889 20.175 31.9581 20.175 32.0427 20.2592C32.1274 20.3435 32.2966 20.3435 32.3812 20.4278C32.4658 20.512 32.6351 20.512 32.7197 20.5963C32.889 20.6805 32.9736 20.6805 33.0582 20.7648C33.1428 20.8491 33.3121 20.8491 33.3967 20.9333C33.6506 21.0176 33.8198 21.1861 34.0737 21.2704C34.2429 21.3546 34.4121 21.4389 34.4968 21.5231C34.5814 21.6916 34.666 21.6917 34.666 21.6917Z" fill="#43C737"/>
<path d="M33.1426 15.2039C33.1426 15.2039 33.1426 12.1706 29.0807 11.0752C26.8806 11.2437 26.2882 13.2659 26.2882 13.2659L29.6731 17.1418L33.1426 15.2039Z" fill="#EDC41B"/>
<path opacity="0.5" d="M29.0807 11.0752C29.9269 11.328 30.6039 11.665 31.1117 12.002C30.4347 11.9178 29.6731 11.9178 28.9115 12.0863C28.573 12.1706 27.5575 12.6761 27.896 13.1817C28.1499 13.4344 28.4884 13.603 28.7422 13.8557C29.1654 14.277 29.5038 14.6983 29.8423 15.2039C29.8423 15.2039 29.8423 15.2881 29.9269 15.2039C30.8578 14.6141 31.8733 14.3613 32.9733 14.277C33.1426 14.7826 33.1426 15.2039 33.1426 15.2039L29.6731 17.1418L26.2882 13.2659C26.2882 13.2659 26.7959 11.2437 29.0807 11.0752Z" fill="#EDC41B"/>
<path d="M23.7517 9.30573C23.7517 9.30573 23.3286 10.8224 22.8208 11.5807C22.2285 12.3391 23.4132 13.8557 21.4669 15.6252C20.3668 16.552 19.8591 15.8779 19.6052 15.2039C19.3513 14.5298 19.0129 15.1196 18.6744 15.2039C18.2513 15.2039 17.9128 15.3724 17.5743 14.614C17.2358 13.8557 16.3896 14.277 15.8818 13.6872C15.3741 13.0131 13.9356 7.19925 16.4742 5.59833C19.0975 3.99741 24.4286 6.2724 23.7517 9.30573Z" fill="#43C737"/>
<path d="M21.635 14.024C21.8043 13.2657 21.7196 12.4231 22.1427 11.6648C22.312 11.3278 22.5659 10.9907 22.989 10.9907C23.0736 10.9907 23.0736 10.9907 23.1582 10.9907C23.0736 11.2435 22.9043 11.4963 22.8197 11.6648C22.2274 12.4231 23.4121 13.9398 21.4658 15.7092C20.8734 16.2148 20.5349 16.2148 20.1964 16.1305C20.958 15.5407 21.4658 14.6981 21.635 14.024Z" fill="#43C737"/>
<path d="M16.5588 5.51392C19.0975 3.99726 24.4286 6.27225 23.7517 9.22132C23.7517 9.22132 23.4978 10.1482 23.1593 10.9065C23.0747 10.5695 22.9901 10.2324 22.7362 9.97965C22.3977 9.64261 22.0592 10.2324 22.0592 10.4852C21.9746 10.9908 21.9746 11.4963 21.89 12.0019C21.8054 12.5917 21.6361 13.1815 21.0438 13.5185C20.3668 13.8556 19.6052 13.7713 18.8436 14.0241C18.4205 14.1926 17.9128 14.4454 17.9128 14.9509C17.8281 14.8667 17.7435 14.6981 17.5743 14.4454C17.2358 13.687 16.3896 14.1083 15.8818 13.5185C15.4587 13.013 14.0202 7.11484 16.5588 5.51392Z" fill="#43C737"/>
<path d="M29.6738 24.9778C29.6738 24.9778 28.743 26.8315 27.6429 26.7473C26.5428 26.5788 26.7121 26.0732 26.4582 25.6519C26.2043 25.2306 26.0351 25.3991 25.7812 25.6519C25.5274 25.9047 25.1889 25.9047 24.7658 25.3149C24.4273 24.7251 23.5811 21.8603 24.5965 20.9334C25.612 20.0066 29.7584 19.501 30.6893 21.2705C31.6201 22.8714 29.6738 24.9778 29.6738 24.9778Z" fill="#43C737"/>
<path d="M24.5127 20.8489C25.5282 19.9221 29.6747 19.4165 30.6055 21.186C30.8594 21.6073 30.8594 22.0286 30.8594 22.4499C30.6055 22.0286 30.267 21.7758 29.8439 21.6915C29.59 21.6073 29.2516 21.6073 28.9977 21.7758C28.7438 21.9443 28.5746 22.1971 28.3207 22.3656C27.9822 22.6184 27.5591 22.7869 27.136 22.5341C26.8822 22.3656 26.7129 22.1128 26.3744 21.9443C25.6974 21.6915 25.5282 22.7026 25.6974 23.1239C25.7821 23.3767 25.8667 23.7137 26.1206 23.8823C26.3744 24.135 26.6283 24.3036 26.7975 24.5563C27.2206 25.0619 27.0514 25.736 27.4745 26.2415C27.6437 26.41 27.813 26.5786 28.0669 26.7471C27.8976 26.8313 27.813 26.8313 27.6437 26.8313C26.5437 26.6628 26.7129 26.1573 26.459 25.736C26.2052 25.3147 26.0359 25.4832 25.7821 25.736C25.5282 25.9887 25.1897 25.9887 24.7666 25.3989C24.3435 24.6406 23.5819 21.7758 24.5127 20.8489Z" fill="#2A9E1C"/>
<path d="M38.4749 10.3171C38.4749 10.3171 38.5595 10.4013 39.6596 10.6541C40.6751 10.9069 41.3521 12.0023 40.8443 12.7606C40.4212 13.1819 40.8443 13.7717 41.7752 14.193C42.706 14.6985 43.2137 15.5411 42.8753 16.2152C42.5368 16.8893 41.7752 16.468 41.8598 16.9735C41.9444 17.4791 42.029 17.8161 41.3521 18.2374C40.5905 18.743 40.6751 18.9958 41.1828 19.8383C41.6906 20.5967 41.4367 21.018 40.8443 21.5235C40.252 22.0291 39.575 21.9448 39.3211 21.6078C39.0673 21.2707 38.6442 21.2707 38.2211 21.6078C37.7133 21.9448 37.3748 22.1976 36.8671 22.0291C36.3594 21.7763 36.3594 21.5235 36.2748 21.1865C36.1901 20.8494 35.8517 20.8495 35.5132 20.8495C35.0901 20.8495 34.8362 20.6809 34.9208 20.0911C34.9208 19.5013 35.3439 19.3328 35.3439 19.3328C35.3439 19.3328 36.5286 17.2263 35.6824 15.6254C35.1747 14.53 35.2593 14.53 35.5978 14.1087C35.9363 13.6874 35.9363 12.8448 35.9363 12.8448C35.9363 12.8448 36.6979 9.89578 38.4749 10.3171Z" fill="#43C737"/>
<path d="M34.5823 20.1751C34.5823 19.5853 35.0054 19.4167 35.0054 19.4167C35.0054 19.4167 36.1901 17.3103 35.3439 15.7093C34.8362 14.614 34.9208 14.614 35.2593 14.1927C35.5978 13.7714 35.5978 12.9288 35.5978 12.9288C35.5978 12.9288 36.7825 9.81122 38.5595 10.2325C38.5595 10.2325 38.6441 10.3168 39.575 10.5695C39.4904 10.9908 39.4057 11.3279 39.3211 11.7492C39.2365 12.5075 39.2365 13.2658 39.4057 14.0242C39.575 14.951 39.9135 15.8779 39.9135 16.8047C39.9135 17.7316 39.4057 18.4899 39.1519 19.3325C39.0672 19.7538 38.9826 20.2593 39.1519 20.6806C39.3211 21.1862 39.7442 21.6075 40.252 21.776C39.8288 21.8603 39.4904 21.776 39.3211 21.5232C39.0672 21.1862 38.6441 21.1862 38.221 21.5232C37.7133 21.8603 37.3748 22.113 36.8671 21.9445C36.3594 21.6917 36.3593 21.439 36.2747 21.1019C36.1901 20.7649 35.8516 20.7649 35.5131 20.7649C34.8362 21.0177 34.5823 20.7649 34.5823 20.1751Z" fill="#2A9E1C"/>
<path d="M25.7828 9.38992C25.7828 9.38992 25.9521 10.6538 25.8674 11.4964C25.8674 12.339 26.0367 12.5075 26.2906 12.8445C26.5444 13.1816 27.306 13.1816 27.6445 12.676C28.0676 12.1705 28.5753 11.6649 29.8447 11.7492C31.114 11.8334 31.4525 11.7492 31.6217 11.0751C31.791 10.401 31.8756 10.064 31.7063 9.13715C31.5371 8.12604 33.3142 6.27234 32.9757 5.42975C32.6372 4.58716 33.7373 4.5029 33.0603 3.74457C32.6372 3.32327 32.2987 3.49179 31.8756 3.66031C31.4525 3.82883 30.6063 3.82883 30.6909 3.49179C30.6909 3.15476 30.5216 2.56494 29.8447 2.56494C29.1677 2.56494 28.8292 3.32327 28.8292 3.82883C28.9984 4.25012 28.1522 7.789 25.7828 9.38992Z" fill="#43C737"/>
<path d="M26.7124 13.0131C26.6277 12.9288 26.6277 12.7603 26.5431 12.6761C26.4585 12.4233 26.3739 12.0862 26.6277 11.9177C26.9662 11.6649 27.3047 11.8335 27.6432 11.8335C28.1509 11.8335 28.6587 11.7492 29.1664 11.5807C29.4203 11.4964 29.6741 11.4122 29.8434 11.3279C30.0126 11.2436 30.1818 10.9909 30.3511 10.9066C30.9434 10.6538 31.1973 11.0751 31.4512 11.5807C31.1973 11.8335 30.7742 11.8335 29.928 11.7492C28.6587 11.6649 28.1509 12.0862 27.7278 12.6761C27.4739 12.9288 27.0508 13.0131 26.7124 13.0131Z" fill="#43C737"/>
<path d="M25.7816 9.38971C28.151 7.78879 28.9972 4.24991 28.9126 3.74435C28.9126 3.2388 29.2511 2.48047 29.9281 2.48047C30.605 2.48047 30.7743 3.07028 30.7743 3.40732C30.7743 3.66009 31.1128 3.74435 31.4513 3.74435C31.3666 3.91287 31.1974 3.99713 31.1128 4.16565C30.9435 4.33417 30.6897 4.33417 30.4358 4.33417C30.2666 4.33417 30.0973 4.33417 29.9281 4.50269C29.6742 4.83972 30.0127 5.26102 30.2665 5.42953C30.6897 5.85083 31.1974 6.27213 31.282 6.86194C31.3666 7.28323 31.4513 7.70453 31.7897 8.04156C31.8744 8.12582 31.959 8.12582 31.959 8.21008C31.7897 8.54712 31.7051 8.79989 31.7897 9.05267C31.959 10.0638 31.8744 10.4008 31.7051 10.9906C31.7051 11.1591 31.6205 11.2434 31.5359 11.4119C31.3666 10.9906 31.1128 10.5693 30.6897 10.5693C30.4358 10.5693 30.2666 10.7379 30.0973 10.9064C29.8434 11.0749 29.5896 11.2434 29.2511 11.3277C28.5741 11.5804 27.9818 11.6647 27.3048 11.6647C27.0509 11.6647 26.6278 11.6647 26.4586 11.9175C26.3739 12.1703 26.3739 12.423 26.4586 12.5916C26.5432 12.7601 26.5432 12.8443 26.6278 13.0128C26.5432 13.0128 26.3739 12.9286 26.3739 12.8443C26.1201 12.5073 25.9508 12.3388 25.9508 11.4962C25.9508 10.5693 25.7816 9.38971 25.7816 9.38971Z" fill="#2A9E1C"/>
<path d="M37.2047 15.1197C37.2047 15.1197 39.3202 12.5077 38.474 8.63178C37.8817 6.01975 36.6123 4.84012 36.02 5.0929C35.4276 5.42994 35.343 5.17716 35.0045 4.75587C34.666 4.33457 34.0737 4.33457 33.6506 4.84012C33.2275 5.34568 32.9736 5.34568 32.6351 5.26142C32.2966 5.17716 31.3658 5.42994 31.4504 6.27253C31.6197 7.11512 31.4504 7.11512 31.2812 7.78919C31.1119 8.379 30.9427 9.64289 31.8735 10.5697C32.2966 10.9068 32.2966 11.1595 32.2966 11.7494C32.2966 12.3392 32.5505 13.0975 33.8198 13.0975C34.666 13.0132 35.1738 13.1818 35.4276 13.7716C35.6815 14.3614 35.5969 14.9512 36.1892 15.3725C36.7816 15.6253 37.2047 15.1197 37.2047 15.1197Z" fill="#0E7B19"/>
<path opacity="0.5" d="M31.2824 7.78903C31.4516 7.19922 31.6208 7.19922 31.4516 6.27237C31.2824 5.42978 32.2978 5.09274 32.6363 5.26126C32.9748 5.34552 33.2287 5.34552 33.6518 4.83997C33.9902 4.50293 34.498 4.41867 34.8365 4.58719C34.7518 5.00848 34.8365 5.42978 35.0057 5.85107C35.6827 7.452 36.952 8.71588 37.629 10.3168C37.9675 11.1594 38.0521 12.0862 38.0521 12.9288C38.0521 13.0974 38.0521 13.3501 38.1367 13.5186C37.7136 14.4455 37.2905 15.0353 37.2905 15.0353C37.2905 15.0353 36.8674 15.5409 36.3597 15.2881C35.7673 14.951 35.8519 14.3612 35.5981 13.6872C35.3442 13.0974 34.7518 12.9288 33.9903 13.0131C32.7209 13.0131 32.4671 12.2548 32.4671 11.6649C32.4671 11.0751 32.3824 10.7381 32.0439 10.4853C30.8592 9.64273 31.0285 8.37884 31.2824 7.78903Z" fill="#0E7B19"/>
<path d="M37.4597 14.6979C37.4597 14.6979 37.5443 14.6137 37.5443 14.3609C37.5443 14.2766 37.6289 14.1081 37.6289 14.0239C37.6289 13.9396 37.6289 13.8553 37.6289 13.7711C37.6289 13.6868 37.6289 13.6026 37.6289 13.5183C37.6289 13.434 37.6289 13.3498 37.6289 13.2655C37.6289 13.1813 37.6289 13.097 37.6289 12.9285C37.6289 12.76 37.6289 12.5072 37.6289 12.2544C37.6289 12.1702 37.6289 12.0016 37.6289 11.9174C37.6289 11.8331 37.6289 11.6646 37.5443 11.5804C37.5443 11.4961 37.5443 11.3276 37.4597 11.2433C37.4597 11.1591 37.375 10.9905 37.375 10.9063C37.2904 10.6535 37.2058 10.485 37.2058 10.2322C37.1212 9.97943 37.0366 9.81091 36.9519 9.55814C36.8673 9.38962 36.7827 9.13684 36.6981 8.96832C36.6134 8.88406 36.6134 8.7998 36.5288 8.71555C36.4442 8.63129 36.4442 8.54702 36.3596 8.46277C36.275 8.29425 36.1903 8.12573 36.1057 8.04147C36.0211 7.95721 35.9365 7.7887 35.8518 7.70444C35.9365 7.7887 35.9365 7.87295 36.0211 8.04147C36.1057 8.12573 36.1903 8.29425 36.275 8.46277C36.3596 8.54702 36.3596 8.63129 36.4442 8.71555C36.5288 8.7998 36.5288 8.88406 36.6134 8.96832C36.6981 9.13684 36.7827 9.38962 36.8673 9.55814C36.9519 9.72665 37.0365 9.97943 37.1212 10.2322C37.2058 10.485 37.2904 10.6535 37.2904 10.9063C37.2904 10.9905 37.375 11.1591 37.375 11.2433C37.375 11.3276 37.4597 11.4961 37.4597 11.5804C37.4597 11.6646 37.4597 11.8331 37.5443 11.9174C37.5443 12.0016 37.5443 12.1702 37.5443 12.2544C37.5443 12.5072 37.5443 12.6757 37.5443 12.9285C37.5443 13.0128 37.5443 13.097 37.5443 13.2655C37.5443 13.3498 37.5443 13.434 37.5443 13.5183C37.5443 13.6026 37.5443 13.6868 37.5443 13.7711C37.5443 13.8553 37.5443 13.9396 37.5443 14.0239C37.5443 14.1924 37.4597 14.2766 37.4597 14.3609C37.5443 14.4452 37.4597 14.5294 37.4597 14.6979Z" fill="#43C737"/>
<path d="M37.5449 11.412C37.5449 11.412 37.5449 11.3278 37.5449 11.2435C37.5449 11.1593 37.5449 11.1593 37.4603 11.075C37.4603 10.9908 37.3757 10.9065 37.3757 10.9065C37.3757 10.8222 37.2911 10.738 37.2911 10.6537C37.2064 10.5695 37.2064 10.4852 37.1218 10.4009C37.0372 10.3167 37.0372 10.2324 36.9526 10.1482C36.868 10.0639 36.7833 9.97965 36.6987 9.89539C36.6141 9.81113 36.5295 9.72687 36.4448 9.64261C36.3602 9.55835 36.2756 9.47409 36.191 9.47409C36.1064 9.38983 36.0217 9.38983 35.9371 9.30557C35.8525 9.22131 35.7679 9.22132 35.6832 9.13706C35.5986 9.0528 35.514 9.0528 35.514 9.0528C35.4294 9.0528 35.4294 8.96854 35.3448 8.96854C35.2601 8.88428 35.1755 8.88428 35.1755 8.88428C35.1755 8.88428 35.1755 8.88428 35.2601 8.96854C35.3448 9.0528 35.4294 9.13706 35.5986 9.22131C35.6832 9.30557 35.7679 9.30557 35.7679 9.38983C35.8525 9.47409 35.9371 9.47409 36.0217 9.55835C36.1064 9.64261 36.191 9.72687 36.2756 9.72687C36.3602 9.81113 36.4448 9.89539 36.5295 9.97965C36.6141 10.0639 36.6987 10.1482 36.7833 10.2324C36.9526 10.3167 36.9526 10.4009 37.0372 10.4852C37.1218 10.5695 37.1218 10.6537 37.2064 10.738C37.2911 10.8222 37.2911 10.9065 37.3757 10.9908C37.3757 11.075 37.4603 11.1593 37.4603 11.1593C37.4603 11.2435 37.5449 11.2435 37.5449 11.3278V11.412Z" fill="#43C737"/>
<path d="M36.8679 9.1369C36.9525 9.05264 36.9525 8.96838 36.9525 8.88412C36.9525 8.79986 36.9525 8.79987 37.0371 8.71561V8.63135V8.54709C37.0371 8.46283 37.0371 8.46283 37.0371 8.37857C37.0371 8.29431 37.0371 8.29431 37.0371 8.21005C37.0371 8.12579 37.0371 8.12579 37.0371 8.04153C37.0371 7.95727 37.0371 7.95728 37.0371 7.87302C37.0371 7.78876 37.0371 7.78876 37.0371 7.7045C37.0371 7.62024 37.0371 7.62024 36.9525 7.53598C36.9525 7.45172 36.8679 7.36746 36.8679 7.36746C36.8679 7.45172 36.8679 7.45172 36.8679 7.62024C36.8679 7.7045 36.8679 7.7045 36.8679 7.78876C36.8679 7.87302 36.8679 7.87302 36.8679 7.95727C36.8679 8.04153 36.8679 8.04153 36.8679 8.12579C36.8679 8.21005 36.8679 8.21005 36.8679 8.29431C36.8679 8.37857 36.8679 8.37857 36.8679 8.46283C36.8679 8.54709 36.8679 8.54709 36.8679 8.63135V8.71561V8.79987C36.8679 8.88412 36.8679 8.88412 36.8679 8.96838V9.05264C36.8679 9.05264 36.8679 9.05264 36.8679 9.1369Z" fill="#43C737"/>
<path d="M29.5904 16.8047C29.5904 16.8047 28.9981 14.2769 26.4594 13.013C25.7824 12.676 25.6978 12.676 25.1901 12.0862C24.767 11.4964 23.7515 10.9908 22.8207 11.1593C21.8899 11.3278 21.8052 12.1704 22.0591 13.013C22.313 13.8556 22.0591 14.0241 21.4667 14.7825C20.8744 15.5408 20.6205 16.8047 21.1283 17.4787C21.636 18.2371 21.636 18.1528 21.7206 18.7426C21.7206 19.3324 22.0591 19.4167 22.6514 19.5852C23.2438 19.6695 23.3284 19.9223 23.6669 20.5963C24.0054 21.2704 24.5977 21.4389 25.3593 21.3547C26.1209 21.2704 26.0363 20.5121 26.6287 21.0176C27.221 21.5232 27.898 22.113 28.8288 21.5232C29.6751 20.9334 29.3366 20.6806 29.2519 20.3436C29.1673 20.0065 29.6751 20.0065 30.0135 20.0908C30.5213 20.175 30.4366 19.838 30.2674 18.9954C30.0135 18.3213 29.8443 17.9 29.5904 16.8047Z" fill="#0E7B19"/>
<path opacity="0.5" d="M21.4661 14.867C22.0584 14.1087 22.3123 13.9402 22.0584 13.0976C21.8892 12.3392 21.8892 11.5809 22.5662 11.3281C22.5662 11.4124 22.6508 11.4966 22.6508 11.6652C22.82 11.9179 22.9893 12.0865 23.1585 12.255C23.497 12.5077 23.7509 12.8448 24.0047 13.0976C25.1894 14.2772 26.1203 15.7939 26.7972 17.3948C26.9665 17.8161 27.1357 18.2374 27.305 18.6587C27.3896 18.9957 27.4742 19.3327 27.5588 19.6698C27.7281 20.0911 27.982 20.5124 28.4051 20.7651C28.5743 20.9337 28.8282 21.0179 29.082 21.1864C28.9974 21.2707 28.8282 21.4392 28.5743 21.6077C27.7281 22.1975 26.9665 21.6077 26.3741 21.1022C25.7818 20.5966 25.8664 21.3549 25.1048 21.4392C24.3432 21.5235 23.7509 21.3549 23.4124 20.6809C23.0739 20.0068 22.9893 19.8383 22.3969 19.6698C21.8046 19.5855 21.4661 19.417 21.4661 18.8272C21.4661 18.2374 21.4661 18.3216 20.8737 17.5633C20.6199 16.8892 20.9583 15.6253 21.4661 14.867Z" fill="#0E7B19"/>
<path d="M10.7182 14.9512C10.7182 14.9512 10.7182 13.9401 9.87198 14.0243C9.195 14.0243 9.02575 13.6873 8.94113 13.1817C8.85651 12.5919 8.34879 12.0021 7.41795 12.3391C6.40249 12.6762 4.03307 13.7716 3.01761 13.1817C1.91753 12.5919 1.49442 12.5919 1.15593 12.929C0.817445 13.266 0.986689 13.6873 1.15593 14.0243C1.32518 14.3614 0.986696 14.6141 0.648209 14.8669C0.309722 15.1197 -0.0287733 15.541 0.309714 16.2993C0.648201 17.0577 0.986691 17.0577 1.4098 16.8891C1.83291 16.7206 2.25601 16.6364 2.42526 17.2262C2.5945 17.7317 2.42526 18.3215 2.84837 18.6586C3.3561 18.9956 3.77921 18.5743 3.94845 18.4058C4.37156 18.153 4.37156 18.9114 5.21778 19.0799C6.064 19.2484 7.92568 19.4169 9.02576 19.2484C10.1258 19.0799 11.0567 18.9114 11.1413 17.816C11.3105 16.5521 10.549 15.9623 10.7182 14.9512Z" fill="#43C737"/>
<path d="M0.563543 14.7826C0.902031 14.5298 1.24052 14.2771 1.07128 13.94C0.986658 13.6873 0.817404 13.3502 0.902025 13.0132C1.15589 13.0974 1.49438 13.1817 1.74824 13.4345C2.08673 13.6873 2.50984 14.0243 2.67909 14.4456C2.84833 14.7826 2.93295 15.1197 3.1022 15.4567C3.18682 15.6252 3.27144 15.878 3.44068 15.9622C3.69454 16.1308 4.03304 16.215 4.37152 16.2993C4.79463 16.3835 5.13311 16.4678 5.55622 16.5521C5.72547 16.5521 6.06396 16.5521 6.2332 16.6363C6.40244 16.7206 6.48706 16.8048 6.65631 16.8891C6.91017 17.0576 7.24867 17.1419 7.58715 17.2261C8.01026 17.3104 8.34875 17.4789 8.68724 17.7317C9.02573 17.9002 9.78732 18.4058 9.95657 17.7317C9.95657 17.5632 10.0412 17.4789 10.0412 17.3104C10.1258 17.1419 10.2104 16.9734 10.2104 16.8048C10.295 16.5521 10.1258 16.2993 10.0412 16.1308C9.95656 15.9622 9.78731 15.7095 9.78731 15.4567C9.78731 15.2039 9.87194 15.0354 9.95657 14.7826C10.0412 14.6141 10.1258 14.4456 10.2104 14.2771C10.2104 14.2771 10.2104 14.1928 10.295 14.1928C10.4643 14.4456 10.4643 14.7826 10.4643 14.7826C10.295 15.7937 11.0566 16.4678 10.8874 17.5632C10.7182 18.6585 9.78731 18.8271 8.77185 18.9956C7.67177 19.1641 5.81009 18.9956 4.96387 18.8271C4.11766 18.7428 4.11766 17.9002 3.69455 18.153C3.5253 18.3215 3.10219 18.7428 2.59446 18.4058C2.08673 18.0687 2.3406 17.4789 2.17135 16.9734C1.91749 16.4678 1.49438 16.4678 1.15589 16.6363C0.732784 16.8048 0.394295 16.8048 0.0558081 16.0465C-0.113436 15.4567 0.225057 15.1197 0.563543 14.7826Z" fill="#2A9E1C"/>
<path d="M21.9747 24.1355C21.9747 24.1355 21.1285 25.5679 20.6207 25.4837C20.113 25.3994 20.2823 24.6411 19.7745 24.7253C19.2668 24.8096 19.2668 25.7365 18.7591 25.6522C18.2513 25.5679 17.659 25.6522 17.2359 25.6522C16.8128 25.7365 16.1358 25.5679 15.6281 24.3883C15.205 23.1244 13.0894 19.9226 11.2277 18.3217C10.2969 17.4791 10.4661 17.4791 10.6354 16.8893C10.8046 16.2994 10.5508 16.3837 10.3815 16.0467C10.1277 15.7096 10.2969 15.1198 10.72 14.53C11.2277 13.9402 11.7355 14.3615 12.1586 14.53C12.6663 14.6985 12.5817 14.53 12.9202 14.193C13.2587 13.8559 13.7664 14.0244 14.4434 14.4457C15.1203 14.7828 15.205 15.2883 15.7973 14.9513C16.3897 14.6143 17.0666 14.7828 17.4051 15.4569C17.7436 16.1309 17.2359 17.142 17.9129 18.1531C18.9283 19.5855 18.9283 19.9226 20.1976 20.5967C21.467 21.2707 22.3978 23.2087 21.9747 24.1355Z" fill="#0E7B19"/>
<path opacity="0.5" d="M10.3807 16.0465C10.1269 15.7095 10.2961 15.1197 10.7192 14.5299C10.8038 14.4456 10.8038 14.4456 10.8884 14.3613C11.7347 14.7826 12.5809 15.2882 13.3425 15.7937C13.8502 16.1308 14.4426 16.5521 14.9503 16.9734C15.2042 17.1419 15.3734 17.3947 15.6273 17.5632C15.8811 17.7317 16.135 17.9845 16.3042 18.3215C16.4735 18.6585 16.7274 19.0798 17.0658 19.3326C17.4043 19.5011 17.6582 19.5011 17.9967 19.4169C18.1659 19.3326 18.4198 19.2484 18.589 19.1641C19.0121 19.8382 19.3506 20.0909 20.1968 20.5965C21.4662 21.2706 22.3124 23.2085 21.9739 24.2196C21.9739 24.2196 21.8047 24.5567 21.5508 24.8094C21.2969 24.3882 20.8738 24.0511 20.3661 23.8826C20.0276 23.7983 19.4353 23.7141 19.0968 23.9669C18.9275 24.0511 18.8429 24.3039 18.589 24.3039C18.3352 24.3039 18.1659 24.1354 17.9967 24.1354C17.3197 24.1354 16.8966 24.978 16.7274 25.4835C16.7274 25.5678 16.6427 25.652 16.6427 25.7363C16.3042 25.652 15.8811 25.315 15.5426 24.4724C15.1195 23.2085 13.004 20.0067 11.1423 18.4058C10.2115 17.5632 10.3807 17.5632 10.55 16.9734C10.8038 16.2993 10.55 16.3835 10.3807 16.0465Z" fill="#0E7B19"/>
<path d="M9.53375 4.50296C9.53375 4.50296 8.68752 4.08167 7.75668 4.16593C6.91047 4.25019 6.99509 4.67148 7.07971 4.92426C7.16433 5.2613 6.82585 5.2613 6.06425 4.92426C5.38728 4.67148 4.87954 4.67148 4.54105 5.09277C4.20257 5.51407 4.28719 5.85111 4.54105 6.2724C4.79492 6.6937 4.79492 7.03073 4.28719 7.19925C3.77946 7.36777 3.61022 8.04184 3.9487 8.46314C4.28719 8.88443 4.7103 8.63165 4.54105 9.05295C4.37181 9.47424 4.7103 9.64276 4.7103 9.64276L9.44912 7.95758C9.61836 7.87332 11.0569 6.6937 9.53375 4.50296Z" fill="#0E7B19"/>
<path d="M4.37218 8.71573C4.62604 8.63147 4.79529 8.46295 4.96453 8.29444C5.21839 7.9574 5.47226 7.62036 5.64151 7.19907C5.81075 6.86203 5.97999 6.27222 6.4031 6.27222C6.82621 6.27222 7.24931 6.44074 7.67242 6.52499C8.01091 6.60925 8.51864 6.69351 8.77251 6.52499C9.111 6.27222 8.94176 5.68241 8.85714 5.34537C8.77251 4.92407 8.85713 4.58704 8.94175 4.25C9.36486 4.33426 9.61873 4.50278 9.61873 4.50278C11.1419 6.69351 9.70335 7.87314 9.70335 7.87314L4.96453 9.55832C4.96453 9.55832 4.62604 9.3898 4.79529 8.96851C4.87991 8.71573 4.62604 8.79999 4.37218 8.71573Z" fill="#0E7B19"/>
<path d="M6.74104 6.18799L9.78742 7.53613C9.87204 8.37872 9.78743 9.72687 8.43348 11.1593C6.14869 13.5185 3.69466 13.6028 3.69466 13.6028L1.66374 10.738C5.72558 10.0639 6.74104 6.18799 6.74104 6.18799Z" fill="#FED622"/>
<path d="M8.34862 11.2433C9.70257 9.81085 9.78719 8.46271 9.70257 7.62012C9.78719 7.70438 9.87181 7.95716 10.2949 8.54697C10.1257 13.434 3.60981 14.2766 3.60981 14.2766L3.69442 13.6868C3.69442 13.6868 6.06383 13.6025 8.34862 11.2433Z" fill="#278318"/>
<path d="M1.6644 10.8218L3.69531 13.6866L3.6107 14.2764L1.74901 12.0857C1.74901 12.0857 1.6644 11.9171 1.6644 10.8218Z" fill="#F18622"/>
<path d="M17.8271 6.86214C17.8271 6.86214 15.9654 7.28343 15.9654 8.04177C15.9654 8.8001 15.7961 9.30565 14.4422 9.72695C13.0882 10.1482 12.242 10.064 11.1419 10.9908C10.0419 11.8334 9.36488 11.7492 9.02639 10.064C8.6879 8.46306 9.36488 7.62047 9.70337 6.9464C10.1265 6.35659 9.78799 5.93529 9.28026 5.42974C8.77253 4.92418 9.02639 4.16585 10.0418 3.6603C11.1419 3.15475 10.3803 2.90197 10.8035 2.14363C11.3112 1.3853 12.0728 1.3853 12.5805 1.63808C13.1729 1.8066 13.3421 1.63808 13.3421 0.96401C13.2575 0.289938 13.9345 -0.131359 14.6114 0.0371591C15.2884 0.121418 15.4576 0.711231 15.7115 0.879749C16.1346 1.21679 16.05 1.04827 16.5577 0.795492C17.0655 0.542715 17.8271 0.795493 17.8271 1.97512C17.7424 3.07049 17.9117 3.15474 18.2502 3.57604C18.504 3.99733 19.0118 4.67141 18.4194 5.17696C17.9117 5.68252 19.181 6.44085 17.8271 6.86214Z" fill="#43C737"/>
<path d="M10.0425 10.4011C11.058 9.55847 11.735 8.46311 12.4966 7.452C12.9197 6.77793 13.4274 5.85107 14.2736 5.68256C14.866 5.51404 15.3737 5.42978 15.7968 5.00848C16.4738 4.25015 16.3045 3.07053 16.1353 2.14368C15.9661 1.55386 15.7968 0.96405 15.5429 0.458496C15.7122 0.627014 15.7968 0.795534 15.8814 0.964052C16.3045 1.30109 16.2199 1.13257 16.7276 0.879791C17.2354 0.627014 17.997 0.879793 17.997 2.05942C17.9124 3.15479 18.0816 3.23905 18.4201 3.66034C18.6739 4.08164 19.1817 4.75571 18.5893 5.26126C17.997 5.76682 19.2663 6.52515 17.9124 6.94644C17.9124 6.94644 16.0507 7.36774 16.0507 8.12607C16.0507 8.8844 15.8814 9.38995 14.5275 9.81125C13.1735 10.2325 12.3273 10.1483 11.2272 11.0751C10.381 11.7492 9.78866 11.8335 9.36555 11.0751C9.53479 10.8224 9.78866 10.6538 10.0425 10.4011Z" fill="#2A9E1C"/>
<path d="M16.4746 4.16602C16.4746 4.16602 16.39 4.25027 16.2207 4.41879C16.0515 4.58731 15.8823 4.84009 15.6284 5.09286C15.4591 5.17712 15.2899 5.34564 15.1207 5.4299C14.9514 5.51416 14.6975 5.59842 14.5283 5.68268C14.2744 5.76694 14.1052 5.85119 13.8513 5.93545C13.7667 5.93545 13.7667 6.01971 13.6821 6.01971C13.5975 6.01971 13.5975 6.10397 13.5128 6.10397C13.4282 6.10397 13.4282 6.18823 13.3436 6.18823L13.259 6.27249L13.1744 6.35675C13.0051 6.52527 12.8359 6.77804 12.7513 6.94656C12.582 7.19934 12.4974 7.36786 12.4128 7.62063C12.3281 7.78915 12.1589 8.04193 12.0743 8.21045C11.9897 8.29471 11.9897 8.37897 11.905 8.46322C11.8204 8.54748 11.8204 8.63174 11.7358 8.716C11.6512 8.88452 11.5665 9.05304 11.4819 9.1373C11.3973 9.30582 11.3127 9.39007 11.2281 9.47433C11.0588 9.64285 11.0588 9.72711 11.0588 9.72711C11.0588 9.72711 11.1434 9.64285 11.3127 9.47433C11.3973 9.39007 11.4819 9.30582 11.5665 9.1373C11.6512 9.05304 11.7358 8.88452 11.905 8.716C11.9897 8.63174 11.9897 8.54748 12.0743 8.46322C12.1589 8.37897 12.2435 8.29471 12.2435 8.21045C12.3281 8.04193 12.4974 7.78915 12.582 7.62063C12.6666 7.45212 12.8359 7.19934 12.9205 7.03082C13.0897 6.86231 13.1744 6.60953 13.3436 6.44101C13.3436 6.44101 13.3436 6.44101 13.4282 6.35675L13.5128 6.27249C13.5975 6.27249 13.5975 6.18823 13.6821 6.18823C13.7667 6.18823 13.7667 6.10397 13.8513 6.10397C13.936 6.10397 13.936 6.01971 14.0206 6.01971C14.2744 5.93546 14.4437 5.8512 14.6975 5.76694C14.9514 5.68268 15.1207 5.59842 15.2899 5.51416C15.4591 5.4299 15.6284 5.26138 15.7976 5.17712C15.9669 5.00861 16.0515 4.92435 16.1361 4.75583C16.2207 4.67157 16.3054 4.50305 16.39 4.41879C16.39 4.33453 16.4746 4.16602 16.4746 4.16602Z" fill="#43C737"/>
<path d="M11.7365 8.71621C11.7365 8.71621 11.8212 8.71621 11.9904 8.71621H12.075H12.1596C12.2443 8.71621 12.3289 8.71621 12.4135 8.63188C12.5828 8.54756 12.752 8.54755 12.8366 8.46323C12.9212 8.3789 13.0059 8.37891 13.0059 8.37891C13.0059 8.37891 12.9212 8.37891 12.752 8.37891C12.5828 8.37891 12.4135 8.46323 12.2443 8.46323C12.1596 8.46323 12.075 8.54756 11.9904 8.54756C11.9058 8.54756 11.8212 8.63188 11.7365 8.63188C11.8212 8.63188 11.7365 8.71621 11.7365 8.71621Z" fill="#43C737"/>
<path d="M14.8672 2.7334C14.8672 2.7334 14.8672 2.81766 14.8672 2.90192C14.8672 3.07044 14.7826 3.23895 14.7826 3.40747C14.7826 3.49173 14.698 3.66025 14.698 3.74451C14.698 3.82877 14.6134 3.82877 14.6134 3.91303C14.6134 3.99729 14.5287 4.08154 14.5287 4.08154C14.4441 4.25006 14.3595 4.33432 14.2749 4.50284C14.2749 4.5871 14.1903 4.5871 14.1056 4.67136C14.021 4.75561 14.021 4.75561 13.9364 4.83987C13.8518 4.92413 13.7671 5.09265 13.6825 5.17691C13.5979 5.26117 13.5133 5.42969 13.4287 5.51395C13.344 5.5982 13.2594 5.76672 13.1748 5.85098C13.0902 5.93524 13.0055 6.10376 13.0055 6.18802C12.9209 6.27228 12.9209 6.35654 12.8363 6.4408V6.52505V6.60932V6.69357C12.8363 6.77783 12.8363 6.77783 12.8363 6.86209V6.94635C12.8363 6.94635 12.8363 6.94635 12.8363 6.86209C12.8363 6.86209 12.8363 6.77783 12.8363 6.69357V6.60932C12.8363 6.60932 12.8363 6.60931 12.8363 6.52505C12.8363 6.52505 12.8363 6.52506 12.8363 6.4408C12.9209 6.35654 12.9209 6.27228 13.0055 6.18802C13.0902 6.10376 13.1748 6.0195 13.2594 5.85098C13.2594 5.76672 13.344 5.76672 13.344 5.68246C13.4287 5.59821 13.4287 5.5982 13.5133 5.51395C13.5979 5.42969 13.6825 5.26117 13.8518 5.17691C13.9364 5.09265 14.021 4.92413 14.1903 4.83987C14.2749 4.75561 14.2749 4.75561 14.3595 4.67136C14.4441 4.5871 14.4441 4.50284 14.5287 4.50284C14.6134 4.33432 14.698 4.25006 14.7826 4.08154C14.7826 3.99729 14.8672 3.91303 14.8672 3.91303C14.8672 3.82877 14.9519 3.74451 14.9519 3.74451C15.0365 3.66025 15.0365 3.49173 15.0365 3.40747C15.1211 3.15469 15.1211 2.98618 15.1211 2.81766C14.8672 2.81766 14.8672 2.7334 14.8672 2.7334Z" fill="#43C737"/>
<path d="M12.9199 3.82861C12.9199 3.82861 12.9199 3.82862 12.9199 3.91287C12.9199 3.99713 12.9199 4.08139 12.8353 4.16565C12.8353 4.24991 12.8353 4.41843 12.7507 4.58695C12.7507 4.75546 12.7507 4.92398 12.7507 5.0925C12.7507 5.26102 12.7507 5.42954 12.7507 5.59805C12.7507 5.76657 12.7507 5.85083 12.7507 6.01935C12.7507 6.10361 12.7507 6.27213 12.7507 6.27213C12.7507 6.18787 12.7507 6.10361 12.7507 6.01935C12.7507 5.93509 12.7507 5.76657 12.7507 5.59805C12.7507 5.42954 12.7507 5.26102 12.7507 5.17676C12.7507 5.00824 12.7507 4.83972 12.7507 4.75546C12.7507 4.58695 12.7507 4.50269 12.7507 4.33417C12.7507 4.24991 12.7507 4.08139 12.7507 4.08139C12.9199 3.91287 12.9199 3.82861 12.9199 3.82861Z" fill="#43C737"/>
<path d="M9.36487 4.75544C9.53411 4.4184 9.70336 4.08136 10.0418 3.82859C10.2111 3.66007 10.465 3.66007 10.7188 3.57581C11.1419 3.40729 11.1419 2.986 11.1419 2.64896C11.1419 1.72211 11.9035 1.55359 12.6651 1.89063C12.6651 1.89063 12.8344 1.97489 12.7497 1.97489C12.1574 1.80637 11.4804 1.80637 11.3112 2.48044C11.2265 2.81748 11.3958 3.15452 11.2266 3.49155C11.1419 3.74433 10.8881 3.82859 10.6342 3.91285C10.0418 4.08137 9.53412 4.50266 9.28025 5.00822C9.28025 5.09247 9.36487 4.8397 9.36487 4.75544Z" fill="#42B819"/>
<path d="M23.75 12.5918C23.75 12.5918 23.8346 12.6761 24.0038 12.8446C24.1731 13.0131 24.3423 13.2659 24.5962 13.6029C24.6808 13.7714 24.8501 13.9399 24.9347 14.1085C25.0193 14.1927 25.1039 14.277 25.1039 14.3612C25.1885 14.4455 25.2732 14.5298 25.2732 14.614C25.4424 14.7825 25.527 15.0353 25.6963 15.2038C25.8655 15.4566 25.9501 15.6251 26.1194 15.8779C26.204 16.1307 26.3733 16.2992 26.4579 16.552C26.5425 16.6362 26.5425 16.8047 26.6271 16.889C26.6271 16.9733 26.7117 16.9733 26.7117 17.0575C26.7117 17.1418 26.7964 17.1418 26.7964 17.226C26.881 17.3103 26.881 17.4788 26.9656 17.5631C26.9656 17.6473 27.0502 17.6473 27.0502 17.7316C27.0502 17.8159 27.0502 17.8159 27.1348 17.9001C27.1348 17.9844 27.2195 18.0686 27.2195 18.2371C27.2195 18.3214 27.3041 18.4057 27.3041 18.4899C27.3887 18.6584 27.3887 18.827 27.4733 18.9955C27.4733 19.164 27.558 19.2483 27.558 19.4168C27.558 19.6696 27.6426 19.7538 27.6426 19.7538C27.6426 19.7538 27.6426 19.5853 27.6426 19.4168C27.6426 19.3325 27.6426 19.164 27.558 18.9955C27.558 18.827 27.4733 18.6584 27.4733 18.4899C27.4733 18.4057 27.3887 18.3214 27.3887 18.2371C27.3887 18.1529 27.3041 18.0686 27.3041 17.9001C27.3041 17.8159 27.3041 17.8159 27.2195 17.7316C27.2195 17.6473 27.2195 17.6473 27.1348 17.5631C27.1348 17.4788 27.0502 17.3103 26.9656 17.226C26.9656 17.1418 26.881 17.1418 26.881 17.0575C26.881 16.9733 26.7964 16.9733 26.7964 16.889C26.7117 16.8047 26.7117 16.6362 26.6271 16.552C26.5425 16.2992 26.3733 16.1307 26.2886 15.8779C26.1194 15.6251 26.0348 15.4566 25.8655 15.2038C25.6963 14.951 25.6117 14.7825 25.4424 14.614C25.3578 14.5298 25.2732 14.4455 25.2732 14.3612C25.1885 14.277 25.1039 14.1927 25.1039 14.1085C24.9347 13.9399 24.8501 13.7714 24.6808 13.6029C24.427 13.2659 24.2577 13.0974 24.0885 12.9288C23.8346 12.6761 23.75 12.5918 23.75 12.5918Z" fill="#0E7B19"/>
<path d="M25.5274 14.8667C25.5274 14.8667 25.5274 14.951 25.612 15.0352C25.612 15.1195 25.6966 15.288 25.6966 15.4565C25.6966 15.5408 25.6966 15.625 25.7812 15.7936C25.7812 15.8778 25.7812 16.0463 25.7812 16.1306C25.7812 16.2148 25.7812 16.3834 25.7812 16.4676C25.7812 16.6361 25.7812 16.7204 25.7812 16.8889C25.7812 17.0574 25.7812 17.1417 25.7812 17.3102C25.7812 17.4787 25.7812 17.563 25.7812 17.6472C25.7812 17.7315 25.7812 17.9 25.6966 17.9843C25.6966 18.0685 25.6966 18.0685 25.6966 18.1528C25.6966 18.2371 25.6966 18.2371 25.6966 18.3213C25.6966 18.4056 25.6966 18.4898 25.612 18.5741C25.612 18.6584 25.612 18.7426 25.5274 18.7426C25.5274 18.8269 25.4428 18.9111 25.4428 18.9111C25.4428 18.9111 25.4428 18.8269 25.5274 18.7426C25.5274 18.6584 25.612 18.6584 25.612 18.5741C25.612 18.4898 25.6966 18.4056 25.6966 18.3213C25.6966 18.2371 25.6966 18.2371 25.6966 18.1528C25.6966 18.0685 25.6966 18.0685 25.6966 17.9843C25.6966 17.9 25.7812 17.7315 25.7812 17.6472C25.7812 17.563 25.7812 17.3945 25.7812 17.226C25.7812 17.0574 25.7812 16.9732 25.7812 16.8047C25.7812 16.6361 25.7812 16.5519 25.7812 16.3834C25.7812 16.2148 25.7812 16.1306 25.7812 16.0463C25.7812 15.7935 25.6966 15.5408 25.6966 15.3723C25.612 15.2037 25.612 15.0352 25.5274 14.951C25.5274 14.8667 25.5274 14.8667 25.5274 14.8667Z" fill="#0E7B19"/>
<path d="M25.1885 14.4453C25.1885 14.4453 25.1885 14.4453 25.2731 14.5296C25.3577 14.5296 25.4424 14.6138 25.527 14.6981C25.6116 14.7824 25.7809 14.8666 25.9501 14.9509C26.0347 15.0351 26.1194 15.0351 26.204 15.1194C26.2886 15.2036 26.3732 15.2036 26.4578 15.2879C26.5425 15.3722 26.6271 15.3722 26.6271 15.4564C26.7117 15.5407 26.7963 15.5407 26.7963 15.6249C26.8809 15.7092 26.8809 15.7092 26.9656 15.7935C27.0502 15.8777 27.0502 15.8777 27.1348 15.962C27.2194 16.0462 27.2194 16.0462 27.2194 16.1305C27.2194 16.0462 27.1348 16.0462 27.1348 15.962C27.1348 15.8777 27.0502 15.8777 26.9656 15.7935C26.8809 15.7092 26.8809 15.7092 26.7963 15.6249C26.7117 15.5407 26.7117 15.5407 26.6271 15.4564C26.5425 15.3722 26.4578 15.3722 26.3732 15.2879C26.2886 15.2036 26.204 15.2036 26.1193 15.1194C26.0347 15.0351 25.9501 15.0351 25.8655 14.9509C25.6962 14.8666 25.6116 14.7823 25.4424 14.7823C25.3578 14.6981 25.1885 14.6981 25.1039 14.6981C25.2731 14.4453 25.1885 14.4453 25.1885 14.4453Z" fill="#0E7B19"/>
<path d="M28.9129 6.01977C28.9129 6.01977 30.013 3.40774 28.0667 2.31237C27.3051 2.05959 26.205 2.39663 25.6127 1.6383C25.0203 0.879965 24.5972 0.795707 23.9202 1.13274C23.2433 1.38552 22.4817 1.6383 21.5508 1.30126C20.7046 0.964223 19.7738 0.964224 19.0968 1.46978C18.3352 1.97533 17.8275 2.98644 18.4198 3.82903C19.0122 4.67162 18.8429 5.00866 18.8429 5.51421C18.9276 6.01976 19.3507 6.7781 20.5354 6.86236C21.7201 6.94662 21.9739 7.11513 22.2278 7.7892C22.4817 8.54754 22.9048 10.317 24.5972 10.2327C26.1204 10.0642 27.9821 7.70495 28.9129 6.01977Z" fill="#0E7B19"/>
<path opacity="0.5" d="M19.011 1.3851C19.1803 1.21658 19.4341 1.13232 19.6034 1.13232C19.8573 1.30084 20.1111 1.46936 20.365 1.63788C21.042 1.97491 21.7189 2.14343 22.3959 2.39621C24.0037 3.07028 25.6962 4.83972 26.3731 6.44064C26.7962 7.45175 26.5424 7.78879 26.8809 8.79989C26.1193 9.55823 25.273 10.148 24.5115 10.148C22.819 10.2323 22.3959 8.3786 22.142 7.70453C21.8882 6.9462 21.6343 6.86194 20.4496 6.77768C19.2649 6.69342 18.8418 5.93509 18.7572 5.42953C18.6725 4.92398 18.8418 4.58694 18.3341 3.74435C17.7417 2.90176 18.2494 1.89065 19.011 1.3851Z" fill="#0E7B19"/>
<path d="M12.4121 25.2305L12.666 25.736L12.1583 26.2416L11.989 25.8203L12.4121 25.2305Z" fill="#FE8A7A"/>
<path d="M12.1582 26.2419C12.1582 26.2419 10.9735 26.3262 9.45031 25.8206C9.45031 25.3151 9.45031 25.3993 9.45031 25.3993L11.989 25.7363L12.1582 26.2419Z" fill="#FC6373"/>
<path d="M12.4121 25.2307L11.989 25.8205L9.45035 25.4834L9.95808 24.7251L12.4121 25.2307Z" fill="#FC7B78"/>
<path d="M9.95637 19.6695C9.95637 19.6695 8.26393 18.0686 3.102 19.6695C1.40956 19.6695 0.140243 20.4279 0.224865 21.3547C0.224865 22.3658 0.732595 22.6186 1.07108 22.8714C1.40957 23.1241 1.57881 23.5454 1.66343 23.9667C1.74805 24.3038 2.34041 24.9778 3.35587 24.7251C3.8636 24.6408 3.94822 23.9667 3.94822 23.9667C3.94822 23.9667 5.0483 25.0621 5.97913 24.9778C6.90997 24.8936 6.65611 23.8825 7.33309 23.8825C8.01006 23.7982 8.26393 24.7251 9.11015 24.388C9.95637 24.051 9.36402 23.6297 9.53326 23.1241C9.61788 22.6186 10.041 22.9556 10.1256 22.3658C10.2102 21.8603 9.78712 21.776 10.041 21.5232C10.3795 21.1019 10.3795 20.0908 9.95637 19.6695Z" fill="#0E7B19"/>
<path opacity="0.5" d="M2.08661 22.3657C2.84821 22.2814 3.6098 22.1972 4.28677 21.8601C5.04837 21.5231 5.64072 21.0175 6.40232 20.7648C7.07929 20.5962 7.75627 20.4277 8.43325 20.4277C9.0256 20.4277 9.70257 20.512 10.2949 20.6805C10.2949 20.9333 10.2103 21.1861 10.1257 21.3546C9.87182 21.6074 10.2949 21.6916 10.2103 22.1972C10.1257 22.7027 9.70257 22.45 9.61795 22.9555C9.53332 23.4611 10.0411 23.8824 9.19484 24.2194C8.34862 24.5564 8.09476 23.7138 7.41779 23.7138C6.74081 23.7981 6.99467 24.7249 6.06383 24.8092C5.13299 24.8935 4.03292 23.7981 4.03292 23.7981C4.03292 23.7981 3.94828 24.4722 3.44055 24.5564C2.42509 24.8092 1.83274 24.2194 1.74812 23.7981C1.6635 23.4611 1.49426 22.9555 1.15577 22.7027C0.986525 22.5342 0.732662 22.45 0.563418 22.1129C0.986527 22.3657 1.49426 22.3657 2.08661 22.3657Z" fill="#0E7B19"/>
<path d="M9.44926 20.4277C9.28001 20.4277 9.02615 20.4277 8.77228 20.4277C8.60304 20.4277 8.51842 20.4277 8.34917 20.4277C8.17993 20.4277 8.01069 20.4277 7.84145 20.512C7.67221 20.512 7.50296 20.5962 7.33371 20.5962C7.16447 20.5962 6.99523 20.6805 6.74136 20.7648C6.65674 20.7648 6.57212 20.849 6.4875 20.849H6.31825L6.14901 20.9333C5.97977 21.0175 5.81052 21.0175 5.64128 21.1018C5.47203 21.1861 5.30279 21.2703 5.21817 21.3546C5.13355 21.3546 5.04893 21.4388 5.04893 21.4388C5.04893 21.4388 4.9643 21.4388 4.9643 21.5231C4.9643 21.5231 4.87969 21.5231 4.87969 21.6074C4.79506 21.6916 4.62581 21.7759 4.54119 21.8601C4.45657 21.9444 4.37195 22.0287 4.28732 22.0287C4.2027 22.1129 4.11808 22.1972 4.11808 22.1972C4.11808 22.1972 4.20271 22.1129 4.37195 22.0287C4.45657 21.9444 4.5412 21.9444 4.62582 21.8601C4.71044 21.7759 4.79506 21.7759 4.9643 21.6916C4.9643 21.6916 5.04893 21.6916 5.04893 21.6074C5.04893 21.6074 5.13354 21.6074 5.13354 21.5231C5.21816 21.5231 5.3028 21.4388 5.3028 21.4388C5.47204 21.3546 5.64128 21.2703 5.7259 21.2703C5.89515 21.1861 6.06438 21.1861 6.23363 21.1018L6.40287 21.0175H6.57212C6.65674 21.0175 6.74136 20.9333 6.82598 20.9333C6.99522 20.849 7.16447 20.849 7.33371 20.7648C7.50296 20.7648 7.67221 20.6805 7.84145 20.6805C8.01069 20.6805 8.17993 20.5962 8.34917 20.5962C8.51842 20.5962 8.68766 20.5963 8.77228 20.512C9.02615 20.512 9.28001 20.4277 9.44926 20.4277Z" fill="#0E7B19"/>
<path d="M6.82617 20.6804C6.82617 20.6804 6.82618 20.6804 6.74156 20.5961C6.65694 20.5961 6.57231 20.5118 6.48769 20.4276C6.40307 20.4276 6.31845 20.3433 6.31845 20.3433C6.23383 20.3433 6.1492 20.2591 6.06458 20.2591C5.97996 20.2591 5.89534 20.2591 5.81071 20.1748C5.72609 20.1748 5.64147 20.1748 5.55685 20.1748C5.47222 20.1748 5.38761 20.1748 5.30299 20.1748C5.21837 20.1748 5.13374 20.1748 5.04912 20.1748C4.9645 20.1748 4.87988 20.1748 4.79525 20.1748C4.71063 20.1748 4.62601 20.1748 4.54139 20.1748C4.45677 20.1748 4.37215 20.1748 4.37215 20.1748C4.28752 20.1748 4.28753 20.1748 4.2029 20.1748C4.11828 20.1748 4.11828 20.1748 4.11828 20.1748H4.2029C4.2029 20.1748 4.28752 20.1748 4.37215 20.1748C4.45677 20.1748 4.45677 20.1748 4.54139 20.1748C4.62601 20.1748 4.71063 20.1748 4.79525 20.1748C4.87988 20.1748 4.9645 20.1748 5.04912 20.1748C5.21837 20.1748 5.3876 20.1748 5.55685 20.1748C5.64147 20.1748 5.72609 20.1748 5.81071 20.1748C5.89534 20.1748 5.97996 20.1748 6.06458 20.2591C6.23382 20.2591 6.40307 20.3433 6.48769 20.3433C6.65693 20.5961 6.82617 20.6804 6.82617 20.6804Z" fill="#0E7B19"/>
<path d="M8.51758 20.4277C8.51758 20.4277 8.43297 20.4277 8.26372 20.512C8.1791 20.512 8.09448 20.5962 8.00986 20.6805C7.92523 20.7648 7.84061 20.7648 7.75599 20.849C7.67137 20.849 7.67137 20.9333 7.58675 20.9333C7.50212 20.9333 7.50212 21.0175 7.50212 21.0175L7.41751 21.1018L7.33288 21.1861C7.24826 21.2703 7.24825 21.3546 7.24825 21.3546V21.4388C7.24825 21.4388 7.24826 21.4388 7.33288 21.3546C7.33288 21.3546 7.4175 21.2703 7.50212 21.1861L7.58675 21.1018L7.67136 21.0175L7.75599 20.9333C7.75599 20.9333 7.84061 20.849 7.92523 20.849C8.00985 20.849 8.00985 20.7648 8.09447 20.7648C8.17909 20.7648 8.1791 20.6805 8.26372 20.6805C8.34834 20.5962 8.43296 20.5963 8.51758 20.512C8.43296 20.512 8.51758 20.4277 8.51758 20.4277Z" fill="#0E7B19"/>
<path d="M26.459 6.69363C26.3744 6.60938 26.3744 6.52512 26.3744 6.44086C26.2897 6.27234 26.2051 6.10382 26.1205 5.85104C26.0359 5.76679 25.9513 5.59827 25.9513 5.51401C25.8666 5.34549 25.782 5.26123 25.6974 5.09271C25.6128 4.92419 25.5281 4.83993 25.3589 4.67142C25.2743 4.5029 25.105 4.41864 25.0204 4.25012C24.7666 3.99734 24.5127 3.74457 24.2588 3.49179C24.0896 3.40753 24.005 3.32328 23.8357 3.23902C23.7511 3.15476 23.5818 3.0705 23.4972 2.98624C23.4126 2.90198 23.2434 2.81772 23.1587 2.81772C23.0741 2.73346 22.9895 2.73346 22.9049 2.6492C22.7356 2.56494 22.651 2.56494 22.651 2.56494C22.651 2.56494 22.7356 2.6492 22.8203 2.73346C22.9049 2.73346 22.9895 2.81772 23.0741 2.90198C23.1587 2.98624 23.2434 3.0705 23.4126 3.0705C23.4972 3.15476 23.6665 3.23901 23.7511 3.32327C23.8357 3.40753 24.005 3.49179 24.0896 3.66031C24.3434 3.91309 24.5973 4.0816 24.8512 4.41864C24.9358 4.58716 25.105 4.67142 25.1897 4.83994C25.2743 5.00845 25.4435 5.09271 25.5281 5.26123C25.6974 5.51401 25.8666 5.76679 26.0359 6.01956C26.2051 6.27234 26.2897 6.44086 26.3744 6.60938C26.3744 6.52512 26.459 6.60938 26.459 6.69363Z" fill="#43C737"/>
<path d="M24.6817 2.56494C24.6817 2.56494 24.6817 2.6492 24.7663 2.81772C24.7663 2.90198 24.8509 2.98624 24.8509 3.0705C24.8509 3.15476 24.8509 3.15476 24.8509 3.23902C24.8509 3.32328 24.8509 3.32327 24.8509 3.40753C24.8509 3.49179 24.8509 3.49179 24.8509 3.57605C24.8509 3.66031 24.8509 3.66031 24.8509 3.74457C24.8509 3.82883 24.9355 3.91309 24.9355 3.99735C24.9355 4.0816 24.9355 4.16586 24.9355 4.16586C24.9355 4.08161 24.9355 4.08161 24.9355 3.91309C24.9355 3.82883 24.9355 3.74457 24.9355 3.57605C24.9355 3.49179 24.9355 3.49179 24.9355 3.40753C24.9355 3.32327 24.9355 3.32328 24.9355 3.23902C24.9355 3.15476 24.8509 2.98624 24.8509 2.90198C24.8509 2.81772 24.7663 2.73346 24.7663 2.6492C24.6817 2.6492 24.6817 2.56494 24.6817 2.56494Z" fill="#43C737"/>
<path d="M16.9805 19.585C16.9805 19.585 16.9805 19.5007 16.8958 19.3322C16.8112 19.1637 16.7266 18.9951 16.5574 18.7424C16.4727 18.6581 16.3881 18.4896 16.3035 18.4053C16.2189 18.3211 16.1343 18.1526 16.0496 17.984C15.965 17.8998 15.7958 17.7313 15.7111 17.5627C15.6265 17.3942 15.4573 17.31 15.3727 17.1415L15.2034 16.9729C15.1188 16.8887 15.0342 16.8887 15.0342 16.8044C14.9495 16.7202 14.7803 16.5516 14.6111 16.4674C14.5264 16.3831 14.3572 16.2989 14.2726 16.2146C14.1879 16.1303 14.1879 16.1303 14.1033 16.0461C14.0187 16.0461 14.0187 15.9618 13.9341 15.9618C13.8495 15.8776 13.6802 15.7933 13.5956 15.7933C13.511 15.709 13.4264 15.709 13.3417 15.6248C13.1725 15.5405 13.0879 15.5405 13.0879 15.5405C13.0879 15.5405 13.1725 15.6248 13.2571 15.709C13.3417 15.709 13.4264 15.7933 13.511 15.8776C13.5956 15.9618 13.6802 16.0461 13.7648 16.0461C13.8495 16.0461 13.8495 16.1303 13.9341 16.1303C14.0187 16.2146 14.0187 16.2146 14.1033 16.2989C14.1879 16.3831 14.3572 16.4674 14.4418 16.6359C14.5264 16.7202 14.6957 16.8887 14.7803 16.9729C14.8649 17.0572 14.8649 17.0572 14.9495 17.1415L15.1188 17.31C15.2034 17.3942 15.3727 17.5627 15.4573 17.7313C15.5419 17.8155 15.7111 17.984 15.7958 18.1526C15.8804 18.3211 15.965 18.4053 16.1343 18.4896C16.2189 18.5739 16.3035 18.7424 16.3881 18.8266C16.5574 19.0794 16.642 19.2479 16.7266 19.3322C16.8958 19.5007 16.9805 19.585 16.9805 19.585Z" fill="#0E7B19"/>
<path d="M16.7266 19.3323C16.6419 19.248 16.5573 19.1638 16.4727 19.1638L16.3881 19.0795C16.3035 19.0795 16.3035 18.9952 16.2188 18.9952C16.1342 18.9952 16.1342 18.911 16.0496 18.911C15.965 18.911 15.965 18.8267 15.8803 18.8267C15.7957 18.8267 15.7957 18.8267 15.7111 18.7425C15.6265 18.7425 15.6265 18.7425 15.5419 18.6582C15.4572 18.6582 15.4572 18.6582 15.3726 18.6582C15.288 18.6582 15.288 18.6582 15.2034 18.6582C15.1188 18.6582 15.0341 18.6582 14.9495 18.6582C15.0341 18.6582 15.0341 18.6582 15.1187 18.7425C15.2034 18.7425 15.2034 18.7425 15.288 18.7425C15.3726 18.7425 15.3726 18.7425 15.4572 18.8267C15.5419 18.8267 15.5419 18.8267 15.6265 18.911C15.7111 18.911 15.7111 18.9952 15.7957 18.9952C15.8803 18.9952 15.8803 18.9952 15.965 19.0795C16.0496 19.0795 16.0496 19.1638 16.1342 19.1638C16.2188 19.1638 16.2188 19.248 16.3035 19.248C16.3881 19.248 16.3881 19.3323 16.4727 19.3323C16.5573 19.248 16.6419 19.248 16.7266 19.3323Z" fill="#0E7B19"/>
<path d="M16.2188 18.4054C16.2188 18.4054 16.2188 18.3211 16.2188 18.1526C16.2188 17.9841 16.2188 17.7313 16.1341 17.5628C16.1341 17.4785 16.0495 17.31 16.0495 17.2258C16.0495 17.1415 15.9649 17.0572 15.9649 16.973C15.9649 16.8887 15.8803 16.8045 15.8803 16.8045C15.8803 16.8887 15.8803 16.8887 15.9649 16.973C15.9649 17.0572 15.9649 17.1415 16.0495 17.2258C16.0495 17.31 16.0495 17.31 16.0495 17.3943C16.0495 17.4785 16.0495 17.4785 16.0495 17.5628C16.0495 17.6471 16.1341 17.8156 16.1341 17.8998C16.1341 17.9841 16.1341 18.0684 16.2188 18.1526C16.2188 18.2369 16.2188 18.3211 16.2188 18.4054Z" fill="#0E7B19"/>
<path d="M9.95703 18.4056C9.95703 18.4056 9.87241 18.3213 9.70316 18.2371C9.53392 18.1528 9.36467 17.9843 9.02619 17.9C8.77232 17.7315 8.43383 17.563 8.09534 17.3945C7.9261 17.3102 7.75686 17.226 7.50299 17.1417C7.33375 17.0574 7.07989 16.9732 6.91064 16.8889C6.7414 16.8047 6.48754 16.7204 6.31829 16.7204C6.14905 16.6361 5.89519 16.6361 5.72594 16.5519C5.5567 16.4676 5.38745 16.4676 5.21821 16.3834C5.04896 16.3834 4.87971 16.2991 4.71047 16.2991C4.54123 16.2991 4.37198 16.2148 4.28736 16.2148C4.20274 16.2148 4.0335 16.2148 3.94888 16.2148C3.77964 16.2148 3.69501 16.2148 3.69501 16.2148C3.69501 16.2148 3.77964 16.2148 3.94888 16.2991C4.0335 16.2991 4.11812 16.2991 4.28736 16.3834C4.37198 16.3834 4.54123 16.4676 4.71047 16.4676C4.87971 16.4676 5.04896 16.5519 5.21821 16.5519C5.38745 16.5519 5.5567 16.6361 5.72594 16.7204C5.89519 16.8047 6.06443 16.8047 6.31829 16.8889C6.48754 16.9732 6.7414 17.0574 6.91064 17.0574C7.07989 17.1417 7.33375 17.2259 7.50299 17.3102C7.67224 17.3945 7.84148 17.4787 8.09534 17.563C8.26459 17.6472 8.43383 17.7315 8.60308 17.8158C8.77232 17.9 8.94156 17.9843 9.02619 18.0685C9.28005 18.2371 9.53392 18.3213 9.70316 18.4056C9.87241 18.3213 9.95703 18.4056 9.95703 18.4056Z" fill="#43C737"/>
<path d="M6.91016 16.7203C6.91016 16.7203 6.91015 16.7203 6.82553 16.636C6.82553 16.5518 6.74091 16.4675 6.65629 16.3832C6.65629 16.299 6.57167 16.299 6.57167 16.2147C6.48705 16.1305 6.48704 16.1305 6.40242 16.0462C6.3178 15.9619 6.3178 15.9619 6.23318 15.8777C6.14856 15.7934 6.14856 15.7934 6.06394 15.7092C5.97932 15.6249 5.97932 15.6249 5.8947 15.5407C5.81008 15.4564 5.81008 15.4564 5.72546 15.4564C5.64083 15.4564 5.64082 15.3721 5.5562 15.3721C5.47158 15.3721 5.47158 15.2879 5.38696 15.2879C5.30234 15.2036 5.21772 15.2036 5.13309 15.2036C5.04847 15.2036 5.04848 15.2036 5.04848 15.2036C5.04848 15.2036 5.04847 15.2036 5.13309 15.2879C5.21772 15.2879 5.30234 15.3721 5.38696 15.4564C5.47158 15.4564 5.47158 15.5407 5.5562 15.5407C5.64082 15.5407 5.64083 15.6249 5.72546 15.6249C5.81008 15.6249 5.81008 15.7092 5.8947 15.7092C5.97932 15.7934 5.97932 15.7934 6.06394 15.8777C6.14856 15.9619 6.14856 15.9619 6.23318 16.0462C6.3178 16.1305 6.3178 16.1305 6.40242 16.2147C6.48704 16.2147 6.48705 16.299 6.57167 16.3832C6.6563 16.3832 6.65629 16.4675 6.74092 16.4675C6.74092 16.5518 6.74091 16.5518 6.91016 16.7203Z" fill="#43C737"/>
<path d="M16.4748 9.89545C16.9825 9.47415 17.2364 8.88434 16.7286 7.78897C16.8133 7.36768 16.8133 7.36768 16.8133 7.36768C16.8133 7.36768 18.0826 8.88434 16.4748 9.89545Z" fill="#F18622"/>
<path d="M18.3357 13.266C21.8898 12.0864 21.9745 9.97989 21.9745 9.55859C22.0591 10.1484 22.0591 10.8225 21.7206 11.5808C20.6205 14.4456 14.7816 14.9512 12.4968 13.0975C12.4968 12.8447 12.5815 12.5077 12.5815 12.2549C13.343 12.7604 15.6278 14.1928 18.3357 13.266Z" fill="#278318"/>
<path d="M18.3354 13.266C15.6275 14.1086 13.3428 12.7604 12.5812 12.2549C12.7504 11.328 12.835 10.4012 12.835 10.4012C12.835 10.4012 15.2891 10.654 16.3891 9.81137C17.997 8.80026 16.643 7.2836 16.643 7.2836C16.643 7.2836 17.1507 7.03082 18.5047 7.03082C19.8586 7.11508 20.1971 6.8623 20.1971 6.8623C20.1971 6.8623 21.5511 7.78915 21.8896 9.47433C21.9742 9.97989 21.8049 12.0864 18.3354 13.266Z" fill="#FED622"/>
<path d="M18.6749 12.0864C19.4365 11.6652 20.1981 11.4124 20.7905 10.654C21.129 10.2328 21.2982 9.64294 21.2136 9.05312C21.129 8.46331 20.7059 8.12627 20.452 7.62072C20.3674 7.53646 20.452 7.36794 20.5366 7.53646C20.7059 7.70498 20.8751 7.8735 21.0443 8.04201C21.2136 8.29479 21.2982 8.46331 21.3828 8.80035C21.5521 9.3059 21.5521 9.89571 21.3828 10.4013C21.0443 11.4966 19.8596 12.255 18.7596 12.4235C18.7596 12.5077 18.5057 12.1707 18.6749 12.0864Z" fill="#FED622"/>
<path d="M17.7453 12.592C17.9145 12.5077 18.0838 12.5077 18.253 12.3392C18.3376 12.255 18.5069 12.5077 18.4222 12.592C18.3376 12.7605 18.0838 12.929 17.8299 12.8448C17.7453 12.8448 17.6607 12.592 17.7453 12.592Z" fill="#FED622"/>
<path d="M13.3417 18.2368C14.2725 18.4896 15.1188 18.8266 15.8804 19.4164C15.8804 19.4164 15.965 19.5007 15.8804 19.5007C15.1188 18.9951 14.1879 18.6581 13.3417 18.4053C13.3417 18.3211 13.2571 18.2368 13.3417 18.2368Z" fill="white"/>
<path d="M12.3263 18.0684C12.4955 18.0684 12.5801 18.0684 12.7494 18.0684C12.834 18.0684 12.834 18.237 12.834 18.237C12.6647 18.237 12.5801 18.237 12.4109 18.237C12.3263 18.237 12.2416 18.0684 12.3263 18.0684Z" fill="white"/>
<path d="M30.2675 21.6076C31.1984 21.5233 32.1292 21.439 33.06 21.7763C33.06 21.7763 33.1447 21.8606 33.06 21.8606C32.1292 21.6076 31.1984 21.692 30.2675 21.7763C30.2675 21.692 30.1829 21.6076 30.2675 21.6076Z" fill="white"/>
<path d="M29.2521 21.7761C29.4214 21.6918 29.506 21.6917 29.6752 21.6074C29.7599 21.6074 29.8445 21.6918 29.7599 21.6918C29.5906 21.7761 29.506 21.7761 29.3368 21.8604C29.2521 21.8604 29.1675 21.7761 29.2521 21.7761Z" fill="white"/>
<path d="M38.5581 12.002C38.5581 12.002 38.6427 12.0862 38.6427 12.2547C38.6427 12.339 38.7274 12.4232 38.7274 12.5075C38.812 12.5918 38.812 12.7603 38.8966 12.8445C38.9812 12.9288 38.9812 13.0973 39.0659 13.2658C39.1505 13.4344 39.1505 13.6029 39.2351 13.7714C39.2351 13.8557 39.3197 13.9399 39.3197 14.0242C39.3197 14.1084 39.4043 14.1927 39.4043 14.2769C39.489 14.3612 39.489 14.5297 39.489 14.7825C39.489 14.951 39.5736 15.1195 39.5736 15.288C39.5736 15.4566 39.5736 15.6251 39.6582 15.7936C39.6582 15.9621 39.6582 16.1306 39.6582 16.2992C39.6582 16.4677 39.6582 16.6362 39.6582 16.7205C39.6582 16.889 39.6582 16.9732 39.6582 17.0575C39.6582 16.9732 39.6582 16.8047 39.6582 16.7205C39.6582 16.5519 39.6582 16.4677 39.6582 16.2992C39.6582 16.1306 39.6582 15.9621 39.6582 15.7936C39.6582 15.6251 39.6582 15.4566 39.5736 15.288C39.5736 15.1195 39.489 14.951 39.489 14.7825C39.489 14.614 39.4043 14.4455 39.3197 14.2769C39.3197 14.1927 39.2351 14.1084 39.2351 14.0242C39.2351 13.9399 39.1505 13.8557 39.1505 13.7714C39.0659 13.6029 39.0659 13.4344 38.9812 13.3501C38.8966 13.1816 38.8966 13.0973 38.812 12.9288C38.812 12.8445 38.7274 12.8445 38.7274 12.7603C38.7274 12.676 38.6427 12.676 38.6427 12.5918C38.5581 12.5075 38.5581 12.4232 38.4735 12.339C38.6427 12.0862 38.5581 12.002 38.5581 12.002Z" fill="#43C737"/>
<path d="M39.1504 13.2661C39.1504 13.2661 39.1504 13.3504 39.1504 13.4346C39.1504 13.5189 39.1504 13.6031 39.1504 13.7717C39.1504 13.9402 39.1504 14.1087 39.0658 14.2772C39.0658 14.3615 39.0658 14.4457 39.0658 14.53C39.0658 14.6143 39.0658 14.6985 38.9811 14.7828C38.9811 14.867 38.9812 14.9513 38.8965 15.0356C38.8965 15.1198 38.8965 15.2041 38.8119 15.2883C38.8119 15.3726 38.8119 15.4568 38.7273 15.5411C38.7273 15.6254 38.6427 15.7096 38.6427 15.7939C38.6427 15.8781 38.558 15.9624 38.558 15.9624C38.558 16.0467 38.558 16.0467 38.4734 16.1309C38.4734 16.2152 38.3888 16.2152 38.3888 16.2152C38.3888 16.2152 38.3888 16.2152 38.4734 16.1309C38.558 16.0467 38.558 15.9624 38.6427 15.7939C38.6427 15.7096 38.7273 15.6254 38.7273 15.5411C38.7273 15.4568 38.8119 15.3726 38.8119 15.2883C38.8119 15.2041 38.8965 15.1198 38.8965 15.0356C38.8965 14.9513 38.8965 14.867 38.9811 14.7828C38.9811 14.6143 39.0658 14.3615 39.0658 14.193C39.0658 14.0244 39.0658 13.8559 39.0658 13.6874C39.0658 13.5189 39.0658 13.4346 39.0658 13.3504C39.1504 13.2661 39.1504 13.2661 39.1504 13.2661Z" fill="#43C737"/>
<path d="M39.659 15.0352C39.7436 15.1194 39.7436 15.2037 39.8282 15.2879C39.9129 15.3722 39.9129 15.4565 39.9975 15.5407C39.9975 15.625 40.0821 15.625 40.0821 15.7092C40.0821 15.7935 40.1667 15.7935 40.1667 15.8777C40.1667 15.962 40.2514 15.962 40.2514 16.0463C40.2514 16.0463 40.2514 16.1305 40.336 16.1305V16.2148C40.4206 16.299 40.4206 16.4676 40.5052 16.5518C40.5052 16.6361 40.5898 16.7203 40.5898 16.8046C40.5898 16.7203 40.5898 16.6361 40.5898 16.5518C40.5898 16.4676 40.5898 16.4676 40.5898 16.3833C40.5898 16.299 40.5898 16.299 40.5052 16.2148C40.5052 16.1305 40.5052 16.1305 40.4206 16.0463C40.4206 15.962 40.336 15.962 40.336 15.8777C40.336 15.7935 40.2514 15.7935 40.2514 15.7092C40.2514 15.625 40.1667 15.625 40.1667 15.5407C40.0821 15.4565 39.9975 15.3722 39.9975 15.2879C39.8282 15.1194 39.7436 15.1194 39.659 15.0352Z" fill="#43C737"/>
<path d="M40.1679 11.1592C40.4218 11.3277 40.7603 11.4962 40.8449 11.9175C41.0142 12.7601 39.9141 13.0971 41.0142 13.8555C41.6065 14.2768 43.0451 15.4564 42.1989 16.2147C42.1142 16.299 42.1989 16.2147 42.2835 16.1305C43.0451 15.1194 40.8449 14.361 40.4218 13.6027C40.2526 13.3499 40.1679 13.0971 40.2526 12.7601C40.2526 12.5916 40.3372 12.4231 40.4218 12.3388C40.6757 12.0018 40.3372 11.6647 40.1679 11.3277C40.0833 11.3277 40.0833 11.1592 40.1679 11.1592Z" fill="#42B819"/>
<path d="M13.7644 6.44062L14.1875 7.11469V7.53599L11.4796 8.63135L10.6334 7.70451L10.8026 6.94617C10.718 6.94617 12.8336 6.2721 13.7644 6.44062Z" fill="#E1CCBB"/>
<path d="M23.0735 15.7935C23.0735 15.7935 24.3428 15.7093 26.2045 16.0463L26.543 17.0574L26.4583 17.8158H22.9042L22.9889 16.9732L23.0735 15.7935Z" fill="#E1CCBB"/>
<path d="M32.4661 8.12604L34.0739 7.95752C34.9202 9.89548 34.8355 11.4121 34.8355 11.4121L34.5817 12.2547L33.6508 12.339L32.2123 8.80011L32.4661 8.12604Z" fill="#E1CCBB"/>
<path d="M24.9355 5.17687L24.8509 6.18798L24.4278 6.44076C22.4815 5.51391 20.5352 5.9352 20.5352 5.9352L20.366 5.59817L20.0275 4.67132C22.9046 3.57595 24.9355 5.17687 24.9355 5.17687Z" fill="#E1CCBB"/>
<path d="M4.96299 14.2771L5.72459 13.603C5.72459 13.603 9.2787 13.603 9.61719 16.7206L9.53257 17.2262L8.26325 17.6475C8.26325 17.6475 7.84014 15.6252 4.87838 14.8669L4.96299 14.2771Z" fill="#E1CCBB"/>
<path d="M7.50195 13.1817L7.33271 13.3502H6.06339C6.06339 13.3502 6.06338 13.2659 5.97876 13.1817C5.72489 12.6761 5.21717 11.328 5.47104 9.72705C6.40188 9.72705 6.99423 9.72705 6.99423 9.72705L7.16347 9.97983C7.24809 9.89557 6.99422 11.9178 7.50195 13.1817Z" fill="#E1CCBB"/>
<path d="M10.72 6.60926C10.72 6.60926 12.8355 5.93519 13.7663 6.10371L14.1895 6.77778L11.4816 7.53611L10.72 6.60926Z" fill="#FC7B78"/>
<path d="M14.1895 6.77783V7.11487L11.4816 8.21024V7.53616L14.1895 6.77783Z" fill="#FE8A7A"/>
<path d="M10.7189 6.60938L11.4805 7.53622V8.21029L10.6343 7.28345L10.7189 6.60938Z" fill="#FC6373"/>
<path d="M23.0735 15.4566C23.0735 15.4566 24.3428 15.3724 26.2045 15.7094L26.543 16.7205L22.9889 16.6363L23.0735 15.4566Z" fill="#FC7B78"/>
<path d="M26.543 16.6365L26.4583 17.3948H22.9042L22.9889 16.5522L26.543 16.6365Z" fill="#FC6373"/>
<path d="M32.4661 7.78891L34.0739 7.53613C34.9202 9.47409 34.8355 10.9908 34.8355 10.9908L33.8201 11.1593C33.9047 11.1593 33.1431 8.71576 32.4661 7.78891Z" fill="#FC7B78"/>
<path d="M34.9199 10.9907L34.6661 11.8333L33.7352 11.9176L33.9045 11.1592L34.9199 10.9907Z" fill="#FE8A7A"/>
<path d="M32.4664 7.78906C33.1433 8.71591 33.8203 11.1594 33.8203 11.1594L33.6511 11.8335L32.2125 8.29462L32.4664 7.78906Z" fill="#FC6373"/>
<path d="M24.9355 4.75597L24.4278 5.5143C24.4278 5.5143 22.6508 4.25042 20.4506 5.17727L20.1121 4.25042C22.9046 3.15505 24.9355 4.75597 24.9355 4.75597Z" fill="#FC7B78"/>
<path d="M24.9355 4.75586V5.76697L24.5124 6.01974L24.4278 5.51419L24.9355 4.75586Z" fill="#FE8A7A"/>
<path d="M24.4271 5.51408L24.5117 6.01964C22.5654 5.09279 20.6191 5.51408 20.6191 5.51408L20.4499 5.17705C22.65 4.2502 24.4271 5.51408 24.4271 5.51408Z" fill="#FC6373"/>
<path d="M4.96494 13.9397L5.72655 13.2656C5.72655 13.2656 9.28065 13.2656 9.61914 16.3832C9.53452 16.3832 8.85755 16.5517 8.43444 16.8888C8.51906 15.8777 7.24973 14.4452 4.96494 13.9397Z" fill="#FC7B78"/>
<path d="M9.70312 16.3828L9.6185 16.8884L8.34917 17.3097L8.51841 16.8041C8.94152 16.5513 9.6185 16.3828 9.70312 16.3828Z" fill="#FE8A7A"/>
<path d="M4.88081 14.5293L4.96542 13.9395C7.25021 14.445 8.51953 15.8774 8.51953 16.8043L8.35029 17.3098C8.35029 17.3098 7.92719 15.2876 4.88081 14.5293Z" fill="#FC6373"/>
<path d="M6.82629 11.0751C6.74167 10.401 6.91091 9.6427 7.08015 9.30566L7.2494 9.55844C7.2494 9.55844 6.99554 11.5807 7.58789 12.7603C6.99554 12.8445 6.82629 12.002 6.82629 11.0751Z" fill="#FE8A7A"/>
<path d="M7.33467 13.0134H6.06534C6.06534 13.0134 6.06533 12.9291 5.98071 12.8447L7.50391 12.9291L7.33467 13.0134Z" fill="#FC6373"/>
<path d="M5.47299 9.30566C6.40383 9.30566 6.99618 9.30566 6.99618 9.30566C6.91156 9.6427 6.74232 10.401 6.74232 11.0751C6.82694 12.002 6.99618 12.8445 7.50391 12.7603L7.41929 12.8445L5.8961 12.7603C5.72685 12.2547 5.21912 10.9066 5.47299 9.30566Z" fill="#FC7B78"/>
<path d="M31.1986 21.6074C33.3987 21.6074 35.1758 22.45 35.1758 23.3769C35.1758 23.4611 35.1758 23.4611 35.1758 23.5454C35.1758 23.5454 34.5834 26.3259 31.1986 26.3259C27.8137 26.3259 27.306 24.2195 27.306 23.4611V23.3769C27.2213 22.45 28.9984 21.6074 31.1986 21.6074Z" fill="#E1CCBB"/>
<path d="M26.0089 11.5203C24.884 10.687 24.8993 8.77057 26.043 7.23983C27.1868 5.7091 29.0259 5.14371 30.1507 5.97701C31.2756 6.81032 31.2603 8.72675 30.1166 10.2575C28.9728 11.7882 27.1337 12.3536 26.0089 11.5203Z" fill="#E1CCBB"/>
<path d="M29.7592 19.7536C29.6746 19.7536 29.6746 19.7536 29.7592 19.7536C28.9976 18.4054 28.8284 17.6471 28.8284 17.6471C28.8284 17.6471 28.913 17.4786 28.9976 17.3101C29.4207 16.5517 30.8593 14.8666 34.0749 15.1193C35.0058 15.2036 37.4598 15.9619 38.2214 17.4786C38.2214 17.4786 38.2214 17.4786 38.2214 17.5628C38.3906 18.574 38.3906 18.6582 38.3906 18.6582L36.9521 20.849C36.8674 20.849 34.1595 19.1638 29.7592 19.7536Z" fill="#E1CCBB"/>
<path d="M9.95894 19.1639C10.5513 17.9 12.5822 17.9 14.6977 18.8268C15.4593 19.1639 16.1363 19.5852 16.644 20.0907C17.5749 19.7537 19.2673 19.3324 21.806 20.175C25.614 21.3546 25.7832 24.8092 25.7832 24.8092L25.5293 25.5676L22.7368 26.0731C22.7368 26.0731 21.2136 22.9555 17.5749 23.6296C17.4903 23.5453 17.4903 23.4611 17.4056 23.2926C17.0672 23.9666 16.4748 24.6407 15.3747 24.8092C13.1746 25.062 10.382 23.7981 9.87431 20.4278C9.70506 20.0907 9.70507 19.5852 9.95894 19.1639Z" fill="#E1CCBB"/>
<path d="M35.2598 23.2923C35.2598 23.2923 34.6674 26.0728 31.2825 26.0728C27.8977 26.0728 27.3899 23.9663 27.3899 23.208L35.2598 23.2923Z" fill="#D31F15"/>
<path d="M31.3665 24.8934C29.17 24.8934 27.3893 24.1012 27.3893 23.1239C27.3893 22.1467 29.17 21.3545 31.3665 21.3545C33.5631 21.3545 35.3438 22.1467 35.3438 23.1239C35.3438 24.1012 33.5631 24.8934 31.3665 24.8934Z" fill="#F22616"/>
<path d="M31.3671 24.3878C29.4977 24.3878 27.9822 23.7465 27.9822 22.9554C27.9822 22.1643 29.4977 21.5229 31.3671 21.5229C33.2365 21.5229 34.752 22.1643 34.752 22.9554C34.752 23.7465 33.2365 24.3878 31.3671 24.3878Z" fill="#F84227"/>
<path d="M29.9276 22.8714C29.9276 22.8714 28.6583 23.04 28.6583 22.6187C28.6583 22.2816 30.0969 21.6918 32.2124 22.0289C34.3279 22.2816 35.2588 23.2085 33.5664 23.5455C31.8739 23.8826 29.5045 24.1353 28.9968 23.6298C28.4044 23.1242 29.166 23.04 29.9276 22.8714Z" fill="#D92114"/>
<path d="M30.6044 23.124C30.6044 23.124 30.1813 23.2925 30.266 23.461C30.266 23.6296 30.9429 23.0398 30.6044 23.124Z" fill="#FFA92E"/>
<path d="M30.5203 22.534C30.5203 22.534 30.0972 22.281 30.0125 22.3654C29.8433 22.534 30.8587 22.787 30.5203 22.534Z" fill="#FFA92E"/>
<path d="M31.1973 22.4501C31.1973 22.4501 30.9435 22.1128 30.7742 22.1971C30.6896 22.2815 31.3666 22.7031 31.1973 22.4501Z" fill="#FFA92E"/>
<path d="M31.789 22.3658C31.789 22.3658 31.7044 22.1128 31.6198 22.1128C31.5352 22.1971 31.8737 22.6187 31.789 22.3658Z" fill="#FFA92E"/>
<path d="M32.4668 22.4499L32.3822 22.2812C32.2976 22.3656 32.5515 22.5342 32.4668 22.4499Z" fill="#FFA92E"/>
<path d="M31.367 23.0399C31.367 23.0399 31.1978 23.2086 31.2824 23.2929C31.367 23.4615 31.5363 22.8713 31.367 23.0399Z" fill="#FFA92E"/>
<path d="M32.297 23.1241C32.297 23.1241 32.2124 23.2085 32.2124 23.2928C32.297 23.2928 32.3816 23.0398 32.297 23.1241Z" fill="#FFA92E"/>
<path d="M26.1484 11.2427C25.0236 10.4091 25.0393 8.49265 26.1835 6.9621C27.3276 5.43156 29.1669 4.86656 30.2916 5.70014C31.4163 6.53372 31.4006 8.45022 30.2565 9.98077C29.1124 11.5113 27.2731 12.0763 26.1484 11.2427Z" fill="#F22616"/>
<path d="M26.2988 11.0369C25.3237 10.3149 25.3925 8.57926 26.4524 7.16035C27.5123 5.74144 29.1619 5.17655 30.1369 5.89862C31.1119 6.6207 31.0431 8.35631 29.9833 9.77521C28.9234 11.1941 27.2738 11.759 26.2988 11.0369Z" fill="#F84227"/>
<path d="M28.7442 7.36754C28.7442 7.36754 29.2519 6.10366 29.0827 6.0194C28.9134 5.85088 27.3902 6.35644 26.6286 7.78884C25.7824 9.13698 26.0363 10.2324 26.2055 10.4851C26.3748 10.6536 27.221 9.81106 27.221 9.81106C27.221 9.81106 26.7133 10.8222 26.9671 10.9064C27.1364 10.9907 29.0827 11.1592 30.1827 8.88421C30.7751 7.53606 30.4366 4.83977 28.7442 7.36754Z" fill="#D92114"/>
<path d="M27.8142 9.81102C27.8142 9.81102 27.8142 10.1481 27.8989 10.1481C28.0681 10.1481 27.8142 9.55825 27.8142 9.81102Z" fill="#FFA92E"/>
<path d="M26.7981 8.96875C26.7981 8.96875 26.5442 8.96875 26.5442 9.05307C26.5442 9.1374 27.0519 8.96875 26.7981 8.96875Z" fill="#FFA92E"/>
<path d="M27.3059 8.46326C27.3059 8.46326 27.052 8.37893 26.9674 8.46326C26.9674 8.54758 27.5598 8.54758 27.3059 8.46326Z" fill="#FFA92E"/>
<path d="M27.7292 7.70496C27.7292 7.70496 27.4753 7.62063 27.3907 7.70496C27.3061 7.87361 27.8984 7.78928 27.7292 7.70496Z" fill="#FFA92E"/>
<path d="M28.1523 7.03081C28.1523 7.03081 28.1523 6.77783 28.0677 6.77783C27.8985 6.77783 28.1523 7.28378 28.1523 7.03081Z" fill="#FFA92E"/>
<path d="M28.745 8.88453C28.745 8.88453 28.9989 8.96886 29.0835 8.88453C29.1681 8.80021 28.5757 8.80021 28.745 8.88453Z" fill="#FFA92E"/>
<path d="M29.1687 8.29467C29.1687 8.29467 29.5918 8.37899 29.5918 8.21034C29.5918 8.04169 28.8302 8.21035 29.1687 8.29467Z" fill="#FFA92E"/>
<path d="M29.3373 7.7049C29.3373 7.7049 29.8451 7.62058 29.9297 7.45193C29.9297 7.28328 28.8296 7.7049 29.3373 7.7049Z" fill="#FFA92E"/>
<path d="M28.2367 9.47436C28.2367 9.47436 28.406 9.72734 28.4906 9.72734C28.6598 9.64301 28.1521 9.22139 28.2367 9.47436Z" fill="#FFA92E"/>
<path d="M30.3511 9.13692C30.6896 8.29433 30.8588 7.36748 30.605 6.44064C30.605 6.35638 30.6896 6.35638 30.6896 6.44064C31.0281 7.28323 30.9434 8.46285 30.5203 9.22118C30.4357 9.3897 30.3511 9.22118 30.3511 9.13692Z" fill="white"/>
<path d="M30.0983 9.55847C30.183 9.55847 30.183 9.47415 30.183 9.38982C30.183 9.3055 30.2676 9.47415 30.2676 9.47415C30.183 9.55847 30.183 9.55847 30.183 9.6428C30.0983 9.72712 30.0137 9.55847 30.0983 9.55847Z" fill="white"/>
<path d="M17.8281 22.9558C17.0665 21.4391 16.6434 20.428 16.3895 19.9224C17.1511 19.5854 19.0128 18.9113 21.89 19.8382C25.6979 21.0178 25.8672 24.4724 25.8672 24.4724L23.0747 25.315C23.0747 25.3993 21.9746 21.9446 17.8281 22.9558Z" fill="#FED622"/>
<path d="M25.8672 24.4722L25.6133 25.3148L22.8208 25.8203L23.0747 25.399L25.8672 24.4722Z" fill="#E4751B"/>
<path d="M23.0742 25.3989L22.8204 25.8202C22.8204 25.8202 21.2972 22.7026 17.6584 23.3767L17.8277 22.9554C21.9741 21.9443 23.0742 25.3989 23.0742 25.3989Z" fill="#F18622"/>
<path d="M16.3896 19.9224C16.6434 20.4279 17.0665 21.439 17.8281 22.9557L17.6589 23.377C16.5588 21.3548 16.1357 20.4279 16.1357 20.4279C16.1357 20.4279 16.3049 20.3437 16.3896 19.9224Z" fill="#E4751B"/>
<path d="M19.6055 19.5854C19.8594 19.6697 20.2825 19.5854 20.5363 19.5854C20.8748 19.5854 21.2133 19.6697 21.5518 19.754C22.1442 19.9225 22.7365 20.2595 23.3289 20.6808C23.8366 21.0178 24.2597 21.4391 24.5982 21.9447C24.9367 22.366 25.4444 22.9558 25.6137 23.5456C25.6983 23.7141 25.529 23.7984 25.4444 23.6299C24.8521 22.5345 24.0905 21.6077 23.075 20.9336C22.5673 20.5966 21.9749 20.3438 21.2979 20.1753C20.8748 20.091 20.5363 20.0067 20.1132 20.0067C19.944 20.0067 19.8594 20.0067 19.6901 19.9225C19.5209 19.8382 19.4363 19.5854 19.6055 19.5854Z" fill="#FED622"/>
<path d="M18.5054 19.5854C18.6746 19.5854 18.8439 19.5854 19.0131 19.5854C19.0978 19.5854 19.1824 19.8384 19.0978 19.8384C18.9285 19.8384 18.7593 19.8384 18.59 19.8384C18.5054 19.8384 18.4208 19.6698 18.5054 19.5854Z" fill="#FED622"/>
<path d="M30.1823 18.8269C29.59 17.8157 29.3361 17.3102 29.1669 16.9732C29.59 16.2148 31.0285 14.5296 34.2442 14.7824C35.175 14.8667 37.629 15.625 38.3906 17.1417L36.8674 19.5852C36.7828 19.5852 34.498 17.563 30.1823 18.8269Z" fill="#FED622"/>
<path d="M38.3054 17.1416C38.4746 18.237 38.4746 18.3212 38.4746 18.3212L37.036 20.512L36.7822 19.5851L38.3054 17.1416Z" fill="#E4751B"/>
<path d="M28.913 17.3102C28.913 17.3102 28.9976 17.1417 29.0822 16.9731C29.2514 17.3102 29.5899 17.8157 30.0977 18.8268L29.8438 19.4167C29.0822 18.1528 28.913 17.3102 28.913 17.3102Z" fill="#E4751B"/>
<path d="M30.1808 18.8267C34.4965 17.5628 36.7813 19.585 36.7813 19.585L37.0352 20.5119C37.0352 20.5119 34.4119 18.8267 29.9269 19.5008L30.1808 18.8267Z" fill="#F18622"/>
<path d="M30.1813 16.2151C30.5198 15.7096 31.1968 15.4568 31.7045 15.2883C32.4661 15.0355 33.3123 14.9512 34.0739 15.0355C35.3432 15.1198 36.7818 15.6253 37.628 16.6364C37.7126 16.7207 37.7126 16.8892 37.5434 16.8049C36.5279 15.8781 35.174 15.4568 33.82 15.3725C32.4661 15.2883 31.4506 15.7938 30.3505 16.4679C30.2659 16.6364 30.0967 16.3836 30.1813 16.2151Z" fill="#FED622"/>
<path d="M29.6732 16.7209C29.6732 16.6366 29.7578 16.6366 29.8425 16.5524C29.9271 16.4681 30.0117 16.7209 30.0117 16.7209C29.9271 16.8051 29.9271 16.8051 29.9271 16.8894C29.9271 16.9736 29.8425 16.8894 29.8425 16.8894C29.7578 16.8051 29.6732 16.7209 29.6732 16.7209Z" fill="#FED622"/>
<path d="M17.9121 21.8607C17.9121 21.8607 17.7429 24.3042 15.5427 24.6412C13.3425 24.894 10.55 23.6301 10.0423 20.2598C11.1424 21.6922 17.9121 21.8607 17.9121 21.8607Z" fill="#D31F15"/>
<path d="M10.1271 18.8272C9.53479 20.0911 10.6349 22.029 12.7504 23.0401C14.866 24.0513 17.2354 23.63 17.7431 22.3661C18.3355 21.1022 16.9815 19.5013 14.866 18.4902C12.7504 17.5633 10.6349 17.6476 10.1271 18.8272Z" fill="#F22616"/>
<path d="M10.3814 18.9113C9.78908 19.8381 10.9738 21.5233 12.8355 22.4502C14.7818 23.377 16.8973 23.04 17.3204 22.0289C17.8281 21.0178 16.4742 19.5854 14.5279 18.6585C13.0893 17.9844 11.0584 17.9002 10.3814 18.9113Z" fill="#F84227"/>
<path d="M13.4273 19.8382L10.8887 19.0799C10.8887 19.0799 9.78859 19.6697 11.6503 21.2706C13.5119 22.8715 15.966 23.2928 16.8968 22.366C17.4046 21.6919 16.643 19.6697 13.7658 18.6586C13.0888 18.49 12.2426 18.4058 12.0734 18.6586C11.8195 18.9113 13.4273 19.8382 13.4273 19.8382Z" fill="#D92114"/>
<path d="M15.0346 21.1865C15.0346 21.1865 16.1347 22.1976 16.3885 21.9449C16.6424 21.7763 15.4577 21.355 15.0346 21.1865Z" fill="#FFA92E"/>
<path d="M13.6797 19.67C13.6797 19.67 13.6797 19.2487 13.3412 18.8274C13.172 18.6589 13.2566 19.4172 13.6797 19.67Z" fill="#FFA92E"/>
<path d="M14.3578 19.9226C14.3578 19.9226 14.4424 19.5855 14.2731 19.3328C14.1885 18.9957 14.1885 19.5013 14.3578 19.9226Z" fill="#FFA92E"/>
<path d="M14.9492 19.7545C14.9492 19.7545 14.8646 20.0915 14.9492 20.1758C15.1185 20.26 15.1185 19.5017 14.9492 19.7545Z" fill="#FFA92E"/>
<path d="M15.7119 20.2599C15.7119 20.2599 15.458 20.4285 15.5427 20.597C15.6273 20.6812 15.9658 20.0914 15.7119 20.2599Z" fill="#FFA92E"/>
<path d="M16.1345 20.7657C16.1345 20.7657 15.9652 20.85 15.9652 20.9343C16.0499 21.103 16.3037 20.6814 16.1345 20.7657Z" fill="#FFA92E"/>
<path d="M14.6126 22.2821C14.6126 22.2821 14.6973 22.1134 14.6973 22.0291C14.6126 21.9448 14.528 22.4507 14.6126 22.2821Z" fill="#FFA92E"/>
<path d="M14.1026 22.1134C14.1026 22.1134 14.3564 21.8606 14.2718 21.7764C14.1872 21.6921 13.8487 22.2819 14.1026 22.1134Z" fill="#FFA92E"/>
<path d="M13.2579 21.692C13.2579 21.692 13.5117 21.5235 13.5117 21.355C13.4271 21.2707 13.004 21.8605 13.2579 21.692Z" fill="#FFA92E"/>
<path d="M12.4968 21.1028C12.4968 21.1028 12.9199 21.0185 12.9199 20.8499C12.9199 20.6812 12.1583 21.1028 12.4968 21.1028Z" fill="#FFA92E"/>
<path d="M11.6491 20.26C11.6491 20.26 12.1568 20.3443 12.2414 20.1757C12.3261 20.007 11.226 20.1757 11.6491 20.26Z" fill="#FFA92E"/>
<path d="M14.4414 14.8666C14.7799 15.0352 14.9491 15.2879 15.3722 15.2879C15.5414 15.2879 15.9646 15.0352 16.1338 15.0352C16.4723 15.0352 16.7262 15.1194 16.98 15.3722C17.657 15.962 17.1493 17.3102 17.5724 18.1527C17.657 18.237 17.5724 18.3213 17.4877 18.237C17.3185 17.9842 17.2339 17.7315 17.1493 17.4787C16.98 16.8046 17.2339 15.8778 16.4723 15.5407C16.2184 15.4565 15.7107 15.7092 15.4568 15.7092C15.1183 15.7092 14.8645 15.3722 14.6106 15.2037C14.4414 14.9509 14.2721 14.7824 14.4414 14.8666Z" fill="#0E7B19"/>
<path d="M23.4963 11.4966C24.004 11.4123 24.3425 11.5808 24.681 11.9179C24.8502 12.0864 25.1041 12.3392 25.2733 12.5077C25.6118 12.8447 26.0349 12.929 26.458 13.0975C27.5581 13.603 28.0659 14.3614 28.5736 15.4567C28.6582 15.6253 28.6582 15.7938 28.6582 15.7095C28.4043 15.2882 27.9812 14.6142 27.6427 14.1929C27.2196 13.6873 26.6273 13.4345 26.0349 13.1818C25.6964 13.0132 25.358 12.8447 25.1041 12.5919C24.5964 12.0864 24.3425 11.7494 23.5809 11.5808C23.4963 11.6651 23.4117 11.4966 23.4963 11.4966Z" fill="#0E7B19"/>
<path d="M15.9668 11.1592C16.0515 11.1592 16.0515 11.2435 16.1361 11.2435C16.1361 11.3278 16.2207 11.3278 16.2207 11.4122C16.2207 11.4965 16.2207 11.4965 16.1361 11.4965C15.9668 11.4965 15.8822 11.3278 15.8822 11.2435C15.8822 11.1592 15.9668 11.1592 15.9668 11.1592Z" fill="#FFFBDC"/>
<path d="M13.6809 11.8335C13.7655 11.8335 13.9347 12.1708 13.7655 12.1708C13.6809 12.1708 13.5116 11.8335 13.6809 11.8335Z" fill="#FFFBDC"/>
<path d="M18.5888 10.3169C18.758 10.3169 18.9273 10.7382 18.758 10.7382C18.5888 10.6539 18.4195 10.3169 18.5888 10.3169Z" fill="#FFFBDC"/>
<path d="M16.4727 12.5916C16.5573 12.5074 16.5573 12.5916 16.6419 12.5916C16.7266 12.6759 16.7266 12.6759 16.7266 12.7602V12.8444C16.7266 12.9287 16.6419 12.9287 16.6419 12.8444C16.6419 12.8444 16.6419 12.8444 16.5573 12.8444C16.4727 12.7602 16.4727 12.6759 16.4727 12.6759C16.3881 12.6759 16.3881 12.5916 16.4727 12.5916Z" fill="#FFFBDC"/>
<path d="M14.6973 8.20996H14.7819C14.8666 8.20996 14.9512 8.29422 14.9512 8.29422C15.0358 8.37848 14.9512 8.63126 14.7819 8.547C14.6973 8.547 14.6127 8.46274 14.6127 8.37848C14.6127 8.29422 14.6127 8.20996 14.6973 8.20996Z" fill="#FFFBDC"/>
<path d="M16.8965 5.51393C16.8965 5.4296 17.0658 5.4296 17.0658 5.51393C17.1504 5.59825 17.1504 5.68258 17.1504 5.7669C17.0658 5.85123 16.9811 5.7669 16.9811 5.68258C16.8965 5.59825 16.8965 5.51393 16.8965 5.51393Z" fill="#FFFBDC"/>
<path d="M8.18168 8.88429C8.35092 8.80003 8.35093 8.96855 8.43555 9.05281C8.43555 9.13707 8.43554 9.22133 8.35092 9.22133C8.18168 9.22133 8.09706 9.05281 8.18168 8.88429C8.09706 8.88429 8.09706 8.88429 8.18168 8.88429Z" fill="#FFFBDC"/>
<path d="M20.1966 8.63135C20.2812 8.63135 20.2812 8.8 20.2812 8.8C20.1966 8.8 20.1966 8.63135 20.1966 8.63135Z" fill="#FFFBDC"/>
<path d="M23.0752 6.77771C23.1598 6.86204 23.1598 6.94636 23.0752 6.86204C23.0752 6.86204 23.0752 6.86204 23.0752 6.77771Z" fill="#FFFBDC"/>
<path d="M24.767 8.0415C24.8517 8.0415 24.9363 8.21015 24.8517 8.21015C24.767 8.21015 24.6824 8.0415 24.767 8.0415Z" fill="#FFFBDC"/>
<path d="M19.9427 11.0752C20.0273 11.0752 20.0273 11.2438 20.0273 11.2438C19.9427 11.2438 19.9427 11.0752 19.9427 11.0752Z" fill="#FFFBDC"/>
<path d="M16.0501 2.56494C16.1348 2.56494 16.1348 2.64927 16.1348 2.64927C16.0501 2.64927 15.9655 2.56494 16.0501 2.56494Z" fill="#FFFBDC"/>
<path d="M27.1349 4.92408C27.1349 4.83976 27.1349 4.83976 27.1349 4.92408C27.2196 4.83976 27.3042 4.83976 27.3042 4.92408C27.3042 4.92408 27.3888 5.00841 27.3042 5.09273C27.3042 5.09273 27.2196 5.09273 27.1349 4.92408Z" fill="#FFFBDC"/>
<path d="M31.7054 5.68247C31.7054 5.68247 31.79 5.59821 31.79 5.68247C31.8747 5.76673 31.8747 5.85099 31.79 5.93524C31.79 5.93524 31.7901 6.01951 31.7054 6.01951C31.6208 6.01951 31.6208 5.93524 31.5362 5.93524C31.7054 5.76673 31.7054 5.68247 31.7054 5.68247Z" fill="#FFFBDC"/>
<path d="M33.2292 7.11494C33.2292 7.03061 33.2292 7.03062 33.2292 7.03062C33.2292 6.94629 33.3138 6.94629 33.3138 6.94629C33.3984 6.94629 33.3984 7.03062 33.3984 7.03062V7.11494C33.3984 7.19926 33.3138 7.19926 33.2292 7.11494Z" fill="#FFFBDC"/>
<path d="M35.7676 10.9065C35.7676 10.8223 35.7676 10.8223 35.8522 10.8223C35.9369 10.8223 36.0215 10.8223 36.0215 10.9065C36.0215 10.9908 36.0215 10.9908 36.0215 11.075C36.0215 11.075 36.0215 11.1593 35.9369 11.1593C35.8522 11.2436 35.7676 11.075 35.7676 10.9065Z" fill="#FFFBDC"/>
<path d="M37.375 13.0132C37.4597 13.0132 37.4597 13.0132 37.5443 13.0132C37.6289 13.0132 37.6289 13.0975 37.6289 13.1818C37.6289 13.3505 37.4597 13.3505 37.375 13.3505C37.2904 13.3505 37.2904 13.2662 37.2904 13.1818C37.2904 13.0975 37.375 13.0132 37.375 13.0132Z" fill="#FFFBDC"/>
<path d="M30.267 13.8558C30.267 13.7715 30.3516 13.7715 30.4362 13.7715C30.4362 13.7715 30.4362 13.7715 30.5208 13.8558L30.6055 13.9401C30.6055 14.0245 30.5208 14.1088 30.5208 14.1088C30.4362 14.1088 30.4362 14.0245 30.3516 14.0245C30.1824 13.9401 30.267 13.9401 30.267 13.8558Z" fill="#FFFBDC"/>
<path d="M32.0436 15.625C32.1283 15.625 32.1283 15.625 32.0436 15.625C32.1283 15.625 32.2129 15.625 32.2129 15.7093V15.7937C32.2129 15.7937 32.2129 15.7937 32.1283 15.7937C32.0436 15.7937 31.959 15.7093 32.0436 15.625Z" fill="#FFFBDC"/>
<path d="M39.1518 17.3946C39.2364 17.3946 39.3211 17.4789 39.2364 17.5632C39.2364 17.6475 39.1518 17.6475 39.0672 17.6475C39.0672 17.6475 39.0672 17.6475 38.9826 17.5632C38.8979 17.4789 38.9826 17.3102 39.1518 17.3946Z" fill="#FFFBDC"/>
<path d="M39.237 19.5853C39.237 19.501 39.3216 19.501 39.3216 19.501C39.4063 19.501 39.4062 19.5853 39.4062 19.6696C39.4062 19.754 39.3216 19.754 39.237 19.754C39.3216 19.6696 39.237 19.6696 39.237 19.5853Z" fill="#FFFBDC"/>
<path d="M40.0833 19.0796C40.168 19.1639 40.168 19.1639 40.168 19.1639V19.2482H40.0833C40.0833 19.2482 40.0833 19.2482 39.9987 19.1639C39.9987 19.1639 39.9987 19.1639 40.0833 19.0796Z" fill="#FFFBDC"/>
<path d="M36.0208 16.7202C36.1055 16.7202 36.1055 16.8889 36.1055 16.8889C36.0208 16.8889 36.0208 16.7202 36.0208 16.7202Z" fill="#FFFBDC"/>
<path d="M34.4128 17.1419C34.4974 17.0575 34.4974 17.0575 34.4974 17.1419L34.582 17.2262C34.582 17.3105 34.582 17.3105 34.4974 17.3105C34.4128 17.3105 34.4128 17.2262 34.4128 17.1419Z" fill="#FFFBDC"/>
<path d="M37.4597 20.3435C37.4597 20.2592 37.4597 20.2592 37.4597 20.3435C37.5443 20.2592 37.4597 20.2592 37.4597 20.3435C37.5443 20.2592 37.6289 20.3435 37.6289 20.4278C37.6289 20.5122 37.6289 20.5122 37.5443 20.5122C37.4597 20.4278 37.4597 20.3435 37.4597 20.3435Z" fill="#FFFBDC"/>
<path d="M32.9748 20.1748C33.0594 20.1748 33.0594 20.1748 33.144 20.2591C33.144 20.2591 33.2287 20.3435 33.144 20.4278C33.144 20.5121 33.0594 20.5121 33.0594 20.4278C32.8902 20.4278 32.8055 20.1748 32.9748 20.1748Z" fill="#FFFBDC"/>
<path d="M27.8132 20.9334C27.8978 20.849 27.9824 20.9334 27.9824 21.0177V21.102C27.8978 21.102 27.8978 21.102 27.8978 21.0177C27.8132 21.0177 27.8132 20.9334 27.8132 20.9334Z" fill="#FFFBDC"/>
<path d="M25.1901 19.4168C25.1901 19.3325 25.2747 19.3325 25.2747 19.3325C25.2747 19.3325 25.3594 19.4168 25.3594 19.5012V19.5855C25.2748 19.6698 25.1901 19.5855 25.1901 19.4168Z" fill="#FFFBDC"/>
<path d="M23.2442 18.4058C23.4134 18.4058 23.4134 18.7431 23.2442 18.6587C23.1595 18.6587 23.0749 18.4058 23.2442 18.4058Z" fill="#FFFBDC"/>
<path d="M23.6661 13.1818C23.8353 13.0132 23.9199 13.0975 23.9199 13.1818C23.9199 13.2662 23.9199 13.2662 23.9199 13.3505C23.9199 13.4348 23.8353 13.4348 23.7507 13.4348C23.6661 13.4348 23.6661 13.3505 23.6661 13.1818Z" fill="#FFFBDC"/>
<path d="M26.9675 14.1928C27.0521 14.1084 27.1367 14.1927 27.1367 14.2771C27.1367 14.3614 27.0521 14.3614 27.0521 14.3614C26.9675 14.2771 26.9675 14.1928 26.9675 14.1928Z" fill="#FFFBDC"/>
<path d="M22.4811 22.6187H22.5658C22.6504 22.6187 22.6504 22.7873 22.6504 22.8716C22.6504 22.9559 22.5658 22.956 22.4811 22.956C22.3965 22.956 22.3965 22.8716 22.3119 22.8716C22.3965 22.7873 22.3965 22.6187 22.4811 22.6187Z" fill="#FFFBDC"/>
<path d="M22.8204 23.8823C22.905 23.8823 22.905 23.8823 22.9896 23.8823L23.0742 23.9666C23.0742 24.051 22.9896 24.1353 22.905 24.051C22.8204 24.051 22.7357 23.8823 22.8204 23.8823Z" fill="#FFFBDC"/>
<path d="M24.513 23.377C24.5977 23.377 24.5977 23.4613 24.5977 23.4613C24.513 23.4613 24.4284 23.377 24.513 23.377Z" fill="#FFFBDC"/>
<path d="M18.336 20.9334C18.4206 20.849 18.4206 20.849 18.336 20.9334C18.4206 20.849 18.5052 20.9334 18.5052 20.9334C18.5052 20.9334 18.5052 21.0177 18.5898 21.0177V21.102C18.4206 21.2707 18.2514 21.102 18.336 20.9334Z" fill="#FFFBDC"/>
<path d="M14.4434 17.3104C14.4434 17.2261 14.528 17.2261 14.6126 17.2261C14.6126 17.2261 14.6973 17.2261 14.6973 17.3104V17.3947V17.4791C14.6973 17.5634 14.6973 17.5634 14.6126 17.5634C14.528 17.5634 14.4434 17.5634 14.4434 17.5634C14.4434 17.4791 14.4434 17.3947 14.4434 17.3104Z" fill="#FFFBDC"/>
<path d="M12.1576 16.2148C12.2422 16.2148 12.2422 16.2148 12.2422 16.2148V16.2992C12.1576 16.3835 12.0729 16.2992 12.1576 16.2148C12.0729 16.2992 12.0729 16.2148 12.1576 16.2148Z" fill="#FFFBDC"/>
<path d="M7.58793 19.5853C7.58793 19.501 7.67254 19.501 7.67254 19.501C7.67254 19.501 7.75717 19.501 7.75717 19.5853C7.75717 19.5853 7.8418 19.6696 7.8418 19.754C7.8418 19.8383 7.84179 19.8383 7.75717 19.8383C7.67255 19.8383 7.67255 19.8383 7.58793 19.754C7.58793 19.6696 7.58793 19.5853 7.58793 19.5853Z" fill="#FFFBDC"/>
<path d="M7.58768 22.7026H7.67229H7.75692C7.84154 22.787 7.84153 22.9556 7.67229 22.8713C7.58767 22.9556 7.58768 22.8713 7.58768 22.7026Z" fill="#FFFBDC"/>
<path d="M5.81284 17.8159C5.89747 17.8159 5.89747 17.9002 5.89747 17.9002C5.98209 17.9844 5.98209 18.0687 5.89747 18.153C5.81285 18.2372 5.72823 18.0687 5.72823 17.9844C5.64361 17.9844 5.72822 17.8159 5.81284 17.8159Z" fill="#FFFBDC"/>
<path d="M3.61138 16.6362H3.696C3.86524 16.6362 3.94986 16.8047 3.86524 16.9733C3.86524 17.0575 3.78062 17.0575 3.696 17.0575C3.61138 17.0575 3.52675 16.9733 3.44213 16.889C3.44213 16.7205 3.52676 16.6362 3.61138 16.6362Z" fill="#FFFBDC"/>
<path d="M5.47269 12.0863C5.47269 12.0863 5.55731 12.002 5.64194 12.002C5.72656 12.002 5.72656 12.0863 5.72656 12.1706C5.72656 12.2549 5.72656 12.3392 5.64194 12.3392H5.55731C5.47269 12.3392 5.47269 12.2549 5.47269 12.1706C5.38807 12.1706 5.38807 12.1706 5.47269 12.0863Z" fill="#FFFBDC"/>
<path d="M3.6961 12.0017C3.6961 11.9174 3.78072 11.9174 3.78072 12.0017C3.86535 12.0017 3.94996 12.1702 3.86534 12.1702C3.86534 12.1702 3.86534 12.1702 3.86534 12.2544C3.86534 12.3387 3.78072 12.2544 3.78072 12.2544C3.78072 12.2544 3.6961 12.1702 3.6961 12.0859V12.0017Z" fill="#FFFBDC"/>
<path d="M11.1433 13.3501C11.2279 13.3501 11.3125 13.4344 11.3125 13.4344C11.3125 13.5187 11.3125 13.5187 11.2279 13.6031C11.1433 13.6031 11.0586 13.5187 11.0586 13.5187C11.0586 13.4344 11.0586 13.4344 11.1433 13.3501Z" fill="#FFFBDC"/>
</svg>
