<svg width="18" height="19" viewBox="0 0 18 19" fill="none" xmlns="http://www.w3.org/2000/svg">
<path d="M12.3274 4.31505L12.3152 4.28248L12.3131 4.28451C12.0106 3.68812 11.6099 3.12837 11.107 2.62968C8.56394 0.109769 4.44679 0.109769 1.90577 2.62968C-0.635256 5.14959 -0.635256 9.23477 1.90577 11.7547C2.40866 12.2534 2.97492 12.6483 3.57389 12.9515L3.57184 12.9536L3.60455 12.9658C4.00318 13.1612 4.41204 13.3159 4.8352 13.4238L9.51657 15.1702C10.923 15.8643 12.6872 15.6363 13.8545 14.4781C15.0238 13.32 15.2528 11.5695 14.5516 10.1752L12.7894 5.53226C12.679 5.11906 12.5237 4.70993 12.3274 4.31505Z" fill="url(#paint0_linear_1801_11899)"/>
<path d="M1.90851 2.63191C-0.612065 5.12943 -0.628419 9.16577 1.84514 11.6897C0.281279 6.5909 3.3211 2.64413 5.0342 0.916016C3.89145 1.17859 2.80186 1.74649 1.90851 2.63191Z" fill="#FB8920" fill-opacity="0.4"/>
<path d="M13.8557 14.4803C15.025 13.3221 15.254 11.5716 14.5528 10.1773L12.7886 5.5344C12.6762 5.1151 12.5228 4.708 12.3266 4.31312L12.3143 4.28056L12.3123 4.28259C12.208 4.07701 12.0874 3.87753 11.9586 3.68213C11.9893 7.3134 13.3344 10.3259 9.51367 15.1703C10.9222 15.8685 12.6843 15.6385 13.8557 14.4803Z" fill="#FB8920" fill-opacity="0.4"/>
<path d="M14.412 12.2615C13.9111 11.7649 12.8788 11.9827 12.1081 12.748C11.3353 13.5154 11.1146 14.5372 11.6174 15.0338C11.875 15.2903 12.2696 15.3534 12.7009 15.2537C13.122 15.0725 13.5145 14.816 13.8539 14.4761C14.1932 14.1362 14.4549 13.7474 14.6368 13.3322C14.7349 12.9088 14.6695 12.5139 14.412 12.2615Z" fill="#FFDE9F"/>
<path d="M16.1674 16.5134C15.7954 16.9104 15.1617 16.9348 14.761 16.5664L12.6022 14.5757C12.2016 14.2052 12.177 13.5783 12.5491 13.1814C12.9211 12.7845 13.5549 12.76 13.9555 13.1285L16.1143 15.1191C16.5191 15.4896 16.5415 16.1165 16.1674 16.5134Z" fill="url(#paint1_linear_1801_11899)"/>
<path d="M16.7119 14.4414C17.0535 14.4414 17.3815 14.5757 17.623 14.8154C17.8645 15.0551 18 15.3807 18 15.7197C18 16.0585 17.8643 16.3834 17.623 16.623C17.3815 16.8628 17.0535 16.998 16.7119 16.998C16.6979 16.998 16.6839 16.9956 16.6699 16.9951C16.6594 17.1406 16.6268 17.2838 16.5703 17.4189C16.5013 17.5842 16.4 17.7349 16.2725 17.8613C16.145 17.9876 15.9937 18.0879 15.8271 18.1562C15.6606 18.2246 15.482 18.2597 15.3018 18.2598C15.1214 18.2598 14.9421 18.2247 14.7754 18.1562C14.6089 18.0879 14.4575 17.9876 14.3301 17.8613C14.2025 17.7349 14.1013 17.5842 14.0322 17.4189C13.9633 17.2539 13.9278 17.0771 13.9277 16.8984C13.9277 16.7196 13.9632 16.5422 14.0322 16.377C14.1012 16.2118 14.2026 16.062 14.3301 15.9355C14.4576 15.8091 14.6087 15.7081 14.7754 15.6396C14.9421 15.5712 15.1214 15.5361 15.3018 15.5361C15.3472 15.5361 15.3925 15.5385 15.4375 15.543C15.476 15.2693 15.6017 15.0131 15.8008 14.8154C16.0423 14.5757 16.3703 14.4414 16.7119 14.4414Z" fill="url(#paint2_radial_1801_11899)"/>
<path d="M2.22625 5.25763C1.79287 5.12939 1.3002 5.49374 1.12848 6.06978C0.952677 6.64785 1.16324 7.21778 1.59662 7.34805C2.03001 7.47832 2.52267 7.11194 2.69439 6.5359C2.86815 5.95783 2.65964 5.38586 2.22625 5.25763Z" fill="url(#paint3_linear_1801_11899)"/>
<path d="M5.08329 6.6584C4.71119 6.89817 4.54936 7.43077 4.72284 7.84531C4.89448 8.26377 5.33515 8.40605 5.7083 8.16733C6.08144 7.9286 6.24223 7.39496 6.06875 6.98042C5.89566 6.5634 5.45539 6.41864 5.08329 6.6584Z" fill="url(#paint4_linear_1801_11899)"/>
<path d="M2.37655 9.5185C2.23588 9.93699 2.443 10.4538 2.83828 10.6701C3.23456 10.8906 3.66814 10.7281 3.81028 10.3098C3.95241 9.89149 3.74382 9.37451 3.34855 9.15822C2.95203 8.93974 2.51721 9.10001 2.37655 9.5185Z" fill="url(#paint5_linear_1801_11899)"/>
<path d="M7.85912 10.1491C7.76099 10.441 7.90548 10.8016 8.18122 10.9525C8.45767 11.1063 8.76013 10.9929 8.85928 10.7011C8.95843 10.4093 8.81292 10.0487 8.53718 9.89778C8.26058 9.74537 7.95725 9.85717 7.85912 10.1491Z" fill="url(#paint6_linear_1801_11899)"/>
<path d="M7.91186 6.63934C7.81373 6.93128 7.95821 7.29181 8.23396 7.44269C8.5104 7.59651 8.81286 7.48318 8.91201 7.19136C9.01116 6.89954 8.86566 6.5389 8.58991 6.38802C8.31331 6.23561 8.00999 6.34741 7.91186 6.63934Z" fill="url(#paint7_linear_1801_11899)"/>
<path d="M5.08569 4.34686C4.98756 4.6388 5.13204 4.99933 5.40778 5.15021C5.68423 5.30403 5.98669 5.1907 6.08584 4.89888C6.18499 4.60706 6.03948 4.24642 5.76374 4.09554C5.48714 3.94313 5.18381 4.05493 5.08569 4.34686Z" fill="url(#paint8_linear_1801_11899)"/>
<defs>
<linearGradient id="paint0_linear_1801_11899" x1="13.2002" y1="4.69981" x2="8.98837" y2="15.2723" gradientUnits="userSpaceOnUse">
<stop stop-color="#FFF966"/>
<stop offset="0.18" stop-color="#FED33B"/>
<stop offset="0.695" stop-color="#FC891F"/>
<stop offset="0.855" stop-color="#FD9A30"/>
<stop offset="0.946113" stop-color="#E3771B"/>
</linearGradient>
<linearGradient id="paint1_linear_1801_11899" x1="15.9487" y1="13.9253" x2="14.8542" y2="16.7789" gradientUnits="userSpaceOnUse">
<stop stop-color="#FFF966"/>
<stop offset="0.18" stop-color="#FED33B"/>
<stop offset="0.695" stop-color="#FC891F"/>
<stop offset="0.855" stop-color="#FD9A30"/>
<stop offset="0.946113" stop-color="#E3771B"/>
</linearGradient>
<radialGradient id="paint2_radial_1801_11899" cx="0" cy="0" r="1" gradientUnits="userSpaceOnUse" gradientTransform="translate(16.6799 14.4199) rotate(89.2858) scale(2.57826 2.59769)">
<stop stop-color="#FFD37E"/>
<stop offset="1" stop-color="#E37108"/>
</radialGradient>
<linearGradient id="paint3_linear_1801_11899" x1="1.91101" y1="5.23193" x2="1.91101" y2="7.37437" gradientUnits="userSpaceOnUse">
<stop stop-color="#C24D0B"/>
<stop offset="1" stop-color="#FBC335"/>
</linearGradient>
<linearGradient id="paint4_linear_1801_11899" x1="4.84723" y1="6.86726" x2="5.93935" y2="7.9641" gradientUnits="userSpaceOnUse">
<stop stop-color="#C24D0B"/>
<stop offset="1" stop-color="#FBC335"/>
</linearGradient>
<linearGradient id="paint5_linear_1801_11899" x1="2.32285" y1="9.82835" x2="3.86416" y2="10.0023" gradientUnits="userSpaceOnUse">
<stop stop-color="#C24D0B"/>
<stop offset="1" stop-color="#FBC335"/>
</linearGradient>
<linearGradient id="paint6_linear_1801_11899" x1="7.82167" y1="10.3653" x2="8.89687" y2="10.4866" gradientUnits="userSpaceOnUse">
<stop stop-color="#C24D0B"/>
<stop offset="1" stop-color="#FBC335"/>
</linearGradient>
<linearGradient id="paint7_linear_1801_11899" x1="7.8744" y1="6.85549" x2="8.9496" y2="6.97686" gradientUnits="userSpaceOnUse">
<stop stop-color="#C24D0B"/>
<stop offset="1" stop-color="#FBC335"/>
</linearGradient>
<linearGradient id="paint8_linear_1801_11899" x1="5.04823" y1="4.56301" x2="6.12343" y2="4.68438" gradientUnits="userSpaceOnUse">
<stop stop-color="#C24D0B"/>
<stop offset="1" stop-color="#FBC335"/>
</linearGradient>
</defs>
</svg>
