<svg width="48" height="29" viewBox="0 0 48 29" fill="none" xmlns="http://www.w3.org/2000/svg">
<path d="M0.656851 6.87793C1.30235 9.66639 7.48066 11.8042 15.1344 11.8042C22.6959 11.8042 28.9664 9.66639 29.6119 6.87793C29.7041 8.7369 29.7964 13.1984 29.2431 14.9645C28.3209 17.8459 23.0648 20.3555 15.0422 20.3555C7.01959 20.3555 1.48677 17.9388 0.84128 14.9645C0.472425 13.1055 0.564638 8.64396 0.656851 6.87793Z" fill="#F48410"/>
<path d="M13.567 11.7113C12.7371 13.2914 14.3047 16.0799 18.6387 15.7081C23.065 15.4292 27.1224 14.8715 29.4277 13.4773C29.3355 14.035 29.2433 14.5927 29.1511 14.9645C28.229 17.8459 22.9728 20.3555 14.9502 20.3555C6.9276 20.3555 1.39479 17.9388 0.749292 14.9645C0.380438 13.1055 0.472651 8.64396 0.564865 6.87793C1.21036 9.48049 6.65096 11.5254 13.567 11.7113Z" fill="#E87B0C"/>
<path d="M6.18821 10.6888C5.4505 12.0831 4.71279 14.2209 7.11034 16.0799C10.3378 18.5895 19.6514 20.2625 28.5039 16.2657C26.6596 18.5895 21.8645 20.3555 15.0407 20.3555C7.01813 20.3555 1.48531 17.9388 0.839815 14.9645C0.470961 13.1055 0.563173 8.64396 0.655388 6.87793C1.02424 8.45806 3.14515 9.75934 6.18821 10.6888Z" fill="#E07709"/>
<path d="M0.564035 6.32065C0.564035 2.9745 7.1112 0.186035 15.1338 0.186035C23.1564 0.186035 29.6113 2.9745 29.6113 6.32065C29.6113 8.08668 27.8593 9.75975 25.0006 10.8751C22.4187 9.8527 18.9145 9.20206 15.1338 9.20206C11.353 9.20206 7.84891 9.8527 5.26693 10.8751C2.40831 9.75975 0.564035 8.17962 0.564035 6.32065Z" fill="#F59026"/>
<path d="M0.563986 6.32048C0.563986 3.34612 5.45131 0.92945 11.9063 0.278809C10.3386 1.67304 8.771 3.71791 10.8919 5.20509C13.6583 7.15701 23.8018 7.24996 27.0293 9.75958C26.3838 10.1314 25.7383 10.5032 24.9084 10.782C22.3264 9.75958 18.8223 9.10894 15.0415 9.10894C11.2608 9.10894 7.75665 9.75958 5.17467 10.782C2.40826 9.75958 0.563986 8.17945 0.563986 6.32048Z" fill="#E37808"/>
<path d="M6.65089 1.39453C6.09761 3.16056 5.72876 5.48427 7.29639 6.41376C9.50952 7.90094 21.9584 7.71504 25.5547 10.6894C25.3703 10.7824 25.1858 10.8753 25.0014 10.8753C22.4194 9.85287 18.9153 9.20222 15.1345 9.20222C11.3538 9.20222 7.84967 9.85287 5.26769 10.8753C2.40907 9.75992 0.657005 8.17979 0.657005 6.32081C0.564793 4.27594 2.96235 2.50992 6.65089 1.39453Z" fill="#C26402"/>
<path d="M13.0137 13.3848C12.6448 13.6636 12.276 14.0354 11.9071 14.0354C11.446 14.0354 11.446 14.5002 11.446 14.9649C11.446 15.5226 11.1694 15.8944 10.985 15.6155C10.8005 15.3367 10.8928 14.686 10.8928 14.2213C10.8928 13.9425 10.8928 13.6636 10.8005 13.4777C11.6305 13.4777 12.3682 13.3848 13.0137 13.3848Z" fill="#A77946"/>
<path d="M0.0105782 9.85256C0.102793 9.20192 -0.173847 7.52885 0.563862 6.8782C0.563862 6.78526 0.563862 6.78526 0.563862 6.69231V6.59936C0.563862 6.59936 0.563862 6.59936 0.563862 6.50641V6.41346C0.563862 6.41346 0.563862 6.41346 0.563862 6.32051V6.22756C0.563862 6.22756 0.563862 6.22756 0.563862 6.13462V6.04167C0.563862 6.04167 0.563862 6.04167 0.563862 5.94872V5.85577C0.563862 5.76282 0.56386 5.76282 0.656073 5.76282C0.656073 5.76282 0.656075 5.66987 0.748289 5.66987C0.748289 5.66987 0.748289 5.66987 0.748289 5.57692C0.748289 5.57692 0.748287 5.48397 0.840502 5.48397C0.840502 5.48397 0.840502 5.48397 0.840502 5.39103C0.840502 5.39103 0.8405 5.29808 0.932713 5.29808C0.932713 5.29808 0.932713 5.29808 0.932713 5.20513C0.932713 5.20513 0.932716 5.11218 1.02493 5.11218C1.02493 5.11218 1.02493 5.11218 1.02493 5.01923C1.02493 5.01923 1.02493 4.92628 1.11714 4.92628C1.11714 4.92628 1.11714 4.92628 1.11714 4.83333L1.20936 4.74038L1.30157 4.64744C1.30157 4.64744 1.30157 4.64744 1.39378 4.55449L1.486 4.46154C1.486 4.46154 1.486 4.46154 1.57821 4.36859L1.67043 4.27564C1.67043 4.27564 1.67042 4.27564 1.76264 4.18269C1.76264 4.18269 1.85485 4.18269 1.85485 4.08974C1.85485 4.08974 1.94707 4.08974 1.94707 3.99679C1.94707 3.99679 2.03928 3.99679 2.03928 3.90385C2.03928 3.90385 2.13149 3.90385 2.13149 3.8109C2.13149 3.8109 2.22371 3.8109 2.22371 3.71795C2.22371 3.71795 2.31592 3.71795 2.31592 3.625C2.31592 3.625 2.40813 3.625 2.40813 3.53205L2.50035 3.4391C2.50035 3.4391 2.59256 3.4391 2.59256 3.34615C2.59256 3.34615 2.68477 3.34615 2.68477 3.25321C2.68477 3.25321 2.77699 3.25321 2.77699 3.16026C2.77699 3.16026 2.8692 3.16026 2.8692 3.06731C2.8692 3.06731 2.96141 3.06731 2.96141 2.97436C2.96141 2.97436 3.05363 2.97436 3.05363 2.88141C3.05363 2.88141 3.14584 2.88141 3.14584 2.78846C3.14584 2.78846 3.23805 2.78846 3.23805 2.69551C3.23805 2.69551 3.33027 2.69551 3.33027 2.60256C3.33027 2.60256 3.42248 2.60256 3.42248 2.50962H3.5147C3.5147 2.50962 3.60691 2.50962 3.60691 2.41667C3.69912 2.32372 3.79134 2.32372 3.97577 2.23077C3.97577 2.23077 3.97577 2.23077 4.06798 2.23077C4.06798 2.23077 4.16019 2.23077 4.16019 2.13782H4.25241C4.34462 2.13782 4.34462 2.13782 4.43683 2.04487H4.52905C4.62126 2.04487 4.62126 2.04487 4.71347 1.95192H4.80569C4.8979 1.95192 4.8979 1.95192 4.99011 1.85897C4.99011 1.85897 4.99011 1.85897 5.08233 1.85897C5.17454 1.85897 5.17454 1.85897 5.26675 1.76603C5.45118 1.67308 5.63561 1.58013 5.91225 1.48718C6.00447 1.48718 6.00447 1.48718 6.09668 1.39423C6.09668 1.39423 6.09668 1.39423 6.18889 1.39423C6.28111 1.39423 6.28111 1.39423 6.37332 1.30128C6.37332 1.30128 6.37332 1.30128 6.46553 1.30128C6.55774 1.30128 6.55774 1.30128 6.64996 1.20833C6.64996 1.20833 6.64996 1.20833 6.74217 1.20833C6.83439 1.20833 6.83438 1.20833 6.9266 1.11538C7.29545 1.02244 7.75653 0.929487 8.12538 0.74359C8.21759 0.74359 8.3098 0.74359 8.3098 0.650641C8.40202 0.650641 8.49423 0.650641 8.58645 0.557692C9.13973 0.464744 9.60079 0.371795 10.1541 0.278846C10.2463 0.278846 10.3385 0.278846 10.4307 0.278846C10.5229 0.278846 10.6151 0.278846 10.7074 0.278846C12.0906 0.0929487 13.566 0 15.1336 0C21.8652 0.929487 27.6747 2.97436 29.1501 5.76282C29.1501 5.76282 29.1501 5.85577 29.2423 5.85577C29.2423 5.85577 29.2423 5.85577 29.2423 5.94872V6.04167C29.2423 6.04167 29.2423 6.04167 29.2423 6.13462V6.22756C29.2423 6.22756 29.2423 6.22756 29.2423 6.32051V6.41346V6.50641C29.2423 6.50641 29.2423 6.50641 29.2423 6.59936V6.69231C29.2423 6.69231 29.2423 6.69231 29.2423 6.78526V6.8782C29.2423 6.8782 29.2423 6.8782 29.2423 6.97115C29.2423 7.0641 29.2423 7.0641 29.2423 7.15705C29.5189 7.80769 29.7956 8.73718 29.7956 9.66667C29.7956 11.2468 30.0722 12.8269 29.2423 12.8269C28.4124 12.9199 28.689 12.0833 28.8734 11.5256C28.9657 10.9679 28.689 10.4103 28.3202 10.6891C27.9513 11.0609 27.5825 11.8045 26.7525 11.8045C25.9226 11.8045 25.646 12.3622 25.646 12.8269C25.7382 13.1987 25.9226 14.3141 25.5538 15.0577C25.1849 15.8013 26.5681 17.2885 25.2771 17.5673C23.9861 17.8462 24.5394 17.0096 24.6316 15.9872C24.7238 14.9647 24.9083 13.9423 24.5394 13.6635C24.1706 13.4776 23.2484 13.9423 22.6029 14.0353C22.0496 14.1282 21.2197 13.9423 20.7586 14.5C20.2976 15.0577 20.0209 16.0801 19.5599 16.1731C19.0988 16.1731 19.0988 15.0577 18.7299 15.0577C18.3611 15.0577 18.0845 14.8718 17.6234 14.9647C17.1623 15.0577 16.5168 14.1282 16.0557 14.0353C15.6869 13.9423 15.0414 14.3141 14.9492 14.7788C14.857 15.2436 15.1336 16.0801 14.9492 16.359C14.7648 16.7308 14.857 17.5673 14.4881 17.5673C14.1193 17.5673 13.8426 17.1026 14.2115 16.4519C14.5803 15.8013 14.3959 15.3365 14.1193 14.9647C13.8426 14.6859 13.4738 14.0353 13.0127 14.1282C12.5516 14.3141 11.9983 15.0577 11.5373 15.0577C11.0762 15.0577 11.0762 15.5224 11.0762 15.9872C11.0762 16.5449 10.7996 16.9167 10.6151 16.6378C10.4307 16.4519 10.5229 15.7083 10.5229 15.2436C10.5229 14.7788 10.4307 14.1282 10.0619 14.1282C9.69301 14.0353 9.41637 14.4071 9.04752 14.5C8.67866 14.5 8.21759 13.7564 7.84874 13.5705C7.47988 13.3846 6.83439 13.0128 6.55775 13.0128C6.28111 13.0128 6.28111 13.5705 6.09668 13.9423C5.91225 14.3141 6.18889 15.0577 6.00446 15.1506C5.82004 15.1506 5.45118 15.4295 5.26675 14.9647C5.08233 14.5 5.45118 14.2212 5.54339 13.6635C5.63561 13.1058 5.17454 12.641 4.80569 12.5481C4.43683 12.4551 4.06798 12.8269 3.69912 12.641C3.33027 12.4551 3.33027 12.4551 2.96141 12.734C2.59256 13.0128 2.31592 12.9199 2.40813 12.3622C2.40813 11.8045 2.40813 11.5256 2.03928 11.3397C1.67042 11.1538 1.20936 11.3397 1.02493 12.0833C0.840502 12.8269 1.39378 13.4776 0.840502 13.7564C0.28722 14.0353 0.379435 13.1058 0.563862 12.641C0.656075 12.1763 0.748289 11.5256 0.748289 11.1538C0.748289 10.7821 0.563864 10.3173 0.287222 10.5962C0.471649 10.5032 -0.0816345 10.5032 0.0105782 9.85256ZM21.4041 7.90064C21.4041 7.90064 21.4041 7.80769 21.4964 7.80769C21.4964 7.80769 21.4964 7.80769 21.4964 7.71474V7.62179C21.4964 7.62179 21.4964 7.6218 21.4964 7.52885C21.4964 7.52885 21.4964 7.52885 21.4964 7.4359V7.34295C21.4964 7.34295 21.4964 7.34295 21.4964 7.25C21.4964 7.15705 21.4964 7.15705 21.4964 7.15705C21.2197 7.0641 20.9431 6.97115 20.6664 7.25C20.2054 7.80769 20.3898 8.55128 19.7443 8.55128C19.0988 8.55128 19.191 7.90064 19.4677 7.25C19.7443 6.59936 19.8365 5.48397 19.191 5.39103C18.5455 5.20513 18.6377 6.22756 18.6377 6.59936C18.6377 6.97115 17.8078 7.52885 17.8078 6.8782C17.8078 6.13461 18.2689 5.39103 17.9 5.20513C17.5312 4.92628 17.2545 4.27564 16.5168 4.55449C15.7791 4.92628 15.9635 5.39103 16.148 5.76282C16.3324 6.13461 16.5168 6.8782 16.148 7.25C15.7791 7.62179 14.7648 7.15705 15.0414 6.59936C15.318 6.04167 15.5025 5.66987 15.5025 5.29808C15.5025 4.83333 15.1336 4.27564 14.5803 4.27564C14.0271 4.27564 13.4738 5.29808 12.8283 5.39103C12.1828 5.48397 12.1828 5.66987 12.1828 6.13462C12.1828 6.59936 11.9061 7.0641 11.5373 6.59936C11.1684 6.22756 11.7217 5.57692 11.4451 5.20513C11.0762 4.83333 10.7996 5.20513 10.6151 5.39103C10.4307 5.57692 9.69301 5.66987 9.69301 6.32051C9.69301 6.97115 9.50858 7.4359 9.23194 7.4359C9.04751 7.4359 8.86309 6.69231 8.58645 6.50641C8.58645 6.59936 8.58645 6.69231 8.58645 6.8782C8.58645 6.97115 8.58645 6.97115 8.58645 7.0641C8.58645 7.0641 8.58645 7.0641 8.58645 7.15705V7.25V7.34295C8.58645 7.34295 8.58645 7.34295 8.58645 7.4359V7.52885C8.58645 7.52885 8.58645 7.62179 8.67866 7.62179L8.77087 7.71474L8.86309 7.80769L8.9553 7.90064C9.87744 9.01603 12.275 9.85256 15.0414 9.85256C17.7156 9.85256 20.0209 9.10897 21.0353 7.99359C21.3119 8.08654 21.3119 7.99359 21.4041 7.90064Z" fill="#612204"/>
<path d="M0.103075 9.01616C0.19529 8.45847 -0.0813541 6.69245 0.656357 6.0418C1.02521 2.7886 7.29574 0.186035 15.1339 0.186035C22.8798 0.186035 29.2426 2.7886 29.6114 6.0418C29.8881 6.69245 30.1647 7.62193 30.1647 8.55142C30.1647 10.1315 30.4414 11.7117 29.6114 11.7117C28.7815 11.8046 29.0582 10.9681 29.2426 10.4104C29.3348 9.8527 29.0582 9.29501 28.6893 9.57386C28.3204 9.94565 27.9516 10.7822 27.1217 10.7822C26.2917 10.7822 26.0151 11.3399 26.0151 11.8046C26.1073 12.1764 26.1995 13.2918 25.9229 14.0354C25.554 14.779 26.9372 16.2662 25.6463 16.545C24.3553 16.8239 24.9085 15.9873 25.0008 14.9649C25.093 13.9424 25.2774 12.92 24.9085 12.6412C24.5397 12.4553 23.6176 12.92 22.9721 13.013C22.4188 13.1059 21.5889 12.92 21.1278 13.4777C20.6667 14.0354 20.3901 15.0578 19.929 15.1508C19.4679 15.1508 19.4679 14.0354 19.0991 14.0354C18.7302 14.0354 18.4536 13.8495 17.9925 13.9424C17.5315 14.0354 16.886 13.1059 16.4249 13.013C16.056 12.92 15.4105 13.2918 15.3183 13.7565C15.2261 14.2213 15.5028 15.0578 15.3183 15.4296C15.0417 15.8014 15.2261 16.545 14.8573 16.638C14.4884 16.638 14.2118 16.1732 14.5806 15.5226C14.9495 14.8719 14.765 14.4072 14.4884 14.0354C14.2118 13.7565 13.8429 13.1059 13.3818 13.1989C12.9208 13.3848 12.3675 14.1283 11.9064 14.1283C11.4454 14.1283 11.4454 14.5931 11.4454 15.0578C11.4454 15.6155 11.1687 15.9873 10.9843 15.7085C10.7999 15.4296 10.8921 14.779 10.8921 14.3142C10.8921 13.8495 10.7999 13.1989 10.431 13.1989C10.0621 13.1059 9.78551 13.4777 9.41665 13.5707C9.0478 13.5707 8.58673 12.8271 8.21787 12.6412C7.84902 12.4553 7.20352 12.0835 6.92688 12.0835C6.65024 12.0835 6.65024 12.6412 6.46581 13.013C6.28139 13.3848 6.55803 14.1283 6.3736 14.2213C6.18917 14.2213 5.82032 14.5001 5.63589 14.0354C5.45147 13.5707 5.82032 13.3848 5.91253 12.7341C6.00475 12.1764 5.54368 11.7117 5.17483 11.6187C4.80597 11.5258 4.43712 11.8976 4.06826 11.7117C3.69941 11.5258 3.69941 11.5258 3.42277 11.8046C3.05391 12.0835 2.77727 11.9905 2.86948 11.4328C2.86948 10.8751 2.86948 10.5963 2.50063 10.4104C2.13177 10.2245 1.67071 10.4104 1.48628 11.154C1.30185 11.8976 1.85513 12.5482 1.30185 12.8271C0.748569 13.1059 0.840784 12.1764 1.02521 11.7117C1.11743 11.2469 1.20964 10.5963 1.20964 10.2245C1.20964 9.8527 1.02521 9.38796 0.748571 9.6668C0.564144 9.75975 0.0108624 9.6668 0.103075 9.01616ZM15.2261 9.29501C18.638 9.29501 21.4044 8.08668 21.7733 6.50655C21.4966 6.4136 21.22 6.32065 20.9434 6.5995C20.4823 7.15719 20.6667 7.90078 20.0212 7.90078C19.3757 7.90078 19.4679 7.25014 19.7446 6.5995C19.929 5.94886 20.1134 4.83347 19.4679 4.74052C18.638 4.55463 18.8224 5.57706 18.8224 5.94886C18.8224 6.32065 17.9925 6.87834 17.9925 6.2277C17.9925 5.57706 18.4536 4.74052 18.0847 4.55462C17.7159 4.36873 17.4392 3.62514 16.7015 3.90398C15.9638 4.27578 16.1482 4.74052 16.3327 5.11232C16.5171 5.48411 16.7015 6.2277 16.3327 6.5995C15.9638 6.97129 14.9495 6.50655 15.2261 5.94886C15.5028 5.39116 15.6872 5.01937 15.6872 4.64757C15.6872 4.18283 15.3183 3.62514 14.765 3.62514C14.2118 3.62514 13.6585 4.64757 13.013 4.74052C12.3675 4.74052 12.3675 5.01937 12.3675 5.39116C12.3675 5.85591 12.0908 6.32065 11.722 5.85591C11.3531 5.48411 11.9064 4.83347 11.6298 4.46168C11.2609 4.08988 10.9843 4.46168 10.7999 4.64757C10.6154 4.83347 9.87772 4.92642 9.87772 5.57706C9.87772 6.2277 9.69329 6.69245 9.41665 6.69245C9.23223 6.69245 9.0478 5.94886 8.77116 5.76296C8.77116 5.85591 8.77116 5.94886 8.77116 6.13475C8.67894 7.90078 11.6298 9.29501 15.2261 9.29501Z" fill="#952502"/>
<path d="M5.5435 7.4361C5.45129 6.22776 5.72793 4.74058 5.72793 4.46174C5.82014 4.18289 6.55785 2.50982 8.2177 2.32392C9.87754 2.13802 10.1542 2.13802 11.1685 1.76623C12.1829 1.39443 12.1829 1.20853 13.1972 1.20853C14.2116 1.20853 15.9636 0.929688 15.9636 0.929688C16.978 0.929688 24.1707 1.85917 26.9371 3.71815C29.7035 5.57712 28.2281 6.41366 28.2281 6.97135C28.2281 7.52905 27.9514 7.71494 27.3059 7.80789C26.6604 7.90084 25.2772 9.01622 25.185 9.38802C25.0928 9.75981 24.6317 10.2246 24.3551 10.2246C24.0784 10.2246 22.4186 10.9681 21.8653 11.3399C21.312 11.6188 19.9288 11.154 19.6522 11.3399C19.3756 11.6188 18.7301 10.7823 18.0846 10.8752C17.4391 10.9681 16.2403 11.0611 15.5948 11.3399C14.9493 11.6188 13.4739 11.154 12.8284 11.4329C12.1829 11.7117 11.4452 11.7117 10.4308 11.5258C9.41648 11.247 8.30991 10.5964 7.75663 10.2246C7.20335 9.85276 6.37343 9.20212 5.63572 9.10917C4.8058 8.92328 5.63572 8.55148 5.5435 7.4361ZM15.2259 9.29507C18.6378 9.29507 21.4043 8.08674 21.7731 6.50661C21.4965 6.41366 21.2198 6.32071 20.9432 6.59956C20.4821 7.15725 20.6665 7.90084 20.021 7.90084C19.3755 7.90084 19.4678 7.2502 19.7444 6.59956C19.9288 5.94892 20.1133 4.83353 19.4678 4.74058C18.6378 4.55469 18.8223 5.57712 18.8223 5.94892C18.8223 6.32071 17.9923 6.8784 17.9923 6.22776C17.9923 5.57712 18.4534 4.74058 18.0846 4.55469C17.7157 4.36879 17.4391 3.6252 16.7014 3.90405C15.9636 4.27584 16.1481 4.74058 16.3325 5.11238C16.5169 5.48417 16.7014 6.22776 16.3325 6.59956C15.9636 6.97135 14.9493 6.50661 15.2259 5.94892C15.5026 5.39123 15.687 5.01943 15.687 4.64764C15.687 4.18289 15.3181 3.6252 14.7649 3.6252C14.2116 3.6252 13.6583 4.64764 13.0128 4.74058C12.3673 4.74058 12.3673 5.01943 12.3673 5.39123C12.3673 5.85597 12.0907 6.32071 11.7218 5.85597C11.353 5.48417 11.9062 4.83353 11.6296 4.46174C11.2607 4.08994 10.9841 4.46174 10.7997 4.64764C10.6153 4.83353 9.87754 4.92648 9.87754 5.57712C9.87754 6.22776 9.69312 6.69251 9.41648 6.69251C9.23205 6.69251 9.04762 5.94892 8.77098 5.76302C8.77098 5.85597 8.77098 5.94892 8.77098 6.13482C8.67877 7.90084 11.6296 9.29507 15.2259 9.29507Z" fill="#A33500"/>
<path d="M0.656361 6.04163C0.933001 3.16022 5.82032 0.836501 12.1831 0.278809C9.78551 0.92945 7.0191 1.76599 5.72811 2.78842C3.05391 4.8333 2.59285 6.69227 3.05392 7.9006C3.51498 9.01599 2.9617 9.48073 3.88384 10.1314C4.16048 10.3173 4.62155 10.0384 5.08261 10.1314C5.54368 10.2243 5.6359 10.4102 6.37361 10.5961C7.0191 10.6891 8.03345 11.4327 8.21788 11.6186C8.49452 11.8044 9.32444 12.4551 9.78551 12.2692C10.1544 12.0833 11.3531 12.641 11.6298 12.641C11.9064 12.641 12.8286 12.9198 13.1974 12.4551C13.5663 11.9903 14.4884 12.1762 14.765 12.4551C15.0417 12.641 15.7794 12.0833 16.1482 12.0833C16.5171 11.9903 17.5315 11.6186 17.9925 11.9903C18.5458 12.3621 17.9925 13.0128 18.7302 12.9198C19.5602 12.8269 19.3757 12.7339 19.8368 13.1057C20.2056 13.4775 20.4823 12.3621 20.9434 11.9903C21.4966 11.6186 22.8798 12.1762 23.5253 12.1762C24.1708 12.0833 25.093 12.0833 25.2774 11.6186C25.3696 11.4327 24.9085 10.3173 25.3696 10.1314C25.8307 9.94547 26.9372 9.75958 27.1217 9.38778C27.3061 8.92304 28.5049 8.55124 28.5049 8.55124C28.5049 8.55124 29.5192 7.9006 29.2426 7.34291C28.9659 6.78522 29.2426 5.94868 28.7815 5.01919C28.6893 4.8333 28.7815 4.55445 28.4127 3.99676C29.0582 4.6474 29.427 5.39099 29.5192 6.13458C29.8881 6.69227 30.1647 7.62176 30.1647 8.55124C30.1647 10.1314 30.4414 11.7115 29.6114 11.7115C28.7815 11.8044 29.0582 10.9679 29.2426 10.4102C29.3348 9.85253 29.0582 9.29483 28.6893 9.57368C28.3205 9.94548 27.9516 10.782 27.1217 10.782C26.2917 10.782 26.0151 11.3397 26.0151 11.8044C26.1073 12.1762 26.1995 13.2916 25.9229 14.0352C25.554 14.7788 26.9372 16.266 25.6463 16.5448C24.3553 16.8237 24.9085 15.9871 25.0008 14.9647C25.093 13.9423 25.2774 12.9198 24.9085 12.641C24.5397 12.4551 23.6176 12.9198 22.9721 13.0128C22.4188 13.1057 21.5889 12.9198 21.1278 13.4775C20.6667 14.0352 20.3901 15.0577 19.929 15.1506C19.4679 15.1506 19.4679 14.0352 19.0991 14.0352C18.7302 14.0352 18.4536 13.8493 17.9925 13.9423C17.5315 14.0352 16.886 13.1057 16.4249 13.0128C16.056 12.9198 15.4105 13.2916 15.3183 13.7564C15.2261 14.2211 15.5028 15.0577 15.3183 15.4294C15.0417 15.8012 15.2261 16.5448 14.8573 16.6378C14.4884 16.6378 14.2118 16.173 14.5806 15.5224C14.9495 14.8718 14.765 14.407 14.4884 14.0352C14.2118 13.7564 13.8429 13.1057 13.3818 13.1987C12.9208 13.3846 12.3675 14.1282 11.9064 14.1282C11.4454 14.1282 11.4454 14.5929 11.4454 15.0577C11.4454 15.6153 11.1687 15.9871 10.9843 15.7083C10.7999 15.4295 10.8921 14.7788 10.8921 14.3141C10.8921 13.8493 10.7999 13.1987 10.431 13.1987C10.0622 13.1057 9.78551 13.4775 9.41665 13.5705C9.0478 13.5705 8.58673 12.8269 8.21788 12.641C7.84902 12.4551 7.20353 12.0833 6.92689 12.0833C6.65025 12.0833 6.65025 12.641 6.46582 13.0128C6.28139 13.3846 6.55803 14.1282 6.37361 14.2211C6.18918 14.2211 5.82032 14.5 5.6359 14.0352C5.45147 13.5705 5.82032 13.3846 5.91254 12.7339C6.00475 12.1762 5.54368 11.7115 5.17483 11.6186C4.80597 11.5256 4.43712 11.8974 4.06826 11.7115C3.69941 11.5256 3.69941 11.5256 3.42277 11.8044C3.05392 12.0833 2.77728 11.9903 2.86949 11.4327C2.86949 10.875 2.86949 10.5961 2.50063 10.4102C2.13178 10.2243 1.67071 10.4102 1.48628 11.1538C1.30186 11.8974 1.85514 12.548 1.30186 12.8269C0.748573 13.1057 0.840788 12.1762 1.02522 11.7115C1.11743 11.2468 1.20964 10.5961 1.20964 10.2243C1.20964 9.85253 1.02522 9.38778 0.748575 9.66663C0.471935 9.94547 0.0108662 9.85253 0.103079 9.20189C0.195293 8.45829 -0.0813484 6.69227 0.656361 6.04163Z" fill="#7B2A02"/>
<path d="M9.50908 4.92628C9.78572 4.74038 9.87793 4.36858 10.4312 4.08974C10.9845 3.81089 11.8144 3.81089 11.9988 3.99679C12.0911 4.18269 12.921 4.08974 13.1976 3.81089C13.5665 3.53205 14.0275 3.16025 14.3042 3.0673C14.5808 2.8814 15.4107 3.0673 15.7796 3.4391C16.1485 3.81089 16.4251 3.16025 16.8862 2.97435C17.4394 2.78846 17.9005 3.16025 18.1772 3.4391C18.4538 3.71794 18.4538 3.99679 19.0071 4.08974C19.5604 4.08974 20.1136 3.62499 20.6669 3.90384C21.2202 4.18269 21.2202 4.92628 21.3124 5.11217C21.4046 5.29807 21.8657 5.01923 22.2346 5.76281C22.5112 6.5064 21.6813 7.24999 21.6813 7.24999L21.3124 7.43589C21.5891 7.15705 21.7735 6.78525 21.8657 6.5064C21.5891 6.41346 21.3124 6.32051 21.0358 6.59935C20.5747 7.15705 20.7591 7.90064 20.1136 7.90064C19.4681 7.90064 19.5604 7.24999 19.837 6.59935C20.0214 5.94871 20.2059 4.83333 19.5604 4.74038C18.6382 4.55448 18.8227 5.57692 18.8227 5.94871C18.8227 6.32051 17.9927 6.8782 17.9927 6.22756C17.9927 5.57692 18.4538 4.74038 18.0849 4.55448C17.7161 4.36858 17.4394 3.62499 16.7017 3.90384C15.964 4.27564 16.1485 4.74038 16.3329 5.11217C16.5173 5.48397 16.7017 6.22756 16.3329 6.59935C15.964 6.97115 14.9497 6.5064 15.2263 5.94871C15.503 5.39102 15.6874 5.01923 15.6874 4.64743C15.6874 4.18269 15.3185 3.62499 14.7653 3.62499C14.212 3.62499 13.6587 4.64743 13.0132 4.74038C12.3677 4.74038 12.3677 5.01923 12.3677 5.39102C12.3677 5.85576 12.0911 6.32051 11.7222 5.85576C11.3533 5.48397 11.9066 4.83333 11.63 4.46153C11.2611 4.08974 10.9845 4.46153 10.8001 4.64743C10.6156 4.83333 9.87793 4.92628 9.87793 5.57692C9.87793 6.22756 9.6935 6.6923 9.41686 6.6923C9.23243 6.6923 9.04801 5.94871 8.77137 5.76281C8.77137 5.85576 8.77137 5.94871 8.77137 6.13461C8.77137 6.5064 8.95579 6.8782 9.23243 7.24999C8.86358 7.15705 8.58694 6.8782 8.40251 6.5064C7.84923 5.48397 9.23244 5.11217 9.50908 4.92628Z" fill="#DD6024"/>
<path d="M26.8452 3.16016C27.3062 3.439 27.6751 3.8108 27.9517 4.27554C28.2284 4.64734 28.4128 5.20503 28.505 5.66977C28.5972 5.94862 28.5972 6.13451 28.5972 6.41336C28.5972 6.69221 28.5972 6.97105 28.505 7.15695C28.505 7.2499 28.4128 7.34285 28.3206 7.4358C28.2284 7.52875 28.1361 7.62169 28.1361 7.80759C27.9517 7.99349 27.8595 8.17939 27.6751 8.36528C27.4907 8.55118 27.214 8.64413 27.0296 8.64413C26.7529 8.64413 26.5685 8.64413 26.2919 8.64413C26.0152 8.64413 25.7386 8.73708 25.462 8.92298C25.3697 9.01592 25.2775 9.10887 25.1853 9.20182C25.0931 9.29477 25.0009 9.38772 24.9087 9.38772C24.7242 9.57362 24.4476 9.66657 24.3554 9.94541C24.2632 10.0384 24.2632 10.2243 24.2632 10.4102C24.2632 10.5031 24.2632 10.5961 24.171 10.782C24.0787 10.9678 23.8021 11.1537 23.6177 11.1537C23.341 11.2467 23.1566 11.2467 22.88 11.1537C23.1566 11.2467 23.4333 11.3396 23.6177 11.2467C23.8943 11.1537 24.171 11.0608 24.2632 10.782C24.2632 10.689 24.3554 10.5031 24.3554 10.4102C24.3554 10.3172 24.3554 10.1313 24.4476 10.0384C24.5398 9.85246 24.7242 9.75952 25.0009 9.57362C25.0931 9.48067 25.1853 9.38772 25.3697 9.38772C25.462 9.29477 25.5542 9.20182 25.6464 9.10887C25.8308 9.01593 26.0152 8.92298 26.2919 8.92298C26.5685 8.92298 26.7529 8.92298 27.0296 8.92298C27.1218 8.92298 27.214 8.92298 27.214 8.83003C27.3062 8.83003 27.3062 8.73708 27.3984 8.73708C27.4907 8.64413 27.6751 8.55118 27.7673 8.45823C27.9517 8.27234 28.1361 7.99349 28.2284 7.80759C28.3206 7.71464 28.3206 7.62169 28.4128 7.4358C28.505 7.34285 28.5972 7.2499 28.5972 7.064C28.7816 6.59926 28.7816 6.04157 28.6894 5.48387C28.505 4.55439 27.7673 3.53195 26.8452 3.16016Z" fill="#E86729"/>
<path d="M12.9199 2.4165C12.2744 2.4165 11.6289 2.6024 11.0756 2.7883C10.799 2.88125 10.5224 3.06714 10.2457 3.16009C9.96909 3.25304 9.69245 3.34599 9.32359 3.53189C9.04695 3.62484 8.77031 3.81073 8.49367 3.99663C8.21703 4.18253 7.94039 4.36843 7.75596 4.64727C7.57153 4.92612 7.3871 5.20497 7.29489 5.48381C7.20268 5.85561 7.20268 6.13445 7.29489 6.4133C7.29489 6.13445 7.29489 5.76266 7.47932 5.48381C7.57153 5.20497 7.75596 4.92612 7.94039 4.74022C8.30924 4.27548 8.86252 3.99663 9.4158 3.62484C9.69245 3.43894 9.96909 3.34599 10.2457 3.25304C10.5224 3.16009 10.8912 3.06714 11.1679 2.9742C11.7211 2.88125 12.2744 2.69535 12.9199 2.4165Z" fill="#E86729"/>
<path d="M18.1783 15.5225C18.8238 18.3109 25.0021 20.4487 32.6559 20.4487C40.2174 20.4487 46.4879 18.3109 47.1334 15.5225C47.2256 17.3814 47.3178 21.843 46.7646 23.609C45.8424 26.4904 40.5862 29 32.5637 29C24.5411 29 19.0083 26.5834 18.3628 23.609C18.0861 21.75 18.1783 17.2885 18.1783 15.5225Z" fill="#FF8100"/>
<path d="M31.1803 20.3555C30.3503 21.9356 31.918 24.7241 36.252 24.3523C40.6783 24.0734 44.7357 23.5157 47.041 22.0286C46.9488 22.5863 46.8566 23.1439 46.7644 23.5157C45.8422 26.3971 40.5861 28.9068 32.5635 28.9068C24.5409 28.9068 19.0081 26.4901 18.3626 23.5157C17.9937 21.6568 18.0859 17.1952 18.1781 15.4292C18.8236 18.0318 24.2642 20.1696 31.1803 20.3555Z" fill="#F48717"/>
<path d="M23.8034 19.3334C23.0657 20.6346 22.328 22.8654 24.7256 24.7244C27.9531 27.234 37.2666 28.8141 46.1191 24.9103C44.2749 27.234 39.4798 29 32.6559 29C24.6334 29 19.1005 26.5834 18.455 23.609C18.0862 21.75 18.1784 17.2885 18.2706 15.5225C18.5473 17.0096 20.6682 18.4039 23.8034 19.3334Z" fill="#F07A00"/>
<path d="M18.1777 14.9649C18.1777 11.5258 24.6327 8.7373 32.6553 8.7373C40.6779 8.7373 47.1328 11.5258 47.1328 14.9649C47.1328 16.7309 45.3808 18.404 42.5221 19.5194C39.9401 18.4969 36.5282 17.8463 32.6553 17.8463C28.8745 17.8463 25.3704 18.4969 22.7884 19.5194C19.9298 18.404 18.1777 16.8238 18.1777 14.9649Z" fill="#F59026"/>
<path d="M18.1773 14.9645C18.1773 11.9902 23.0646 9.57349 29.5195 8.92285C27.9519 10.3171 26.3843 12.362 28.5052 13.8491C31.2716 15.8011 41.4151 15.894 44.6426 18.4036C43.9971 18.7754 43.3516 19.1472 42.5217 19.4261C39.9397 18.4966 36.5278 17.8459 32.6548 17.8459C28.874 17.8459 25.3699 18.4966 22.7879 19.519C19.9293 18.4036 18.1773 16.8235 18.1773 14.9645Z" fill="#E37808"/>
<path d="M24.1724 9.94531C23.6191 11.7113 23.2502 14.0351 24.8179 14.9645C27.031 16.4517 39.4798 16.2658 43.0762 19.2402C42.8917 19.3331 42.7073 19.4261 42.5229 19.4261C39.9409 18.4966 36.529 17.846 32.656 17.846C28.8753 17.846 25.3712 18.4966 22.7892 19.519C19.9305 18.4036 18.1785 16.8235 18.1785 14.9645C18.1785 12.9197 20.576 11.1536 24.1724 9.94531Z" fill="#C26402"/>
<path d="M17.6239 18.4038C17.7161 17.8461 17.4394 16.0801 18.1771 15.4295C18.1771 15.3365 18.1771 15.3365 18.1771 15.2436C18.1771 15.2436 18.1771 15.2436 18.1771 15.1506V15.0577C18.1771 15.0577 18.1771 15.0577 18.1771 14.9647V14.8718C18.1771 14.8718 18.1771 14.8718 18.1771 14.7788V14.6859C18.1771 14.6859 18.1771 14.6859 18.1771 14.5929V14.5C18.1771 14.5 18.1771 14.5 18.1771 14.407V14.3141C18.1771 14.2211 18.1771 14.2211 18.2694 14.2211C18.2694 14.2211 18.2694 14.1282 18.3616 14.1282C18.3616 14.1282 18.3616 14.1282 18.3616 14.0352C18.3616 14.0352 18.3616 13.9423 18.4538 13.9423C18.4538 13.9423 18.4538 13.9423 18.4538 13.8493C18.4538 13.8493 18.4538 13.7564 18.546 13.7564C18.546 13.7564 18.546 13.7564 18.546 13.6634C18.546 13.6634 18.546 13.5705 18.6382 13.5705C18.6382 13.5705 18.6382 13.5705 18.6382 13.4776C18.6382 13.4776 18.6382 13.3846 18.7304 13.3846C18.7304 13.3846 18.7304 13.3846 18.7304 13.2917L18.8226 13.1987L18.9148 13.1058C18.9148 13.1058 18.9148 13.1058 19.0071 13.0128L19.0993 12.9199C19.0993 12.9199 19.0993 12.9199 19.1915 12.8269C19.1915 12.8269 19.2837 12.8269 19.2837 12.734C19.2837 12.734 19.2837 12.734 19.3759 12.641C19.3759 12.641 19.4681 12.641 19.4681 12.5481C19.4681 12.5481 19.4681 12.5481 19.5603 12.4551C19.5603 12.4551 19.6526 12.4551 19.6526 12.3622C19.6526 12.3622 19.7448 12.3622 19.7448 12.2692C19.7448 12.2692 19.837 12.2692 19.837 12.1763C19.837 12.1763 19.9292 12.1763 19.9292 12.0833C19.9292 12.0833 20.0214 12.0833 20.0214 11.9904L20.1136 11.8974C20.1136 11.8974 20.2058 11.8974 20.2058 11.8045C20.2058 11.8045 20.2981 11.8045 20.2981 11.7115C20.2981 11.7115 20.3903 11.7115 20.3903 11.6186C20.3903 11.6186 20.4825 11.6186 20.4825 11.5256C20.4825 11.5256 20.5747 11.5256 20.5747 11.4327C20.5747 11.4327 20.6669 11.4327 20.6669 11.3397C20.6669 11.3397 20.7591 11.3397 20.7591 11.2468C20.7591 11.2468 20.8513 11.2468 20.8513 11.1538C20.8513 11.1538 20.9435 11.1538 20.9435 11.0609C20.9435 11.0609 21.0358 11.0609 21.0358 10.9679H21.128L21.2202 10.875C21.3124 10.782 21.4046 10.782 21.589 10.6891C21.589 10.6891 21.589 10.6891 21.6813 10.6891L21.7735 10.5961H21.8657C21.9579 10.5961 21.9579 10.5961 21.9579 10.5032H22.0501C22.1423 10.5032 22.1423 10.5032 22.2345 10.4102H22.3268C22.419 10.4102 22.419 10.4102 22.5112 10.3173C22.5112 10.3173 22.5112 10.3173 22.6034 10.3173C22.6956 10.3173 22.6956 10.2243 22.7878 10.2243C22.9722 10.1314 23.1567 10.0384 23.4333 9.9455C23.5255 9.9455 23.5255 9.9455 23.6177 9.85255C23.6177 9.85255 23.6177 9.85255 23.71 9.85255C23.8022 9.85255 23.8022 9.85255 23.8944 9.7596C23.8944 9.7596 23.8944 9.7596 23.9866 9.7596C24.0788 9.7596 24.0788 9.7596 24.171 9.66665C24.171 9.66665 24.171 9.66665 24.2632 9.66665C24.3555 9.66665 24.3555 9.66665 24.4477 9.57371C24.8165 9.48076 25.2776 9.38781 25.6464 9.29486C25.7387 9.29486 25.8309 9.29486 25.8309 9.20191C25.9231 9.20191 26.0153 9.20191 26.1075 9.10896C26.6608 9.01601 27.1219 8.92306 27.6751 8.83012C27.7674 8.83012 27.8596 8.83012 27.9518 8.83012C28.044 8.83012 28.1362 8.83012 28.2284 8.83012C29.6116 8.64422 31.087 8.55127 32.6547 8.55127C39.5707 8.55127 45.2879 10.5961 46.7634 13.2917C46.7634 13.2917 46.7634 13.3846 46.8556 13.3846V13.4776C46.8556 13.4776 46.8556 13.4776 46.8556 13.5705V13.6634C46.8556 13.6634 46.8556 13.6634 46.8556 13.7564V13.8493C46.8556 13.8493 46.8556 13.8493 46.8556 13.9423V14.0352V14.1282C46.8556 14.1282 46.8556 14.1282 46.8556 14.2211V14.3141C46.8556 14.3141 46.8556 14.3141 46.8556 14.407C46.8556 14.5 46.8556 14.5 46.8556 14.5929C47.1322 15.2436 47.4089 16.1731 47.4089 17.1026C47.4089 18.6827 47.6855 20.2628 46.8556 20.2628C46.0257 20.3558 46.3023 19.5192 46.4867 18.9615C46.5789 18.4038 46.3023 17.8461 45.9334 18.125C45.5646 18.4968 45.1957 19.2404 44.3658 19.2404C43.5359 19.2404 43.2592 19.7981 43.2592 20.2628C43.3515 20.6346 43.4437 21.75 43.167 22.4936C42.7982 23.2372 44.1814 24.7243 42.8904 25.0032C41.5994 25.282 42.1527 24.4455 42.2449 23.4231C42.3371 22.4006 42.5215 21.3782 42.1527 21.0993C41.7838 20.8205 40.8617 21.3782 40.2162 21.4711C39.6629 21.5641 38.833 21.3782 38.3719 21.9359C37.9109 22.4936 37.6342 23.516 37.1731 23.609C36.7121 23.609 36.7121 22.4936 36.3432 22.4936C35.9744 22.4936 35.6977 22.3077 35.2367 22.4006C34.7756 22.4936 34.1301 21.5641 33.669 21.4711C33.3002 21.3782 32.6547 21.657 32.5625 22.2147C32.4703 22.6795 32.7469 23.516 32.5625 23.7949C32.378 24.1667 32.4703 24.9102 32.1014 25.0032C31.7325 25.0032 31.4559 24.5384 31.8248 23.8878C32.1936 23.2372 32.0092 22.7724 31.7325 22.4006C31.4559 22.1218 31.087 21.4711 30.626 21.5641C30.1649 21.75 29.6116 22.4936 29.1506 22.4936C28.6895 22.4936 28.6895 22.9583 28.6895 23.4231C28.6895 23.9808 28.4129 24.3526 28.2284 24.0737C28.044 23.8878 28.1362 23.1442 28.1362 22.6795C28.1362 22.2147 28.044 21.5641 27.6751 21.5641C27.3063 21.4711 27.0296 21.8429 26.6608 21.9359C26.2919 21.9359 25.8309 21.1923 25.462 21.0064C25.0932 20.8205 24.4477 20.4487 24.171 20.4487C23.8944 20.4487 23.8944 21.0064 23.71 21.3782C23.5255 21.75 23.8022 22.4936 23.6177 22.5865C23.4333 22.5865 23.0645 22.8654 22.88 22.4006C22.6956 21.9359 23.0645 21.75 23.1567 21.0993C23.2489 20.5417 22.7878 20.0769 22.419 19.984C22.0501 19.891 21.6813 20.2628 21.3124 20.0769C20.9435 19.891 20.9436 19.891 20.5747 20.1699C20.2058 20.4487 19.9292 20.4487 20.0214 19.7981C20.0214 19.2404 20.0214 18.9615 19.6526 18.7756C19.2837 18.5897 18.8226 18.7756 18.6382 19.5192C18.4538 20.2628 19.0071 20.9134 18.4538 21.1923C17.9005 21.4711 17.9927 20.4487 18.1771 20.0769C18.2694 19.6122 18.4538 18.9615 18.3616 18.5897C18.3616 18.2179 18.1771 17.7532 17.9005 18.032C18.0849 19.1474 17.5316 19.1474 17.6239 18.4038ZM39.0174 16.5449C39.0174 16.5449 39.0174 16.4519 39.1096 16.4519C39.1096 16.4519 39.1096 16.4519 39.1096 16.359V16.266C39.1096 16.266 39.1096 16.266 39.1096 16.1731C39.1096 16.1731 39.1096 16.1731 39.1096 16.0801V15.9872C39.1096 15.9872 39.1096 15.9872 39.1096 15.8942V15.8013C38.833 15.7083 38.5564 15.6154 38.2797 15.8942C37.8186 16.4519 38.0031 17.1955 37.3576 17.1955C36.7121 17.1955 36.8043 16.4519 37.0809 15.8942C37.2654 15.2436 37.4498 14.1282 36.8043 14.0352C36.1588 13.8493 36.251 14.8718 36.251 15.2436C36.251 15.6154 35.4211 16.1731 35.4211 15.5224C35.4211 14.8718 35.8822 14.0352 35.5133 13.8493C35.1444 13.5705 34.8678 12.9199 34.1301 13.1987C33.3924 13.5705 33.5768 14.0352 33.7612 14.407C33.9457 14.7788 34.1301 15.5224 33.7612 15.8942C33.3924 16.266 32.378 15.8013 32.6547 15.2436C32.9313 14.6859 33.1157 14.3141 33.1157 13.9423C33.1157 13.4776 32.7469 12.9199 32.1936 12.9199C31.6403 12.9199 31.087 13.9423 30.4416 14.0352C29.7961 14.1282 29.7961 14.3141 29.7961 14.7788C29.7961 15.2436 29.5194 15.7083 29.1506 15.2436C28.7817 14.8718 29.4272 14.2211 29.0583 13.8493C28.6895 13.4776 28.4129 13.8493 28.2284 14.0352C28.044 14.3141 27.3063 14.3141 27.3063 14.9647C27.3063 15.6154 27.1219 16.0801 26.8452 16.0801C26.6608 16.0801 26.4764 15.3365 26.1997 15.1506C26.1997 15.2436 26.1997 15.3365 26.1997 15.5224C26.1997 15.6154 26.1997 15.6154 26.1997 15.7083V15.8013V15.8942V15.9872C26.1997 15.9872 26.1997 15.9872 26.1997 16.0801V16.1731C26.1997 16.1731 26.1997 16.266 26.2919 16.266L26.3842 16.359C26.3842 16.4519 26.4764 16.4519 26.4764 16.4519L26.5686 16.5449C27.4907 17.7532 29.8883 18.4968 32.6547 18.4968C35.3289 18.4968 37.6342 17.7532 38.6486 16.6378C38.833 16.7308 38.9252 16.6378 39.0174 16.5449Z" fill="#612204"/>
<path d="M17.6246 17.6602C17.7168 17.1025 17.4401 15.3365 18.1778 14.6858C18.5467 11.4326 24.9094 8.83008 32.6554 8.83008C40.4013 8.83008 46.7641 11.4326 47.1329 14.6858C47.4096 15.3365 47.6862 16.266 47.6862 17.1955C47.6862 18.7756 47.9628 20.3557 47.1329 20.3557C46.303 20.4487 46.5796 19.6121 46.7641 19.0544C46.8563 18.4967 46.5796 17.9391 46.2108 18.2179C45.8419 18.5897 45.4731 19.3333 44.6432 19.3333C43.8132 19.3333 43.5366 19.891 43.5366 20.3557C43.6288 20.7275 43.721 21.8429 43.4444 22.5865C43.0755 23.3301 44.4587 24.8173 43.1677 25.0961C41.8767 25.282 42.43 24.5384 42.5222 23.516C42.6145 22.4935 42.7989 21.3782 42.43 21.1923C42.0612 20.9134 41.139 21.4711 40.4935 21.5641C39.9403 21.657 39.1103 21.4711 38.6493 22.0288C38.1882 22.5865 37.9116 23.6089 37.4505 23.7019C36.9894 23.7019 36.9894 22.5865 36.6206 22.5865C36.2517 22.5865 35.9751 22.4006 35.514 22.4935C35.0529 22.5865 34.4074 21.657 33.9464 21.5641C33.5775 21.4711 32.932 21.7499 32.8398 22.3076C32.7476 22.7724 33.0242 23.6089 32.8398 23.8878C32.6554 24.2596 32.7476 25.0032 32.3787 25.0961C32.0099 25.0961 31.7332 24.6314 32.1021 23.9807C32.471 23.3301 32.3787 22.8653 32.0099 22.4935C31.7332 22.2147 31.3644 21.5641 30.9033 21.657C30.4423 21.8429 29.889 22.5865 29.4279 22.5865C28.9668 22.5865 28.9668 23.0512 28.9668 23.516C28.9668 24.0737 28.6902 24.4455 28.5058 24.1666C28.3213 23.9807 28.4136 23.2371 28.4136 22.7724C28.4136 22.3076 28.3213 21.657 27.9525 21.657C27.5836 21.5641 27.307 21.9358 26.9381 22.0288C26.5693 22.0288 26.1082 21.2852 25.7394 21.0993C25.3705 20.9134 24.725 20.5416 24.4484 20.5416C24.1717 20.5416 24.1717 21.0993 23.9873 21.4711C23.8029 21.8429 24.0795 22.5865 23.8951 22.6794C23.7107 22.6794 23.3418 22.9583 23.1574 22.4935C22.973 22.0288 23.3418 21.8429 23.434 21.1923C23.5262 20.6346 23.0652 20.1698 22.6963 20.0769C22.3275 19.9839 21.9586 20.3557 21.5897 20.1698C21.2209 19.9839 21.2209 19.9839 20.9443 20.2628C20.5754 20.5416 20.2988 20.4487 20.391 19.891C20.391 19.3333 20.391 19.0544 20.0221 18.8685C19.6533 18.6826 19.1922 18.8685 19.0078 19.6121C18.8233 20.3557 19.3766 21.0064 18.8233 21.2852C18.2701 21.5641 18.3623 20.5416 18.5467 20.1698C18.7311 19.7051 18.8233 19.0544 18.8233 18.6826C18.8233 18.3108 18.6389 17.8461 18.3623 18.1249C18.0856 18.4038 17.6246 18.3108 17.6246 17.6602ZM32.8398 17.9391C36.2517 17.9391 39.0181 16.7307 39.387 15.1506C39.1103 15.0576 38.8337 14.9647 38.5571 15.2435C38.096 15.8012 38.2804 16.5448 37.6349 16.5448C36.9894 16.5448 37.0816 15.8942 37.3583 15.2435C37.6349 14.5929 37.7271 13.4775 37.0816 13.3846C36.4361 13.1987 36.5284 14.2211 36.5284 14.5929C36.5284 14.9647 35.6984 15.5224 35.6984 14.8717C35.6984 14.2211 36.1595 13.3846 35.7906 13.1987C35.4218 12.9198 35.0529 12.2692 34.4074 12.548C33.6697 12.9198 33.8542 13.3846 34.0386 13.7564C34.223 14.1282 34.4074 14.8717 34.0386 15.2435C33.6697 15.6153 32.6554 15.1506 32.932 14.4999C33.2087 13.9423 33.3931 13.5705 33.3931 13.1987C33.3931 12.7339 33.0242 12.1762 32.471 12.1762C31.9177 12.1762 31.3644 13.1987 30.7189 13.2916C30.0734 13.3846 30.0734 13.5705 30.0734 14.0352C30.0734 14.4999 29.7968 14.9647 29.4279 14.4999C29.0591 14.1282 29.6123 13.4775 29.3357 13.1057C28.9668 12.7339 28.6902 13.1057 28.5058 13.2916C28.3213 13.5705 27.5836 13.5705 27.5836 14.2211C27.5836 14.8717 27.3992 15.3365 27.1226 15.3365C26.9381 15.3365 26.7537 14.5929 26.4771 14.407C26.4771 14.4999 26.4771 14.5929 26.4771 14.7788C26.2004 16.5448 29.1513 17.9391 32.8398 17.9391Z" fill="#952502"/>
<path d="M23.1568 16.08C23.0646 14.9646 23.3412 13.3845 23.3412 13.1056C23.4334 12.8268 24.1711 11.1537 25.831 11.0607C27.3986 10.8748 27.7675 10.8748 28.7818 10.503C29.7962 10.1312 29.7962 9.94535 30.8105 9.94535C31.8249 9.94535 33.5769 9.6665 33.5769 9.6665C34.5913 9.6665 41.7839 10.596 44.5503 12.455C47.3168 14.3139 45.8413 15.1505 45.8413 15.7082C45.8413 16.2659 45.5647 16.4518 44.9192 16.5447C44.2737 16.6377 42.8905 17.753 42.7983 18.1248C42.7061 18.4966 42.245 18.9614 41.9684 18.9614C41.6917 18.9614 40.0319 19.705 39.4786 20.0768C38.9253 20.3556 37.5421 19.7979 37.2655 20.0768C36.9888 20.2627 36.3433 19.5191 35.6978 19.612C35.0523 19.705 33.8536 19.7979 33.2081 20.0768C32.5626 20.2627 31.0872 19.7979 30.4417 20.1697C29.7962 20.4486 29.0585 20.4486 28.0441 20.2627C27.0298 20.0768 25.9232 19.3332 25.3699 18.9614C24.8166 18.5896 23.9867 17.9389 23.249 17.846C22.3269 17.4742 23.1568 17.1954 23.1568 16.08ZM32.8392 17.9389C36.2511 17.9389 39.0175 16.7306 39.3864 15.1505C39.1097 15.0575 38.8331 14.9646 38.5565 15.2434C38.0954 15.8011 38.2798 16.5447 37.6343 16.5447C36.9888 16.5447 37.081 15.8941 37.3577 15.2434C37.6343 14.5928 37.7265 13.4774 37.081 13.3845C36.4355 13.1986 36.5278 14.221 36.5278 14.5928C36.5278 14.9646 35.6978 15.5223 35.6978 14.8716C35.6978 14.221 36.1589 13.3845 35.7901 13.1986C35.4212 12.9197 35.0523 12.2691 34.4068 12.5479C33.6691 12.9197 33.8536 13.3845 34.038 13.7562C34.2224 14.128 34.4068 14.8716 34.038 15.2434C33.6691 15.6152 32.6548 15.1505 32.9314 14.4998C33.2081 13.9421 33.3925 13.5703 33.3925 13.1986C33.3925 12.7338 33.0236 12.1761 32.4704 12.1761C31.9171 12.1761 31.3638 13.1986 30.7183 13.2915C30.0728 13.3845 30.0728 13.5703 30.0728 14.0351C30.0728 14.4998 29.7962 14.9646 29.4273 14.4998C29.0585 14.128 29.6117 13.4774 29.3351 13.1056C28.9662 12.7338 28.6896 13.1056 28.5052 13.2915C28.3207 13.5704 27.583 13.5704 27.583 14.221C27.583 14.8716 27.3986 15.3364 27.122 15.3364C26.9375 15.3364 26.7531 14.5928 26.4765 14.4069C26.4765 14.4998 26.4765 14.5928 26.4765 14.7787C26.1998 16.5447 29.1507 17.9389 32.8392 17.9389Z" fill="#A33500"/>
<path d="M18.1778 14.6862C18.4545 11.8048 23.3418 9.48103 29.7045 8.92334C27.307 9.57398 24.5406 10.4105 23.2496 11.433C20.6676 13.4778 20.1143 15.3368 20.5754 16.4522C21.0365 17.5676 20.4832 18.0323 21.4053 18.683C21.682 18.8689 22.143 18.59 22.6041 18.683C23.0652 18.7759 23.1574 18.9618 23.8951 19.1477C24.5406 19.2406 25.5549 19.9842 25.7394 20.1701C26.016 20.356 26.8459 21.0067 27.307 20.8208C27.6758 20.5419 28.8746 21.1926 29.1513 21.1926C29.4279 21.1926 30.35 21.4714 30.7189 21.0067C31.0878 20.5419 32.0099 20.7278 32.2865 21.0067C32.5632 21.2855 33.3009 20.6349 33.6697 20.6349C34.0386 20.5419 35.0529 20.1701 35.514 20.5419C36.0673 20.9137 35.514 21.5644 36.2517 21.4714C37.0816 21.3785 36.8972 21.2855 37.3583 21.7503C37.7271 22.1221 38.0038 21.0067 38.4648 20.6349C39.0181 20.2631 40.4013 20.8208 41.0468 20.8208C41.7845 20.6349 42.6145 20.6349 42.8911 20.1701C42.9833 19.9842 42.5222 18.8689 42.9833 18.683C43.4444 18.4971 44.5509 18.3112 44.7354 17.9394C44.9198 17.5676 46.1186 17.1958 46.1186 17.1958C46.1186 17.1958 47.0407 16.5451 46.8563 15.9874C46.5796 15.4298 46.8563 14.5932 46.3952 13.6637C46.303 13.4778 46.3952 13.199 46.0264 12.6413C46.6719 13.2919 47.0407 14.0355 47.1329 14.7791C47.4096 15.4298 47.6862 16.3592 47.6862 17.2887C47.6862 18.8689 47.9628 20.449 47.1329 20.449C46.303 20.5419 46.5796 19.7054 46.7641 19.1477C46.8563 18.59 46.5796 18.0323 46.2108 18.3112C45.8419 18.683 45.4731 19.4265 44.6432 19.4265C43.8132 19.4265 43.5366 19.9842 43.5366 20.449C43.6288 20.8208 43.721 21.9362 43.4444 22.6798C43.0755 23.4233 44.4587 24.9105 43.1677 25.1894C41.8767 25.3753 42.43 24.6317 42.5222 23.6092C42.6145 22.5868 42.7989 21.4714 42.43 21.2855C42.0612 21.0067 41.139 21.5644 40.4935 21.6573C39.9403 21.7503 39.1103 21.5644 38.6493 22.1221C38.1882 22.6798 37.9116 23.7022 37.4505 23.7951C36.9894 23.7951 36.9894 22.6798 36.6206 22.6798C36.2517 22.6798 35.9751 22.4939 35.514 22.5868C35.0529 22.6798 34.4074 21.7503 33.9464 21.6573C33.5775 21.5644 32.932 21.8432 32.8398 22.4009C32.7476 22.8656 33.0242 23.7022 32.8398 23.981C32.6554 24.3528 32.7476 25.0964 32.3787 25.1894C32.0099 25.1894 31.7332 24.7246 32.1021 24.074C32.471 23.4233 32.3787 22.9586 32.0099 22.5868C31.7332 22.308 31.3644 21.6573 30.9033 21.7503C30.4423 21.9362 29.889 22.6798 29.4279 22.6798C28.9668 22.6798 28.9668 23.1445 28.9668 23.6092C28.9668 24.1669 28.6902 24.5387 28.5058 24.2599C28.3213 24.074 28.4136 23.3304 28.4136 22.8656C28.4136 22.4009 28.3213 21.7503 27.9525 21.7503C27.5836 21.6573 27.307 22.0291 26.9381 22.1221C26.5693 22.1221 26.1082 21.3785 25.7394 21.1926C25.3705 21.0067 24.725 20.6349 24.4484 20.6349C24.1717 20.6349 24.1717 21.1926 23.9873 21.5644C23.8029 21.9362 24.0795 22.6798 23.8951 22.7727C23.7107 22.7727 23.3418 23.0515 23.1574 22.5868C22.973 22.1221 23.3418 21.9362 23.434 21.2855C23.5262 20.7278 23.0652 20.2631 22.6963 20.1701C22.3275 20.0772 21.9586 20.449 21.5897 20.2631C21.2209 20.0772 21.2209 20.0772 20.9443 20.356C20.5754 20.6349 20.2988 20.5419 20.391 19.9842C20.391 19.4265 20.391 19.1477 20.0221 18.9618C19.6533 18.7759 19.1922 18.9618 19.0078 19.7054C18.8233 20.449 19.3766 21.0996 18.8233 21.3785C18.2701 21.6573 18.3623 20.6349 18.5467 20.2631C18.7311 19.7054 18.8233 19.0548 18.8233 18.683C18.8233 18.3112 18.6389 17.8464 18.3623 18.1253C18.0856 18.4041 17.6246 18.3112 17.6246 17.6605C17.7168 17.1028 17.5323 15.3368 18.1778 14.6862Z" fill="#7B2A02"/>
<path d="M27.0306 13.5703C27.3072 13.3844 27.3994 13.0126 27.9527 12.7338C28.506 12.4549 29.3359 12.4549 29.5203 12.6408C29.6125 12.8267 30.4425 12.7338 30.7191 12.4549C31.088 12.269 31.549 11.8043 31.8257 11.7113C32.1023 11.5254 32.9322 11.7113 33.3011 12.0831C33.6699 12.4549 33.9466 11.8972 34.4077 11.6184C34.9609 11.4325 35.422 11.8043 35.6986 12.0831C35.9753 12.362 35.9753 12.6408 36.5286 12.7338C37.0818 12.8267 37.6351 12.362 38.1884 12.6408C38.7417 12.9197 38.7417 13.6633 38.8339 13.8492C38.9261 14.0351 39.3872 13.7562 39.756 14.4998C40.0327 15.2434 39.2028 15.987 39.2028 15.987L38.8339 16.1729C39.1105 15.894 39.295 15.5222 39.3872 15.2434C39.1105 15.1504 38.8339 15.0575 38.5573 15.3363C38.0962 15.894 38.2806 16.6376 37.6351 16.6376C36.9896 16.6376 37.0818 15.987 37.3585 15.3363C37.6351 14.6857 37.7273 13.5703 37.0818 13.4774C36.4364 13.2915 36.5286 14.3139 36.5286 14.6857C36.5286 15.0575 35.6986 15.6152 35.6986 14.9646C35.6986 14.3139 36.1597 13.4774 35.7909 13.2915C35.422 13.0126 35.0531 12.362 34.4077 12.6408C33.6699 13.0126 33.8544 13.4774 34.0388 13.8492C34.2232 14.221 34.4077 14.9645 34.0388 15.3363C33.6699 15.7081 32.6556 15.2434 32.9322 14.5928C33.2089 14.0351 33.3933 13.6633 33.3933 13.2915C33.3933 12.8267 33.0244 12.269 32.4712 12.269C31.9179 12.269 31.3646 13.2915 30.7191 13.3844C30.0736 13.4774 30.0736 13.6633 30.0736 14.128C30.0736 14.5928 29.797 15.0575 29.4281 14.5928C29.0593 14.221 29.6125 13.5703 29.3359 13.1985C28.967 12.8267 28.6904 13.1985 28.506 13.3844C28.3216 13.6633 27.5838 13.6633 27.5838 14.3139C27.5838 14.9646 27.3994 15.4293 27.1228 15.4293C26.9383 15.4293 26.7539 14.6857 26.4773 14.4998C26.4773 14.5928 26.4773 14.6857 26.4773 14.8716C26.4773 15.2434 26.6617 15.6152 26.9383 15.987C26.5695 15.894 26.2929 15.6152 26.1084 15.2434C25.4629 14.128 26.7539 13.7562 27.0306 13.5703Z" fill="#DD6024"/>
<path d="M44.3669 11.8047C44.7358 12.0835 45.1046 12.4553 45.3813 12.9201C45.6579 13.2919 45.8423 13.7566 45.9346 14.3143C46.0268 14.5931 46.0268 14.779 46.119 15.0579C46.119 15.3367 46.119 15.5226 46.0268 15.8015C45.9346 15.8944 45.9346 15.9874 45.8423 16.0803C45.7501 16.1733 45.6579 16.2662 45.6579 16.3592C45.4735 16.5451 45.3813 16.731 45.1968 16.9169C45.1046 17.0098 45.0124 17.0098 44.9202 17.1028H44.828C44.828 17.1028 44.7358 17.1028 44.6436 17.1028C44.4591 17.1028 44.1825 17.1028 43.9059 17.1028C43.7214 17.1028 43.6292 17.1028 43.4448 17.1957C43.2604 17.2887 43.1681 17.2887 43.0759 17.3816C42.9837 17.4746 42.8915 17.5675 42.7993 17.6605C42.7071 17.7534 42.6149 17.8464 42.5227 17.8464C42.4304 17.9393 42.3382 18.0323 42.1538 18.1252C42.0616 18.2181 41.9694 18.3111 41.8772 18.497C41.7849 18.6829 41.7849 18.7758 41.7849 18.9617C41.7849 19.0547 41.7849 19.0547 41.7849 19.1476C41.7849 19.2406 41.7849 19.2406 41.6927 19.3335C41.6005 19.5194 41.4161 19.7053 41.1394 19.7053C40.955 19.7983 40.6784 19.7983 40.4017 19.7053C40.6784 19.7983 40.955 19.8912 41.2317 19.7983C41.5083 19.7053 41.7849 19.6124 41.9694 19.3335C42.0616 19.2406 42.1538 19.0547 42.1538 18.8688C42.1538 18.7758 42.1538 18.6829 42.246 18.5899C42.3382 18.404 42.5227 18.3111 42.7993 18.2181C42.8915 18.1252 42.9837 18.0323 43.1681 18.0323C43.2604 17.9393 43.3526 17.8464 43.4448 17.8464C43.6292 17.7534 43.8136 17.6605 43.9981 17.6605C44.1825 17.6605 44.4591 17.6605 44.828 17.5675C44.9202 17.5675 45.0124 17.5675 45.0124 17.4746H45.1046C45.1046 17.4746 45.1046 17.4746 45.1968 17.4746L45.2891 17.3816C45.3813 17.2887 45.5657 17.1957 45.6579 17.1028C45.8423 16.9169 46.0268 16.638 46.119 16.4521C46.2112 16.3592 46.2112 16.1733 46.3034 16.0803C46.3956 15.9874 46.4878 15.8944 46.4878 15.7085C46.6723 15.1508 46.6723 14.6861 46.5801 14.1284C46.4878 13.5707 46.3034 13.013 45.9346 12.6412C45.3813 12.2694 44.9202 11.8976 44.3669 11.8047Z" fill="#E86729"/>
<path d="M30.4414 11.0608C30.0726 10.9679 29.7959 11.0608 29.5193 11.0608C29.2426 11.1538 28.8738 11.1538 28.5971 11.3397C28.3205 11.4326 28.0439 11.6185 27.7672 11.8044C27.4906 11.8974 27.2139 11.9903 26.8451 12.0833C26.5684 12.1762 26.1996 12.2692 25.9229 12.4551C25.6463 12.641 25.3697 12.8269 25.093 13.1057C24.9086 13.3846 24.7242 13.6634 24.6319 14.0352C24.5397 14.407 24.6319 14.7788 24.7242 15.0576C24.8164 14.407 25.093 13.9423 25.4619 13.5705C25.6463 13.3846 25.8307 13.1987 26.1074 13.0128L26.8451 12.4551C27.1217 12.2692 27.3984 12.0833 27.675 11.9903C27.9516 11.8974 28.3205 11.8974 28.5971 11.8044C28.8738 11.7115 29.1504 11.6185 29.5193 11.5256C29.8881 11.4326 30.1648 11.2467 30.4414 11.0608Z" fill="#E86729"/>
<path d="M22.3265 2.13822C22.3265 1.95232 22.4187 1.85938 22.6031 1.85938C22.7876 1.85938 22.972 1.95232 22.8798 2.13822C22.8798 2.23117 22.8798 2.32412 22.7876 2.32412C22.6953 2.41707 22.6031 2.41707 22.6031 2.41707C22.4187 2.41707 22.3265 2.23117 22.3265 2.13822Z" fill="#FFBB43"/>
<path d="M22.6023 2.32381C22.4495 2.32381 22.3256 2.19896 22.3256 2.04496C22.3256 1.89096 22.4495 1.76611 22.6023 1.76611C22.7551 1.76611 22.8789 1.89096 22.8789 2.04496C22.8789 2.19896 22.7551 2.32381 22.6023 2.32381Z" fill="#FF91FF"/>
<path d="M22.3256 2.04496C22.3256 2.23086 22.4178 2.32381 22.6023 2.32381C22.6945 2.32381 22.7867 2.32381 22.7867 2.23086C22.8789 2.13791 22.8789 2.04496 22.8789 2.04496C22.8789 1.85906 22.6945 1.76611 22.6023 1.76611C22.4178 1.76611 22.3256 1.95201 22.3256 2.04496ZM22.3256 2.04496C22.3256 1.85906 22.5101 1.76611 22.6023 1.76611C22.7867 1.76611 22.8789 1.85906 22.8789 2.04496C22.8789 2.23086 22.7867 2.32381 22.6023 2.32381C22.4178 2.32381 22.3256 2.23086 22.3256 2.04496Z" fill="#FF61FF"/>
<path d="M22.5093 2.04498C22.4584 2.04498 22.4171 2.00343 22.4171 1.95218C22.4171 1.90093 22.4584 1.85938 22.5093 1.85938C22.5603 1.85938 22.6016 1.90093 22.6016 1.95218C22.6016 2.00343 22.5603 2.04498 22.5093 2.04498Z" fill="white"/>
<path d="M22.6945 1.76611C22.7867 1.76611 22.8789 1.95201 22.8789 2.04496C22.8789 2.23086 22.7867 2.32381 22.6023 2.32381C22.5101 2.32381 22.4178 2.32381 22.4178 2.23086H22.5101C22.6945 2.23086 22.7867 2.13791 22.7867 1.95201C22.7867 1.95201 22.6945 1.85906 22.6945 1.76611Z" fill="#FFC2FF"/>
<path d="M24.1722 8.55148V8.45853C24.1722 8.27264 24.2644 8.17969 24.4488 8.17969C24.6333 8.17969 24.8177 8.27264 24.7255 8.45853C24.7255 8.55148 24.7255 8.64443 24.6333 8.64443C24.541 8.73738 24.4488 8.73738 24.4488 8.73738C24.2644 8.73738 24.1722 8.55148 24.1722 8.45853C24.1722 8.45853 24.1722 8.45853 24.1722 8.55148Z" fill="#FFBB43"/>
<path d="M24.448 8.64461C24.2952 8.64461 24.1713 8.51976 24.1713 8.36576C24.1713 8.21176 24.2952 8.08691 24.448 8.08691C24.6008 8.08691 24.7246 8.21176 24.7246 8.36576C24.7246 8.51976 24.6008 8.64461 24.448 8.64461Z" fill="#FF91FF"/>
<path d="M24.1713 8.36558C24.1713 8.55148 24.2635 8.64443 24.448 8.64443C24.5402 8.64443 24.6324 8.64443 24.6324 8.55148C24.7246 8.45853 24.7246 8.36558 24.7246 8.36558C24.7246 8.17968 24.5402 8.08673 24.448 8.08673C24.2635 7.99379 24.1713 8.17968 24.1713 8.36558ZM24.1713 8.36558C24.1713 8.17968 24.3558 8.08673 24.448 8.08673C24.6324 8.08673 24.7246 8.17968 24.7246 8.36558C24.7246 8.55148 24.6324 8.64443 24.448 8.64443C24.2635 8.64443 24.1713 8.45853 24.1713 8.36558Z" fill="#FF61FF"/>
<path d="M24.3551 8.3653C24.3041 8.3653 24.2628 8.32375 24.2628 8.27249C24.2628 8.22124 24.3041 8.17969 24.3551 8.17969C24.406 8.17969 24.4473 8.22124 24.4473 8.27249C24.4473 8.32375 24.406 8.3653 24.3551 8.3653Z" fill="white"/>
<path d="M24.5402 8.08691C24.6324 8.08691 24.7246 8.27281 24.7246 8.36576C24.7246 8.55166 24.6324 8.64461 24.448 8.64461C24.3558 8.55166 24.2635 8.55166 24.2635 8.55166H24.3558C24.5402 8.55166 24.6324 8.45871 24.6324 8.27281C24.6324 8.17986 24.5402 8.08691 24.5402 8.08691Z" fill="#FFC2FF"/>
<path d="M19.93 9.57394V9.48099C19.93 9.2951 20.0222 9.20215 20.2066 9.20215C20.3911 9.20215 20.5755 9.2951 20.4833 9.48099C20.4833 9.57394 20.4833 9.66689 20.3911 9.66689C20.2989 9.75984 20.2066 9.75984 20.2066 9.75984C20.0222 9.75984 19.93 9.57394 19.93 9.48099C19.8378 9.48099 19.8378 9.481 19.93 9.57394Z" fill="#FFBB43"/>
<path d="M20.114 9.66707C19.9612 9.66707 19.8373 9.54222 19.8373 9.38822C19.8373 9.23422 19.9612 9.10938 20.114 9.10938C20.2668 9.10938 20.3906 9.23422 20.3906 9.38822C20.3906 9.54222 20.2668 9.66707 20.114 9.66707Z" fill="#FF91FF"/>
<path d="M19.8373 9.38804C19.8373 9.57394 19.9296 9.66689 20.114 9.66689C20.2062 9.66689 20.2984 9.66689 20.2984 9.57394C20.3906 9.48099 20.3906 9.38804 20.3906 9.38804C20.3906 9.20214 20.2062 9.1092 20.114 9.1092C20.0218 9.01625 19.8373 9.20214 19.8373 9.38804ZM19.8373 9.38804C19.8373 9.20214 20.0218 9.1092 20.114 9.1092C20.2984 9.1092 20.3906 9.20214 20.3906 9.38804C20.3906 9.57394 20.2984 9.66689 20.114 9.66689C20.0218 9.66689 19.8373 9.48099 19.8373 9.38804Z" fill="#FF61FF"/>
<path d="M20.0211 9.38776C19.9701 9.38776 19.9289 9.34621 19.9289 9.29495C19.9289 9.2437 19.9701 9.20215 20.0211 9.20215C20.072 9.20215 20.1133 9.2437 20.1133 9.29495C20.1133 9.34621 20.072 9.38776 20.0211 9.38776Z" fill="white"/>
<path d="M20.2062 9.10938C20.2984 9.10938 20.3906 9.29527 20.3906 9.38822C20.3906 9.57412 20.2984 9.66707 20.114 9.66707C20.0218 9.66707 19.9296 9.66707 19.9296 9.57412H20.0218C20.2062 9.57412 20.2984 9.48117 20.2984 9.29527C20.2984 9.20232 20.2984 9.10938 20.2062 9.10938Z" fill="#FFC2FF"/>
<path d="M8.7718 9.10941C8.7718 8.92352 8.86401 8.83057 9.04844 8.83057C9.23287 8.83057 9.4173 8.92352 9.32508 9.10941C9.32508 9.20236 9.32508 9.29531 9.23287 9.29531C9.14065 9.38826 9.04844 9.38826 9.04844 9.38826C8.86401 9.38826 8.7718 9.20236 8.7718 9.10941Z" fill="#FFBB43"/>
<path d="M9.04758 9.295C8.89479 9.295 8.77093 9.17015 8.77093 9.01615C8.77093 8.86215 8.89479 8.7373 9.04758 8.7373C9.20036 8.7373 9.32422 8.86215 9.32422 9.01615C9.32422 9.17015 9.20036 9.295 9.04758 9.295Z" fill="#FF91FF"/>
<path d="M8.77093 9.01615C8.77093 9.20205 8.86315 9.295 9.04758 9.295C9.13979 9.295 9.232 9.295 9.232 9.20205C9.32422 9.1091 9.32422 9.01615 9.32422 9.01615C9.32422 8.83025 9.13979 8.7373 9.04758 8.7373C8.86315 8.7373 8.77093 8.83025 8.77093 9.01615ZM8.77093 9.01615C8.77093 8.83025 8.95536 8.7373 9.04758 8.7373C9.23201 8.7373 9.32422 8.83025 9.32422 9.01615C9.32422 9.20205 9.23201 9.295 9.04758 9.295C8.95536 9.295 8.77093 9.20205 8.77093 9.01615Z" fill="#FF61FF"/>
<path d="M8.95466 9.01569C8.90373 9.01569 8.86245 8.97414 8.86245 8.92288C8.86245 8.87163 8.90373 8.83008 8.95466 8.83008C9.00559 8.83008 9.04688 8.87163 9.04688 8.92288C9.04688 8.97414 9.00559 9.01569 8.95466 9.01569Z" fill="white"/>
<path d="M9.13979 8.7373C9.232 8.7373 9.32422 8.9232 9.32422 9.01615C9.32422 9.20205 9.23201 9.295 9.04758 9.295C8.95536 9.295 8.86315 9.295 8.86315 9.20205H8.95536C9.13979 9.20205 9.232 9.1091 9.232 8.9232C9.232 8.9232 9.232 8.83025 9.13979 8.7373Z" fill="#FFC2FF"/>
<path d="M3.69953 8.45822V8.36527C3.69953 8.17937 3.79175 8.08643 3.97618 8.08643C4.1606 8.08643 4.34503 8.17937 4.25282 8.36527C4.25282 8.45822 4.25281 8.55117 4.1606 8.55117C4.06839 8.64412 3.97618 8.64412 3.97618 8.64412C3.79175 8.64412 3.69953 8.45822 3.69953 8.36527C3.69953 8.36527 3.69953 8.36527 3.69953 8.45822Z" fill="#FF9600"/>
<path d="M3.97727 8.55134C3.82448 8.55134 3.70062 8.4265 3.70062 8.2725C3.70062 8.1185 3.82448 7.99365 3.97727 7.99365C4.13005 7.99365 4.25391 8.1185 4.25391 8.2725C4.25391 8.4265 4.13005 8.55134 3.97727 8.55134Z" fill="#FF91FF"/>
<path d="M3.70062 8.2725C3.70062 8.4584 3.79284 8.55134 3.97727 8.55134C4.06948 8.55134 4.16169 8.55134 4.16169 8.4584C4.2539 8.36545 4.25391 8.2725 4.25391 8.2725C4.25391 8.0866 4.06948 7.99365 3.97727 7.99365C3.79284 7.99365 3.70062 8.0866 3.70062 8.2725ZM3.70062 8.2725C3.70062 8.0866 3.88505 7.99365 3.97727 7.99365C4.16169 7.99365 4.25391 8.0866 4.25391 8.2725C4.25391 8.36545 4.06948 8.55134 3.97727 8.55134C3.79284 8.55134 3.70062 8.4584 3.70062 8.2725Z" fill="#FF61FF"/>
<path d="M3.79255 8.27252C3.74163 8.27252 3.70034 8.23097 3.70034 8.17972C3.70034 8.12846 3.74163 8.08691 3.79255 8.08691C3.84348 8.08691 3.88477 8.12846 3.88477 8.17972C3.88477 8.23097 3.84348 8.27252 3.79255 8.27252Z" fill="white"/>
<path d="M3.97794 7.99365C4.07016 7.99365 4.16237 8.17955 4.16237 8.2725C4.25458 8.36545 4.07016 8.55134 3.97794 8.55134C3.88573 8.55134 3.79352 8.55134 3.79352 8.4584H3.88573C4.07015 8.4584 4.16237 8.36545 4.16237 8.17955C4.16237 8.0866 4.07016 8.0866 3.97794 7.99365C4.07016 7.99365 4.07016 7.99365 3.97794 7.99365Z" fill="#FFC2FF"/>
<path d="M4.71516 3.62504C4.71516 3.43914 4.80737 3.34619 4.9918 3.34619C5.17623 3.34619 5.36065 3.43914 5.26844 3.62504C5.26844 3.71799 5.26844 3.81093 5.17623 3.81093C5.17623 3.90388 5.08401 3.90388 4.9918 3.90388C4.80737 3.90388 4.71516 3.71799 4.71516 3.62504Z" fill="#FF9400"/>
<path d="M4.99094 3.81111C4.83815 3.81111 4.7143 3.68627 4.7143 3.53226C4.7143 3.37826 4.83815 3.25342 4.99094 3.25342C5.14372 3.25342 5.26758 3.37826 5.26758 3.53226C5.26758 3.68627 5.14372 3.81111 4.99094 3.81111Z" fill="#FF91FF"/>
<path d="M4.7143 3.53226C4.7143 3.71816 4.80651 3.81111 4.99094 3.81111C5.08315 3.81111 5.17537 3.81111 5.17537 3.71816C5.26758 3.62521 5.26758 3.53226 5.26758 3.53226C5.26758 3.34637 5.08315 3.25342 4.99094 3.25342C4.80651 3.25342 4.7143 3.34637 4.7143 3.53226ZM4.7143 3.53226C4.7143 3.34637 4.89872 3.25342 4.99094 3.25342C5.17537 3.25342 5.26758 3.34637 5.26758 3.53226C5.26758 3.71816 5.17537 3.81111 4.99094 3.81111C4.89872 3.81111 4.7143 3.71816 4.7143 3.53226Z" fill="#FF61FF"/>
<path d="M4.89802 3.5318C4.84709 3.5318 4.80581 3.49025 4.80581 3.439C4.80581 3.38774 4.84709 3.34619 4.89802 3.34619C4.94895 3.34619 4.99023 3.38774 4.99023 3.439C4.99023 3.49025 4.94895 3.5318 4.89802 3.5318Z" fill="white"/>
<path d="M5.08315 3.25342C5.17536 3.25342 5.26758 3.43932 5.26758 3.53226C5.26758 3.71816 5.17537 3.81111 4.99094 3.81111C4.89872 3.81111 4.80651 3.81111 4.80651 3.71816H4.89873C5.08315 3.71816 5.17537 3.62521 5.17537 3.43932C5.17537 3.43932 5.08315 3.34637 5.08315 3.25342Z" fill="#FFC2FF"/>
<path d="M10.2464 2.78879V2.69584C10.2464 2.50994 10.3386 2.41699 10.5231 2.41699C10.7075 2.41699 10.8919 2.50994 10.7997 2.69584C10.7997 2.78879 10.7997 2.88174 10.7075 2.88174C10.7075 2.97468 10.6153 3.06763 10.5231 3.06763C10.3386 3.06763 10.2464 2.88174 10.2464 2.78879Z" fill="#FFBB43"/>
<path d="M10.5222 2.97468C10.3694 2.97468 10.2455 2.84984 10.2455 2.69584C10.2455 2.54184 10.3694 2.41699 10.5222 2.41699C10.675 2.41699 10.7988 2.54184 10.7988 2.69584C10.7988 2.84984 10.675 2.97468 10.5222 2.97468Z" fill="#FF91FF"/>
<path d="M10.2455 2.69566C10.2455 2.78861 10.3378 2.97451 10.5222 2.97451C10.6144 2.97451 10.7066 2.97451 10.7066 2.88156C10.7988 2.78861 10.7988 2.69566 10.7988 2.69566C10.7988 2.50976 10.6144 2.41681 10.5222 2.41681C10.3378 2.32386 10.2455 2.50976 10.2455 2.69566ZM10.2455 2.69566C10.2455 2.50976 10.43 2.41681 10.5222 2.41681C10.7066 2.41681 10.7988 2.50976 10.7988 2.69566C10.7988 2.78861 10.7066 2.97451 10.5222 2.97451C10.3378 2.97451 10.2455 2.78861 10.2455 2.69566Z" fill="#FF61FF"/>
<path d="M10.3375 2.69537C10.2865 2.69537 10.2453 2.65382 10.2453 2.60257C10.2453 2.55132 10.2865 2.50977 10.3375 2.50977C10.3884 2.50977 10.4297 2.55132 10.4297 2.60257C10.4297 2.65382 10.3884 2.69537 10.3375 2.69537Z" fill="white"/>
<path d="M10.5226 2.41699C10.6148 2.41699 10.707 2.60289 10.707 2.69584C10.707 2.88174 10.6148 2.97468 10.4304 2.97468C10.3382 2.97468 10.246 2.97468 10.246 2.88174H10.3382C10.5226 2.88174 10.6148 2.78879 10.6148 2.60289C10.707 2.50994 10.6148 2.41699 10.5226 2.41699C10.6148 2.41699 10.6148 2.41699 10.5226 2.41699Z" fill="#FFC2FF"/>
<path d="M8.03352 1.95236V1.85941C8.03352 1.67352 8.12573 1.58057 8.31016 1.58057C8.49458 1.58057 8.67901 1.67352 8.5868 1.85941C8.5868 1.95236 8.5868 2.04531 8.49459 2.04531C8.40237 2.13826 8.31016 2.13826 8.31016 2.13826C8.12573 2.13826 8.03352 1.95236 8.03352 1.85941C7.9413 1.95236 8.03352 1.95236 8.03352 1.95236Z" fill="#FF9900"/>
<path d="M8.31125 2.045C8.15846 2.045 8.03461 1.92015 8.03461 1.76615C8.03461 1.61215 8.15846 1.4873 8.31125 1.4873C8.46403 1.4873 8.58789 1.61215 8.58789 1.76615C8.58789 1.92015 8.46403 2.045 8.31125 2.045Z" fill="#FF91FF"/>
<path d="M7.94281 1.76615C7.94281 1.95205 8.03503 2.045 8.21945 2.045C8.31167 2.045 8.40388 2.045 8.40388 1.95205C8.4961 1.8591 8.49609 1.76615 8.49609 1.76615C8.49609 1.58025 8.31167 1.4873 8.21945 1.4873C8.12724 1.4873 7.94281 1.6732 7.94281 1.76615ZM7.94281 1.76615C7.94281 1.58025 8.12724 1.4873 8.21945 1.4873C8.40388 1.4873 8.49609 1.58025 8.49609 1.76615C8.49609 1.95205 8.40388 2.045 8.21945 2.045C8.12724 2.13795 7.94281 1.95205 7.94281 1.76615Z" fill="#FF61FF"/>
<path d="M8.12654 1.76618C8.07561 1.76618 8.03432 1.72463 8.03432 1.67337C8.03432 1.62212 8.07561 1.58057 8.12654 1.58057C8.17747 1.58057 8.21875 1.62212 8.21875 1.67337C8.21875 1.72463 8.17747 1.76618 8.12654 1.76618Z" fill="white"/>
<path d="M8.31167 1.58057C8.40388 1.58057 8.49609 1.76646 8.49609 1.85941C8.49609 2.04531 8.40388 2.13826 8.21945 2.13826C8.12724 2.13826 8.03503 2.13826 8.03503 2.04531H8.12724C8.31167 2.04531 8.40388 1.95236 8.40388 1.76646C8.40388 1.67352 8.40388 1.58057 8.31167 1.58057Z" fill="#FFC2FF"/>
<path d="M15.6878 0.930213C15.6878 0.744316 15.78 0.651367 15.9645 0.651367C16.1489 0.651367 16.3333 0.744316 16.2411 0.930213C16.2411 1.02316 16.2411 1.11611 16.1489 1.11611C16.0567 1.20906 15.9645 1.20906 15.9645 1.20906C15.78 1.20906 15.6878 1.02316 15.6878 0.930213Z" fill="#FFBB43"/>
<path d="M15.9655 1.1158C15.8128 1.1158 15.6889 0.990954 15.6889 0.836952C15.6889 0.682949 15.8128 0.558105 15.9655 0.558105C16.1183 0.558105 16.2422 0.682949 16.2422 0.836952C16.2422 0.990954 16.1183 1.1158 15.9655 1.1158Z" fill="#FF91FF"/>
<path d="M15.5967 0.836952C15.5967 1.02285 15.6889 1.1158 15.8733 1.1158C15.9655 1.1158 16.0578 1.1158 16.15 1.1158C16.2422 1.02285 16.2422 0.9299 16.2422 0.9299C16.2422 0.744003 16.0578 0.651054 15.9655 0.651054C15.7811 0.558105 15.5967 0.651054 15.5967 0.836952ZM15.5967 0.836952C15.5967 0.651054 15.7811 0.558105 15.8733 0.558105C16.0578 0.558105 16.15 0.651054 16.15 0.836952C16.2422 1.02285 16.0578 1.1158 15.9655 1.1158C15.7811 1.1158 15.5967 1.02285 15.5967 0.836952Z" fill="#FF61FF"/>
<path d="M15.7808 0.836976C15.7299 0.836976 15.6886 0.795426 15.6886 0.744172C15.6886 0.692917 15.7299 0.651367 15.7808 0.651367C15.8318 0.651367 15.873 0.692917 15.873 0.744172C15.873 0.795426 15.8318 0.836976 15.7808 0.836976Z" fill="white"/>
<path d="M15.9649 0.558105C16.0571 0.558105 16.1493 0.744003 16.1493 0.836952C16.2415 1.02285 16.0571 1.1158 15.8727 1.1158C15.7804 1.1158 15.6882 1.1158 15.6882 1.02285H15.7804C15.9649 1.02285 16.0571 0.9299 16.0571 0.744003C16.0571 0.651054 16.0571 0.651054 15.9649 0.558105Z" fill="#FFC2FF"/>
<path d="M20.3909 3.16037V3.06742C20.3909 2.88152 20.4832 2.78857 20.6676 2.78857C20.852 2.78857 21.0364 2.88152 20.9442 3.06742C20.9442 3.16037 20.9442 3.25332 20.852 3.25332C20.7598 3.34627 20.6676 3.34627 20.6676 3.34627C20.4832 3.34627 20.3909 3.16037 20.3909 3.06742C20.2987 3.16037 20.2987 3.16037 20.3909 3.16037Z" fill="#FFBB43"/>
<path d="M20.5749 3.34627C20.4221 3.34627 20.2983 3.22142 20.2983 3.06742C20.2983 2.91342 20.4221 2.78857 20.5749 2.78857C20.7277 2.78857 20.8516 2.91342 20.8516 3.06742C20.8516 3.22142 20.7277 3.34627 20.5749 3.34627Z" fill="#FF4F00"/>
<path d="M20.2983 3.06724C20.2983 3.25314 20.3905 3.34609 20.5749 3.34609C20.6671 3.34609 20.7593 3.34609 20.7593 3.25314C20.8516 3.16019 20.8516 3.06724 20.8516 3.06724C20.8516 2.88134 20.6671 2.78839 20.5749 2.78839C20.4827 2.69545 20.2983 2.88134 20.2983 3.06724ZM20.2983 3.06724C20.2983 2.88134 20.4827 2.78839 20.5749 2.78839C20.7593 2.78839 20.8516 2.88134 20.8516 3.06724C20.8516 3.25314 20.7593 3.34609 20.5749 3.34609C20.4827 3.34609 20.2983 3.16019 20.2983 3.06724Z" fill="#FF0000"/>
<path d="M20.482 3.06696C20.4311 3.06696 20.3898 3.02541 20.3898 2.97415C20.3898 2.9229 20.4311 2.88135 20.482 2.88135C20.5329 2.88135 20.5742 2.9229 20.5742 2.97415C20.5742 3.02541 20.5329 3.06696 20.482 3.06696Z" fill="white"/>
<path d="M20.6671 2.78857C20.7593 2.78857 20.8516 2.97447 20.8516 3.06742C20.8516 3.25332 20.7593 3.34627 20.5749 3.34627C20.4827 3.34627 20.3905 3.34627 20.3905 3.25332H20.4827C20.6671 3.25332 20.7593 3.16037 20.7593 2.97447C20.7593 2.88152 20.7593 2.78857 20.6671 2.78857Z" fill="#FFC8B1"/>
<path d="M13.8441 2.13822C13.8441 1.95232 13.9363 1.85938 14.1207 1.85938C14.3051 1.85938 14.4896 1.95232 14.3973 2.13822C14.3973 2.23117 14.3973 2.32412 14.3051 2.32412C14.2129 2.41707 14.1207 2.41707 14.1207 2.41707C13.9363 2.41707 13.8441 2.23117 13.8441 2.13822Z" fill="#FFBB43"/>
<path d="M14.1218 2.32381C13.969 2.32381 13.8452 2.19896 13.8452 2.04496C13.8452 1.89096 13.969 1.76611 14.1218 1.76611C14.2746 1.76611 14.3984 1.89096 14.3984 2.04496C14.3984 2.19896 14.2746 2.32381 14.1218 2.32381Z" fill="#FF4F00"/>
<path d="M13.7534 2.04496C13.7534 2.23086 13.8456 2.32381 14.03 2.32381C14.1222 2.32381 14.2144 2.32381 14.2144 2.23086C14.3066 2.13791 14.3066 2.04496 14.3066 2.04496C14.3066 1.85906 14.1222 1.76611 14.03 1.76611C13.9378 1.76611 13.7534 1.95201 13.7534 2.04496ZM13.7534 2.04496C13.7534 1.85906 13.9378 1.76611 14.03 1.76611C14.2144 1.76611 14.3066 1.85906 14.3066 2.04496C14.3066 2.23086 14.2144 2.32381 14.03 2.32381C13.9378 2.32381 13.7534 2.23086 13.7534 2.04496Z" fill="#FF0000"/>
<path d="M13.9371 2.04498C13.8862 2.04498 13.8449 2.00343 13.8449 1.95218C13.8449 1.90093 13.8862 1.85938 13.9371 1.85938C13.988 1.85938 14.0293 1.90093 14.0293 1.95218C14.0293 2.00343 13.988 2.04498 13.9371 2.04498Z" fill="white"/>
<path d="M14.1222 1.76611C14.2144 1.76611 14.3066 1.95201 14.3066 2.04496C14.3066 2.23086 14.2144 2.32381 14.03 2.32381C13.9378 2.32381 13.8456 2.32381 13.8456 2.23086H13.9378C14.1222 2.23086 14.2144 2.13791 14.2144 1.95201C14.2144 1.95201 14.2144 1.85906 14.1222 1.76611C14.1222 1.85906 14.1222 1.85906 14.1222 1.76611Z" fill="#FFC8B1"/>
<path d="M6.83625 3.99728V3.90433C6.83625 3.71844 6.92847 3.62549 7.11289 3.62549C7.29732 3.62549 7.48175 3.71844 7.38953 3.90433C7.38953 3.99728 7.38954 4.09023 7.29732 4.09023C7.20511 4.18318 7.11289 4.18318 7.11289 4.18318C6.92847 4.18318 6.83625 3.99728 6.83625 3.90433C6.83625 3.90433 6.83625 3.90433 6.83625 3.99728Z" fill="#FFBB43"/>
<path d="M7.11398 4.08992C6.9612 4.08992 6.83734 3.96508 6.83734 3.81107C6.83734 3.65707 6.9612 3.53223 7.11398 3.53223C7.26677 3.53223 7.39062 3.65707 7.39062 3.81107C7.39062 3.96508 7.26677 4.08992 7.11398 4.08992Z" fill="#FF4F00"/>
<path d="M6.74555 3.81107C6.74555 3.99697 6.83776 4.08992 7.02219 4.08992C7.1144 4.08992 7.20662 4.08992 7.20662 3.99697C7.29883 3.90402 7.29883 3.81107 7.29883 3.81107C7.29883 3.62518 7.1144 3.53223 7.02219 3.53223C6.92997 3.53223 6.74555 3.62518 6.74555 3.81107ZM6.74555 3.81107C6.74555 3.62518 6.92997 3.53223 7.02219 3.53223C7.20662 3.53223 7.29883 3.62518 7.29883 3.81107C7.29883 3.99697 7.20662 4.08992 7.02219 4.08992C6.92997 4.08992 6.74555 3.99697 6.74555 3.81107Z" fill="#FF0000"/>
<path d="M6.92927 3.8111C6.87834 3.8111 6.83706 3.76955 6.83706 3.71829C6.83706 3.66704 6.87834 3.62549 6.92927 3.62549C6.9802 3.62549 7.02148 3.66704 7.02148 3.71829C7.02148 3.76955 6.9802 3.8111 6.92927 3.8111Z" fill="white"/>
<path d="M7.1144 3.53223C7.20661 3.53223 7.29883 3.71812 7.29883 3.81107C7.29883 3.99697 7.20662 4.08992 7.02219 4.08992C6.92997 4.08992 6.83776 4.08992 6.83776 3.99697H6.92997C7.1144 3.99697 7.20662 3.90402 7.20662 3.71812C7.20662 3.62518 7.20661 3.62518 7.1144 3.53223Z" fill="#FFC8B1"/>
<path d="M6.6507 7.9006V7.80765C6.6507 7.62176 6.74292 7.52881 6.92734 7.52881C7.11177 7.52881 7.2962 7.62176 7.20399 7.80765C7.20399 7.9006 7.20399 7.99355 7.11177 7.99355C7.01956 8.0865 6.92734 8.0865 6.92734 8.0865C6.74292 8.0865 6.6507 7.9006 6.6507 7.80765C6.55849 7.9006 6.55849 7.9006 6.6507 7.9006Z" fill="#FFBB43"/>
<path d="M6.83469 8.0865C6.6819 8.0865 6.55805 7.96166 6.55805 7.80765C6.55805 7.65365 6.6819 7.52881 6.83469 7.52881C6.98747 7.52881 7.11133 7.65365 7.11133 7.80765C7.11133 7.96166 6.98747 8.0865 6.83469 8.0865Z" fill="#FF4F00"/>
<path d="M6.55805 7.80796C6.55805 7.99386 6.65026 8.08681 6.83469 8.08681C6.9269 8.08681 7.01912 8.08681 7.01912 7.99386C7.11133 7.90091 7.11133 7.80796 7.11133 7.80796C7.11133 7.62207 6.9269 7.52912 6.83469 7.52912C6.74247 7.43617 6.55805 7.62207 6.55805 7.80796ZM6.55805 7.80796C6.55805 7.62207 6.74247 7.52912 6.83469 7.52912C7.01912 7.52912 7.11133 7.62207 7.11133 7.80796C7.11133 7.99386 7.01912 8.08681 6.83469 8.08681C6.74247 8.08681 6.55805 7.90091 6.55805 7.80796Z" fill="#FF0000"/>
<path d="M6.74373 7.80768C6.6928 7.80768 6.65151 7.76613 6.65151 7.71488C6.65151 7.66362 6.6928 7.62207 6.74373 7.62207C6.79465 7.62207 6.83594 7.66362 6.83594 7.71488C6.83594 7.76613 6.79465 7.80768 6.74373 7.80768Z" fill="white"/>
<path d="M6.9269 7.52881C7.01911 7.52881 7.11133 7.71471 7.11133 7.80765C7.11133 7.99355 7.01912 8.0865 6.83469 8.0865C6.74247 8.0865 6.65026 8.0865 6.65026 7.99355H6.74248C6.9269 7.99355 7.01912 7.9006 7.01912 7.71471C7.01912 7.62176 7.01911 7.52881 6.9269 7.52881Z" fill="#FFC8B1"/>
<path d="M1.76399 6.50639C1.76399 6.32049 1.8562 6.22754 2.04063 6.22754C2.22506 6.22754 2.40948 6.32049 2.31727 6.50639C2.31727 6.59933 2.31727 6.69228 2.22506 6.69228C2.13284 6.78523 2.04063 6.78523 2.04063 6.78523C1.8562 6.78523 1.76399 6.59933 1.76399 6.50639Z" fill="#FFBB43"/>
<path d="M2.04172 6.69246C1.88893 6.69246 1.76508 6.56761 1.76508 6.41361C1.76508 6.25961 1.88893 6.13477 2.04172 6.13477C2.1945 6.13477 2.31836 6.25961 2.31836 6.41361C2.31836 6.56761 2.1945 6.69246 2.04172 6.69246Z" fill="#FF4F00"/>
<path d="M1.76508 6.41361C1.76508 6.59951 1.85729 6.69246 2.04172 6.69246C2.13393 6.69246 2.22615 6.69246 2.22615 6.59951C2.31836 6.50656 2.31836 6.41361 2.31836 6.41361C2.31836 6.22771 2.13393 6.13477 2.04172 6.13477C1.85729 6.13477 1.67287 6.32066 1.76508 6.41361ZM1.76508 6.41361C1.76508 6.22771 1.94951 6.13477 2.04172 6.13477C2.22615 6.13477 2.31836 6.22771 2.31836 6.41361C2.31836 6.59951 2.22615 6.69246 2.04172 6.69246C1.85729 6.78541 1.67287 6.59951 1.76508 6.41361Z" fill="#FF0000"/>
<path d="M1.857 6.41315C1.80607 6.41315 1.76479 6.3716 1.76479 6.32034C1.76479 6.26909 1.80607 6.22754 1.857 6.22754C1.90793 6.22754 1.94922 6.26909 1.94922 6.32034C1.94922 6.3716 1.90793 6.41315 1.857 6.41315Z" fill="white"/>
<path d="M2.04213 6.22754C2.13435 6.22754 2.22656 6.41344 2.22656 6.50639C2.22656 6.69228 2.13435 6.78523 1.94992 6.78523C1.85771 6.78523 1.76549 6.78523 1.76549 6.69228H1.85771C2.13435 6.69228 2.22656 6.50639 2.22656 6.32049C2.13435 6.32049 2.13435 6.22754 2.04213 6.22754Z" fill="#FFC8B1"/>
<path d="M13.1976 10.3189C13.1976 10.133 13.2898 10.04 13.4742 10.04C13.6587 10.04 13.8431 10.133 13.7509 10.3189C13.7509 10.4118 13.7509 10.5048 13.6587 10.5048C13.5664 10.5977 13.4742 10.5977 13.4742 10.5977C13.2898 10.5977 13.1976 10.4118 13.1976 10.3189Z" fill="#FFBB43"/>
<path d="M13.4753 10.505C13.3225 10.505 13.1987 10.3801 13.1987 10.2261C13.1987 10.0721 13.3225 9.94727 13.4753 9.94727C13.6281 9.94727 13.752 10.0721 13.752 10.2261C13.752 10.3801 13.6281 10.505 13.4753 10.505Z" fill="#FF4F00"/>
<path d="M13.1987 10.2261C13.1987 10.412 13.2909 10.505 13.4753 10.505C13.5675 10.505 13.6597 10.505 13.6597 10.412C13.752 10.3191 13.752 10.2261 13.752 10.2261C13.752 10.0402 13.5675 9.94727 13.4753 9.94727C13.2909 9.94727 13.1987 10.1332 13.1987 10.2261ZM13.1987 10.2261C13.1987 10.0402 13.3831 9.94727 13.4753 9.94727C13.6597 9.94727 13.752 10.0402 13.752 10.2261C13.752 10.412 13.6597 10.505 13.4753 10.505C13.2909 10.505 13.1987 10.412 13.1987 10.2261Z" fill="#FF0000"/>
<path d="M13.3824 10.2256C13.3315 10.2256 13.2902 10.1841 13.2902 10.1328C13.2902 10.0816 13.3315 10.04 13.3824 10.04C13.4333 10.04 13.4746 10.0816 13.4746 10.1328C13.4746 10.1841 13.4333 10.2256 13.3824 10.2256Z" fill="white"/>
<path d="M13.5675 9.94727C13.6597 9.94727 13.752 10.1332 13.752 10.2261C13.752 10.412 13.6597 10.505 13.4753 10.505C13.3831 10.505 13.2909 10.505 13.2909 10.412H13.3831C13.5675 10.412 13.6597 10.3191 13.6597 10.1332C13.6597 10.1332 13.5675 10.0402 13.5675 9.94727Z" fill="#FFC8B1"/>
<path d="M21.8655 10.0388V9.94584C21.8655 9.75994 21.9578 9.66699 22.1422 9.66699C22.3266 9.66699 22.511 9.75994 22.4188 9.94584C22.4188 10.0388 22.4188 10.1317 22.3266 10.1317C22.2344 10.2247 22.1422 10.2247 22.1422 10.2247C21.9578 10.2247 21.8655 10.0388 21.8655 9.94584C21.7733 10.0388 21.8655 10.0388 21.8655 10.0388Z" fill="#FFBB43"/>
<path d="M22.1413 10.2247C21.9885 10.2247 21.8647 10.0998 21.8647 9.94584C21.8647 9.79184 21.9885 9.66699 22.1413 9.66699C22.2941 9.66699 22.418 9.79184 22.418 9.94584C22.418 10.0998 22.2941 10.2247 22.1413 10.2247Z" fill="#FF4F00"/>
<path d="M21.7729 9.94566C21.7729 10.1316 21.8651 10.2245 22.0495 10.2245C22.1417 10.2245 22.234 10.2245 22.234 10.1316C22.3262 10.0386 22.3262 9.94566 22.3262 9.94566C22.3262 9.75976 22.1417 9.66681 22.0495 9.66681C21.9573 9.57386 21.7729 9.75976 21.7729 9.94566ZM21.7729 9.94566C21.7729 9.75976 21.9573 9.66681 22.0495 9.66681C22.234 9.66681 22.3262 9.75976 22.3262 9.94566C22.3262 10.1316 22.234 10.2245 22.0495 10.2245C21.9573 10.2245 21.7729 10.0386 21.7729 9.94566Z" fill="#FF0000"/>
<path d="M21.9566 9.94537C21.9057 9.94537 21.8644 9.90382 21.8644 9.85257C21.8644 9.80132 21.9057 9.75977 21.9566 9.75977C22.0075 9.75977 22.0488 9.80132 22.0488 9.85257C22.0488 9.90382 22.0075 9.94537 21.9566 9.94537Z" fill="white"/>
<path d="M22.1417 9.66699C22.234 9.66699 22.3262 9.85289 22.3262 9.94584C22.3262 10.1317 22.234 10.2247 22.0495 10.2247C21.9573 10.2247 21.8651 10.2247 21.8651 10.1317H21.9573C22.1417 10.1317 22.234 10.0388 22.234 9.85289C22.234 9.75994 22.234 9.66699 22.1417 9.66699Z" fill="#FFC8B1"/>
<path d="M26.7542 6.4133V6.32035C26.7542 6.13445 26.8464 6.0415 27.0309 6.0415C27.2153 6.0415 27.3997 6.13445 27.3075 6.32035C27.3075 6.4133 27.3075 6.50625 27.2153 6.50625C27.1231 6.5992 27.0309 6.5992 27.0309 6.5992C26.8464 6.5992 26.7542 6.4133 26.7542 6.32035C26.7542 6.32035 26.7542 6.32035 26.7542 6.4133Z" fill="#FFBB43"/>
<path d="M27.03 6.50642C26.8772 6.50642 26.7534 6.38158 26.7534 6.22758C26.7534 6.07357 26.8772 5.94873 27.03 5.94873C27.1828 5.94873 27.3066 6.07357 27.3066 6.22758C27.3066 6.38158 27.1828 6.50642 27.03 6.50642Z" fill="#FF4F00"/>
<path d="M26.7534 6.22758C26.7534 6.41347 26.8456 6.50642 27.03 6.50642C27.1222 6.50642 27.2144 6.50642 27.2144 6.41347C27.3066 6.32053 27.3066 6.22758 27.3066 6.22758C27.3066 6.04168 27.1222 5.94873 27.03 5.94873C26.8456 5.94873 26.7534 6.04168 26.7534 6.22758ZM26.7534 6.22758C26.7534 6.04168 26.9378 5.94873 27.03 5.94873C27.2144 5.94873 27.3066 6.04168 27.3066 6.22758C27.3066 6.41347 27.2144 6.50642 27.03 6.50642C26.8456 6.50642 26.7534 6.41347 26.7534 6.22758Z" fill="#FF0000"/>
<path d="M26.9371 6.22711C26.8862 6.22711 26.8449 6.18556 26.8449 6.13431C26.8449 6.08305 26.8862 6.0415 26.9371 6.0415C26.988 6.0415 27.0293 6.08305 27.0293 6.13431C27.0293 6.18556 26.988 6.22711 26.9371 6.22711Z" fill="white"/>
<path d="M27.1222 5.94873C27.2144 5.94873 27.3066 6.13463 27.3066 6.22758C27.3066 6.41347 27.2144 6.50642 27.03 6.50642C26.9378 6.50642 26.8456 6.50642 26.8456 6.41347H26.9378C27.1222 6.41347 27.2144 6.32053 27.2144 6.13463C27.2144 6.04168 27.1222 6.04168 27.1222 5.94873Z" fill="#FFC8B1"/>
<path d="M23.3421 4.64799C23.3421 4.46209 23.4343 4.36914 23.6188 4.36914C23.8032 4.36914 23.9876 4.46209 23.8954 4.64799C23.8954 4.74094 23.8954 4.83388 23.8032 4.83388C23.711 4.92683 23.6188 4.92683 23.6188 4.92683C23.4343 4.92683 23.3421 4.74094 23.3421 4.64799Z" fill="#FFBB43"/>
<path d="M23.6179 4.83357C23.4651 4.83357 23.3412 4.70873 23.3412 4.55472C23.3412 4.40072 23.4651 4.27588 23.6179 4.27588C23.7707 4.27588 23.8945 4.40072 23.8945 4.55472C23.8945 4.70873 23.7707 4.83357 23.6179 4.83357Z" fill="#00B800"/>
<path d="M23.3412 4.55472C23.3412 4.74062 23.4335 4.83357 23.6179 4.83357C23.7101 4.83357 23.8023 4.83357 23.8023 4.74062C23.8945 4.64767 23.8945 4.55472 23.8945 4.55472C23.8945 4.36883 23.7101 4.27588 23.6179 4.27588C23.4335 4.27588 23.3412 4.46178 23.3412 4.55472ZM23.3412 4.55472C23.3412 4.36883 23.5257 4.27588 23.6179 4.27588C23.8023 4.27588 23.8945 4.36883 23.8945 4.55472C23.8945 4.74062 23.8023 4.83357 23.6179 4.83357C23.5257 4.92652 23.3412 4.74062 23.3412 4.55472Z" fill="#008200"/>
<path d="M23.525 4.64752C23.474 4.64752 23.4328 4.60597 23.4328 4.55472C23.4328 4.50346 23.474 4.46191 23.525 4.46191C23.5759 4.46191 23.6172 4.50346 23.6172 4.55472C23.6172 4.60597 23.5759 4.64752 23.525 4.64752Z" fill="white"/>
<path d="M23.7101 4.36914C23.8023 4.36914 23.8945 4.55504 23.8945 4.64799C23.8945 4.83388 23.8023 4.92683 23.6179 4.92683C23.5257 4.83388 23.4335 4.83388 23.4335 4.74094H23.5257C23.7101 4.74094 23.8023 4.64799 23.8023 4.46209C23.8023 4.46209 23.8023 4.36914 23.7101 4.36914Z" fill="#77D977"/>
<path d="M22.0511 8.27299C22.0511 8.08709 22.1433 7.99414 22.3277 7.99414C22.5122 7.99414 22.6966 8.08709 22.6044 8.27299C22.6044 8.36594 22.6044 8.45888 22.5122 8.45888C22.5122 8.55183 22.42 8.55183 22.3277 8.55183C22.1433 8.55183 22.0511 8.36594 22.0511 8.27299Z" fill="#FFBB43"/>
<path d="M22.3269 8.45857C22.1741 8.45857 22.0502 8.33373 22.0502 8.17973C22.0502 8.02572 22.1741 7.90088 22.3269 7.90088C22.4797 7.90088 22.6035 8.02572 22.6035 8.17973C22.6035 8.33373 22.4797 8.45857 22.3269 8.45857Z" fill="#00B800"/>
<path d="M22.0502 8.17973C22.0502 8.36562 22.1424 8.45857 22.3269 8.45857C22.4191 8.45857 22.5113 8.45857 22.5113 8.36562C22.6035 8.27267 22.6035 8.17973 22.6035 8.17973C22.6035 7.99383 22.4191 7.90088 22.3269 7.90088C22.1424 7.90088 22.0502 8.08678 22.0502 8.17973ZM22.0502 8.17973C22.0502 7.99383 22.2347 7.90088 22.3269 7.90088C22.5113 7.90088 22.6035 7.99383 22.6035 8.17973C22.6035 8.36562 22.5113 8.45857 22.3269 8.45857C22.2347 8.55152 22.0502 8.36562 22.0502 8.17973Z" fill="#008200"/>
<path d="M22.234 8.17975C22.183 8.17975 22.1417 8.1382 22.1417 8.08695C22.1417 8.03569 22.183 7.99414 22.234 7.99414C22.2849 7.99414 22.3262 8.03569 22.3262 8.08695C22.3262 8.1382 22.2849 8.17975 22.234 8.17975Z" fill="white"/>
<path d="M22.4191 7.99414C22.5113 7.99414 22.6035 8.18004 22.6035 8.27299C22.6035 8.45888 22.5113 8.55183 22.3269 8.55183C22.2347 8.55183 22.1424 8.55183 22.1424 8.45888H22.2347C22.4191 8.45888 22.5113 8.36594 22.5113 8.18004C22.5113 8.08709 22.4191 7.99414 22.4191 7.99414Z" fill="#77D977"/>
<path d="M16.1488 10.2261C16.1488 10.0402 16.241 9.94727 16.4254 9.94727C16.6098 9.94727 16.7942 10.0402 16.702 10.2261C16.702 10.3191 16.702 10.412 16.6098 10.412C16.5176 10.505 16.4254 10.505 16.4254 10.505C16.241 10.505 16.1488 10.3191 16.1488 10.2261Z" fill="#FFBB43"/>
<path d="M16.4265 10.4122C16.2737 10.4122 16.1498 10.2873 16.1498 10.1333C16.1498 9.97934 16.2737 9.85449 16.4265 9.85449C16.5793 9.85449 16.7031 9.97934 16.7031 10.1333C16.7031 10.2873 16.5793 10.4122 16.4265 10.4122Z" fill="#00B800"/>
<path d="M16.1498 10.1333C16.1498 10.3192 16.2421 10.4122 16.4265 10.4122C16.5187 10.4122 16.6109 10.4122 16.6109 10.3192C16.7031 10.2263 16.7031 10.1333 16.7031 10.1333C16.7031 9.94744 16.5187 9.85449 16.4265 9.85449C16.2421 9.85449 16.1498 10.0404 16.1498 10.1333ZM16.1498 10.1333C16.1498 9.94744 16.3343 9.85449 16.4265 9.85449C16.6109 9.85449 16.7031 9.94744 16.7031 10.1333C16.7031 10.3192 16.6109 10.4122 16.4265 10.4122C16.2421 10.4122 16.1498 10.3192 16.1498 10.1333Z" fill="#008200"/>
<path d="M16.3336 10.1329C16.2826 10.1329 16.2414 10.0913 16.2414 10.0401C16.2414 9.98882 16.2826 9.94727 16.3336 9.94727C16.3845 9.94727 16.4258 9.98882 16.4258 10.0401C16.4258 10.0913 16.3845 10.1329 16.3336 10.1329Z" fill="white"/>
<path d="M16.5187 9.94727C16.6109 9.94727 16.7031 10.1332 16.7031 10.2261C16.7031 10.412 16.6109 10.505 16.4265 10.505C16.3343 10.505 16.2421 10.505 16.2421 10.412H16.3343C16.5187 10.412 16.6109 10.3191 16.6109 10.1332C16.6109 10.0402 16.5187 9.94727 16.5187 9.94727Z" fill="#77D977"/>
<path d="M7.84992 10.133V10.0401C7.84992 9.85418 7.94214 9.76123 8.12657 9.76123C8.31099 9.76123 8.49542 9.85418 8.40321 10.0401C8.40321 10.133 8.4032 10.226 8.31099 10.226C8.21878 10.3189 8.12657 10.3189 8.12657 10.3189C7.94214 10.3189 7.84992 10.133 7.84992 10.0401C7.84992 10.133 7.84992 10.133 7.84992 10.133Z" fill="#FFBB43"/>
<path d="M8.1257 10.3189C7.97292 10.3189 7.84906 10.1941 7.84906 10.0401C7.84906 9.88607 7.97292 9.76123 8.1257 9.76123C8.27849 9.76123 8.40234 9.88607 8.40234 10.0401C8.40234 10.1941 8.27849 10.3189 8.1257 10.3189Z" fill="#00B800"/>
<path d="M7.75727 10.0401C7.75727 10.226 7.84948 10.3189 8.03391 10.3189C8.12612 10.3189 8.21833 10.3189 8.21833 10.226C8.31055 10.133 8.31055 10.0401 8.31055 10.0401C8.31055 9.85418 8.12612 9.76123 8.03391 9.76123C7.94169 9.76123 7.75727 9.85418 7.75727 10.0401ZM7.75727 10.0401C7.75727 9.85418 7.94169 9.76123 8.03391 9.76123C8.21833 9.76123 8.31055 9.85418 8.31055 10.0401C8.31055 10.226 8.21833 10.3189 8.03391 10.3189C7.94169 10.3189 7.75727 10.226 7.75727 10.0401Z" fill="#008200"/>
<path d="M7.94099 10.0401C7.89006 10.0401 7.84878 9.99855 7.84878 9.9473C7.84878 9.89604 7.89006 9.85449 7.94099 9.85449C7.99192 9.85449 8.0332 9.89604 8.0332 9.9473C8.0332 9.99855 7.99192 10.0401 7.94099 10.0401Z" fill="white"/>
<path d="M8.12612 9.76123C8.21834 9.76123 8.31055 9.94713 8.31055 10.0401C8.31055 10.226 8.21833 10.3189 8.03391 10.3189C7.94169 10.3189 7.84948 10.3189 7.84948 10.226H7.94169C8.12612 10.226 8.21833 10.133 8.21833 9.94713C8.21833 9.85418 8.21834 9.85418 8.12612 9.76123Z" fill="#77D977"/>
<path d="M3.60774 10.133V10.0401C3.60774 9.85418 3.69995 9.76123 3.88438 9.76123C4.06881 9.76123 4.25323 9.85418 4.16102 10.0401C4.16102 10.133 4.16102 10.226 4.06881 10.226C3.97659 10.226 3.88438 10.3189 3.88438 10.3189C3.69995 10.3189 3.60774 10.133 3.60774 10.0401C3.51553 10.0401 3.51553 10.133 3.60774 10.133Z" fill="#FFBB43"/>
<path d="M3.79172 10.3189C3.63893 10.3189 3.51508 10.1941 3.51508 10.0401C3.51508 9.88607 3.63893 9.76123 3.79172 9.76123C3.9445 9.76123 4.06836 9.88607 4.06836 10.0401C4.06836 10.1941 3.9445 10.3189 3.79172 10.3189Z" fill="#00B800"/>
<path d="M3.51508 10.0399C3.51508 10.2258 3.60729 10.3187 3.79172 10.3187C3.88393 10.3187 3.97615 10.3187 3.97615 10.2258C4.06836 10.1328 4.06836 10.0399 4.06836 10.0399C4.06836 9.854 3.88393 9.76105 3.79172 9.76105C3.69951 9.6681 3.51508 9.854 3.51508 10.0399ZM3.51508 10.0399C3.51508 9.854 3.69951 9.76105 3.79172 9.76105C3.97615 9.76105 4.06836 9.854 4.06836 10.0399C4.06836 10.2258 3.97615 10.3187 3.79172 10.3187C3.69951 10.3187 3.51508 10.1328 3.51508 10.0399Z" fill="#008200"/>
<path d="M3.70075 10.0396C3.64982 10.0396 3.60854 9.99806 3.60854 9.94681C3.60854 9.89555 3.64982 9.854 3.70075 9.854C3.75168 9.854 3.79297 9.89555 3.79297 9.94681C3.79297 9.99806 3.75168 10.0396 3.70075 10.0396Z" fill="white"/>
<path d="M3.88393 9.76123C3.97615 9.76123 4.06836 9.94713 4.06836 10.0401C4.06836 10.226 3.97615 10.3189 3.79172 10.3189C3.69951 10.3189 3.60729 10.3189 3.60729 10.226H3.6995C3.88393 10.226 3.97615 10.133 3.97615 9.94713C3.97615 9.85418 3.97615 9.76123 3.88393 9.76123Z" fill="#77D977"/>
<path d="M3.60774 5.76291V5.66996C3.60774 5.48406 3.69995 5.39111 3.88438 5.39111C4.06881 5.39111 4.25323 5.48406 4.16102 5.66996C4.16102 5.76291 4.16102 5.85586 4.06881 5.85586C3.97659 5.94881 3.88438 5.94881 3.88438 5.94881C3.69995 5.94881 3.60774 5.76291 3.60774 5.66996C3.60774 5.76291 3.60774 5.76291 3.60774 5.76291Z" fill="#FF8000"/>
<path d="M3.88547 5.94881C3.73268 5.94881 3.60883 5.82396 3.60883 5.66996C3.60883 5.51596 3.73268 5.39111 3.88547 5.39111C4.03825 5.39111 4.16211 5.51596 4.16211 5.66996C4.16211 5.82396 4.03825 5.94881 3.88547 5.94881Z" fill="#00B800"/>
<path d="M3.60883 5.66996C3.60883 5.85586 3.70104 5.94881 3.88547 5.94881C3.97768 5.94881 4.0699 5.94881 4.0699 5.85586C4.16211 5.76291 4.16211 5.66996 4.16211 5.66996C4.16211 5.48406 3.97768 5.39111 3.88547 5.39111C3.70104 5.39111 3.60883 5.48406 3.60883 5.66996ZM3.60883 5.66996C3.60883 5.48406 3.79326 5.39111 3.88547 5.39111C4.0699 5.39111 4.16211 5.48406 4.16211 5.66996C4.16211 5.85586 4.0699 5.94881 3.88547 5.94881C3.70104 5.94881 3.60883 5.85586 3.60883 5.66996Z" fill="#008200"/>
<path d="M3.70075 5.66998C3.64982 5.66998 3.60854 5.62843 3.60854 5.57718C3.60854 5.52593 3.64982 5.48438 3.70075 5.48438C3.75168 5.48438 3.79297 5.52593 3.79297 5.57718C3.79297 5.62843 3.75168 5.66998 3.70075 5.66998Z" fill="white"/>
<path d="M3.97768 5.39111C4.0699 5.39111 4.16211 5.57701 4.16211 5.66996C4.16211 5.85586 4.0699 5.94881 3.88547 5.94881C3.79326 5.94881 3.70104 5.94881 3.70104 5.85586H3.79326C3.97768 5.85586 4.0699 5.76291 4.0699 5.57701C4.0699 5.48406 3.97768 5.48406 3.97768 5.39111Z" fill="#77D977"/>
<path d="M8.49445 3.16019C8.49445 2.9743 8.58667 2.88135 8.77109 2.88135C8.95552 2.88135 9.13995 2.9743 9.04774 3.16019C9.04774 3.25314 9.04774 3.34609 8.95552 3.34609C8.86331 3.43904 8.77109 3.43904 8.77109 3.43904C8.58667 3.43904 8.49445 3.25314 8.49445 3.16019Z" fill="#FFBB43"/>
<path d="M8.77023 3.34627C8.61745 3.34627 8.49359 3.22142 8.49359 3.06742C8.49359 2.91342 8.61745 2.78857 8.77023 2.78857C8.92302 2.78857 9.04688 2.91342 9.04688 3.06742C9.04688 3.22142 8.92302 3.34627 8.77023 3.34627Z" fill="#00B800"/>
<path d="M8.49359 3.06742C8.49359 3.25332 8.5858 3.34627 8.77023 3.34627C8.86244 3.34627 8.95466 3.34627 8.95466 3.25332C9.04687 3.16037 9.04688 3.06742 9.04688 3.06742C9.04688 2.88152 8.86244 2.78857 8.77023 2.78857C8.5858 2.78857 8.49359 2.97447 8.49359 3.06742ZM8.49359 3.06742C8.49359 2.88152 8.67802 2.78857 8.77023 2.78857C8.95466 2.78857 9.04688 2.88152 9.04688 3.06742C9.04688 3.25332 8.95466 3.34627 8.77023 3.34627C8.5858 3.43922 8.49359 3.25332 8.49359 3.06742Z" fill="#008200"/>
<path d="M8.58552 3.16022C8.53459 3.16022 8.49331 3.11867 8.49331 3.06741C8.49331 3.01616 8.53459 2.97461 8.58552 2.97461C8.63645 2.97461 8.67773 3.01616 8.67773 3.06741C8.67773 3.11867 8.63645 3.16022 8.58552 3.16022Z" fill="white"/>
<path d="M8.77065 2.88135C8.86286 2.88135 8.95508 3.06725 8.95508 3.16019C8.95508 3.34609 8.86287 3.43904 8.67844 3.43904C8.58622 3.43904 8.49401 3.43904 8.49401 3.34609H8.58623C8.77065 3.34609 8.86287 3.25314 8.86287 3.06724C8.95508 2.9743 8.86286 2.88135 8.77065 2.88135C8.86286 2.88135 8.86286 2.88135 8.77065 2.88135Z" fill="#77D977"/>
<path d="M12.6448 1.11545V1.0225C12.6448 0.836601 12.7371 0.743652 12.9215 0.743652C13.1059 0.743652 13.2903 0.836601 13.1981 1.0225C13.1981 1.11545 13.1981 1.2084 13.1059 1.2084C13.0137 1.30134 12.9215 1.30134 12.9215 1.30134C12.7371 1.30134 12.6448 1.11545 12.6448 1.0225C12.6448 1.11545 12.6448 1.11545 12.6448 1.11545Z" fill="#FFBB43"/>
<path d="M12.9206 1.30134C12.7678 1.30134 12.644 1.1765 12.644 1.0225C12.644 0.868496 12.7678 0.743652 12.9206 0.743652C13.0734 0.743652 13.1973 0.868496 13.1973 1.0225C13.1973 1.1765 13.0734 1.30134 12.9206 1.30134Z" fill="#00B800"/>
<path d="M12.644 1.0225C12.644 1.2084 12.7362 1.30134 12.9206 1.30134C13.0128 1.30134 13.105 1.30134 13.105 1.2084C13.1973 1.11545 13.1973 1.0225 13.1973 1.0225C13.1973 0.836601 13.0128 0.743652 12.9206 0.743652C12.7362 0.743652 12.644 0.836601 12.644 1.0225ZM12.644 1.0225C12.644 0.836601 12.8284 0.743652 12.9206 0.743652C13.105 0.743652 13.1973 0.836601 13.1973 1.0225C13.1973 1.2084 13.105 1.30134 12.9206 1.30134C12.7362 1.30134 12.644 1.2084 12.644 1.0225Z" fill="#008200"/>
<path d="M12.7359 1.02203C12.685 1.02203 12.6437 0.980485 12.6437 0.92923C12.6437 0.877976 12.685 0.836426 12.7359 0.836426C12.7868 0.836426 12.8281 0.877976 12.8281 0.92923C12.8281 0.980485 12.7868 1.02203 12.7359 1.02203Z" fill="white"/>
<path d="M12.921 0.743652C13.0133 0.743652 13.1055 0.92955 13.1055 1.0225C13.1055 1.2084 13.0133 1.30134 12.8288 1.30134C12.7366 1.30134 12.6444 1.30134 12.6444 1.2084H12.7366C12.921 1.2084 13.0133 1.11545 13.0133 0.92955C13.1055 0.836601 13.0133 0.836601 12.921 0.743652C13.0133 0.743652 13.0133 0.743652 12.921 0.743652Z" fill="#77D977"/>
<path d="M15.8734 2.78879V2.69584C15.8734 2.50994 15.9656 2.41699 16.15 2.41699C16.3344 2.41699 16.5189 2.50994 16.4266 2.69584C16.4266 2.78879 16.4266 2.88174 16.3344 2.88174C16.3344 2.97468 16.2422 3.06763 16.15 2.97468C15.9656 2.97468 15.8734 2.78879 15.8734 2.69584C15.8734 2.78879 15.8734 2.78879 15.8734 2.78879Z" fill="#FFBB43"/>
<path d="M16.1491 2.97468C15.9964 2.97468 15.8725 2.84984 15.8725 2.69584C15.8725 2.54184 15.9964 2.41699 16.1491 2.41699C16.3019 2.41699 16.4258 2.54184 16.4258 2.69584C16.4258 2.84984 16.3019 2.97468 16.1491 2.97468Z" fill="#00B800"/>
<path d="M15.8725 2.69566C15.8725 2.88156 15.9647 2.97451 16.1491 2.97451C16.2414 2.97451 16.3336 2.97451 16.3336 2.88156C16.4258 2.78861 16.4258 2.69566 16.4258 2.69566C16.4258 2.50976 16.2414 2.41681 16.1491 2.41681C15.9647 2.32386 15.7803 2.50976 15.8725 2.69566ZM15.8725 2.69566C15.8725 2.50976 16.0569 2.41681 16.1491 2.41681C16.3336 2.41681 16.4258 2.50976 16.4258 2.69566C16.4258 2.88156 16.3336 2.97451 16.1491 2.97451C15.9647 2.97451 15.7803 2.78861 15.8725 2.69566Z" fill="#008200"/>
<path d="M15.9644 2.69537C15.9135 2.69537 15.8722 2.65382 15.8722 2.60257C15.8722 2.55132 15.9135 2.50977 15.9644 2.50977C16.0154 2.50977 16.0566 2.55132 16.0566 2.60257C16.0566 2.65382 16.0154 2.69537 15.9644 2.69537Z" fill="white"/>
<path d="M16.1496 2.41699C16.2418 2.41699 16.334 2.60289 16.334 2.69584C16.334 2.88174 16.2418 2.97468 16.0573 2.97468C15.9651 2.97468 15.8729 2.97468 15.8729 2.88174H15.9651C16.1496 2.88174 16.2418 2.78879 16.2418 2.60289C16.2418 2.50994 16.2418 2.41699 16.1496 2.41699Z" fill="#77D977"/>
<path d="M25.2777 3.43935V3.3464C25.2777 3.16051 25.3699 2.97461 25.5543 2.97461C25.7387 2.97461 25.9232 3.06756 25.8309 3.25346C25.8309 3.3464 25.8309 3.43935 25.7387 3.43935C25.6465 3.5323 25.5543 3.5323 25.5543 3.5323C25.3699 3.5323 25.2777 3.3464 25.2777 3.25346C25.2777 3.3464 25.2777 3.3464 25.2777 3.43935Z" fill="#FFBB43"/>
<path d="M25.5534 3.5323C25.4007 3.5323 25.2768 3.40746 25.2768 3.25346C25.2768 3.09945 25.4007 2.97461 25.5534 2.97461C25.7062 2.97461 25.8301 3.09945 25.8301 3.25346C25.8301 3.40746 25.7062 3.5323 25.5534 3.5323Z" fill="#00B8FF"/>
<path d="M25.2768 3.25346C25.2768 3.43935 25.369 3.5323 25.5534 3.5323C25.6456 3.5323 25.7379 3.5323 25.7379 3.43935C25.8301 3.3464 25.8301 3.25346 25.8301 3.25346C25.8301 3.06756 25.6456 2.97461 25.5534 2.97461C25.369 2.97461 25.2768 3.06756 25.2768 3.25346ZM25.2768 3.25346C25.2768 3.06756 25.369 2.97461 25.5534 2.97461C25.7379 2.97461 25.8301 3.06756 25.8301 3.25346C25.8301 3.43935 25.7379 3.5323 25.5534 3.5323C25.369 3.5323 25.2768 3.43935 25.2768 3.25346Z" fill="#0085FF"/>
<path d="M25.3687 3.25299C25.3178 3.25299 25.2765 3.21144 25.2765 3.16019C25.2765 3.10893 25.3178 3.06738 25.3687 3.06738C25.4197 3.06738 25.4609 3.10893 25.4609 3.16019C25.4609 3.21144 25.4197 3.25299 25.3687 3.25299Z" fill="white"/>
<path d="M25.5539 2.97461C25.6461 2.97461 25.7383 3.16051 25.7383 3.25346C25.7383 3.43935 25.6461 3.5323 25.4616 3.5323C25.3694 3.5323 25.2772 3.5323 25.2772 3.43935H25.3694C25.5539 3.43935 25.6461 3.3464 25.6461 3.16051C25.7383 3.06756 25.6461 3.06756 25.5539 2.97461C25.6461 2.97461 25.6461 2.97461 25.5539 2.97461Z" fill="#80DCFF"/>
<path d="M23.6175 6.13498V6.04203C23.6175 5.85613 23.7097 5.76318 23.8941 5.76318C24.0786 5.76318 24.263 5.85613 24.1708 6.04203C24.1708 6.13498 24.1708 6.22793 24.0786 6.22793C23.9864 6.32088 23.8941 6.32088 23.8941 6.32088C23.7097 6.32088 23.6175 6.13498 23.6175 6.04203C23.6175 6.13498 23.6175 6.13498 23.6175 6.13498Z" fill="#FFBB43"/>
<path d="M23.8933 6.32088C23.7405 6.32088 23.6166 6.19603 23.6166 6.04203C23.6166 5.88803 23.7405 5.76318 23.8933 5.76318C24.0461 5.76318 24.1699 5.88803 24.1699 6.04203C24.1699 6.19603 24.0461 6.32088 23.8933 6.32088Z" fill="#00B8FF"/>
<path d="M23.6166 6.04185C23.6166 6.22775 23.7089 6.3207 23.8933 6.3207C23.9855 6.3207 24.0777 6.3207 24.0777 6.22775C24.1699 6.1348 24.1699 6.04185 24.1699 6.04185C24.1699 5.85595 23.9855 5.763 23.8933 5.763C23.7089 5.67006 23.6166 5.85595 23.6166 6.04185ZM23.6166 6.04185C23.6166 5.85595 23.8011 5.763 23.8933 5.763C24.0777 5.763 24.1699 5.85595 24.1699 6.04185C24.1699 6.22775 24.0777 6.3207 23.8933 6.3207C23.8011 6.3207 23.6166 6.1348 23.6166 6.04185Z" fill="#0085FF"/>
<path d="M23.8004 6.04157C23.7494 6.04157 23.7082 6.00002 23.7082 5.94876C23.7082 5.89751 23.7494 5.85596 23.8004 5.85596C23.8513 5.85596 23.8926 5.89751 23.8926 5.94876C23.8926 6.00002 23.8513 6.04157 23.8004 6.04157Z" fill="white"/>
<path d="M23.9855 5.76318C24.0777 5.76318 24.1699 5.94908 24.1699 6.04203C24.1699 6.22793 24.0777 6.32088 23.8933 6.32088C23.8011 6.32088 23.7089 6.32088 23.7089 6.22793H23.8011C23.9855 6.22793 24.0777 6.13498 24.0777 5.94908C24.0777 5.85613 24.0777 5.76318 23.9855 5.76318Z" fill="#80DCFF"/>
<path d="M18.7308 10.1316V10.0386C18.7308 9.85271 18.823 9.75977 19.0074 9.75977C19.1919 9.75977 19.3763 9.85271 19.2841 10.0386C19.2841 10.1316 19.2841 10.2245 19.1919 10.2245C19.0996 10.3175 19.0074 10.3175 19.0074 10.3175C18.823 10.3175 18.7308 10.1316 18.7308 10.0386C18.7308 10.0386 18.7308 10.0386 18.7308 10.1316Z" fill="#FFBB43"/>
<path d="M19.0085 10.2242C18.8557 10.2242 18.7319 10.0994 18.7319 9.94535C18.7319 9.79135 18.8557 9.6665 19.0085 9.6665C19.1613 9.6665 19.2852 9.79135 19.2852 9.94535C19.2852 10.0994 19.1613 10.2242 19.0085 10.2242Z" fill="#00B8FF"/>
<path d="M18.7319 9.94535C18.7319 10.1312 18.8241 10.2242 19.0085 10.2242C19.1007 10.2242 19.1929 10.2242 19.1929 10.1312C19.2852 10.0383 19.2852 9.94535 19.2852 9.94535C19.2852 9.75945 19.1007 9.6665 19.0085 9.6665C18.8241 9.6665 18.7319 9.75945 18.7319 9.94535ZM18.7319 9.94535C18.7319 9.75945 18.9163 9.6665 19.0085 9.6665C19.1929 9.6665 19.2852 9.75945 19.2852 9.94535C19.2852 10.1312 19.1929 10.2242 19.0085 10.2242C18.8241 10.2242 18.7319 10.1312 18.7319 9.94535Z" fill="#0085FF"/>
<path d="M18.9156 9.94537C18.8647 9.94537 18.8234 9.90382 18.8234 9.85257C18.8234 9.80132 18.8647 9.75977 18.9156 9.75977C18.9665 9.75977 19.0078 9.80132 19.0078 9.85257C19.0078 9.90382 18.9665 9.94537 18.9156 9.94537Z" fill="white"/>
<path d="M19.1007 9.6665C19.1929 9.6665 19.2852 9.8524 19.2852 9.94535C19.2852 10.1312 19.1929 10.2242 19.0085 10.2242C18.9163 10.2242 18.8241 10.2242 18.8241 10.1312H18.9163C19.1007 10.1312 19.1929 10.0383 19.1929 9.8524C19.1929 9.75945 19.1007 9.75945 19.1007 9.6665Z" fill="#80DCFF"/>
<path d="M11.723 10.0386C11.723 9.85271 11.8152 9.75977 11.9996 9.75977C12.184 9.75977 12.3685 9.85271 12.2763 10.0386C12.2763 10.1316 12.2763 10.2245 12.184 10.2245C12.0918 10.3175 11.9996 10.3175 11.9996 10.3175C11.8152 10.3175 11.723 10.1316 11.723 10.0386Z" fill="#FFBB43"/>
<path d="M11.9987 10.2242C11.846 10.2242 11.7221 10.0994 11.7221 9.94535C11.7221 9.79135 11.846 9.6665 11.9987 9.6665C12.1515 9.6665 12.2754 9.79135 12.2754 9.94535C12.2754 10.0994 12.1515 10.2242 11.9987 10.2242Z" fill="#00B8FF"/>
<path d="M11.6303 9.94535C11.6303 10.1312 11.7225 10.2242 11.907 10.2242C11.9992 10.2242 12.0914 10.2242 12.0914 10.1312C12.1836 10.0383 12.1836 9.94535 12.1836 9.94535C12.1836 9.75945 11.9992 9.6665 11.907 9.6665C11.8147 9.6665 11.6303 9.8524 11.6303 9.94535ZM11.6303 9.94535C11.6303 9.75945 11.8147 9.6665 11.907 9.6665C12.0914 9.6665 12.1836 9.75945 12.1836 9.94535C12.1836 10.1312 12.0914 10.2242 11.907 10.2242C11.8147 10.2242 11.6303 10.1312 11.6303 9.94535Z" fill="#0085FF"/>
<path d="M11.814 9.94537C11.7631 9.94537 11.7218 9.90382 11.7218 9.85257C11.7218 9.80132 11.7631 9.75977 11.814 9.75977C11.865 9.75977 11.9062 9.80132 11.9062 9.85257C11.9062 9.90382 11.865 9.94537 11.814 9.94537Z" fill="white"/>
<path d="M11.9992 9.75977C12.0914 9.75977 12.1836 9.94566 12.1836 10.0386C12.1836 10.2245 12.0914 10.3175 11.907 10.3175C11.8147 10.3175 11.7225 10.3175 11.7225 10.2245H11.8147C11.9992 10.2245 12.0914 10.1316 12.0914 9.94566C12.0914 9.85271 12.0914 9.75977 11.9992 9.75977Z" fill="#80DCFF"/>
<path d="M6.00617 6.87846C6.00617 6.69256 6.09839 6.59961 6.28282 6.59961C6.46724 6.59961 6.65167 6.69256 6.55946 6.87846C6.55946 6.9714 6.55945 7.06435 6.46724 7.06435C6.37503 7.1573 6.28282 7.1573 6.28282 7.1573C6.09839 7.1573 6.00617 6.9714 6.00617 6.87846ZM6.09839 7.06435C6.00617 7.06435 6.00617 7.06435 6.09839 7.06435V7.06435ZM6.09839 6.69256C6.00617 6.69256 6.00617 6.69256 6.09839 6.69256V6.69256Z" fill="#FFBB43"/>
<path d="M6.28195 7.06404C6.12917 7.06404 6.00531 6.9392 6.00531 6.78519C6.00531 6.63119 6.12917 6.50635 6.28195 6.50635C6.43474 6.50635 6.55859 6.63119 6.55859 6.78519C6.55859 6.9392 6.43474 7.06404 6.28195 7.06404Z" fill="#00B8FF"/>
<path d="M6.00531 6.78519C6.00531 6.97109 6.09753 7.06404 6.28195 7.06404C6.37417 7.06404 6.46638 7.06404 6.46638 6.97109C6.55859 6.87814 6.55859 6.78519 6.55859 6.78519C6.55859 6.5993 6.37417 6.50635 6.28195 6.50635C6.09753 6.50635 6.00531 6.69224 6.00531 6.78519ZM6.00531 6.78519C6.00531 6.5993 6.18974 6.50635 6.28195 6.50635C6.46638 6.50635 6.55859 6.5993 6.55859 6.78519C6.55859 6.97109 6.46638 7.06404 6.28195 7.06404C6.09753 7.15699 6.00531 6.97109 6.00531 6.78519Z" fill="#0085FF"/>
<path d="M6.09724 6.78522C6.04631 6.78522 6.00503 6.74367 6.00503 6.69241C6.00503 6.64116 6.04631 6.59961 6.09724 6.59961C6.14817 6.59961 6.18945 6.64116 6.18945 6.69241C6.18945 6.74367 6.14817 6.78522 6.09724 6.78522Z" fill="white"/>
<path d="M6.28237 6.59961C6.37459 6.59961 6.4668 6.78551 6.4668 6.87846C6.4668 7.06435 6.37458 7.1573 6.19016 7.1573C6.09794 7.1573 6.00573 7.1573 6.00573 7.06435H6.09794C6.28237 7.06435 6.37458 6.9714 6.37458 6.78551C6.4668 6.69256 6.37459 6.59961 6.28237 6.59961C6.37459 6.59961 6.37459 6.59961 6.28237 6.59961Z" fill="#80DCFF"/>
<path d="M12.1839 3.25314V3.16019C12.1839 2.9743 12.2761 2.88135 12.4605 2.88135C12.645 2.88135 12.8294 2.9743 12.7372 3.16019C12.7372 3.25314 12.7372 3.34609 12.645 3.34609C12.5528 3.43904 12.4605 3.43904 12.4605 3.43904C12.2761 3.43904 12.1839 3.25314 12.1839 3.16019C12.1839 3.25314 12.1839 3.25314 12.1839 3.25314Z" fill="#FFBB43"/>
<path d="M12.4597 3.43904C12.3069 3.43904 12.183 3.3142 12.183 3.16019C12.183 3.00619 12.3069 2.88135 12.4597 2.88135C12.6125 2.88135 12.7363 3.00619 12.7363 3.16019C12.7363 3.3142 12.6125 3.43904 12.4597 3.43904Z" fill="#00B8FF"/>
<path d="M12.183 3.16019C12.183 3.34609 12.2753 3.43904 12.4597 3.43904C12.5519 3.43904 12.6441 3.43904 12.6441 3.34609C12.7363 3.25314 12.7363 3.16019 12.7363 3.16019C12.7363 2.9743 12.5519 2.88135 12.4597 2.88135C12.2753 2.88135 12.183 2.9743 12.183 3.16019ZM12.183 3.16019C12.183 2.9743 12.3675 2.88135 12.4597 2.88135C12.6441 2.88135 12.7363 2.9743 12.7363 3.16019C12.7363 3.34609 12.6441 3.43904 12.4597 3.43904C12.3675 3.43904 12.183 3.34609 12.183 3.16019Z" fill="#0085FF"/>
<path d="M12.3668 3.16022C12.3158 3.16022 12.2746 3.11867 12.2746 3.06741C12.2746 3.01616 12.3158 2.97461 12.3668 2.97461C12.4177 2.97461 12.459 3.01616 12.459 3.06741C12.459 3.11867 12.4177 3.16022 12.3668 3.16022Z" fill="white"/>
<path d="M12.5519 2.88135C12.6441 2.88135 12.7363 3.06725 12.7363 3.16019C12.7363 3.34609 12.6441 3.43904 12.4597 3.43904C12.3675 3.43904 12.2753 3.43904 12.2753 3.34609H12.3675C12.5519 3.34609 12.6441 3.25314 12.6441 3.06724C12.6441 2.9743 12.6441 2.9743 12.5519 2.88135Z" fill="#80DCFF"/>
<path d="M3.42414 4.18234V4.08939C3.42414 3.9035 3.51635 3.81055 3.70078 3.81055C3.88521 3.81055 4.06964 3.9035 3.97743 4.08939C3.97743 4.18234 3.97742 4.27529 3.88521 4.27529C3.793 4.36824 3.70078 4.36824 3.70078 4.36824C3.51635 4.36824 3.42414 4.18234 3.42414 4.08939C3.42414 4.18234 3.42414 4.18234 3.42414 4.18234Z" fill="#FFBB43"/>
<path d="M3.69992 4.36824C3.54713 4.36824 3.42328 4.2434 3.42328 4.08939C3.42328 3.93539 3.54713 3.81055 3.69992 3.81055C3.8527 3.81055 3.97656 3.93539 3.97656 4.08939C3.97656 4.2434 3.8527 4.36824 3.69992 4.36824Z" fill="#00B8FF"/>
<path d="M3.33149 4.0897C3.33149 4.2756 3.4237 4.36855 3.60813 4.36855C3.70034 4.36855 3.79255 4.36855 3.79255 4.2756C3.88477 4.18265 3.88477 4.0897 3.88477 4.0897C3.88477 3.9038 3.70034 3.81086 3.60813 3.81086C3.51591 3.71791 3.33149 3.9038 3.33149 4.0897ZM3.33149 4.0897C3.33149 3.9038 3.51591 3.81086 3.60813 3.81086C3.79255 3.81086 3.88477 3.9038 3.88477 4.0897C3.88477 4.2756 3.79255 4.36855 3.60813 4.36855C3.51591 4.36855 3.33149 4.18265 3.33149 4.0897Z" fill="#0085FF"/>
<path d="M3.51521 4.08942C3.46428 4.08942 3.42299 4.04787 3.42299 3.99661C3.42299 3.94536 3.46428 3.90381 3.51521 3.90381C3.56614 3.90381 3.60742 3.94536 3.60742 3.99661C3.60742 4.04787 3.56614 4.08942 3.51521 4.08942Z" fill="white"/>
<path d="M3.70034 3.81055C3.79255 3.81055 3.88477 3.99644 3.88477 4.08939C3.88477 4.27529 3.79255 4.36824 3.60813 4.36824C3.51591 4.36824 3.4237 4.36824 3.4237 4.27529H3.51591C3.70034 4.27529 3.79255 4.18234 3.79255 3.99644C3.79255 3.9035 3.79255 3.81055 3.70034 3.81055Z" fill="#80DCFF"/>
<path d="M18.3616 2.04545C18.3616 1.85955 18.4539 1.7666 18.6383 1.7666C18.8227 1.7666 19.0071 1.85955 18.9149 2.04545C18.9149 2.1384 18.9149 2.23135 18.8227 2.23135C18.7305 2.32429 18.6383 2.32429 18.6383 2.32429C18.4539 2.32429 18.3616 2.1384 18.3616 2.04545Z" fill="#FFBB43"/>
<path d="M18.6374 2.23103C18.4846 2.23103 18.3608 2.10619 18.3608 1.95219C18.3608 1.79818 18.4846 1.67334 18.6374 1.67334C18.7902 1.67334 18.9141 1.79818 18.9141 1.95219C18.9141 2.10619 18.7902 2.23103 18.6374 2.23103Z" fill="#00B8FF"/>
<path d="M18.3608 1.95219C18.3608 2.13808 18.453 2.23103 18.6374 2.23103C18.7296 2.23103 18.8219 2.23103 18.8219 2.13808C18.9141 2.04513 18.9141 1.95219 18.9141 1.95219C18.9141 1.76629 18.7296 1.67334 18.6374 1.67334C18.453 1.67334 18.3608 1.85924 18.3608 1.95219ZM18.3608 1.95219C18.3608 1.76629 18.5452 1.67334 18.6374 1.67334C18.8218 1.67334 18.9141 1.76629 18.9141 1.95219C18.9141 2.13808 18.8218 2.23103 18.6374 2.23103C18.453 2.23103 18.3608 2.13808 18.3608 1.95219Z" fill="#0085FF"/>
<path d="M18.5445 1.95221C18.4936 1.95221 18.4523 1.91066 18.4523 1.85941C18.4523 1.80815 18.4936 1.7666 18.5445 1.7666C18.5954 1.7666 18.6367 1.80815 18.6367 1.85941C18.6367 1.91066 18.5954 1.95221 18.5445 1.95221Z" fill="white"/>
<path d="M18.7296 1.67334C18.8219 1.67334 18.9141 1.85924 18.9141 1.95219C18.9141 2.13808 18.8218 2.23103 18.6374 2.23103C18.5452 2.23103 18.453 2.23103 18.453 2.13808H18.5452C18.7296 2.23103 18.8219 2.04513 18.8219 1.85924C18.8219 1.85924 18.7296 1.76629 18.7296 1.67334Z" fill="#80DCFF"/>
</svg>
