<svg width="35" height="35" viewBox="0 0 35 35" fill="none" xmlns="http://www.w3.org/2000/svg">
<path d="M9.67383 7.16553C9.67383 5.95741 10.6532 4.97803 11.8613 4.97803H23.116C24.3241 4.97803 25.3035 5.9574 25.3035 7.16553V26.3761C25.3035 27.5842 24.3241 28.5636 23.116 28.5636H11.8613C10.6532 28.5636 9.67383 27.5842 9.67383 26.3761V7.16553Z" fill="#74421F"/>
<path fill-rule="evenodd" clip-rule="evenodd" d="M11.86 4.24902H23.1147C24.7255 4.24902 26.0314 5.55486 26.0314 7.16569V26.3763C26.0314 27.9871 24.7255 29.293 23.1147 29.293H11.86C10.2492 29.293 8.94336 27.9871 8.94336 26.3763V7.16569C8.94336 5.55486 10.2492 4.24902 11.86 4.24902ZM11.86 4.97819C10.6519 4.97819 9.67253 5.95757 9.67253 7.16569V26.3763C9.67253 27.5844 10.6519 28.5638 11.86 28.5638H23.1147C24.3228 28.5638 25.3022 27.5844 25.3022 26.3763V7.16569C25.3022 5.95757 24.3228 4.97819 23.1147 4.97819H11.86Z" fill="#3F1E07"/>
<path d="M10.7559 6.92741C10.7559 6.5247 11.0823 6.19824 11.485 6.19824H13.9915C14.3942 6.19824 14.7207 6.5247 14.7207 6.92741V8.38574C14.7207 8.78845 14.3942 9.11491 13.9915 9.11491H11.485C11.0823 9.11491 10.7559 8.78845 10.7559 8.38574V6.92741Z" fill="#A66335"/>
<path d="M10.7559 10.7555C10.7559 10.3528 11.0823 10.0264 11.485 10.0264H13.9915C14.3942 10.0264 14.7207 10.3528 14.7207 10.7555V12.2139C14.7207 12.6166 14.3942 12.943 13.9915 12.943H11.485C11.0823 12.943 10.7559 12.6166 10.7559 12.2139V10.7555Z" fill="#A66335"/>
<path d="M10.7559 14.5837C10.7559 14.181 11.0823 13.8545 11.485 13.8545H13.9915C14.3942 13.8545 14.7207 14.181 14.7207 14.5837V16.042C14.7207 16.4447 14.3942 16.7712 13.9915 16.7712H11.485C11.0823 16.7712 10.7559 16.4447 10.7559 16.042V14.5837Z" fill="#A66335"/>
<path d="M10.7559 18.4118C10.7559 18.0091 11.0823 17.6826 11.485 17.6826H13.9915C14.3942 17.6826 14.7207 18.0091 14.7207 18.4118V19.8701C14.7207 20.2728 14.3942 20.5993 13.9915 20.5993H11.485C11.0823 20.5993 10.7559 20.2728 10.7559 19.8701V18.4118Z" fill="#A66335"/>
<path d="M15.5176 6.92741C15.5176 6.5247 15.844 6.19824 16.2467 6.19824H18.7533C19.156 6.19824 19.4824 6.5247 19.4824 6.92741V8.38574C19.4824 8.78845 19.156 9.11491 18.7533 9.11491H16.2467C15.844 9.11491 15.5176 8.78845 15.5176 8.38574V6.92741Z" fill="#A66335"/>
<path d="M15.5176 10.7555C15.5176 10.3528 15.844 10.0264 16.2467 10.0264H18.7533C19.156 10.0264 19.4824 10.3528 19.4824 10.7555V12.2139C19.4824 12.6166 19.156 12.943 18.7533 12.943H16.2467C15.844 12.943 15.5176 12.6166 15.5176 12.2139V10.7555Z" fill="#A66335"/>
<path d="M15.5176 14.5837C15.5176 14.181 15.844 13.8545 16.2467 13.8545H18.7533C19.156 13.8545 19.4824 14.181 19.4824 14.5837V16.042C19.4824 16.4447 19.156 16.7712 18.7533 16.7712H16.2467C15.844 16.7712 15.5176 16.4447 15.5176 16.042V14.5837Z" fill="#A66335"/>
<path d="M15.5176 18.4118C15.5176 18.0091 15.844 17.6826 16.2467 17.6826H18.7533C19.156 17.6826 19.4824 18.0091 19.4824 18.4118V19.8701C19.4824 20.2728 19.156 20.5993 18.7533 20.5993H16.2467C15.844 20.5993 15.5176 20.2728 15.5176 19.8701V18.4118Z" fill="#A66335"/>
<path d="M20.2812 6.92741C20.2812 6.5247 20.6077 6.19824 21.0104 6.19824H23.5169C23.9196 6.19824 24.2461 6.5247 24.2461 6.92741V8.38574C24.2461 8.78845 23.9196 9.11491 23.5169 9.11491H21.0104C20.6077 9.11491 20.2812 8.78845 20.2812 8.38574V6.92741Z" fill="#A66335"/>
<path d="M20.2812 10.7555C20.2812 10.3528 20.6077 10.0264 21.0104 10.0264H23.5169C23.9196 10.0264 24.2461 10.3528 24.2461 10.7555V12.2139C24.2461 12.6166 23.9196 12.943 23.5169 12.943H21.0104C20.6077 12.943 20.2812 12.6166 20.2812 12.2139V10.7555Z" fill="#A66335"/>
<path d="M20.2812 14.5837C20.2812 14.181 20.6077 13.8545 21.0104 13.8545H23.5169C23.9196 13.8545 24.2461 14.181 24.2461 14.5837V16.042C24.2461 16.4447 23.9196 16.7712 23.5169 16.7712H21.0104C20.6077 16.7712 20.2812 16.4447 20.2812 16.042V14.5837Z" fill="#A66335"/>
<path d="M20.2812 18.4118C20.2812 18.0091 20.6077 17.6826 21.0104 17.6826H23.5169C23.9196 17.6826 24.2461 18.0091 24.2461 18.4118V19.8701C24.2461 20.2728 23.9196 20.5993 23.5169 20.5993H21.0104C20.6077 20.5993 20.2812 20.2728 20.2812 19.8701V18.4118Z" fill="#A66335"/>
<path fill-rule="evenodd" clip-rule="evenodd" d="M11.166 10.8919C11.166 10.6906 11.3292 10.5273 11.5306 10.5273H12.9661C13.1675 10.5273 13.3307 10.6906 13.3307 10.8919C13.3307 11.0933 13.1675 11.2565 12.9661 11.2565H11.5306C11.3292 11.2565 11.166 11.0933 11.166 10.8919Z" fill="#CF814B"/>
<path fill-rule="evenodd" clip-rule="evenodd" d="M16.0195 6.91585C16.0195 6.7145 16.1828 6.55127 16.3841 6.55127H17.8197C18.021 6.55127 18.1842 6.7145 18.1842 6.91585C18.1842 7.11721 18.021 7.28044 17.8197 7.28044H16.3841C16.1828 7.28044 16.0195 7.11721 16.0195 6.91585Z" fill="#CF814B"/>
<path fill-rule="evenodd" clip-rule="evenodd" d="M20.668 6.91585C20.668 6.7145 20.8312 6.55127 21.0326 6.55127H22.4681C22.6695 6.55127 22.8327 6.7145 22.8327 6.91585C22.8327 7.11721 22.6695 7.28044 22.4681 7.28044H21.0326C20.8312 7.28044 20.668 7.11721 20.668 6.91585Z" fill="#CF814B"/>
<path fill-rule="evenodd" clip-rule="evenodd" d="M11.166 6.91585C11.166 6.7145 11.3292 6.55127 11.5306 6.55127H12.9661C13.1675 6.55127 13.3307 6.7145 13.3307 6.91585C13.3307 7.11721 13.1675 7.28044 12.9661 7.28044H11.5306C11.3292 7.28044 11.166 7.11721 11.166 6.91585Z" fill="#CF814B"/>
<path fill-rule="evenodd" clip-rule="evenodd" d="M14.1283 15.1592C14.3296 15.1592 14.4928 15.3224 14.4928 15.5238V15.8485C14.4928 16.2512 14.1664 16.5776 13.7637 16.5776H13.1029C12.9015 16.5776 12.7383 16.4144 12.7383 16.2131C12.7383 16.0117 12.9015 15.8485 13.1029 15.8485H13.7637V15.5238C13.7637 15.3224 13.9269 15.1592 14.1283 15.1592Z" fill="#965224"/>
<path fill-rule="evenodd" clip-rule="evenodd" d="M14.1283 18.9785C14.3296 18.9785 14.4928 19.1417 14.4928 19.3431V19.6678C14.4928 20.0705 14.1664 20.397 13.7637 20.397H13.1029C12.9015 20.397 12.7383 20.2337 12.7383 20.0324C12.7383 19.831 12.9015 19.6678 13.1029 19.6678H13.7637V19.3431C13.7637 19.1417 13.9269 18.9785 14.1283 18.9785Z" fill="#965224"/>
<path fill-rule="evenodd" clip-rule="evenodd" d="M18.8568 19.0469C19.0581 19.0469 19.2214 19.2101 19.2214 19.4115V19.7362C19.2214 20.1389 18.8949 20.4653 18.4922 20.4653H17.8314C17.63 20.4653 17.4668 20.3021 17.4668 20.1007C17.4668 19.8994 17.63 19.7362 17.8314 19.7362H18.4922V19.4115C18.4922 19.2101 18.6554 19.0469 18.8568 19.0469Z" fill="#965224"/>
<path fill-rule="evenodd" clip-rule="evenodd" d="M18.8568 15.1592C19.0581 15.1592 19.2214 15.3224 19.2214 15.5238V15.8485C19.2214 16.2512 18.8949 16.5776 18.4922 16.5776H17.8314C17.63 16.5776 17.4668 16.4144 17.4668 16.2131C17.4668 16.0117 17.63 15.8485 17.8314 15.8485H18.4922V15.5238C18.4922 15.3224 18.6554 15.1592 18.8568 15.1592Z" fill="#965224"/>
<path fill-rule="evenodd" clip-rule="evenodd" d="M23.6868 15.1592C23.8882 15.1592 24.0514 15.3224 24.0514 15.5238V15.8485C24.0514 16.2512 23.725 16.5776 23.3223 16.5776H22.6615C22.4601 16.5776 22.2969 16.4144 22.2969 16.2131C22.2969 16.0117 22.4601 15.8485 22.6615 15.8485H23.3223V15.5238C23.3223 15.3224 23.4855 15.1592 23.6868 15.1592Z" fill="#965224"/>
<path fill-rule="evenodd" clip-rule="evenodd" d="M23.6868 11.3394C23.8882 11.3394 24.0514 11.5026 24.0514 11.7039V12.0286C24.0514 12.4314 23.725 12.7578 23.3223 12.7578H22.6615C22.4601 12.7578 22.2969 12.5946 22.2969 12.3932C22.2969 12.1919 22.4601 12.0286 22.6615 12.0286H23.3223V11.7039C23.3223 11.5026 23.4855 11.3394 23.6868 11.3394Z" fill="#965224"/>
<path fill-rule="evenodd" clip-rule="evenodd" d="M18.8568 11.271C19.0581 11.271 19.2214 11.4342 19.2214 11.6356V11.9603C19.2214 12.363 18.8949 12.6895 18.4922 12.6895H17.8314C17.63 12.6895 17.4668 12.5262 17.4668 12.3249C17.4668 12.1235 17.63 11.9603 17.8314 11.9603H18.4922V11.6356C18.4922 11.4342 18.6554 11.271 18.8568 11.271Z" fill="#965224"/>
<path fill-rule="evenodd" clip-rule="evenodd" d="M23.5736 18.9785C23.7749 18.9785 23.9382 19.1417 23.9382 19.3431V19.6678C23.9382 20.0705 23.6117 20.397 23.209 20.397H22.5482C22.3468 20.397 22.1836 20.2337 22.1836 20.0324C22.1836 19.831 22.3468 19.6678 22.5482 19.6678H23.209V19.3431C23.209 19.1417 23.3722 18.9785 23.5736 18.9785Z" fill="#965224"/>
<path d="M8.48828 22.6605C8.48828 21.8551 9.1412 21.2021 9.94661 21.2021H25.2591C26.0645 21.2021 26.7174 21.8551 26.7174 22.6605V30.0221C26.7174 30.8275 26.0645 31.4805 25.2591 31.4805H9.94661C9.1412 31.4805 8.48828 30.8275 8.48828 30.0221V22.6605Z" fill="#EE4129"/>
<path fill-rule="evenodd" clip-rule="evenodd" d="M9.94727 20.4731H25.2598C26.4679 20.4731 27.4473 21.4525 27.4473 22.6606V30.0223C27.4473 31.2304 26.4679 32.2098 25.2598 32.2098H9.94727C8.73914 32.2098 7.75977 31.2304 7.75977 30.0223V22.6606C7.75977 21.4525 8.73914 20.4731 9.94727 20.4731ZM9.94727 21.2023C9.14185 21.2023 8.48893 21.8552 8.48893 22.6606V30.0223C8.48893 30.8277 9.14185 31.4806 9.94727 31.4806H25.2598C26.0652 31.4806 26.7181 30.8277 26.7181 30.0223V22.6606C26.7181 21.8552 26.0652 21.2023 25.2598 21.2023H9.94727Z" fill="#8D1C0D"/>
<path fill-rule="evenodd" clip-rule="evenodd" d="M9.47982 25.9312C9.68117 25.9312 9.8444 26.0944 9.8444 26.2957V29.5542C9.8444 29.7556 10.0076 29.9188 10.209 29.9188H13.3079C13.5093 29.9188 13.6725 30.082 13.6725 30.2834C13.6725 30.4847 13.5093 30.6479 13.3079 30.6479H10.209C9.60492 30.6479 9.11523 30.1583 9.11523 29.5542V26.2957C9.11523 26.0944 9.27846 25.9312 9.47982 25.9312Z" fill="#FE6955"/>
<path d="M24.2793 29.5767C24.2793 29.9164 24.0191 30.1919 23.6982 30.1919C23.3773 30.1919 23.1172 29.9164 23.1172 29.5767C23.1172 29.2369 23.3773 28.9614 23.6982 28.9614C24.0191 28.9614 24.2793 29.2369 24.2793 29.5767Z" fill="#D2220A"/>
<path d="M26.2256 29.0882C26.2256 29.358 26.019 29.5767 25.7642 29.5767C25.5093 29.5767 25.3027 29.358 25.3027 29.0882C25.3027 28.8183 25.5093 28.5996 25.7642 28.5996C26.019 28.5996 26.2256 28.8183 26.2256 29.0882Z" fill="#D2220A"/>
<path d="M24.5283 27.7088C24.5283 27.9786 24.3217 28.1974 24.0669 28.1974C23.8121 28.1974 23.6055 27.9786 23.6055 27.7088C23.6055 27.439 23.8121 27.2202 24.0669 27.2202C24.3217 27.2202 24.5283 27.439 24.5283 27.7088Z" fill="#D2220A"/>
<path d="M22.3057 29.2356C22.3057 29.5055 22.0991 29.7242 21.8442 29.7242C21.5894 29.7242 21.3828 29.5055 21.3828 29.2356C21.3828 28.9658 21.5894 28.7471 21.8442 28.7471C22.0991 28.7471 22.3057 28.9658 22.3057 29.2356Z" fill="#D2220A"/>
<path d="M19.4014 30.3743C19.4014 30.6441 19.1948 30.8629 18.9399 30.8629C18.6851 30.8629 18.4785 30.6441 18.4785 30.3743C18.4785 30.1045 18.6851 29.8857 18.9399 29.8857C19.1948 29.8857 19.4014 30.1045 19.4014 30.3743Z" fill="#D2220A"/>
<path d="M25.5186 30.6138C25.5186 30.7837 25.3885 30.9214 25.228 30.9214C25.0676 30.9214 24.9375 30.7837 24.9375 30.6138C24.9375 30.4439 25.0676 30.3062 25.228 30.3062C25.3885 30.3062 25.5186 30.4439 25.5186 30.6138Z" fill="#D2220A"/>
<path d="M20.585 29.1605C20.585 29.2905 20.4855 29.3958 20.3628 29.3958C20.2401 29.3958 20.1406 29.2905 20.1406 29.1605C20.1406 29.0306 20.2401 28.9253 20.3628 28.9253C20.4855 28.9253 20.585 29.0306 20.585 29.1605Z" fill="#D2220A"/>
<path d="M23.1162 27.9623C23.1162 28.0922 23.0167 28.1975 22.894 28.1975C22.7713 28.1975 22.6719 28.0922 22.6719 27.9623C22.6719 27.8324 22.7713 27.7271 22.894 27.7271C23.0167 27.7271 23.1162 27.8324 23.1162 27.9623Z" fill="#D2220A"/>
<path d="M24.5283 26.3412C24.5283 26.4711 24.4289 26.5764 24.3062 26.5764C24.1835 26.5764 24.084 26.4711 24.084 26.3412C24.084 26.2113 24.1835 26.106 24.3062 26.106C24.4289 26.106 24.5283 26.2113 24.5283 26.3412Z" fill="#D2220A"/>
<path d="M26.4482 26.2274C26.4482 26.3573 26.3488 26.4627 26.2261 26.4627C26.1034 26.4627 26.0039 26.3573 26.0039 26.2274C26.0039 26.0975 26.1034 25.9922 26.2261 25.9922C26.3488 25.9922 26.4482 26.0975 26.4482 26.2274Z" fill="#D2220A"/>
<path d="M26.5166 25.0082C26.5166 25.1381 26.4171 25.2434 26.2944 25.2434C26.1717 25.2434 26.0723 25.1381 26.0723 25.0082C26.0723 24.8783 26.1717 24.7729 26.2944 24.7729C26.4171 24.7729 26.5166 24.8783 26.5166 25.0082Z" fill="#D2220A"/>
<path d="M25.4502 26.2274C25.4502 26.3573 25.3507 26.4627 25.228 26.4627C25.1053 26.4627 25.0059 26.3573 25.0059 26.2274C25.0059 26.0975 25.1053 25.9922 25.228 25.9922C25.3507 25.9922 25.4502 26.0975 25.4502 26.2274Z" fill="#D2220A"/>
<path d="M24.9385 28.6903C24.9385 28.8202 24.839 28.9256 24.7163 28.9256C24.5936 28.9256 24.4941 28.8202 24.4941 28.6903C24.4941 28.5604 24.5936 28.4551 24.7163 28.4551C24.839 28.4551 24.9385 28.5604 24.9385 28.6903Z" fill="#D2220A"/>
<path d="M21.9482 28.0863C21.9482 28.2162 21.8488 28.3216 21.7261 28.3216C21.6034 28.3216 21.5039 28.2162 21.5039 28.0863C21.5039 27.9564 21.6034 27.8511 21.7261 27.8511C21.8488 27.8511 21.9482 27.9564 21.9482 28.0863Z" fill="#D2220A"/>
<path d="M17.71 30.682C17.71 30.8119 17.6105 30.9173 17.4878 30.9173C17.3651 30.9173 17.2656 30.8119 17.2656 30.682C17.2656 30.5521 17.3651 30.4468 17.4878 30.4468C17.6105 30.4468 17.71 30.5521 17.71 30.682Z" fill="#D2220A"/>
<path d="M22.3057 30.6821C22.3057 30.852 22.1756 30.9898 22.0151 30.9898C21.8547 30.9898 21.7246 30.852 21.7246 30.6821C21.7246 30.5122 21.8547 30.3745 22.0151 30.3745C22.1756 30.3745 22.3057 30.5122 22.3057 30.6821Z" fill="#D2220A"/>
<path d="M20.585 30.3745C20.585 30.5444 20.4549 30.6821 20.2944 30.6821C20.134 30.6821 20.0039 30.5444 20.0039 30.3745C20.0039 30.2046 20.134 30.0669 20.2944 30.0669C20.4549 30.0669 20.585 30.2046 20.585 30.3745Z" fill="#D2220A"/>
<path d="M25.7948 27.2203C25.7948 27.4207 25.6414 27.5832 25.4521 27.5832C25.2628 27.5832 25.1094 27.4207 25.1094 27.2203C25.1094 27.0199 25.2628 26.8574 25.4521 26.8574C25.6414 26.8574 25.7948 27.0199 25.7948 27.2203Z" fill="#D2220A"/>
<path d="M25.2591 21.2021H9.94661C9.1412 21.2021 8.48828 21.8551 8.48828 22.6605V25.6121L11.9632 24.6551L16.9307 25.9539L21.807 24.7918L26.7174 26.3413V22.6605C26.7174 21.8551 26.0645 21.2021 25.2591 21.2021Z" fill="#B61C2E"/>
<path d="M9.60417 18.6955L7.71289 19.3563L6.82422 22.2274L8.25977 23.8908L11.9512 22.6603L16.8958 23.8908L21.5671 22.6603L26.8763 23.6629L28.1751 21.4526L27.6966 18.8778L25.4863 18.9917L23.1849 18.103L19.0833 19.3563L16.235 18.3537L11.7461 19.174L9.60417 18.6955Z" fill="#FFF5C1"/>
<path fill-rule="evenodd" clip-rule="evenodd" d="M7.01699 19.1408C7.0854 18.9198 7.25463 18.7444 7.47304 18.6681L9.36432 18.0073C9.49271 17.9624 9.63108 17.9544 9.76381 17.984L11.7613 18.4303L16.1046 17.6366C16.2295 17.6137 16.3581 17.6239 16.4778 17.666L19.1001 18.5891L22.9725 17.4059C23.1285 17.3582 23.296 17.3642 23.4482 17.423L25.6047 18.2557L27.6597 18.1497C28.0248 18.1309 28.3474 18.3853 28.4142 18.7447L28.8927 21.3196C28.9248 21.4923 28.8934 21.6708 28.8045 21.8222L27.5056 24.0325C27.3497 24.2978 27.044 24.4367 26.7417 24.3796L21.5942 23.4075L17.0822 24.5961C16.9637 24.6273 16.8393 24.6281 16.7204 24.5985L11.9814 23.4192L8.49101 24.5827C8.21061 24.6762 7.90152 24.5911 7.70841 24.3674L6.27286 22.7039C6.10861 22.5136 6.05398 22.2521 6.12832 22.0119L7.01699 19.1408ZM11.9518 22.6605L16.8965 23.891L21.5677 22.6605L26.877 23.6631L28.1758 21.4528L27.6973 18.8779L25.487 18.9919L23.1856 18.1032L19.084 19.3564L16.2357 18.3538L11.7468 19.1742L9.60483 18.6956L7.71355 19.3564L6.82488 22.2275L8.26043 23.891L11.9518 22.6605Z" fill="#CE9266"/>
<path fill-rule="evenodd" clip-rule="evenodd" d="M15.7529 19.168C15.8132 19.3601 15.7064 19.5648 15.5143 19.6251L11.9596 20.7416C11.8949 20.762 11.8258 20.7638 11.7602 20.7471L9.74514 20.2326L8.70155 20.7237C8.51936 20.8094 8.30216 20.7312 8.21643 20.5491C8.13069 20.3669 8.20888 20.1497 8.39107 20.0639L9.55318 19.5171C9.6298 19.481 9.71657 19.4727 9.79861 19.4937L11.84 20.0149L15.2958 18.9295C15.4879 18.8691 15.6925 18.9759 15.7529 19.168Z" fill="white"/>
<path d="M10.208 21.453L8.5446 22.2277H6.82422L8.25977 23.8911L11.9512 22.6606L16.8958 23.8911L21.5671 22.6606L26.8763 23.6632L28.1751 21.453L27.9359 20.1655L26.5687 21.453H25.1787L22.8317 20.3942L20.1657 21.0322L17.6136 21.7614L14.9476 21.0322L13.5576 22.0804L10.208 21.453Z" fill="#EAD076"/>
</svg>
