<svg width="43" height="31" viewBox="0 0 43 31" fill="none" xmlns="http://www.w3.org/2000/svg">
<path d="M42.1797 15.3548C42.1797 15.3548 41.7124 20.1256 41.0456 20.2809C40.1792 20.4362 13.1558 19.7276 0.914406 17.5727C0.602898 16.7962 -0.0639305 13.3115 0.00421143 13.0689C0.0723572 12.8893 -0.974121 13.5348 10.9995 14.2919C17.9842 15.1315 41.2014 15.7091 42.1797 15.3548Z" fill="#FDCED6"/>
<path d="M26.1564 14.4424C26.1564 14.4424 28.2494 16.0197 27.6702 16.772C27.0909 17.5242 25.1099 18.2377 24.9347 18.194C24.5551 18.0144 24.2436 17.7038 24.1121 17.2816C23.9564 16.7477 23.6449 15.6169 23.6887 15.5295C23.7276 15.4422 26.1564 14.4424 26.1564 14.4424Z" fill="url(#paint0_radial_1801_11920)"/>
<path d="M25.5277 14.8887C25.5277 14.8887 26.6618 16.4223 26.5304 16.796C26.399 17.1746 25.8198 17.4609 25.5521 17.3056C25.2844 17.1503 24.6419 15.4614 24.7052 15.2624C24.7733 15.0634 25.5277 14.8887 25.5277 14.8887Z" fill="url(#paint1_radial_1801_11920)"/>
<path d="M41.0703 20.6592C41.0703 20.6592 40.7831 25.43 40.1358 25.5853C39.3132 25.7406 13.38 25.0321 1.62542 22.8772C1.33824 22.1007 0.802837 17.4852 0.870979 17.4609C1.05107 17.393 -0.175495 18.7713 11.3309 19.5236C18.0283 20.3486 40.1114 21.0135 41.0703 20.6592Z" fill="#FDCED6"/>
<path d="M18.8738 17.485C18.8738 17.485 19.0052 19.9991 17.9344 20.067C16.8636 20.1349 14.9313 19.4603 14.8436 19.305C14.6879 18.8634 14.7317 18.3732 14.9751 17.951C15.2866 17.4171 15.9972 16.33 16.1092 16.2863C16.226 16.2426 18.8738 17.485 18.8738 17.485Z" fill="url(#paint2_radial_1801_11920)"/>
<path d="M18.0273 17.3057C18.0273 17.3057 17.6282 19.3684 17.2048 19.5674C16.7813 19.7663 16.1339 19.48 16.0463 19.1451C15.9587 18.8102 16.8933 17.0145 17.0928 16.9029C17.2924 16.7961 18.0273 17.3057 18.0273 17.3057Z" fill="url(#paint3_radial_1801_11920)"/>
<path d="M38.5098 27.6723C38.5098 28.4433 38.219 29.1827 37.7014 29.7279C37.1839 30.2731 36.4819 30.5794 35.75 30.5794C35.018 30.5794 34.3161 30.2731 33.7985 29.7279C33.281 29.1827 32.9902 28.4433 32.9902 27.6723C32.9902 26.9012 33.281 26.1618 33.7985 25.6166C34.3161 25.0714 35.018 24.7651 35.75 24.7651C36.4819 24.7651 37.1839 25.0714 37.7014 25.6166C38.219 26.1618 38.5098 26.9012 38.5098 27.6723Z" fill="#FF556A"/>
<path d="M35.749 30.5842C37.2725 30.5842 38.5137 29.2787 38.5137 27.6722C38.5137 26.0658 37.2725 24.7603 35.749 24.7603C34.2255 24.7603 32.9844 26.0658 32.9844 27.6722C32.9844 29.2787 34.2207 30.5842 35.749 30.5842ZM35.749 24.77C37.2676 24.77 38.5039 26.0706 38.5039 27.6722C38.5039 29.2738 37.2676 30.5745 35.749 30.5745C34.2304 30.5745 32.9941 29.2738 32.9941 27.6722C32.9941 26.0706 34.2304 24.77 35.749 24.77Z" fill="#FF6F98"/>
<path d="M41.824 15.7526C41.824 15.7526 43.1576 16.3059 40.6461 10.579C39.2443 8.22513 33.8999 -0.384614 29.0277 0.0133564C26.5113 0.789884 -1.19842 11.0449 0.0476151 13.1755C1.38126 13.9569 32.722 16.0001 41.824 15.7526Z" fill="url(#paint4_linear_1801_11920)"/>
<path d="M3.71736 17.5533C3.71736 17.5533 6.32138 14.8451 7.12449 14.981C7.9276 15.1121 8.63824 16.1361 8.43868 16.7331C8.23911 17.33 5.17269 18.7714 4.77357 18.7278C4.36958 18.6841 3.71736 17.5533 3.71736 17.5533Z" fill="url(#paint5_radial_1801_11920)"/>
<path d="M38.9331 17.1502C38.9331 17.1502 40.6805 20.499 39.4685 20.6591C38.1008 20.8387 35.7012 20.6688 35.5211 20.5572C35.341 20.4456 34.9711 20.1253 35.0587 19.4361C35.1464 18.7469 35.3946 17.2618 35.4822 17.1502C35.5698 17.0386 38.9331 17.1502 38.9331 17.1502Z" fill="url(#paint6_radial_1801_11920)"/>
<path d="M37.9491 17.3491C37.9491 17.3491 38.4601 19.7224 38.1048 20.101C37.7495 20.4795 36.9464 20.4989 36.703 20.1689C36.4596 19.834 36.6154 17.5287 36.7712 17.3491C36.9269 17.1744 37.9491 17.3491 37.9491 17.3491Z" fill="url(#paint7_radial_1801_11920)"/>
<path d="M41.2695 20.0816L41.0262 20.8339C41.0262 20.8339 5.28044 20.6786 1.00205 17.8151C0.93391 17.6841 0.82196 17.2812 0.82196 17.2812C0.82196 17.2812 16.1395 19.2177 21.7466 19.5283C24.6865 19.5914 38.8651 20.8581 41.2695 20.0816Z" fill="#FF3761"/>
<path d="M27.1532 25.0759C27.1532 25.0759 27.9077 22.5474 28.8227 22.858C29.7329 23.1686 31.0909 24.7459 31.1152 24.9012C31.0909 25.3235 30.8913 25.7214 30.5604 25.9689C30.1174 26.3038 29.1586 26.9881 29.0466 26.9881C28.9347 26.9833 27.1532 25.0759 27.1532 25.0759Z" fill="url(#paint8_radial_1801_11920)"/>
<path d="M27.8012 25.5176C27.8012 25.5176 28.8477 23.9403 29.2468 23.9209C29.6459 23.8966 30.1132 24.3431 30.0694 24.6537C30.0256 24.9643 28.6676 26.1631 28.468 26.1631C28.2685 26.1631 27.8012 25.5176 27.8012 25.5176Z" fill="url(#paint9_radial_1801_11920)"/>
<path d="M8.99331 21.1011C8.99331 21.1011 10.9062 23.319 10.0836 24.0082C9.26101 24.6974 6.94416 24.9837 6.76894 24.9206C6.58885 24.8527 6.14592 24.3673 6.10211 23.7461C6.05831 23.1249 5.99016 21.8388 6.05831 21.7272C6.12158 21.6155 8.99331 21.1011 8.99331 21.1011Z" fill="url(#paint10_radial_1801_11920)"/>
<path d="M8.21473 21.436C8.21473 21.436 9.08111 23.3676 8.83775 23.7462C8.59438 24.1248 7.92756 24.2995 7.65985 24.0568C7.39215 23.8142 7.10498 21.8146 7.21693 21.6399C7.32401 21.4603 8.21473 21.436 8.21473 21.436Z" fill="url(#paint11_radial_1801_11920)"/>
<path d="M40.1992 26.1194C40.1992 26.1194 39.62 30.8271 38.9532 30.9824C38.0868 31.1329 14.5824 30.337 2.31674 28.1821C2.00523 27.4056 1.71806 23.4987 1.71806 23.256C1.71806 23.0327 6.30309 24.4984 9.0434 24.6537C16.0913 25.5419 39.1965 26.2505 40.1992 26.1194Z" fill="#FDCED6"/>
<path d="M32.7859 29.002C32.7859 29.002 36.5045 29.5795 36.8598 30.3123C37.2151 31.0452 36.7868 30.9578 36.1443 30.9433C34.874 30.9142 32.7275 30.8462 32.0509 30.72C31.6615 30.6472 32.7859 29.002 32.7859 29.002Z" fill="url(#paint12_radial_1801_11920)"/>
<path d="M27.6028 27.7161C27.6028 27.7161 28.7515 30.6087 28.3086 30.6281C27.4714 30.5844 24.405 30.4194 24.1957 30.4048C23.8403 30.3757 23.6846 30.4146 23.7284 30.002C23.8014 29.3129 24.0642 27.8277 24.1518 27.7161C24.2395 27.6045 27.6028 27.7161 27.6028 27.7161Z" fill="url(#paint13_radial_1801_11920)"/>
<path d="M26.6242 27.9392C26.6242 27.9392 27.3738 30.5842 26.853 30.5551C25.5583 30.4872 25.4463 30.4726 25.2808 30.4678C24.8671 30.4483 25.2857 28.1188 25.4415 27.9392C25.5972 27.7596 26.6242 27.9392 26.6242 27.9392Z" fill="url(#paint14_radial_1801_11920)"/>
<path d="M15.3558 24.6533C13.993 24.6533 12.9806 25.226 12.9806 26.6723C12.9806 28.1186 14.0855 28.1623 15.4532 28.1623C16.8209 28.1623 17.9258 28.1186 17.9258 26.6723C17.916 25.226 16.7187 24.6533 15.3558 24.6533Z" fill="url(#paint15_radial_1801_11920)"/>
<path d="M15.4483 28.1625C16.816 28.1625 17.9258 28.1188 17.9258 26.6725C17.9258 25.2262 16.816 24.7312 15.4483 24.7312C14.0806 24.7312 12.9708 25.2262 12.9708 26.6725C12.9708 28.1188 14.0806 28.1625 15.4483 28.1625ZM15.4483 24.5273C16.8063 24.5273 17.9112 25.2359 17.9112 26.6725C17.9112 28.1091 16.8063 28.1625 15.4483 28.1625C14.0903 28.1625 12.9854 28.1139 12.9854 26.6725C12.9854 25.2311 14.0903 24.5273 15.4483 24.5273Z" fill="#FF6F98"/>
<path d="M40.3789 25.2555L40.1355 26.6144C40.1355 26.6144 5.83542 26.0757 1.71765 23.2171C1.64951 23.1055 1.6057 22.9938 1.6057 22.8628C1.6057 22.8628 16.2953 24.4838 21.6835 24.7944C24.5065 24.8526 38.0864 26.0514 40.3789 25.2555Z" fill="#FF3761"/>
<path d="M32.9844 8.58437C32.9844 8.96614 32.913 9.34417 32.7743 9.69688C32.6356 10.0496 32.4323 10.3701 32.1761 10.64C31.9198 10.91 31.6155 11.1241 31.2807 11.2702C30.9459 11.4163 30.587 11.4915 30.2246 11.4915C29.8622 11.4915 29.5033 11.4163 29.1685 11.2702C28.8336 11.1241 28.5294 10.91 28.2731 10.64C28.0169 10.3701 27.8136 10.0496 27.6749 9.69688C27.5362 9.34417 27.4648 8.96614 27.4648 8.58437C27.4648 8.2026 27.5362 7.82457 27.6749 7.47186C27.8136 7.11915 28.0169 6.79868 28.2731 6.52872C28.5294 6.25877 28.8336 6.04463 29.1685 5.89854C29.5033 5.75244 29.8622 5.67725 30.2246 5.67725C30.587 5.67725 30.9459 5.75244 31.2807 5.89854C31.6155 6.04463 31.9198 6.25877 32.1761 6.52872C32.4323 6.79868 32.6356 7.11915 32.7743 7.47186C32.913 7.82457 32.9844 8.2026 32.9844 8.58437Z" fill="url(#paint16_radial_1801_11920)"/>
<path d="M30.2256 11.4963C31.7491 11.4963 32.9902 10.1908 32.9902 8.58434C32.9902 6.9779 31.7491 5.67236 30.2256 5.67236C28.7021 5.67236 27.4609 6.9779 27.4609 8.58434C27.4609 10.1908 28.7021 11.4963 30.2256 11.4963ZM30.2256 5.68207C31.7442 5.68207 32.9805 6.98275 32.9805 8.58434C32.9805 10.1859 31.7442 11.4866 30.2256 11.4866C28.707 11.4866 27.4707 10.1859 27.4707 8.58434C27.4755 6.98275 28.707 5.68207 30.2256 5.68207Z" fill="#FF5485"/>
<path d="M14.7129 8.29775C14.7129 8.67952 14.6415 9.05755 14.5028 9.41026C14.3641 9.76297 14.1608 10.0834 13.9046 10.3534C13.6483 10.6233 13.3441 10.8375 13.0092 10.9836C12.6744 11.1297 12.3155 11.2049 11.9531 11.2049C11.5907 11.2049 11.2318 11.1297 10.897 10.9836C10.5622 10.8375 10.2579 10.6233 10.0017 10.3534C9.74538 10.0834 9.5421 9.76297 9.40341 9.41026C9.26471 9.05755 9.19333 8.67952 9.19333 8.29775C9.19333 7.91598 9.26471 7.53795 9.40341 7.18524C9.5421 6.83253 9.74538 6.51205 10.0017 6.2421C10.2579 5.97215 10.5622 5.75801 10.897 5.61192C11.2318 5.46582 11.5907 5.39062 11.9531 5.39062C12.3155 5.39062 12.6744 5.46582 13.0092 5.61192C13.3441 5.75801 13.6483 5.97215 13.9046 6.2421C14.1608 6.51205 14.3641 6.83253 14.5028 7.18524C14.6415 7.53795 14.7129 7.91598 14.7129 8.29775Z" fill="url(#paint17_radial_1801_11920)"/>
<path d="M11.9541 11.2097C13.4776 11.2097 14.7188 9.90416 14.7188 8.29772C14.7188 6.69128 13.4776 5.38574 11.9541 5.38574C10.4306 5.38574 9.18946 6.69128 9.18946 8.29772C9.18946 9.90416 10.4306 11.2097 11.9541 11.2097ZM11.9541 5.39545C13.4727 5.39545 14.709 6.69613 14.709 8.29772C14.709 9.89931 13.4727 11.2 11.9541 11.2C10.4355 11.2 9.19919 9.89931 9.19919 8.29772C9.19919 6.69613 10.4355 5.39545 11.9541 5.39545Z" fill="#FF5485"/>
<path d="M22.9727 10.1371C22.9727 10.9081 22.6819 11.6476 22.1643 12.1928C21.6468 12.7379 20.9448 13.0442 20.2129 13.0442C19.4809 13.0442 18.779 12.7379 18.2614 12.1928C17.7439 11.6476 17.4531 10.9081 17.4531 10.1371C17.4531 9.36609 17.7439 8.62665 18.2614 8.08146C18.779 7.53627 19.4809 7.22998 20.2129 7.22998C20.9448 7.22998 21.6468 7.53627 22.1643 8.08146C22.6819 8.62665 22.9727 9.36609 22.9727 10.1371Z" fill="url(#paint18_radial_1801_11920)"/>
<path d="M20.2139 13.0539C21.7373 13.0539 22.9785 11.7484 22.9785 10.142C22.9785 8.53552 21.7373 7.22998 20.2139 7.22998C18.6904 7.22998 17.4492 8.53552 17.4492 10.142C17.4492 11.7484 18.6855 13.0539 20.2139 13.0539ZM20.2139 7.23483C21.7325 7.23483 22.9688 8.53552 22.9688 10.1371C22.9688 11.7387 21.7325 13.0394 20.2139 13.0394C18.6953 13.0394 17.459 11.7387 17.459 10.1371C17.459 8.53552 18.6953 7.23483 20.2139 7.23483Z" fill="#FF5485"/>
<path d="M25.1543 3.6581C25.1543 4.42912 24.8635 5.16856 24.346 5.71375C23.8284 6.25894 23.1265 6.56523 22.3945 6.56523C21.6626 6.56523 20.9606 6.25894 20.4431 5.71375C19.9255 5.16856 19.6347 4.42912 19.6347 3.6581C19.6347 2.88708 19.9255 2.14764 20.4431 1.60245C20.9606 1.05726 21.6626 0.750977 22.3945 0.750977C23.1265 0.750977 23.8284 1.05726 24.346 1.60245C24.8635 2.14764 25.1543 2.88708 25.1543 3.6581Z" fill="url(#paint19_radial_1801_11920)"/>
<path d="M22.3936 6.57005C23.917 6.57005 25.1582 5.26451 25.1582 3.65807C25.1582 2.05163 23.917 0.746094 22.3936 0.746094C20.8701 0.746094 19.6289 2.05163 19.6289 3.65807C19.6289 5.26451 20.8652 6.57005 22.3936 6.57005ZM22.3936 0.755801C23.9122 0.755801 25.1485 2.05648 25.1485 3.65807C25.1485 5.25966 23.9122 6.56034 22.3936 6.56034C20.8749 6.56034 19.6386 5.25966 19.6386 3.65807C19.6386 2.05648 20.8749 0.755801 22.3936 0.755801Z" fill="#FF5485"/>
<path d="M29.3997 7.19778C29.3377 7.30479 29.2521 7.39234 29.1616 7.44116C29.0712 7.48998 28.9833 7.49608 28.9173 7.4581C28.8514 7.42013 28.8127 7.34121 28.8099 7.23868C28.8071 7.13616 28.8403 7.01845 28.9023 6.91144C28.9329 6.85845 28.9698 6.80968 29.0106 6.76792C29.0514 6.72616 29.0955 6.69223 29.1403 6.66806C29.1851 6.64388 29.2297 6.62994 29.2716 6.62704C29.3136 6.62413 29.3519 6.63231 29.3846 6.65111C29.4173 6.66991 29.4435 6.69897 29.462 6.73662C29.4804 6.77427 29.4906 6.81977 29.492 6.87053C29.4934 6.92129 29.486 6.97632 29.4701 7.03247C29.4543 7.08862 29.4303 7.14479 29.3997 7.19778Z" fill="#FFD7DE"/>
<path d="M18.884 8.71682C18.8221 8.82384 18.7364 8.91138 18.646 8.9602C18.5555 9.00902 18.4677 9.01512 18.4017 8.97715C18.3357 8.93918 18.2971 8.86025 18.2943 8.75773C18.2915 8.65521 18.3247 8.53749 18.3866 8.43048C18.4486 8.32347 18.5342 8.23592 18.6247 8.1871C18.7151 8.13828 18.803 8.13218 18.869 8.17016C18.9349 8.20813 18.9736 8.28705 18.9764 8.38957C18.9792 8.49209 18.946 8.60981 18.884 8.71682Z" fill="#FFD7DE"/>
<path d="M10.6067 7.33074C10.5872 7.38878 10.5608 7.44389 10.5291 7.49294C10.4974 7.54199 10.461 7.58401 10.4219 7.6166C10.3829 7.64919 10.3419 7.67172 10.3014 7.68289C10.2609 7.69407 10.2216 7.69367 10.1859 7.68172C10.1501 7.66977 10.1185 7.64651 10.0929 7.61326C10.0674 7.58001 10.0483 7.53742 10.0368 7.48794C10.0253 7.43845 10.0216 7.38303 10.0259 7.32484C10.0303 7.26666 10.0425 7.20684 10.0621 7.14882C10.0815 7.09078 10.1079 7.03567 10.1396 6.98662C10.1713 6.93757 10.2077 6.89555 10.2468 6.86296C10.2858 6.83037 10.3268 6.80784 10.3673 6.79667C10.4078 6.78549 10.4471 6.78589 10.4828 6.79784C10.5186 6.80979 10.5502 6.83305 10.5758 6.8663C10.6013 6.89955 10.6204 6.94214 10.6319 6.99162C10.6434 7.04111 10.6471 7.09653 10.6428 7.15472C10.6384 7.21291 10.6262 7.27272 10.6067 7.33074Z" fill="#FFD7DE"/>
<path d="M21.1028 2.60656C21.0456 2.71621 20.964 2.80746 20.8758 2.86023C20.7876 2.913 20.7001 2.92297 20.6325 2.88795C20.5649 2.85294 20.5228 2.77579 20.5154 2.6735C20.508 2.57121 20.536 2.45214 20.5931 2.34249C20.6503 2.23284 20.7319 2.1416 20.8201 2.08883C20.9083 2.03606 20.9958 2.02608 21.0634 2.0611C21.131 2.09612 21.1731 2.17326 21.1805 2.27556C21.1879 2.37785 21.1599 2.49692 21.1028 2.60656Z" fill="#FFD7DE"/>
<path d="M38.8656 11.5252L38.9922 11.4573C38.8705 11.2292 35.9404 5.9051 34.3244 4.51221L34.2271 4.62383C35.8284 5.99732 38.8364 11.4718 38.8656 11.5252Z" fill="white"/>
<path d="M13.2085 13.5684C13.4956 13.5684 13.7487 13.5587 13.9629 13.5393L13.9483 13.3937C11.8456 13.5927 5.44992 12.6997 5.38664 12.6948L5.36718 12.8404C5.42558 12.8453 10.6239 13.5684 13.2085 13.5684Z" fill="white"/>
<defs>
<radialGradient id="paint0_radial_1801_11920" cx="0" cy="0" r="1" gradientUnits="userSpaceOnUse" gradientTransform="translate(25.6275 14.3638) rotate(88.4985) scale(3.83338 4.17539)">
<stop stop-color="#FF5858"/>
<stop offset="1" stop-color="#E71831"/>
</radialGradient>
<radialGradient id="paint1_radial_1801_11920" cx="0" cy="0" r="1" gradientUnits="userSpaceOnUse" gradientTransform="translate(24.6461 14.9918) rotate(67.5297) scale(2.55057 1.90928)">
<stop stop-color="#FFD9D9"/>
<stop offset="1" stop-color="#FFAEB8"/>
</radialGradient>
<radialGradient id="paint2_radial_1801_11920" cx="0" cy="0" r="1" gradientUnits="userSpaceOnUse" gradientTransform="translate(16.7143 16.2059) rotate(88.4973) scale(3.86722 4.21569)">
<stop stop-color="#FF5858"/>
<stop offset="1" stop-color="#E71831"/>
</radialGradient>
<radialGradient id="paint3_radial_1801_11920" cx="0" cy="0" r="1" gradientUnits="userSpaceOnUse" gradientTransform="translate(18.0398 17.2788) rotate(113.134) scale(2.56004 1.85442)">
<stop stop-color="#FFD9D9"/>
<stop offset="1" stop-color="#FFAEB8"/>
</radialGradient>
<linearGradient id="paint4_linear_1801_11920" x1="36.4621" y1="4.31967" x2="-0.000978068" y2="12.959" gradientUnits="userSpaceOnUse">
<stop stop-color="#FCA7CA"/>
<stop offset="0.408559" stop-color="#FF75AD"/>
</linearGradient>
<radialGradient id="paint5_radial_1801_11920" cx="0" cy="0" r="1" gradientUnits="userSpaceOnUse" gradientTransform="translate(4.69952 17.787) rotate(-33.2317) scale(4.40478 5.5822)">
<stop stop-color="#FFBABA"/>
<stop offset="1" stop-color="#FF7081"/>
</radialGradient>
<radialGradient id="paint6_radial_1801_11920" cx="0" cy="0" r="1" gradientUnits="userSpaceOnUse" gradientTransform="translate(37.3518 17.0245) rotate(88.1609) scale(3.71499 4.95504)">
<stop stop-color="#FF5858"/>
<stop offset="1" stop-color="#E71831"/>
</radialGradient>
<radialGradient id="paint7_radial_1801_11920" cx="0" cy="0" r="1" gradientUnits="userSpaceOnUse" gradientTransform="translate(37.3629 17.206) rotate(89.2712) scale(3.19594 1.69013)">
<stop stop-color="#FFD9D9"/>
<stop offset="1" stop-color="#FFAEB8"/>
</radialGradient>
<radialGradient id="paint8_radial_1801_11920" cx="0" cy="0" r="1" gradientUnits="userSpaceOnUse" gradientTransform="translate(29.0369 22.7445) rotate(88.6855) scale(4.24471 4.04804)">
<stop stop-color="#FF5858"/>
<stop offset="1" stop-color="#E71831"/>
</radialGradient>
<radialGradient id="paint9_radial_1801_11920" cx="0" cy="0" r="1" gradientUnits="userSpaceOnUse" gradientTransform="translate(28.8809 23.873) rotate(88.6038) scale(2.2908 2.32027)">
<stop stop-color="#FFD9D9"/>
<stop offset="1" stop-color="#FFAEB8"/>
</radialGradient>
<radialGradient id="paint10_radial_1801_11920" cx="0" cy="0" r="1" gradientUnits="userSpaceOnUse" gradientTransform="translate(8.05456 21.021) rotate(88.4655) scale(3.90957 4.3517)">
<stop stop-color="#FF5858"/>
<stop offset="1" stop-color="#E71831"/>
</radialGradient>
<radialGradient id="paint11_radial_1801_11920" cx="0" cy="0" r="1" gradientUnits="userSpaceOnUse" gradientTransform="translate(7.11346 21.3445) rotate(71.9006) scale(2.97104 1.83768)">
<stop stop-color="#FFD9D9"/>
<stop offset="1" stop-color="#FFAEB8"/>
</radialGradient>
<radialGradient id="paint12_radial_1801_11920" cx="0" cy="0" r="1" gradientUnits="userSpaceOnUse" gradientTransform="translate(33.0056 30.4641) rotate(-17.8941) scale(4.08671 3.30353)">
<stop stop-color="#FFBABA"/>
<stop offset="1" stop-color="#FF7081"/>
</radialGradient>
<radialGradient id="paint13_radial_1801_11920" cx="0" cy="0" r="1" gradientUnits="userSpaceOnUse" gradientTransform="translate(25.9504 27.6045) rotate(87.8172) scale(3.02577 4.78857)">
<stop stop-color="#FF5858"/>
<stop offset="1" stop-color="#E71831"/>
</radialGradient>
<radialGradient id="paint14_radial_1801_11920" cx="0" cy="0" r="1" gradientUnits="userSpaceOnUse" gradientTransform="translate(26.0227 27.803) rotate(89.0108) scale(2.75281 1.97592)">
<stop stop-color="#FFD9D9"/>
<stop offset="1" stop-color="#FFAEB8"/>
</radialGradient>
<radialGradient id="paint15_radial_1801_11920" cx="0" cy="0" r="1" gradientUnits="userSpaceOnUse" gradientTransform="translate(15.3316 24.5799) rotate(88.0568) scale(3.58443 5.05101)">
<stop stop-color="#FF5858"/>
<stop offset="1" stop-color="#E71831"/>
</radialGradient>
<radialGradient id="paint16_radial_1801_11920" cx="0" cy="0" r="1" gradientUnits="userSpaceOnUse" gradientTransform="translate(30.953 7.46719) rotate(126.87) scale(3.81147 3.61829)">
<stop stop-color="#FF556A"/>
<stop offset="1" stop-color="#E62038"/>
</radialGradient>
<radialGradient id="paint17_radial_1801_11920" cx="0" cy="0" r="1" gradientUnits="userSpaceOnUse" gradientTransform="translate(12.6815 7.18057) rotate(126.87) scale(3.81148 3.61829)">
<stop stop-color="#FF556A"/>
<stop offset="1" stop-color="#E62038"/>
</radialGradient>
<radialGradient id="paint18_radial_1801_11920" cx="0" cy="0" r="1" gradientUnits="userSpaceOnUse" gradientTransform="translate(20.9412 9.01993) rotate(126.87) scale(3.81147 3.61829)">
<stop stop-color="#FF556A"/>
<stop offset="1" stop-color="#E62038"/>
</radialGradient>
<radialGradient id="paint19_radial_1801_11920" cx="0" cy="0" r="1" gradientUnits="userSpaceOnUse" gradientTransform="translate(23.1229 2.54092) rotate(126.87) scale(3.81148 3.61829)">
<stop stop-color="#FF556A"/>
<stop offset="1" stop-color="#E62038"/>
</radialGradient>
</defs>
</svg>
