<svg width="33" height="33" viewBox="0 0 33 33" fill="none" xmlns="http://www.w3.org/2000/svg">
<path d="M22.7812 15.1805C22.8611 15.0083 22.7862 14.8039 22.6139 14.7241C22.4417 14.6442 22.2373 14.7191 22.1575 14.8914L17.2417 25.4948C17.1619 25.667 17.2368 25.8714 17.409 25.9513C17.5812 26.0311 17.7856 25.9562 17.8655 25.784L22.7812 15.1805Z" fill="#FAF4C6"/>
<path fill-rule="evenodd" clip-rule="evenodd" d="M21.533 14.6023L16.6172 25.2057C16.3777 25.7225 16.6023 26.3355 17.1191 26.5751C17.6358 26.8146 18.2489 26.5899 18.4884 26.0732L23.4041 15.4698C23.6437 14.9531 23.419 14.34 22.9023 14.1004C22.3856 13.8609 21.7725 14.0856 21.533 14.6023ZM22.1567 14.8915L17.2409 25.4949C17.1611 25.6671 17.236 25.8715 17.4082 25.9513C17.5805 26.0312 17.7848 25.9563 17.8647 25.7841L22.7804 15.1806C22.8603 15.0084 22.7854 14.804 22.6131 14.7242C22.4409 14.6443 22.2365 14.7192 22.1567 14.8915Z" fill="#E0B16A"/>
<path fill-rule="evenodd" clip-rule="evenodd" d="M21.1764 16.1894C21.0042 16.1096 20.7998 16.1845 20.72 16.3567L18.3344 21.5025C18.2545 21.6747 18.3294 21.8791 18.5017 21.9589C18.6739 22.0388 18.8783 21.9639 18.9581 21.7916L21.3437 16.6459C21.4236 16.4736 21.3487 16.2693 21.1764 16.1894Z" fill="#D09741"/>
<path d="M19.7392 11.1182C18.781 13.185 19.6798 15.6373 21.7467 16.5955C23.8135 17.5537 26.2658 16.655 27.224 14.5881C28.1822 12.5212 27.2835 10.0689 25.2166 9.11073C23.1497 8.15254 20.6974 9.05129 19.7392 11.1182Z" fill="#9ED83F"/>
<path fill-rule="evenodd" clip-rule="evenodd" d="M19.1147 10.8291C17.9968 13.2404 19.0454 16.1015 21.4567 17.2194C23.8681 18.3372 26.7291 17.2887 27.847 14.8774C28.9649 12.466 27.9163 9.605 25.505 8.4871C23.0936 7.3692 20.2326 8.41775 19.1147 10.8291ZM21.7459 16.5956C19.679 15.6374 18.7802 13.1851 19.7384 11.1183C20.6966 9.05139 23.1489 8.15264 25.2158 9.11083C27.2827 10.069 28.1814 12.5213 27.2232 14.5882C26.265 16.6551 23.8127 17.5538 21.7459 16.5956Z" fill="#5A8C07"/>
<path fill-rule="evenodd" clip-rule="evenodd" d="M22.9483 16.9446C21.311 15.5332 20.7344 13.1571 21.6887 11.0987C22.1783 10.0427 22.9921 9.24004 23.957 8.75441C22.236 8.55399 20.5065 9.46028 19.738 11.1179C18.7798 13.1848 19.6785 15.6371 21.7454 16.5953C22.1368 16.7767 22.542 16.8916 22.9483 16.9446Z" fill="#78B710"/>
<path d="M20.76 14.4432C20.6505 14.6403 20.7215 14.8888 20.9185 14.9983C21.1156 15.1078 21.3641 15.0368 21.4736 14.8397C21.5831 14.6427 21.5121 14.3941 21.3151 14.2846C21.118 14.1752 20.8695 14.2461 20.76 14.4432Z" fill="#66A107"/>
<path d="M19.8819 12.8855C19.7465 13.1292 19.8343 13.4366 20.078 13.572C20.3217 13.7074 20.6291 13.6196 20.7645 13.3759C20.9 13.1322 20.8122 12.8248 20.5684 12.6894C20.3247 12.5539 20.0173 12.6417 19.8819 12.8855Z" fill="#66A107"/>
<path d="M21.4401 15.7866C21.3632 15.9249 21.413 16.0993 21.5513 16.1762C21.6897 16.253 21.8641 16.2032 21.9409 16.0649C22.0178 15.9266 21.968 15.7522 21.8296 15.6753C21.6913 15.5985 21.5169 15.6483 21.4401 15.7866Z" fill="#66A107"/>
<path d="M19.9283 14.1201C19.8515 14.2584 19.9013 14.4328 20.0396 14.5097C20.1779 14.5865 20.3524 14.5367 20.4292 14.3984C20.5061 14.2601 20.4562 14.0857 20.3179 14.0088C20.1796 13.932 20.0052 13.9818 19.9283 14.1201Z" fill="#66A107"/>
<path d="M21.1979 13.3676C21.121 13.506 21.1709 13.6804 21.3092 13.7572C21.4475 13.8341 21.6219 13.7842 21.6987 13.6459C21.7756 13.5076 21.7258 13.3332 21.5875 13.2564C21.4491 13.1795 21.2747 13.2293 21.1979 13.3676Z" fill="#66A107"/>
<path d="M21.9596 14.9702C21.8827 15.1085 21.9326 15.2829 22.0709 15.3598C22.2092 15.4366 22.3836 15.3868 22.4605 15.2485C22.5373 15.1102 22.4875 14.9357 22.3492 14.8589C22.2109 14.782 22.0364 14.8319 21.9596 14.9702Z" fill="#66A107"/>
<path d="M19.8151 11.8257C19.7382 11.964 19.788 12.1384 19.9263 12.2152C20.0647 12.2921 20.2391 12.2423 20.3159 12.1039C20.3928 11.9656 20.343 11.7912 20.2046 11.7144C20.0663 11.6375 19.8919 11.6873 19.8151 11.8257Z" fill="#66A107"/>
<path d="M22.511 16.0871C22.4631 16.1734 22.4942 16.2821 22.5804 16.3301C22.6667 16.378 22.7755 16.3469 22.8234 16.2607C22.8713 16.1744 22.8402 16.0656 22.754 16.0177C22.6677 15.9698 22.559 16.0009 22.511 16.0871Z" fill="#66A107"/>
<path fill-rule="evenodd" clip-rule="evenodd" d="M19.6719 11.2713C20.708 12.1189 21.9512 12.9014 23.3484 13.5491C24.6219 14.1395 25.8982 14.56 27.111 14.8138C27.1507 14.7402 27.1884 14.6649 27.224 14.5881C28.1822 12.5212 27.2835 10.0689 25.2166 9.11073C23.1497 8.15254 20.6974 9.05129 19.7392 11.1182C19.7157 11.169 19.6932 11.22 19.6719 11.2713Z" fill="#68EDFF"/>
<path fill-rule="evenodd" clip-rule="evenodd" d="M21.4176 12.5116C21.4878 12.2213 21.587 11.935 21.7164 11.6558C22.3431 10.304 23.5552 9.38629 24.9863 9.01221C22.9709 8.22069 20.6624 9.12781 19.7396 11.1183C19.716 11.1691 19.6936 11.2201 19.6723 11.2714C20.2022 11.7049 20.7864 12.1214 21.4176 12.5116Z" fill="#29C5DB"/>
<path fill-rule="evenodd" clip-rule="evenodd" d="M18.9476 10.4272C18.812 10.56 18.8097 10.7777 18.9426 10.9133C22.0109 14.046 26.18 14.9846 27.9045 15.0644C28.0941 15.0732 28.255 14.9266 28.2638 14.7369C28.2725 14.5473 28.1259 14.3864 27.9363 14.3777C26.3318 14.3034 22.3475 13.4071 19.4337 10.4322C19.3009 10.2966 19.0832 10.2944 18.9476 10.4272Z" fill="#5A8C07"/>
<path fill-rule="evenodd" clip-rule="evenodd" d="M25.5652 10.2483C25.4116 10.3599 25.3775 10.5749 25.4891 10.7285C25.6168 10.9043 25.8125 11.2415 25.9574 11.6524C26.1028 12.0644 26.1878 12.5239 26.1251 12.9556C26.0978 13.1435 26.228 13.3179 26.4159 13.3452C26.6037 13.3725 26.7782 13.2423 26.8055 13.0544C26.8897 12.4744 26.7727 11.897 26.6058 11.4237C26.4384 10.9494 26.2116 10.5532 26.0454 10.3244C25.9338 10.1708 25.7188 10.1367 25.5652 10.2483Z" fill="white"/>
<path d="M11.5391 15.3216C11.4441 15.1572 11.2339 15.1009 11.0695 15.1958C10.9051 15.2907 10.8487 15.501 10.9437 15.6654L16.7874 25.787C16.8823 25.9515 17.0926 26.0078 17.257 25.9129C17.4214 25.8179 17.4777 25.6077 17.3828 25.4433L11.5391 15.3216Z" fill="#E9CB91"/>
<path fill-rule="evenodd" clip-rule="evenodd" d="M10.3486 16.0088L16.1923 26.1305C16.4771 26.6237 17.1078 26.7927 17.6011 26.5079C18.0943 26.2232 18.2633 25.5925 17.9785 25.0992L12.1348 14.9776C11.85 14.4843 11.2193 14.3153 10.7261 14.6001C10.2328 14.8849 10.0638 15.5156 10.3486 16.0088ZM10.944 15.6651L16.7877 25.7867C16.8827 25.9511 17.0929 26.0075 17.2573 25.9126C17.4217 25.8176 17.478 25.6074 17.3831 25.443L11.5394 15.3213C11.4444 15.1569 11.2342 15.1006 11.0698 15.1955C10.9054 15.2904 10.8491 15.5006 10.944 15.6651Z" fill="#C19149"/>
<path fill-rule="evenodd" clip-rule="evenodd" d="M11.4406 17.2139C11.2762 17.3088 11.2198 17.519 11.3148 17.6834L14.1507 22.5954C14.2456 22.7598 14.4559 22.8162 14.6203 22.7212C14.7847 22.6263 14.841 22.4161 14.7461 22.2517L11.9102 17.3397C11.8152 17.1753 11.605 17.1189 11.4406 17.2139Z" fill="#AB7729"/>
<path d="M6.46662 15.4718C7.60571 17.4447 10.1285 18.1207 12.1015 16.9816C14.0744 15.8425 14.7504 13.3197 13.6113 11.3468C12.4722 9.37381 9.94943 8.69783 7.97647 9.83691C6.00352 10.976 5.32753 13.4988 6.46662 15.4718Z" fill="#FE531D"/>
<path fill-rule="evenodd" clip-rule="evenodd" d="M5.87154 15.8157C7.20047 18.1175 10.1438 18.9061 12.4455 17.5772C14.7473 16.2483 15.536 13.305 14.207 11.0032C12.8781 8.70141 9.93482 7.91276 7.63303 9.2417C5.33125 10.5706 4.5426 13.5139 5.87154 15.8157ZM12.1018 16.9818C10.1288 18.1209 7.60602 17.4449 6.46693 15.4719C5.32784 13.499 6.00383 10.9762 7.97678 9.83709C9.94974 8.698 12.4726 9.37399 13.6116 11.3469C14.7507 13.3199 14.0747 15.8427 12.1018 16.9818Z" fill="#AC1703"/>
<path fill-rule="evenodd" clip-rule="evenodd" d="M13.0778 16.1989C10.9814 16.7259 8.7063 15.8302 7.57189 13.8654C6.98986 12.8573 6.8017 11.7298 6.95968 10.6613C5.80551 11.9535 5.55158 13.8895 6.46514 15.4719C7.60423 17.4448 10.127 18.1208 12.1 16.9817C12.4736 16.766 12.8007 16.5007 13.0778 16.1989Z" fill="#D7320E"/>
<path d="M9.80414 16.4955C9.90395 16.6977 10.1487 16.7806 10.3509 16.6808C10.553 16.581 10.636 16.3362 10.5362 16.1341C10.4364 15.9319 10.1916 15.849 9.98945 15.9488C9.7873 16.0486 9.70433 16.2934 9.80414 16.4955Z" fill="#B92607"/>
<path d="M8.02317 16.3328C8.14662 16.5829 8.44937 16.6855 8.6994 16.562C8.94943 16.4386 9.05204 16.1358 8.92859 15.8858C8.80515 15.6358 8.50239 15.5332 8.25237 15.6566C8.00234 15.7801 7.89973 16.0828 8.02317 16.3328Z" fill="#B92607"/>
<path d="M11.2947 16.7005C11.3647 16.8424 11.5365 16.9006 11.6784 16.8306C11.8203 16.7605 11.8785 16.5887 11.8085 16.4468C11.7384 16.305 11.5666 16.2467 11.4248 16.3168C11.2829 16.3868 11.2246 16.5586 11.2947 16.7005Z" fill="#B92607"/>
<path d="M9.06423 16.9959C9.13428 17.1378 9.30607 17.196 9.44795 17.126C9.58983 17.0559 9.64805 16.8841 9.57801 16.7422C9.50796 16.6004 9.33616 16.5421 9.19428 16.6122C9.05241 16.6822 8.99418 16.854 9.06423 16.9959Z" fill="#B92607"/>
<path d="M9.16774 15.5237C9.23779 15.6656 9.40959 15.7238 9.55147 15.6538C9.69334 15.5837 9.75157 15.4119 9.68152 15.2701C9.61147 15.1282 9.43967 15.07 9.2978 15.14C9.15592 15.2101 9.0977 15.3819 9.16774 15.5237Z" fill="#B92607"/>
<path d="M10.9177 15.8094C10.9878 15.9513 11.1596 16.0095 11.3015 15.9394C11.4433 15.8694 11.5016 15.6976 11.4315 15.5557C11.3615 15.4138 11.1897 15.3556 11.0478 15.4257C10.9059 15.4957 10.8477 15.6675 10.9177 15.8094Z" fill="#B92607"/>
<path d="M7.11306 15.7845C7.1831 15.9264 7.3549 15.9846 7.49678 15.9145C7.63865 15.8445 7.69688 15.6727 7.62683 15.5308C7.55679 15.3889 7.38499 15.3307 7.24311 15.4008C7.10124 15.4708 7.04301 15.6426 7.11306 15.7845Z" fill="#B92607"/>
<path d="M12.1513 15.9908C12.195 16.0792 12.3021 16.1155 12.3906 16.0719C12.479 16.0282 12.5154 15.921 12.4717 15.8326C12.428 15.7441 12.3209 15.7078 12.2324 15.7515C12.1439 15.7951 12.1076 15.9023 12.1513 15.9908Z" fill="#B92607"/>
<path fill-rule="evenodd" clip-rule="evenodd" d="M6.55312 15.6149C7.84256 15.2553 9.19788 14.6887 10.5316 13.9187C11.7472 13.2169 12.8254 12.4149 13.7309 11.569C13.6935 11.4943 13.6537 11.4201 13.6113 11.3468C12.4722 9.37381 9.94943 8.69783 7.97647 9.83691C6.00352 10.976 5.32753 13.4988 6.46662 15.4718C6.49463 15.5203 6.52347 15.568 6.55312 15.6149Z" fill="#FBA72A"/>
<path fill-rule="evenodd" clip-rule="evenodd" d="M8.57028 14.9016C8.37329 14.6771 8.19621 14.4313 8.04235 14.1648C7.29734 12.8744 7.24417 11.355 7.76172 9.96924C5.95467 11.1622 5.36827 13.5722 6.46526 15.4722C6.49326 15.5207 6.52209 15.5684 6.55174 15.6154C7.21125 15.4314 7.888 15.1933 8.57028 14.9016Z" fill="#E08A09"/>
<path fill-rule="evenodd" clip-rule="evenodd" d="M5.44549 15.7224C5.4761 15.9097 5.6528 16.0368 5.84017 16.0062C10.1679 15.2992 13.3344 12.4295 14.3919 11.065C14.5082 10.915 14.4809 10.6991 14.3308 10.5828C14.1808 10.4665 13.9648 10.4938 13.8485 10.6439C12.8646 11.9134 9.839 14.6563 5.72932 15.3277C5.54196 15.3583 5.41488 15.535 5.44549 15.7224Z" fill="#AC1703"/>
<path fill-rule="evenodd" clip-rule="evenodd" d="M9.1065 10.2063C9.10936 10.3961 9.26557 10.5477 9.4554 10.5448C9.67267 10.5415 10.0611 10.5756 10.4806 10.6935C10.9011 10.8116 11.3259 11.0065 11.6429 11.3062C11.7808 11.4366 11.9984 11.4305 12.1288 11.2925C12.2592 11.1546 12.2531 10.937 12.1152 10.8066C11.6893 10.4039 11.1497 10.1674 10.6665 10.0316C10.1824 9.89555 9.72781 9.85313 9.44501 9.8574C9.25519 9.86027 9.10363 10.0165 9.1065 10.2063Z" fill="white"/>
<path d="M17.5977 14.0938C17.5977 13.9039 17.4438 13.75 17.2539 13.75C17.0641 13.75 16.9102 13.9039 16.9102 14.0938V25.7812C16.9102 25.9711 17.0641 26.125 17.2539 26.125C17.4438 26.125 17.5977 25.9711 17.5977 25.7812V14.0938Z" fill="#FAF4C6"/>
<path fill-rule="evenodd" clip-rule="evenodd" d="M16.2227 14.0938V25.7812C16.2227 26.3508 16.6844 26.8125 17.2539 26.8125C17.8234 26.8125 18.2852 26.3508 18.2852 25.7812V14.0938C18.2852 13.5242 17.8235 13.0625 17.2539 13.0625C16.6844 13.0625 16.2227 13.5242 16.2227 14.0938ZM16.9102 14.0938V25.7812C16.9102 25.9711 17.0641 26.125 17.2539 26.125C17.4438 26.125 17.5977 25.9711 17.5977 25.7812V14.0938C17.5977 13.9039 17.4438 13.75 17.2539 13.75C17.0641 13.75 16.9102 13.9039 16.9102 14.0938Z" fill="#E0B16A"/>
<path fill-rule="evenodd" clip-rule="evenodd" d="M16.5664 15.6836C16.3766 15.6836 16.2227 15.8375 16.2227 16.0273V21.6992C16.2227 21.8891 16.3766 22.043 16.5664 22.043C16.7563 22.043 16.9102 21.8891 16.9102 21.6992V16.0273C16.9102 15.8375 16.7563 15.6836 16.5664 15.6836Z" fill="#D09741"/>
<path d="M13.1289 11.6875C13.1289 13.9657 14.9757 15.8125 17.2539 15.8125C19.5321 15.8125 21.3789 13.9657 21.3789 11.6875C21.3789 9.40933 19.5321 7.5625 17.2539 7.5625C14.9757 7.5625 13.1289 9.40933 13.1289 11.6875Z" fill="#FFAEE8"/>
<path fill-rule="evenodd" clip-rule="evenodd" d="M12.4414 11.6875C12.4414 14.3454 14.596 16.5 17.2539 16.5C19.9118 16.5 22.0664 14.3454 22.0664 11.6875C22.0664 9.02963 19.9118 6.875 17.2539 6.875C14.596 6.875 12.4414 9.02963 12.4414 11.6875ZM17.2539 15.8125C14.9757 15.8125 13.1289 13.9657 13.1289 11.6875C13.1289 9.40933 14.9757 7.5625 17.2539 7.5625C19.5321 7.5625 21.3789 9.40933 21.3789 11.6875C21.3789 13.9657 19.5321 15.8125 17.2539 15.8125Z" fill="#B63C94"/>
<path fill-rule="evenodd" clip-rule="evenodd" d="M18.4922 15.6233C16.4132 15.0315 14.8907 13.1183 14.8907 10.8495C14.8907 9.68541 15.2915 8.61496 15.9626 7.76855C14.3169 8.31056 13.129 9.86023 13.129 11.6874C13.129 13.9655 14.9758 15.8124 17.254 15.8124C17.6854 15.8124 18.1013 15.7461 18.4922 15.6233Z" fill="#E972C7"/>
<path fill-rule="evenodd" clip-rule="evenodd" d="M13.1322 11.8547C14.4287 12.188 15.8858 12.375 17.4258 12.375C18.8295 12.375 20.1642 12.2196 21.3713 11.9398C21.3764 11.8563 21.3789 11.7722 21.3789 11.6875C21.3789 9.40933 19.5321 7.5625 17.2539 7.5625C14.9757 7.5625 13.1289 9.40933 13.1289 11.6875C13.1289 11.7435 13.13 11.7993 13.1322 11.8547Z" fill="#FFD568"/>
<path fill-rule="evenodd" clip-rule="evenodd" d="M15.238 12.2456C15.1796 11.9527 15.1492 11.6513 15.1492 11.3436C15.1492 9.85356 15.8628 8.51116 17.0039 7.56982C14.8425 7.69942 13.1296 9.49335 13.1296 11.6873C13.1296 11.7433 13.1308 11.7991 13.133 11.8545C13.7961 12.025 14.5012 12.1572 15.238 12.2456Z" fill="#F5B350"/>
<path d="M15.6641 14.1797C15.6641 14.4051 15.8468 14.5879 16.0723 14.5879C16.2977 14.5879 16.4805 14.4051 16.4805 14.1797C16.4805 13.9542 16.2977 13.7715 16.0723 13.7715C15.8468 13.7715 15.6641 13.9542 15.6641 14.1797Z" fill="#C751A6"/>
<path d="M14.1387 13.2451C14.1387 13.524 14.3647 13.75 14.6436 13.75C14.9224 13.75 15.1484 13.524 15.1484 13.2451C15.1484 12.9663 14.9224 12.7402 14.6436 12.7402C14.3647 12.7402 14.1387 12.9663 14.1387 13.2451Z" fill="#C751A6"/>
<path d="M16.9094 15.0238C16.9094 15.182 17.0377 15.3103 17.1959 15.3103C17.3542 15.3103 17.4824 15.182 17.4824 15.0238C17.4824 14.8656 17.3542 14.7373 17.1959 14.7373C17.0377 14.7373 16.9094 14.8656 16.9094 15.0238Z" fill="#C751A6"/>
<path d="M14.7805 14.3016C14.7805 14.4599 14.9088 14.5881 15.067 14.5881C15.2252 14.5881 15.3535 14.4599 15.3535 14.3016C15.3535 14.1434 15.2252 14.0151 15.067 14.0151C14.9088 14.0151 14.7805 14.1434 14.7805 14.3016Z" fill="#C751A6"/>
<path d="M15.5247 13.0267C15.5247 13.185 15.6529 13.3132 15.8112 13.3132C15.9694 13.3132 16.0977 13.185 16.0977 13.0267C16.0977 12.8685 15.9694 12.7402 15.8112 12.7402C15.6529 12.7402 15.5247 12.8685 15.5247 13.0267Z" fill="#C751A6"/>
<path d="M16.968 14.058C16.968 14.2162 17.0963 14.3445 17.2545 14.3445C17.4127 14.3445 17.541 14.2162 17.541 14.058C17.541 13.8998 17.4127 13.7715 17.2545 13.7715C17.0963 13.7715 16.968 13.8998 16.968 14.058Z" fill="#C751A6"/>
<path d="M13.5657 12.3509C13.5657 12.5092 13.694 12.6374 13.8522 12.6374C14.0104 12.6374 14.1387 12.5092 14.1387 12.3509C14.1387 12.1927 14.0104 12.0645 13.8522 12.0645C13.694 12.0645 13.5657 12.1927 13.5657 12.3509Z" fill="#C751A6"/>
<path d="M17.9923 14.7666C17.9923 14.8652 18.0723 14.9452 18.1709 14.9452C18.2696 14.9452 18.3496 14.8652 18.3496 14.7666C18.3496 14.6679 18.2696 14.5879 18.1709 14.5879C18.0723 14.5879 17.9923 14.6679 17.9923 14.7666Z" fill="#C751A6"/>
<path fill-rule="evenodd" clip-rule="evenodd" d="M12.1198 11.3941C12.0526 11.5717 12.1421 11.7701 12.3197 11.8372C16.4211 13.3888 20.5982 12.4869 22.1963 11.8339C22.3721 11.7621 22.4563 11.5614 22.3845 11.3857C22.3127 11.21 22.112 11.1257 21.9363 11.1975C20.4494 11.805 16.4577 12.6676 12.5629 11.1942C12.3854 11.127 12.187 11.2165 12.1198 11.3941Z" fill="#B63C94"/>
<path fill-rule="evenodd" clip-rule="evenodd" d="M18.0493 8.44794C17.9568 8.61377 18.0163 8.82313 18.1822 8.91556C18.372 9.02135 18.6913 9.24503 18.9957 9.55686C19.3008 9.86948 19.5712 10.2506 19.6959 10.6686C19.7501 10.8505 19.9416 10.954 20.1235 10.8998C20.3055 10.8455 20.409 10.6541 20.3547 10.4721C20.1872 9.91046 19.8382 9.43579 19.4877 9.07666C19.1364 8.71675 18.7639 8.45273 18.5169 8.31504C18.351 8.22261 18.1417 8.28211 18.0493 8.44794Z" fill="white"/>
</svg>
