<svg width="46" height="45" viewBox="0 0 46 45" fill="none" xmlns="http://www.w3.org/2000/svg">
<path d="M23.0586 39.2291C26.9557 39.2291 30.115 38.1008 30.115 36.709C30.1607 36.4512 30.4688 35.8008 30.7344 35.625H15.2656C15.6406 35.8125 15.8348 36.5039 16.0022 36.709C16.0022 38.1008 19.1615 39.2291 23.0586 39.2291Z" fill="#77BCD1"/>
<path fill-rule="evenodd" clip-rule="evenodd" d="M30.7345 35.625C30.5105 35.7733 30.2561 36.2593 30.1546 36.5625C30.1358 36.6187 30.1222 36.6687 30.1151 36.709C30.1151 38.1008 26.9558 39.2291 23.0587 39.2291C19.1616 39.2291 16.0023 38.1008 16.0023 36.709C15.9731 36.6732 15.9431 36.6226 15.9114 36.5625C15.8834 36.5092 15.8541 36.4485 15.8229 36.3839C15.6875 36.1035 15.5173 35.7508 15.2657 35.625H30.7345ZM15.0895 37.0137C15.067 36.9714 15.0464 36.9303 15.0284 36.8939C15.006 36.8484 14.9873 36.8096 14.9701 36.7738C14.94 36.7114 14.9144 36.6584 14.8816 36.5957C14.8376 36.5119 14.8046 36.459 14.781 36.4275C14.435 36.2188 14.2592 35.8084 14.3533 35.4096C14.4532 34.9864 14.8309 34.6875 15.2657 34.6875H30.7345C31.1482 34.6875 31.5129 34.9587 31.6322 35.3548C31.746 35.7329 31.6104 36.1395 31.2979 36.3743C31.294 36.3791 31.2891 36.3853 31.2835 36.3929C31.2516 36.4356 31.2113 36.4993 31.169 36.5784C31.1275 36.656 31.0917 36.7343 31.0658 36.7998C31.0578 36.82 31.0518 36.8364 31.0474 36.8491C30.9982 37.513 30.6047 38.0353 30.1654 38.4062C29.6912 38.8066 29.0607 39.1249 28.3636 39.3739C26.9613 39.8747 25.0856 40.1666 23.0587 40.1666C21.0318 40.1666 19.1561 39.8747 17.7538 39.3739C17.0567 39.1249 16.4262 38.8066 15.952 38.4062C15.5496 38.0665 15.1857 37.5999 15.0895 37.0137Z" fill="#65A6BA"/>
<path d="M30.935 10.3345H15.0645V35.2031C15.0645 36.2581 18.6172 37.5821 22.9997 37.5821C27.3823 37.5821 30.935 36.2581 30.935 35.2031V10.3345Z" fill="#E3283F"/>
<path fill-rule="evenodd" clip-rule="evenodd" d="M14.127 10.3345C14.127 9.81671 14.5467 9.39697 15.0645 9.39697H30.935C31.4528 9.39697 31.8725 9.81671 31.8725 10.3345V35.2031C31.8725 35.6061 31.7028 35.9385 31.5164 36.1804C31.33 36.4223 31.0888 36.6253 30.8378 36.7956C30.3354 37.1366 29.6628 37.4341 28.8984 37.6805C27.3591 38.1767 25.2771 38.5196 22.9997 38.5196C20.7224 38.5196 18.6403 38.1767 17.101 37.6805C16.3366 37.4341 15.664 37.1366 15.1616 36.7956C14.9106 36.6253 14.6695 36.4223 14.4831 36.1804C14.2967 35.9385 14.127 35.6061 14.127 35.2031V10.3345ZM30.935 10.3345V35.2031C30.935 36.2581 27.3823 37.5821 22.9997 37.5821C18.6172 37.5821 15.0645 36.2581 15.0645 35.2031V10.3345H30.935Z" fill="#65A6BA"/>
<path d="M30.9353 35.2031V10.5581H26.2812V36.9429C29.0265 36.6424 30.9353 35.9764 30.9353 35.2031Z" fill="#C61A2F"/>
<path d="M28.3477 35.0723C28.3477 35.5469 27.9629 35.9316 27.4883 35.9316C27.0137 35.9316 26.6289 35.5469 26.6289 35.0723C26.6289 34.5976 27.0137 34.2129 27.4883 34.2129C27.9629 34.2129 28.3477 34.5976 28.3477 35.0723Z" fill="#AA0E21"/>
<path d="M30.0313 33.9624C30.0313 34.3184 29.7427 34.6069 29.3867 34.6069C29.0308 34.6069 28.7422 34.3184 28.7422 33.9624C28.7422 33.6064 29.0308 33.3179 29.3867 33.3179C29.7427 33.3179 30.0313 33.6064 30.0313 33.9624Z" fill="#AA0E21"/>
<path d="M27.418 32.709C27.418 33.065 27.1294 33.3535 26.7734 33.3535C26.4175 33.3535 26.1289 33.065 26.1289 32.709C26.1289 32.353 26.4175 32.0645 26.7734 32.0645C27.1294 32.0645 27.418 32.353 27.418 32.709Z" fill="#AA0E21"/>
<path d="M29.9961 29.7012C29.9961 30.0571 29.7075 30.3457 29.3516 30.3457C28.9956 30.3457 28.707 30.0571 28.707 29.7012C28.707 29.3452 28.9956 29.0566 29.3516 29.0566C29.7075 29.0566 29.9961 29.3452 29.9961 29.7012Z" fill="#AA0E21"/>
<path d="M28.2773 30.3457C28.2773 30.583 28.085 30.7754 27.8477 30.7754C27.6103 30.7754 27.418 30.583 27.418 30.3457C27.418 30.1084 27.6103 29.916 27.8477 29.916C28.085 29.916 28.2773 30.1084 28.2773 30.3457Z" fill="#AA0E21"/>
<path d="M29.9961 27.7676C29.9961 28.0049 29.8037 28.1973 29.5664 28.1973C29.3291 28.1973 29.1367 28.0049 29.1367 27.7676C29.1367 27.5303 29.3291 27.3379 29.5664 27.3379C29.8037 27.3379 29.9961 27.5303 29.9961 27.7676Z" fill="#AA0E21"/>
<path d="M29.5293 31.814C29.5293 32.1699 29.2407 32.4585 28.8848 32.4585C28.5288 32.4585 28.2402 32.1699 28.2402 31.814C28.2402 31.458 28.5288 31.1694 28.8848 31.1694C29.2407 31.1694 29.5293 31.458 29.5293 31.814Z" fill="#AA0E21"/>
<path d="M28.707 27.9824C28.707 28.3384 28.4185 28.627 28.0625 28.627C27.7065 28.627 27.418 28.3384 27.418 27.9824C27.418 27.6265 27.7065 27.3379 28.0625 27.3379C28.4185 27.3379 28.707 27.6265 28.707 27.9824Z" fill="#AA0E21"/>
<path d="M29.5664 26.0488C29.5664 26.2861 29.374 26.4785 29.1367 26.4785C28.8994 26.4785 28.707 26.2861 28.707 26.0488C28.707 25.8115 28.8994 25.6191 29.1367 25.6191C29.374 25.6191 29.5664 25.8115 29.5664 26.0488Z" fill="#AA0E21"/>
<path d="M25.7344 35.4663C25.7344 35.7036 25.542 35.896 25.3047 35.896C25.0674 35.896 24.875 35.7036 24.875 35.4663C24.875 35.229 25.0674 35.0366 25.3047 35.0366C25.542 35.0366 25.7344 35.229 25.7344 35.4663Z" fill="#AA0E21"/>
<path d="M23.0652 13.4706C27.4116 13.4706 30.9351 12.2978 30.9351 10.8511V10.2035C30.6058 9.95982 29.8426 9.2368 29.4242 8.29443H16.5526C16.2737 8.91185 15.5315 9.82443 15.1953 10.2035V10.8511C15.1953 12.2978 18.7188 13.4706 23.0652 13.4706Z" fill="#BAF7FF"/>
<path fill-rule="evenodd" clip-rule="evenodd" d="M14.2578 10.2035C14.2578 9.9743 14.3418 9.75301 14.4939 9.5815C14.6459 9.41014 14.8983 9.108 15.1433 8.77872C15.3981 8.43624 15.6024 8.12058 15.6983 7.90846C15.85 7.57271 16.1842 7.35693 16.5526 7.35693H29.4242C29.7948 7.35693 30.1306 7.57527 30.281 7.91401C30.6157 8.66779 31.2529 9.27242 31.4928 9.44998C31.7317 9.62677 31.8726 9.90636 31.8726 10.2035V10.8511C31.8726 11.6237 31.4013 12.2101 30.8964 12.6074C30.3807 13.0132 29.6927 13.3377 28.9261 13.5929C27.3831 14.1065 25.311 14.4081 23.0652 14.4081C20.8194 14.4081 18.7473 14.1065 17.2043 13.5929C16.4377 13.3377 15.7496 13.0132 15.234 12.6074C14.7291 12.2101 14.2578 11.6237 14.2578 10.8511V10.2035ZM16.5526 8.29443H29.4242C29.8426 9.2368 30.6058 9.95982 30.9351 10.2035V10.8511C30.9351 12.2978 27.4116 13.4706 23.0652 13.4706C18.7188 13.4706 15.1953 12.2978 15.1953 10.8511V10.2035C15.5315 9.82443 16.2737 8.91185 16.5526 8.29443Z" fill="#65A6BA"/>
<path d="M30.9353 10.2035V10.8511C30.9353 11.9233 28.9997 12.8451 26.2281 13.2505C25.6132 12.7616 24.875 11.5139 24.5234 10.2035C24.5234 10.2035 26.5622 10.1702 27.6875 9.60959C28.449 9.23021 29.4244 8.29443 29.4244 8.29443C29.8428 9.2368 30.606 9.95982 30.9353 10.2035Z" fill="#8EDFEA"/>
<path d="M29.4995 8.56108C29.4995 9.84311 26.5894 10.8824 22.9997 10.8824C19.41 10.8824 16.5 9.84311 16.5 8.56108C16.5 7.27904 19.41 6.23975 22.9997 6.23975C26.5894 6.23975 29.4995 7.27904 29.4995 8.56108Z" fill="#9CD7DF"/>
<path fill-rule="evenodd" clip-rule="evenodd" d="M27.911 11.0854C26.6094 11.5502 24.8729 11.8199 22.9997 11.8199C21.1265 11.8199 19.39 11.5502 18.0884 11.0854C17.4417 10.8544 16.8519 10.5575 16.406 10.1809C15.9643 9.80804 15.5625 9.26456 15.5625 8.56108C15.5625 7.85759 15.9643 7.31412 16.406 6.94121C16.8519 6.56463 17.4417 6.26774 18.0884 6.03677C19.39 5.57191 21.1265 5.30225 22.9997 5.30225C24.8729 5.30225 26.6094 5.57191 27.911 6.03677C28.5578 6.26774 29.1475 6.56463 29.5935 6.94121C30.0351 7.31412 30.437 7.85759 30.437 8.56108C30.437 9.26456 30.0351 9.80804 29.5935 10.1809C29.1475 10.5575 28.5578 10.8544 27.911 11.0854ZM22.9997 10.8824C26.5894 10.8824 29.4995 9.84311 29.4995 8.56108C29.4995 7.27904 26.5894 6.23975 22.9997 6.23975C19.41 6.23975 16.5 7.27904 16.5 8.56108C16.5 9.84311 19.41 10.8824 22.9997 10.8824Z" fill="#428EA6"/>
<path d="M22.5754 8.4373C22.5754 8.74542 21.876 8.9952 21.0133 8.9952C20.1506 8.9952 19.4512 8.74542 19.4512 8.4373C19.4512 8.12918 20.1506 7.87939 21.0133 7.87939C21.876 7.87939 22.5754 8.12918 22.5754 8.4373Z" fill="#BAF7FF"/>
<path fill-rule="evenodd" clip-rule="evenodd" d="M21.824 8.91428C21.8129 8.9167 21.8016 8.91908 21.7903 8.9214C21.5615 8.96835 21.2962 8.9952 21.0133 8.9952C20.7304 8.9952 20.4651 8.96835 20.2363 8.9214C20.225 8.91908 20.2137 8.9167 20.2026 8.91428C19.7521 8.81641 19.4512 8.6394 19.4512 8.4373C19.4512 8.23519 19.7521 8.05819 20.2026 7.96031C20.2137 7.95789 20.225 7.95552 20.2363 7.9532C20.4651 7.90624 20.7304 7.87939 21.0133 7.87939C21.2962 7.87939 21.5615 7.90624 21.7903 7.9532C21.8016 7.95552 21.8129 7.95789 21.824 7.96031C22.2745 8.05819 22.5754 8.2352 22.5754 8.4373C22.5754 8.6394 22.2745 8.8164 21.824 8.91428ZM22.4332 9.71468C22.0251 9.86042 21.523 9.9327 21.0133 9.9327C20.5036 9.9327 20.0015 9.86042 19.5934 9.71468C19.3934 9.64327 19.1652 9.53637 18.9691 9.37076C18.7773 9.20882 18.5137 8.89731 18.5137 8.4373C18.5137 7.97729 18.7773 7.66577 18.9691 7.50384C19.1652 7.33823 19.3934 7.23133 19.5934 7.15992C20.0015 7.01418 20.5036 6.94189 21.0133 6.94189C21.523 6.94189 22.0251 7.01418 22.4332 7.15992C22.6332 7.23133 22.8614 7.33823 23.0575 7.50384C23.2493 7.66577 23.5129 7.97729 23.5129 8.4373C23.5129 8.89731 23.2493 9.20882 23.0575 9.37076C22.8614 9.53637 22.6332 9.64327 22.4332 9.71468Z" fill="#65A6BA"/>
<path fill-rule="evenodd" clip-rule="evenodd" d="M16.106 10.9185C16.2891 10.7355 16.5859 10.7355 16.769 10.9185C16.8137 10.9633 16.9204 11.0394 17.1098 11.1356C17.2907 11.2274 17.5181 11.3233 17.7768 11.4174C18.2942 11.6054 18.9097 11.7762 19.4738 11.889C19.7276 11.9398 19.8923 12.1867 19.8415 12.4406C19.7907 12.6944 19.5438 12.8591 19.2899 12.8083C18.6821 12.6867 18.0207 12.5035 17.4566 12.2985C17.1745 12.196 16.91 12.0855 16.6853 11.9714C16.4691 11.8616 16.2566 11.732 16.106 11.5815C15.923 11.3984 15.923 11.1016 16.106 10.9185Z" fill="#EBFDFF"/>
<path d="M19.3869 15.3091C18.3266 15.097 17.273 14.7275 16.5362 14.4246C16.2159 14.293 15.8516 14.5244 15.8516 14.8707V24.6058C15.8516 24.7805 15.8971 24.9542 16.0047 25.0918C16.6935 25.9735 18.043 26.5639 19.1318 26.8932C19.69 27.062 20.2168 26.6234 20.2168 26.0403V16.2799C20.2168 15.8016 19.8558 15.4029 19.3869 15.3091Z" fill="#FF495F"/>
<path fill-rule="evenodd" clip-rule="evenodd" d="M17.1406 15.7031C17.3995 15.7031 17.6094 15.913 17.6094 16.1719V22.9688C17.6094 23.2276 17.3995 23.4375 17.1406 23.4375C16.8817 23.4375 16.6719 23.2276 16.6719 22.9688V16.1719C16.6719 15.913 16.8817 15.7031 17.1406 15.7031Z" fill="#FFB5BE"/>
<path d="M22.9534 29.9474C22.9534 30.4604 22.5375 30.8762 22.0245 30.8762C21.5116 30.8762 21.0957 30.4604 21.0957 29.9474C21.0957 29.4344 21.5116 29.0186 22.0245 29.0186C22.5375 29.0186 22.9534 29.4344 22.9534 29.9474Z" fill="white"/>
<path d="M24.2114 32.3977C24.2114 32.7452 23.9297 33.0268 23.5823 33.0268C23.2348 33.0268 22.9531 32.7452 22.9531 32.3977C22.9531 32.0502 23.2348 31.7686 23.5823 31.7686C23.9297 31.7686 24.2114 32.0502 24.2114 32.3977Z" fill="white"/>
<path d="M25.0268 26.8708C25.0268 27.5805 24.4516 28.1557 23.7419 28.1557C23.0323 28.1557 22.457 27.5805 22.457 26.8708C22.457 26.1612 23.0323 25.5859 23.7419 25.5859C24.4516 25.5859 25.0268 26.1612 25.0268 26.8708Z" fill="white"/>
<path d="M22.3995 23.6001C22.3995 24.438 21.7202 25.1172 20.8823 25.1172C20.0445 25.1172 19.3652 24.438 19.3652 23.6001C19.3652 22.7622 20.0445 22.083 20.8823 22.083C21.7202 22.083 22.3995 22.7622 22.3995 23.6001Z" fill="white"/>
<path d="M26.2806 20.2184C26.2806 21.3384 25.3726 22.2464 24.2526 22.2464C23.1326 22.2464 22.2246 21.3384 22.2246 20.2184C22.2246 19.0984 23.1326 18.1904 24.2526 18.1904C25.3726 18.1904 26.2806 19.0984 26.2806 20.2184Z" fill="white"/>
</svg>
