<svg width="35" height="23" viewBox="0 0 35 23" fill="none" xmlns="http://www.w3.org/2000/svg">
<path d="M32.8724 4.9323C31.4193 2.67882 27.4873 1.65838 26.3333 1.53083C25.3931 1.40327 23.2989 1.40327 22.7433 2.46623C22.0594 3.74178 23.2561 5.91022 23.1706 7.35585C23.0852 8.58888 22.5296 10.0345 22.8287 11.2675C23.0424 12.1604 24.1109 12.9683 25.0512 12.9683C25.564 12.9683 26.0769 12.8832 26.5898 12.8407C27.0599 12.7982 27.6583 12.8832 28.0429 12.5856C28.5558 12.2029 28.5985 11.1825 28.8977 10.6298C29.2823 9.90695 29.8807 9.43925 30.6927 9.18414C31.5475 8.92903 34.1974 9.14162 33.9409 7.69599C33.9837 6.76059 33.3426 5.69763 32.8724 4.9323Z" fill="#FE8F18"/>
<path d="M33.8129 6.84553C32.6162 6.59042 31.3341 6.25027 30.2228 6.50538C29.8809 6.59041 29.4535 6.67545 29.0689 6.76049C28.4705 7.10064 27.7012 7.39827 27.0174 7.27071C26.8464 7.27071 26.6755 7.22819 26.5045 7.14315C26.0771 6.97308 25.7352 6.67545 25.6497 6.25027C25.3933 4.50701 25.3078 3.1039 24.3676 1.57324C23.6837 1.7008 23.0427 1.95591 22.7862 2.46613C22.1024 3.74168 23.2991 5.91012 23.2136 7.35575C23.1281 8.58878 22.5725 10.0344 22.8717 11.2674C23.0854 12.1603 24.1539 12.9682 25.0941 12.9682C25.607 12.9682 26.1199 12.8831 26.6328 12.8406C27.1029 12.7981 27.7012 12.8831 28.0859 12.5855C28.5988 12.2028 28.6415 11.1824 28.9407 10.6297C29.3253 9.90685 29.9237 9.43915 30.7357 9.18404C31.5905 8.92893 34.2403 9.14152 33.9839 7.69589C33.9411 7.39827 33.8984 7.14316 33.8129 6.84553Z" fill="#FF8314"/>
<path d="M33.8136 6.97325C32.3605 6.54806 30.7791 6.42051 29.3687 6.97325C28.2575 7.39843 27.8301 8.07873 27.6164 9.1842C27.4454 9.99205 27.2745 10.7999 26.8044 11.5227C26.5479 11.9479 25.9923 12.1605 25.5222 12.0329C25.394 12.0329 25.2658 12.0755 25.394 12.0755C25.1803 12.0755 25.0093 12.0329 24.8384 11.9904C24.8384 11.9904 24.8384 11.9904 24.7956 11.9904C24.0263 11.9479 23.257 11.6928 22.7441 11.0975C22.7441 11.1401 22.7441 11.2251 22.7869 11.2676C23.0006 12.1605 24.0691 12.9683 25.0093 12.9683C25.5222 12.9683 26.0351 12.8833 26.5479 12.8408C27.0181 12.7983 27.6164 12.8833 28.0011 12.5857C28.5139 12.203 28.5567 11.1826 28.8558 10.6298C29.2405 9.90702 29.8388 9.43932 30.6509 9.1842C31.5057 8.92909 34.1555 9.14169 33.8991 7.69606C33.9418 7.48347 33.8991 7.22836 33.8136 6.97325Z" fill="#F58016"/>
<path d="M23.1704 1.148C22.2302 0.552738 21.1189 0.467701 20.0505 0.297628C18.5119 0.0425171 16.9732 0 15.3919 0C12.913 0 10.5196 0.170072 8.21171 1.148C7.14323 1.6157 3.68136 3.95421 4.40793 5.44235L4.7071 5.82502C4.87806 6.08013 4.74984 6.33524 4.9208 6.54784C5.04901 6.71791 5.43367 6.88798 5.60462 7.05805C6.28845 7.65331 6.92954 7.99346 7.69884 8.46116C9.02376 9.26901 10.5196 9.77923 12.0155 10.1619C13.1267 10.417 14.4944 10.7997 15.3919 11.5225C16.0757 12.0752 16.5459 12.9256 17.3152 13.3508C17.828 13.6484 18.4264 13.7334 19.0247 13.776C20.1787 13.8185 21.2472 13.6909 22.3584 13.4783C23.6406 13.2232 24.3244 12.798 24.7945 11.5225C25.3929 9.94931 25.4783 8.29109 25.3074 6.63287C24.9655 4.46443 25.1792 2.42355 23.1704 1.148Z" fill="#FE8F18"/>
<path d="M21.8464 9.31138C19.3675 11.0546 17.6152 5.56976 16.0339 4.25169C14.4952 2.93361 12.7429 2.25332 10.7342 2.50843C9.02463 2.72102 7.31506 3.14621 5.56276 2.97613C4.66524 3.78398 4.02415 4.71939 4.4088 5.4422L4.70797 5.82487C4.87893 6.07998 4.75071 6.33509 4.92167 6.54768C5.04989 6.71775 5.43454 6.88783 5.6055 7.0579C6.28933 7.65316 6.93041 7.99331 7.69972 8.46101C9.02463 9.26886 10.5205 9.77908 12.0164 10.1617C13.1276 10.4169 14.4952 10.7995 15.3928 11.5223C16.0766 12.0751 16.5467 12.9254 17.316 13.3506C17.8289 13.6483 18.4272 13.7333 19.0256 13.7758C20.1796 13.8183 21.248 13.6908 22.3593 13.4782C23.6414 13.2231 24.3253 12.7979 24.7954 11.5223C25.3937 9.94915 25.4792 8.29093 25.3083 6.63272C25.0946 4.5068 25.2655 2.50843 23.2995 1.23288C22.9149 0.977767 22.5302 0.850212 22.1456 0.722656C22.1883 0.765175 22.1883 0.765175 22.231 0.807693C22.9149 1.23288 23.4705 1.78562 23.8551 2.46591C23.8979 2.55095 23.9406 2.59347 24.0261 2.6785C24.4962 3.3588 24.539 4.42176 24.7099 5.22961C24.9236 6.42012 24.7099 8.2059 23.8551 8.97123C23.1713 9.56649 22.7012 9.22634 21.8464 9.31138Z" fill="#FE8519"/>
<path d="M22.572 12.3304C21.0334 13.0958 19.5375 12.0753 19.3665 10.5447C18.7682 9.2266 17.7424 7.39831 17.0159 6.12276C16.2466 4.76217 14.9644 3.61417 13.383 3.18899C11.759 2.7638 9.66474 2.59373 7.99791 3.06143C6.92943 3.35906 5.86095 3.78424 4.79248 3.74172C4.36508 4.33698 4.15139 4.88972 4.36508 5.39994L4.66426 5.78261C4.83522 6.03772 4.707 6.29283 4.87795 6.50542C5.00617 6.67549 5.39082 6.84557 5.56178 7.01564C6.24561 7.6109 6.8867 7.95105 7.656 8.41875C8.98091 9.2266 10.4768 9.73682 11.9727 10.1195C13.0839 10.3746 14.4515 10.7573 15.3491 11.4801C16.0329 12.0328 16.503 12.8832 17.2723 13.3084C17.7852 13.606 18.3835 13.691 18.9819 13.7336C20.1358 13.7761 21.2043 13.6485 22.3155 13.4359C23.5977 13.1808 24.2815 12.7556 24.7517 11.4801C25.35 9.90689 25.4355 8.24868 25.2645 6.59046C25.0508 4.46454 25.2218 2.46617 23.2558 1.19062C23.1276 1.10558 22.9994 1.06306 22.8711 0.978027C22.9994 1.1481 23.0848 1.27566 23.2131 1.44573C24.0251 2.16854 24.6234 2.97639 24.5807 3.99684C24.7944 4.59209 24.8799 5.27239 24.9226 5.9952C24.9654 6.84557 24.9226 7.65342 24.6662 8.41875C24.4952 9.90689 23.9824 11.6076 22.572 12.3304Z" fill="#F58016"/>
<path d="M14.3237 4.59176C10.7336 2.12569 6.28875 3.86894 2.86961 5.82479C1.07457 6.84523 0.0488281 8.67352 0.0488281 10.7144C0.0488281 12.8828 0.647176 14.4135 2.57044 15.604L2.61318 15.434C3.59618 15.6891 4.83561 15.9442 5.86136 15.9442C7.95557 15.9017 10.0071 15.3914 12.0585 15.1363C12.7424 15.0513 13.6826 15.0088 14.3237 15.3914C14.8366 15.7316 14.8366 15.9867 15.5204 15.7316C16.2042 15.4765 17.1445 14.8812 17.7428 14.456C19.3242 13.2655 18.8541 10.842 18.1702 9.3113C17.23 7.27042 16.1615 5.86731 14.3237 4.59176Z" fill="#FE8F18"/>
<path d="M2.61295 5.99512C0.946121 7.05808 0.00585938 8.80133 0.00585938 10.7147C0.00585938 12.8831 0.604208 14.4138 2.52747 15.6043L2.57021 15.4342C3.55321 15.6893 4.79265 15.9444 5.81839 15.9444C7.91261 15.9019 9.96409 15.3917 12.0156 15.1366C12.6994 15.0515 13.6397 15.009 14.2807 15.3917C14.7936 15.7318 14.7936 15.9869 15.4774 15.7318C16.1613 15.4767 17.1015 14.8815 17.6999 14.4563C19.2812 13.2658 18.8111 10.8422 18.1273 9.31155C17.8281 8.67378 17.5289 8.07852 17.187 7.52578C17.3152 8.46118 17.0161 9.43911 16.1185 9.94933C15.221 10.4596 14.067 9.90681 13.2977 9.43911C11.46 8.29111 9.62217 7.65334 7.61343 7.61082C6.71591 7.78089 5.81839 7.78089 4.92086 7.90845C1.71543 8.46118 1.71543 6.84549 2.61295 5.99512Z" fill="#FF7F0D"/>
<path d="M17.6577 13.5632C15.9482 14.7112 14.3668 11.6499 13.6403 10.6295C12.9137 9.56652 11.2469 8.50356 9.75099 8.12089C7.82772 7.61067 6.03268 8.03586 4.19489 8.67363C3.08368 9.0563 1.41685 9.90666 0.562063 8.58859C0.519324 8.54608 0.519325 8.50356 0.476585 8.46104C0.134672 9.18385 -0.0362849 9.94918 0.00645427 10.757C0.00645427 12.9255 0.604802 14.4561 2.52807 15.6466L2.5708 15.4766C3.5538 15.7317 4.79324 15.9868 5.81898 15.9868C7.9132 15.9443 9.96468 15.4341 12.0162 15.1789C12.7 15.0939 13.6403 15.0514 14.2813 15.4341C14.7942 15.7742 14.7942 16.0293 15.478 15.7742C16.1619 15.5191 17.1021 14.9238 17.7005 14.4987C18.5125 13.9034 18.769 12.968 18.769 11.9901C18.6407 12.4578 18.427 12.883 18.0424 13.2231C17.9569 13.3081 17.9142 13.3507 17.8287 13.3932C17.786 13.4782 17.7432 13.5207 17.6577 13.5632Z" fill="#F27C12"/>
<path d="M16.5464 14.5415C15.6916 14.3714 15.2642 14.1588 14.9223 13.436C14.4522 12.4156 13.4692 11.3526 12.5716 10.6298C10.4774 9.01411 7.95581 7.82359 5.47693 8.50389C2.99806 9.18418 2.69889 9.94951 2.22876 10.3322C1.58767 10.9274 1.0748 12.9258 0.0917969 11.8203C0.305493 13.436 0.946581 14.6265 2.52793 15.6045L2.57067 15.4344C3.55367 15.6895 4.79311 15.9446 5.81885 15.9446C7.91307 15.9021 9.96455 15.3919 12.016 15.1368C12.6999 15.0517 13.6401 15.0092 14.2812 15.3919C14.7941 15.732 14.7941 15.9871 15.4779 15.732C16.1617 15.4769 17.102 14.8816 17.7003 14.4565C17.7858 14.3714 17.914 14.2864 17.9995 14.2014C17.8713 14.2864 17.7431 14.3714 17.5721 14.4139C17.4012 14.499 17.2302 14.5415 17.0592 14.5415C16.8883 14.584 16.7173 14.584 16.5464 14.5415Z" fill="#DB6709"/>
<path d="M5.81825 8.75879C5.73277 8.75879 5.64729 8.75879 5.56181 8.80131C5.51907 8.80131 5.47633 8.80131 5.43359 8.84382L5.81825 8.75879Z" fill="#F09330"/>
<path d="M8.55454 9.09893C7.5288 8.75878 6.58854 8.50367 5.5628 8.80129C5.64828 8.80129 5.73376 8.75878 5.81924 8.75878L5.43458 8.80129C5.47732 8.80129 5.52006 8.8013 5.5628 8.75878C3.81049 8.97137 2.14367 10.4595 1.84449 12.1603C1.45984 14.2437 2.14367 16.3696 2.95571 18.2829C3.34036 19.2183 4.23789 20.1962 5.22089 20.4939C6.67402 20.919 8.89646 20.0687 10.3923 19.771C12.1874 19.3884 15.3073 19.686 15.692 17.39C15.9912 15.5192 14.9654 13.3508 13.726 11.9477C12.3583 10.4595 10.3496 9.65167 8.55454 9.09893Z" fill="#FE8F18"/>
<path d="M3.63931 9.56675C2.69905 10.2045 1.97248 11.1399 1.80152 12.2029C1.41687 14.2863 2.1007 16.4122 2.91274 18.3255C3.2974 19.2609 4.19492 20.2389 5.17792 20.5365C6.63105 20.9617 8.85349 20.1113 10.3494 19.8137C12.1444 19.431 15.2644 19.7286 15.649 17.4327C15.9482 15.5618 14.9225 13.3934 13.683 11.9903C13.2129 11.4801 12.6573 11.0549 12.1017 10.6722C12.4863 11.225 12.7428 11.8202 12.6573 12.5005C12.5718 13.0107 12.1444 13.606 11.5033 13.5635C9.92197 13.4359 8.38336 13.4784 6.88749 13.9036C6.75927 13.9461 6.63105 13.9887 6.50283 14.0312C6.2464 14.1587 6.0327 14.2863 5.77627 14.3713C5.2634 14.5839 4.66505 14.669 4.10944 14.4989C3.76753 14.3713 3.51109 14.1587 3.25466 13.9036C2.91274 13.606 2.74179 13.2233 2.69905 12.7981C2.44261 11.6927 2.82726 10.2896 3.63931 9.56675Z" fill="#FF8416"/>
<path d="M14.7942 14.6688C14.4523 14.4137 12.1444 13.5633 11.3751 13.5633C9.83649 13.6058 7.91323 13.6483 6.58831 14.5837C5.56257 15.3066 4.2804 16.1994 3.0837 15.2215C2.18618 14.4562 1.887 13.2657 1.84426 12.1177C1.84426 12.1602 1.84426 12.2027 1.80152 12.2452C1.41687 14.3286 2.1007 16.4546 2.91274 18.3679C3.2974 19.3033 4.19492 20.2812 5.17792 20.5788C6.63105 21.004 8.85349 20.1537 10.3494 19.856C12.1444 19.4734 15.2644 19.771 15.649 17.475C15.6918 17.1348 15.7345 16.8372 15.6918 16.4971C15.6918 16.7522 15.4353 15.094 14.7942 14.6688Z" fill="#F58016"/>
<path d="M14.0254 14.8389C14.0681 14.8814 14.1109 14.9239 14.1536 14.9664L14.0254 14.8389Z" fill="#F09330"/>
<path d="M10.2215 14.2013C8.38369 14.2438 6.80234 14.9667 5.60564 16.3272C4.87908 17.1776 4.15251 18.4532 4.87908 19.5161C5.52017 20.409 6.88782 21.1318 7.9563 21.472C10.136 22.1523 12.5294 23.1727 14.88 22.9176C15.9485 22.79 17.6154 22.0672 17.5299 20.7917C17.3589 18.4957 14.3672 15.3493 14.068 14.8391C13.1705 14.1163 11.2472 14.2013 10.2215 14.2013Z" fill="#FE8F18"/>
<path d="M11.5462 14.286C11.5889 14.286 11.5889 14.2435 11.6316 14.2435C11.076 14.201 10.5632 14.2435 10.1785 14.2435C8.34072 14.286 6.75937 15.0088 5.56267 16.3694C4.83611 17.2198 4.10954 18.4953 4.83611 19.5583C5.4772 20.4512 6.84485 21.174 7.91333 21.5142C10.093 22.1944 12.4864 23.2149 14.8371 22.9598C15.9056 22.8322 17.5724 22.1094 17.4869 20.8339C17.4869 20.6638 17.4442 20.4937 17.4014 20.3236C17.3587 20.7063 17.2305 21.1315 16.9313 21.4716C16.1193 22.407 14.6661 22.4496 13.5549 22.2795C11.2042 21.9393 7.40046 20.7488 6.71663 18.1552C6.03281 15.5616 9.23824 14.3285 11.5462 14.286Z" fill="#FC8318"/>
<path d="M27.9999 12.2026C28.2991 12.7979 28.4273 12.7129 29.1966 13.138C29.9659 13.5632 30.4788 14.0309 31.3763 14.201C32.1456 14.3711 33.2141 14.4561 33.8125 13.9034C34.3681 13.3506 34.7527 12.3302 34.8809 11.6074C35.2228 9.43895 34.1116 7.27051 31.761 7.27051C30.3078 7.27051 29.2821 7.65317 28.5555 8.92873C28.1281 9.73658 27.5298 11.3098 27.9999 12.2026Z" fill="#FE8F18"/>
<path d="M30.2667 7.44092C29.5828 7.65351 28.9845 8.12121 28.5571 8.88654C28.087 9.73691 27.4886 11.2676 28.0015 12.1605C28.3007 12.7557 28.4289 12.6707 29.1982 13.0959C29.9675 13.521 30.4804 13.9888 31.3779 14.1588C32.1472 14.3289 33.2157 14.4139 33.814 13.8612C34.3696 13.3085 34.7543 12.288 34.8825 11.5652C34.9252 11.2676 34.968 11.0125 34.9252 10.7148C34.7115 11.1825 34.3696 11.6077 33.8995 11.8628C33.3012 12.1605 32.6173 12.4156 31.9335 12.3305C31.2497 12.2455 30.7368 11.8628 30.2239 11.4376C29.2409 10.5873 29.07 9.14165 29.7538 8.03618C29.882 7.82358 30.053 7.61099 30.2667 7.44092Z" fill="#FC8318"/>
<path d="M5.13541 13.9886C5.34911 14.0311 5.69102 13.776 5.86198 13.6484C6.24663 13.4358 6.50307 13.2233 6.9732 13.1807C7.48607 13.1382 7.91346 13.1807 8.42633 13.0957C8.68276 13.0532 9.83672 13.1807 9.96494 13.0107C10.6488 12.1178 8.08441 11.9902 7.91346 11.9052C7.35785 11.6501 7.65702 11.2674 8.04168 11.0548C8.46907 10.7572 8.9392 10.9273 8.81098 10.332C8.64002 9.48163 7.78524 9.09896 7.05867 9.05644C6.33211 9.01393 5.17815 9.05645 4.49432 9.35408C4.15241 9.43911 3.93871 9.77926 3.8105 10.0769C3.63954 10.5446 3.93871 10.8422 3.93871 11.3524C3.93871 11.7776 3.5968 12.2878 3.8105 12.6705C4.02419 13.0957 4.5798 13.1382 4.83624 13.5209C5.04993 13.7335 4.70802 13.9035 5.13541 13.9886Z" fill="#FD9B0E"/>
<path d="M10.3928 18.3681C10.6065 18.6232 10.7774 18.9209 10.9056 19.176C10.9484 19.2185 10.9911 19.2185 10.9911 19.261C11.333 19.261 11.675 19.261 12.0169 19.261C12.658 19.3035 13.641 19.4736 14.2393 19.0909C14.8377 18.7083 14.3248 17.5603 14.1111 17.0075C13.8547 16.965 13.5982 17.0075 13.3845 16.88C12.8717 16.6249 13.1281 16.4548 13.0426 16.0296C12.9144 15.5619 13.0426 15.3493 12.4443 15.3493C12.0169 15.3493 11.333 15.732 11.333 15.3493C11.333 14.584 9.75169 14.8391 9.1106 15.3918C8.59773 15.732 7.48651 16.4973 7.74295 16.965C7.99938 17.4327 9.58073 17.3477 10.0509 17.3477C10.0081 18.028 10.0509 17.9429 10.3928 18.3681Z" fill="#FD9B0E"/>
<path d="M14.624 5.31466C12.7863 3.65645 9.40986 3.52889 7.18743 4.20919C7.23016 4.20919 7.2729 4.20919 7.31564 4.20919L7.01647 4.2517C7.05921 4.2517 7.14469 4.20919 7.18743 4.20919C6.80277 4.2517 6.16168 4.54933 5.90525 4.80444C5.43512 5.27214 6.16168 5.27214 5.90525 5.78237C5.73429 6.07999 3.3409 6.71777 4.49486 7.27051C4.87951 7.44058 5.73429 7.22799 6.07621 7.14295C6.33264 7.10044 6.5036 7.0154 6.76003 7.0154C7.05921 7.0154 7.10195 7.14296 7.31564 7.18547C8.4696 7.39807 9.62356 6.88784 10.8203 7.44058C11.2904 7.65318 11.675 7.90829 12.1452 8.07836C12.5298 8.24843 13.5983 8.88621 13.2991 8.12088C13.1709 7.73821 12.4871 7.27051 12.1879 6.97288C11.8033 6.5477 11.4613 6.37762 11.0767 6.12251C11.6323 5.82489 12.4016 6.63273 12.9145 6.80281C13.7693 7.14296 13.9402 6.16503 13.1709 5.99496C13.1282 5.82488 13.1282 5.61229 13.1282 5.48474C13.641 5.22963 14.3249 5.82488 14.624 5.31466Z" fill="#FD9B0E"/>
<path d="M7.3148 4.20947C7.27206 4.20947 7.22932 4.20947 7.18658 4.20947C7.14384 4.20947 7.05836 4.25221 7.01562 4.25221L7.3148 4.20947Z" fill="#FFB140"/>
<path d="M18.6404 4.33712C19.6234 3.65683 19.9226 4.63475 20.8201 4.9749C21.504 4.9749 21.2903 4.37964 21.8459 3.99698C22.5297 4.0395 22.7861 5.78275 23.299 5.78275C23.9401 5.78275 23.8119 4.37964 23.5982 3.86942C23.3845 3.27416 23.2563 2.76394 22.9998 2.2112C22.6579 1.53091 21.8031 1.10573 21.0338 1.23328C20.8201 1.2758 20.8629 1.40335 20.5637 1.36084C20.4782 1.36084 20.2645 1.19076 20.1791 1.14824C19.8799 0.935651 19.6662 0.808096 19.2815 0.723059C18.8541 0.638022 18.2558 0.595504 17.8284 0.595504C17.3583 0.638023 17.0591 0.978171 16.589 0.978171C16.3753 0.978171 16.1616 0.850615 15.9051 0.808096C15.606 0.765578 15.3068 0.808096 15.0076 0.808096C14.5375 0.765578 14.1101 0.723061 13.64 0.638024C13.2126 0.552987 12.6997 0.425431 12.2296 0.552987C11.7167 0.680542 11.7167 1.23328 11.2038 1.2758C10.691 1.31832 10.4773 0.893134 9.92165 1.10573C9.49426 1.2758 9.19508 1.53091 9.15234 1.99861L9.19508 1.82854C9.15234 1.95609 9.19508 2.12617 9.19508 2.25372C10.0071 2.08365 10.52 1.91357 11.3748 2.08365C12.1013 2.25372 12.9134 2.50883 13.64 2.63639C14.4947 2.80646 14.9221 2.80646 15.606 3.44424C16.1188 3.95446 16.9309 4.63475 16.8027 4.42216C17.0164 4.59224 17.3155 4.93238 17.572 5.01742C17.8711 5.10245 17.8711 5.01742 18.213 4.88986C18.0421 4.54972 18.384 3.78438 18.6404 4.33712Z" fill="#FD9B0E"/>
<path d="M24.9668 1.99879C25.0095 1.95605 25.0095 1.95605 24.9668 1.95605V1.99879Z" fill="#FFB140"/>
<path d="M29.9245 6.03753C30.3947 6.20761 31.1212 6.08005 31.5914 6.12257C32.1042 6.16509 32.6171 6.25012 33.13 6.29264C33.2155 5.86746 32.7453 5.61235 32.4462 5.39976C32.0615 5.10213 31.5059 4.93206 31.164 4.63443C32.0615 4.46435 30.5229 3.61398 30.2665 3.44391C29.9245 3.23132 29.5826 3.14628 29.198 3.10376C28.7706 3.01873 28.6424 2.89117 28.3432 2.59354C27.9158 2.0408 27.061 2.16836 26.4199 2.0408C25.9925 1.99828 25.5224 1.53058 25.095 1.78569C25.0523 1.82821 24.9668 1.95576 24.9668 1.99828C25.4797 3.01873 25.4369 4.1242 25.9498 5.14465C26.249 5.10213 26.2917 4.63443 26.5909 4.50687C26.8046 4.88954 27.232 4.54939 27.5311 4.8045C27.7021 4.97457 27.6166 5.10213 27.6594 5.31472C27.7448 5.56983 27.8731 5.48479 28.1295 5.39976C28.6424 5.31472 29.2835 5.35724 29.7963 5.48479C29.8818 5.52731 30.2665 5.61235 30.2665 5.7399C30.3092 5.82494 30.01 5.9525 29.9245 6.03753Z" fill="#FD9B0E"/>
<path d="M30.9492 7.73854L31.1629 7.6958C31.1202 7.6958 31.0347 7.6958 30.9492 7.73854Z" fill="#FFB140"/>
<path d="M33.6419 7.99349C33.5564 7.78089 33.0008 7.73838 32.7871 7.69586C32.1033 7.5683 31.5477 7.69586 30.8639 7.73838C30.5647 7.82341 30.2228 8.07852 30.3083 8.29112C30.522 8.75882 31.334 8.29112 31.0776 9.01393C30.9066 9.39659 31.163 9.69422 31.2485 10.1194C31.4195 10.9698 32.317 10.5021 32.8299 10.8422C32.4452 11.6076 33.7274 10.8847 33.8556 10.5021C33.9838 10.1619 33.8983 9.82178 33.7274 9.52415C33.5992 9.22652 33.0436 8.80134 33.3 8.41867C33.4282 8.2486 33.7701 8.2486 33.6419 7.99349Z" fill="#FD9B0E"/>
<path d="M6.97266 6.29269C7.22909 6.5478 7.65648 6.2927 7.9984 6.46277C8.38305 6.63284 8.25483 6.88795 8.85318 6.88795C9.53701 6.84543 9.40879 6.7604 9.40879 6.25018C9.45153 5.69744 9.53701 5.65492 10.0926 5.35729C10.691 5.01714 11.9304 4.76203 10.6055 4.29433C10.1354 4.12426 9.40879 4.08174 8.68222 4.29433C8.16935 4.29433 7.69922 4.4644 7.40005 4.93211C7.74196 5.18722 7.9984 5.18722 7.74196 5.56988C7.571 5.86751 7.14361 5.95255 6.97266 6.29269Z" fill="#FFB525"/>
<path d="M5.1349 12.075C5.3486 12.7128 5.90421 12.3726 6.37434 12.5427C6.63077 12.6277 6.58803 12.7978 6.88721 12.8829C7.1009 12.9254 7.5283 12.7978 7.74199 12.7128C7.57103 11.8624 6.07516 11.9049 6.50255 10.927C6.58803 10.7144 6.80173 10.7569 6.80173 10.4593C6.80173 10.3743 6.50255 9.9916 6.41708 9.90657C6.07516 9.48138 6.03242 9.56642 5.51955 9.60894C4.79299 9.73649 5.04942 10.2892 5.22038 10.6719C5.47681 11.3097 4.9212 11.4798 5.1349 12.075Z" fill="#FFB525"/>
<path d="M17.2738 2.80617C17.4447 2.80617 17.6157 2.67861 17.7866 2.67861C18.0431 2.6361 18.1713 2.76365 18.4277 2.76365C18.8551 2.76365 19.197 2.38099 19.6244 2.38099C20.0945 2.38099 20.3082 2.67861 20.6929 2.89121C21.2058 3.14632 21.3767 2.89121 21.8896 2.89121C22.2315 2.89121 22.8726 3.14632 22.4452 2.46602C22.1888 2.04084 21.7186 2.16839 21.2912 2.12588C20.7356 2.08336 20.5219 1.91328 20.0091 1.70069C19.368 1.44558 18.7269 1.74321 18.0858 1.78573C17.4447 1.82825 16.7609 1.78573 16.1198 1.74321C15.4787 1.65817 14.8804 1.4881 14.1965 1.44558C13.8974 1.44558 12.3588 1.27551 12.8289 1.82825C13.47 2.12588 14.1538 2.16839 14.7521 2.59358C15.1368 2.84869 16.1625 3.52898 15.9916 2.50854C16.2908 2.72113 16.8464 2.80617 17.2738 2.80617Z" fill="#FFB525"/>
<path d="M25.8645 3.44412C26.0355 3.95434 26.121 3.69923 26.5911 3.57167C26.933 3.48664 27.3177 3.31656 27.5741 3.57167C27.6596 3.65671 27.5741 3.91182 27.7023 4.03938C27.8733 4.20945 28.087 4.16693 28.2152 4.25197C28.5144 4.46456 28.5571 4.76219 28.899 4.93226C29.1555 5.05982 29.6256 5.18737 29.9248 5.14485C30.6086 5.0173 30.1812 5.61256 30.6513 5.69759C30.9932 5.78263 31.4634 5.78263 31.848 5.74011C31.9762 4.71967 30.1812 5.05982 30.3949 4.08189C29.9248 3.91182 29.4546 3.8693 28.9845 3.74175C29.07 3.27404 28.5571 3.4016 28.3007 3.23153C28.0442 3.06145 28.0015 2.89138 27.7451 2.67879C27.3177 2.29612 26.4202 2.21108 25.9073 2.2536C25.8218 2.38116 25.8218 2.46619 25.9073 2.59375L25.7363 2.46619C26.0355 2.63627 25.7363 3.10397 25.8645 3.44412Z" fill="#FFB525"/>
<path d="M31.6755 8.58876C31.7182 8.71631 31.9746 8.71632 32.0174 8.88639C32.0601 9.01394 31.9746 9.1415 32.0174 9.26905C32.0601 9.48164 31.8892 9.48165 32.1029 9.73676C32.2738 9.94935 32.6585 9.52416 32.6157 10.0344C33.2141 9.82179 32.6157 9.09898 32.2738 8.92891C33.2568 8.88639 32.5302 8.29113 31.8892 8.16357C31.5472 8.20609 31.59 8.37617 31.6755 8.58876Z" fill="#FFB525"/>
<path d="M8.93945 16.3269C9.40958 16.5821 9.83698 16.1569 10.3071 16.3695C10.4781 16.4545 10.7772 16.7521 10.9055 16.9222C11.1192 17.1773 11.0764 17.0923 11.2046 17.3899C11.5038 18.0702 11.5038 17.9852 12.2304 18.1552C12.6578 18.2403 13.0852 18.5804 13.5125 18.708C14.7092 17.3899 10.6063 16.9222 11.6748 15.8167C11.3328 15.7317 10.5635 16.0293 10.7345 15.3915C10.2216 15.349 9.92245 15.4766 9.49506 15.6467L9.5378 15.6892C9.28137 15.8167 8.98219 16.0293 8.93945 16.3269Z" fill="#FFB525"/>
</svg>
