<svg width="32" height="27" viewBox="0 0 32 27" fill="none" xmlns="http://www.w3.org/2000/svg">
<path d="M29.1875 9.92634C29.1875 12.035 22.9978 13.7443 15.3618 13.7443C7.72633 13.7443 1.05791 13.1836 1.05791 11.075C1.05791 8.96648 7.72646 6.1084 15.3618 6.1084C22.9978 6.10852 29.1875 7.81784 29.1875 9.92634Z" fill="#DF8824"/>
<path opacity="0.75" d="M29.1875 9.92634C29.1875 12.035 22.9978 13.7443 15.3618 13.7443C7.72633 13.7443 1.05791 13.1836 1.05791 11.075C1.05791 8.96648 7.72646 6.1084 15.3618 6.1084C22.9978 6.10852 29.1875 7.81784 29.1875 9.92634Z" fill="#7B3E05"/>
<path d="M30.6918 18.003C29.3362 19.679 23.1278 20.9457 15.6697 20.9457C8.0982 20.9457 1.81538 19.6401 0.590118 17.9263C0.209064 18.3705 0.000827789 18.8991 0.000827789 19.5338C0.000827789 21.6763 6.97478 23.4132 15.5777 23.4132C24.1803 23.4133 31.1543 21.6765 31.1543 19.5341C31.1543 18.9357 30.9922 18.4311 30.6918 18.003Z" fill="#FFF974"/>
<path d="M30.4883 18.6466C30.4884 19.0565 30.105 19.4623 29.3601 19.841C28.6151 20.2197 27.5232 20.5638 26.1467 20.8536C24.7702 21.1434 23.136 21.3733 21.3374 21.5302C19.5389 21.687 17.6112 21.7678 15.6644 21.7678C13.7177 21.7678 11.79 21.687 9.99143 21.5302C8.19287 21.3733 6.55867 21.1434 5.18214 20.8536C3.80561 20.5638 2.71371 20.2197 1.96877 19.841C1.22384 19.4623 0.840473 19.0565 0.840555 18.6466C0.840473 18.2367 1.22384 17.8308 1.96877 17.4522C2.71371 17.0735 3.80561 16.7294 5.18214 16.4396C6.55867 16.1497 8.19287 15.9198 9.99143 15.763C11.79 15.6061 13.7177 15.5254 15.6644 15.5254C17.6112 15.5254 19.5389 15.6061 21.3374 15.763C23.136 15.9198 24.7702 16.1497 26.1467 16.4396C27.5232 16.7294 28.6151 17.0735 29.3601 17.4522C30.105 17.8308 30.4884 18.2367 30.4883 18.6466Z" fill="#F27F21"/>
<path d="M27.8379 18.7244C27.8379 18.9312 27.5883 19.136 27.1033 19.3271C26.6183 19.5182 25.9074 19.6918 25.0113 19.8381C24.1152 19.9843 23.0513 20.1004 21.8804 20.1795C20.7096 20.2587 19.4547 20.2994 18.1873 20.2994C16.92 20.2994 15.6651 20.2587 14.4942 20.1795C13.3234 20.1004 12.2595 19.9843 11.3634 19.8381C10.4672 19.6918 9.75637 19.5182 9.27139 19.3271C8.7864 19.136 8.53679 18.9312 8.53679 18.7244C8.53679 18.3067 9.55354 17.9061 11.3634 17.6107C13.1732 17.3153 15.6279 17.1494 18.1873 17.1494C20.7468 17.1494 23.2015 17.3153 25.0113 17.6107C26.8211 17.9061 27.8379 18.3067 27.8379 18.7244Z" fill="#7B3E05"/>
<path d="M30.2939 15.1358C30.2947 15.1463 30.2939 15.1249 30.2939 15.1358C30.2939 16.8326 23.2046 18.2407 15.2331 18.2407C7.26158 18.2407 0.919176 16.6001 0.799496 15.1678C0.793549 15.0972 0.814928 15.0263 0.83732 14.9565C0.186293 15.55 0.000827789 16.2276 0.000827789 16.948C0.000827789 19.2906 6.97478 21.19 15.5776 21.19C24.1803 21.1901 31.1543 19.2908 31.1543 16.9481C31.1543 16.2994 31.0409 15.8924 30.2939 15.1358Z" fill="#F1FF99"/>
<path d="M15.9148 23.396C9.15178 23.396 3.12566 22.4085 0.665007 20.6581C0.665007 20.6519 0.665007 20.664 0.665007 20.6581C0.665007 25.6365 6.96857 27 15.792 27C24.6153 27 30.5391 25.6558 30.5391 20.8302C30.5391 20.7804 30.5336 20.7305 30.531 20.6807C27.8773 22.2889 22.3305 23.396 15.9148 23.396Z" fill="#F1942E"/>
<path d="M30.293 15.3587C30.293 17.0554 23.6477 18.4312 15.45 18.4312C7.25244 18.4312 0.0868244 16.4813 0.836277 14.9568C1.67037 13.2595 7.25244 12.2856 15.45 12.2856C23.6477 12.2856 30.293 13.6614 30.293 15.3587Z" fill="#D0640D"/>
<path d="M27.6543 15.4873C27.6543 16.3569 23.3332 17.0621 18.0039 17.0621C12.6739 17.0621 8.35331 16.3569 8.35331 15.4873C8.35331 14.6175 12.6739 13.9126 18.0039 13.9126C23.3332 13.9126 27.6543 14.6175 27.6543 15.4873Z" fill="#7B3E05"/>
<path d="M16.592 8.49085C16.592 8.49085 7.319 8.12323 1.97047 10.5672C1.97047 10.5672 0.113029 11.2777 0.493071 13.3778C0.872732 15.4779 1.1689 16.3708 4.24123 15.6991C7.31356 15.0273 18.9886 14.355 21.3233 14.355C23.6583 14.355 26.5326 12.8642 26.0549 10.6899C25.5771 8.51563 16.592 8.49085 16.592 8.49085Z" fill="url(#paint0_linear_1801_11820)"/>
<path d="M2.88765 10.0791C2.88765 10.0791 4.57532 10.6575 5.1612 11.7896C5.74707 12.9217 7.60742 12.7197 7.60742 11.5216C7.60742 10.3235 5.81184 9.354 5.81184 9.354L5.05429 9.52958C5.05429 9.52958 6.39038 10.3844 6.39038 10.9342C6.39038 11.484 6.20605 11.3008 5.71456 10.812C5.22281 10.3234 4.13519 9.77558 4.13519 9.77558L2.88765 10.0791Z" fill="#FFF5D6"/>
<path opacity="0.25" d="M0.773876 12.8278C1.37329 13.9935 5.29439 13.7452 9.83527 12.9109C14.4533 12.0623 25.1335 12.3946 24.5344 11.2294C23.935 10.0637 12.4374 8.2835 7.794 8.94014C3.15001 9.59664 0.175604 11.6623 0.773876 12.8278Z" fill="#FEFEAA"/>
<path d="M12.4797 10.0213C12.4797 10.0213 14.2496 10.133 14.2535 11.2128C14.2535 11.2128 14.3417 9.70752 11.9707 9.70752L12.4797 10.0213Z" fill="#7B3E05"/>
<path opacity="0.29" d="M29.5234 10.0107C29.5234 11.7717 23.5551 10.0109 16.1928 10.0109C8.8307 10.0109 2.86214 11.7717 2.86214 10.0107C2.86214 8.24973 8.8307 6.82227 16.1929 6.82227C23.5554 6.82227 29.5234 8.24973 29.5234 10.0107Z" fill="#7B3E05"/>
<path d="M17.881 0C25.231 0 29.5328 3.77832 29.049 9.52253C27.4012 7.88427 21.4018 7.16752 16.7134 7.16752C10.2762 7.16752 3.80884 8.45752 1.05746 11.0751C1.29771 5.47154 6.25241 1.22938 13.0709 0.332908C13.0709 0.332908 14.6566 0 17.881 0Z" fill="#FF9D3C"/>
<path d="M20.9543 9.83458C20.9543 9.83458 13.888 10.1402 12.3516 9.77358C10.8154 9.40709 7.38379 9.96814 7.38379 12.5891C7.38379 15.21 9.95513 16.9207 17.6362 16.3707C25.3169 15.8209 30.6016 16.0044 30.6016 13.0722C30.6016 9.1016 29.6797 9.40709 20.9543 9.83458Z" fill="url(#paint1_linear_1801_11820)"/>
<path opacity="0.7" d="M11.8591 11.3618C11.8591 11.3618 11.5451 16.9152 14.4414 14.5001C14.4414 14.5001 12.1456 16.2894 11.8591 11.3618Z" fill="#7B3E05"/>
<path d="M14.9107 9.94878L11.9693 9.70769C11.9693 9.70769 14.2555 9.50344 14.2555 11.301C14.2555 13.7318 13.0879 14.3954 13.0879 12.8282C13.0879 12.8282 13.5542 10.3135 11.9691 9.70769L10.371 9.76076C10.371 9.76076 11.859 9.83509 11.859 11.6065C11.859 13.378 12.228 15.2159 14.0251 14.7094C15.8223 14.2025 15.6524 10.686 14.9107 9.94878Z" fill="#FFFFCC"/>
<path opacity="0.74" d="M17.5895 10.9346C17.5895 10.9346 17.1853 15.5972 17.5952 16.0047C18.0046 16.4116 19.9108 15.9863 20.4531 13.2263C20.4531 13.2263 19.5206 15.0884 19.0905 14.0702C18.6603 13.052 17.5895 10.9346 17.5895 10.9346Z" fill="#7B3E05"/>
<path d="M20.313 9.85889C20.313 9.85889 21.5649 13.1367 19.4788 15.2099C18.1203 16.5607 17.5737 12.8889 17.5737 11.8504C17.5737 10.812 17.7031 9.93158 17.2079 9.93988H18.5572C18.5572 9.93988 18.9258 10.5975 18.9258 11.4839C18.9258 12.3703 18.9258 14.5993 19.4788 12.8279C20.0318 11.0566 19.3555 9.89159 19.3555 9.89159L20.313 9.85889Z" fill="#FFF5D6"/>
<path opacity="0.68" d="M23.1052 11.7285C23.1052 11.7285 23.4126 15.7193 24.3548 15.6175C25.2969 15.5158 25.8809 13.6186 25.8809 13.4982C25.8807 13.3778 23.373 13.2562 23.1052 11.7285Z" fill="#7B3E05"/>
<path d="M22.3704 9.76353C22.3704 9.76353 23.105 9.83459 23.105 11.7283C23.105 13.622 25.2651 17.6001 25.9337 13.1827C25.9337 13.1827 26.3911 10.5643 25.71 9.60645L24.6858 9.65072C24.6858 9.65072 25.1941 10.0957 25.1941 12.217C25.1941 13.561 24.3337 12.5224 24.3337 11.7283C24.3337 10.9342 24.0162 9.68077 23.5897 9.7019L22.3704 9.76353Z" fill="#FFF5D6"/>
<path opacity="0.18" d="M29.5454 10.6785C29.4222 9.48844 26.0255 9.54177 21.9118 10.148C17.7283 10.7646 8.80914 9.90599 8.93211 11.0959C9.0552 12.2855 18.1904 14.6257 22.3318 14.2015C26.4739 13.7773 29.6684 11.8681 29.5454 10.6785Z" fill="#FFFFD6"/>
<path opacity="0.6" d="M7.91758 8.04626C4.9691 8.69422 2.50175 9.70149 1.05813 11.075C1.29837 5.47141 6.25307 1.22926 13.0715 0.332782C13.0715 0.332782 14.6571 0 17.8816 0C19.1581 0 20.3403 0.116461 21.4238 0.33492C13.0715 0.332782 3.36911 3.53798 7.91758 8.04626Z" fill="#E97E04"/>
<path d="M22.4369 26.1263C23.8145 26.1263 25.1516 25.9927 26.4277 25.7412C23.8461 26.6678 20.1776 27.0002 15.792 27.0002C6.96861 27.0002 0.665052 25.6366 0.665052 20.6582C2.66406 22.0803 7.01606 22.9985 12.2049 23.2933C14.9859 25.0632 18.5504 26.1263 22.4369 26.1263Z" fill="#F3872F"/>
<path opacity="0.4" d="M0.00111771 16.948C0.00111771 16.2276 0.186709 15.55 0.837611 14.9565C0.815218 15.0263 0.793839 15.097 0.799785 15.1678C0.875818 16.0769 3.45868 17.0693 7.37295 17.6735C8.39668 19.8604 10.0132 21.7886 12.0527 23.3134C5.14786 22.9156 0.000739098 21.3746 0.000739098 19.5339C0.000739098 18.9462 0.181397 18.4505 0.510075 18.0273C0.178361 17.6826 0.00111771 17.321 0.00111771 16.948Z" fill="#FF8A05"/>
<path opacity="0.23" d="M13.086 4.76305C13.086 6.556 16.0408 4.76305 19.6856 4.76305C23.3304 4.76305 26.2852 6.556 26.2852 4.76305C26.2852 2.9701 24.7124 1.5166 21.0676 1.5166C17.4228 1.5166 13.086 2.9701 13.086 4.76305Z" fill="#FFF0DA"/>
<path opacity="0.6" d="M22.4849 2.31142C21.3372 2.20452 20.3671 2.53856 20.3182 3.0571C20.2694 3.57577 21.1603 3.45403 22.308 3.5608C23.4558 3.66771 24.4259 3.96263 24.4746 3.44397C24.5236 2.9253 23.6327 2.41833 22.4849 2.31142Z" fill="white"/>
<path d="M15.5776 20.0581C23.6299 20.0581 30.2548 18.3942 31.0697 16.2602C31.1361 16.4759 31.1543 16.6933 31.1543 16.948C31.1543 19.2907 24.1803 21.19 15.5776 21.19C6.97478 21.19 0.000827789 19.2907 0.000827789 16.948C0.000827789 16.7044 0.0228386 16.4661 0.0759735 16.2339C0.846809 18.3805 7.49259 20.0581 15.5776 20.0581Z" fill="#834609"/>
<path d="M17.9329 24.683C18.0379 25.1756 21.0689 26.2406 24.3797 25.5437C27.6903 24.847 30.0273 22.6523 29.9224 22.1597C29.8174 21.6671 27.3104 23.0631 23.9998 23.7598C20.6889 24.4566 17.828 24.1903 17.9329 24.683Z" fill="#FAB76D"/>
<defs>
<linearGradient id="paint0_linear_1801_11820" x1="14.2241" y1="8.58953" x2="14.3607" y2="15.2181" gradientUnits="userSpaceOnUse">
<stop stop-color="#FF6433"/>
<stop offset="0.18" stop-color="#FE5E3B"/>
<stop offset="0.695" stop-color="#FC2D1F"/>
<stop offset="0.855" stop-color="#FD3D30"/>
<stop offset="1" stop-color="#E31B1B"/>
</linearGradient>
<linearGradient id="paint1_linear_1801_11820" x1="19.8516" y1="9.70402" x2="19.9804" y2="15.8261" gradientUnits="userSpaceOnUse">
<stop stop-color="#FF6433"/>
<stop offset="0.18" stop-color="#FE5E3B"/>
<stop offset="0.695" stop-color="#FC2D1F"/>
<stop offset="0.855" stop-color="#FD3D30"/>
<stop offset="1" stop-color="#E31B1B"/>
</linearGradient>
</defs>
</svg>
