<svg width="40" height="19" viewBox="0 0 40 19" fill="none" xmlns="http://www.w3.org/2000/svg">
<path d="M16.2343 10.2465L28.1985 16.6706C28.1985 16.6706 31.2274 19.0986 32.8428 16.2154C32.8428 16.2154 35.3417 15.0014 33.3476 12.2698C31.3536 9.5383 22.8474 0.939049 16.7896 4.5305C13.483 5.94685 14.9369 9.55348 16.2343 10.2465Z" fill="#FFF1DB"/>
<path d="M34.1207 14.258C33.3685 15.386 31.8338 15.9475 29.5117 14.7487C26.5332 13.2109 17.8958 8.61285 15.6595 5.24902C13.8926 6.90817 15.1243 9.64982 16.2349 10.2467L28.1991 16.6709C28.1991 16.6709 31.2281 19.0989 32.8435 16.2156C32.8435 16.2156 34.1106 15.5985 34.1207 14.258Z" fill="#F3DBA7"/>
<path d="M16.6379 2.91169C18.8591 4.63155 19.3135 5.94673 21.2318 5.94673C23.1501 5.94673 30.1166 10.8028 31.5301 12.2191C32.9436 13.6355 34.7104 16.1141 37.4869 14.3436C40.2635 12.5732 40.6168 12.1685 37.4869 11.3592C37.4869 11.3592 31.1767 4.12065 29.3089 3.66539C27.4108 2.80547 23.6196 0.382502 18.3038 0.989509C12.6802 1.24243 16.6379 2.91169 16.6379 2.91169Z" fill="#FF4000"/>
<path d="M37.4985 14.3388C35.8629 14.4349 33.359 13.5851 27.9827 8.75944C21.7683 3.18004 16.811 1.9458 15.9023 2.52245C16.2608 2.75008 16.6394 2.91195 16.6394 2.91195C18.8606 4.6318 19.3149 5.94698 21.2332 5.94698C23.1515 5.94698 30.118 10.803 31.5315 12.2194C32.945 13.6357 34.7119 16.1143 37.4884 14.3439C37.4934 14.3439 37.4934 14.3388 37.4985 14.3388Z" fill="#FF4611"/>
<path d="M29.5782 6.8472C29.5025 6.52852 29.0179 6.6651 29.0936 6.98377C29.4217 8.37989 29.8054 9.76083 30.2395 11.1316C30.4667 11.3087 30.6737 11.4756 30.8605 11.6274C30.8857 11.5768 30.8958 11.5161 30.8706 11.4503C30.3708 9.93281 29.9417 8.40012 29.5782 6.8472ZM27.983 8.75421C28.1143 9.05265 28.5535 8.79468 28.4172 8.50129C27.882 7.31763 27.4227 6.10867 27.0238 4.86937C26.9229 4.56081 26.4383 4.69233 26.5392 5.00595C26.9481 6.28066 27.4328 7.53514 27.983 8.75421ZM32.7182 12.462C32.4708 11.0608 32.2184 9.65966 31.9711 8.26354C31.9155 7.94487 31.4259 8.08144 31.4865 8.40012C31.7338 9.80129 31.9862 11.2025 32.2336 12.5986C32.2891 12.9122 32.7737 12.7807 32.7182 12.462ZM35.0303 8.6581C34.6062 8.34448 34.1973 8.01568 33.8036 7.67171C33.5613 7.45926 33.2028 7.81335 33.4451 8.03086C34.374 8.85032 35.3836 9.57367 36.4488 10.2009C36.0551 9.76083 35.5654 9.2297 35.0303 8.6581ZM38.4731 12.6138C38.1803 12.4721 37.9229 12.9071 38.2207 13.0488C38.4529 13.1601 38.6852 13.2713 38.9224 13.3877C39.0941 13.2612 39.2354 13.1449 39.3515 13.0336C39.0537 12.892 38.7609 12.7554 38.4731 12.6138ZM36.0147 13.9289C36.358 14.1464 36.6911 14.3741 37.0243 14.6068C37.1758 14.5309 37.3323 14.4449 37.4887 14.3437C37.4938 14.3387 37.5039 14.3336 37.5089 14.3336C37.1051 14.0402 36.6911 13.762 36.2721 13.4939C35.9945 13.3169 35.7421 13.7519 36.0147 13.9289ZM20.9458 0.969353C21.5617 1.28803 22.1271 1.68764 22.637 2.16313C22.8742 2.3857 23.2327 2.02656 22.9954 1.80399C22.6976 1.52578 22.3795 1.27286 22.0463 1.04017C21.6677 0.989588 21.2841 0.94912 20.8853 0.923828C20.9004 0.939003 20.9206 0.954178 20.9458 0.969353ZM21.4103 3.09893C20.0321 2.41099 18.1441 2.27948 17.0688 1.0857C16.8518 1.11099 16.6599 1.14134 16.4883 1.17169C17.6039 2.6538 19.5929 2.76002 21.1528 3.53901C21.4456 3.68065 21.7031 3.24563 21.4103 3.09893Z" fill="#FFCABF"/>
<path d="M24.9987 8.12222C25.8064 4.51559 26.6292 3.89847 27.7247 3.66578L28.8202 3.43309L25.6701 1.99145C25.6701 1.99145 24.2919 1.68289 22.6917 3.41792C22.0859 4.02493 21.9193 5.04672 21.9193 5.04672C21.9193 5.04672 20.425 8.35996 20.7733 11.0763C20.9854 12.7456 23.0753 14.2934 24.5342 14.7082C24.0244 12.5787 23.8225 12.4775 24.2768 10.7374C24.7311 9.00238 24.9987 8.12222 24.9987 8.12222Z" fill="#366B0D"/>
<path d="M22.9992 3.79692C22.6508 3.7868 22.2369 5.5016 22.4944 5.61794C22.6407 5.6837 22.9184 5.15763 23.1506 5.23856C23.4384 5.33467 23.2617 6.22494 23.4535 6.27553C23.7362 6.3514 24.5742 4.4798 24.3117 4.30276C24.1855 4.22182 23.9331 4.59109 23.605 4.50509C23.2213 4.40393 23.2011 3.80198 22.9992 3.79692Z" fill="#5D9C3F"/>
<path d="M30.6781 17.9302C29.3858 17.9302 28.2197 17.0703 28.0329 16.9236L16.0889 10.5146C15.2559 10.0644 14.4028 8.6177 14.4684 7.17606C14.5239 5.88111 15.3014 4.84414 16.6492 4.25737C16.8764 4.12585 17.1086 4.00445 17.3459 3.90328C17.1036 3.68577 16.8158 3.43791 16.4776 3.17488C16.3716 3.12935 16.0636 2.98772 15.7607 2.7955C15.1752 2.42624 14.9227 2.07215 14.9884 1.70795C15.0994 1.09082 16.0838 0.782262 18.2747 0.681094C22.9292 0.155022 26.4326 1.90016 28.5226 2.94725C28.8557 3.11418 29.1435 3.25581 29.4009 3.37721C30.668 3.71612 33.4042 6.5387 34.3078 7.46945C35.903 9.11342 37.3367 10.7321 37.6446 11.0862C39.1288 11.4757 39.9012 11.7842 39.992 12.3508C40.088 12.9679 39.3509 13.5092 37.6446 14.5967C36.4937 15.3302 35.3931 15.4566 34.2977 14.9761C34.015 15.8259 33.3032 16.2963 33.0558 16.443C32.5813 17.2473 31.9553 17.7329 31.188 17.8847C31.0214 17.915 30.8498 17.9302 30.6781 17.9302ZM19.981 1.19705C19.451 1.19705 18.9058 1.2274 18.3404 1.29316H18.3202C15.7557 1.4095 15.5941 1.81417 15.5941 1.81923C15.5941 1.96087 16.1293 2.36554 16.7603 2.63363L16.7956 2.64881L16.8259 2.6741C17.3812 3.10406 17.8103 3.49861 18.1233 3.792L18.4918 4.13597L18.0173 4.29784C17.6488 4.4243 17.2903 4.59123 16.9471 4.79356L16.9319 4.80368L16.9117 4.81379C16.1091 5.15776 15.1398 5.85076 15.0792 7.20641C15.0288 8.40019 15.7254 9.62938 16.3817 9.98346L28.3711 16.4228L28.3913 16.438C28.4065 16.4481 29.7947 17.5407 31.087 17.2878C31.6928 17.1664 32.1976 16.7566 32.5864 16.0687L32.6318 15.9878L32.7176 15.9473C32.7277 15.9422 33.6667 15.4668 33.808 14.4955L33.8686 14.0555L34.2523 14.273C35.2669 14.8395 36.2463 14.7839 37.3316 14.0909C38.0939 13.6053 38.6341 13.2461 38.9925 12.9477C39.4267 12.5885 39.4115 12.457 39.4065 12.4469C39.4065 12.4418 39.3863 12.3306 38.9976 12.1535C38.6745 12.0068 38.1697 11.8449 37.4175 11.6527L37.3266 11.6274L37.266 11.5566C35.5294 9.56362 30.6983 4.31301 29.2445 3.95893L29.2192 3.95387L29.194 3.94375C28.9214 3.82235 28.6185 3.6706 28.2702 3.49356C26.4831 2.60834 23.6561 1.19705 19.981 1.19705Z" fill="#E4440E"/>
<path d="M4.87665 7.41357C5.16944 8.95638 6.36586 11.5867 8.30942 13.5342C10.253 15.4817 18.1584 19.493 20.0212 17.6264C21.884 15.7599 21.5155 11.0404 14.8367 6.70034C8.15797 2.36024 4.06894 3.16453 4.87665 7.41357Z" fill="#FFF1DB"/>
<path d="M13.3878 15.0214C10.4296 13.3168 7.58237 11.4148 5.66406 9.70508C6.25975 10.9747 7.14823 12.3759 8.30931 13.5343C10.2529 15.4818 18.1583 19.4931 20.0211 17.6265C20.7884 16.8576 21.1771 15.6133 20.9045 14.1109C19.5819 15.8611 17.0275 17.1207 13.3878 15.0214Z" fill="#F3DBA7"/>
<path d="M2.38238 5.0568C5.04277 6.47315 15.2704 14.0253 16.1134 14.2277C16.9565 14.43 22.035 19.9942 22.9436 16.1498C23.8523 12.3055 16.7192 4.24746 12.6655 3.46847C8.61184 2.68948 5.2447 3.26613 4.06847 3.46847C2.89224 3.6708 0.398438 3.80738 0.398438 3.80738C0.398438 3.80738 0.736666 4.91516 1.20615 4.91516C1.67563 4.91516 2.38238 5.0568 2.38238 5.0568Z" fill="#FF4000"/>
<path d="M22.6471 16.9083C19.7292 16.1748 13.8531 12.3557 9.14823 7.92457C4.22624 3.29109 1.87379 4.23701 1.07617 4.88448C1.12161 4.90472 1.16704 4.91483 1.21247 4.91483C1.68195 4.91483 2.3887 5.05141 2.3887 5.05141C5.0491 6.46776 15.2767 14.0199 16.1198 14.2223C16.8921 14.4145 21.2386 19.1238 22.6471 16.9083Z" fill="#FF4611"/>
<path d="M14.9725 8.57708C14.9877 8.25334 14.4829 8.25334 14.4677 8.57708C14.4122 9.72533 14.5536 10.8786 14.8766 11.9814C14.9675 12.295 15.4572 12.1584 15.3613 11.8448C15.0533 10.7876 14.9221 9.68992 14.9725 8.57708ZM16.7798 9.89226C16.7748 9.56852 16.2699 9.56852 16.275 9.89226C16.3103 11.4705 16.4567 13.0386 16.7091 14.5966C16.8808 14.7281 17.0827 14.8899 17.2998 15.0619C16.9918 13.3573 16.8151 11.6273 16.7798 9.89226ZM18.6527 10.9545C18.6274 10.6308 18.1226 10.6308 18.1479 10.9545C18.269 12.6187 18.4457 14.2728 18.6729 15.9269C18.7183 16.2456 19.2029 16.109 19.1575 15.7903C18.9354 14.1868 18.7688 12.5732 18.6527 10.9545ZM21.5857 11.3238C21.2121 11 20.8385 10.6763 20.465 10.3576C20.2176 10.1452 19.8592 10.5043 20.1066 10.7168C20.8234 11.3339 21.5352 11.951 22.252 12.5631C22.0602 12.1584 21.8381 11.7436 21.5857 11.3238ZM11.9487 10.5195C12.0446 10.8281 12.5292 10.6965 12.4333 10.3829C11.9891 8.89576 11.6004 7.39341 11.2823 5.88096C11.2167 5.56228 10.727 5.69886 10.7977 6.01754C11.1157 7.52999 11.5044 9.03233 11.9487 10.5195ZM10.101 3.99924C10.3484 4.20663 10.7068 3.84749 10.4595 3.64009C10.2424 3.45799 10.0203 3.28601 9.79311 3.11402C9.48517 3.09379 9.18733 3.08367 8.89453 3.07861C9.30848 3.372 9.71234 3.6755 10.101 3.99924Z" fill="#FFCABF"/>
<path d="M14.7719 5.01098C12.6668 4.44444 9.547 5.41565 9.82465 8.33434C10.3042 12.0421 10.7081 14.9709 11.8086 15.8814C7.50248 13.5344 8.25971 13.767 7.07339 8.62773C6.72002 7.36313 7.56306 5.10709 9.30974 4.06C11.0564 3.01292 11.8086 2.90669 14.2721 4.06C14.893 4.3281 16.3722 5.43589 16.3722 5.43589L14.7719 5.01098Z" fill="#366B0D"/>
<path d="M9.1327 7.0445C9.46083 7.22155 9.26395 8.35463 9.04688 8.37486C8.92572 8.38498 8.90553 8.04101 8.59254 7.91961C8.36537 7.82855 8.23917 7.96007 8.08772 7.8842C7.69901 7.69198 7.83531 6.4982 8.03724 6.46785C8.17859 6.44761 8.24421 6.97875 8.62788 7.07485C8.86514 7.13556 8.99135 6.96863 9.1327 7.0445Z" fill="#5D9C3F"/>
<path d="M18.4814 18.4156C18.2189 18.4156 17.9362 18.3954 17.6333 18.3498C16.6489 18.2133 15.4222 17.8491 14.0744 17.2926C11.6613 16.2961 9.14227 14.8039 8.09225 13.7518C6.12345 11.779 4.88665 9.11322 4.57366 7.47431C4.52318 7.21633 4.49289 6.96341 4.47774 6.72061C3.46811 6.0529 2.75126 5.60271 2.28178 5.34979C2.12529 5.31944 1.57503 5.22839 1.20652 5.22839C0.560349 5.22839 0.201927 4.21671 0.11106 3.90309L0 3.53383L0.383662 3.51359C0.408903 3.51359 2.87242 3.37196 4.01836 3.17468C5.1542 2.9774 8.60211 2.38557 12.7265 3.17468C13.9936 3.41748 15.6191 4.35329 17.3052 5.81516C18.9156 7.21127 20.4098 8.92606 21.5255 10.6459C22.3584 11.9307 23.6861 14.3689 23.2469 16.2203C23.0753 16.9385 22.7522 17.4191 22.2827 17.6518C21.8082 17.8845 21.2175 17.8541 20.4906 17.5658C20.4098 17.667 20.3291 17.758 20.2432 17.8491C19.8545 18.2234 19.2639 18.4156 18.4814 18.4156ZM0.827903 4.09025C0.964204 4.38869 1.12575 4.61632 1.20652 4.61632C1.70124 4.61632 2.41303 4.7529 2.44332 4.75796L2.48876 4.76807L2.52914 4.78831C3.03396 5.0564 3.82148 5.55212 4.94723 6.29571L5.07848 6.3817L5.08353 6.53851C5.09362 6.79648 5.12391 7.0747 5.17439 7.35797C5.47728 8.95642 6.72924 11.521 8.52134 13.3218C9.51079 14.3132 11.9945 15.7802 14.3066 16.7312C17.0427 17.8642 19.0973 18.1171 19.804 17.414C19.9202 17.2977 20.0312 17.1611 20.1271 17.0195L20.2685 16.807L20.5007 16.9133C21.1519 17.2117 21.6567 17.2775 22.0051 17.1055C22.3029 16.9588 22.52 16.6148 22.6462 16.0786C22.9339 14.8646 22.3483 13.0537 21.0055 10.9747C18.7288 7.45407 14.9578 4.22177 12.6053 3.77157C8.59202 3.0027 5.21983 3.58441 4.11427 3.77157C3.2157 3.92332 1.59018 4.03967 0.827903 4.09025Z" fill="#E4440E"/>
</svg>
