<svg width="28" height="23" viewBox="0 0 28 23" fill="none" xmlns="http://www.w3.org/2000/svg">
<path d="M6.48478 22.2604C5.33129 22.1423 4.02985 21.9698 2.94279 21.5642C1.85573 21.1586 0.829069 20.5139 0.149658 19.5725C0.0771885 19.4726 0.00773621 19.3637 0.0107555 19.2426C0.0137749 19.0549 0.182875 18.9157 0.336874 18.8067C0.850206 18.4435 1.36656 18.0833 1.92216 17.7867C2.04295 17.7201 2.17279 17.6565 2.30867 17.6414C2.54118 17.6141 2.76161 17.7261 2.97902 17.8139C3.82149 18.165 4.74851 18.2316 5.65741 18.2922L8.33882 18.4738C12.0801 18.728 15.8335 18.9793 19.5717 18.7008C20.0247 18.6675 20.538 18.731 20.9909 18.731C21.5949 18.728 22.1988 18.728 22.7967 18.6614C24.1766 18.5071 25.5777 18.0651 26.9607 17.9531C27.4197 18.3043 27.9149 18.725 27.9753 19.3001C28.0206 19.7572 27.7639 20.2021 27.4136 20.4957C26.8339 20.98 25.9189 21.1344 25.1972 21.3039C23.1077 21.7912 14.985 22.5479 12.8863 22.4329C11.9503 22.3815 10.7152 22.3966 9.77313 22.3936C8.49886 22.3845 7.66243 22.3815 6.48478 22.2604Z" fill="#CA7A03"/>
<path d="M26.1752 15.5257C26.1178 15.7557 26.4016 15.901 26.607 16.0191C27.0599 16.2824 27.3166 16.8454 27.2169 17.36C27.1656 17.6324 27.0267 17.8776 26.8878 18.1197C26.8093 18.2559 26.7247 18.4012 26.5858 18.4739C26.5043 18.5193 26.4077 18.5344 26.3171 18.5465C26.1087 18.5798 25.9004 18.6131 25.689 18.6434C25.6286 18.6525 25.5652 18.6646 25.5169 18.7009C25.4625 18.7463 25.4384 18.8189 25.3961 18.8734C25.2602 19.0581 24.9854 19.0278 24.7559 19.0278C24.5265 19.0278 24.2366 19.1731 24.2909 19.3971C24.3211 19.5182 24.451 19.6513 24.3634 19.7421C23.4303 19.8874 22.4943 20.0297 21.5612 20.175C21.1536 20.2386 20.7308 20.2991 20.3353 20.1931C20.1752 20.1508 20.0182 20.0781 19.8521 20.0751C19.6951 20.0721 19.5441 20.1326 19.3931 20.181C18.91 20.3415 18.3967 20.4171 17.8924 20.3536C17.6901 20.3294 17.4878 20.2809 17.2824 20.284C17.1073 20.287 16.9352 20.3294 16.7661 20.3717C16.2739 20.4928 15.7787 20.6139 15.2865 20.735C15.3771 20.7107 15.4646 20.6835 15.5552 20.6593C15.4405 20.6563 15.3257 20.6532 15.208 20.6502C15.1566 20.9589 14.7943 21.1315 14.4893 21.0649C14.1843 20.9983 13.9186 20.8106 13.6166 20.741C13.4113 20.6956 13.1969 20.7077 12.9855 20.7289C12.0193 20.8227 11.0349 21.074 10.0958 20.8379C9.84516 20.7743 9.60359 20.6774 9.34693 20.629C8.76113 20.5231 8.08776 20.6714 7.62274 20.3021C7.51101 20.2143 7.4174 20.0963 7.28756 20.0358C6.93125 19.8632 6.53266 20.1629 6.14011 20.1841C5.94082 20.1962 5.74756 20.1356 5.55733 20.0781C4.6907 19.8118 3.8271 19.5454 2.96047 19.279C2.79138 19.2276 2.58604 19.1216 2.6102 18.9461C2.39883 18.8492 2.15726 18.94 1.95193 18.8371C1.60769 18.6646 1.52314 18.2136 1.5322 17.8261C1.54126 17.4417 1.59259 17.021 1.38122 16.6971C1.29667 16.567 1.16985 16.4519 1.14871 16.3006C1.11852 16.0584 1.38424 15.8677 1.62581 15.8617C1.8704 15.8556 2.09687 15.9676 2.3324 16.0372C2.80647 16.1765 3.31075 16.1281 3.80294 16.0978C9.24728 15.7557 14.7973 17.4871 20.1118 16.2461C20.8244 16.0796 21.525 15.8617 22.2376 15.7043C23.5119 15.4258 24.8767 15.4046 26.1752 15.5257Z" fill="#EA1608"/>
<path d="M22.5622 16.6788C22.5743 17.1934 22.221 17.6959 21.7318 17.8563C22.0579 17.9683 22.3267 18.2286 22.4505 18.5494C22.1636 18.3285 21.8798 18.1106 21.5929 17.8896C21.448 17.7776 21.3 17.6656 21.1339 17.5869C20.7776 17.4204 20.3579 17.4325 19.9774 17.5385C19.597 17.6444 19.2497 17.8351 18.9024 18.0228C18.7696 18.0954 18.6337 18.165 18.4857 18.1923C18.223 18.2347 17.9633 18.1257 17.7097 18.0379C16.9155 17.7625 16.0519 17.6928 15.2246 17.8412C15.5688 17.8956 15.91 17.9532 16.2543 18.0076C15.8526 18.274 15.3393 18.2861 14.8592 18.2619C13.0686 18.1711 11.3082 17.6928 9.51753 17.6807C9.33635 17.6807 9.1129 17.6565 9.04647 17.487C8.58145 17.2782 7.98357 17.5294 7.68765 17.9441C7.54573 18.1408 7.46118 18.389 7.25886 18.5192C7.05957 18.159 6.97804 17.7322 7.03239 17.3205C9.04647 16.9028 11.1119 16.809 13.1652 16.697C13.6816 16.6698 14.2009 16.6395 14.7112 16.5426C15.0706 16.473 15.4239 16.3701 15.7862 16.3096C16.2543 16.2339 16.7283 16.2339 17.2024 16.2339C18.5492 16.2369 19.8989 16.2581 21.2457 16.2914C21.6865 16.3035 22.2149 16.4185 22.5622 16.6788Z" fill="#870200"/>
<path d="M3.95429 16.9029C3.4017 16.5578 2.78268 16.3156 2.26029 15.9252C4.3257 15.901 6.34883 16.464 8.33573 17.0239C7.90392 17.0875 7.4691 17.148 7.0373 17.2116C6.94671 17.2237 6.84706 17.2419 6.78365 17.3085C6.70816 17.3872 6.70816 17.5082 6.71118 17.6172C6.72628 18.041 6.74138 18.4617 6.75949 18.8855C6.7142 18.6615 6.66287 18.4284 6.53302 18.2407C6.40016 18.0531 6.16463 17.9169 5.9442 17.9774C5.37954 18.1287 5.34934 18.5404 4.95679 17.8836C4.70919 17.4749 4.35891 17.1571 3.95429 16.9029ZM25.9611 17.4416C26.0215 17.9108 25.8494 18.4012 25.5112 18.7311C25.8404 18.725 26.1665 18.604 26.4231 18.3981C26.2329 18.4163 26.088 18.2256 26.0457 18.0379C26.0034 17.8503 26.0245 17.6535 25.9611 17.4749M19.8011 19.848C19.623 19.6936 19.4871 19.4939 19.4026 19.2729C19.466 19.4666 19.5294 19.6664 19.5173 19.8692C19.5052 20.072 19.3965 20.2839 19.2063 20.3565C19.3422 20.4564 19.5203 20.3384 19.6834 20.299C19.8132 20.2657 19.9491 20.2869 20.082 20.2869C20.2088 20.2869 20.3235 20.2687 20.4111 20.181C20.2601 20.0417 19.9823 20.0024 19.8011 19.848ZM16.7846 19.1518C16.7966 19.4061 16.6819 19.6664 16.6185 19.9116C16.5521 20.1598 16.4041 20.3928 16.1716 20.5018C16.4856 20.5533 16.999 20.3989 17.2828 20.2597C17.0594 19.9267 16.8087 19.5998 16.7846 19.1518ZM13.9673 20.3111C13.8374 20.0871 13.7197 19.8571 13.62 19.621C13.6472 19.7723 13.6774 19.9237 13.7046 20.075C13.7227 20.1719 13.7408 20.2718 13.7167 20.3656C13.6925 20.4594 13.608 20.5472 13.5113 20.5442C13.6955 20.5502 14.236 20.9468 14.2994 20.635C14.1485 20.5714 14.0488 20.4534 13.9673 20.3111ZM11.8717 19.4939C11.7116 19.4908 11.5546 19.4878 11.3946 19.4878C11.3493 19.4878 11.301 19.4878 11.2617 19.506C11.2043 19.5332 11.1681 19.5968 11.1168 19.6331C11.0292 19.6967 10.9024 19.6876 10.8239 19.7602C10.6669 19.9025 10.839 20.1961 10.7182 20.3717C10.6276 20.5018 10.4193 20.4988 10.3226 20.6229C10.528 20.5775 10.7423 20.6441 10.9477 20.6865C11.3221 20.7652 11.7569 20.9044 11.6482 20.414C11.6029 20.2233 11.4127 19.4848 11.8717 19.4939ZM6.62059 19.7088C6.57832 19.7754 6.51491 19.8329 6.46961 19.8995C6.42432 19.9661 6.39714 20.0569 6.43338 20.1295C6.52699 20.1779 6.62361 20.0781 6.70212 20.0054C6.85008 19.8662 7.06447 19.7996 7.26377 19.8268C7.46306 19.8541 7.65028 19.9812 7.75294 20.1568C7.78918 20.0175 7.73483 19.8722 7.65934 19.7481C7.58385 19.624 7.49326 19.512 7.44193 19.3788C7.41475 19.3092 7.39965 19.2336 7.35134 19.1791C7.31208 19.1337 7.25471 19.1064 7.19734 19.0852C7.01314 19.0096 6.71722 18.8522 6.62965 19.0429C6.54812 19.2214 6.76553 19.4818 6.62059 19.7088ZM25.2032 15.8677C25.4327 16.128 25.9913 16.4488 26.0849 16.5215C26.4352 16.7848 26.7976 17.1178 26.8096 17.5536C26.8127 17.6868 26.7825 17.823 26.8217 17.9502C26.8882 17.932 26.9153 17.8563 26.9304 17.7897C26.9969 17.5355 27.0603 17.2509 26.9304 17.0209C26.8217 16.8242 26.5983 16.7182 26.4745 16.5306C26.396 16.4095 26.3627 16.2612 26.2661 16.1552C26.2027 16.0856 26.1151 16.0432 26.0396 15.9857C25.8162 15.8223 25.6501 15.6285 25.327 15.6891C25.1217 15.7254 24.9496 15.7738 24.9526 15.9797C24.9586 16.2672 25.1549 16.3035 25.3633 16.4246C25.632 16.582 25.8554 16.7727 26.0004 17.0542C25.7045 16.7999 25.3572 16.6153 25.013 16.4307C24.8982 16.3671 24.7805 16.3066 24.6657 16.243C24.4936 16.1492 24.3155 16.0553 24.1222 16.0341C24.4483 16.0039 24.7744 15.9706 25.1005 15.9403C25.0824 15.9887 25.0462 16.0341 25.0039 16.0614" fill="#5E0200"/>
<path d="M24.5455 12.2565C25.391 12.2747 26.2334 12.7741 26.9551 13.2221C27.3597 13.4733 27.8217 13.8366 27.7553 14.3088C27.6979 14.7325 27.248 14.9716 26.8555 15.1411C25.7412 15.6164 24.621 16.0916 23.4373 16.3549C22.7095 16.5184 21.9667 16.5971 21.2239 16.6758C20.5868 16.7454 19.9496 16.812 19.3155 16.8816C17.4464 17.0814 15.5652 17.2842 13.69 17.1661C13.6658 17.1238 9.67997 17.0814 7.70515 16.8211C5.63069 16.5486 3.55018 16.2611 1.53007 15.7223C1.1496 15.6194 0.760073 15.5044 0.458113 15.2471C0.156153 14.9898 -0.0280437 14.563 0.110859 14.1937C0.201447 13.9607 0.40074 13.7912 0.590973 13.6338C1.08317 13.2312 1.57838 12.8226 2.15211 12.5471C3.18481 12.0537 4.37453 12.0356 5.51896 12.0295C10.3292 11.9993 15.1424 11.969 19.9527 11.9417C21.5077 11.9296 24.473 12.2505 24.5455 12.2565Z" fill="#FFAC3A"/>
<path d="M26.2314 14.2909C24.6672 14.9538 23.0789 15.6227 21.397 15.8467C20.624 15.9496 19.8419 15.9587 19.0629 15.9648L15.1404 16.0011C14.4006 16.0072 13.6608 16.0162 12.921 15.986C12.0362 15.9527 11.1575 15.8709 10.2758 15.7862C9.46053 15.7105 8.64523 15.6318 7.82692 15.5561C6.26881 15.4078 4.70465 15.2625 3.17674 14.9114C2.31011 14.7116 1.46161 14.5966 0.655373 14.2152C0.573843 14.0094 0.564783 13.6886 0.742939 13.5554C1.09321 13.292 1.39819 13.0136 1.76356 12.7593C2.15309 12.4869 2.76607 12.3083 3.21901 12.166C3.62062 12.0389 4.0494 12.0359 4.46913 12.0329C8.89284 12.0026 13.3166 11.9754 17.7342 12.163C18.3895 12.1903 19.0447 12.2236 19.7 12.2024C20.6179 12.1721 21.5299 12.0298 22.4508 12.048C23.3688 12.0662 24.5374 12.1691 25.5973 12.5716C26.328 12.8471 26.8293 13.0529 27.2067 13.6038C27.246 13.6643 27.3426 13.8187 27.3184 13.8853C27.2913 13.961 27.1916 13.964 27.1131 13.958C26.9651 13.9458 26.8111 13.9428 26.6753 14.0034C26.5092 14.076 26.3975 14.2213 26.2314 14.2909Z" fill="#D96231"/>
<path d="M24.0229 12.1813C24.8805 12.3387 25.6958 12.7049 26.3812 13.2437C26.5292 13.3587 26.6832 13.5525 26.5835 13.7129C26.5473 13.7704 26.4839 13.8067 26.4205 13.837C26.1336 13.9671 25.8135 13.9914 25.5055 14.064C25.1311 14.1518 24.7808 14.3092 24.4245 14.4514C21.5589 15.5956 18.3914 15.75 15.3114 15.5744C12.2314 15.3989 9.17251 14.9115 6.08648 14.8268C5.47954 14.8116 4.86958 14.8086 4.26868 14.7239C3.68288 14.6391 3.11217 14.4757 2.57167 14.2335C2.35124 14.1367 2.05532 14.0549 1.85602 13.9248C1.65371 13.7946 1.51179 13.5373 1.5903 13.3103C1.62955 13.2013 1.71108 13.1136 1.79865 13.0349C2.64112 12.2751 3.88217 12.2085 5.01452 12.1813C9.90326 12.0663 14.795 11.9543 19.6837 12.1419C20.8342 12.1873 21.9937 12.2479 23.1351 12.1026C23.4522 12.0632 23.7874 11.9755 24.0229 12.1813Z" fill="#FE7429"/>
<path opacity="0.5" d="M23.9154 12.1111C24.773 12.2685 25.1263 12.5288 25.8117 13.0676C25.9597 13.1826 26.0503 13.1856 26.0624 13.34C26.0684 13.4096 25.8751 13.4368 25.8117 13.4641C25.5249 13.5942 25.2018 13.6366 24.8938 13.7093C24.5193 13.797 23.846 13.8667 23.4897 14.0089C20.6241 15.1531 18.1359 15.1985 15.0559 15.0229C11.9759 14.8474 9.1224 14.9987 6.12998 14.2481C3.08018 13.4823 2.17732 12.5651 2.87787 12.4743C7.72735 11.8387 14.8023 11.9506 19.691 12.1413C20.8415 12.1867 22.001 12.2473 23.1424 12.102C23.4534 12.0626 23.6799 11.9022 23.9154 12.1111Z" fill="#FFD4CE"/>
<path d="M16.1721 14.6631C14.8616 14.7357 13.548 14.6298 12.2405 14.4936C9.5531 14.2151 6.88075 13.8065 4.23558 13.2707C3.86417 13.195 3.48672 13.1163 3.14853 12.9438C3.05794 12.8984 2.95829 12.8258 2.96433 12.7229C2.97037 12.6018 3.11531 12.5473 3.23308 12.5231C4.34731 12.29 5.48569 12.1568 6.62408 12.1205C7.15855 12.1023 7.69604 12.1084 8.23051 12.1145C12.8354 12.1599 17.4403 12.2053 22.0452 12.2476C22.3985 12.2507 23.5067 12.1296 23.709 12.4444C22.7065 13.1708 21.242 13.5946 20.0704 13.9518C18.8021 14.3392 17.4946 14.5904 16.1721 14.6631Z" fill="#6A0D00"/>
<path d="M1.6002 8.64258C1.2922 8.69404 0.757734 9.16623 0.718481 9.2086C0.673185 9.25703 0.322914 9.88965 0.322914 9.95927C0.322914 10.6373 0.108521 10.5283 0.470873 11.0853C0.769814 11.5454 2.53024 12.3566 3.45424 12.5866C4.00682 12.7258 4.41447 12.9014 4.97914 12.974C5.46227 13.0346 5.91521 13.1738 6.39835 13.2344C7.91721 13.425 9.41191 13.5037 10.9338 13.6944C12.1024 13.8397 14.0047 13.7913 14.1315 13.7913C15.5538 13.6551 16.9881 13.6793 18.4133 13.5431C18.673 13.5189 18.9267 13.3766 19.1864 13.3403C20.9891 13.083 22.7253 12.6956 24.6065 12.178C24.8934 12.0993 24.9236 11.9328 25.2376 11.8359C25.5245 11.7482 26.0801 11.5272 26.3247 11.3486C26.5874 11.1579 26.7716 11.1216 27.0192 10.9127C27.2668 10.7039 27.4238 10.2983 27.4238 9.9623C27.4238 9.65658 27.2487 9.37508 27.0283 9.17228C26.9014 9.05726 26.7565 8.9604 26.5934 8.915C26.3941 9.29638 25.9744 9.47194 25.5879 9.62329C25.2256 9.76555 24.8602 9.90781 24.4978 10.0531C24.371 10.1046 24.2412 10.153 24.1113 10.1923C23.7822 10.2922 23.441 10.3195 23.0998 10.3467C22.6196 10.383 22.1365 10.4133 21.6534 10.4345C21.596 10.4375 21.5356 10.4405 21.4933 10.4799C21.3393 10.4496 21.1884 10.4617 21.0313 10.4587C20.7686 10.4527 20.5029 10.4496 20.2432 10.5011C20.0258 10.5435 19.8175 10.6252 19.6031 10.6797C19.434 10.722 19.2618 10.7523 19.0897 10.7796C18.9388 10.8038 18.7908 10.828 18.6398 10.8522C18.0782 10.94 17.5195 11.0308 16.9579 11.1186C16.3993 11.2063 15.8195 11.052 15.285 11.2427C15.2156 11.2669 15.1461 11.2971 15.0737 11.3093C14.9438 11.3335 14.814 11.3123 14.6841 11.2941C14.2554 11.2336 13.8205 11.2124 13.3857 11.2306C12.8694 11.2517 12.35 11.1791 11.8306 11.1579C11.6947 11.1519 11.5588 11.1458 11.423 11.1428C11.1784 11.1337 10.9308 11.1246 10.6862 11.1367C10.5835 11.1428 10.4778 11.1519 10.3752 11.1488C10.1457 11.1428 9.92222 11.0732 9.69575 11.0338C9.39983 10.9824 9.11901 10.9702 8.82007 10.9188C8.7627 10.9097 8.7023 10.8976 8.64493 10.8885C8.2403 10.8189 7.8387 10.7463 7.43407 10.6766C7.15023 10.6282 6.86337 10.5798 6.57349 10.5798C6.36513 10.5798 6.1598 10.5253 5.95447 10.4829C5.75216 10.4405 5.54682 10.4163 5.33847 10.3891L4.90365 10.3346C4.82514 10.3255 4.74663 10.3164 4.66812 10.3164C4.59263 10.3195 4.52016 10.3316 4.44467 10.3467C4.20008 10.3951 3.95549 10.4557 3.70788 10.4345C3.31534 10.3982 2.95902 10.159 2.56648 10.1106C2.56648 10.0501 2.54534 9.99257 2.54534 9.929C2.41549 9.91689 2.30679 9.85333 2.21318 9.76252C2.11655 9.66869 2.04409 9.55669 1.9686 9.4447C1.90216 9.34481 1.83573 9.2419 1.7693 9.14201C1.73911 9.09661 1.70891 9.05121 1.69079 8.99672C1.67569 8.95435 1.66965 8.90894 1.66361 8.86354C1.64852 8.78484 1.60926 8.71825 1.6002 8.64258Z" fill="#DC9E42"/>
<path d="M20.0641 7.64085C19.4632 7.49556 18.8412 7.69533 18.2312 7.8043C17.5608 7.92537 16.8754 7.93445 16.193 7.94656C14.9398 7.96472 13.6897 7.98591 12.4366 8.00407C11.7843 8.01315 11.1291 8.02526 10.4859 7.90419C10.1417 7.84062 9.80349 7.73771 9.45624 7.6802C8.85232 7.58334 8.23632 7.63177 7.62636 7.63479C6.47589 7.63782 5.32241 7.47437 4.22025 7.14747C4.12362 7.12023 4.0119 7.07482 3.98774 6.97796C3.93339 6.77819 3.719 6.84781 3.51366 6.85689C2.8252 6.89018 2.13069 6.78727 1.48147 6.5542C2.82218 7.04455 4.21119 7.3987 5.62437 7.61058C6.56648 7.75284 7.51464 7.82851 8.46581 7.90116C12.4366 8.19477 16.4436 8.36427 20.3842 7.78614C20.2996 7.71652 20.1728 7.66809 20.0641 7.64085ZM26.4053 9.18758C26.514 8.71236 26.4355 8.19779 26.1909 7.77706C26.0459 7.52583 25.8436 7.30486 25.747 7.02942C25.4541 6.99915 25.1491 6.96888 24.8743 7.08088C24.7777 7.12022 24.6901 7.17471 24.5935 7.21406C24.3066 7.33211 23.9835 7.29881 23.6786 7.26249C23.8295 7.32908 23.9926 7.40172 24.0802 7.54096C24.1104 7.58939 24.1315 7.64085 24.1496 7.69533C24.2221 7.89813 24.2855 8.11001 24.4123 8.28255C24.4818 8.19174 24.5875 8.1312 24.7022 8.11607C24.7294 8.11304 24.7566 8.11001 24.7807 8.09791C24.8109 8.08277 24.829 8.0525 24.8441 8.02526C25.0404 7.67717 25.3635 7.22617 25.6956 7.72257C25.9916 8.15542 26.1093 8.73355 26.4053 9.18758Z" fill="#FE7429"/>
<path d="M25.799 6.90236C26.0798 7.40179 26.4874 7.8528 26.5931 8.4158C26.7018 8.98485 26.4029 9.64471 25.8503 9.81119C25.6268 9.87778 25.3883 9.86264 25.1618 9.91107C24.8387 9.98372 24.5639 10.1865 24.265 10.3227C23.8815 10.5013 23.4467 10.5709 23.027 10.5286C22.731 10.4983 22.4321 10.4135 22.1422 10.4801C21.8916 10.5376 21.6742 10.7071 21.4236 10.7707C21.1941 10.8282 20.9555 10.7949 20.72 10.801C20.2006 10.8161 19.7084 11.028 19.1921 11.0855C18.6334 11.1491 18.0688 11.031 17.5041 11.0522C16.6737 11.0855 15.8735 11.4215 15.0401 11.4094C14.6868 11.4033 14.3366 11.3367 13.9863 11.2974C13.0442 11.1975 12.093 11.3246 11.1539 11.4548C10.3024 11.5698 9.43574 10.9856 8.57818 11.0401C8.28226 11.0583 7.98634 11.1127 7.69344 11.0825C7.43375 11.0552 7.18614 10.9614 6.93854 10.8797C5.95716 10.5619 4.91238 10.4317 3.8827 10.4983C3.47203 10.5255 3.04325 10.58 2.65674 10.4347C2.00753 10.1895 1.69349 9.46309 1.49722 8.79718C1.42474 8.552 1.36133 8.28564 1.45192 8.04954C1.54251 7.81345 1.86259 7.65302 2.06188 7.81042C1.7871 7.45022 2.15549 6.90236 2.59635 6.81155C3.03721 6.72074 3.48109 6.90841 3.9129 7.03554C4.64666 7.25347 5.41968 7.30191 6.18364 7.34731C10.9274 7.63183 15.7044 7.91939 20.418 7.31099C22.2087 7.08397 24.0234 6.58454 25.799 6.90236Z" fill="#FF4336"/>
<path d="M25.7296 9.60813C25.7145 9.63537 25.6994 9.66262 25.6783 9.6838C25.6299 9.72921 25.5605 9.73829 25.4941 9.7504C25.3642 9.77764 25.2404 9.82909 25.1317 9.90477C25.2585 9.68683 25.3793 9.45982 25.4488 9.21766C25.5092 9.00276 25.5092 8.79088 25.491 8.57294C25.8474 8.6698 25.8715 9.32663 25.7296 9.60813ZM24.253 9.08751C24.2228 9.29334 24.247 9.50219 24.2319 9.71105C24.2168 9.90779 24.1685 10.1015 24.0869 10.2801C24.3134 10.1469 24.5519 10.0107 24.8147 9.98952C24.8599 9.98649 24.9143 9.98346 24.9385 9.94412C24.9505 9.92595 24.9536 9.90477 24.9566 9.88358C24.9837 9.68683 24.9988 9.45376 24.8479 9.32361C24.7935 9.2782 24.7271 9.25096 24.6667 9.20858C24.4553 9.06027 24.4644 8.75153 24.6093 8.56083C24.407 8.65467 24.2862 8.86352 24.253 9.08751ZM18.4614 8.85141C17.9571 8.84839 17.4166 8.52451 17.3442 8.02508C16.402 8.01297 15.4599 8.00086 14.5178 7.98573C13.3975 7.97059 12.2561 7.95848 11.1812 8.28236C12.3075 8.31566 13.4308 8.3883 14.551 8.50332C14.9798 8.5457 15.4962 8.66375 15.632 9.07238C15.7347 9.38112 15.5626 9.70802 15.3965 9.98649C15.7377 9.96833 16.082 9.97136 16.4232 9.99255C16.4896 10.153 16.3386 10.3588 16.1665 10.3406C16.3115 10.377 16.4624 10.4133 16.6104 10.386C16.7584 10.3588 16.9003 10.2529 16.9184 10.1015C16.9275 10.0198 16.9003 9.93503 16.8791 9.85634C16.8187 9.62024 16.8489 9.31755 17.0664 9.21161C17.2626 9.11778 17.4861 9.2328 17.6914 9.30847C18.5309 9.62629 19.4639 9.26307 20.3577 9.30544C20.4362 9.49916 20.3185 9.72921 20.1463 9.84725C19.9742 9.9653 19.7629 10.0077 19.5605 10.0561C18.8993 10.2135 18.2651 10.4768 17.6884 10.8401C18.2893 10.9369 18.9234 11.0308 19.4851 10.7977C19.9048 10.6252 20.2339 10.2892 20.5902 10.0047C20.9465 9.72013 21.3783 9.4689 21.8283 9.52338C22.0034 8.98157 21.6652 8.37317 21.173 8.08864C20.6808 7.80411 20.0799 7.78595 19.5153 7.84952C18.9506 7.91308 18.395 8.05232 17.8273 8.0614C18.1262 8.0614 18.4403 8.12194 18.7362 8.1522C18.8781 8.16734 19.627 8.14918 19.6994 8.25814C19.941 8.61532 18.6456 8.85444 18.4614 8.85141Z" fill="#490D0C"/>
<path d="M13.8417 9.32335C13.884 9.39903 13.9565 9.45351 14.0259 9.50194C14.3128 9.70171 14.6147 9.8803 14.9257 10.0407H14.1467C14.1316 10.1224 14.1165 10.2072 14.1014 10.2889C13.9353 10.0105 13.6907 9.77739 13.4008 9.6321C13.3737 9.61696 13.3374 9.60485 13.3103 9.62301C13.2891 9.63512 13.2831 9.66236 13.277 9.68658C13.1653 10.1255 12.7818 10.4857 12.3349 10.5644C12.5976 10.5644 12.7879 10.2859 12.7939 10.0256C12.803 9.7562 12.6671 9.49589 12.4708 9.31125C12.2745 9.12661 12.0209 9.01461 11.7612 8.94802C12.3138 9.00553 12.9207 9.05094 13.3797 8.73311C13.5096 8.64231 13.8598 8.38805 13.9897 8.64231C14.1014 8.85721 13.6968 9.05396 13.8417 9.32335ZM8.91674 8.21552C8.68121 8.16709 8.44267 8.12168 8.20714 8.07325C9.34855 7.94007 10.4658 8.36989 11.6042 8.32448C11.2207 8.48188 10.9036 8.63625 10.9459 9.14477C10.9731 9.48075 11.2207 9.75317 11.4532 9.99835C11.2026 9.85911 10.8946 9.71987 10.647 9.86214C10.4839 9.95294 10.3933 10.1467 10.2242 10.2223C9.91321 10.3616 9.5569 10.0347 9.22776 10.1224C9.76525 10.2435 10.1276 10.7339 10.4386 11.1909C9.74411 10.9064 8.97109 10.8943 8.22223 10.9306C7.92631 10.9458 7.60925 10.9609 7.35863 10.8005C7.85384 10.64 8.34604 10.4796 8.84125 10.3192C8.87447 10.3071 8.9107 10.295 8.9258 10.2617C8.956 10.1921 8.85333 10.1467 8.79596 10.0952C8.66913 9.98321 8.75368 9.76528 8.88956 9.66539C9.02545 9.5655 9.20058 9.5201 9.31533 9.396C9.0949 9.42929 8.86541 9.42021 8.648 9.36876C8.86541 9.18109 9.17643 9.15688 9.45725 9.10845C9.74109 9.06002 10.0521 8.94499 10.1608 8.6756C10.1789 8.63323 10.188 8.5848 10.1729 8.54242C10.1457 8.46675 10.0551 8.43951 9.9736 8.42437C9.25796 8.27908 8.75972 8.21552 8.08635 8.54545C7.53679 8.81181 7.08385 9.29611 6.88455 9.87727C6.98722 9.54129 6.78189 9.15688 6.46785 9.0025C6.15381 8.84813 5.76428 8.89656 5.4593 9.07212C5.15432 9.24768 4.92785 9.53524 4.76177 9.84398C4.62891 9.51405 4.51719 9.07818 4.78593 8.84511C4.77385 8.71798 4.65609 8.6302 4.5504 8.56058C4.21824 8.34265 3.88307 8.12471 3.55091 7.9098C3.43617 7.83413 3.31538 7.75846 3.1795 7.74938C3.04362 7.7403 2.88962 7.82202 2.8715 7.95521C2.92283 7.74938 2.97719 7.54355 3.02852 7.33772C3.04664 7.2681 3.06778 7.19546 3.11911 7.14703C3.19762 7.07741 3.31538 7.08649 3.41805 7.10163C5.29322 7.37102 6.92381 7.67371 8.69933 8.31238M24.7576 6.84434C24.3922 6.89883 24.0208 6.97753 23.7037 7.16519C23.3836 7.35286 23.1209 7.66765 23.0787 8.0339C23.2508 7.73424 23.5467 7.52236 23.8668 7.38615C24.1838 7.25297 24.5281 7.18941 24.8693 7.12887C25.1954 7.07136 25.5215 7.01082 25.8446 6.95331C26.1134 6.90791 25.0776 6.79894 24.7576 6.84434Z" fill="#5D0100"/>
<path d="M0.735163 15.2472C1.1881 15.6588 1.79202 15.7163 2.37782 15.8798C2.77641 15.9918 3.1901 16.0402 3.60378 16.0886C9.26251 16.7515 14.9001 17.1995 20.5709 16.6456C21.3077 16.5729 27.0329 15.1564 27.5613 14.6357C27.7696 15.0444 24.9463 15.9101 24.5568 16.1492C24.1673 16.3883 21.2081 16.8333 20.7521 16.8605C20.1119 16.8968 19.4235 17.0391 18.7833 17.0754C17.4456 17.1511 16.1714 17.3569 14.8337 17.3418C13.9097 17.3327 12.9887 17.2812 12.0677 17.2237C10.6364 17.1359 9.20816 17.0361 7.77989 16.9271C7.55342 16.9089 2.53786 16.1098 1.86147 15.9282C1.52328 15.8374 1.02504 15.7678 0.7563 15.5468C0.487555 15.3228 0.0889683 15.0928 0.110106 14.7447C0.173517 14.9112 0.599279 15.1231 0.735163 15.2472Z" fill="#EC452D"/>
<path d="M21.3966 2.82756C23.4106 3.22711 25.5153 3.7326 27.0191 5.13404C27.2274 5.32776 27.4388 5.5911 27.3693 5.86958C27.3391 5.99368 27.2546 6.09962 27.167 6.19345C26.7382 6.65656 26.1736 6.98952 25.5606 7.14086C25.1077 7.25286 24.6336 7.26497 24.1716 7.33156C23.5133 7.42842 22.8762 7.63727 22.2179 7.74927C21.5808 7.85823 20.9346 7.87639 20.2884 7.89153C18.2441 7.94601 16.1998 7.99747 14.1556 8.05195C13.0051 8.08222 11.8516 8.11249 10.6981 8.0792C7.78722 7.99444 4.88841 7.50409 2.11037 6.62629C1.26791 6.35993 0.33787 5.96038 0.0540276 5.12496C0.0117531 5.00389 -0.0124054 4.86768 0.0328903 4.74963C0.0872421 4.60737 0.226145 4.51959 0.355988 4.44392C1.95034 3.51467 3.68359 2.82756 5.48025 2.40683C6.85417 2.08598 8.2613 1.92253 9.66844 1.81659C11.5013 1.68038 13.3886 1.50482 15.2094 1.76816C17.2839 2.06782 19.3463 2.42196 21.3966 2.82756Z" fill="#FFC475"/>
<path d="M27.0726 5.50043C26.8853 5.42476 26.7857 5.71837 26.6498 5.86971C26.4747 6.06646 26.1667 6.03014 25.904 5.99079C24.1617 5.73956 22.4012 6.16029 20.6891 6.578C20.4325 6.64156 20.1697 6.70513 19.9433 6.83831C19.8376 6.90188 19.7379 6.98058 19.6172 7.01084C19.4662 7.05322 19.3092 7.0169 19.1552 6.98663C17.6454 6.68394 16.0782 6.92004 14.5412 6.79896C13.9131 6.75053 13.2881 6.63854 12.66 6.68091C12.1195 6.71724 11.5911 6.86555 11.0506 6.91398C10.4829 6.96544 9.91216 6.91096 9.3475 6.85647C8.64695 6.78686 7.9464 6.72026 7.24586 6.65065C5.50959 6.48114 3.85485 5.89998 2.14575 5.55492C1.49352 5.42173 0.783913 5.14932 0.382307 4.61961C1.48144 3.86289 2.26352 3.41794 3.52269 2.97904C4.41347 2.6703 5.5277 2.29497 6.4668 2.20114C7.12507 2.13757 7.49346 2.03769 8.86436 1.94991C12.2735 1.72894 14.2181 1.43534 16.7516 1.99834C18.5845 2.40999 20.3237 2.53712 22.1415 3.01234C22.9146 3.21514 23.3917 3.32108 24.1617 3.52388C24.4606 3.60258 25.0917 3.82052 25.3695 3.95673C25.5326 4.03845 25.6805 4.13834 25.8315 4.24125C26.1818 4.47735 26.529 4.71344 26.8793 4.94651C26.9729 5.01008 27.0665 5.07364 27.1329 5.16445C27.1964 5.25526 27.1148 5.39752 27.0726 5.50043Z" fill="#FF5610"/>
<path d="M6.88943 5.76115C6.12849 5.65823 5.36755 5.55835 4.60661 5.45543C3.43501 5.29804 2.23321 5.13459 1.20956 4.60791C1.14011 4.57159 1.06462 4.52921 1.04348 4.45959C1.01027 4.35668 1.10991 4.26285 1.20352 4.19625C1.87085 3.7059 2.64387 3.32754 3.46822 3.08842C3.95438 2.94615 4.45865 2.85232 4.95991 2.76151C6.74449 2.43159 8.54417 2.09863 10.371 2.08349C11.141 2.07744 11.908 2.1289 12.675 2.18035C14.366 2.29538 16.0539 2.40737 17.7449 2.52239C19.3181 2.62833 20.9034 2.73427 22.4343 3.07328C23.9653 3.41229 25.457 3.99648 26.6074 4.95297C26.381 5.2829 25.8797 5.35252 25.4449 5.38582C22.9265 5.58559 20.4082 5.77628 17.8868 5.9579C15.5798 6.12437 13.2698 6.29388 10.9599 6.18491C9.59499 6.12135 8.23919 5.93973 6.88943 5.76115Z" fill="url(#paint0_linear_1801_11856)"/>
<path d="M0.322569 9.98942C0.322569 10.6674 -0.0337448 10.7794 0.328608 11.3394C0.627548 11.7995 2.38798 12.6107 3.31197 12.8407C3.86456 12.98 4.27221 13.1555 4.83687 13.2282C5.32001 13.2887 5.77295 13.4279 6.25608 13.4885C7.77494 13.6792 9.26964 13.7579 10.7915 13.9486C11.9601 14.0939 13.8625 14.0454 13.9893 14.0454C15.4115 13.9092 16.8458 13.9334 18.2711 13.7972C18.5308 13.773 18.7844 13.6307 19.0441 13.5944C20.8468 13.3371 22.5831 12.9497 24.4643 12.4321C24.7511 12.3534 24.7813 12.1869 25.0954 12.0901C25.3822 12.0023 25.9378 11.7813 26.1824 11.6027C26.4451 11.412 26.6293 11.3757 26.8769 11.1669C27.1245 10.958 27.4023 10.5131 27.4023 10.1771C27.4023 9.87137 26.3998 11.1487 26.0133 11.3001C25.651 11.4423 24.8961 11.8509 24.5307 11.9932C24.4039 12.0447 23.347 12.3625 23.2142 12.4018C22.885 12.5017 22.5317 12.6198 22.1935 12.647C21.7134 12.6833 21.5926 12.6924 21.1246 12.8165C20.9042 12.874 18.7421 13.3402 15.7316 13.549C13.0079 13.7367 9.74674 13.4582 7.49412 13.1828C4.19068 12.7772 2.0679 11.9418 1.32508 11.5301C0.45845 11.0458 0.322569 9.9198 0.322569 9.98942Z" fill="#EC452D"/>
<path opacity="0.7" d="M24.9688 10.2196C25.2617 10.1167 25.5636 10.044 25.8716 10.0047C26.0015 9.98654 26.1404 9.97746 26.2642 10.0259C26.388 10.0743 26.4906 10.1984 26.4725 10.3286C26.4635 10.3921 26.4303 10.4466 26.397 10.5011C26.1494 10.8734 25.7901 11.161 25.4036 11.385C25.0171 11.6089 24.5974 11.7694 24.1807 11.9298C23.4046 12.2295 22.6195 12.5291 21.7952 12.629C21.5687 12.6562 21.3392 12.6684 21.1097 12.6895C20.6085 12.7319 20.1102 12.8106 19.6211 12.9196C17.7127 13.3524 15.762 13.3857 13.8053 13.422C13.5547 13.4281 13.3071 13.4281 13.0564 13.416C12.3136 13.3736 11.5738 13.189 10.834 13.2768C10.2694 13.3433 9.71375 13.3282 9.15512 13.2374L6.13854 12.7561C5.75807 12.6956 5.3776 12.6351 5.00015 12.5473C4.69819 12.4777 4.39925 12.3899 4.10031 12.3021C3.73494 12.1931 3.36654 12.0872 3.00117 11.9782C2.93776 11.951 2.72035 11.8753 2.65996 11.8511C2.48784 11.7845 2.31572 11.7209 2.14059 11.6543C1.98961 11.5968 1.83863 11.5393 1.69067 11.4667C1.40079 11.3214 1.13808 11.1156 0.929728 10.8674C0.83914 10.7614 0.754591 10.6434 0.718357 10.5072C0.679102 10.371 0.691179 10.2166 0.778748 10.1046C0.872356 9.98351 1.03239 9.93811 1.18036 9.89876C1.23773 9.88362 1.29812 9.86849 1.35851 9.87454C1.40985 9.8806 1.45514 9.89876 1.50043 9.92297C1.80843 10.0773 2.02886 10.377 2.3429 10.5253C2.46368 10.5828 2.59353 10.6161 2.72337 10.6464C3.42392 10.822 3.63831 10.6948 4.33886 10.8704C4.56533 10.9279 5.3625 11.0217 5.58897 11.0702C6.47975 11.2487 7.72081 11.3789 8.62367 11.4788C10.3026 11.6634 13.5879 11.6543 16.532 11.6059C17.4832 11.5908 18.3347 11.4031 19.2829 11.3305C20.7715 11.2154 22.2421 10.9521 23.7096 10.6888C24.1112 10.6101 24.5823 10.3558 24.9688 10.2196ZM3.74098 6.63276C3.94631 6.52984 4.19995 6.49655 4.40529 6.60552C4.54721 6.68119 4.64988 6.81437 4.76764 6.92636C5.12999 7.27143 5.64333 7.41067 6.13552 7.49845C6.47976 7.55898 6.83607 7.60136 7.17728 7.52871C7.3494 7.49239 7.51246 7.4258 7.68155 7.3804C8.65387 7.12614 9.65335 7.60136 10.5502 8.06447C9.44198 7.9555 8.33077 7.84654 7.22258 7.73757C6.89646 7.70427 6.57034 7.674 6.25027 7.61952C5.74599 7.53477 5.2538 7.3925 4.75556 7.27748C4.41435 7.19878 3.51149 7.21694 3.28804 7.00204C3.39674 6.84767 3.57188 6.71751 3.74098 6.63276Z" fill="#FFD8A9"/>
<path d="M6.16288 12.5351C6.36821 12.5532 6.57656 12.5744 6.77888 12.5351C7.22276 12.4503 7.57001 12.1052 7.98973 11.9297C8.3853 11.7662 8.82616 11.7632 9.25193 11.7632C11.7703 11.7662 14.2886 11.7662 16.807 11.7693C17.1301 11.7693 17.4532 11.7693 17.7763 11.736C18.202 11.6936 18.6187 11.5937 19.0385 11.5271C19.7239 11.4181 20.4275 11.4 21.119 11.4726C21.2065 11.4817 21.3001 11.4938 21.3666 11.5543C21.5266 11.6996 21.3877 11.966 21.2277 12.1113C20.5935 12.6803 19.6907 12.8105 18.8422 12.8892C15.4723 13.207 12.0783 13.1223 8.69632 12.9618C7.82064 12.9195 6.94193 12.8741 6.07229 12.7621C5.92131 12.7439 4.98221 12.6834 5.00335 12.5018C5.02147 12.3474 6.00284 12.5199 6.16288 12.5351ZM2.87755 10.6766C2.78998 10.731 2.49708 11.0943 2.42763 11.173C2.25249 11.3758 2.25249 11.3758 2.08038 11.5786C2.0532 11.6119 1.98375 11.7995 1.94752 11.8207C1.80861 11.9024 1.53383 11.7995 1.40701 11.6996C1.23791 11.5695 1.03861 11.4878 0.872536 11.3546C0.751753 11.2607 0.627949 11.1609 0.54038 11.0337C0.452812 10.9066 0.404499 10.7401 0.452814 10.5948C0.489048 10.4828 0.576616 10.3951 0.658146 10.3103C0.784969 10.1832 0.911793 10.053 1.04164 9.92589C1.39191 9.57477 1.77238 9.43856 1.85089 9.93497C1.8992 10.2649 2.73865 10.7613 2.87755 10.6766ZM13.9987 16.7485C13.4009 16.8423 12.803 16.9392 12.2021 16.9694C11.0878 17.03 9.97663 16.8756 8.87448 16.7212C7.60323 16.5426 6.335 16.3671 5.06374 16.1885C4.23637 16.0735 3.37277 16.1068 2.6541 15.6739C3.00438 15.4711 3.45429 15.4469 3.84684 15.5438C4.19108 15.6285 4.54437 15.683 4.90068 15.7012C5.66464 15.7405 6.4437 15.6194 7.18954 15.7829C7.55189 15.8616 7.89613 16.0069 8.2615 16.0674C8.60573 16.128 8.95903 16.1128 9.3093 16.1068C11.0637 16.0765 12.8151 16.2672 14.5604 16.4609C14.8261 16.4912 15.113 16.5003 15.3696 16.5729C14.9409 16.6819 14.4396 16.6788 13.9987 16.7485ZM1.56101 19.8359C1.41003 20.0175 1.23791 20.2718 1.37379 20.4655C1.42513 20.5351 1.50665 20.5775 1.58516 20.6138C3.19763 21.3523 4.93692 21.873 6.7064 21.994C9.00734 22.1514 10.8886 22.2967 12.9328 22.2271C13.0657 22.2241 13.3556 22.2483 13.4522 22.1605C13.5488 22.0727 13.6002 21.7337 13.4884 21.6611C13.4522 21.6369 13.2589 21.5309 13.2136 21.5249C11.1996 21.1738 9.20965 21.5461 7.19558 21.2131C6.23837 21.0557 5.29625 20.8105 4.38131 20.4867C3.46939 20.1628 2.61787 19.5907 1.72709 19.285C1.79352 19.4817 1.68783 19.6845 1.56101 19.8359ZM17.7008 21.0133C17.885 20.9891 18.1265 21.0073 18.1779 21.1859C18.196 21.2525 18.1779 21.3251 18.1628 21.3947C18.1356 21.4976 18.1084 21.6036 18.0812 21.7065C18.0631 21.7761 18.042 21.8488 17.9937 21.9032C17.9423 21.9607 17.8638 21.988 17.7914 22.0092C17.4652 22.103 17.124 22.1363 16.7858 22.1635C16.0038 22.2271 15.2217 22.2544 14.4366 22.2453C14.3581 22.2453 14.2735 22.2422 14.2041 22.2059C14.1346 22.1696 14.0803 22.0879 14.1014 22.0122C14.1316 21.9063 14.2705 21.882 14.3792 21.879L15.122 21.8609C15.4361 21.8518 15.3092 21.5794 15.4572 21.4068C15.5871 21.2585 15.7471 21.2797 15.9313 21.2646C16.5292 21.2161 17.1059 21.0951 17.7008 21.0133Z" fill="#FDF5B3"/>
<path opacity="0.7" d="M6.41986 21.9671C5.26638 21.8491 4.04948 21.6887 2.96242 21.2831C1.87537 20.8775 1.37411 20.7776 0.694702 19.8362C0.622232 19.7363 0.256859 19.4064 0.259878 19.2853C0.262899 19.0976 0.362545 19.0644 0.516544 18.9554C1.02988 18.5922 1.02082 19.0311 1.57341 18.7314C1.69419 18.6648 1.89046 19.367 6.69767 20.599C10.3302 21.5313 15.8924 20.8805 19.6306 20.599C20.0836 20.5657 20.9804 20.3992 21.4363 20.3992C22.0403 20.3962 22.6925 20.1964 23.2934 20.1298C24.6734 19.9754 25.3256 19.1067 26.7297 18.8918C27.1675 18.7344 27.1796 19.0492 27.237 19.6243C27.2823 20.0814 27.1615 20.1056 26.8082 20.3992C26.2284 20.8835 25.5339 20.8381 24.8153 21.0076C22.7257 21.4949 14.8747 22.3636 12.7761 22.2486C11.84 22.1972 10.6654 22.2517 9.72633 22.2486C8.44904 22.2365 7.59751 22.0912 6.41986 21.9671Z" fill="#FFAC3A"/>
<path d="M0.165325 18.9432C0.0958729 19.0189 -0.0400105 18.9947 0.0113239 19.2429C0.077755 19.5789 0.606186 20.2539 1.01685 20.5717C1.45167 20.9077 2.54477 21.5645 3.96096 21.9338C4.51355 22.076 5.06311 22.1578 5.62778 22.2274C6.11092 22.2879 7.05907 22.3818 7.54221 22.4423C9.06107 22.633 9.61667 22.4514 11.2473 22.4756C12.4249 22.4938 14.3605 22.4847 14.4873 22.4847C15.9095 22.3485 17.365 22.3818 18.7872 22.2456C19.0469 22.2213 22.8455 22.0004 24.7268 21.4828C25.0136 21.4041 25.3367 21.3799 25.6508 21.283C25.9376 21.1952 26.4781 21.0378 26.7529 20.9016C27.073 20.7442 27.1938 20.7261 27.4444 20.5142C27.695 20.3023 28 19.8059 28 19.4699C28 19.1642 27.3689 20.3628 27.0126 20.5808C26.5295 20.8744 25.5632 21.0893 25.2008 21.2315C25.074 21.283 23.9326 21.4344 23.7997 21.4737C23.4706 21.5736 23.1928 21.5766 22.8516 21.6008C22.3715 21.6371 21.985 21.5978 21.5199 21.7219C21.2995 21.7794 19.1646 22.067 16.1571 22.2758C14.6141 22.3818 12.8205 22.3454 11.1506 22.3394C9.87032 22.3364 8.6655 22.3939 7.66903 22.3C4.35653 21.9852 2.6414 21.2346 1.89857 20.8229C1.02893 20.3416 0.213638 18.8918 0.165325 18.9432Z" fill="#5E0606"/>
<path d="M17.4976 8.61864C17.3617 8.6701 17.1896 8.55508 17.0688 8.63983C17.0144 8.67918 16.9752 8.75485 16.9088 8.7488C16.9722 8.6368 17.0326 8.52481 17.096 8.41281C17.105 8.39768 17.1141 8.38254 17.1262 8.37649C17.1382 8.37044 17.1564 8.37044 17.1715 8.37044C17.3406 8.37649 17.9324 8.40071 17.4976 8.61864ZM14.6773 9.08175C14.7407 9.22099 14.8645 9.34206 15.0155 9.36325C15.0789 9.37233 15.1423 9.36325 15.2027 9.37233C15.2721 9.38141 15.3386 9.41471 15.405 9.44498C15.4835 9.48433 15.562 9.52065 15.6405 9.56C15.7341 9.45406 15.7432 9.28153 15.6586 9.1665C15.6164 9.10899 15.559 9.06964 15.5077 9.02121C15.4261 8.94252 15.3627 8.84566 15.3265 8.73669C15.3144 8.70037 15.3053 8.66404 15.2752 8.63983C15.248 8.61864 15.2087 8.61561 15.1725 8.61259C14.792 8.59745 14.4689 8.61864 14.6773 9.08175ZM15.8308 8.76393C15.8549 8.80328 15.8791 8.84566 15.8881 8.89106C15.8972 8.93949 15.8942 8.98792 15.9002 9.03635C15.9123 9.1211 15.9606 9.19677 16.0331 9.24218C15.9727 9.2331 15.9244 9.19072 15.8791 9.14834C15.7432 9.02424 15.2903 8.64588 15.3627 8.41887C15.4503 8.1525 15.7855 8.68826 15.8308 8.76393ZM16.2867 8.4673C16.3622 8.45216 16.4166 8.54297 16.4226 8.62167C16.4286 8.70037 16.4196 8.78815 16.4739 8.84263C16.489 8.85776 16.5041 8.86987 16.5162 8.88501C16.5464 8.93344 16.5041 8.99397 16.4619 9.03332C16.4196 9.06964 16.3682 9.11505 16.3713 9.16953C16.3109 8.93949 16.2626 8.70642 16.2324 8.47032M21.1483 9.13321C21.257 9.08175 21.3687 9.0303 21.4774 8.97884C21.5831 8.93041 21.725 8.88501 21.8065 8.96673C21.8156 8.97581 21.8247 8.98792 21.8216 9.00003C21.8216 9.01213 21.8096 9.02424 21.8005 9.03332C21.725 9.10294 21.6495 9.17256 21.571 9.24218C21.5287 9.28153 21.4835 9.3239 21.4321 9.35114C21.3355 9.4026 21.2177 9.40563 21.109 9.40865C20.9913 9.41168 20.8765 9.41168 20.7587 9.41471C20.9007 9.32088 21.0396 9.22704 21.1815 9.13624M24.2494 8.47032C24.2373 8.53086 24.2162 8.60048 24.1588 8.62167L23.7874 8.17672C23.7633 8.14645 23.7361 8.11618 23.6968 8.10407C23.6334 8.08591 23.567 8.13131 23.5187 8.17974C23.259 8.42189 23.0385 8.70642 22.8694 9.02121C22.8393 8.75182 23.0053 8.50059 23.1654 8.28266C23.2801 8.12223 23.3949 7.96483 23.5096 7.80441C23.5428 7.75901 23.5881 7.70452 23.6455 7.7136C23.6727 7.71663 23.6998 7.73479 23.721 7.75295C23.8055 7.81955 23.8901 7.88311 23.9746 7.9497C24.0471 7.62885 24.3219 7.35946 24.642 7.2959C24.6872 7.28681 24.7386 7.27471 24.7537 7.23233C24.6722 7.44421 24.648 7.67728 24.6872 7.89824C24.3128 7.82863 24.3158 8.17066 24.2494 8.47032ZM25.9011 7.45935C25.883 7.45027 25.8619 7.44119 25.8438 7.44724C25.7864 7.45632 25.7864 7.54107 25.8015 7.59556C25.889 7.89824 26.0129 8.18882 26.1729 8.46124C26.0853 8.42189 26.0038 8.37044 25.9253 8.3099C25.8287 8.23423 25.7441 8.14342 25.6384 8.07683C25.5327 8.01024 25.4029 7.97089 25.2851 8.01629C25.1794 8.27055 25.113 8.53994 25.0919 8.81236C24.9892 8.55508 25.0617 8.26147 25.1372 7.9951C25.1674 7.88614 25.2217 7.75598 25.3334 7.7469C25.4512 7.73782 25.5358 7.87403 25.6535 7.88916C25.6112 7.78625 25.569 7.68334 25.5569 7.57437C25.5448 7.4654 25.569 7.34735 25.6414 7.26563C25.6716 7.23233 25.7169 7.20509 25.7622 7.21417C25.7894 7.22022 25.8105 7.23838 25.8317 7.25655C26.0038 7.40184 26.2061 7.58648 26.3027 7.7923C26.194 7.65307 26.0642 7.53502 25.9011 7.45935ZM14.0764 9.65383C13.8197 9.48735 13.5328 9.36931 13.2369 9.29969C13.3486 9.26034 13.4694 9.24823 13.5842 9.26337C13.4574 9.04846 13.2279 8.92133 13.0074 8.80631C13.249 8.84263 13.5208 8.81236 13.6506 9.00305C13.7805 9.19072 13.868 9.52065 14.0764 9.65383ZM10.329 9.05754C10.3985 9.06056 10.471 9.06964 10.5223 9.11202C10.5797 9.16045 10.6038 9.23915 10.5978 9.31482C10.5948 9.39049 10.5676 9.46011 10.5404 9.52973C10.625 9.39049 10.7307 9.26639 10.8545 9.16045C10.8212 9.32693 10.6491 9.44498 10.6219 9.61448C10.6159 9.65383 10.6159 9.69621 10.5978 9.73253C10.5797 9.7628 10.5495 9.78096 10.5193 9.79912L10.2294 9.97165C10.1841 9.9989 10.1388 10.0261 10.0845 10.0352C10.0301 10.0443 9.97273 10.0322 9.91838 10.0201C9.80666 9.98982 9.69795 9.94744 9.59227 9.89296C9.52885 9.85966 9.4594 9.8082 9.4594 9.73858C9.4594 9.70226 9.4745 9.66897 9.49262 9.6387C9.52583 9.57211 9.56207 9.50552 9.59529 9.4359C9.5983 9.36931 9.5047 9.35417 9.43826 9.36325C9.28427 9.38747 9.13329 9.42682 8.98532 9.47827C9.09705 9.36931 9.2118 9.26034 9.32956 9.16045C9.37184 9.12413 9.41411 9.09083 9.46846 9.08175C9.61038 9.06056 9.73419 9.16348 9.88517 9.14229C10.0452 9.11808 10.16 9.05148 10.329 9.05754ZM11.2138 10.0261C11.1987 10.0958 11.1443 10.1472 11.1081 10.2078C11.0719 10.2683 11.0598 10.3591 11.1172 10.4015C11.1353 10.4136 11.1564 10.4196 11.1776 10.4257C11.3859 10.4892 11.552 10.6709 11.5943 10.8858C11.1051 10.804 10.6069 10.7647 10.1086 10.7707C10.2505 10.6618 10.4438 10.6557 10.625 10.6527C10.8424 10.6497 11.0628 10.6497 11.2802 10.6466C11.1564 10.5861 11.0326 10.5225 10.9088 10.462C10.8877 10.4499 10.8635 10.4378 10.8545 10.4166C10.8484 10.3984 10.8514 10.3773 10.8575 10.3561C10.8967 10.2199 10.9481 10.0867 11.0175 9.96257C10.8665 9.92928 10.7125 9.9989 10.5736 10.0685C10.4981 10.1048 10.4257 10.1442 10.3502 10.1805C10.4679 10.0715 11.3376 9.45103 11.2138 10.0261ZM7.76239 8.89409C7.62952 8.90922 7.51176 8.98489 7.40004 9.05754C7.26415 9.14532 7.12827 9.23612 7.02561 9.36023C6.92294 9.48735 6.86255 9.65686 6.90784 9.81123C6.85047 9.62054 6.88972 9.4026 7.00447 9.23915C7.09506 9.11202 7.23094 9.01819 7.29737 8.87593C7.17357 8.91527 7.0558 8.97884 6.95615 9.06056C6.96823 8.9637 6.97729 8.86079 6.94709 8.76696C6.91388 8.67312 6.82631 8.5914 6.72968 8.60048C6.85953 8.56113 7.00749 8.58232 7.12223 8.65799C7.14337 8.67312 7.16451 8.69129 7.19168 8.69734C7.25208 8.71247 7.30643 8.6701 7.36078 8.6368C7.41513 8.60351 7.49666 8.5914 7.52686 8.64588C7.54498 8.67615 7.53894 8.71853 7.56611 8.73972C7.58423 8.75182 7.60537 8.75182 7.6265 8.7488C7.75333 8.73669 8.33913 8.45216 8.4267 8.54297C8.49917 8.61864 8.14286 8.95462 8.09454 9.04846C8.02811 8.93646 7.89525 8.87895 7.76239 8.89409ZM5.75737 9.7628C5.67886 9.51157 5.63055 9.25126 5.60941 8.98792C5.56412 8.97278 5.51883 9.03635 5.47051 9.02424C5.44333 9.01516 5.43126 8.98187 5.4222 8.95462C5.38294 8.81539 5.34671 8.67918 5.31349 8.53691C5.43126 8.53994 5.48863 8.72761 5.60941 8.7155C5.63659 8.71247 5.66376 8.69734 5.68792 8.6822C5.74227 8.64285 5.78757 8.5914 5.84796 8.5581C5.90533 8.52481 5.98686 8.51573 6.03518 8.56113C6.05329 8.57929 6.06537 8.60048 6.08349 8.61864C6.14086 8.67615 6.23749 8.65799 6.31902 8.65496C6.41565 8.65194 6.43678 8.70037 6.49415 8.7488C6.44886 8.70945 6.62098 9.00305 6.6089 8.91225C6.624 9.03938 6.5787 9.02424 6.41262 9.09083C6.22541 9.16953 5.66679 9.47222 5.75737 9.7628ZM4.64616 9.19677C4.63408 9.19375 4.622 9.18769 4.61596 9.17861C4.6069 9.16651 4.60992 9.15137 4.60992 9.13624C4.61898 9.05754 4.64314 8.97884 4.67636 8.90619C4.62804 9.00911 4.56161 9.10597 4.4831 9.18769C4.44385 9.22704 4.39855 9.26942 4.39553 9.3239C4.39251 9.39957 4.47102 9.45708 4.54349 9.45708C4.61898 9.45708 4.68541 9.42076 4.75184 9.38444C4.81828 9.34812 4.88773 9.31179 4.9602 9.31785C5.12326 9.32996 5.30745 9.06965 5.10212 9.02727C4.99341 9.00305 4.84545 9.24823 4.64616 9.19677ZM4.006 9.74767C3.84295 9.70832 3.77651 9.5146 3.75236 9.35114C3.72518 9.17559 3.71612 8.99397 3.76444 8.82144C3.77652 8.77906 3.79161 8.73366 3.77349 8.69431C3.75538 8.65496 3.68593 8.64286 3.67385 8.68523C3.62856 8.60653 3.68593 8.50362 3.76746 8.46427C3.84899 8.42492 3.94259 8.43097 4.03016 8.434C4.2053 8.44005 4.38043 8.42795 4.55557 8.41584C4.42573 8.57626 4.18416 8.5581 4.0815 8.75182C4.03922 8.84263 3.92448 9.7295 4.006 9.74767ZM2.54754 8.44914C2.61095 8.49757 2.67436 8.546 2.74079 8.59443C2.82232 8.65799 2.91593 8.73669 2.90687 8.8396C2.90083 8.91527 2.83742 8.97581 2.78005 9.02424C2.72871 9.06965 2.67738 9.11505 2.62907 9.15742C2.60189 9.18164 2.57471 9.20585 2.5415 9.21796C2.45997 9.25126 2.36636 9.21494 2.29691 9.16348C2.22746 9.11202 2.17311 9.03938 2.10366 8.98792C2.0493 8.94857 1.97683 8.9183 1.91342 8.94252C1.85001 8.96673 1.81377 9.06056 1.86511 9.10597C1.70809 8.90922 1.6175 8.65799 1.61448 8.40676C1.61448 8.37952 1.61448 8.34925 1.62656 8.32201C1.64166 8.28871 1.66883 8.2645 1.69903 8.24331C1.79566 8.16764 1.88927 8.08894 1.98589 8.01327C2.11271 7.91338 2.32409 7.78928 2.38448 7.9951C2.39958 8.05261 2.33013 8.14039 2.3422 8.21001C2.36334 8.31293 2.46299 8.38557 2.54754 8.44914ZM23.576 16.7458C23.6606 16.5581 23.8327 16.4128 24.032 16.3644C23.9867 16.5945 23.7844 16.7821 23.5519 16.8063M24.1588 16.8699C24.2464 16.7912 24.3883 16.7852 24.4849 16.8548C24.337 16.994 24.1165 17.0576 23.9172 17.0152C23.8961 16.9516 23.9746 16.879 24.035 16.9062M24.5665 17.5267C24.6812 17.4632 24.8503 17.551 24.8654 17.6841C24.7265 17.7598 24.5151 17.5933 24.4125 17.7114C24.3581 17.7719 24.3792 17.8627 24.3792 17.9414C24.3823 18.0201 24.334 18.123 24.2554 18.1079C24.2041 18.0988 24.1769 18.0413 24.18 17.9899C24.183 17.9384 24.2132 17.893 24.2403 17.8506C24.3128 17.7356 24.3853 17.6236 24.4608 17.5086M21.3415 19.0008C21.0396 19.0856 20.7889 19.3368 20.7104 19.6425C20.6651 19.8151 20.6682 20.0058 20.5685 20.151C20.4598 19.8877 20.5021 19.5336 20.2666 19.3762C20.0854 19.2551 19.8438 19.3308 19.6294 19.3701C19.6022 19.3762 19.572 19.3792 19.5479 19.3701C19.4996 19.3519 19.4815 19.2884 19.4935 19.2369C19.5871 18.8888 20.0008 18.6406 20.3118 18.7072C20.487 18.7435 20.6531 18.8071 20.8373 18.8404C20.9158 18.8495 21.3083 19.0099 21.3415 19.0008ZM18.9591 18.7314C19.0225 18.8949 19.101 19.0704 19.0497 19.2369C19.0164 19.3429 18.9379 19.4246 18.8624 19.5033C18.6179 19.7545 18.3461 20.0179 17.9988 20.0572C17.9686 19.9664 18.02 19.8695 18.0894 19.8029C18.1589 19.7394 18.2464 19.694 18.3159 19.6304C18.4699 19.4851 18.5122 19.2551 18.5454 19.0432C18.5695 18.8858 18.5937 18.7254 18.6179 18.568C18.6299 18.4953 18.642 18.4197 18.6631 18.35C18.7054 18.2199 18.7809 18.0958 18.8957 18.0231C18.953 18.2381 18.8624 18.4832 18.9591 18.7314ZM17.2077 18.4499C17.0869 18.3985 16.9601 18.3682 16.8302 18.3531C16.8001 18.35 16.7668 18.35 16.7457 18.3712C16.7246 18.3894 16.7246 18.4227 16.7276 18.4499C16.7366 18.6346 16.7306 18.792 16.7548 18.9736C16.785 19.1976 16.8302 19.3126 16.7366 19.5184C16.9691 19.243 17.1745 19.0765 17.3557 18.7647C17.407 18.677 17.4553 18.5892 17.5308 18.5226C17.6063 18.456 17.712 18.4166 17.8086 18.4499C17.8569 18.6679 17.6939 18.8737 17.5368 19.0311C17.3768 19.1885 17.1956 19.361 17.1896 19.585C17.1866 19.7545 17.2892 19.9059 17.3859 20.0451C17.3345 19.9089 17.416 19.7636 17.4915 19.6425C17.6123 19.4518 17.7301 19.2642 17.8509 19.0735C17.9052 18.9857 17.9626 18.8949 18.0471 18.8313C18.1196 18.7768 18.2042 18.7466 18.2766 18.6981C18.3491 18.6467 18.4125 18.565 18.4004 18.4772C18.3733 18.2895 18.1196 18.2562 18.0743 18.0686C17.7391 18.235 17.5791 18.3168 17.2983 17.9747C17.3104 18.1382 17.2862 18.3046 17.2077 18.4499ZM15.6496 19.9331C15.6466 19.9331 15.6435 19.9331 15.6405 19.9361C15.4926 19.9664 15.3416 19.9361 15.1966 19.8938C15.1966 19.8241 15.2903 19.806 15.3597 19.7848C15.5197 19.7364 15.6073 19.5517 15.6043 19.3822C15.5983 19.2127 15.5228 19.0583 15.4443 18.907C15.3959 18.8616 15.3144 18.904 15.2752 18.9585C15.2359 19.0129 15.2178 19.0826 15.1634 19.1219C14.9913 19.246 14.7528 18.9373 14.5655 19.0372C14.4901 19.0765 14.4538 19.1764 14.3753 19.2097C14.3814 19.1098 14.3874 19.0069 14.4327 18.9161C14.478 18.8283 14.5776 18.7556 14.6743 18.7768C14.8584 18.8132 14.8705 18.8737 15.0517 18.8374C15.2087 18.8071 15.3084 18.6527 15.5046 18.6891C16.2052 18.8222 16.1055 20.4386 15.1121 20.0451C15.0336 20.1964 14.937 20.3387 14.8041 20.4477C15.097 20.3538 15.6496 19.9331 15.6496 19.9331ZM14.0854 18.5589C14.0734 18.5407 14.1005 18.5196 14.1217 18.5286C14.1398 18.5377 14.1488 18.5619 14.1488 18.5831C14.1609 18.7314 14.0341 18.8616 13.8922 18.904C13.7503 18.9463 13.5993 18.9191 13.4543 18.8919C13.3094 18.8646 13.1735 18.8404 13.0316 18.8676C13.3396 19.137 13.6415 19.3792 13.7503 19.806C13.8106 20.0451 13.8106 20.2933 13.8439 20.5385C13.8016 20.2237 13.0225 19.4276 13.1796 19.2823C13.3034 19.1673 13.705 19.2551 13.865 19.2188C14.1519 19.1522 14.3783 18.9706 14.475 18.686C14.4931 18.6315 14.5052 18.565 14.478 18.5135C14.4387 18.4439 14.3481 18.4287 14.2666 18.4227C14.17 18.4136 14.0432 18.4257 14.013 18.5165M11.6758 19.1491C11.3889 19.3247 11.1594 19.5911 11.0296 19.9028C11.0839 19.6667 11.1292 19.4306 11.1685 19.1945C11.1776 19.1431 11.1836 19.0916 11.1685 19.0432C11.1534 18.9978 11.1172 18.9645 11.0809 18.9312C10.8092 18.6921 10.4679 18.5286 10.1116 18.4742C10.625 18.2956 11.2198 18.3833 11.6577 18.7012C11.7724 18.7859 11.8902 18.8676 12.0079 18.9433C11.9234 19.0311 11.7905 19.0795 11.6758 19.1491Z" fill="#FFE7E7"/>
<path d="M9.32091 18.6129C9.55644 18.9186 9.71346 19.2849 9.77083 19.6693C9.78895 19.7964 9.80103 19.9327 9.88256 20.0295C9.93087 19.9932 9.99126 19.9781 10.0486 19.9871C10.0577 19.6269 9.8433 19.3061 9.63797 19.0125C9.86444 18.9943 10.0939 19.0549 10.2811 19.185C10.3083 19.2032 10.3325 19.2244 10.3476 19.2516C10.3597 19.2728 10.3657 19.297 10.3717 19.3212C10.3989 19.4211 10.4321 19.518 10.4774 19.6088C10.5016 19.6572 10.5257 19.7056 10.568 19.7389C10.6918 19.8479 10.8851 19.7934 11.0391 19.7329C10.7673 19.8418 10.5559 19.0972 10.4291 18.9883C10.1815 18.7764 9.62589 18.728 9.32091 18.6129ZM6.73009 19.7692C6.40699 19.409 6.02653 19.0942 5.60982 18.846L5.49206 19.1184C5.47696 18.843 5.41053 18.5706 5.2988 18.3163C5.46488 18.4253 5.63398 18.5312 5.80006 18.6402C5.96311 18.7461 6.16543 18.8551 6.34358 18.7764C6.56703 18.6765 6.59421 18.3708 6.79954 18.2588C6.77841 18.7855 6.57911 19.2153 6.73009 19.7692ZM4.15437 19.1336C4.15437 19.2758 4.15135 19.4211 4.15135 19.5634C4.03963 19.4968 3.95206 19.3908 3.90979 19.2698C3.89469 19.3485 3.87959 19.4241 3.86449 19.5028C3.76787 19.5149 3.68633 19.4272 3.6501 19.3364C3.61386 19.2455 3.61085 19.1426 3.57159 19.0549C3.63198 19.1003 3.69237 19.1457 3.75277 19.1941C3.73163 19.1245 3.789 19.0397 3.86147 19.0337C3.93394 19.0276 4.00339 19.1033 3.99433 19.1759C4.07284 19.1305 4.13022 19.0488 4.15135 18.961V19.1971M2.97673 18.6493C3.02504 18.8672 3.12167 19.076 3.25453 19.2546C3.14885 19.2546 3.07034 19.1638 2.99485 19.0912C2.91936 19.0185 2.80461 18.955 2.71402 19.0095C2.81367 18.9156 2.90728 18.8157 2.99787 18.7098" fill="#FFC1C0"/>
<path d="M15.2726 3.51477C15.1005 3.63585 15.0824 3.63585 14.9918 3.8114C15.2515 3.9688 15.487 4.1262 15.7225 4.31689C15.3602 4.12923 15.0401 3.90221 14.6385 3.85378C14.3637 3.82048 14.2037 3.7993 13.9289 3.7993L11.2897 3.78114C11.5977 3.59347 11.9903 3.65401 12.3496 3.61768C12.3949 3.61163 12.4493 3.59952 12.4614 3.55412C12.4734 3.5178 12.4463 3.47845 12.4221 3.44818C12.3074 3.31197 12.1956 3.17576 12.0809 3.03955C12.2258 3.06074 12.3345 3.17576 12.4583 3.25143C12.6606 3.37856 12.9143 3.40278 13.1528 3.38461C13.3914 3.36343 13.6269 3.30289 13.8624 3.26959C14.1825 3.22419 14.5117 3.23024 14.8348 3.2363C15.0824 3.24235 15.2605 3.18484 15.5051 3.19392C15.5927 3.19695 15.795 3.12128 15.7739 3.14246C15.5625 3.34829 15.3602 3.45423 15.2726 3.51477Z" fill="#812C07"/>
<path d="M3.6582 17.23C3.6582 17.3299 3.5495 17.3904 3.46495 17.4449C3.28377 17.5599 3.15091 17.7506 3.10864 17.9625C2.96671 17.6356 2.65569 17.3904 2.30542 17.3269C2.53491 17.3692 2.61342 16.8759 2.77648 16.8214C2.98785 16.7517 3.47703 17.1362 3.6582 17.23Z" fill="#FFC1C0"/>
<path d="M15.0211 0.757587C15.0996 0.806017 15.1751 0.866555 15.2204 0.945254C15.2838 1.06027 15.2717 1.20254 15.2506 1.33572C15.2385 1.41139 15.2264 1.48706 15.2023 1.55971C15.1238 1.78673 14.9335 1.95926 14.7222 2.0652C14.5078 2.17417 14.2722 2.2226 14.0397 2.27405C13.8646 2.31038 13.6925 2.34972 13.5173 2.38605C13.158 2.46172 12.7957 2.54042 12.4273 2.57069C12.2582 2.58582 12.077 2.58582 11.923 2.51015C11.769 2.43448 11.6512 2.26194 11.6905 2.09547C11.7146 1.98953 12.0498 1.48404 12.1283 1.40837C12.4273 1.11173 12.3548 1.18135 12.7413 0.948281C13.0644 0.754561 13.5928 0.497276 13.9793 0.473061C14.3508 0.448846 14.7101 0.557814 15.0211 0.757587Z" fill="#FF2D38"/>
<path d="M13.9838 1.14783C13.706 1.22048 13.4252 1.29615 13.1474 1.36879C12.9904 1.41117 12.8001 1.49289 12.8032 1.65635C12.8032 1.75321 12.8847 1.83493 12.9723 1.86823C13.0628 1.90152 13.1595 1.8985 13.2561 1.89547C13.9265 1.86217 14.6572 1.7411 15.092 1.22956C15.1645 1.33247 15.1584 1.47171 15.1101 1.58673C14.9894 1.89547 14.6451 2.04681 14.3281 2.1467C13.6698 2.3495 12.9874 2.46149 12.3019 2.52506C12.1056 2.54322 11.8671 2.54019 11.7584 2.37372C11.6436 2.20118 11.695 2.07708 11.852 1.82585C11.9607 1.65029 12.012 1.52922 12.163 1.38695C12.2596 1.29312 12.468 1.11151 12.6914 1.01465C12.6612 1.08427 12.5254 1.23258 12.6159 1.3022C12.8213 1.36274 13.1716 1.27496 13.3678 1.21745C13.4675 1.19021 13.5701 1.15691 13.6758 1.14178C13.7694 1.12664 13.9053 1.16902 13.9838 1.14783Z" fill="#C13D2E"/>
<path opacity="0.8" d="M14.6658 1.57198C14.7443 1.57501 14.7956 1.6083 14.9013 1.57198C15.007 1.53566 15.2063 1.43577 15.1791 1.52052C15.1429 1.6416 15.0946 1.69608 15.001 1.81413C14.9225 1.91402 14.7232 2.03812 14.6054 2.08352C14.4605 2.13801 14.3306 2.16525 14.1706 2.20762C14.0407 2.24395 13.8384 2.27119 13.7056 2.30448C13.5093 2.35594 13.2496 2.40134 13.0473 2.42253C12.6849 2.45885 12.2169 2.21973 11.8545 2.25605C12.0991 2.11682 12.1807 2.10471 12.4403 1.99574C12.8057 1.83834 13.5999 1.74451 13.9864 1.64765C14.1947 1.59317 14.3034 1.63554 14.3427 1.61133C14.3427 1.61133 14.4212 1.5629 14.6658 1.57198Z" fill="#740800"/>
<path opacity="0.5" d="M14.826 1.35677C14.7052 1.39006 14.5754 1.3598 14.4606 1.31439C14.3459 1.26899 14.2342 1.20542 14.1134 1.17818C13.9926 1.15094 13.8658 1.15397 13.742 1.1691C13.1652 1.23569 12.9116 1.33255 12.3922 1.58984C12.3288 1.62011 11.9876 1.85015 11.9393 1.90463C11.8517 2.00452 11.8457 2.1256 11.7641 2.23154C11.6977 2.0469 11.8185 1.88647 11.9393 1.73513C12.1567 1.45666 12.2201 1.33861 12.5855 1.09948C12.6609 1.05105 12.8874 0.942087 12.975 0.920898C12.8059 0.984463 12.676 1.12673 12.6217 1.30229C13.2437 1.06922 13.8507 0.905764 14.512 0.93906C14.6448 0.945114 14.9317 0.954194 14.974 1.12067C15.0011 1.22964 14.9407 1.29018 14.8381 1.35374L14.826 1.35677Z" fill="#FC918F"/>
<path d="M14.3843 0.978516C14.5171 1.04511 14.656 1.10564 14.7949 1.1571C14.7225 1.18434 14.6439 1.1571 14.5715 1.14197C14.4718 1.12078 14.3722 1.11472 14.2695 1.12683C14.3057 1.07235 14.345 1.02392 14.3873 0.978516M13.4874 1.09656C13.5388 1.08446 13.5992 1.07538 13.6263 1.09656C13.6535 1.11472 13.6324 1.15407 13.5931 1.17526C13.5539 1.19948 13.5025 1.21158 13.4542 1.22369C13.2308 1.27515 13.0073 1.3145 12.7869 1.37201C12.5665 1.42952 12.346 1.51125 12.1799 1.62627C12.2343 1.52941 12.3974 1.45071 12.5544 1.39622C12.8775 1.28726 13.1462 1.16921 13.4874 1.09656Z" fill="#FFC5C5"/>
<path d="M12.5266 2.0015C12.7108 1.95609 12.898 1.92583 13.0882 1.91372C13.2664 1.90161 13.4446 1.93491 13.6197 1.92885C13.7103 1.92583 13.8039 1.8895 13.8945 1.88042C14.0002 1.87134 14.1058 1.87134 14.2085 1.87437C14.6886 1.89253 15.1657 1.97123 15.6277 2.10744C15.7425 2.14073 15.8602 2.18008 15.9508 2.25576C16.132 2.4071 16.1773 2.70071 16.0444 2.89745C15.9901 2.97918 15.9146 3.03972 15.8361 3.09723C15.4798 3.35754 15.051 3.51796 14.6131 3.56337C14.4682 3.5785 14.3202 3.5785 14.1753 3.58153L13.5835 3.59061C13.3449 3.59364 13.1064 3.59666 12.8738 3.55126C12.5266 3.48467 12.2005 3.30608 11.9438 3.0609C11.8411 2.96404 11.7475 2.85205 11.7053 2.71584C11.663 2.58266 11.6781 2.41921 11.7747 2.31932C11.823 2.26786 11.8864 2.23759 11.9499 2.20733C12.0737 2.14679 12.4753 2.01361 12.5266 2.0015Z" fill="#FF2E39"/>
<path opacity="0.8" d="M15.0309 3.35474C14.9463 3.38804 14.8648 3.42436 14.7772 3.44858C14.6504 3.48187 14.5145 3.48187 14.3847 3.4849C14.1914 3.4849 14.0012 3.48793 13.811 3.4516C13.6177 3.41528 13.4305 3.33961 13.2402 3.29421C12.8537 3.19735 12.4461 3.20945 12.0656 3.08838C12.1532 3.22762 12.271 3.34869 12.4068 3.44252C12.4431 3.46674 12.4823 3.49095 12.5035 3.5303C12.5246 3.56965 12.5216 3.62414 12.4853 3.64835C12.4461 3.67257 12.3736 3.66349 12.3736 3.71192C12.425 3.73008 12.4763 3.72705 12.5306 3.72402C13.1738 3.69981 13.817 3.71192 14.4571 3.76035C14.5387 3.7664 14.6172 3.77245 14.6957 3.79364C14.738 3.80575 14.7802 3.81786 14.8225 3.81483C14.9191 3.80575 14.9765 3.70889 15.0429 3.63927C15.1064 3.57268 15.1879 3.52728 15.2694 3.48187C15.3751 3.42134 15.4808 3.36382 15.5865 3.30329C15.6499 3.26696 15.7828 3.22762 15.662 3.18827C15.5804 3.16102 15.4506 3.21853 15.3721 3.23972C15.2573 3.26999 15.1426 3.30934 15.0309 3.35474Z" fill="#B50D00"/>
<path d="M12.3431 2.10416C12.3763 2.09811 12.4125 2.09508 12.4487 2.08903C12.5514 2.07389 12.6601 2.02243 12.7628 2.03454C12.79 2.03757 12.8171 2.04362 12.8383 2.05876C12.8624 2.07692 12.8745 2.10416 12.8866 2.1314C12.9168 2.21313 12.9258 2.30393 12.9742 2.37961C13.0164 2.4462 13.0829 2.4916 13.1523 2.53398C13.2912 2.62176 13.4361 2.70348 13.5901 2.75797C13.8951 2.86693 14.2243 2.87299 14.5474 2.87601C14.7708 2.87904 14.9943 2.88207 15.2117 2.83364C15.4593 2.77915 15.6948 2.65505 15.9485 2.65808C15.9756 2.75494 15.879 2.83969 15.7914 2.89418C15.3476 3.16659 14.8554 3.36031 14.342 3.4602C14.0823 3.51166 13.8166 3.5389 13.5539 3.52074C13.1976 3.49652 12.8534 3.39361 12.5182 3.26951C12.3521 3.20897 12.186 3.13935 12.0502 3.02433C11.9143 2.90931 11.8176 2.7398 11.8267 2.56425C11.8297 2.48252 11.8599 2.40079 11.9203 2.34631C11.9898 2.28275 12.0864 2.26761 12.1709 2.22524C12.2374 2.19194 12.2857 2.14956 12.337 2.11021L12.3431 2.10416Z" fill="#C13E30"/>
<path opacity="0.5" d="M13.1498 2.7098C13.6269 2.79758 14.1131 2.88536 14.5962 2.85812C15.022 2.8339 15.4447 2.72493 15.8705 2.74612C15.8946 2.74612 15.9188 2.74915 15.9339 2.77034C15.961 2.80363 15.9248 2.85206 15.8886 2.87325C15.807 2.92168 15.7104 2.93379 15.6168 2.9459C14.7683 3.0367 13.9138 2.89141 13.0653 2.80363C12.8056 2.77639 12.5459 2.7552 12.2862 2.74007C12.1865 2.73401 12.0778 2.72493 12.0114 2.65229C11.9903 2.6311 11.9752 2.60386 11.9752 2.57359C11.9661 2.4737 12.102 2.38895 12.1835 2.36171C12.3043 2.31631 12.3677 2.39803 12.4583 2.47068C12.6576 2.61597 12.9082 2.66742 13.1498 2.7098Z" fill="#F79492"/>
<path d="M12.1741 2.50391C12.3281 2.51601 12.47 2.58866 12.6059 2.65828C12.7146 2.71276 12.8203 2.76724 12.929 2.82476H12.8324C12.5546 2.82476 12.2587 2.8187 12.0262 2.67038C12.008 2.65828 11.9869 2.64314 11.9869 2.62195C11.9839 2.58563 12.0322 2.5705 12.0684 2.56747C12.1469 2.55839 12.2224 2.55234 12.3009 2.54326M15.692 2.75514C15.7131 2.74606 15.7373 2.73698 15.7584 2.74C15.7825 2.74 15.8067 2.75211 15.8127 2.77633C15.8248 2.8187 15.7705 2.84897 15.7282 2.86108C15.701 2.86713 15.6738 2.87621 15.6467 2.88227C15.4474 2.93675 15.236 2.99123 15.0337 2.9428C14.9914 2.9307 14.9491 2.91556 14.9069 2.90043C14.8193 2.86713 14.7347 2.83686 14.6472 2.80357C14.8495 2.79449 15.0488 2.87016 15.2481 2.85805C15.39 2.84897 15.5621 2.80054 15.692 2.75514Z" fill="#FFC5C5"/>
<defs>
<linearGradient id="paint0_linear_1801_11856" x1="20.3248" y1="2.16684" x2="8.16771" y2="5.85912" gradientUnits="userSpaceOnUse">
<stop stop-color="#FFA16F"/>
<stop offset="1" stop-color="#FF782F"/>
</linearGradient>
</defs>
</svg>
