<svg width="38" height="17" viewBox="0 0 38 17" fill="none" xmlns="http://www.w3.org/2000/svg">
<path d="M27.5805 8.36568C29.4448 9.95566 31.3418 10.0882 33.5004 12.3075C33.991 12.8044 36.0188 13.0694 37.1309 13.5331C36.444 13.9306 33.6967 14.8912 32.5519 14.9575C28.4963 15.1231 26.7956 15.09 25.5527 14.9575C20.7776 14.4606 16.7874 15.2887 12.0449 14.6925C11.1945 14.5931 10.2787 14.5931 9.46108 14.4275C8.80695 14.2619 8.18553 13.9637 7.5641 13.7981C5.76524 13.2681 5.79794 12.44 6.48478 10.7507C7.10621 9.29317 8.02199 7.86881 9.29755 6.94132C10.7366 5.88133 12.6009 5.48383 14.3017 4.92072C16.4603 4.19197 18.8152 4.42385 20.9411 3.72823C21.8896 3.39698 23.623 3.33073 24.5061 3.89385C25.5854 5.02009 26.3704 7.33882 27.5805 8.36568Z" fill="#F9E28B"/>
<path d="M27.5805 8.36599C29.4448 9.95597 31.3418 10.0885 33.5004 12.3078C33.991 12.8047 36.0188 13.0697 37.1309 13.5334C37.0654 13.5666 36.9673 13.6328 36.8365 13.6659C36.7057 13.5666 36.5421 13.5003 36.3459 13.5334C34.4816 13.7653 32.879 12.4072 31.5053 11.3141C30.8512 10.8172 30.1971 10.2872 29.4775 9.8566C28.7253 9.42598 27.9076 8.96223 27.2208 8.36599C25.9125 7.20662 25.3565 5.51727 24.3426 4.12603C24.179 3.92728 24.0482 3.72853 23.8847 3.52979C24.1463 3.59603 24.3426 3.69541 24.5388 3.79478C25.5854 5.0204 26.3704 7.33912 27.5805 8.36599Z" fill="#FFC137"/>
<path d="M2.42899 8.13396C3.37748 7.57084 4.19515 6.9746 5.14364 6.34523C5.66694 6.01398 6.05943 5.64961 6.55002 5.28524C7.07333 4.88774 7.69475 4.85462 8.21806 4.49025C8.67595 4.19212 9.06843 3.7615 9.55903 3.49651C10.115 3.19838 10.7365 3.03276 11.3252 2.80089C12.4372 2.30402 13.5165 1.80715 14.694 1.44278C15.7733 1.11153 16.8526 0.680911 17.9973 0.449039C19.0439 0.217166 20.1887 0.250291 21.2026 0.0846677C22.38 -0.0809556 23.2304 -0.0809566 24.1135 0.813409C24.9638 1.67465 24.6041 2.76776 24.5386 3.82775C23.3612 3.894 22.6744 3.96025 21.6605 4.52337C20.7774 5.02024 19.927 5.55024 19.0112 5.91461C17.8338 6.34523 16.9834 7.14022 15.8714 7.67021C14.7921 8.16708 13.6474 8.20021 12.5026 8.46521C11.2925 8.7302 10.8346 9.29332 9.9188 10.0552C9.26467 10.5852 7.66205 11.8108 7.69476 12.7714L7.49851 12.9702C6.58273 13.0364 5.66694 12.6058 4.84928 12.2414C3.93349 11.8108 2.78876 12.0427 1.80757 11.7777C0.695543 11.4464 0.237648 10.9164 0.695541 9.72394C0.957193 8.9952 1.77486 8.53146 2.42899 8.13396Z" fill="#FFC137"/>
<path d="M24.0811 0.846548C24.212 0.979047 24.3101 1.11155 24.4082 1.24405C23.8195 0.979048 23.6232 0.614675 23.0345 0.382802C22.315 0.0846803 21.4319 0.283429 20.9086 0.349678C20.2218 0.415927 19.5676 0.515301 18.8808 0.680925C17.9977 0.879673 17.1146 0.945922 16.2643 1.14467C14.5962 1.54217 13.2226 2.53591 11.718 3.3309C10.9004 3.76152 9.9846 3.99339 9.16693 4.42401C8.44739 4.82151 7.79326 5.28525 7.10642 5.71587C6.45229 6.11337 5.11131 6.51087 4.032 7.10711C4.39177 6.87524 4.75154 6.61024 5.14402 6.34524C5.66733 6.01399 6.05981 5.64962 6.55041 5.28525C7.07371 4.88776 7.69514 4.85463 8.21844 4.49026C8.67633 4.19214 9.06881 3.76152 9.55941 3.49652C10.1154 3.1984 10.7368 3.03278 11.3256 2.8009C12.4376 2.30403 13.5169 1.80716 14.6943 1.44279C15.7737 1.11155 16.853 0.680926 17.9977 0.449053C19.0443 0.21718 20.1891 0.250306 21.203 0.0846823C22.3477 -0.080941 23.1981 -0.0478178 24.0811 0.846548Z" fill="#FEB41F"/>
<path d="M0.565346 10.0553C0.565346 10.0221 0.565344 9.98901 0.598049 9.95589C0.630756 9.88964 0.63076 9.82339 0.663467 9.72402C0.957827 8.96215 1.77549 8.49841 2.42962 8.10091C2.69127 7.93529 2.95292 7.76966 3.21458 7.60404C2.72398 8.00154 2.46233 8.56465 3.54164 8.66403C4.78449 8.53153 5.92923 9.55839 7.17208 9.12777C7.82621 8.8959 8.2841 8.53153 9.03635 8.53153C9.62507 8.53153 10.2792 8.43216 10.7044 7.96841C11.2277 7.43842 11.2604 6.70967 12.1108 6.67655C12.7976 6.64342 13.419 6.64342 14.0732 6.3453C14.7927 6.01406 15.3487 5.45094 16.0683 5.15281C16.6897 4.92094 17.5074 4.68907 17.9325 4.12595C18.0961 3.89408 18.325 3.39721 18.6194 3.36408C19.0119 3.26471 19.4043 3.33096 19.8295 3.33096C20.5491 3.33096 21.1705 3.23158 21.8246 2.86721C22.3479 2.56909 23.5908 2.70159 24.1795 2.50284C24.6047 2.37034 24.4412 1.9066 24.6701 1.6416C24.8336 2.30409 24.6374 3.06596 24.6047 3.7947C23.4273 3.86095 22.7404 3.9272 21.7265 4.49032C20.8434 4.98719 19.9931 5.51719 19.0773 5.88156C17.8998 6.31218 17.0495 7.10717 15.9374 7.63716C14.8581 8.13403 13.7134 8.16716 12.5687 8.43216C11.3585 8.69715 10.9006 9.26027 9.98484 10.0221C9.33071 10.5521 7.72809 11.7777 7.7608 12.7384L7.56456 12.9371C6.64877 13.0034 5.73299 12.5727 4.91533 12.2084C3.99954 11.7777 2.85481 12.0096 1.87361 11.7446C0.892412 11.4796 0.401812 11.0159 0.630758 10.0884C0.532639 10.1215 0.53264 10.0884 0.565346 10.0553Z" fill="#FEB41F"/>
<path d="M36.8365 15.5537C36.3132 15.9512 33.435 16.9449 31.5707 16.6799C29.8373 16.4149 27.4824 17.2099 25.1275 16.9449C23.9174 16.8124 20.3851 16.2162 18.2264 16.5474C15.0866 17.0112 11.5543 15.8187 9.13401 15.3549C6.68102 14.8912 4.03179 14.7587 1.70962 13.7981C-0.449017 12.9037 -0.677963 9.88936 1.67691 9.02812C3.34495 8.43188 6.25584 9.69061 7.26974 11.115C7.59681 11.6118 7.53139 12.1418 8.0547 12.5062C8.28364 12.6718 11.4889 13.8974 12.5355 14.0631C13.7129 14.2287 14.8577 13.9968 16.0024 14.2949C16.5911 14.4606 18.5208 14.7587 19.1095 14.8581C19.6655 14.9574 21.1373 14.5599 22.3148 14.5599C23.7539 14.5599 30.3606 15.2887 33.0752 14.5268C34.1873 14.2287 35.332 14.3612 37.1309 13.5331C36.7711 14.1293 37.3925 15.1893 36.8365 15.5537Z" fill="#FFD26C"/>
<path d="M1.67692 9.02812C3.34495 8.43188 6.25584 9.69061 7.26974 11.115C7.59681 11.6118 7.5314 12.1418 8.0547 12.5062C8.28365 12.6718 11.4889 13.8974 12.5355 14.0631C13.7129 14.2287 14.8577 13.9968 16.0024 14.2949C16.5911 14.4606 18.5208 14.7587 19.1095 14.8581C19.6655 14.9574 21.1373 14.5599 22.3148 14.5599C23.7539 14.5599 30.3606 15.2887 33.0752 14.5268C34.1873 14.2287 35.332 14.3612 37.1309 13.5331C36.8038 14.0962 37.3271 15.0568 36.9019 15.4874C36.8038 14.7587 37.1963 14.1293 36.2805 14.2287C35.0049 14.3943 32.8463 15.0237 31.5707 15.1893C30.4914 15.3218 29.4121 15.3549 28.3328 15.3881C27.0899 14.9906 25.7163 15.0568 24.4407 14.9574C22.3802 14.7918 20.2543 14.9243 18.1937 14.9243C18.161 14.9243 18.1283 14.9243 18.0956 14.9243C17.605 14.8249 17.1471 14.6924 16.6565 14.5931C15.6099 14.3612 14.4652 14.1624 13.4186 14.4274C13.0588 14.3612 12.7317 14.2949 12.372 14.2618C12.3393 14.2618 12.2739 14.2618 12.2411 14.2618C12.0122 14.1293 11.816 14.0299 11.6851 13.9637C10.5731 13.4668 9.39567 13.1025 8.21824 12.9368C7.13892 11.8106 6.51749 10.1875 5.01299 9.49186C3.77014 8.92875 1.70963 8.76312 0.728428 9.95561C0.205124 10.6181 0.00888062 11.3468 0.139709 12.0756C-0.252769 10.9162 0.20512 9.55812 1.67692 9.02812Z" fill="#F2A317"/>
<path d="M12.8626 3.43019C14.0727 2.93332 14.8577 1.90646 16.1986 1.60833C16.722 1.47583 17.3107 1.47583 17.834 1.37646C18.39 1.27708 19.1422 1.34333 19.6983 1.17771C20.1561 1.04521 20.4178 0.747091 20.9084 0.647717C21.2682 0.581468 21.8896 0.515219 22.2167 0.647717L22.4783 0.515218C22.8708 0.482094 23.4595 0.780217 23.623 1.11146C23.2633 1.34334 22.6746 1.24396 22.2167 1.24396C22.3802 1.37646 22.3802 1.54208 22.4456 1.70771C21.8242 1.77395 21.2355 1.47583 20.5813 1.54208C20.4832 2.3702 19.3058 2.3702 18.6189 2.56895C17.6377 2.83395 16.8201 2.20458 15.9043 2.83394C15.4137 3.16519 15.0539 3.49644 14.6941 3.96018C14.2363 4.5233 14.0727 4.5233 13.3205 4.68892C12.3393 4.88767 11.4562 5.38454 10.475 5.61642C10.2788 5.91454 9.91898 5.78204 9.62462 5.94766C9.36297 6.08016 9.13402 6.37828 8.87237 6.54391C8.54531 6.74266 7.85847 6.8089 7.56411 7.0739C7.30246 7.3389 7.49869 7.70327 7.30245 7.93514C7.07351 8.16702 6.5175 8.03452 6.25584 8.13389C5.86337 8.26639 5.79795 8.36576 5.43818 8.49826C4.98029 8.66388 3.60661 8.99513 3.27955 8.63076C3.60661 8.29951 4.12992 8.20014 4.52239 7.90202C5.17653 7.40515 5.60172 6.90828 6.38667 6.57703C6.97539 6.34516 7.36787 6.04704 7.82576 5.74892C8.31636 5.45079 9.03591 5.55017 9.42839 5.15267C8.77425 4.22518 12.3066 3.66206 12.8626 3.43019Z" fill="#FFD264"/>
<path d="M25.7804 7.50456C25.9767 7.70331 26.271 7.90206 26.3364 8.16705L26.3691 8.20018C26.1729 8.29956 25.944 8.29956 25.7477 8.3658C25.4534 8.46518 25.2898 8.53143 24.9628 8.53143C24.2759 8.56455 23.7199 8.26643 23.1966 7.83581C22.3462 7.10707 22.0519 5.58333 22.8368 4.68896C23.4255 5.11959 23.9489 5.6827 24.5049 6.17957C24.9628 6.64332 25.3879 7.07394 25.7804 7.50456Z" fill="#FFB79B"/>
<path d="M23.2961 5.05322C23.7213 5.41759 24.1464 5.84821 24.5389 6.21259C24.9641 6.61008 25.3893 7.07382 25.7818 7.50445C25.8145 7.57069 25.8799 7.60382 25.9453 7.67007C25.8799 7.86882 25.7164 8.00132 25.422 8.03444C24.866 8.06757 24.2446 8.03444 23.9502 7.90194C23.6559 7.76944 23.3288 7.37195 23.1653 7.10695C22.969 6.80883 22.8709 6.41133 22.7728 6.17946C22.7401 5.88134 22.8055 5.45072 22.969 5.18572C23.0671 5.08635 23.1325 5.05322 23.2961 5.05322Z" fill="#E04F22"/>
<path d="M25.4219 7.1069C25.3238 7.07378 25.1929 7.14002 25.0948 7.14002C24.5388 7.07377 24.0155 6.77565 23.9174 6.17941C23.8847 6.01378 23.8847 5.81504 23.9174 5.64941C24.1136 5.84816 24.3426 6.04691 24.5388 6.24566C24.8332 6.51066 25.1275 6.80878 25.4219 7.1069Z" fill="#F04714"/>
<path d="M24.5373 6.21269C24.799 6.47769 25.0606 6.74268 25.3223 7.00768C25.2241 6.97456 25.1914 7.07393 25.0933 7.07393C24.9952 7.07393 24.6681 6.90831 24.5046 6.84206C24.5046 6.84206 24.4392 6.84206 24.4065 6.84206C24.3411 6.77581 24.3738 6.77581 24.3411 6.74268C24.3084 6.70956 24.1775 6.64331 24.1448 6.64331C23.9486 6.27894 24.0794 6.17956 23.9486 5.81519C23.9486 5.78207 23.9813 5.71582 23.9813 5.71582C24.1775 5.88144 24.3411 6.04707 24.5373 6.21269Z" fill="#FFAE9B"/>
<path d="M22.5761 6.31215C22.6088 6.3784 22.6088 6.44465 22.6415 6.54402C22.6743 6.7759 22.707 7.00777 22.8378 7.20652C22.9032 7.30589 22.9686 7.37214 23.0667 7.43839C23.1321 7.63714 23.1976 7.76964 23.3284 7.90213C23.4265 8.00151 23.5246 8.06776 23.6227 8.16713C23.7863 8.2665 24.0152 8.29963 24.1788 8.23338C24.4077 8.33276 24.6694 8.39901 24.931 8.36588C25.1927 8.36588 25.487 8.29963 25.7487 8.26651C25.9122 8.23338 26.043 8.16713 26.1084 8.03463C26.1412 8.03463 26.1739 8.03463 26.2066 8.03463C26.2393 8.10088 26.272 8.13401 26.272 8.20026L26.3047 8.23338C26.1084 8.33276 25.8795 8.33276 25.6833 8.399C25.3889 8.49838 25.2254 8.56463 24.8983 8.56463C24.2115 8.59775 23.6555 8.29963 23.1321 7.86901C22.2818 7.14027 21.9874 5.61653 22.7724 4.72217C22.8051 4.72217 22.8051 4.75529 22.8378 4.75529C22.707 4.88779 22.6415 5.08654 22.6415 5.25216C22.6415 5.28529 22.6415 5.31841 22.6415 5.35153C22.478 5.55028 22.4126 5.81528 22.4453 6.08028C22.5761 6.14653 22.5761 6.2459 22.5761 6.31215Z" fill="#E04F22"/>
<path d="M23.2625 7.8026C23.2952 7.83573 23.3279 7.86885 23.3933 7.90198C23.4915 8.00135 23.5896 8.0676 23.6877 8.13385C23.7531 8.16698 23.7858 8.2001 23.8512 8.2001C24.1783 8.39885 24.5381 8.49822 24.9305 8.4651C25.0614 8.4651 25.1922 8.4651 25.323 8.43197C25.4211 8.39885 25.5193 8.36572 25.6174 8.3326C25.6828 8.29947 25.7482 8.26635 25.7809 8.23323C25.8463 8.23323 25.9445 8.2001 25.9445 8.2001C26.0426 8.2001 26.1407 8.16698 26.2715 8.16698C26.3042 8.16698 26.3369 8.16698 26.3696 8.13385L26.4023 8.16698C26.2061 8.26635 25.9772 8.26635 25.7809 8.3326C25.4866 8.43197 25.323 8.49822 24.996 8.49822C24.3091 8.53135 23.7531 8.23323 23.2298 7.8026C22.3794 7.07386 22.0851 5.55013 22.87 4.65576L22.9027 4.68889C22.87 4.72201 22.8373 4.75514 22.8373 4.78826C22.8373 4.78826 22.8373 4.78826 22.8373 4.82139C22.6738 4.95388 22.5757 5.15263 22.543 5.35138C22.543 5.45075 22.5103 5.55013 22.5103 5.6495C22.4448 5.9145 22.4448 6.1795 22.5103 6.44449C22.5757 6.97449 22.87 7.47136 23.2625 7.8026Z" fill="#E62F0B"/>
<path d="M25.2896 7.23926C25.2896 7.27238 25.2896 7.27238 25.2896 7.23926C25.355 7.37176 25.4531 7.53738 25.4531 7.66988C25.4531 7.73613 25.3877 7.90175 25.2896 7.86863C25.1588 7.8355 25.2242 7.60363 25.2242 7.53738C25.1915 7.50426 25.2242 7.23926 25.2896 7.23926Z" fill="#F04714"/>
<path d="M23.3605 5.94774C23.3932 5.94774 23.6549 6.04711 23.6222 6.11336C23.6222 6.11336 23.6222 6.11336 23.5895 6.11336C23.4586 6.14648 23.2951 6.17961 23.1643 6.14648C23.0989 6.11336 22.9353 6.01399 23.0008 5.91461C23.0989 5.81524 23.2951 5.91461 23.3605 5.94774Z" fill="#F04714"/>
<path d="M24.6036 7.703C24.5709 7.76925 24.4401 7.90175 24.3747 7.8355C24.2766 7.73613 24.4074 7.5705 24.4401 7.50425C24.4728 7.47113 24.6036 7.23926 24.6364 7.23926C24.6364 7.23926 24.6364 7.23926 24.6364 7.27238C24.6364 7.37176 24.6691 7.5705 24.6036 7.703Z" fill="#F04714"/>
<path d="M24.1138 7.27279C24.0811 7.33904 23.9502 7.43841 23.8848 7.37216C23.7867 7.27279 23.9175 7.14029 23.9502 7.07404C23.983 7.04091 24.1138 6.84217 24.1465 6.87529V6.90842C24.1792 7.00779 24.1792 7.17341 24.1138 7.27279Z" fill="#F04714"/>
<path d="M23.2629 5.58343C23.1975 5.5503 23.1321 5.38468 23.1975 5.35155C23.2956 5.2853 23.4264 5.4178 23.4591 5.48405C23.4918 5.51718 23.6554 5.6828 23.6227 5.71593H23.5899C23.5245 5.6828 23.361 5.64968 23.2629 5.58343Z" fill="#F04714"/>
<path d="M23.3609 6.87492C23.2955 6.87492 23.132 6.87492 23.132 6.77555C23.132 6.64305 23.3282 6.64305 23.4263 6.64305C23.459 6.64305 23.688 6.60992 23.7207 6.67617H23.688C23.5899 6.74242 23.4591 6.8418 23.3609 6.87492Z" fill="#F04714"/>
<path d="M23.4927 10.7843C23.1983 10.983 22.9366 11.4468 22.5769 11.8112C21.9881 12.4405 21.9227 12.4405 21.1705 12.043C20.5818 11.7449 19.7968 11.5793 20.1566 10.8837C20.3855 10.4531 21.4321 10.2874 21.8246 10.0224C21.4976 9.35994 19.6987 10.9168 20.1566 9.35994C20.3528 8.66432 22.119 8.56495 22.9693 8.79682C23.6235 8.96244 24.9972 9.19432 25.2588 9.98931C25.5532 10.8174 24.7355 11.5793 23.9833 11.4137C23.9833 11.4137 23.2964 11.3143 23.6235 10.8506C23.7216 10.7181 23.7216 10.6187 23.4927 10.7843Z" fill="#DF7A2B"/>
<path d="M23.688 10.4199C23.2301 10.6186 22.9357 11.2149 22.576 11.5792C21.9872 12.2086 21.9218 12.2086 21.1696 11.8111C20.5809 11.513 19.7959 11.3474 20.2538 10.718C20.5481 10.3205 21.3985 10.0555 21.791 9.79051C21.4639 9.12802 19.7632 10.5855 20.1557 9.26052C20.3519 8.5649 22.0854 8.33303 22.9357 8.53177C23.5899 8.6974 24.9308 9.06177 25.1925 9.82363C25.4868 10.6518 24.7019 11.2811 23.9496 11.1155C23.9496 11.1155 23.3936 10.9499 23.6553 10.7511C23.9823 10.5193 23.9496 10.3205 23.688 10.4199Z" fill="#F7D5B5"/>
<path d="M24.4737 9.49223C24.3101 9.29348 24.1466 9.16099 23.8522 9.02849C23.656 8.96224 23.4598 8.89599 23.2635 8.92911C23.2308 8.92911 23.1981 8.92911 23.1654 8.92911L23.1327 8.89599C22.6094 8.33287 21.3011 8.56474 20.7451 8.92911C20.5162 9.09474 20.3199 9.16099 20.1564 9.29348C20.1564 9.26036 20.1891 9.22724 20.1891 9.19411C20.3853 8.49849 22.1188 8.26662 22.9692 8.46537C23.6233 8.63099 24.9643 8.99536 25.2259 9.75723C25.324 10.0554 25.2913 10.3204 25.1932 10.5191C25.2259 10.3866 25.2259 10.221 25.1932 10.0554C25.0624 9.72411 24.768 9.62473 24.4737 9.49223Z" fill="#EB8027"/>
<path d="M24.0163 8.99553C23.5584 8.73053 22.9369 8.56491 22.4136 8.53179C21.7922 8.53179 20.7129 8.63116 20.255 9.12803C20.5494 8.49866 22.1847 8.26679 23.0024 8.49866C23.6565 8.66428 24.9975 9.02866 25.2591 9.79052C25.3572 10.0886 25.3245 10.3536 25.2264 10.5524C25.2264 10.5193 25.2264 10.5193 25.2264 10.4861C25.2591 10.4199 25.2591 10.3536 25.2591 10.2874C25.3245 9.55865 24.5396 9.32678 24.0163 8.99553Z" fill="#EA822B"/>
<path d="M24.016 10.1215C23.6235 10.0552 23.46 10.3865 23.1657 10.5521C22.9694 10.6515 22.8713 10.6515 22.7732 10.8171C22.6423 11.0158 22.5442 11.1152 22.348 11.2808C22.0536 11.5458 21.8574 11.8108 21.4649 11.7777C21.1378 11.7777 20.8108 11.5458 20.5491 11.3802C20.1239 11.1152 20.3856 10.8833 20.7127 10.6515C21.007 10.4527 21.4649 10.3865 21.6939 10.1215C21.7593 10.0221 22.0209 9.79023 22.0863 9.69085C22.1845 9.52523 21.9228 9.45898 21.7266 9.42585C21.5303 9.39273 21.2687 9.42585 21.0724 9.45898C20.9416 9.4921 20.7781 9.59148 20.6472 9.59148C20.2221 9.55835 20.7454 9.06148 20.9089 8.99523C21.6284 8.59774 22.2499 8.69711 22.9694 9.09461C23.2311 9.22711 23.689 9.22711 23.9506 9.35961C24.1141 9.45898 24.2123 9.59148 24.3431 9.69085C24.4739 9.79023 24.572 9.79023 24.7029 9.85648C24.7683 9.8896 24.8337 9.8896 24.8664 9.95585L24.8991 9.92272C25.1935 10.0221 25.128 10.4196 24.9645 10.6183C24.8337 10.784 24.1468 11.1152 24.016 10.8833C23.8852 10.6846 24.1468 10.6515 24.1468 10.4858C24.1468 10.3533 24.1468 10.1546 24.016 10.1215Z" fill="#FFD1AE"/>
<path d="M21.7909 9.32654C21.6928 9.32654 21.3984 9.32654 21.333 9.26029C21.1041 9.06154 21.7255 8.86279 21.8563 8.86279C22.118 8.86279 22.4451 8.99529 22.6413 9.16091C23.0338 9.45903 23.6879 9.32654 24.0477 9.59153H24.0804C24.2439 9.65778 24.342 9.79028 24.4729 9.85653C24.6037 9.92278 24.7672 9.88966 24.8653 10.0884C25.0289 10.4859 24.5383 10.5521 24.4402 10.784C24.2112 10.784 24.342 10.0884 24.0477 9.98903C23.7533 9.88966 23.3281 10.2209 23.1319 10.3865C23.0011 10.4859 22.8702 10.6515 22.7394 10.7509C22.5432 10.8834 22.3469 10.8834 22.2488 11.049C22.0199 11.314 21.889 11.5459 21.5293 11.5459C21.4312 11.5459 21.006 11.4134 20.9406 11.3471C20.777 11.2146 20.7443 10.9496 20.8751 10.8503C21.0387 10.6846 21.4312 10.7178 21.5947 10.5853C21.7255 10.4859 21.7909 10.3203 21.9218 10.1878C21.9872 10.1547 22.0526 10.1215 22.118 10.0553C22.1507 9.98903 22.1507 9.88966 22.1834 9.82341C22.2488 9.69091 22.4123 9.59153 22.2815 9.42591C22.1507 9.29341 21.9217 9.32654 21.7909 9.32654Z" fill="#FDEAE4"/>
<path d="M28.7247 10.5188C28.692 10.4526 28.692 10.4194 28.692 10.3863C29.1826 10.2869 29.0518 10.6844 29.248 10.7175C29.5424 10.7838 29.7059 10.4857 29.6078 10.2207C30.1311 10.1544 30.2619 10.7838 29.804 11.0157C29.8368 10.9825 29.7386 11.115 29.5751 11.0157C29.248 11.115 29.5424 11.4463 29.8368 11.645L29.804 11.6119C30.1311 11.7775 30.0984 12.2082 29.6732 12.2413C29.2153 12.2744 29.4443 11.645 29.0191 11.6782C29.0191 11.7444 29.0191 11.8438 29.0191 11.91C28.692 11.8107 28.5612 12.3407 28.1687 12.3407C28.2341 12.1088 28.3977 11.7113 27.9725 11.7775C28.1033 11.4794 28.6266 11.38 28.4631 11.0157C28.2995 11.0488 28.136 11.1482 27.9725 11.2144C28.0379 10.9825 28.0706 10.7175 27.8744 10.585C28.136 10.5519 28.4958 10.7507 28.7247 10.5188Z" fill="#428C1F"/>
<path d="M17.6371 8.10065C17.5717 7.76941 17.539 6.61004 17.8007 7.33879C17.8988 7.07379 18.324 7.96816 18.6183 7.93503C18.4548 7.53754 18.7819 7.20629 19.1744 7.27254C19.2071 7.60378 18.7819 7.93503 18.88 8.26628C18.9781 8.63065 19.5341 8.6969 19.7304 8.36565C20.0574 8.73002 19.5668 8.66377 19.5014 8.86252C19.3706 9.16064 19.5341 9.65751 19.2725 9.49189C18.6838 9.12752 17.8334 9.82314 17.7353 8.63065C17.5063 8.76315 16.7214 8.8294 17.0484 9.22689C16.3616 9.06127 16.5578 8.4319 16.5251 8.10065C16.427 7.60378 17.212 8.13378 17.6371 8.10065Z" fill="#428C1F"/>
<path d="M32.4207 12.3738C32.944 12.5063 33.7944 13.1025 33.3692 13.6987C33.0094 14.2287 32.0936 14.1625 31.5703 13.9637C30.0985 13.4337 31.4395 11.8438 32.4207 12.3738Z" fill="#3F8E23"/>
<path d="M33.3027 13.5002C33.0084 13.9308 32.4524 13.9308 31.9618 13.8977C31.3403 13.8315 30.8497 13.3015 31.2422 12.7715C31.1114 13.699 32.7794 13.5996 33.3027 13.5002Z" fill="#327C18"/>
<path d="M32.3547 12.4731C32.7472 12.44 32.9434 12.8044 33.1724 13.0694C33.2378 13.1356 33.3359 13.2019 33.2378 13.2681C33.1397 13.3344 33.0088 13.235 32.9434 13.1687C32.8453 13.0694 32.878 12.9037 32.7145 12.8375C32.5837 12.7712 32.3874 12.705 32.2239 12.6719C32.1585 12.6388 31.5698 12.6388 31.8314 12.44C31.9622 12.3406 32.2239 12.44 32.3547 12.4731Z" fill="#52B523"/>
<path d="M17.2795 11.2475C16.4618 11.91 13.6817 12.1418 12.3081 11.91C11.7521 11.8106 11.6866 11.7775 11.1306 11.6118C10.5092 11.4131 10.1821 11.2143 10.2149 10.4856C12.4062 10.9825 15.1863 11.2806 17.3449 10.5187V10.3862C17.3776 10.6844 17.2795 10.9493 17.2795 11.2475Z" fill="#E83315"/>
<path d="M16.2974 11.1481C14.6948 11.4794 12.5034 11.5787 10.9335 11.0487C10.6392 10.9494 10.0504 10.6844 10.214 10.2869C10.3121 9.98876 10.9989 9.79001 11.2606 9.72376C11.8493 9.59126 12.8959 9.26002 13.4846 9.39252H13.3865C14.5639 9.39252 15.7741 9.52501 16.8534 9.95563C17.9981 10.3863 17.0824 10.9494 16.2974 11.1481Z" fill="#FFC8BD"/>
<path d="M16.8542 10.2538C17.4102 10.5519 16.5926 10.7838 16.2655 10.6513C15.7749 10.2207 16.5926 10.1544 16.8542 10.2538Z" fill="#FF4F2E"/>
<path d="M15.7412 10.0878C15.6104 10.121 15.4141 10.121 15.2833 10.0547C15.0871 9.98848 15.1198 9.92223 15.316 9.8891C15.4469 9.85598 15.6104 9.85598 15.7412 9.8891L15.6758 9.92223C15.8393 9.8891 15.9047 10.0216 15.7412 10.0878Z" fill="#FF4F2E"/>
<path d="M11.0324 10.8499C10.8035 10.6843 10.8689 10.5849 11.0978 10.5518C11.2613 10.5518 11.4903 10.5518 11.6211 10.618C11.8501 10.5849 11.8174 10.8499 11.5884 10.9493C11.4249 11.0486 11.1632 10.9493 11.0324 10.8499Z" fill="#FF4F2E"/>
<path d="M12.9948 11.0486C12.7005 10.883 12.7659 10.7505 13.093 10.7505C13.2892 10.7505 13.5508 10.7505 13.7471 10.8499C14.0087 10.8167 13.976 11.1149 13.7144 11.1811C13.4854 11.2474 13.1911 11.148 12.9948 11.0486Z" fill="#F96135"/>
<path d="M13.9763 9.88944C13.7146 9.88944 13.7473 9.62445 14.0417 9.5582C14.2379 9.49195 14.565 9.59132 14.7285 9.72382C15.0229 9.88944 14.9248 10.0219 14.6304 10.0219C14.4015 9.98882 14.1398 9.98882 13.9763 9.88944Z" fill="#F96135"/>
<path d="M15.9369 11.0154C15.7734 11.0486 15.5771 11.0817 15.4136 11.0486C15.2174 11.1148 15.1847 10.8829 15.3809 10.7836C15.5444 10.7173 15.8061 10.7173 15.9369 10.7836C16.1986 10.8498 16.1659 10.9492 15.9369 11.0154Z" fill="#F96135"/>
<path d="M12.3722 11.2475C12.2087 11.2475 11.9797 11.2144 11.8489 11.115C11.62 11.115 11.6527 10.9494 11.8816 10.9162C12.0451 10.8831 12.3068 10.9825 12.4376 11.0487C12.6666 11.1812 12.6012 11.2475 12.3722 11.2475Z" fill="#F96135"/>
<path d="M13.6491 10.4524C13.5182 10.4524 13.0603 10.5187 13.2239 10.2868C13.322 10.1543 13.5837 10.1543 13.7472 10.1543C13.7145 10.1543 13.6818 10.1543 13.6491 10.1543H13.8126C13.8126 10.1543 13.7799 10.1543 13.7472 10.1543C13.9107 10.1543 14.1724 10.1874 14.2051 10.2868C14.2051 10.4524 13.7472 10.4524 13.6491 10.4524Z" fill="#FF4F2E"/>
<path d="M12.1116 10.2536C11.9808 10.2867 11.2286 10.3861 11.294 10.0548C11.3267 9.88922 11.9154 9.7236 12.0462 9.82297C12.1771 9.82297 12.7658 9.78984 12.7331 9.98859C12.7004 10.1542 12.2425 10.2205 12.1116 10.2536Z" fill="#FF4F2E"/>
<path d="M15.4151 10.3861C15.5132 10.3861 15.5786 10.4192 15.6113 10.5186C15.4151 10.7836 14.9899 10.353 15.4151 10.3861Z" fill="#E24326"/>
<path d="M14.7608 10.2205C14.8917 10.2205 15.0225 10.2867 15.0879 10.353C14.7935 10.6511 14.1067 10.1873 14.7608 10.2205Z" fill="#F96135"/>
<path d="M10.6729 10.1875C10.771 10.1875 10.8364 10.2206 10.8691 10.32C10.7056 10.5519 10.2477 10.1544 10.6729 10.1875Z" fill="#E24326"/>
<path d="M12.4054 10.5189C12.5362 10.5189 12.667 10.5852 12.7324 10.7177C12.4381 11.082 11.7512 10.4858 12.4054 10.5189Z" fill="#E24326"/>
<path d="M13.1578 9.62456C13.3541 9.62456 13.5503 9.69081 13.6484 9.82331C13.2233 10.1877 12.1112 9.55831 13.1578 9.62456Z" fill="#E24326"/>
<path d="M14.6285 10.6513C14.8248 10.6513 15.021 10.7838 15.1191 10.9825C14.6612 11.6781 13.5819 10.5519 14.6285 10.6513Z" fill="#E24326"/>
<path d="M29.3795 13.1354C29.5758 13.2016 29.7393 13.301 29.9355 13.3672C29.9028 13.5329 29.9028 13.6985 29.9028 13.8641C28.7254 14.2616 26.6976 14.3941 25.5856 14.1954C25.0296 14.096 24.9641 14.0629 24.4081 13.8972C23.7867 13.6985 23.4596 13.4666 23.4924 12.771C25.2912 13.1685 27.4498 13.4666 29.3795 13.1354Z" fill="#E83315"/>
<path d="M24.5072 11.9762C24.6707 11.9431 24.867 11.8769 25.0632 11.8438C25.7828 12.0094 26.4696 12.175 27.1892 12.3737C27.7125 12.5062 28.2031 12.6719 28.6937 12.8706C29.0861 13.0362 29.4786 13.2019 29.8711 13.3675C29.773 13.4006 29.6749 13.4337 29.5767 13.4669C27.9741 13.7981 25.7828 13.8975 24.2129 13.3675C23.9185 13.2681 23.3298 13.0031 23.4933 12.6056C23.5587 12.2744 24.2456 12.0425 24.5072 11.9762Z" fill="#FFC8BD"/>
<path d="M24.8985 12.9366C25.1274 12.9035 25.0947 13.1685 24.8658 13.2679C24.7022 13.3341 24.4406 13.2679 24.3097 13.1685C24.0808 13.0029 24.1462 12.9035 24.3752 12.8704C24.5387 12.8373 24.7676 12.8373 24.8985 12.9366Z" fill="#FF4F2E"/>
<path d="M26.9912 13.1355C27.2529 13.1024 27.2202 13.4005 26.9585 13.4668C26.7623 13.533 26.4352 13.4336 26.2717 13.3343C25.9773 13.1686 26.0427 13.0361 26.3698 13.0361C26.566 13.0361 26.8277 13.0361 26.9912 13.1355Z" fill="#F96135"/>
<path d="M29.1845 13.0364C29.2499 13.0695 29.3153 13.1027 29.3807 13.1027C29.4788 13.1689 29.4134 13.2352 29.2172 13.3014C29.0536 13.3345 28.8574 13.3677 28.6939 13.3345C28.4976 13.4008 28.4649 13.1689 28.6612 13.0695C28.792 13.0033 29.0209 13.0033 29.1845 13.0364Z" fill="#F96135"/>
<path d="M25.7169 13.3673C25.9459 13.4998 25.8804 13.566 25.6515 13.5329C25.488 13.5329 25.259 13.4998 25.1282 13.4004C24.8993 13.4004 24.932 13.2348 25.1609 13.2017C25.3244 13.2017 25.5861 13.2679 25.7169 13.3673Z" fill="#F96135"/>
<path d="M26.9913 12.4067C26.9586 12.4067 26.9259 12.4067 26.8932 12.4067H27.0567C27.024 12.4067 27.024 12.4067 26.9913 12.4067C27.1549 12.4067 27.4165 12.4399 27.4492 12.5392C27.4492 12.738 27.024 12.7049 26.9259 12.7049C26.7951 12.7049 26.3372 12.7711 26.5007 12.5392C26.5661 12.4399 26.8278 12.4067 26.9913 12.4067Z" fill="#FF4F2E"/>
<path d="M25.3236 12.0755C25.4544 12.0755 26.0431 12.0424 26.0104 12.2411C25.9777 12.4068 25.5198 12.5061 25.4217 12.5392C25.2909 12.5724 24.5386 12.6717 24.604 12.3405C24.604 12.1749 25.1927 12.0093 25.3236 12.0755Z" fill="#FF4F2E"/>
<path d="M27.777 12.5396C27.9405 12.6058 28.104 12.6389 28.2676 12.7052C28.0386 12.8377 27.6789 12.6389 27.777 12.5396Z" fill="#F96135"/>
<path d="M23.9502 12.473C24.0484 12.473 24.1138 12.5062 24.1465 12.6055C23.983 12.8705 23.5251 12.4399 23.9502 12.473Z" fill="#E24326"/>
<path d="M25.6847 12.8045C25.8155 12.8045 25.9463 12.8707 26.0117 13.0032C25.7174 13.4007 25.0305 12.7714 25.6847 12.8045Z" fill="#E24326"/>
<path d="M26.0763 12.1089C26.2398 12.142 26.4361 12.2083 26.5996 12.2414C26.4034 12.2414 26.1744 12.1751 26.0763 12.1089Z" fill="#E24326"/>
<path d="M27.8746 12.937C28.0709 12.937 28.2671 13.0695 28.3652 13.2682C27.94 13.9639 26.828 12.8707 27.8746 12.937Z" fill="#E24326"/>
<path d="M19.8943 12.44C21.039 12.5725 21.3661 13.235 21.0717 13.8313C20.8428 14.3281 19.8289 14.3613 19.371 14.3281C18.8477 14.2619 18.3244 13.8975 18.4552 13.3675C18.586 12.8375 19.0112 12.3075 19.8943 12.44Z" fill="#0D2791"/>
<path d="M19.4369 13.5662C19.9929 13.6987 20.5817 13.6987 21.0723 13.4006C21.0723 13.5 21.0396 13.5993 21.0396 13.6656C20.876 13.8975 20.7125 14.0631 20.4508 14.1293C19.6005 14.3612 18.3249 14.2949 18.6193 13.1356C18.6193 13.1025 18.6193 13.1025 18.6193 13.0693C18.8155 13.3012 19.1099 13.4668 19.4369 13.5662Z" fill="#06175B"/>
<path d="M20.7114 12.7715H20.7441C20.7441 12.7715 20.7441 12.7715 20.7441 12.8046L20.7114 12.7715Z" fill="#4457AA"/>
<path d="M19.3715 12.5724C19.6332 12.5061 19.8948 12.5724 20.1565 12.6386C20.2873 12.6717 20.6798 12.7049 20.7779 12.8042H20.7452L20.8106 12.8374C20.8106 12.8374 20.8106 12.8374 20.8106 12.8042C20.9414 12.8374 21.0723 13.1024 21.0723 13.2017C20.9414 13.2349 20.8106 13.1686 20.7125 13.1024C20.6144 13.003 20.6471 12.9036 20.4835 12.8705C20.2219 12.8042 19.9275 12.8042 19.6659 12.8042C19.5678 12.8042 19.4369 12.8042 19.3388 12.8374C19.2734 12.8705 19.208 12.9699 19.1099 12.9367C18.979 12.8705 19.0118 12.738 19.1099 12.6717C19.1099 12.6055 19.2734 12.5724 19.3715 12.5724Z" fill="#4457AA"/>
<path d="M20.4177 5.94784C21.5625 6.08034 21.8895 6.74283 21.5952 7.33907C21.3662 7.83594 20.3523 7.86907 19.8944 7.83594C19.3711 7.76969 18.8478 7.40532 18.9786 6.87533C19.1095 6.34534 19.5346 5.81534 20.4177 5.94784Z" fill="#0D2791"/>
<path d="M19.9272 7.04082C20.4832 7.17331 21.0719 7.17331 21.5625 6.87519C21.5625 6.97457 21.5298 7.07394 21.5298 7.14019C21.3663 7.37206 21.2027 7.53768 20.9411 7.60393C20.0907 7.83581 18.8151 7.76956 19.1095 6.61019C19.1095 6.57707 19.1095 6.57707 19.1095 6.54395C19.3385 6.77582 19.6001 6.97457 19.9272 7.04082Z" fill="#06175B"/>
<path d="M21.2349 6.2793H21.2676C21.2676 6.2793 21.2676 6.2793 21.2676 6.31242L21.2349 6.2793Z" fill="#4457AA"/>
<path d="M19.8618 6.04717C20.1234 6.01405 20.3851 6.04717 20.6467 6.11342C20.7775 6.14655 21.17 6.17967 21.2681 6.27905H21.2354L21.3008 6.31217C21.3008 6.31217 21.3008 6.31217 21.3008 6.27905C21.4317 6.31217 21.5625 6.57717 21.5625 6.67654C21.4317 6.70967 21.3008 6.64342 21.2027 6.57717C21.1046 6.47779 21.1373 6.37842 20.9738 6.34529C20.7121 6.27905 20.4178 6.27905 20.1561 6.27905C20.058 6.27905 19.9272 6.27905 19.829 6.31217C19.7636 6.3453 19.6982 6.44467 19.6001 6.41155C19.4693 6.3453 19.502 6.2128 19.6001 6.14655C19.6328 6.0803 19.7636 6.0803 19.8618 6.04717Z" fill="#4457AA"/>
<path d="M13.3865 12.3075C13.4192 12.2744 13.3211 12.44 13.1575 12.3075C12.8305 12.4069 13.1248 12.7381 13.4192 12.9369L13.3865 12.9037C13.7135 13.0693 13.6808 13.5 13.2556 13.5331C12.7977 13.5662 13.0267 12.9368 12.6015 12.97C12.6015 13.0362 12.6015 13.1356 12.6015 13.2018C12.2744 13.1025 12.1436 13.6325 11.7511 13.6325C11.8165 13.4006 11.9801 13.0031 11.5549 13.0693C11.6857 12.7712 12.209 12.6719 12.0455 12.3075C11.882 12.3406 11.7184 12.44 11.5549 12.5062C11.6203 12.2744 11.653 12.0094 11.4568 11.8769C11.7511 11.8437 12.1109 12.0425 12.3071 11.8106C12.2744 11.7444 12.2744 11.7112 12.2417 11.6781C12.7323 11.5787 12.6015 11.9762 12.7977 12.0094C13.0921 12.0756 13.2556 11.7775 13.1575 11.5125C13.7135 11.4794 13.8444 12.1087 13.3865 12.3075Z" fill="#428C1F"/>
<path d="M17.0164 11.8768C17.5397 12.0093 18.3901 12.6055 17.9649 13.2018C17.6051 13.7318 16.6893 13.6655 16.166 13.4668C14.6615 12.9368 16.0352 11.3799 17.0164 11.8768Z" fill="#3F8E23"/>
<path d="M17.8672 13.0359C17.5728 13.4665 17.0168 13.4665 16.5262 13.4334C15.9048 13.3671 15.4142 12.8371 15.8067 12.3071C15.7086 13.2346 17.3766 13.1021 17.8672 13.0359Z" fill="#327C18"/>
<path d="M16.9504 12.0093C17.3429 11.9761 17.5391 12.3405 17.7681 12.6055C17.8335 12.6718 17.9316 12.738 17.8335 12.8043C17.7354 12.8705 17.6045 12.7711 17.5391 12.7049C17.441 12.5724 17.4737 12.4399 17.3102 12.3736C17.1794 12.3074 16.9831 12.2411 16.8196 12.208C16.7542 12.1749 16.1982 12.1749 16.4271 11.9761C16.5579 11.8768 16.8196 11.9761 16.9504 12.0093Z" fill="#52B523"/>
</svg>
