<svg width="16" height="16" viewBox="0 0 16 16" fill="none" xmlns="http://www.w3.org/2000/svg">
<path fill-rule="evenodd" clip-rule="evenodd" d="M10.7699 5.84002C10.7699 7.46916 10.5197 8.00931 10.3359 8.21743C10.1864 8.3878 9.70902 8.74403 8 8.74403C6.29098 8.74403 5.81363 8.3878 5.66406 8.21743C5.48032 8.00931 5.23011 7.46916 5.23011 5.84002C5.23011 4.23603 6.4701 2.93601 8 2.93601C9.5299 2.93601 10.7699 4.23603 10.7699 5.84002ZM11.5408 9.68976C12.3524 8.91149 12.6165 7.65309 12.6165 5.84002C12.6165 3.16736 10.5492 1 8 1C5.45078 1 3.38352 3.16736 3.38352 5.84002C3.38352 7.65309 3.64758 8.91149 4.45916 9.68976C2.92279 10.5716 1.71789 12.0091 1.09005 13.7447C0.975557 14.0622 0.948781 14.4301 1.13806 14.706C1.66249 15.4697 2.68366 14.5985 3.10468 13.767C4.03444 11.9307 5.87826 10.68 8 10.68C10.1217 10.68 11.9656 11.9307 12.8953 13.767C13.3163 14.5985 14.3375 15.4697 14.8619 14.706C15.0512 14.4301 15.0244 14.0622 14.91 13.7447C14.2821 12.0091 13.0772 10.5716 11.5408 9.68976Z" fill="#441507" stroke="white" stroke-width="0.2"/>
</svg>
