<svg width="18" height="18" viewBox="0 0 18 18" fill="none" xmlns="http://www.w3.org/2000/svg">
<path d="M15.5485 6.04663L11.2009 5.41478L9.25741 1.47472C9.20433 1.36685 9.117 1.27952 9.00913 1.22643C8.73858 1.09287 8.40981 1.20417 8.27454 1.47472L6.33105 5.41478L1.98346 6.04663C1.86359 6.06375 1.754 6.12026 1.6701 6.20588C1.56867 6.31013 1.51277 6.4504 1.5147 6.59584C1.51662 6.74129 1.57621 6.88003 1.68037 6.98156L4.82592 10.0483L4.08277 14.3788C4.06534 14.4795 4.07649 14.5831 4.11494 14.6779C4.1534 14.7726 4.21763 14.8546 4.30035 14.9147C4.38307 14.9748 4.48096 15.0105 4.58294 15.0178C4.68491 15.025 4.78688 15.0036 4.87729 14.9559L8.76598 12.9113L12.6547 14.9559C12.7608 15.0124 12.8841 15.0312 13.0023 15.0107C13.3002 14.9593 13.5006 14.6767 13.4492 14.3788L12.706 10.0483L15.8516 6.98156C15.9372 6.89766 15.9937 6.78807 16.0108 6.6682C16.0571 6.36855 15.8482 6.09115 15.5485 6.04663Z" fill="#FF7300"/>
</svg>
