<svg width="24" height="24" viewBox="0 0 24 24" fill="none" xmlns="http://www.w3.org/2000/svg">
<path d="M10 12.4573C10 11.9823 10 11.7448 10.0993 11.6117C10.1859 11.4958 10.3185 11.423 10.4628 11.4122C10.6284 11.3999 10.8287 11.5274 11.2295 11.7824L14.4394 13.8251C14.7919 14.0494 14.9682 14.1616 15.0289 14.3045C15.0819 14.4294 15.0819 14.5706 15.0289 14.6955C14.9682 14.8384 14.7919 14.9506 14.4394 15.1749L11.2295 17.2176C10.8287 17.4726 10.6284 17.6001 10.4628 17.5878C10.3185 17.577 10.1859 17.5042 10.0993 17.3883C10 17.2552 10 17.0177 10 16.5427V12.4573Z" fill="white"/>
<path d="M23 7V7C23 3.68629 20.3137 1 17 1H7C3.68629 1 1 3.68629 1 7V7M23 7V13.4C23 16.7603 23 18.4405 22.346 19.7239C21.7708 20.8529 20.8529 21.7708 19.7239 22.346C18.4405 23 16.7603 23 13.4 23H10.6C7.23968 23 5.55953 23 4.27606 22.346C3.14708 21.7708 2.2292 20.8529 1.65396 19.7239C1 18.4405 1 16.7603 1 13.4V7M23 7H18M1 7H10M10 7L6 1.5M10 7H18M14 1.5L18 7M11.2295 17.2176L14.4394 15.1749C14.7919 14.9506 14.9682 14.8384 15.0289 14.6955C15.0819 14.5706 15.0819 14.4294 15.0289 14.3045C14.9682 14.1616 14.7919 14.0494 14.4394 13.8251L11.2295 11.7824C10.8287 11.5274 10.6284 11.3999 10.4628 11.4122C10.3185 11.423 10.1859 11.4958 10.0993 11.6117C10 11.7448 10 11.9823 10 12.4573V16.5427C10 17.0177 10 17.2552 10.0993 17.3883C10.1859 17.5042 10.3185 17.577 10.4628 17.5878C10.6284 17.6001 10.8287 17.4726 11.2295 17.2176Z" stroke="#441406" stroke-width="2"/>
</svg>
