<svg width="14" height="14" viewBox="0 0 14 14" fill="none" xmlns="http://www.w3.org/2000/svg">
<path d="M10.3005 9.7165C9.88016 10.1368 9.10696 10.91 8.41463 11.6023C7.63359 12.3834 6.36761 12.3833 5.58656 11.6022C4.90764 10.9233 4.14662 10.1623 3.70082 9.7165C1.87837 7.89405 1.87837 4.93928 3.70082 3.11684C5.52327 1.29439 8.47804 1.29439 10.3005 3.11684C12.1229 4.93928 12.1229 7.89405 10.3005 9.7165Z" stroke="#FE8C00" stroke-width="1.5" stroke-linecap="round" stroke-linejoin="round"/>
<path d="M8.75065 6.41667C8.75065 7.38316 7.96715 8.16667 7.00065 8.16667C6.03415 8.16667 5.25065 7.38316 5.25065 6.41667C5.25065 5.45017 6.03415 4.66667 7.00065 4.66667C7.96715 4.66667 8.75065 5.45017 8.75065 6.41667Z" stroke="#FE8C00" stroke-width="1.5" stroke-linecap="round" stroke-linejoin="round"/>
</svg>
