<svg width="18" height="18" viewBox="0 0 18 18" fill="none" xmlns="http://www.w3.org/2000/svg">
<path fill-rule="evenodd" clip-rule="evenodd" d="M2.70938 4.10113C2.98341 3.74899 3.12043 3.57293 3.37663 3.47279C3.41481 3.45787 3.46906 3.44089 3.50893 3.43139C3.77652 3.36764 4.02689 3.44592 4.52763 3.60247L4.63893 3.63727C5.01033 3.75338 5.19603 3.81144 5.3633 3.80665C5.40173 3.80555 5.42144 3.80403 5.45959 3.79923C5.62561 3.77834 5.8482 3.66894 6.29338 3.45015V3.45015C6.73559 3.23282 6.9567 3.12415 7.07303 3.00867C7.09983 2.98206 7.11279 2.96791 7.13696 2.93889C7.24186 2.81292 7.31058 2.63544 7.44802 2.28047L7.52185 2.0898C7.7011 1.62684 7.79073 1.39536 7.9921 1.22902C8.03294 1.19528 8.09374 1.15363 8.13995 1.12772C8.36778 1 8.57852 1 9 1V1V1C9.42196 1 9.63295 1 9.86082 1.12779C9.90707 1.15373 9.96785 1.19539 10.0087 1.22917C10.2101 1.39561 10.2997 1.62733 10.479 2.09078L10.5522 2.28015C10.6895 2.63516 10.7582 2.81267 10.863 2.93868C10.8873 2.96782 10.9003 2.98203 10.9272 3.00875C11.0435 3.12423 11.2646 3.2329 11.7068 3.45025V3.45025C12.1518 3.66895 12.3743 3.7783 12.5402 3.79922C12.5785 3.80404 12.5983 3.80557 12.6368 3.80667C12.804 3.81142 12.9896 3.75339 13.3609 3.63733L13.4723 3.60248C13.9731 3.44591 14.2236 3.36762 14.4911 3.4313C14.5309 3.44079 14.5851 3.45772 14.6232 3.47261C14.8794 3.57264 15.0166 3.74874 15.2909 4.10095V4.10095C15.5585 4.44444 15.6923 4.61619 15.7299 4.87962C15.7355 4.91896 15.7396 4.97369 15.7399 5.01343C15.7418 5.27952 15.6174 5.50054 15.3685 5.94259L15.2767 6.10577C15.077 6.46045 14.9772 6.6378 14.9485 6.81206C14.9462 6.8257 14.9452 6.83278 14.9434 6.84648C14.9208 7.02164 14.9766 7.26959 15.0881 7.7655V7.7655C15.204 8.28044 15.2619 8.5379 15.3584 8.68736C15.366 8.69907 15.37 8.70502 15.3779 8.71646C15.4796 8.86245 15.6472 8.9796 15.9823 9.21392L16.0984 9.29508C16.5272 9.59494 16.7416 9.74486 16.8548 9.99423C16.8682 10.0239 16.8846 10.0659 16.8947 10.0969C16.9798 10.3572 16.9304 10.5793 16.8316 11.0235V11.0235C16.7344 11.4609 16.6858 11.6796 16.4938 11.881C16.4709 11.905 16.4376 11.9363 16.4122 11.9575C16.199 12.1362 15.9367 12.1771 15.4123 12.2589L15.3026 12.276C14.9056 12.3379 14.7071 12.3688 14.5545 12.452C14.5328 12.4638 14.5218 12.4703 14.5008 12.4835C14.3537 12.5759 14.1947 12.7784 13.8767 13.1834V13.1834C13.5684 13.576 13.4143 13.7723 13.3594 13.9339C13.3516 13.9569 13.3479 13.9689 13.3415 13.9924C13.2966 14.157 13.3107 14.3535 13.3388 14.7463L13.3544 14.9638C13.3899 15.4584 13.4077 15.7056 13.2971 15.9416C13.2768 15.985 13.2438 16.0426 13.2168 16.0821C13.0696 16.2972 12.8817 16.3904 12.506 16.5769V16.5769C12.1159 16.7706 11.9208 16.8674 11.6526 16.8501C11.6036 16.8469 11.5356 16.8368 11.4877 16.8255C11.2261 16.7639 11.0403 16.5886 10.6687 16.238L10.5515 16.1274C10.2752 15.8667 10.1371 15.7364 9.9896 15.668C9.94915 15.6493 9.92805 15.6409 9.88576 15.6268C9.73158 15.5753 9.48772 15.5753 9 15.5753V15.5753V15.5753C8.51214 15.5753 8.26822 15.5753 8.11386 15.6269C8.0719 15.6409 8.05091 15.6493 8.01076 15.6678C7.86307 15.7362 7.7249 15.8666 7.44855 16.1274L7.33164 16.2377C6.95986 16.5885 6.77397 16.7639 6.51233 16.8254C6.46447 16.8367 6.39653 16.8468 6.34747 16.85C6.07923 16.8673 5.88402 16.7703 5.4936 16.5765V16.5765C5.11857 16.3903 4.93105 16.2972 4.78391 16.0822C4.75688 16.0428 4.72394 15.9852 4.70363 15.9418C4.59306 15.706 4.61068 15.459 4.64591 14.9651L4.66153 14.7461C4.68956 14.3532 4.70358 14.1568 4.65859 13.9922C4.65222 13.9689 4.64855 13.9569 4.64078 13.9341C4.58587 13.7725 4.43174 13.5762 4.12348 13.1836V13.1836C3.80531 12.7784 3.64623 12.5758 3.49902 12.4833C3.47815 12.4702 3.46723 12.4638 3.44559 12.452C3.29293 12.3689 3.09435 12.3379 2.69718 12.276L2.5884 12.259C2.0641 12.1772 1.80194 12.1364 1.58888 11.9582C1.56312 11.9366 1.52936 11.9049 1.5062 11.8806C1.31467 11.6794 1.26597 11.4606 1.16856 11.0228V11.0228C1.06987 10.5793 1.02053 10.3576 1.10524 10.0976C1.11548 10.0661 1.13203 10.0236 1.14571 9.99347C1.25889 9.74451 1.47293 9.59484 1.90102 9.29552L2.01754 9.21404C2.35279 8.97963 2.52042 8.86242 2.62213 8.71635C2.63002 8.70503 2.63398 8.69913 2.64147 8.68753C2.73806 8.53803 2.79601 8.28045 2.9119 7.76529V7.76529C3.02347 7.26939 3.07925 7.02144 3.05665 6.84628C3.0549 6.83271 3.05387 6.8257 3.05166 6.8122C3.02303 6.63792 2.92326 6.46055 2.72371 6.1058L2.63176 5.94234C2.38316 5.50039 2.25885 5.27941 2.2608 5.01355C2.26109 4.97379 2.26517 4.91909 2.27078 4.87973C2.3083 4.61653 2.44199 4.44473 2.70938 4.10113V4.10113ZM9 12.8424C10.9712 12.8424 12.5694 11.2109 12.5694 9.19859C12.5694 7.18629 10.9712 5.55477 9 5.55477C7.02878 5.55477 5.43056 7.18629 5.43056 9.19859C5.43056 11.2109 7.02878 12.8424 9 12.8424Z" stroke="#441507" stroke-width="1.6"/>
</svg>
