<svg width="26" height="21" viewBox="0 0 26 21" fill="none" xmlns="http://www.w3.org/2000/svg">
<path fill-rule="evenodd" clip-rule="evenodd" d="M0 1.275C0 0.570837 0.570837 0 1.275 0H16.575C17.2792 0 17.85 0.570837 17.85 1.275C17.85 1.97916 17.2792 2.55 16.575 2.55H1.275C0.570837 2.55 0 1.97916 0 1.275ZM0 10.2C0 9.49584 0.570837 8.925 1.275 8.925H24.225C24.9292 8.925 25.5 9.49584 25.5 10.2C25.5 10.9042 24.9292 11.475 24.225 11.475H1.275C0.570837 11.475 0 10.9042 0 10.2ZM0 19.125C0 18.4208 0.570837 17.85 1.275 17.85H16.575C17.2792 17.85 17.85 18.4208 17.85 19.125C17.85 19.8292 17.2792 20.4 16.575 20.4H1.275C0.570837 20.4 0 19.8292 0 19.125Z" fill="#441406"/>
</svg>
