<svg width="25" height="9" viewBox="0 0 25 9" fill="none" xmlns="http://www.w3.org/2000/svg">
<g clip-path="url(#clip0_783_7573)">
<path d="M13.0499 3.09106C13.0362 4.16703 14.0088 4.76742 14.7414 5.12443C15.4941 5.49068 15.7469 5.72557 15.7439 6.05315C15.7383 6.55441 15.1435 6.77566 14.5869 6.78426C13.6159 6.7993 13.0513 6.52209 12.6024 6.31242L12.2526 7.94927C12.703 8.15678 13.5368 8.33776 14.4016 8.3457C16.4314 8.3457 17.7593 7.34373 17.7665 5.79023C17.7745 3.81862 15.0394 3.70949 15.0581 2.82823C15.0646 2.56101 15.3195 2.27586 15.8783 2.20335C16.1548 2.16673 16.9183 2.1387 17.7838 2.53728L18.1235 0.9536C17.6581 0.784113 17.0598 0.621821 16.315 0.621821C14.4045 0.621821 13.0607 1.63743 13.0499 3.09106ZM21.3879 0.758232C21.0172 0.758232 20.7049 0.974435 20.5655 1.30621L17.666 8.22938H19.6943L20.098 7.11389H22.5765L22.8107 8.22938H24.5984L23.0384 0.758232H21.3879ZM21.6716 2.77647L22.257 5.58197H20.6539L21.6716 2.77647ZM10.5906 0.758326L8.99182 8.22929H10.9247L12.5227 0.758139H10.5906M7.73132 0.758139L5.71953 5.84339L4.90573 1.51961C4.81025 1.03694 4.43315 0.758232 4.01439 0.758232H0.72575L0.679688 0.975183C1.35483 1.12169 2.12191 1.35798 2.58665 1.6108C2.87105 1.76525 2.95215 1.90026 3.04559 2.26726L4.58694 8.22938H6.62947L9.76096 0.758232H7.73132" fill="url(#paint0_linear_783_7573)"/>
</g>
<defs>
<linearGradient id="paint0_linear_783_7573" x1="11.6761" y1="8.50064" x2="11.8997" y2="0.568104" gradientUnits="userSpaceOnUse">
<stop stop-color="#888888"/>
<stop offset="1" stop-color="#363636"/>
</linearGradient>
<clipPath id="clip0_783_7573">
<rect width="23.92" height="7.7549" fill="white" transform="translate(0.679688 0.62207)"/>
</clipPath>
</defs>
</svg>
